<svg width="390" height="844" viewBox="0 0 390 844" fill="none" xmlns="http://www.w3.org/2000/svg">
<g opacity="0.5">
<path d="M236.6 606.531C236.7 609.831 237.7 613.032 238.6 616.132C240.6 623.232 243 630.132 247.2 636.332C248.2 637.832 249.7 638.832 250.9 640.132C251.4 640.632 252 640.932 252.7 640.632C253.5 640.332 253.5 639.632 253.5 638.932C253.9 634.832 252.3 631.232 250.7 627.632C247.4 619.832 242.4 612.931 236.6 606.531Z" fill="#337085" fill-opacity="0.5"/>
<path d="M344.6 131.732C345.2 134.732 345.6 137.232 346.3 139.732C348.2 146.032 350 152.332 353.2 158.132C354.6 160.832 356.5 163.232 358.7 165.432C359.3 166.032 360.2 166.232 361 165.932C361.8 165.632 361.9 164.832 362 164.032C362.3 160.332 360.9 156.832 359.4 153.632C355.9 145.932 351.3 138.932 345.7 132.432C345.5 132.332 345.3 132.232 344.6 131.732Z" fill="#337085" fill-opacity="0.5"/>
<path d="M147.9 562.932C147.3 563.832 147.3 564.532 147.5 565.132C149.1 569.632 149.8 574.332 151.4 578.832C153.5 584.632 155.9 590.232 159.8 595.032C160.7 596.132 161.5 597.832 163.3 597.332C165.4 596.732 164.8 594.732 164.6 593.332C164.2 589.632 162.7 586.132 161.1 582.732C157.7 575.632 153 569.332 147.9 562.932Z" fill="#337085" fill-opacity="0.5"/>
<path d="M128.2 790.232C128.2 785.932 126.3 782.132 124.6 778.432C122.4 773.332 119 768.932 116 764.332C114.9 762.632 113.5 761.232 112.2 759.632C112 759.332 111.7 759.032 111.3 759.132C110.8 759.332 110.9 759.932 111 760.332C113.3 769.332 115.5 778.432 120.3 786.632C121.3 788.332 122.6 789.932 123.7 791.532C124.6 792.832 126 793.132 127.3 792.832C128.6 792.532 128 791.132 128.2 790.232Z" fill="#337085" fill-opacity="0.5"/>
<path d="M11.3 3.73157C12.8 13.4316 15.5 22.3316 20 30.6316C21.3 33.0316 22.9 35.4316 25.1 37.2316C25.8 37.8316 26.5 38.4316 27.5 38.0316C28.5 37.6316 28.5 36.7316 28.5 35.7316C28.7 32.1316 27.2 28.9316 25.8 25.7316C22.6 18.0316 17.6 11.1316 12.5 4.43157C12.3 4.23157 12 4.13157 11.3 3.73157Z" fill="#337085" fill-opacity="0.5"/>
<path d="M46.2 528.031C45.3 529.231 46.2 530.232 46.4 531.232C48.4 540.632 51.2 549.732 56.7 557.832C57.5 559.132 58.6 560.131 59.8 561.031C60.5 561.631 61.3 562.232 62.2 561.832C63.2 561.432 63.2 560.431 63.1 559.531C62.9 556.231 61.9 553.132 60.6 550.132C57.2 542.132 52.5 534.932 46.8 528.332C46.7 528.332 46.4 528.231 46.2 528.031Z" fill="#337085" fill-opacity="0.5"/>
<path d="M198.2 588.832C197.8 590.632 198.5 591.732 198.7 592.932C200.1 600.332 202.4 607.432 205.7 614.232C207.1 617.032 209.1 619.631 211.1 622.031C211.8 622.831 212.8 623.432 213.9 623.132C215.1 622.732 215.2 621.631 215.2 620.531C215 616.831 213.7 613.232 212.2 609.932C208.6 602.332 203.9 595.532 198.2 588.832Z" fill="#337085" fill-opacity="0.5"/>
<path d="M133 686.932C134.5 696.432 137.2 705.232 141.4 713.332C142.8 716.032 144.3 719.032 147.2 720.832C149.1 722.032 150.3 721.432 150.3 719.232C150.3 716.132 149.5 713.232 148.3 710.432C145.5 703.832 141.7 697.732 137.5 692.032C136.2 690.332 135 688.532 133 686.932Z" fill="#337085" fill-opacity="0.5"/>
<path d="M362.3 181.432C363.2 186.232 364.4 190.832 365.9 195.532C367.9 201.532 370.2 207.331 374.1 212.331C374.9 213.331 375.9 214.332 377 215.132C378.3 216.132 379.3 215.532 379.4 214.132C379.6 212.432 379.7 210.631 379.1 208.831C377.1 202.831 374.4 197.232 370.9 191.932C368.7 188.632 366.2 185.632 364 182.432C363.7 181.932 363.4 181.232 362.3 181.432Z" fill="#337085" fill-opacity="0.5"/>
<path d="M8.4 47.9316C7.9 50.1316 8.9 52.2316 9.4 54.1316C11.2 60.8316 13 67.6316 16.6 73.8316C18.1 76.3316 19.7 78.9316 22 80.8316C22.7 81.4316 23.4 82.1316 24.4 81.6316C25.4 81.0316 25.7 79.9316 25.5 78.9316C24.8 75.7316 24.2 72.6316 22.9 69.6316C19.7 62.2316 14.9 55.7316 10 49.2316C9.6 48.6316 9.2 48.0316 8.4 47.9316Z" fill="#337085" fill-opacity="0.5"/>
<path d="M252 127.332C252.5 129.532 252.8 131.732 253.4 133.932C255.1 140.832 257.3 147.532 260.7 153.832C262.1 156.432 263.7 159.132 266.3 160.832C268.1 161.932 269.1 161.432 269.2 159.432C269.4 156.032 268.2 152.832 266.9 149.832C263.3 141.532 258.3 134.232 252.6 127.232C252.4 127.132 252.2 127.232 252 127.332Z" fill="#337085" fill-opacity="0.5"/>
<path d="M372.8 16.9316C373.2 21.1316 374.4 24.9316 375.5 28.8316C377.2 34.4316 379.2 40.0316 382.3 45.1316C383.6 47.3316 385.3 49.1316 387.2 50.8316C387.7 51.3316 388.4 51.5316 389.1 51.3316C389.9 51.0316 389.8 50.3316 389.9 49.6316C390.2 47.0316 389.5 44.5316 388.6 42.1316C386.4 35.6316 382.8 29.8316 378.6 24.2316C377.2 22.3316 375.5 20.4316 374.4 18.3316C374.1 17.5316 373.7 17.0316 372.8 16.9316Z" fill="#337085" fill-opacity="0.5"/>
<path d="M291.6 687.332C291.8 690.932 293 694.332 293.9 697.832C295.1 702.332 296.6 706.832 298.7 711.132C300.2 714.132 301.9 716.932 304.1 719.432C304.4 719.732 304.7 720.132 305.1 720.332C305.9 720.932 306.6 721.732 307.7 721.232C308.8 720.732 308.8 719.732 308.7 718.732C308.1 713.532 306.2 708.631 303.7 704.031C300.6 698.331 296.7 693.032 292.7 687.932C292.5 687.632 292.3 687.331 292.1 687.031C292 687.031 291.8 687.132 291.6 687.332Z" fill="#337085" fill-opacity="0.5"/>
<path d="M227.5 842.232C227.4 837.632 225.9 833.932 224.3 830.432C221.8 825.132 218.7 820.032 215.1 815.332C214.1 814.132 213.2 812.832 212.3 811.632C211.9 811.032 211.6 810.032 210.7 810.432C210.1 810.732 210.4 811.632 210.5 812.232C211.3 815.332 212 818.532 212.9 821.632C214.5 826.832 216.3 832.032 219 836.732C220.3 839.032 222 841.132 223.9 843.032C224.6 843.732 225.5 844.032 226.4 843.532C227.2 843.332 227.4 842.432 227.5 842.232Z" fill="#337085" fill-opacity="0.5"/>
<path d="M123.3 192.932C124 197.432 125.1 201.532 126.3 205.632C128.2 212.032 130.7 218.032 134.6 223.532C135.5 224.832 136.3 226.132 137.7 226.932C139.5 227.932 140.3 227.532 140.5 225.532C140.7 223.532 140.4 221.532 139.8 219.632C137.3 212.232 133.4 205.532 128.7 199.332C127.1 197.132 125.7 194.932 123.3 192.932Z" fill="#337085" fill-opacity="0.5"/>
<path d="M181.2 144.232C181.1 148.132 182.3 151.432 183.2 154.532C184.4 158.632 185.6 162.932 187.6 166.732C189.6 170.632 191.4 174.532 194.9 177.432C195.5 177.932 196.1 178.832 197 178.132C197.9 177.432 198.4 176.532 198.2 175.232C197.5 170.132 195.5 165.532 193.1 161.032C190.1 155.432 186.6 150.332 182.5 145.432C182.3 145.132 181.9 144.932 181.2 144.232Z" fill="#337085" fill-opacity="0.5"/>
<path d="M252.1 527.732C251.8 530.032 252.5 531.632 253 533.232C254.9 539.932 256.5 546.832 259.8 553.032C261.4 556.132 263.1 559.132 265.9 561.432C266.6 562.032 267.2 562.732 268.3 562.332C269.4 561.932 269.1 560.832 269.2 560.032C269.5 556.132 267.9 552.632 266.4 549.232C262.8 541.532 258.1 534.532 252.1 527.732Z" fill="#337085" fill-opacity="0.5"/>
<path d="M314.9 404.732C316.2 412.332 318.3 419.732 321.4 426.832C323.1 430.732 324.9 434.632 328.2 437.532C329 438.232 329.8 439.332 331.1 438.932C332.4 438.532 331.9 437.132 331.9 436.232C332.1 430.932 329.6 426.432 327.3 421.932C324.3 416.032 320.2 410.932 316.2 405.632C315.9 405.132 315.7 404.632 314.9 404.732Z" fill="#337085" fill-opacity="0.5"/>
<path d="M37.2 220.432C36.7 215.932 35.1 211.832 33.1 207.832C30.1 201.832 26.3 196.432 22.3 191.132C22.1 190.832 21.9 190.532 21.6 190.232C21.2 189.932 21 189.232 20.4 189.532C19.8 189.832 20.1 190.432 20.2 190.932C21.4 197.132 23.3 203.032 25.5 208.932C27.2 213.332 29.5 217.332 32.4 220.932C32.7 221.332 33.1 221.732 33.4 222.132C34.1 222.932 35 223.232 36 222.832C37.1 222.432 37.3 221.532 37.2 220.432Z" fill="#337085" fill-opacity="0.5"/>
<path d="M379.4 590.832C379.4 586.532 377.5 582.732 375.7 578.932C373.3 573.932 370.1 569.432 367 564.732C366.1 563.432 365 562.332 364.1 561.132C363.8 560.732 363.6 560.032 363 560.332C362.4 560.632 362.6 561.232 362.8 561.732C363.9 566.032 364.8 570.332 366.1 574.532C367.4 578.732 369.2 582.632 371.2 586.532C372.5 589.032 374.1 591.132 376.2 593.032C376.9 593.632 377.6 594.532 378.7 594.032C379.7 593.532 379.4 592.532 379.5 591.632C379.4 591.432 379.4 591.132 379.4 590.832Z" fill="#337085" fill-opacity="0.5"/>
<path d="M172.1 420.032C172.5 423.632 173.2 426.832 174.1 430.032C175.7 435.632 177.8 441.032 180.5 446.232C181.7 448.632 183.4 450.732 185.2 452.732C185.9 453.532 186.9 454.432 188.1 453.932C189.5 453.532 189 452.232 189 451.232C189.1 448.332 188 445.632 187 442.932C184 435.032 178.9 428.432 174 421.632C173.6 421.132 173.2 420.632 172.1 420.032Z" fill="#337085" fill-opacity="0.5"/>
<path d="M189.3 717.632C188.9 713.432 187.1 709.432 185.2 705.532C182.2 699.532 178.2 694.132 174.2 688.732C174 688.532 173.9 688.232 173.7 688.032C173.3 687.632 172.9 686.832 172.3 687.232C171.8 687.532 172.1 688.132 172.2 688.632C173 691.732 173.8 694.832 174.7 697.932C176.2 702.832 177.8 707.732 180.1 712.332C181.3 714.732 183.1 716.932 184.8 719.032C185.6 720.032 186.4 721.332 188.1 720.932C189.9 720.532 188.9 718.932 189.3 717.632Z" fill="#337085" fill-opacity="0.5"/>
<path d="M22.7 445.132C24.4 455.332 27.3 464.532 31.9 473.132C33 475.132 34.8 476.832 36.4 478.632C37 479.332 38.1 479.732 39.1 479.432C40.2 479.032 39.9 477.932 39.9 477.132C39.9 473.232 38.3 469.632 36.8 466.132C34.4 460.532 31 455.332 27.2 450.532C25.9 448.932 24.8 447.032 22.7 445.132Z" fill="#337085" fill-opacity="0.5"/>
<path d="M102.9 600.531C102.3 603.231 103.3 605.431 103.9 607.531C105.3 612.831 106.7 618.232 109.2 623.232C110.8 626.432 112.5 629.632 114.9 632.432C115.5 633.132 116.2 633.632 117 634.132C118.6 635.132 119.5 634.732 119.6 632.832C119.8 629.032 118.5 625.532 117 622.132C113.8 614.632 109.1 608.031 104.1 601.531C103.8 601.231 103.4 601.031 102.9 600.531Z" fill="#337085" fill-opacity="0.5"/>
<path d="M227 184.332C226.2 186.932 227.2 188.632 227.6 190.232C229.8 199.432 232.4 208.432 238.4 216.132C239 216.832 239.5 217.532 240.3 218.032C241 218.432 241.8 219.432 242.7 218.632C243.4 218.032 243.7 217.132 243.6 216.032C243.2 211.032 241.2 206.532 238.9 202.132C235.9 196.432 232.1 191.232 228.2 186.132C227.8 185.632 227.6 185.232 227 184.332Z" fill="#337085" fill-opacity="0.5"/>
<path d="M189.5 201.632C189.7 205.932 191.1 210.032 192.2 214.032C193.8 219.932 196.4 225.532 199.6 230.832C200.5 232.332 201.8 233.432 203 234.632C203.7 235.332 204.5 236.132 205.5 235.432C206.5 234.832 206.7 233.732 206.5 232.632C205.8 229.432 205.2 226.132 203.8 223.132C200 215.432 195.5 208.132 189.5 201.632Z" fill="#337085" fill-opacity="0.5"/>
<path d="M0 355.632C0.2 359.432 1.4 362.632 2.3 366.032C4.1 373.332 6.8 380.232 11.2 386.432C12 387.632 13 388.632 14.1 389.532C15.7 390.732 17 390.132 17.1 388.132C17.3 385.232 16.3 382.432 15.3 379.732C11.9 371.232 6.7 363.732 1 356.532C0.8 356.132 0.5 356.032 0 355.632Z" fill="#337085" fill-opacity="0.5"/>
<path d="M97.3 64.7316C98.3 69.5316 99.5 74.1316 100.8 78.7316C101.9 82.5316 103.6 86.1316 105.2 89.7316C106.6 92.7316 108.6 95.4316 111 97.8316C111.7 98.5316 112.6 99.1316 113.6 98.6316C114.5 98.2316 114.5 97.1316 114.5 96.2316C114.5 92.7316 113.4 89.5316 112 86.4316C108.6 78.5316 103.5 71.5316 98.1 64.8316C98 64.7316 97.8 64.8316 97.3 64.7316Z" fill="#337085" fill-opacity="0.5"/>
<path d="M243.8 503.332C243.2 500.832 242.7 498.032 241.5 495.332C238.3 488.032 234.2 481.232 229.1 475.132C228.7 474.632 228.4 474.131 228.1 473.731C227.8 473.331 227.7 472.431 226.9 472.731C226.4 472.931 226.5 473.632 226.7 474.132C228.9 482.232 230.5 490.432 234.7 497.932C236.1 500.532 237.9 502.932 239.8 505.132C240.5 505.932 241.4 506.832 242.7 506.432C244 506.032 243.8 504.732 243.8 503.332Z" fill="#337085" fill-opacity="0.5"/>
<path d="M197.4 81.0316C196.9 77.4316 195.7 73.9316 194.1 70.5316C191 63.8316 186.8 57.9316 182.2 52.1316C181.9 51.8316 181.6 51.4316 181.3 51.1316C181.1 50.9316 180.7 50.7316 180.5 50.8316C180 50.9316 180.2 51.4316 180.3 51.7316C182.4 60.7316 184.7 69.7316 189.6 77.8316C190.7 79.6316 191.8 81.5316 193.5 82.9316C194.4 83.6316 195.2 84.6316 196.4 84.1316C197.7 83.6316 197.3 82.3316 197.4 81.0316Z" fill="#337085" fill-opacity="0.5"/>
<path d="M78.7 800.732C79.2 804.632 79.9 808.232 81 811.732C83.2 818.632 85.6 825.432 90 831.432C90.8 832.432 91.7 833.332 92.6 834.232C93.2 834.832 94 834.832 94.7 834.532C95.5 834.232 95.4 833.532 95.5 832.832C95.7 829.432 94.8 826.232 93.5 823.132C90.3 816.132 86.4 809.532 81.3 803.632C80.5 802.732 80.3 801.332 78.7 800.732Z" fill="#337085" fill-opacity="0.5"/>
<path d="M275.8 288.732C275.6 291.032 276.5 293.232 277 295.432C278.5 302.032 280.7 308.532 283.8 314.532C285.1 316.932 286.6 319.432 288.7 321.332C289.6 322.132 290.8 323.432 292 322.632C293 321.932 293 320.432 292.8 319.032C292.1 314.932 290.5 311.132 288.7 307.432C285.7 301.032 281.3 295.532 277.2 289.832C276.8 289.432 276.3 289.132 275.8 288.732Z" fill="#337085" fill-opacity="0.5"/>
<path d="M362.6 265.132C362 267.632 363.2 269.632 363.6 271.632C365.4 279.632 368.2 287.332 372.6 294.432C373.6 296.132 374.8 297.732 376.7 298.732C378.3 299.532 379 299.132 379.2 297.432C379.5 294.232 378.8 291.232 377.6 288.432C374 280.232 369.1 272.932 363.5 265.932C363.4 265.632 363.1 265.532 362.6 265.132Z" fill="#337085" fill-opacity="0.5"/>
<path d="M291.6 437.032C292.2 442.632 293.8 447.732 295.5 452.732C297.4 458.432 300 463.732 303.7 468.532C303.9 468.832 304.1 469.132 304.4 469.432C305.3 470.532 306.4 471.232 307.7 470.632C309 470.032 308.8 468.632 308.6 467.432C308 463.832 306.9 460.332 305.3 456.932C302.1 450.332 297.9 444.332 293.6 438.432C293.3 438.032 293 437.732 292.7 437.432C292.4 437.432 292.1 437.332 291.6 437.032Z" fill="#337085" fill-opacity="0.5"/>
<path d="M317.3 42.6316C318.5 50.1316 320.7 57.2316 323.6 64.2316C325.3 68.2316 327.4 71.9316 330.4 75.0316C331.2 75.8316 332.1 76.4316 333.2 75.9316C334.3 75.5316 333.9 74.4316 334 73.6316C334.3 68.7316 332.1 64.4316 330 60.2316C326.9 54.1316 322.9 48.6316 318.7 43.3316C318.4 42.9316 318.2 42.5316 317.3 42.6316Z" fill="#337085" fill-opacity="0.5"/>
<path d="M271.3 32.1316C270.6 27.6316 268.9 23.0316 266.5 18.7316C263.5 13.3316 260 8.13155 256.1 3.23155C255.7 2.73155 255.4 2.03155 254.8 2.23155C254 2.53155 254.3 3.43155 254.4 3.93155C256.9 13.7316 259.2 23.7316 265.5 32.2316C266 32.9316 266.5 33.5316 267.1 34.1316C268 35.0316 269 36.1316 270.4 35.5316C271.8 35.0316 271.1 33.5316 271.3 32.1316Z" fill="#337085" fill-opacity="0.5"/>
<path d="M315.1 801.031C314.6 802.631 315.2 804.131 315.6 805.531C317.1 810.931 318.6 816.532 320.7 821.732C322.4 826.032 324.7 830.132 328.2 833.432C329 834.232 329.9 834.732 331 834.432C332.4 834.032 331.8 832.832 331.8 831.932C331.9 827.332 329.9 823.132 327.9 819.132C325 813.132 321.1 807.731 316.9 802.531C316.5 801.831 316 801.231 315.1 801.031Z" fill="#337085" fill-opacity="0.5"/>
<path d="M348.1 720.932C347.6 723.732 348.5 725.932 349.1 728.032C350.6 734.032 352.5 739.932 355.2 745.532C356.9 749.032 359.1 752.132 362.1 754.732C362.7 755.232 363.3 755.432 364 755.232C364.8 754.932 364.7 754.232 364.8 753.532C365.2 749.632 363.7 746.032 362.2 742.632C358.7 734.932 353.8 727.932 348.1 720.932Z" fill="#337085" fill-opacity="0.5"/>
<path d="M76.7 268.132C78 273.232 79.6 277.632 81.2 282.032C83.8 289.032 86.6 295.932 90.3 302.432C91.7 304.832 93.2 307.232 95.2 309.232C95.6 309.632 96 310.232 96.7 309.832C97.3 309.532 97.1 308.932 97.1 308.432C96.9 305.032 95.6 301.932 94.4 298.932C90.9 290.032 86 281.932 81 273.832C79.8 272.032 79.1 269.832 76.7 268.132Z" fill="#337085" fill-opacity="0.5"/>
<path d="M210.3 11.4316C211.8 16.0316 213.2 20.5316 214.8 24.9316C216.5 29.9316 218.8 34.6316 220.8 39.4316C222.2 42.6316 224.1 45.5316 225.7 48.5316C226.5 50.0316 227.5 51.4316 228.8 52.6316C229.3 53.0316 229.7 53.5316 230.4 53.1316C231.1 52.7316 231.1 52.1316 231 51.4316C230 46.9316 228.7 42.6316 226.6 38.5316C224 33.2316 221.2 28.0316 218.3 22.9316C216.2 19.3316 213.7 16.0316 211.8 12.3316C211.6 11.8316 211.3 11.3316 210.3 11.4316Z" fill="#337085" fill-opacity="0.5"/>
<path d="M32.9 734.632C33.6 737.232 34.1 739.632 35 741.932C38.2 750.432 41.2 759.032 45.5 767.132C47 769.932 48.6 772.732 50.8 775.032C51.3 775.532 51.8 776.432 52.6 775.932C53.3 775.532 53.2 774.732 53 773.932C51.8 767.532 49 761.732 46.1 756.032C42.8 749.132 38.5 742.832 34.7 736.232C34.5 735.532 34.1 734.832 32.9 734.632Z" fill="#337085" fill-opacity="0.5"/>
<path d="M366.9 80.1316C367.1 83.1316 368.4 85.7316 369.3 88.3316C372 96.6316 375.2 104.632 379.2 112.432C380.6 115.232 382.4 117.832 384.3 120.232C384.8 120.932 385.5 122.132 386.6 121.432C387.7 120.832 387.2 119.732 387 118.832C384.6 110.032 380.7 101.932 376 94.0316C373.7 90.1316 371.3 86.2316 368.9 82.3316C368.5 81.6316 368.2 80.7316 366.9 80.1316Z" fill="#337085" fill-opacity="0.5"/>
<path d="M90.9 358.732C92.3 366.032 95 372.832 97.6 379.632C100 385.832 103.1 391.632 106.6 397.332C107.1 398.132 107.8 398.832 108.5 399.532C109 400.032 109.5 400.532 110.3 400.032C111 399.532 110.9 398.932 110.7 398.232C109.4 393.032 107.5 388.032 105.2 383.132C101.7 375.732 97.3 368.832 93.1 361.732C92.6 360.632 91.7 359.732 90.9 358.732Z" fill="#337085" fill-opacity="0.5"/>
<path d="M282.9 100.032C284.3 105.332 286 110.332 287.9 115.232C289.9 120.332 291.6 125.432 294.3 130.232C296.2 133.532 297.7 137.032 300.2 139.832C300.8 140.532 301.4 141.832 302.7 141.232C303.9 140.632 303.1 139.532 303 138.632C301.9 132.832 299.3 127.632 296.8 122.332C293.3 115.132 288.9 108.432 284.8 101.632C284.3 100.732 284.3 100.732 282.9 100.032Z" fill="#337085" fill-opacity="0.5"/>
<path d="M319.8 172.832C319.6 175.132 320.7 176.732 321.2 178.532C323.8 187.332 327.3 195.832 331.3 204.032C332.9 207.432 335 210.532 337.3 213.632C337.8 214.332 338.6 215.132 339.6 214.632C340.5 214.232 339.9 213.332 339.8 212.632C338.6 205.332 335.1 198.932 331.8 192.432C328.8 186.532 325.2 181.032 321.9 175.432C321.4 174.532 320.6 173.932 319.8 172.832Z" fill="#337085" fill-opacity="0.5"/>
<path d="M18.5 297.332C18.9 300.532 19.9 303.132 20.8 305.632C23.8 314.132 26.8 322.532 31.2 330.432C32.6 333.032 34.3 335.432 35.9 337.932C36.3 338.632 37 339.332 38 338.932C39 338.632 38.6 337.632 38.6 337.032C38.3 333.532 36.9 330.332 35.6 327.132C31.6 317.432 26 308.632 20.5 299.732C20 299.132 19.4 298.432 18.5 297.332Z" fill="#337085" fill-opacity="0.5"/>
<path d="M45.8 8.83159C46.6 11.5316 47.3 14.1316 48.2 16.7316C49.9 21.4316 51.5 26.1316 53.5 30.7316C56 36.6316 58.7 42.5316 62.4 47.8316C63.2 48.9316 64.2 50.9316 65.7 50.2316C66.9 49.6316 66.1 47.7316 65.7 46.3316C64.4 41.4316 62.4 36.8316 60.2 32.3316C56.2 24.3316 51.6 16.6316 46.7 9.13159C46.5 9.03159 46.4 8.73159 45.8 8.83159Z" fill="#337085" fill-opacity="0.5"/>
<path d="M45.8 359.632C47.7 365.132 49.5 370.732 51.6 376.232C54.4 383.632 57.7 390.732 62 397.432C62.6 398.332 63.2 399.232 63.9 400.132C64.3 400.632 64.7 401.332 65.5 401.132C66.3 400.832 66.2 400.032 66.2 399.432C66.2 396.832 65.3 394.532 64.4 392.232C60.7 383.032 56 374.232 50.6 365.832C49.2 363.732 47.9 361.432 46.6 359.332C46.3 359.432 46 359.532 45.8 359.632Z" fill="#337085" fill-opacity="0.5"/>
<path d="M307.9 225.332C309.3 231.332 311.4 236.732 313.4 242.232C315.8 248.732 318.8 255.032 322.2 261.032C323.2 262.732 324.4 264.132 325.6 265.732C326.1 266.332 326.9 266.632 327.6 266.332C328.6 265.932 327.9 265.132 327.8 264.632C327 259.732 325.1 255.232 323 250.732C319.1 242.432 314.5 234.632 309.5 226.932C309.1 226.332 308.9 225.632 307.9 225.332Z" fill="#337085" fill-opacity="0.5"/>
<path d="M303.4 577.632C304.6 583.332 306.8 588.832 309 594.232C310.7 598.432 312.6 602.532 314.3 606.632C315.8 610.332 318.3 613.532 320.4 616.932C320.9 617.732 321.9 617.731 322.7 617.531C323.7 617.231 323.5 616.232 323.4 615.632C322.5 612.532 321.6 609.432 320.3 606.432C317.4 599.332 313.6 592.832 309.7 586.232C307.9 583.232 305.9 580.332 304 577.332C303.8 577.432 303.6 577.532 303.4 577.632Z" fill="#337085" fill-opacity="0.5"/>
<path d="M362.6 404.232C362.3 406.332 363.2 408.132 363.7 409.732C365.8 416.132 367.9 422.632 371 428.632C372.6 431.632 374.3 434.532 376.6 437.132C377.1 437.732 377.7 438.632 378.7 438.032C379.6 437.532 379.3 436.632 379.2 435.832C377.6 426.832 372.7 419.232 368 411.532C366.9 409.732 365.6 408.032 364.5 406.132C364 405.432 363.5 404.932 362.6 404.232Z" fill="#337085" fill-opacity="0.5"/>
<path d="M261.2 48.3315C260.6 51.0315 262 53.3315 262.7 55.7315C265.1 63.8315 268 71.8315 272.7 79.0315C273.4 80.1315 274.5 81.0315 275.3 82.1315C275.7 82.7315 276.3 82.7315 276.9 82.5315C277.6 82.3315 277.5 81.7315 277.5 81.2315C277.6 77.9315 276.2 75.0315 275 72.1315C271.9 64.9315 268.1 58.0315 263.4 51.7315C262.6 50.6315 261.9 49.4315 261.2 48.3315Z" fill="#337085" fill-opacity="0.5"/>
<path d="M142.4 3.53156C141.4 6.13156 143 8.13155 143.6 10.3316C144.6 13.9316 145.8 17.5316 147.2 21.0316C149.3 26.1316 151.7 31.1316 155 35.6316C155.6 36.4316 156.4 37.5316 157.6 36.9316C158.7 36.3316 158.4 35.2316 158.2 34.1316C156.7 26.5316 152.9 19.9316 149 13.4316C147 10.0316 144.6 6.83156 142.4 3.53156Z" fill="#337085" fill-opacity="0.5"/>
<path d="M180.3 510.732C181.1 513.632 181.6 516.032 182.4 518.432C184.9 526.032 187.5 533.532 191.6 540.332C192.5 541.832 193.7 543.132 194.8 544.532C195.2 545.032 195.7 545.632 196.5 545.232C197.2 544.932 197.2 544.132 197.2 543.532C197.1 541.432 196.5 539.332 195.7 537.332C192.2 528.232 187.1 519.832 181.5 511.832C181.4 511.532 181 511.332 180.3 510.732Z" fill="#337085" fill-opacity="0.5"/>
<path d="M8.6 243.632C8.6 246.232 9.8 248.532 10.6 250.832C12.8 257.932 15.4 264.932 19.2 271.432C20.2 273.132 21.4 274.632 22.6 276.132C23.1 276.732 23.7 277.332 24.5 276.932C25.3 276.532 25.3 275.832 25.2 275.032C24.5 269.632 22 264.832 19.6 260.032C16.9 254.632 13.6 249.732 10.2 244.732C9.8 244.232 9.5 243.732 8.6 243.632Z" fill="#337085" fill-opacity="0.5"/>
<path d="M15.2 128.132C14.7 130.032 15.3 131.132 15.6 132.232C18.2 140.032 20.4 147.932 24.5 155.132C25.8 157.332 27 159.732 29 161.432C29.5 161.832 29.9 162.632 30.7 162.332C31.6 162.032 31.2 161.232 31.2 160.632C31.3 156.532 29.5 153.032 27.9 149.432C24.8 142.532 20.6 136.232 16.5 129.832C16.3 129.432 15.9 128.932 15.2 128.132Z" fill="#337085" fill-opacity="0.5"/>
<path d="M320.7 299.932C321.3 303.132 322.3 306.132 323.2 309.132C324.7 313.732 326.3 318.332 328.5 322.732C330.1 326.032 331.9 329.232 334.4 332.032C335 332.632 335.6 333.232 336.5 332.832C337.6 332.332 337.3 331.332 337.1 330.532C335.9 325.032 333.4 319.932 330.8 314.932C328.2 310.132 325.3 305.432 322.1 300.932C321.9 300.532 321.8 299.832 320.7 299.932Z" fill="#337085" fill-opacity="0.5"/>
<path d="M364.6 619.932C364.9 623.532 366.1 626.632 367.2 629.632C368.8 634.032 370.1 638.432 372.3 642.632C374.1 646.032 375.6 649.632 378.2 652.432C378.8 653.132 379.4 654.532 380.7 653.832C381.8 653.232 381.3 652.032 381.1 651.032C380 645.732 377.7 640.832 375.1 636.032C372.5 631.232 369.4 626.732 366.5 622.032C366.1 621.332 365.7 620.732 364.6 619.932Z" fill="#337085" fill-opacity="0.5"/>
<path d="M133.4 477.132C133.3 480.132 134.6 482.632 135.4 485.132C137.6 492.132 140.1 499.032 144 505.432C145 507.032 146.3 508.332 147.3 509.932C147.7 510.532 148.3 510.932 149 510.632C149.9 510.332 149.6 509.532 149.6 508.932C149.4 505.432 148 502.232 146.7 499.032C143.7 491.932 139.4 485.532 135.3 479.132C135 478.432 134.6 477.732 133.4 477.132Z" fill="#337085" fill-opacity="0.5"/>
<path d="M70 113.632C70.9 116.732 71.8 119.832 72.8 122.832C75.2 130.432 78 137.832 82.7 144.432C83.3 145.232 84.1 146.032 84.8 146.732C85.2 147.232 85.8 147.432 86.4 147.132C87.1 146.732 86.9 146.132 86.8 145.532C86.3 141.832 85.2 138.132 83.6 134.832C79.8 127.432 75.7 120.232 70 113.632Z" fill="#337085" fill-opacity="0.5"/>
<path d="M237.2 704.132C236.6 706.932 238 709.232 238.7 711.632C240.9 719.032 243.6 726.132 247.6 732.732C248.5 734.232 249.6 735.732 250.9 736.932C251.3 737.332 251.7 737.932 252.4 737.532C253 737.232 252.8 736.632 252.8 736.132C253.2 732.932 251.7 730.232 250.6 727.432C247.3 719.332 242.7 711.732 237.4 704.632C237.5 704.532 237.3 704.332 237.2 704.132Z" fill="#337085" fill-opacity="0.5"/>
<path d="M228.6 418.432C228 420.132 229 421.532 229.4 422.832C231.6 430.832 234.5 438.532 238.5 445.832C239.6 447.832 240.9 449.732 242.6 451.332C243.1 451.732 243.6 452.132 244.2 451.832C245 451.532 244.8 450.832 244.8 450.332C244.9 447.332 243.7 444.632 242.6 442.032C239.8 435.532 236.5 429.232 232.3 423.432C231 421.832 230.3 419.832 228.6 418.432Z" fill="#337085" fill-opacity="0.5"/>
<path d="M336.3 494.032C336.7 497.132 338 499.932 338.9 502.832C341.3 510.932 344.5 518.632 349.6 525.532C349.9 525.932 350.2 526.432 350.6 526.732C351.1 527.132 351.7 527.732 352.4 527.232C353 526.832 352.8 526.232 352.7 525.632C352.4 522.032 351 518.732 349.6 515.532C346.4 508.232 342.2 501.632 337.7 495.032C337.5 494.432 337.2 493.932 336.3 494.032Z" fill="#337085" fill-opacity="0.5"/>
<path d="M325.6 2.93157C327.4 10.1316 327.9 17.7316 333.7 23.5316C334 23.8316 334.3 24.1316 334.7 24.4316C335.4 24.9316 336.3 25.5316 337.2 25.0316C338.1 24.6316 338.3 23.7316 338.4 22.7316C338.8 19.6316 337.6 16.9316 336.3 14.2316C334.1 9.63157 330.8 5.83157 327.5 2.03157C327.1 1.63157 326.7 0.831572 326.1 1.03157C325.4 1.33157 326 2.23157 325.6 2.93157Z" fill="#337085" fill-opacity="0.5"/>
<path d="M318 91.5316C319.2 98.3316 320.3 105.532 325.6 111.132C326.6 112.132 327.8 113.232 329.3 112.532C330.7 111.832 331 110.232 330.7 108.832C329.9 104.732 328.2 101.032 325.9 97.6316C324.2 95.1316 322.4 92.7316 320.1 90.6316C319.5 90.1316 319.3 88.9316 318.4 89.2316C317.7 89.4316 318.2 90.5316 318 91.5316Z" fill="#337085" fill-opacity="0.5"/>
<path d="M49.6 264.332C50.4 271.832 51.6 278.532 55.1 284.632C55.9 285.932 57 287.032 58.3 288.032C59.3 288.732 60.5 289.532 61.6 288.732C62.6 288.032 62.6 286.732 62.5 285.532C61.9 279.732 58.9 275.032 55.4 270.532C53.6 268.432 51.8 266.632 49.6 264.332Z" fill="#337085" fill-opacity="0.5"/>
<path d="M43.1 605.632C42.6 603.132 41.9 600.232 40.4 597.532C38.2 593.332 35.1 589.832 32 586.432C31.7 586.032 31.3 585.432 30.7 585.732C30.1 585.932 30.3 586.632 30.3 587.132C31.2 593.832 32.3 600.532 36.6 606.232C37.2 607.132 37.9 607.932 38.8 608.432C39.6 608.932 40.4 609.832 41.6 609.232C42.7 608.532 43.1 607.632 43.1 605.632Z" fill="#337085" fill-opacity="0.5"/>
<path d="M224.2 275.232C224.9 280.132 225.6 284.532 227 288.832C228 291.732 229.2 294.432 231.1 296.832C231.2 297.032 231.3 297.232 231.5 297.432C232.7 298.732 233.9 300.332 235.8 299.532C237.6 298.732 237.2 296.732 237 295.132C236.2 289.832 233.5 285.332 230.1 281.232C228.4 279.232 226.8 277.132 224.2 275.232Z" fill="#337085" fill-opacity="0.5"/>
<path d="M150.1 305.832C149.4 308.132 150.1 310.032 150.4 311.832C151.5 317.532 153.1 323.132 156.8 327.832C157.4 328.632 158.3 329.332 159.3 329.732C161 330.432 162.4 329.532 162.5 327.432C162.6 324.532 161.6 321.832 160.3 319.232C157.9 314.132 154.4 309.832 150.1 305.832Z" fill="#337085" fill-opacity="0.5"/>
<path d="M93 487.832C92.9 483.532 91.1 479.832 88.6 476.332C86.6 473.532 84.5 470.732 82 468.232C81.6 467.832 81.2 467.332 80.7 467.732C80.1 468.032 80.6 468.532 80.6 468.932C81.2 474.732 82.4 480.432 85.1 485.632C85.9 487.132 86.9 488.532 88.1 489.732C89.1 490.732 90.1 491.932 91.8 491.332C93.4 490.632 92.8 489.132 93 487.832Z" fill="#337085" fill-opacity="0.5"/>
<path d="M88.1 214.632C89.3 221.532 90.2 228.632 94.9 234.432C95 234.632 95.1 234.832 95.3 234.932C96.6 236.032 97.7 237.732 99.7 236.832C101.6 235.932 100.9 234.032 100.7 232.432C99.9 226.232 96.1 221.532 92.3 216.932C91.4 215.932 90.6 214.932 89.6 213.932C89.3 213.632 89 213.132 88.5 213.332C87.9 213.632 88.1 214.132 88.1 214.632Z" fill="#337085" fill-opacity="0.5"/>
<path d="M2.2 534.432C3.3 541.932 4.5 549.532 10.1 555.532C11.1 556.632 12.3 557.432 13.6 556.732C14.9 556.032 15 554.532 14.8 553.132C14.2 549.332 12.8 545.732 10.6 542.532C8.6 539.532 6.3 536.732 3.8 534.032C3.5 533.632 3.2 533.132 2.5 533.232C2 533.332 2.3 533.932 2.2 534.432Z" fill="#337085" fill-opacity="0.5"/>
<path d="M239.2 349.232C239.3 352.032 240.5 354.532 241.3 357.132C242.4 360.832 244 364.232 245.7 367.632C246.5 369.332 247.5 370.932 248.9 372.332C249.4 372.732 249.8 373.132 250.5 372.732C251.1 372.332 250.8 371.832 250.7 371.332C249.8 366.232 247.5 361.732 244.8 357.432C243.1 354.532 241.6 351.532 239.2 349.232Z" fill="#337085" fill-opacity="0.5"/>
<path d="M37.3 660.132C38.1 664.832 39.7 669.332 41.5 673.732C42.8 676.932 44.3 679.932 46.4 682.632C46.9 683.232 47.3 683.932 48.2 683.732C49.2 683.432 48.8 682.532 48.8 681.832C49 680.132 48.2 678.632 47.6 677.232C44.9 671.132 41.6 665.432 37.3 660.132Z" fill="#337085" fill-opacity="0.5"/>
<path d="M355.6 297.032C355.6 296.932 355.5 296.932 355.5 296.832C355.5 296.932 355.5 296.932 355.6 297.032Z" fill="#337085" fill-opacity="0.5"/>
</g>
</svg>
