<svg width="390" height="844" viewBox="0 0 390 844" fill="none" xmlns="http://www.w3.org/2000/svg">
<g clip-path="url(#clip0_19_47231)">
<path d="M470.6 424.4H379.5V459.3H470.6V424.4Z" fill="#F0968E"/>
<path d="M450.7 381.8H359.6V416.7H450.7V381.8Z" fill="#F6BBB5"/>
<path d="M470.6 339.3H379.5V374.2H470.6V339.3Z" fill="#F0968E"/>
<path d="M450.7 296.8H359.6V331.7H450.7V296.8Z" fill="#F0968E"/>
<path d="M11.2997 373.3H-79.8003V408.2H11.2997V373.3Z" fill="#F0968E"/>
<path d="M27.4999 331.6H-63.6001V366.5H27.4999V331.6Z" fill="#F0968E"/>
<path d="M36.3998 290H-54.7002V324.9H36.3998V290Z" fill="#F0968E"/>
<path d="M460.9 254.3H369.8V289.2H460.9V254.3Z" fill="#F6BBB5"/>
<path d="M44.7997 248.3H-46.3003V283.2H44.7997V248.3Z" fill="#F6BBB5"/>
<path d="M444.6 211.8H353.5V246.7H444.6V211.8Z" fill="#F0968E"/>
<path d="M30.3998 206.6H-60.7002V241.5H30.3998V206.6Z" fill="#F6BBB5"/>
<path d="M14.4999 165H-76.6001V199.9H14.4999V165Z" fill="#F0968E"/>
<path d="M465.9 169.3H374.8V204.2H465.9V169.3Z" fill="#F0968E"/>
<path d="M431.5 126.8H340.4V161.7H431.5V126.8Z" fill="#F6BBB5"/>
<path d="M62.9999 123.3H-28.1001V158.2H62.9999V123.3Z" fill="#F6BBB5"/>
<path d="M399.2 84.2001H308.1V119.1H399.2V84.2001Z" fill="#F0968E"/>
<path d="M81.8998 81.7001H-9.2002V116.6H81.8998V81.7001Z" fill="#F0968E"/>
<path d="M368.9 41.7001H277.8V76.6001H368.9V41.7001Z" fill="#F6BBB5"/>
<path d="M465.9 41.7001H374.8V76.6001H465.9V41.7001Z" fill="#F0968E"/>
<path d="M17.3998 40H-73.7002V74.9H17.3998V40Z" fill="#F0968E"/>
<path d="M114.4 40H23.2998V74.9H114.4V40Z" fill="#F6BBB5"/>
<path d="M435.5 -0.799927H344.4V34.1001H435.5V-0.799927Z" fill="#F0968E"/>
<path d="M48.6 -1.59998H-42.5V33.3H48.6V-1.59998Z" fill="#F6BBB5"/>
<path d="M145.6 -1.59998H54.5V33.3H145.6V-1.59998Z" fill="#F0968E"/>
<path d="M242.6 -1.59998H151.5V33.3H242.6V-1.59998Z" fill="#F0968E"/>
<path d="M339.6 -1.59998H248.5V33.3H339.6V-1.59998Z" fill="#F6BBB5"/>
<path d="M41.8998 414.9H-65.2002V456H41.8998V414.9Z" fill="#F6BBB5"/>
<path d="M17.4999 546H-73.6001V580.9H17.4999V546Z" fill="#F0968E"/>
<path d="M11.8998 504.4H-79.2002V539.3H11.8998V504.4Z" fill="#F0968E"/>
<path d="M36.9999 462.7H-54.1001V497.6H36.9999V462.7Z" fill="#F0968E"/>
<path d="M458.9 551.9H367.8V586.8H458.9V551.9Z" fill="#F0968E"/>
<path d="M453.3 509.4H362.2V544.3H453.3V509.4Z" fill="#F0968E"/>
<path d="M478.4 466.9H387.3V501.8H478.4V466.9Z" fill="#F0968E"/>
<path d="M29.4999 587.7H-77.6001V628.8H29.4999V587.7Z" fill="#F6BBB5"/>
<path d="M458.7 594.4H351.6V635.5H458.7V594.4Z" fill="#F6BBB5"/>
<path d="M17 635.5H-79.8003V670.4H17V635.5Z" fill="#F0968E"/>
<path d="M470.6 643.1H368V678H470.6V643.1Z" fill="#F0968E"/>
<path d="M17 677H-70V712H17V677Z" fill="#F0968E"/>
<path d="M460.9 685.6H377V720.5H460.9V685.6Z" fill="#F0968E"/>
<path d="M29 718.8H-79.2002V753.7H29V718.8Z" fill="#F0968E"/>
<path d="M470.6 728.1H365V763H470.6V728.1Z" fill="#F0968E"/>
<path d="M19.8998 760.5H-87.2002V801.6H19.8998V760.5Z" fill="#F6BBB5"/>
<path d="M478.6 770.6H371.5V811.7H478.6V770.6Z" fill="#F6BBB5"/>
<path d="M26.9999 808.3H-80.1001V849.4H26.9999V808.3Z" fill="#F0968E"/>
<path d="M437.1 819.3H357V854.2H437.1V819.3Z" fill="#F0968E"/>
</g>
<defs>
<clipPath id="clip0_19_47231">
<rect width="390" height="844" fill="white"/>
</clipPath>
</defs>
</svg>
