<svg width="50" height="50" viewBox="0 0 50 50" fill="none" xmlns="http://www.w3.org/2000/svg">
<path d="M29.0786 10.4486C29.0786 12.6953 27.2711 14.5025 25.0239 14.5025C22.7768 14.5025 20.9692 12.6953 20.9692 10.4486C20.9692 8.20196 22.7768 6.39484 25.0239 6.39484C27.2711 6.39484 29.0786 8.20196 29.0786 10.4486Z" fill="#005268"/>
<g opacity="0.8">
<path d="M28.5899 10.4489C28.6387 10.3024 28.6876 10.0094 28.6387 9.71633C28.5899 9.42328 28.541 9.03255 28.3456 8.69066C28.199 8.34878 27.9548 8.00689 27.7105 7.71384C27.4663 7.4208 27.1732 7.22543 26.9777 7.07891C26.6358 6.88354 26.3427 6.73702 26.1473 6.63934C25.9519 6.5905 26.4404 6.68818 26.9777 7.07891C27.222 7.22543 27.5151 7.46964 27.8082 7.76268C27.5151 7.32311 27.1243 6.98123 26.8312 6.73702C26.5869 6.5905 26.3427 6.49282 26.0496 6.44397C24.7794 6.10209 23.4604 6.39513 22.4345 7.12775C22.2391 7.27427 21.946 7.51848 21.7018 7.76268C21.4575 8.05573 21.2621 8.34878 21.1644 8.54414C21.6041 7.665 22.288 6.98123 23.1673 6.5905C23.9978 6.19977 25.0237 6.10209 25.903 6.29745C25.8542 6.29745 25.8053 6.24861 25.7565 6.24861C24.7794 6.05324 23.7535 6.19977 22.8254 6.63934C22.6788 6.73702 22.5322 6.8347 22.3857 6.93239C22.5322 6.8347 22.6788 6.73702 22.8254 6.63934C23.2162 6.44397 23.607 6.24861 24.0955 6.10209C24.2909 6.15093 24.4375 6.15093 24.6329 6.15093C24.7794 6.15093 24.9748 6.15093 25.1214 6.15093C25.3656 6.15093 25.6099 6.24861 25.8053 6.29745C25.9519 6.29745 26.0984 6.39513 26.245 6.39513C26.2938 6.39513 26.3427 6.39513 26.3915 6.44397C26.3427 6.39513 26.0496 6.24861 25.6099 6.10209C25.2191 6.0044 24.6329 5.95556 24.0955 6.05325C23.5581 6.15093 22.9719 6.34629 22.5811 6.5905C22.1414 6.8347 21.8972 7.07891 21.7506 7.22543C21.4087 7.61616 21.2132 8.10457 21.0178 8.64182C20.9201 8.83719 20.8713 8.98371 20.8224 9.13023C20.8224 9.13023 20.8224 9.22792 20.8224 9.3256C20.7247 9.66749 20.5782 10.0582 20.6759 10.3513C20.6759 10.5466 20.3339 11.1816 20.4316 11.2304C20.7247 11.3769 20.4805 11.2792 20.5782 11.7677C20.5782 11.8165 20.7247 11.963 20.7736 12.1095C20.8713 12.5003 21.0178 12.598 21.2621 12.9887C21.5064 13.2329 21.6041 13.4283 21.7506 13.5748C21.8972 13.7213 22.0437 13.8678 22.288 14.0143C22.3368 14.0143 22.5322 14.1609 22.7765 14.2586C22.9719 14.3562 23.2162 14.4539 23.2162 14.4539C23.8512 14.7958 24.3398 14.747 24.8771 14.9423C25.2191 14.8935 25.561 14.8446 25.9519 14.7958C26.3427 14.747 26.7335 14.6493 27.0266 14.4539C27.6128 14.112 27.9059 14.0143 28.4433 13.6236C28.5899 13.5259 28.6387 13.3794 28.7364 13.3306C28.8341 13.2817 28.883 12.9887 28.9807 12.8422L29.0295 12.9398C29.0784 12.891 29.1272 12.7933 29.1761 12.7445C29.2249 12.6956 29.2249 12.6956 29.2249 12.7445C29.2738 12.7933 29.2738 12.8422 29.3715 12.7445C29.518 12.5003 29.6646 12.2561 29.7623 12.0119C29.8111 11.7188 29.8111 11.4258 29.8111 11.1816C29.7623 11.1816 29.7623 11.1327 29.7134 11.0839C29.7134 10.9862 29.7134 10.9374 29.6646 10.8397C29.6157 10.7908 29.518 10.7908 29.4692 10.7908C29.2738 10.7908 29.0784 10.4978 28.883 10.5466C28.8341 10.5955 28.7853 10.9374 28.6876 11.0839C28.6387 11.1327 28.5899 11.035 28.541 10.9862C28.4921 11.1816 28.4433 11.1816 28.3944 11.0839C28.3944 11.1327 28.3456 11.1816 28.3456 11.1816L28.2479 11.1327C28.1013 11.6211 27.7105 11.963 27.564 12.4026C27.5151 12.5003 27.4663 12.6468 27.4174 12.7445C27.3686 12.7933 27.2709 12.8422 27.2709 12.891C27.2709 12.9887 27.3197 13.0375 27.3197 13.1352C27.1732 13.2329 26.9289 13.3794 26.7335 13.4771C26.5381 13.5748 26.3915 13.6725 26.4404 13.819C26.1473 13.9167 26.1473 14.0632 25.8542 14.1609C25.4633 14.2585 24.926 14.3562 24.3886 14.2586C24.0955 14.2586 23.8512 14.1609 23.5581 14.0632C23.4604 14.0143 23.3627 13.9655 23.265 13.9167C22.3368 13.4283 21.7506 12.6468 21.5064 11.8165C21.2621 10.9862 21.2621 10.0582 21.6041 9.08139C21.946 8.10457 22.8254 7.27427 23.8512 6.98123C24.8771 6.68818 25.9519 6.88354 26.7335 7.37195C27.5151 7.86037 27.9548 8.54414 28.1502 9.13023C28.3456 9.71633 28.3456 10.1559 28.3944 10.4001L28.5899 10.4489Z" fill="#005268"/>
</g>
<path d="M32.4973 14.1603C32.9858 11.9624 35.1353 10.5949 37.3336 11.0833C39.532 11.5717 40.8998 13.7207 40.4113 15.9186C39.9228 18.1164 37.7733 19.484 35.575 18.9956C33.3767 18.5072 32.0088 16.3581 32.4973 14.1603Z" fill="#005268"/>
<g opacity="0.8">
<path d="M32.9863 14.2581C32.8886 14.4046 32.8398 14.6489 32.7909 14.9419C32.7421 15.2349 32.7421 15.6257 32.8398 16.0164C32.9375 16.4071 33.084 16.749 33.2794 17.0909C33.4749 17.4328 33.6703 17.677 33.8657 17.8724C34.1588 18.1654 34.403 18.3119 34.5984 18.4585C34.7938 18.5561 34.3542 18.3608 33.8657 17.8724C33.6703 17.677 33.426 17.384 33.2306 17.0421C33.426 17.5305 33.7191 17.97 33.9634 18.2631C34.1588 18.4585 34.403 18.605 34.6473 18.7027C35.7709 19.2888 37.1387 19.2888 38.3112 18.8003C38.5066 18.7027 38.8485 18.5073 39.1417 18.3119C39.4348 18.0677 39.679 17.8235 39.8744 17.677C39.2882 18.4096 38.4089 18.9469 37.4807 19.1422C36.5525 19.3864 35.5755 19.2399 34.745 18.8492C34.7938 18.898 34.8427 18.898 34.8916 18.9469C35.7709 19.3864 36.8456 19.4353 37.8227 19.1911C37.9692 19.1422 38.1646 19.0934 38.3112 18.9957C38.1646 19.0446 37.9692 19.1422 37.8227 19.1911C37.383 19.3376 36.9433 19.4353 36.4548 19.4353C36.3083 19.4353 36.1617 19.3864 35.9663 19.3864C35.8197 19.3376 35.6243 19.3376 35.5266 19.2888C35.2824 19.2399 35.087 19.0934 34.8916 18.9957C34.745 18.9469 34.6473 18.8492 34.5007 18.8003C34.4519 18.8003 34.403 18.7515 34.3542 18.7515C34.403 18.8492 34.6473 19.0446 35.0381 19.2399C35.4289 19.4353 35.9663 19.5818 36.5037 19.6306C37.0899 19.6795 37.6761 19.5818 38.1158 19.4353C38.5554 19.2888 38.8974 19.0934 39.0439 18.9957C39.4836 18.6538 39.7279 18.2143 40.0698 17.7747C40.1675 17.6282 40.3141 17.4816 40.3629 17.3351C40.3629 17.3351 40.3629 17.2374 40.3629 17.1397C40.5584 16.7979 40.7538 16.456 40.7538 16.1629C40.8026 15.9676 41.2423 15.4303 41.1446 15.3815C40.9003 15.1861 41.0957 15.3326 41.0957 14.8442C41.0957 14.7954 40.998 14.6 40.9492 14.4535C40.9492 14.0628 40.8515 13.9162 40.6561 13.5255C40.5095 13.2325 40.4118 13.0371 40.3141 12.8417C40.2164 12.6464 40.1187 12.4998 39.8744 12.3045C39.8256 12.3045 39.679 12.1091 39.4836 11.9626C39.2882 11.8161 39.0928 11.7184 39.0928 11.7184C38.5066 11.2788 38.0669 11.23 37.5784 10.8881C37.2364 10.8881 36.8945 10.8392 36.5037 10.7904C36.1128 10.7904 35.722 10.7904 35.3801 10.8881C34.745 11.0835 34.403 11.1323 33.8168 11.3765C33.6703 11.4742 33.5726 11.5719 33.4749 11.6207C33.3772 11.6695 33.2306 11.9138 33.1329 12.0114V11.9138C33.084 11.9626 32.9863 12.0114 32.9375 12.0603C32.8886 12.1091 32.8886 12.0603 32.8886 12.0603C32.8886 12.0114 32.8398 11.9626 32.7421 12.0114C32.5467 12.2068 32.3513 12.4022 32.2047 12.6464C32.107 12.9394 32.0093 13.1836 31.9604 13.4767C32.0093 13.5255 32.0093 13.5255 32.0093 13.5743C32.0093 13.672 32.0093 13.7209 32.0093 13.8186C32.0582 13.8674 32.1559 13.8674 32.2047 13.9162C32.4001 13.9651 32.4978 14.307 32.6932 14.2581C32.7421 14.2581 32.8398 13.8674 33.0352 13.7697C33.084 13.7209 33.084 13.8674 33.1817 13.9162C33.2794 13.7209 33.3283 13.7697 33.3771 13.8674C33.3771 13.8186 33.426 13.7697 33.426 13.7697L33.4749 13.8674C33.7191 13.4278 34.1588 13.1348 34.403 12.7929C34.4519 12.744 34.5496 12.5975 34.5984 12.4998C34.6473 12.451 34.745 12.4022 34.7938 12.4022C34.8427 12.3045 34.7938 12.2556 34.7938 12.158C34.9404 12.1091 35.2335 12.0114 35.4289 11.9626C35.6243 11.8649 35.8197 11.8161 35.7709 11.7184C36.064 11.6695 36.1128 11.523 36.406 11.523C36.7968 11.4742 37.3341 11.523 37.8715 11.7184C38.1646 11.8161 38.4089 11.9626 38.6043 12.1091C38.702 12.158 38.7508 12.2556 38.8485 12.3045C39.679 12.9883 40.0698 13.8674 40.1187 14.7465C40.1675 15.6257 39.9721 16.5048 39.4348 17.384C38.8974 18.2631 37.8227 18.898 36.7968 18.9469C35.722 19.0446 34.6961 18.605 34.0611 17.97C33.426 17.3351 33.1329 16.5537 33.0352 15.9676C32.9375 15.3326 33.0352 14.8931 33.084 14.6977L32.9863 14.2581Z" fill="#005268"/>
</g>
<path d="M36.4546 42.5864C38.6939 42.5864 40.5093 40.7714 40.5093 38.5326C40.5093 36.2937 38.6939 34.4788 36.4546 34.4788C34.2153 34.4788 32.3999 36.2937 32.3999 38.5326C32.3999 40.7714 34.2153 42.5864 36.4546 42.5864Z" fill="#005268"/>
<g opacity="0.8">
<path d="M32.9381 38.5809C32.8893 38.7274 32.8404 39.0205 32.8893 39.3135C32.9381 39.6066 33.0358 39.9973 33.1824 40.3392C33.3778 40.6811 33.5732 41.023 33.8663 41.2672C34.1106 41.5114 34.4037 41.7556 34.5991 41.9021C34.9411 42.0975 35.2342 42.244 35.4296 42.2928C35.625 42.3417 35.1365 42.244 34.5991 41.9021C34.3548 41.7556 34.0617 41.5114 33.7686 41.2183C34.0617 41.6579 34.4525 41.9998 34.7945 42.244C35.0388 42.3905 35.3319 42.4394 35.5761 42.537C36.7974 42.8301 38.1164 42.537 39.1423 41.8044C39.3377 41.6579 39.582 41.4137 39.8262 41.1206C40.0705 40.8276 40.2659 40.5346 40.3636 40.3392C39.9728 41.2183 39.24 41.9021 38.4095 42.3417C37.579 42.7812 36.5532 42.8789 35.6738 42.6836C35.7227 42.6836 35.7715 42.7324 35.8204 42.7324C36.7974 42.9278 37.8233 42.7324 38.7515 42.244C38.898 42.1463 39.0446 42.0486 39.1912 41.9509C39.0446 42.0486 38.898 42.1463 38.7515 42.244C38.3607 42.4882 37.9699 42.6836 37.4813 42.7812C37.3348 42.7812 37.1882 42.8301 36.9928 42.8301C36.8463 42.8301 36.6509 42.8301 36.5043 42.8301C36.2601 42.8301 36.0158 42.7812 35.8204 42.6836C35.6738 42.6836 35.5273 42.6347 35.3807 42.5859C35.3319 42.5859 35.283 42.5859 35.2342 42.537C35.3319 42.5859 35.5761 42.7324 36.0158 42.8301C36.4555 42.9278 36.9928 42.9766 37.5302 42.8789C38.0676 42.7812 38.6538 42.5859 39.0446 42.2928C39.4354 42.0486 39.7285 41.7556 39.8262 41.6579C40.1682 41.2183 40.3147 40.7299 40.5101 40.1927C40.559 39.9973 40.6567 39.8508 40.7056 39.7043C40.7056 39.7043 40.7056 39.6066 40.7056 39.5089C40.8033 39.167 40.901 38.7763 40.8521 38.4832C40.8521 38.2879 41.1452 37.6529 41.0475 37.6041C40.7544 37.5064 40.9987 37.5552 40.8521 37.0668C40.8521 37.018 40.6567 36.8715 40.6567 36.7249C40.559 36.3342 40.4124 36.2365 40.1682 35.8946C39.9239 35.6504 39.8262 35.4551 39.6797 35.3086C39.5331 35.162 39.3866 35.0155 39.1423 34.9178C39.0935 34.9178 38.898 34.7713 38.6538 34.6736C38.4584 34.5759 38.2141 34.5271 38.2141 34.5271C37.579 34.234 37.0905 34.2829 36.5532 34.0875C36.2112 34.1364 35.8692 34.1852 35.4784 34.234C35.0876 34.3317 34.6968 34.3806 34.4037 34.5759C33.8175 34.9178 33.5244 35.0155 32.987 35.4062C32.8404 35.5528 32.7916 35.6504 32.6939 35.6993C32.5962 35.7481 32.5473 36.0412 32.4496 36.1877L32.4008 36.09C32.3519 36.1389 32.3031 36.2365 32.2542 36.2854C32.2054 36.3342 32.2054 36.3342 32.2054 36.2854C32.1565 36.2365 32.1565 36.1877 32.0588 36.2854C31.9123 36.5296 31.7657 36.7738 31.668 37.018C31.6191 37.311 31.6191 37.6041 31.6191 37.8483C31.668 37.8483 31.668 37.8971 31.7168 37.946C31.7168 38.0437 31.7657 38.0925 31.7657 38.1902C31.8145 38.239 31.9122 38.239 31.9611 38.239C32.1565 38.239 32.3519 38.5321 32.5473 38.4832C32.5962 38.4344 32.5962 38.0925 32.7427 37.946C32.7916 37.8971 32.8404 37.9948 32.8893 38.0437C32.9381 37.8483 32.987 37.8483 33.0358 37.946C33.0358 37.8971 33.0358 37.8483 33.0358 37.8483L33.1335 37.8971C33.2801 37.4087 33.6221 37.018 33.8175 36.6273C33.8663 36.5296 33.9152 36.3831 33.964 36.2854C33.964 36.2365 34.1106 36.1877 34.1106 36.1389C34.1106 36.0412 34.0617 35.9923 34.0129 35.9435C34.1594 35.8458 34.4037 35.6993 34.5991 35.6016C34.7945 35.4551 34.9411 35.4062 34.8922 35.2597C35.1365 35.162 35.1853 35.0155 35.4784 34.9178C35.8692 34.7713 36.4066 34.7225 36.944 34.7713C37.2371 34.7713 37.4813 34.869 37.7745 34.9667C37.8722 35.0155 37.9699 35.0643 38.0676 35.0643C39.0446 35.5039 39.6308 36.3342 39.8751 37.1645C40.1193 37.9948 40.1682 38.9228 39.8262 39.8996C39.4843 40.8764 38.6538 41.7556 37.6279 42.0486C36.602 42.3905 35.5273 42.1951 34.7457 41.7067C33.964 41.2183 33.4755 40.5834 33.2801 39.9973C33.0358 39.4112 33.0358 38.9716 33.0358 38.7274L32.9381 38.5809Z" fill="#005268"/>
</g>
<path d="M13.4946 42.5862C15.734 42.5862 17.5493 40.7712 17.5493 38.5324C17.5493 36.2935 15.734 34.4786 13.4946 34.4786C11.2553 34.4786 9.43994 36.2935 9.43994 38.5324C9.43994 40.7712 11.2553 42.5862 13.4946 42.5862Z" fill="#005268"/>
<g opacity="0.8">
<path d="M17.0117 38.5324C17.0606 38.3859 17.1094 38.0928 17.0606 37.7998C17.0117 37.5067 16.9629 37.116 16.7675 36.7741C16.6209 36.4322 16.3767 36.0903 16.1324 35.7973C15.8881 35.5043 15.595 35.3089 15.3996 35.1624C15.0577 34.967 14.7645 34.8205 14.5691 34.7228C14.3737 34.674 14.8623 34.7716 15.3996 35.1624C15.6439 35.3089 15.937 35.5531 16.2301 35.8461C15.937 35.4066 15.5462 35.0647 15.2531 34.8205C15.0088 34.674 14.7645 34.5763 14.4714 34.5274C13.2501 34.1855 11.9312 34.4786 10.9053 35.2112C10.7099 35.3577 10.4167 35.6019 10.1725 35.8461C9.92823 36.1392 9.73282 36.4322 9.63512 36.6276C10.0748 35.7485 10.7587 35.0647 11.638 34.674C12.4685 34.2832 13.4944 34.1855 14.3737 34.3809C14.3249 34.3809 14.276 34.3321 14.2272 34.3321C13.2501 34.1367 12.2243 34.2832 11.2961 34.7228C11.1495 34.8205 11.003 34.9182 10.8564 35.0158C11.003 34.9182 11.1495 34.8205 11.2961 34.7228C11.6869 34.5274 12.0777 34.3321 12.5662 34.1855C12.7128 34.1855 12.8593 34.1367 13.0547 34.1367C13.2013 34.1367 13.3967 34.1367 13.5433 34.1367C13.7875 34.1367 14.0318 34.2344 14.2272 34.2832C14.3737 34.2832 14.5203 34.3809 14.6668 34.3809C14.7157 34.3809 14.7645 34.3809 14.8134 34.4298C14.7645 34.3809 14.4714 34.2344 14.0318 34.0879C13.641 33.9902 13.0547 33.9413 12.5174 34.039C11.98 34.1367 11.3938 34.3321 11.003 34.5763C10.5633 34.8205 10.319 35.0647 10.1725 35.2112C9.83053 35.6019 9.63512 36.0904 9.43971 36.6276C9.34201 36.823 9.29316 36.9695 9.24431 37.116C9.24431 37.116 9.24431 37.2137 9.24431 37.3114C9.1466 37.6533 9.00005 38.044 9.09775 38.337C9.09775 38.5324 8.75579 39.1673 8.85349 39.2162C9.1466 39.3627 8.90235 39.265 9.00005 39.7534C9.00005 39.8023 9.19546 39.9488 9.19546 40.0953C9.29316 40.486 9.43971 40.5837 9.68397 40.9745C9.92823 41.2187 10.0259 41.414 10.1725 41.5606C10.319 41.7071 10.4656 41.8536 10.7099 42.0001C10.7587 42.0001 10.9541 42.1466 11.1984 42.2443C11.3938 42.342 11.638 42.4397 11.638 42.4397C12.2731 42.7816 12.7616 42.7327 13.299 42.9281C13.641 42.8793 13.9829 42.8304 14.3737 42.7816C14.7645 42.7327 15.1554 42.6351 15.4485 42.4397C16.0347 42.0978 16.3278 42.0001 16.8652 41.6094C17.0117 41.5117 17.0606 41.3652 17.1583 41.3163C17.256 41.2675 17.3048 40.9745 17.4025 40.8279L17.4514 40.9256C17.5002 40.8768 17.5491 40.7791 17.5979 40.7303C17.6468 40.6814 17.6468 40.6814 17.6468 40.7303C17.6957 40.7791 17.6957 40.8279 17.7934 40.7303C17.9399 40.4861 18.0865 40.2418 18.1842 39.9976C18.233 39.7046 18.233 39.4115 18.233 39.1673C18.1842 39.1673 18.1842 39.1185 18.1353 39.0697C18.1353 38.972 18.1353 38.9231 18.0865 38.8255C18.0376 38.7766 17.9399 38.7766 17.8911 38.7766C17.6957 38.7766 17.5002 38.4836 17.3048 38.5324C17.256 38.5812 17.2071 38.9231 17.1094 39.0697C17.0606 39.1185 17.0117 39.0208 16.9629 38.972C16.914 39.1673 16.8652 39.1673 16.8163 39.0697C16.8163 39.1185 16.7675 39.1673 16.7675 39.1673L16.6698 39.1185C16.5232 39.6069 16.1324 39.9488 15.9858 40.3884C15.937 40.486 15.8881 40.6326 15.8393 40.7303C15.7904 40.7791 15.6927 40.8279 15.6927 40.8768C15.6927 40.9745 15.7416 41.0233 15.7416 41.121C15.595 41.2187 15.3508 41.3652 15.1554 41.4629C14.96 41.5606 14.8134 41.6582 14.8623 41.8048C14.5691 41.9024 14.5691 42.049 14.276 42.1466C13.8852 42.2443 13.3478 42.342 12.8105 42.2443C12.5174 42.2443 12.2731 42.1466 11.98 42.049C11.8823 42.0001 11.7846 41.9513 11.6869 41.9024C10.7587 41.414 10.1725 40.6326 9.92823 39.8023C9.68397 38.972 9.68397 38.044 10.0259 37.0672C10.3679 36.0904 11.2472 35.2601 12.2731 34.967C13.299 34.674 14.3737 34.8693 15.1554 35.3577C15.937 35.8461 16.3767 36.5299 16.5721 37.116C16.7675 37.7021 16.7675 38.1417 16.8163 38.3859L17.0117 38.5324Z" fill="#005268"/>
</g>
<path d="M17.5493 15.0397C17.5493 17.2864 15.7418 19.0935 13.4946 19.0935C11.2475 19.0935 9.43994 17.2864 9.43994 15.0397C9.43994 12.793 11.2475 10.9859 13.4946 10.9859C15.7418 10.9859 17.5493 12.793 17.5493 15.0397Z" fill="#005268"/>
<g opacity="0.8">
<path d="M17.0117 15.0397C17.0606 14.8932 17.1094 14.6002 17.0606 14.3071C17.0117 14.0141 16.9629 13.6233 16.7675 13.2815C16.6209 12.9396 16.3767 12.5977 16.1324 12.3046C15.8881 12.0116 15.595 11.8162 15.3996 11.6697C15.0577 11.4743 14.7645 11.3278 14.5691 11.2301C14.3737 11.1813 14.8623 11.279 15.3996 11.6697C15.6439 11.8162 15.937 12.0604 16.2301 12.3535C15.937 11.9139 15.5462 11.572 15.2531 11.3278C15.0088 11.1813 14.7645 11.0836 14.4714 11.0348C13.2501 10.6929 11.9312 10.9859 10.9053 11.7185C10.7099 11.8651 10.4167 12.1093 10.1725 12.3535C9.92823 12.6465 9.73282 12.9396 9.63512 13.1349C10.0748 12.2558 10.7587 11.572 11.638 11.1813C12.4685 10.7906 13.4944 10.6929 14.3737 10.8882C14.3249 10.8882 14.276 10.8394 14.2272 10.8394C13.2501 10.644 12.2243 10.7906 11.2961 11.2301C11.1495 11.3278 11.003 11.4255 10.8564 11.5232C11.003 11.4255 11.1495 11.3278 11.2961 11.2301C11.6869 11.0348 12.0777 10.8394 12.5662 10.6929C12.7128 10.6929 12.8593 10.644 13.0547 10.644C13.2013 10.644 13.3967 10.644 13.5433 10.644C13.7875 10.644 14.0318 10.7417 14.2272 10.7906C14.3737 10.7906 14.5203 10.8882 14.6668 10.8882C14.7157 10.8882 14.7645 10.8882 14.8134 10.9371C14.7645 10.8882 14.4714 10.7417 14.0318 10.5952C13.641 10.4975 13.0547 10.4487 12.5174 10.5463C11.98 10.644 11.3938 10.8394 11.003 11.0836C10.5633 11.3278 10.319 11.572 10.1725 11.7185C9.83053 12.1093 9.63512 12.5977 9.43971 13.1349C9.34201 13.3303 9.29316 13.4768 9.24431 13.6233C9.24431 13.6233 9.24431 13.721 9.24431 13.8187C9.1466 14.1606 9.00005 14.5513 9.09775 14.8444C9.09775 15.0397 8.75579 15.6747 8.85349 15.7235C9.1466 15.87 8.90235 15.7723 9.00005 16.2608C9.00005 16.3096 9.1466 16.4561 9.19546 16.6026C9.29316 16.9934 9.43971 17.0911 9.68397 17.4818C9.92823 17.726 10.0259 17.9214 10.1725 18.0679C10.319 18.2144 10.4656 18.3609 10.7099 18.5074C10.7587 18.5074 10.9541 18.654 11.1984 18.7517C11.3938 18.8493 11.638 18.947 11.638 18.947C12.2731 19.2889 12.7616 19.2401 13.299 19.4354C13.641 19.3866 13.9829 19.3377 14.3737 19.2889C14.7645 19.2401 15.1554 19.1424 15.4485 18.947C16.0347 18.6051 16.3278 18.5074 16.8652 18.1167C17.0117 18.019 17.0606 17.8725 17.1583 17.8237C17.256 17.7748 17.3048 17.4818 17.4025 17.3353L17.4514 17.4329C17.5002 17.3841 17.5491 17.2864 17.5979 17.2376C17.6468 17.1887 17.6468 17.1887 17.6468 17.2376C17.6957 17.2864 17.6957 17.3353 17.7934 17.2376C17.9399 16.9934 18.0865 16.7492 18.1842 16.505C18.233 16.2119 18.233 15.9189 18.233 15.6747C18.1842 15.6747 18.1842 15.6258 18.1353 15.577C18.1353 15.4793 18.1353 15.4305 18.0865 15.3328C18.0376 15.2839 17.9399 15.2839 17.8911 15.2839C17.6957 15.2839 17.5002 14.9909 17.3048 15.0397C17.256 15.0886 17.2071 15.4305 17.1094 15.577C17.0606 15.6258 17.0117 15.5281 16.9629 15.4793C16.914 15.6747 16.8652 15.6747 16.8163 15.577C16.8163 15.6258 16.7675 15.6747 16.7675 15.6747L16.6698 15.6258C16.5232 16.1142 16.1324 16.4561 15.9858 16.8957C15.937 16.9934 15.8881 17.1399 15.8393 17.2376C15.7904 17.2864 15.6927 17.3353 15.6927 17.3841C15.6927 17.4818 15.7416 17.5306 15.7416 17.6283C15.595 17.726 15.3508 17.8725 15.1554 17.9702C14.96 18.0679 14.8134 18.1656 14.8623 18.3121C14.5691 18.4098 14.5691 18.5563 14.276 18.654C13.8852 18.7517 13.3478 18.8493 12.8105 18.7517C12.5174 18.7517 12.2731 18.654 11.98 18.5563C11.8823 18.5074 11.7846 18.4586 11.6869 18.4098C10.7587 17.9214 10.1725 17.1399 9.92823 16.3096C9.68397 15.4793 9.68397 14.5513 10.0259 13.5745C10.3679 12.5977 11.2472 11.7674 12.2731 11.4743C13.299 11.1813 14.3737 11.3766 15.1554 11.8651C15.937 12.3535 16.3767 13.0372 16.5721 13.6233C16.7675 14.2094 16.7675 14.649 16.8163 14.8932L17.0117 15.0397Z" fill="#005268"/>
</g>
<path d="M39.9235 30.6202C37.8228 29.7899 36.797 27.4456 37.6274 25.3454C38.4579 23.2452 40.8028 22.2196 42.9034 23.0499C45.004 23.8802 46.0299 26.2245 45.1994 28.3247C44.369 30.4249 42.0241 31.4505 39.9235 30.6202Z" fill="#005268"/>
<g opacity="0.8">
<path d="M40.1188 30.1808C40.2654 30.2785 40.4608 30.425 40.8027 30.5227C41.0958 30.6204 41.4866 30.6692 41.8775 30.6204C42.2683 30.5715 42.6591 30.4739 43.001 30.3762C43.343 30.2297 43.6361 30.0831 43.8315 29.9366C44.1735 29.6924 44.3689 29.497 44.5154 29.3017C44.662 29.1551 44.3689 29.5459 43.8315 29.9366C43.5873 30.132 43.2942 30.2785 42.9033 30.425C43.3919 30.3273 43.8804 30.0831 44.2223 29.8878C44.4177 29.6924 44.6132 29.497 44.8086 29.2528C45.5902 28.2272 45.7856 26.9085 45.4925 25.6874C45.4436 25.4432 45.2971 25.1013 45.1505 24.8083C44.9551 24.4664 44.7597 24.1734 44.6131 24.0268C45.2482 24.7106 45.639 25.6386 45.6879 26.6154C45.7856 27.5434 45.4925 28.5202 44.9551 29.3017C45.004 29.2528 45.004 29.204 45.0528 29.204C45.5902 28.3737 45.8344 27.348 45.7367 26.3224C45.6879 26.1758 45.6879 25.9805 45.639 25.7851C45.6879 25.9316 45.6879 26.127 45.7367 26.3224C45.7856 26.7619 45.8344 27.2015 45.7367 27.6899C45.6879 27.8364 45.639 27.983 45.5902 28.1295C45.5413 28.276 45.4925 28.4225 45.3948 28.5691C45.2971 28.8133 45.1505 28.9598 45.004 29.1551C44.9551 29.3017 44.8086 29.3994 44.7597 29.497C44.7597 29.5459 44.7109 29.5947 44.662 29.5947C44.7597 29.5459 45.004 29.3505 45.2482 29.0086C45.4925 28.6667 45.7367 28.1783 45.8833 27.5922C46.0298 27.055 46.0299 26.4689 45.9321 25.9805C45.8344 25.4921 45.6879 25.1502 45.639 25.0037C45.3948 24.5152 45.004 24.1734 44.5643 23.7826C44.4177 23.6361 44.32 23.5384 44.1735 23.4407C44.1735 23.4407 44.0758 23.4407 44.0269 23.3919C43.7338 23.1477 43.4407 22.9035 43.0987 22.8546C42.9033 22.8058 42.4637 22.2686 42.366 22.3174C42.1217 22.5616 42.3171 22.3662 41.8286 22.2686C41.7798 22.2686 41.5843 22.3662 41.4378 22.3174C41.047 22.2686 40.9004 22.3662 40.4608 22.4639C40.1188 22.5616 39.9234 22.6104 39.728 22.7081C39.5326 22.757 39.3372 22.8546 39.1418 23.05C39.1418 23.0989 38.8975 23.2454 38.7509 23.3919C38.6044 23.5384 38.4578 23.7338 38.4578 23.7338C37.9205 24.2222 37.8228 24.6618 37.432 25.1013C37.3831 25.4432 37.2365 25.7851 37.1388 26.1758C37.0411 26.5666 36.9923 26.9573 37.0411 27.2992C37.1388 27.983 37.1388 28.276 37.2854 28.9109C37.3342 29.1063 37.432 29.204 37.432 29.3017C37.432 29.3994 37.6762 29.5947 37.7739 29.7412H37.6762C37.7251 29.7901 37.7739 29.8878 37.8228 29.9366C37.8716 29.9854 37.8228 29.9854 37.8228 29.9854C37.7739 29.9854 37.7251 29.9854 37.7739 30.0831C37.9205 30.3273 38.1159 30.5227 38.3113 30.7181C38.5555 30.8646 38.7998 31.0111 39.0929 31.06C39.1418 31.06 39.1418 31.0111 39.1906 31.0111C39.2883 31.06 39.3372 31.06 39.4349 31.06C39.4837 31.0111 39.5326 30.9623 39.5814 30.9134C39.6791 30.7181 40.0211 30.6692 40.0211 30.4739C40.0211 30.425 39.6791 30.2785 39.5814 30.0831C39.5814 30.0343 39.6791 30.0343 39.728 29.9854C39.5326 29.8878 39.5814 29.7901 39.6791 29.7901C39.6303 29.7412 39.6303 29.7412 39.6303 29.7412L39.728 29.6924C39.3372 29.3505 39.1418 28.9109 38.7998 28.5691C38.7509 28.4714 38.6044 28.3737 38.5555 28.3249C38.5067 28.276 38.5067 28.1783 38.5067 28.1295C38.409 28.0806 38.3601 28.1295 38.2624 28.1295C38.2136 27.9341 38.1647 27.6899 38.1647 27.4457C38.1159 27.2015 38.1159 27.055 37.9693 27.055C37.9693 26.7619 37.8228 26.7131 37.8716 26.3712C37.9205 25.9805 38.0182 25.4432 38.3113 24.9548C38.4578 24.7106 38.6044 24.4664 38.7998 24.271C38.8486 24.1734 38.9464 24.1245 38.9952 24.0757C39.7768 23.3431 40.7539 23.1477 41.6332 23.1965C42.5125 23.2942 43.3919 23.5873 44.1735 24.271C44.9551 24.9548 45.4436 26.0782 45.2971 27.1527C45.1994 28.2272 44.6131 29.1551 43.8804 29.6924C43.1476 30.2297 42.3171 30.425 41.7309 30.3762C41.0958 30.3762 40.705 30.1808 40.4608 30.132L40.1188 30.1808Z" fill="#005268"/>
</g>
<path d="M12.7129 26.8593C12.7129 29.106 10.9054 30.9131 8.65821 30.9131C6.41103 30.9131 4.60352 29.106 4.60352 26.8593C4.60352 24.6126 6.41103 22.8055 8.65821 22.8055C10.9054 22.8055 12.7129 24.6126 12.7129 26.8593Z" fill="#005268"/>
<g opacity="0.8">
<path d="M12.1758 26.8597C12.2246 26.7132 12.2735 26.4201 12.2246 26.1271C12.1758 25.834 12.1269 25.4433 11.9315 25.1014C11.785 24.7595 11.5407 24.4176 11.2965 24.1246C11.0522 23.8315 10.7591 23.6362 10.5637 23.4896C10.2217 23.2943 9.92861 23.1478 9.73321 23.0501C9.5378 23.0012 10.0263 23.0989 10.5637 23.4896C10.8079 23.6362 11.1011 23.8804 11.3942 24.1734C11.1011 23.7338 10.7102 23.392 10.4171 23.1478C10.1729 23.0012 9.92861 22.9035 9.6355 22.8547C8.41421 22.5128 7.09521 22.8059 6.06933 23.5385C5.87392 23.685 5.58081 23.9292 5.33655 24.1734C5.09229 24.4665 4.89689 24.7595 4.79918 24.9549C5.23885 24.0757 5.92277 23.392 6.8021 23.0012C7.63258 22.6105 8.65847 22.5128 9.5378 22.7082C9.48895 22.7082 9.44009 22.6593 9.39124 22.6593C8.41421 22.464 7.38832 22.6105 6.46014 23.0501C6.31359 23.1478 6.16703 23.2454 6.02048 23.3431C6.16703 23.2454 6.31359 23.1478 6.46014 23.0501C6.85095 22.8547 7.24177 22.6593 7.73029 22.5128C7.87684 22.5128 8.0234 22.464 8.2188 22.464C8.36536 22.464 8.56076 22.464 8.70732 22.464C8.95158 22.464 9.19584 22.5617 9.39124 22.6105C9.5378 22.6105 9.68435 22.7082 9.83091 22.7082C9.87976 22.7082 9.92861 22.7082 9.97746 22.757C9.92861 22.7082 9.6355 22.5617 9.19584 22.4151C8.80502 22.3175 8.2188 22.2686 7.68143 22.3663C7.14406 22.464 6.55784 22.6593 6.16703 22.9035C5.72737 23.1478 5.48311 23.392 5.33655 23.5385C4.99459 23.9292 4.79918 24.4176 4.60378 24.9549C4.50607 25.1502 4.45722 25.2968 4.40837 25.4433C4.40837 25.4433 4.40837 25.541 4.40837 25.6386C4.31067 25.9805 4.16411 26.3713 4.26181 26.6643C4.26181 26.8597 3.91985 27.4946 4.01756 27.5435C4.31067 27.69 4.06641 27.5923 4.16411 28.0807C4.16411 28.1295 4.35952 28.2761 4.35952 28.4226C4.45722 28.8133 4.60378 28.911 4.84803 29.3017C5.09229 29.5459 5.19 29.7413 5.33655 29.8878C5.48311 30.0343 5.62966 30.1809 5.87392 30.3274C5.92277 30.3274 6.11818 30.4739 6.36244 30.5716C6.55784 30.6693 6.8021 30.767 6.8021 30.767C7.43718 31.1089 7.92569 31.06 8.46306 31.2554C8.80502 31.2065 9.14698 31.1577 9.5378 31.1089C9.92861 31.06 10.3194 30.9623 10.6125 30.767C11.1988 30.4251 11.4919 30.3274 12.0292 29.9367C12.1758 29.839 12.2246 29.6925 12.3223 29.6436C12.42 29.5948 12.4689 29.3017 12.5666 29.1552L12.6155 29.2529C12.6643 29.204 12.7132 29.1064 12.762 29.0575C12.8109 29.0087 12.8109 29.0087 12.8109 29.0575C12.8597 29.1064 12.8597 29.1552 12.9574 29.0575C13.104 28.8133 13.2505 28.5691 13.3482 28.3249C13.3971 28.0319 13.3971 27.7388 13.3971 27.4946C13.3482 27.4946 13.3482 27.4458 13.2994 27.3969C13.2994 27.2992 13.2994 27.2504 13.2505 27.1527C13.2017 27.1039 13.104 27.1039 13.0551 27.1039C12.8597 27.1039 12.6643 26.8108 12.4689 26.8597C12.42 26.9085 12.3712 27.2504 12.2735 27.3969C12.2246 27.4458 12.1758 27.3481 12.1269 27.2992C12.0781 27.4946 12.0292 27.4946 11.9804 27.3969C11.9804 27.4458 11.9315 27.4946 11.9315 27.4946L11.8338 27.4458C11.6873 27.9342 11.2965 28.2761 11.1499 28.7156C11.1011 28.8133 11.0522 28.9598 11.0033 29.0575C10.9545 29.1064 10.8568 29.1552 10.8568 29.204C10.8568 29.3017 10.9056 29.3506 10.9056 29.4483C10.7591 29.5459 10.5148 29.6925 10.3194 29.7901C10.124 29.8878 9.97746 29.9855 10.0263 30.132C9.7332 30.2297 9.73321 30.3762 9.44009 30.4739C9.04928 30.5716 8.51191 30.6693 7.97454 30.5716C7.68143 30.5716 7.43718 30.4739 7.14406 30.3762C7.04636 30.3274 6.94866 30.2786 6.85095 30.2297C5.92277 29.7413 5.33655 28.9598 5.09229 28.1295C4.84803 27.2992 4.84803 26.3713 5.19 25.3944C5.53196 24.4176 6.41129 23.5873 7.43718 23.2943C8.46306 23.0012 9.5378 23.1966 10.3194 23.685C11.1011 24.1734 11.5407 24.8572 11.7361 25.4433C11.9315 26.0294 11.9315 26.4689 11.9804 26.7132L12.1758 26.8597Z" fill="#005268"/>
</g>
<path d="M25.0238 43.8069C15.6931 43.8069 8.07227 36.1877 8.07227 26.8591C8.07227 17.5304 15.6931 9.91119 25.0238 9.91119C34.3545 9.91119 41.9753 17.5304 41.9753 26.8591C41.9753 36.1877 34.3545 43.8069 25.0238 43.8069Z" fill="#005268"/>
<path d="M25.0241 44.4912C15.3026 44.4912 7.38867 36.579 7.38867 26.8596C7.38867 17.1402 15.3026 9.22797 25.0241 9.22797C34.7456 9.22797 42.6596 17.1402 42.6596 26.8596C42.6596 36.579 34.7456 44.4912 25.0241 44.4912ZM25.0241 11.3281C16.4751 11.3281 9.4893 18.3124 9.4893 26.8596C9.4893 35.4068 16.4751 42.3911 25.0241 42.3911C33.5732 42.3911 40.559 35.4068 40.559 26.8596C40.559 18.3124 33.5732 11.3281 25.0241 11.3281Z" fill="#005268" stroke="#005268" stroke-width="0.5" stroke-miterlimit="10"/>
<path d="M25.0231 12.5003C32.9371 12.5003 39.3855 18.9473 39.3855 26.8595C39.3855 34.7718 32.9371 41.2188 25.0231 41.2188C17.1091 41.2188 10.6607 34.7718 10.6607 26.8595C10.6607 18.9473 17.1091 12.5003 25.0231 12.5003ZM25.0231 11.3281C16.4741 11.3281 9.48828 18.3123 9.48828 26.8595C9.48828 35.4067 16.4741 42.391 25.0231 42.391C33.5722 42.391 40.558 35.4067 40.558 26.8595C40.558 18.3123 33.5722 11.3281 25.0231 11.3281Z" fill="#005268"/>
<g opacity="0.8">
<path d="M25.0232 11.3279C25.3652 11.3279 25.8048 11.3767 26.3422 11.3767C26.8796 11.3767 27.4658 11.5233 28.1497 11.5721C29.4687 11.8651 30.9831 12.2559 32.4487 12.9885C33.9142 13.7211 35.2332 14.7468 36.3079 15.8213C36.5522 16.1143 36.7965 16.4074 37.0407 16.6516C37.285 16.8958 37.4804 17.2377 37.6758 17.4819C38.0666 18.0191 38.3597 18.5564 38.6528 18.9959C38.8482 19.3378 38.9948 19.6797 39.1413 19.9728C39.2879 20.3147 39.4345 20.6077 39.5322 20.9007C39.7276 21.4868 39.923 21.9753 40.0207 22.4148C40.0695 22.6102 40.0695 22.6102 40.0207 22.5125C39.9718 22.4148 39.9718 22.1706 39.8253 21.8776C39.7276 21.5357 39.581 21.145 39.3856 20.6077C39.2879 20.3635 39.1413 20.1193 39.0436 19.8262C38.8971 19.5332 38.7994 19.2402 38.604 18.9471C38.4574 18.7029 38.3109 18.4099 38.1155 18.1168C37.9201 17.8238 37.7246 17.5796 37.5292 17.2865C37.4315 17.14 37.3338 16.9935 37.1873 16.8469C37.0896 16.7004 36.943 16.5539 36.7965 16.4074C36.5522 16.1143 36.2591 15.8213 35.966 15.5282C37.4315 17.0423 38.4086 18.8494 38.9459 20.1681C39.0436 20.4123 39.1902 20.6565 39.2879 20.9007C39.3856 21.145 39.4833 21.3892 39.5322 21.6334C39.6299 21.8776 39.7276 22.1218 39.7764 22.366C39.8253 22.6102 39.923 22.9032 39.9718 23.1474C40.5092 25.443 40.558 27.8362 40.0207 30.0829C39.5322 32.3296 38.5063 34.4786 37.0407 36.2857C36.7965 36.6276 36.4057 37.0183 36.0148 37.4579C35.8194 37.7021 35.5752 37.8974 35.3309 38.0928C35.0867 38.2882 34.8424 38.5324 34.5981 38.7277C34.0608 39.1185 33.5234 39.558 33.0349 39.8023C32.7906 39.9488 32.5464 40.0953 32.3021 40.2418C32.0579 40.3395 31.8624 40.4372 31.667 40.5349C33.1814 39.8023 34.5981 38.8254 35.8194 37.6044C37.0407 36.3834 38.0178 35.0158 38.7505 33.4529C39.4833 31.9388 40.0207 30.2782 40.2161 28.5688C40.4115 26.8594 40.3626 25.1499 40.0207 23.4893C40.0695 23.6847 40.0695 23.8312 40.1184 24.0266C40.7535 27.5431 40.0207 31.2551 38.2132 34.332C38.0666 34.5763 37.9201 34.8693 37.7246 35.1135C37.5781 35.3577 37.3338 35.6019 37.1873 35.8461C37.3827 35.6019 37.5781 35.3577 37.7246 35.1135L38.2132 34.332C38.9948 32.9645 39.5322 31.4993 39.923 29.8387C40.0207 29.3014 40.1184 28.7642 40.1672 28.1781C40.2161 27.592 40.2649 27.0547 40.2649 26.5175C40.2649 26.0779 40.2161 25.6872 40.2161 25.2476C40.1672 24.8569 40.1184 24.4173 40.0695 24.0266V23.7335L39.9718 23.3428L39.7764 22.5613C39.7276 22.4148 39.6787 22.2683 39.6299 22.0729C39.6787 22.2195 39.7276 22.6102 39.8253 23.0986C39.8741 23.3428 39.9718 23.6359 39.9718 23.9289C40.0207 24.2219 40.0695 24.5638 40.0695 24.9546C40.1672 26.4198 40.1184 28.2758 39.6787 30.1317C39.239 31.9388 38.4086 33.6971 37.5292 34.967C36.6499 36.2369 35.7706 37.116 35.3798 37.5067C34.1585 38.7277 32.9372 39.8023 31.1297 40.6325C30.8366 40.7791 30.5434 40.8768 30.2992 40.9744C30.0549 41.0721 29.7618 41.1698 29.5664 41.2675C29.5176 41.3163 29.2733 41.3652 29.029 41.4629C28.7359 41.5605 28.394 41.6094 28.1009 41.7071C27.7589 41.7559 27.4658 41.8047 27.1727 41.8536C26.5865 41.9513 26.0002 41.9513 25.4629 42.0001C25.1209 42.0489 24.437 41.9024 23.8508 41.8047C23.7042 41.7559 23.5577 41.7559 23.4111 41.7071C23.2645 41.6582 23.1668 41.6582 23.0691 41.6094C22.8737 41.5605 22.7272 41.5117 22.6783 41.5117C22.3852 41.6094 22.3364 41.6094 22.1898 41.5605C21.9944 41.5117 21.7501 41.414 20.9197 41.1698C20.822 41.121 20.6266 41.121 20.3823 41.0721C20.138 41.0233 19.8938 40.9256 19.6984 40.8768C19.0633 40.6325 18.6725 40.4372 18.2817 40.2418C17.842 40.0953 17.4023 39.8511 16.7673 39.4604C15.7902 38.8254 15.2529 38.3859 14.7644 37.8974C14.5201 37.6532 14.2758 37.4579 14.0316 37.1648C13.7873 36.8718 13.4454 36.6276 13.1034 36.2369C13.0545 36.188 12.908 35.9926 12.7126 35.7484C12.6149 35.6019 12.4683 35.4554 12.3706 35.3089C12.2729 35.1623 12.1264 34.967 12.0287 34.7716C11.7844 34.4297 11.5401 34.0878 11.4424 33.7948C11.2959 33.5018 11.1982 33.3552 11.1982 33.3552C10.9051 32.7691 10.7097 32.2319 10.5143 31.7435C10.3188 31.2551 10.2211 30.7667 10.0746 30.2782C9.92803 29.8387 9.87918 29.3503 9.83033 28.9107C9.83033 28.6665 9.78148 28.4711 9.78148 28.2269C9.78148 27.9827 9.78148 27.7385 9.78148 27.4943C9.63492 26.371 9.78148 25.0034 10.0257 23.6847L10.3188 22.7079C10.3677 22.5613 10.4166 22.366 10.4654 22.2195C10.5143 22.0729 10.5631 21.9264 10.6608 21.731C10.7585 21.438 10.9051 21.0961 11.0028 20.8031C11.1493 20.51 11.2959 20.217 11.3936 19.9728C12.4683 17.8238 13.3477 17.14 14.8621 15.7236C15.0575 15.5282 15.2529 15.3329 15.4483 15.1863C15.6437 15.0398 15.7902 14.9421 15.9368 14.7956C16.0833 14.6979 16.2788 14.5026 16.523 14.2584C16.7673 14.063 17.0604 13.8188 17.3535 13.6723L17.2558 13.8188C17.4023 13.7211 17.7443 13.4769 17.9397 13.3792C18.1351 13.2815 18.0863 13.3304 18.0374 13.3304C17.9397 13.3792 17.8909 13.4769 18.184 13.3304C18.5748 13.135 18.9167 12.8908 19.3076 12.6954C19.6984 12.5001 20.0892 12.3047 20.5289 12.1582C20.9197 12.0117 21.3593 11.8651 21.799 11.7186C22.2387 11.5721 22.6295 11.5233 23.0691 11.4256C23.118 11.4256 23.2157 11.3767 23.3134 11.3767C23.5577 11.3279 23.8019 11.3279 24.095 11.2791C24.1927 11.2791 24.2416 11.2791 24.2904 11.2791C24.4858 11.3767 24.7789 11.3279 25.0232 11.3279C24.9255 11.3279 24.5347 11.3279 24.095 11.3767C23.8508 11.3767 23.6065 11.3767 23.3622 11.4256C23.118 11.4744 22.9226 11.4744 22.7272 11.5233C22.5806 11.5233 22.9226 11.4744 23.0691 11.4744C22.1898 11.5721 22.141 11.5721 22.4829 11.5233C22.2875 11.5233 22.0921 11.5721 22.0921 11.5721C22.1898 11.5233 22.3364 11.5233 22.3364 11.5233C21.799 11.5721 21.2128 11.7186 20.6266 11.8163C20.3334 11.8651 20.0403 11.9628 19.7472 12.0117L18.9167 12.207C18.3305 12.4024 17.7932 12.5978 17.2069 12.7931C16.6696 13.0373 16.1322 13.2815 15.6437 13.5746C15.2529 13.8188 14.5689 14.3072 14.1781 14.6979C13.9827 14.8933 13.4942 15.2352 13.3477 15.3817C13.1522 15.7236 13.2499 15.7236 13.1522 15.8701C12.8591 16.1632 12.4683 16.5539 12.1264 16.9935C11.931 17.2377 11.7844 17.433 11.589 17.6772C11.3936 17.9214 11.2959 18.1656 11.1493 18.4099C11.0028 18.6541 10.8562 18.8494 10.7585 19.0936C10.6608 19.289 10.5631 19.4844 10.5143 19.6797C10.3677 20.0216 10.3188 20.217 10.4166 20.217C10.3677 20.3635 10.27 20.51 10.2211 20.6077C10.1723 20.7542 10.1234 20.8519 10.0746 20.9496C10.0257 21.1938 9.92803 21.3892 9.87918 21.5845C9.83033 21.7799 9.78148 21.9753 9.68378 22.2195C9.63492 22.4637 9.58607 22.7079 9.48837 23.0498C9.0487 24.808 8.90215 27.1524 9.24411 29.3991C9.43952 30.6201 9.78148 31.7923 10.2211 32.9157C10.3677 33.3552 10.612 33.6971 10.7585 34.0878C11.7844 36.0903 13.1522 37.7509 14.7155 39.0696C16.2788 40.3883 17.9886 41.3652 19.8449 42.0001C21.7013 42.635 23.6554 42.9281 25.6583 42.8304C27.6612 42.7327 29.713 42.2443 31.7159 41.2675C35.6729 39.3138 38.8482 35.6019 40.0695 31.4016C40.7046 29.3014 40.8512 27.1524 40.6557 25.1011C40.4115 23.0498 39.8253 21.0961 38.9459 19.3867C38.7017 18.9959 38.4574 18.5564 38.2132 18.1656C37.9689 17.7749 37.6758 17.433 37.4315 17.0423C36.8942 16.3097 36.308 15.6748 35.6729 15.1375C35.3798 14.8445 35.0378 14.6002 34.7447 14.356C34.4027 14.1118 34.1096 13.8676 33.7677 13.6723C33.0837 13.2815 32.4975 12.9396 31.8624 12.6954C29.371 11.6209 27.3192 11.4744 26.2934 11.3767L25.0232 11.3279Z" fill="#005268"/>
</g>
<g opacity="0.8">
<path d="M25.023 12.5001C24.681 12.5001 24.2902 12.5489 23.8017 12.5489C23.3132 12.5978 22.7758 12.6955 22.1407 12.7931C20.9683 13.0862 19.6004 13.5746 18.3303 14.3072C17.0601 15.0398 15.8877 16.0167 14.9107 16.9446C14.6664 17.1888 14.471 17.4331 14.2267 17.6773C13.9825 17.9215 13.8359 18.1657 13.6405 18.4099C13.2497 18.8494 13.0055 19.3379 12.7123 19.7286C12.5169 20.0216 12.3704 20.3147 12.2238 20.6077C12.0773 20.9008 11.9307 21.145 11.833 21.438C11.6376 21.9753 11.4422 22.4148 11.2956 22.8056C11.1979 23.1475 11.2468 22.9033 11.4422 22.3172C11.5399 22.0241 11.6865 21.6334 11.8819 21.1938C11.9796 20.9984 12.1261 20.7542 12.2238 20.51C12.3704 20.2658 12.4681 20.0216 12.6635 19.7286C13.2009 18.7518 14.0313 17.7749 15.1061 16.7004C13.6894 17.9703 12.6146 19.4844 11.9796 20.6566C11.8819 20.9008 11.7353 21.0961 11.6865 21.3403L11.4422 22.0241C11.3445 22.2683 11.2468 22.4637 11.1979 22.7079C11.1491 22.9521 11.0514 23.1963 11.0025 23.4405C10.4652 25.5895 10.4163 27.7874 10.856 29.9364C11.2956 32.0365 12.2238 34.0879 13.5428 35.7973C13.7382 36.1392 14.129 36.4811 14.5199 36.9206C14.7153 37.1649 14.9107 37.3602 15.1549 37.5556C15.3992 37.7509 15.5946 37.9951 15.8389 38.1905C16.3274 38.5812 16.8159 38.972 17.3044 39.265C17.5487 39.4115 17.7929 39.5581 17.9883 39.7046C18.1837 39.8023 18.428 39.9 18.5745 39.9976C17.109 39.265 15.79 38.337 14.6176 37.1649C13.494 35.9927 12.5658 34.674 11.833 33.2087C11.1491 31.7435 10.6606 30.1806 10.4652 28.5688C10.2698 26.9571 10.3675 25.3453 10.7094 23.7336C10.6606 23.8801 10.6117 24.0754 10.6117 24.222C9.92779 27.5432 10.5629 31.1086 12.2238 34.0879C12.3704 34.3321 12.5169 34.5763 12.6635 34.8205C12.81 35.0647 13.0055 35.3089 13.152 35.5531C13.0055 35.3089 12.81 35.0647 12.6635 34.8205L12.2238 34.039C11.491 32.7203 10.9048 31.3528 10.5629 29.741C10.4652 29.2526 10.4163 28.7153 10.3675 28.1292C10.3675 27.592 10.3186 27.0547 10.3186 26.5175C10.3675 26.0779 10.3675 25.6872 10.4163 25.2965C10.4652 24.9057 10.5629 24.515 10.6117 24.1243L10.6606 23.7336L10.7583 23.3428L10.9537 22.6102C11.0025 22.4637 11.0025 22.3172 11.1002 22.1706C11.0025 22.3172 10.9048 22.6102 10.7583 23.0986C10.7094 23.3428 10.6117 23.587 10.514 23.8801C10.4652 24.1731 10.4163 24.515 10.3186 24.8569C10.1232 26.2733 10.0743 28.0804 10.4163 29.9364C10.7583 31.7435 11.491 33.5018 12.3704 34.8205C13.2009 36.1392 14.0802 37.0183 14.471 37.4091C15.7411 38.6301 17.1578 39.4115 18.8677 40.193C19.4539 40.486 19.9424 40.6326 20.4309 40.7791C20.4798 40.7791 20.724 40.8279 20.9683 40.8768C21.2614 40.9745 21.6033 41.0233 21.8965 41.121C22.1896 41.1698 22.5315 41.2187 22.8246 41.2675C23.4109 41.414 23.9971 41.414 24.4856 41.414C24.8276 41.4629 25.4626 41.5117 26.0489 41.5606C26.1954 41.5606 26.342 41.6094 26.4885 41.6094C26.6351 41.6094 26.7328 41.6094 26.8305 41.6094C27.0259 41.6094 27.1724 41.6094 27.2213 41.5606C27.4656 41.414 27.5144 41.3652 27.661 41.3652C27.8564 41.3652 28.1495 41.3163 28.9311 41.121C29.0288 41.0721 29.2242 41.0233 29.4196 40.9256C29.615 40.8279 29.8593 40.7303 30.0547 40.6326C30.6898 40.4372 31.0806 40.2418 31.4714 40.0465C31.8622 39.8511 32.253 39.5581 32.9369 39.1673C33.8651 38.4836 34.4025 38.0928 34.891 37.6533C35.1353 37.4579 35.3795 37.2137 35.6238 36.9206C35.868 36.6276 36.1612 36.3346 36.4054 35.895C36.4543 35.8461 36.6008 35.6508 36.7474 35.3577C36.8451 35.2112 36.9428 35.0647 37.0405 34.9182C37.1382 34.7716 37.2359 34.5763 37.3336 34.3809C37.529 34.039 37.7244 33.6971 37.8221 33.4041C37.9198 33.111 38.0175 32.9645 38.0175 32.9645C38.3106 32.4273 38.4572 31.89 38.6526 31.4016C38.848 30.9132 38.8969 30.4736 39.0434 30.0341C39.19 29.5945 39.19 29.1549 39.2877 28.7153C39.3854 28.2758 39.4342 27.8362 39.4831 27.3478C39.4831 26.2733 39.3854 25.0034 39.1411 23.6847L38.8969 22.7567C38.848 22.6102 38.848 22.4637 38.7991 22.2683C38.7503 22.1218 38.7014 21.9753 38.6526 21.8287C38.5549 21.5357 38.4572 21.2427 38.3595 20.9496C38.2129 20.6566 38.1152 20.4124 37.9687 20.1193C37.7244 19.5821 37.4313 19.1913 37.2359 18.8006C37.0405 18.4099 36.7474 18.068 36.552 17.7261C36.4543 17.5796 36.3566 17.3842 36.21 17.2377C36.0635 17.0912 35.9657 16.8958 35.8192 16.7493C35.6726 16.6028 35.5749 16.4074 35.4284 16.2609C35.2818 16.0655 35.0864 15.919 34.891 15.7725C34.6468 15.5771 34.4513 15.4306 34.3048 15.284C34.1094 15.1375 33.9628 15.0398 33.8163 14.9422C33.6697 14.8445 33.4255 14.6979 33.1324 14.5026C32.8392 14.3561 32.4973 14.2095 32.253 14.063L32.3996 14.1119C32.2042 14.0142 31.9111 13.8188 31.7157 13.77C31.5202 13.6723 31.5691 13.7211 31.6179 13.7211C31.7157 13.7211 31.8134 13.7211 31.5202 13.6234C31.1294 13.4769 30.7386 13.3304 30.3478 13.1839C29.957 13.0862 29.5173 12.9885 29.1265 12.842C28.6868 12.7931 28.296 12.6955 27.9052 12.6466C27.5144 12.5978 27.0747 12.5489 26.6839 12.5001C26.6351 12.5001 26.5374 12.5001 26.4885 12.5001C26.2443 12.4513 26 12.4513 25.7557 12.4513C25.658 12.4513 25.6092 12.4513 25.5603 12.4513C25.5603 12.5001 25.2672 12.5001 25.023 12.5001C25.1207 12.5001 25.4626 12.5001 25.8534 12.5489C26.0489 12.5489 26.2931 12.5489 26.5374 12.5978C26.7328 12.6466 26.9282 12.6466 27.1236 12.6955C27.2701 12.7443 26.9282 12.6466 26.7816 12.6466C27.5633 12.7931 27.6121 12.7931 27.319 12.7443C27.5144 12.7931 27.7098 12.7931 27.7098 12.7931C27.661 12.7931 27.5144 12.7443 27.5144 12.7443C28.0029 12.842 28.4914 13.0374 29.0288 13.1839C29.5173 13.3792 30.0058 13.6234 30.4455 13.8676C30.8852 14.1607 31.3248 14.4537 31.7645 14.7468C31.9599 14.8933 32.1553 15.0398 32.3507 15.2352C32.5461 15.3817 32.7415 15.5282 32.9369 15.6748C33.2301 15.9678 33.7674 16.3585 34.1094 16.6516C34.2559 16.7981 34.5979 17.1888 34.6956 17.3354C34.9399 17.5307 34.9887 17.4331 35.1353 17.4819C35.3795 17.7749 35.6726 18.068 35.9169 18.5076C36.0635 18.7029 36.21 18.8983 36.3566 19.0936C36.5031 19.289 36.6008 19.5332 36.7474 19.7286C36.8451 19.9239 36.9916 20.1193 37.0893 20.2658C37.187 20.4612 37.2847 20.6077 37.3336 20.7054C37.4802 20.9496 37.5779 21.0961 37.6267 21.0473C37.6756 21.1938 37.7244 21.2915 37.8221 21.3892C37.871 21.4869 37.9198 21.5845 37.9687 21.6822C38.0664 21.8776 38.1152 22.0241 38.2129 22.1706C38.2618 22.3172 38.3595 22.5125 38.4572 22.7079C38.506 22.9033 38.6037 23.1475 38.6526 23.4405C39.0434 24.9546 39.2388 27.0547 38.9457 29.0084C38.7991 30.0829 38.4572 31.1086 38.1152 32.0854C37.9687 32.4761 37.7733 32.7692 37.6267 33.111C36.7474 34.8693 35.5261 36.3346 34.1582 37.4579C32.7904 38.5812 31.2271 39.4115 29.615 39.9488C28.0029 40.486 26.2931 40.7303 24.5345 40.6326C22.7758 40.5837 20.9683 40.193 19.2096 39.4115C15.6434 37.8486 12.6635 34.5274 11.5888 30.7667C11.0514 28.9107 10.9048 26.9571 11.1491 25.1011C11.3933 23.2451 11.9796 21.5357 12.81 20.0705C13.0543 19.7286 13.2497 19.3379 13.494 18.996C13.7382 18.6541 13.9825 18.361 14.2267 18.0191C14.471 17.6773 14.7641 17.4331 15.0084 17.14C15.2526 16.847 15.5457 16.6028 15.79 16.3585C16.0343 16.1143 16.3274 15.8701 16.6205 15.6259C16.9136 15.4306 17.1578 15.1864 17.451 14.991C18.0372 14.6003 18.5257 14.2584 19.0631 13.9653C20.1378 13.3792 21.1148 12.9885 21.9942 12.7443C22.1896 12.6955 22.4338 12.5978 22.6292 12.5978C22.8246 12.5489 23.0201 12.5489 23.1666 12.5001C23.5086 12.4513 23.8017 12.4024 24.0459 12.3536L25.023 12.5001Z" fill="#005268"/>
</g>
<path opacity="0.4" d="M42.2193 22.9039C41.7307 20.9014 40.9491 18.9966 39.8255 17.336C40.2652 16.7011 40.5094 15.9196 40.5094 15.0893C40.5094 12.8426 38.7019 11.0355 36.4548 11.0355C35.5754 11.0355 34.7449 11.3286 34.061 11.817C32.4978 10.889 30.788 10.2052 28.9804 9.76564C28.6385 7.90968 26.9775 6.49329 24.9746 6.49329V44.5893C28.3454 44.5893 31.4719 43.6614 34.1587 42.0008C34.7938 42.4403 35.5754 42.6845 36.4059 42.6845C38.6531 42.6845 40.4606 40.8774 40.4606 38.6307C40.4606 37.8493 40.2163 37.0678 39.8255 36.4329C40.9003 34.7723 41.6819 32.9163 42.1216 30.9138C43.9779 30.5231 45.3946 28.9113 45.3946 26.9577C45.4435 24.9064 44.0756 23.2458 42.2193 22.9039Z" fill="#005268"/>
</svg>
