<svg width="385" height="360" viewBox="0 0 385 360" fill="none" xmlns="http://www.w3.org/2000/svg">
<path d="M81.6999 225.1L49.2 206.3L55.5999 202.6L88.0999 221.4L81.6999 225.1Z" fill="#B21E34"/>
<path d="M49.2 206.3V210L81.6999 228.8V225.1L49.2 206.3Z" fill="#F2B0A2"/>
<path d="M88.1 221.4L81.7 225.1V228.8L88.1 225.1V221.4Z" fill="#F2B0A2"/>
<path d="M201.5 156.2L169 137.4L175.4 133.7L207.9 152.5L201.5 156.2Z" fill="#B21E34"/>
<path d="M169 137.4V141L201.5 159.8V156.2L169 137.4Z" fill="#F2B0A2"/>
<path d="M207.9 152.5L201.5 156.2V159.8L207.9 156.1V152.5Z" fill="#F2B0A2"/>
<path d="M69.3 197.1L67.6 194.2L187.7 124.9V128.8L69.3 197.1Z" fill="#2B6F81"/>
<path d="M186.6 47V144.7C186.6 145.2 187.3 145.6 188.3 145.6C189.2 145.6 190 145.2 190 144.7V47H186.6Z" fill="#2B6F81"/>
<path d="M163.421 49.2123C163.475 49.0878 163.53 48.9672 163.582 48.8571C163.732 48.9682 163.914 49.1041 164.125 49.2625C164.773 49.7488 165.696 50.4473 166.794 51.2956C168.003 52.2296 169.288 52.4686 170.286 52.5723C170.515 52.5961 170.713 52.6118 170.89 52.626C171.125 52.6446 171.324 52.6605 171.513 52.6884C171.64 52.7072 171.727 52.7278 171.785 52.7458C171.743 52.8095 171.679 52.8911 171.588 52.9884C171.301 53.2924 170.829 53.6572 170.241 53.9898C169.048 54.6649 167.538 55.1191 166.321 54.8149C165.131 54.5175 164.348 53.5511 163.837 52.5055C163.349 51.5074 163.154 50.526 163.096 50.2328C163.095 50.2252 163.093 50.2181 163.092 50.2115C163.092 50.2072 163.092 50.1854 163.099 50.1406C163.109 50.077 163.13 49.9935 163.161 49.8916C163.223 49.688 163.318 49.4483 163.421 49.2123ZM171.848 52.623C171.848 52.623 171.848 52.6242 171.847 52.6268C171.847 52.6244 171.848 52.6231 171.848 52.623Z" fill="#005268" stroke="#005268"/>
<path d="M178.401 67.4643L178.401 67.4761C178.302 69.5373 177.959 71.211 177.53 72.3916C177.315 72.9829 177.084 73.4361 176.861 73.7495C176.652 74.0444 176.484 74.1686 176.386 74.2103C176.362 74.1919 176.326 74.1564 176.274 74.091C176.119 73.8937 175.941 73.543 175.774 73.0418C175.444 72.0507 175.2 70.6052 175.2 68.9999C175.2 67.4667 175.536 65.9432 175.879 64.7927C176.05 64.2198 176.22 63.7447 176.348 63.4141C176.411 63.2489 176.464 63.12 176.501 63.0332C176.504 63.0247 176.508 63.0166 176.511 63.009L178.104 61.6928C178.156 61.948 178.214 62.2667 178.267 62.6449C178.425 63.7635 178.548 65.4029 178.401 67.4643L178.401 67.4643ZM176.416 74.2283C176.416 74.2292 176.412 74.2282 176.402 74.2224C176.411 74.2245 176.416 74.2274 176.416 74.2283Z" fill="#005268" stroke="#005268"/>
<path d="M154.6 50.3999L181.6 65.9999V62.9999L154.6 47.3999V50.3999Z" fill="#DB3377"/>
<path d="M153.6 50.9999L180.6 66.5999V63.5999L153.6 47.9999V50.9999Z" fill="#B21E34"/>
<path d="M180.6 63.5999L181.6 62.9999V65.9999L180.6 66.5999V63.5999Z" fill="#B21E34"/>
<path d="M153.6 47.9999L154.6 47.3999L181.6 62.9999L180.6 63.5999L153.6 47.9999Z" fill="#F2B0A2"/>
<path d="M179.4 62.2999L168.3 46.7999L157.5 49.5999L158.7 50.3999L167.9 47.8999L177.3 61.0999L179.4 62.2999Z" fill="#4F0008"/>
<path d="M172.4 52.5C172.4 52.5 170.2 55.5 165.9 52.7C162.9 50.7 163.4 48.1 163.4 48.1L157.5 49C157.5 49 156.5 55.7 157 60.1C157.5 64.1 158.8 70 158.2 73.6C157.7 77.2 155.5 78.4 153.6 84.7C152.1 89.6 151.9 113.3 151.9 115.5C152.2 116.1 155.8 119.5 163.1 123C168.1 125.4 173 127.2 179.7 124.3C180.3 112.4 180.2 99.5 178.5 88.9C177.5 83 175.9 81.7 176.4 78.1C176.8 75.5 177.2 75.1 177.9 72.8C175.9 74.2 175.5 70.6 175.9 66.9C176.3 62.9 178.3 60.9 178.3 60.9L172.4 52.5Z" fill="#F6BBB5"/>
<path d="M177.234 92.6588L177.229 92.6641L177.225 92.6696C176.708 93.2561 176.207 93.6439 175.687 93.8811C175.171 94.117 174.611 94.2163 173.959 94.1879C172.625 94.1299 170.955 93.544 168.596 92.5399C166.272 91.5512 162.767 89.7125 159.748 87.9906C158.24 87.1308 156.861 86.3043 155.818 85.6327C155.295 85.2965 154.863 85.0024 154.542 84.7644C154.382 84.6453 154.254 84.5439 154.159 84.461C154.112 84.4196 154.076 84.3854 154.049 84.358C154.036 84.3445 154.026 84.3337 154.019 84.3255C154.012 84.3172 154.01 84.3132 154.01 84.3132C153.705 83.8779 153.401 83.1651 153.223 82.4324C153.041 81.6775 153.025 81.0335 153.164 80.6856C153.181 80.643 153.233 80.5581 153.349 80.432C153.461 80.3111 153.611 80.1757 153.792 80.0301C154.153 79.7389 154.609 79.4323 155.064 79.1496C155.205 79.0621 155.344 78.9774 155.48 78.8968C155.453 78.9561 155.425 79.0163 155.396 79.0771C154.998 79.9352 154.539 80.9553 154.33 81.5291L154.273 81.6849L154.321 81.8436C154.389 82.0701 154.539 82.2842 154.702 82.4736C154.873 82.6719 155.095 82.8846 155.356 83.1079C155.878 83.555 156.591 84.0741 157.449 84.6419C159.167 85.779 161.507 87.1373 164.165 88.5416C166.408 89.7377 168.406 90.8004 170.083 91.499C170.922 91.8489 171.699 92.1149 172.399 92.2599C173.095 92.4042 173.749 92.4357 174.327 92.2835L174.327 92.2835L174.334 92.2817C174.876 92.1311 175.424 91.7916 175.922 91.4062C176.426 91.0154 176.914 90.5496 177.336 90.1081C177.76 89.6654 178.124 89.2398 178.383 88.9253C178.512 88.7679 178.616 88.6376 178.687 88.5463C178.723 88.5006 178.751 88.4646 178.77 88.4398L178.792 88.411L178.798 88.4032L178.799 88.401L178.8 88.4003L178.8 88.4001C178.8 88.4 178.8 88.4 178.4 88.1L178.8 88.4L178.933 88.2229L178.891 88.0055L178.611 86.548C179.012 86.914 179.337 87.4131 179.301 88.0722C179.208 89.7439 178.563 91.2357 177.234 92.6588Z" fill="#005268" stroke="#005268"/>
<path d="M161.69 73.0019L161.689 72.9941L161.687 72.9863C161.438 71.9184 161.226 70.5434 161.056 69.2198C161.392 70.4312 161.708 71.7951 161.904 73.1663C161.995 73.891 162.031 74.5425 162.03 75.1222C161.946 74.4477 161.835 73.7282 161.69 73.0019Z" fill="#005268" stroke="#005268"/>
<path d="M168.543 75.7968L168.54 75.804L168.537 75.8112C168.174 76.7032 167.822 77.6685 167.513 78.5629C167.594 78.0363 167.711 77.4883 167.878 76.9469C168.186 75.9456 168.812 74.5984 169.46 73.3298C169.193 74.1687 168.884 75.0305 168.543 75.7968Z" fill="#005268" stroke="#005268"/>
<path d="M131.3 63.8999L159.7 80.2999V77.1999L131.3 60.7999V63.8999Z" fill="#DB3377"/>
<path d="M130.3 64.4999L158.7 80.8999V77.7999L130.3 61.3999V64.4999Z" fill="#B21E34"/>
<path d="M158.7 77.8L159.7 77.2V80.3L158.7 80.9V77.8Z" fill="#B21E34"/>
<path d="M130.3 61.3999L131.3 60.7999L159.7 77.1999L158.7 77.7999L130.3 61.3999Z" fill="#F2B0A2"/>
<path d="M157.4 76.5L145.7 60.1L134.4 63.1L135.6 63.9L145.3 61.3L155.2 75.2L157.4 76.5Z" fill="#4F0008"/>
<path d="M111 75.7999L138 91.3999V88.3999L111 72.7999V75.7999Z" fill="#DB3377"/>
<path d="M110.1 76.3999L137.1 91.8999V88.9999L110.1 73.3999V76.3999Z" fill="#B21E34"/>
<path d="M137.1 88.9999L138 88.3999V91.3999L137.1 91.8999V88.9999Z" fill="#B21E34"/>
<path d="M110.1 73.3999L111 72.7999L138 88.3999L137.1 88.9999L110.1 73.3999Z" fill="#F2B0A2"/>
<path d="M135.8 87.7L124.7 72.2L113.9 75L115.1 75.7L124.3 73.3L133.7 86.5L135.8 87.7Z" fill="#4F0008"/>
<path d="M133.181 102.777C133.52 102.895 133.795 102.989 133.992 103.056L133.707 116.438C133.697 116.441 133.685 116.445 133.674 116.449C133.438 116.525 133.091 116.631 132.656 116.753C131.785 116.996 130.559 117.298 129.143 117.532C126.296 118.002 122.747 118.186 119.767 117.129L119.767 117.129L119.761 117.127C117.486 116.352 115.946 115.242 114.98 114.335C114.496 113.881 114.155 113.478 113.937 113.191C113.828 113.048 113.75 112.934 113.701 112.858C113.695 112.85 113.689 112.841 113.684 112.833C113.678 112.777 113.669 112.699 113.657 112.602C113.63 112.381 113.589 112.059 113.533 111.655C113.419 110.851 113.244 109.721 112.993 108.415C112.893 107.766 112.792 107.16 112.69 106.662C112.591 106.182 112.481 105.744 112.347 105.476L112.308 105.399L112.246 105.339C109.926 103.112 109.929 100.355 110.75 98.5179C111.378 97.3134 112.277 96.0726 113.029 95.1229C113.405 94.6486 113.741 94.2513 113.982 93.9729C114.02 93.9291 114.056 93.8884 114.089 93.8507C114.196 93.9187 114.326 94.0004 114.475 94.0941C114.95 94.3912 115.629 94.809 116.445 95.2927C118.077 96.2591 120.266 97.4923 122.485 98.5512L122.485 98.5512L122.487 98.5526C124.957 99.7117 127.923 100.867 130.264 101.732C131.437 102.164 132.455 102.525 133.181 102.777Z" fill="#005268" stroke="#005268"/>
<path d="M115.8 107C115.8 107 118 109.6 120.8 113C123.4 116.2 129 114.9 129.7 113.4C129.1 113.7 124.4 113.6 121.6 111.2C120.1 109.9 119.4 108.8 118.6 108.1C117.9 107.4 117.2 107 115.8 107Z" fill="#F6BBB5"/>
<path d="M138.633 130.68C136.981 126.423 135.603 122.541 134.639 119.724C134.157 118.316 133.778 117.173 133.52 116.382C133.417 116.067 133.333 115.808 133.27 115.61C133.224 115.622 133.176 115.634 133.125 115.648C132.73 115.751 132.158 115.893 131.445 116.051C130.021 116.366 128.03 116.744 125.761 116.996C124.578 117.156 123.183 116.999 121.784 116.695C120.376 116.388 118.927 115.924 117.627 115.444C116.325 114.964 115.164 114.465 114.328 114.087C113.981 113.929 113.689 113.793 113.467 113.687C113.352 113.983 113.19 114.409 112.988 114.96C112.559 116.129 111.949 117.86 111.226 120.103C109.78 124.59 107.884 131.125 106.088 139.307L106.088 139.309C105.726 140.924 105.268 142.786 104.797 144.695C104.425 146.208 104.045 147.752 103.699 149.227C102.953 152.411 102.37 155.272 102.306 156.997C104.397 158.094 105.428 159.228 106.19 160.358C106.384 160.647 106.56 160.933 106.728 161.21C106.755 161.255 106.782 161.299 106.808 161.344C106.948 161.575 107.084 161.799 107.227 162.022C107.565 162.548 107.934 163.05 108.445 163.538C109.451 164.498 110.367 164.814 111.534 164.954C112.057 165.016 112.62 165.043 113.273 165.073C113.373 165.078 113.476 165.083 113.58 165.088C114.359 165.126 115.243 165.176 116.262 165.304L116.264 165.304C118.326 165.569 119.855 166.442 121.004 167.269C121.382 167.541 121.734 167.819 122.04 168.061C122.189 168.179 122.327 168.288 122.452 168.384C122.871 168.705 123.137 168.869 123.321 168.915L123.332 168.918L123.331 168.918C125.377 169.475 126.853 168.996 128.124 168.519C128.2 168.491 128.275 168.462 128.351 168.434C128.9 168.226 129.458 168.014 129.989 167.935C130.634 167.839 131.275 167.931 131.9 168.4C132.884 169.138 134.186 169.978 135.477 170.428C136.78 170.882 137.937 170.898 138.785 170.211C139.258 169.828 139.691 169.434 140.117 169.046C140.151 169.015 140.185 168.983 140.219 168.952C140.674 168.538 141.128 168.129 141.6 167.775C142.442 167.143 143.366 166.669 144.533 166.604M138.633 130.68C138.633 130.68 138.633 130.679 138.633 130.679L139.1 130.5L138.634 130.681C138.634 130.681 138.634 130.68 138.633 130.68ZM138.633 130.68C140.268 134.94 141.936 141.405 143.095 148.135C144.221 154.673 144.859 161.42 144.533 166.604M144.533 166.604C144.691 166.595 144.853 166.594 145.02 166.6L145 167.1M144.533 166.604C144.523 166.758 144.513 166.911 144.501 167.062L145 167.1M145 167.1C143.077 167.023 141.865 168.129 140.452 169.417C140.027 169.804 139.585 170.207 139.1 170.6C137 172.3 133.6 170.3 131.6 168.8C130.66 168.095 129.719 168.451 128.529 168.901C127.188 169.408 125.531 170.036 123.2 169.4M145 167.1L123.2 169.4M123.2 169.4C122.799 169.3 122.321 168.921 121.716 168.442C120.508 167.487 118.798 166.133 116.2 165.8L123.2 169.4Z" fill="#005268" stroke="#005268"/>
<path d="M134.2 116.8C134.2 116.8 130.4 118.7 125 118.2C119.6 117.7 113.2 113.1 113.2 113.1L112.2 115.7C112.2 115.7 116.7 119.9 123.5 120.6C130.2 121.3 134.8 118.7 134.8 118.7L134.2 116.8Z" fill="#F6BBB5"/>
<path d="M140.8 165.6C140.8 165.6 142.1 159.7 140.1 144.4C138.4 131.4 134.1 123.5 134.1 123.5C134.1 123.5 137.1 138.1 138 143.2C139.8 153.8 140.8 165.6 140.8 165.6Z" fill="#F6BBB5"/>
<path d="M127.9 125.8C127.9 125.8 129.3 136.6 129.7 146.7C130 154.6 128.8 165.5 128.8 165.5C128.8 165.5 128.2 157.4 127.6 147.4C127.1 138.6 127.9 125.8 127.9 125.8Z" fill="#F6BBB5"/>
<path d="M120.2 124.9C120.2 124.9 118.4 138.1 117.4 147.4C116.4 156.7 115.8 164.1 115.8 164.1C115.8 164.1 114.5 154.3 116.3 141.9C118.1 129.5 120.2 124.9 120.2 124.9Z" fill="#F6BBB5"/>
<path d="M114.7 121.6C114.7 121.6 110 138 109.2 142.5C108.3 147 105.2 155 105.2 155C105.2 155 106.5 141.9 108.4 135C110.3 128.1 114.7 121.6 114.7 121.6Z" fill="#F6BBB5"/>
<path d="M120.3 93.2C120.3 93.2 120.3 85.1 120.4 82.2C120 82 119.4 81.6 119.4 81.6V92.8L120.3 93.2Z" fill="#2B2A29"/>
<path d="M131.9 99.8999C131.9 99.8999 131.9 91.7999 132 88.8999C131.5 88.5999 131 88.2999 131 88.2999V99.5999L131.9 99.8999Z" fill="#2B2A29"/>
<path d="M114 93.1999C112.8 94.5999 114.2 96.6999 118.5 98.8999C122.9 101.1 128.1 103.8 130.3 104.6C133.5 105.9 135.3 103.5 134 101.3C132.7 99.0999 126.4 94.7999 122.2 93.0999C119.1 91.9999 115.2 91.7999 114 93.1999Z" fill="#F6BBB5"/>
<path d="M130.9 84.1C130.9 84.1 129.5 83.9 128.5 89.8C127.5 95.9 126.6 103 126.6 103L125.2 102.3C125.2 102.3 126.7 91.5 127.4 87.7C128.3 82.9 129.6 83.4 129.6 83.4L130.9 84.1Z" fill="#2B2A29"/>
<path d="M119.3 77.5C119.3 77.5 117.9 77.2 117.3 83.1C116.7 88.9 115.3 96.9 115.3 96.9L114.2 95.9C114.2 95.9 115.8 84.3 116.3 80.5C116.8 76.7 118.1 76.7 118.1 76.7L119.3 77.5Z" fill="#2B2A29"/>
<path d="M79.7999 93.3999L106.8 109V106L79.7999 90.3999V93.3999Z" fill="#DB3377"/>
<path d="M78.7999 93.9999L105.8 109.6V106.6L78.7999 90.9999V93.9999Z" fill="#B21E34"/>
<path d="M105.8 106.6L106.8 106V109L105.8 109.6V106.6Z" fill="#B21E34"/>
<path d="M78.7999 90.9999L79.7999 90.3999L106.8 106L105.8 106.6L78.7999 90.9999Z" fill="#F2B0A2"/>
<path d="M104.6 105.4L93.5 89.7999L82.7 92.6999L83.9 93.3999L93.1 90.9999L102.5 104.2L104.6 105.4Z" fill="#4F0008"/>
<path d="M186.6 41.8V53.9H189.9V41.8C189.9 37.2 188.3 33.6 185.4 31.9C183 30.5 180 30.7 176.9 32.4L78.2 89.4C72 93.1 67 102.7 67 110.9V214.1C67.1 214.5 67.8 214.9 68.6 214.9C69.5 214.9 70.3 214.5 70.3 214V110.9C70.3 103.9 74.7 95.4 79.9 92.4L178.6 35.4C180.5 34.3 182.4 34.1 183.8 34.9C185.6 35.8 186.6 38.4 186.6 41.8Z" fill="#2B6F81"/>
<path d="M93.7 90.4H93V87.3C93 86.6 93.5 86.3 93.8 86C94.3 85.7 94.7 85.4 94.6 84.3C94.4 82.2 93.3 81.3 92.5 81.3C91.9 81.3 91.5 81.6 91 82C91 82 90.5 82.3 90.2 82.4C90.2 82.2 90.3 82 90.4 81.8C90.8 81.1 91.9 80.6 92.7 80.6C93.8 80.7 95 81.7 95.3 84.2C95.4 85.7 94.7 86.2 94.2 86.5C93.8 86.7 93.7 86.9 93.7 87.2V90.4Z" fill="#4F0008"/>
<path d="M124.9 72.4H124.2V69.3C124.2 68.6 124.7 68.3 125 68C125.5 67.7 125.9 67.4 125.8 66.3C125.6 64.2 124.5 63.3 123.7 63.3C123.1 63.3 122.7 63.6 122.2 64C122.2 64 121.7 64.3 121.4 64.4C121.4 64.2 121.5 64 121.6 63.8C122 63.1 123.1 62.6 123.9 62.6C125 62.7 126.2 63.7 126.5 66.2C126.6 67.7 125.9 68.2 125.4 68.5C125 68.7 124.9 68.9 124.9 69.2V72.4Z" fill="#4F0008"/>
<path d="M168.4 47.4H167.7V44.3C167.7 43.6 168.2 43.3 168.5 43C169 42.7 169.4 42.4 169.3 41.3C169.1 39.2 168 38.3 167.2 38.3C166.6 38.3 166.2 38.6 165.7 39C165.7 39 165.2 39.3 164.9 39.4C164.9 39.2 165 39 165.1 38.8C165.5 38.1 166.6 37.6 167.4 37.6C168.5 37.7 169.7 38.7 170 41.2C170.1 42.7 169.4 43.2 168.9 43.5C168.5 43.7 168.4 43.9 168.4 44.2V47.4V47.4Z" fill="#4F0008"/>
<path d="M145.9 61.1H145.3V57.1C145.3 56.4 145.8 56.1 146.1 55.9C146.6 55.6 147 55.3 146.9 54.2C146.7 52.1 145.6 51.3 144.8 51.2C144.2 51.2 143.8 51.5 143.3 51.9C143.3 51.9 142.8 52.2 142.5 52.3C142.5 52.1 142.6 51.9 142.7 51.7C143.1 51 144.2 50.5 145 50.5C146.1 50.6 147.3 51.5 147.5 54.1C147.6 55.6 146.9 56.1 146.4 56.4C146 56.6 145.9 56.7 145.9 57.1V61.1V61.1Z" fill="#4F0008"/>
<path d="M167 172.4C167 172.4 167.2 176 168.2 178.2C169 180 169.3 183.6 169.3 183.6C169.3 183.6 170.2 183.8 170.6 183.5C171 181.4 170.6 175.5 170.6 175.5L167 172.4Z" fill="#B21E34"/>
<path d="M183.531 183.437L183.531 183.438C184.63 184.637 185.471 185.651 185.965 186.522C186.463 187.398 186.548 188.019 186.34 188.503C186.217 188.791 186.063 189 185.861 189.16C185.657 189.322 185.374 189.456 184.963 189.55C184.12 189.744 182.84 189.752 180.837 189.601L180.834 189.601C177.995 189.409 176.27 188.456 175.092 187.185C173.892 185.891 173.22 184.23 172.567 182.521L172.567 182.521L172.565 182.517C171.637 180.153 170.572 178.79 169.681 177.649C169.487 177.401 169.301 177.163 169.127 176.927C168.642 176.273 168.243 175.637 167.959 174.829C167.676 174.018 167.5 173.008 167.5 171.6C167.5 170.185 168.171 168.586 169.179 167.579C169.678 167.079 170.237 166.748 170.81 166.634C171.326 166.532 171.886 166.599 172.475 166.929C172.511 167.052 172.546 167.172 172.58 167.289C172.985 168.675 173.276 169.672 173.85 170.856C174.495 172.185 175.492 173.739 177.394 176.391C179.88 179.859 180.405 180.348 181.333 181.213C181.829 181.675 182.441 182.246 183.531 183.437Z" fill="#005268" stroke="#005268"/>
<path d="M175.7 177.5C174.6 175.8 172.4 170.4 170.8 169.6C169.8 169.1 169.1 169.3 168.6 169.6C168.4 168.1 168.7 166.9 170.4 166.3C173.6 165.2 173.6 167.8 175.4 171.5C177.5 175.7 181.1 180.4 181.1 180.4C181.7 181.1 182.1 182.4 182 183.3C180.5 182.2 178.3 181.5 175.7 177.5Z" fill="#B21E34"/>
<path d="M181 184.7C178.9 185 177.3 184.9 175.5 182.5C173.9 180.4 171.1 176.9 170.1 174.2C169.6 172.8 168.9 171.2 168.7 169.8C169.1 169.6 169.9 169.3 170.9 169.8C172.4 170.6 174.7 176 175.8 177.7C178.4 181.7 180.5 182.3 182.2 183.5C182 184 181.7 184.6 181 184.7Z" fill="#B21E34"/>
<path d="M169.2 169.258V169.048C169.201 169.048 169.202 169.049 169.202 169.049C169.687 169.367 170.354 169.782 171.078 170.167C171.798 170.549 172.595 170.912 173.336 171.114C174.048 171.307 174.843 171.39 175.453 171.031C175.716 170.876 175.929 170.687 176.065 170.451C176.086 170.415 176.105 170.379 176.121 170.342C176.146 170.462 176.16 170.581 176.163 170.696C176.167 170.961 176.107 171.172 175.991 171.328C175.879 171.479 175.677 171.631 175.297 171.711L175.297 171.711L175.291 171.712C174.732 171.836 174.069 171.764 173.357 171.552C172.65 171.341 171.932 171.003 171.282 170.639C170.634 170.275 170.066 169.893 169.659 169.6C169.466 169.461 169.31 169.343 169.2 169.258Z" fill="#005268" stroke="#005268"/>
<path d="M158.1 178C158.1 178 158.3 181.6 159.3 183.8C160.1 185.6 160.4 189.2 160.4 189.2C160.4 189.2 161.3 189.4 161.7 189.1C162.1 187 161.7 181.1 161.7 181.1L158.1 178Z" fill="#B21E34"/>
<path d="M174.631 189.037L174.631 189.038C175.73 190.237 176.571 191.251 177.065 192.122C177.563 192.998 177.648 193.619 177.44 194.103C177.317 194.391 177.163 194.6 176.961 194.76C176.756 194.922 176.474 195.056 176.063 195.15C175.22 195.344 173.94 195.352 171.937 195.201L171.934 195.201C169.095 195.009 167.37 194.056 166.192 192.785C164.991 191.491 164.32 189.83 163.667 188.121L163.667 188.121L163.665 188.117C162.737 185.753 161.672 184.39 160.781 183.249C160.587 183.001 160.401 182.763 160.227 182.527C159.742 181.873 159.342 181.237 159.059 180.429C158.776 179.618 158.6 178.608 158.6 177.2V177.192L158.6 177.184C158.554 175.781 159.22 174.189 160.239 173.181C160.744 172.681 161.312 172.349 161.895 172.234C162.419 172.132 162.986 172.2 163.575 172.529C163.611 172.652 163.646 172.772 163.68 172.889C164.085 174.275 164.376 175.272 164.95 176.456C165.595 177.785 166.592 179.339 168.494 181.991C170.98 185.458 171.505 185.948 172.433 186.813C172.929 187.275 173.541 187.846 174.631 189.037Z" fill="#005268" stroke="#005268"/>
<path d="M166.8 183.1C165.7 181.4 163.5 176 161.9 175.2C160.9 174.7 160.2 174.9 159.7 175.2C159.5 173.7 159.8 172.5 161.5 171.9C164.7 170.8 164.7 173.4 166.5 177.1C168.6 181.3 172.2 186 172.2 186C172.8 186.7 173.2 188 173.1 188.9C171.5 187.8 169.4 187.1 166.8 183.1Z" fill="#B21E34"/>
<path d="M172.1 190.3C170 190.6 168.4 190.5 166.6 188.1C165 186 162.2 182.5 161.2 179.8C160.7 178.4 160 176.8 159.8 175.4C160.2 175.2 161 174.9 162 175.4C163.5 176.2 165.8 181.6 166.9 183.3C169.5 187.3 171.6 187.9 173.3 189.1C173.1 189.6 172.8 190.2 172.1 190.3Z" fill="#B21E34"/>
<path d="M160.2 174.858V174.648C160.201 174.648 160.202 174.649 160.202 174.649C160.687 174.967 161.354 175.382 162.078 175.767C162.798 176.149 163.595 176.512 164.336 176.714C165.048 176.907 165.843 176.99 166.453 176.631C166.716 176.477 166.929 176.287 167.065 176.052C167.086 176.015 167.105 175.979 167.121 175.942C167.146 176.062 167.16 176.181 167.163 176.297C167.167 176.561 167.107 176.772 166.991 176.928C166.879 177.079 166.677 177.231 166.297 177.311L166.297 177.311L166.291 177.312C165.732 177.436 165.069 177.364 164.357 177.152C163.65 176.941 162.932 176.603 162.282 176.239C161.634 175.876 161.066 175.493 160.659 175.2C160.466 175.061 160.31 174.943 160.2 174.858Z" fill="#005268" stroke="#005268"/>
<path d="M117.2 203.7C117.2 203.7 117.4 207.3 118.4 209.5C119.2 211.3 119.5 214.9 119.5 214.9C119.5 214.9 120.4 215.1 120.8 214.8C121.2 212.7 120.8 206.8 120.8 206.8L117.2 203.7Z" fill="#B21E34"/>
<path d="M133.831 214.737L133.831 214.738C134.93 215.937 135.771 216.95 136.265 217.822C136.763 218.698 136.848 219.319 136.64 219.803C136.517 220.091 136.363 220.3 136.161 220.46C135.956 220.622 135.674 220.756 135.263 220.85C134.42 221.044 133.14 221.052 131.137 220.901L131.134 220.901C128.295 220.709 126.57 219.755 125.392 218.485C124.191 217.191 123.52 215.53 122.867 213.821L122.867 213.821L122.865 213.817C121.937 211.453 120.872 210.09 119.981 208.949C119.787 208.701 119.601 208.463 119.427 208.227C118.942 207.573 118.542 206.937 118.259 206.129C117.976 205.318 117.8 204.308 117.8 202.9V202.892L117.8 202.884C117.754 201.481 118.42 199.888 119.439 198.88C119.944 198.381 120.512 198.048 121.095 197.934C121.619 197.831 122.186 197.9 122.775 198.229C122.811 198.352 122.846 198.472 122.88 198.589C123.285 199.975 123.576 200.972 124.15 202.156C124.795 203.485 125.792 205.039 127.694 207.691C130.179 211.158 130.705 211.648 131.633 212.512C132.129 212.975 132.741 213.545 133.831 214.737Z" fill="#005268" stroke="#005268"/>
<path d="M126 208.9C124.9 207.2 122.7 201.8 121.1 201C120.1 200.5 119.4 200.7 118.9 201C118.7 199.5 119 198.3 120.7 197.7C123.9 196.6 123.9 199.2 125.7 202.9C127.8 207.1 131.4 211.8 131.4 211.8C132 212.5 132.4 213.8 132.3 214.7C130.7 213.5 128.6 212.8 126 208.9Z" fill="#B21E34"/>
<path d="M131.3 216C129.2 216.3 127.6 216.2 125.8 213.8C124.2 211.7 121.4 208.2 120.4 205.5C119.9 204.1 119.2 202.5 119 201.1C119.4 200.9 120.2 200.6 121.2 201.1C122.7 201.9 125 207.3 126.1 209C128.7 213 130.8 213.6 132.5 214.8C132.3 215.4 132 215.9 131.3 216Z" fill="#B21E34"/>
<path d="M119.4 200.558V200.348C119.401 200.348 119.401 200.349 119.402 200.349C119.887 200.667 120.554 201.082 121.278 201.467C121.998 201.849 122.795 202.212 123.536 202.414C124.248 202.607 125.043 202.69 125.653 202.331C125.916 202.176 126.129 201.987 126.265 201.751C126.286 201.715 126.305 201.679 126.321 201.642C126.346 201.762 126.36 201.881 126.362 201.997C126.367 202.261 126.307 202.472 126.191 202.628C126.079 202.779 125.877 202.931 125.497 203.011L125.497 203.011L125.491 203.012C124.932 203.136 124.269 203.064 123.557 202.852C122.85 202.641 122.132 202.303 121.482 201.939C120.834 201.575 120.266 201.193 119.859 200.9C119.666 200.761 119.51 200.643 119.4 200.558Z" fill="#005268" stroke="#005268"/>
<path d="M108.3 209.3C108.3 209.3 108.5 212.9 109.5 215.1C110.3 216.9 110.6 220.5 110.6 220.5C110.6 220.5 111.5 220.7 111.9 220.4C112.3 218.3 111.9 212.4 111.9 212.4L108.3 209.3Z" fill="#B21E34"/>
<path d="M124.931 220.337L124.931 220.338C126.03 221.537 126.871 222.55 127.365 223.422C127.863 224.298 127.948 224.919 127.74 225.403C127.617 225.691 127.463 225.9 127.261 226.06C127.056 226.222 126.774 226.356 126.363 226.45C125.52 226.644 124.24 226.651 122.237 226.501L122.234 226.501C119.395 226.309 117.67 225.355 116.492 224.085C115.291 222.791 114.62 221.13 113.967 219.421L113.967 219.421L113.965 219.417C113.037 217.053 111.972 215.69 111.081 214.549C110.887 214.301 110.701 214.063 110.527 213.827C110.042 213.173 109.642 212.537 109.359 211.728C109.076 210.918 108.9 209.908 108.9 208.5V208.492L108.9 208.484C108.854 207.076 109.498 205.483 110.504 204.478C111.001 203.981 111.566 203.649 112.152 203.534C112.682 203.431 113.262 203.499 113.876 203.833C113.912 203.954 113.947 204.073 113.98 204.189C114.385 205.575 114.676 206.572 115.25 207.756C115.895 209.085 116.892 210.639 118.794 213.291C121.28 216.758 121.805 217.248 122.733 218.112C123.229 218.575 123.841 219.145 124.931 220.337Z" fill="#005268" stroke="#005268"/>
<path d="M117.1 214.5C116 212.8 113.8 207.4 112.2 206.6C111.2 206.1 110.5 206.3 110 206.6C109.8 205.1 110.1 203.9 111.8 203.3C115 202.2 115 204.8 116.8 208.5C118.9 212.7 122.5 217.4 122.5 217.4C123.1 218.1 123.5 219.4 123.4 220.3C121.8 219.1 119.7 218.4 117.1 214.5Z" fill="#B21E34"/>
<path d="M122.3 221.6C120.2 221.9 118.6 221.8 116.8 219.4C115.2 217.3 112.4 213.8 111.4 211.1C110.9 209.7 110.2 208.1 110 206.7C110.4 206.5 111.2 206.2 112.2 206.7C113.7 207.5 116 212.9 117.1 214.6C119.7 218.6 121.8 219.2 123.5 220.4C123.4 221 123 221.5 122.3 221.6Z" fill="#B21E34"/>
<path d="M110.5 206.158V205.948C110.501 205.948 110.501 205.949 110.502 205.949C110.987 206.267 111.654 206.682 112.378 207.067C113.098 207.449 113.895 207.812 114.636 208.014C115.348 208.207 116.143 208.29 116.753 207.931C117.016 207.776 117.229 207.587 117.365 207.351C117.386 207.315 117.405 207.279 117.421 207.242C117.446 207.362 117.46 207.481 117.462 207.597C117.467 207.861 117.407 208.072 117.291 208.228C117.179 208.379 116.977 208.531 116.597 208.611L116.597 208.611L116.591 208.612C116.032 208.736 115.369 208.664 114.657 208.452C113.95 208.241 113.232 207.903 112.582 207.539C111.934 207.175 111.366 206.793 110.959 206.5C110.766 206.361 110.61 206.243 110.5 206.158Z" fill="#005268" stroke="#005268"/>
<path d="M266.7 328.4C304.587 328.4 335.3 321.863 335.3 313.8C335.3 305.737 304.587 299.2 266.7 299.2C228.813 299.2 198.1 305.737 198.1 313.8C198.1 321.863 228.813 328.4 266.7 328.4Z" fill="#2B6F81"/>
<path d="M272.7 260.2C274.4 255.1 274.6 250.1 274.2 244.8C274 242.3 274.5 236.4 271.2 235.6C269.2 235.1 268.4 237.8 268.1 241.5C267.7 243.9 267.6 246.4 267.4 248.6C267.2 251.3 267.3 254 268.2 256.5C266.1 255.1 263.8 254.1 261.6 253C257.8 251.1 254 249.1 250.2 247.1C249.7 246.8 248.8 246.9 248.7 247.6C248.5 247.5 248.2 247.5 248 247.6C245.6 248.9 244.1 251.4 242.5 253.5C242.4 253.6 242.3 253.7 242.2 253.8C240.1 256.2 238.2 258.7 236.5 261.3C235.9 262.1 235.3 262.9 234.7 263.7C234.7 263.7 234.7 263.7 234.7 263.8C233.8 264.1 233 264.7 232.4 265.2C231 266.4 229.9 267.8 229 269.4C228.9 269.6 229.2 269.9 229.3 269.7C230.5 268.4 231.8 267.4 233.2 266.5C233.4 266.4 233.6 266.2 233.9 266.1C233.9 266.2 233.8 266.4 233.8 266.5C233.5 267.8 233.3 269.1 233.2 270.3C233.1 271.1 234.3 271.1 234.4 270.4C234.6 269.2 234.8 268.1 235.2 267C235.4 266.3 235.8 265.6 236 264.9C236.2 264.8 236.4 264.6 236.6 264.4C236.7 264.3 236.7 264.2 236.7 264.1C240.4 259.7 244.2 255.6 248.3 251.6C248.4 251.7 248.5 251.8 248.6 251.8C249.7 252.2 250.7 252.7 251.8 253.1C254.5 254.6 257.5 256.1 260.5 257.3C263.5 258.9 266.7 260.4 270 261.6C270.1 261.6 270.2 261.6 270.3 261.6C271.2 262.1 272.6 261.5 272.7 260.2Z" fill="#4F0008"/>
<path d="M260.2 232.8C260.2 232.8 260.2 232.7 260.2 232.8C259.9 227.4 258.2 222.7 255.9 218C254.8 215.7 253.1 210.1 249.7 210.6C247.7 210.9 247.9 213.7 249 217.2C249.5 219.6 250.3 222 251 224.1C251.8 226.7 252.9 229.2 254.7 231.2C252.3 230.7 249.8 230.6 247.3 230.4C243 230 238.8 229.6 234.5 229.2C233.9 229.1 233.2 229.5 233.3 230.3C233.1 230.3 232.8 230.4 232.6 230.6C230.8 232.7 230.4 235.5 229.7 238.1C229.7 238.2 229.6 238.4 229.6 238.5C228.6 241.5 227.7 244.5 227.1 247.6C226.8 248.6 226.6 249.5 226.3 250.5C226.3 250.5 226.3 250.5 226.3 250.6C225.6 251.2 225 252.1 224.7 252.7C223.9 254.3 223.4 256 223.1 257.8C223.1 258 223.4 258.2 223.5 258C224.1 256.4 224.9 255 226 253.6C226.2 253.4 226.3 253.2 226.5 252.9C226.5 253 226.5 253.2 226.6 253.3C226.8 254.6 227.1 255.8 227.5 257.1C227.7 257.9 228.9 257.5 228.7 256.7C228.4 255.6 228.2 254.4 228.1 253.2C228 252.5 228.1 251.7 228 250.9C228.1 250.7 228.3 250.5 228.4 250.2C228.4 250.1 228.4 250 228.4 249.9C230.2 244.5 232.2 239.2 234.5 234C234.6 234 234.8 234.1 234.9 234.1C236 234.1 237.2 234.1 238.3 234.1C241.4 234.5 244.7 234.7 247.9 234.7C251.3 235.1 254.8 235.2 258.3 235.2C258.4 235.2 258.5 235.2 258.6 235.1C259.5 235.1 260.6 234 260.2 232.8Z" fill="#4F0008"/>
<path d="M266.3 266.8C266.1 266.9 241 277.3 236.4 278.7C235.9 278.9 235.8 279.5 236 279.9C236.4 280.8 246.5 295.3 248.5 297C248.6 297.1 250.4 297.1 250.9 297.4C251.9 298 252.6 298.9 253.3 299.7C254.9 301.5 256.5 303.4 258.2 305.2C258.6 305.6 262.1 308.6 262 309.1C262 309.4 261.9 309.6 261.9 309.9C261.9 310.9 261.7 312 261.5 313C261.1 314.9 260.6 316.9 260.9 318.9C261 319.7 262 319.5 262.2 318.8C262.3 317 262.7 315.3 263.1 313.6C263.3 314.5 263.5 315.4 263.8 316.2C263.8 316.3 263.9 316.5 263.9 316.6C263.9 316.7 264 316.9 264.1 317C264.2 317.3 264.4 317.7 264.6 318C265.1 318.9 266.7 318.3 266.1 317.3C265.9 317 265.8 316.7 265.7 316.4C265.7 316.4 265.7 316.4 265.7 316.3C265.3 315.1 265.1 313.9 264.8 312.7C264.7 311.7 264.6 310.7 264.4 309.8C264.3 309.3 265.1 309 264.7 308.1C264.3 307.2 262.6 306.1 261.9 305.4C258.8 302.2 256.1 298.6 253.4 295V294.9C253.6 294.7 253.6 294.4 253.6 294.1L253.7 294C254 293.8 254 293.4 253.8 293.1C251.1 289.5 248.2 286 244.9 282.9C244.4 282.2 244 281.7 244 281.7C248.8 279.9 267.3 272.8 271.7 270.8C272.2 270.6 272.5 270 272.4 269.5C271.5 265.7 269.7 264.8 266.3 266.8Z" fill="#4F0008"/>
<path d="M316.6 243.4C319.9 254.9 320.1 268.6 312.3 277.7C312.2 258.3 305 239.1 292.4 224.5C279.8 210 261.9 200.4 243.1 198C245.4 195.2 245.1 190.7 242.6 188.2C259 187.8 275.5 193.1 288.7 203C302 212.9 311.9 227.4 316.6 243.4Z" fill="#4F0008"/>
<path d="M313.6 276.6C311.5 279.2 307.9 280.5 304.5 280.4C298.5 280.3 293.2 276.4 289.7 271.5C286.2 266.7 284.1 261 281.8 255.5C272 232.2 256.8 211.3 237.7 194.8C256.7 194.9 275.5 202.1 289.7 214.6C303.9 227.1 313.3 245 315.7 263.8C316.4 268.3 316.4 273.2 313.6 276.6Z" fill="#4F0008"/>
<path d="M290.9 281.9C282.9 285.1 272.6 283.5 264.9 280C263.1 279.2 261.1 277.7 261.4 275.7C255.7 274.1 252 267.4 253.8 261.8C249.3 259.6 247 253.7 248.9 249.1C245.9 246.9 245.1 242.3 247 239.2C243.7 237.1 242.8 232.8 242.3 229C241.8 225.2 241.1 220.9 238 218.5C245 215.1 248.2 208.2 251.1 201C259.7 204.9 268.1 209.5 275.6 215.2C279.9 218.5 284 222.2 288 226C292 229.8 295.9 233.8 298.5 238.6C301.8 244.6 303 251.7 303.2 258.6C303.4 263.9 302.6 269.3 300.1 273.9C297.9 277.8 294.6 280.4 290.9 281.9Z" fill="#F2B0A2"/>
<path d="M247.2 199.3C244.4 206.5 245 215.1 238 218.5C239.4 219.6 240.4 221.1 241 222.8C242.3 222.6 243.7 222.3 244.9 221.8C249.8 219.7 253.2 214.8 254.5 209.6C255 207.4 255.3 205.2 255.3 203C253.9 202.3 248.6 199.9 247.2 199.3Z" fill="#EE7675"/>
<path d="M232.8 182.4C228 181.7 222.8 181.6 218.5 183.9C214.2 186.2 211.4 190.6 210.3 195.3C209.2 200 209.8 204.9 211.1 209.6C212.4 214.2 214.4 218.7 217.7 222.1C221 225.6 225.7 227.9 230.4 227.7C235.8 227.5 240.6 224.1 243.7 219.7C246.8 215.3 248.3 210 249.1 204.7C250 199.6 250.2 193.9 247.2 189.6C244.1 185 238.3 183.2 232.8 182.4Z" fill="#F2B0A2"/>
<path d="M246.4 240.4C259.7 238.7 273.6 230.5 279.6 218.4C278.9 217.9 278.3 217.3 277.6 216.8C274.6 221.9 271.4 226.5 266.3 230.6C260.8 235.1 253.9 237.7 246.9 239.1C246.9 239.1 246.9 239.1 247 239.1C246.8 239.6 246.6 240 246.4 240.4Z" fill="#4F0008"/>
<path d="M302.7 252.7C302.6 251.7 302.4 250.7 302.2 249.7C296.7 256.5 290.9 262.5 283.2 267.3C277 271.1 269 274.6 261.1 275.7C261.2 275.7 261.3 275.8 261.4 275.8C261.3 276.3 261.4 276.8 261.6 277.2C268.2 276.4 274.9 273.6 280.6 270.8C288.7 266.7 297 260.4 302.7 252.7Z" fill="#4F0008"/>
<path d="M275.4 241C280.5 237.7 285.9 232.9 289 227.1C288.6 226.7 287.5 225.7 287.3 225.5C284.2 231.6 279.3 236.3 272.8 240.5C265.7 245.1 257.7 249 249.2 248.7C249 249.1 248.9 249.6 248.8 250.1C258.5 251 267.3 246.3 275.4 241Z" fill="#BD5E31"/>
<path d="M275.5 255.4C283.3 250.9 291.7 243.9 296.7 235.8C296.2 235.1 295.7 234.4 295.2 233.7C289.5 240.7 284.2 247.3 276.3 252.5C270.2 256.5 261.9 260.5 253.8 261.8C253.6 262.3 253.5 262.9 253.5 263.4C261.2 262.9 269.6 258.8 275.5 255.4Z" fill="#4F0008"/>
<path d="M244.4 212.4C245.2 214.1 244.3 216.2 242.4 217C240.5 217.8 238.4 217.1 237.7 215.3C236.9 213.6 237.8 211.5 239.7 210.7C241.5 209.9 243.6 210.6 244.4 212.4Z" fill="#B1354E"/>
<path d="M221.7 212.9C222.5 214.6 221.6 216.7 219.7 217.5C217.8 218.3 215.7 217.6 215 215.8C214.2 214.1 215.1 212 217 211.2C218.9 210.4 221 211.1 221.7 212.9Z" fill="#B1354E"/>
<path d="M215.2 194C215.7 193.9 216 193.8 216.4 193.4C216.7 193.2 217 193 217.2 192.9C217.7 192.7 218.2 192.5 218.5 192.1C218.9 191.6 218.9 190.9 218.6 190.4C218.3 190 217.8 189.7 217.3 189.8C216.4 190 215.7 190.4 215.1 191.2C214.5 191.9 214 192.7 214.4 193.6C214.5 193.8 214.8 194.1 215.2 194Z" fill="#B21E34"/>
<path d="M242.4 192.6C241.9 192.6 241.6 192.5 241.1 192.2C240.8 192 240.5 191.9 240.2 191.8C239.7 191.7 239.2 191.6 238.7 191.3C238.2 190.9 238 190.2 238.3 189.6C238.5 189.2 239 188.8 239.5 188.8C240.5 188.8 241.2 189.1 241.9 189.7C242.6 190.3 243.2 191 243 192C242.9 192.4 242.7 192.6 242.4 192.6Z" fill="#B21E34"/>
<path d="M206.789 197.803L206.795 197.777L206.798 197.75C206.878 196.946 207.176 196.2 207.579 195.506C212.729 195.636 217.855 196.691 222.429 198.925C222.561 200.539 222.258 202.123 221.377 203.533C219.405 206.631 215.156 208.049 211.677 206.732C208.21 205.421 206.04 201.364 206.789 197.803Z" fill="#D7E4E7" stroke="#D7E4E7"/>
<path d="M208.5 195.1C207.9 197 208.1 199.1 209.3 200.8C211 203.4 214.8 204.4 217.6 203.1C219.6 202.2 221 200.1 221.3 197.9C217.2 196.1 212.8 195.2 208.5 195.1Z" fill="#B21E34"/>
<path d="M215.9 201.2C216 202.2 215.3 203.1 214.3 203.2C213.3 203.3 212.4 202.6 212.3 201.6C212.2 200.6 212.9 199.7 213.9 199.6C214.9 199.5 215.8 200.2 215.9 201.2Z" fill="white"/>
<path d="M249.026 195.858L249.031 195.875L249.038 195.892C250.443 199.262 249.032 203.605 245.932 205.578C242.843 207.544 238.316 206.888 235.876 204.17C234.81 202.925 234.162 201.427 233.933 199.83C237.944 196.929 242.773 194.933 247.81 193.851C248.327 194.476 248.787 195.141 249.026 195.858Z" fill="#D7E4E7" stroke="#D7E4E7"/>
<path d="M246.9 193.6C247.8 195.4 248 197.5 247.2 199.3C246 202.2 242.5 203.8 239.5 203.1C237.3 202.5 235.6 200.8 234.9 198.6C238.5 196.2 242.6 194.5 246.9 193.6Z" fill="#B21E34"/>
<path d="M250.7 192.6C244.2 193.2 238.3 195.6 232.8 199.1C232.1 199.5 232.8 200.6 233.4 200.2C238.7 196.7 244.6 194.5 250.8 192.9C250.9 192.9 250.9 192.6 250.7 192.6Z" fill="#B21E34"/>
<path d="M249.3 189.5C249.9 190.2 250.5 191.4 250 192.4C249.8 192.7 249.4 193 249 192.9L248.9 192.8C249.1 192.1 249.1 191.9 249.3 191.3C249.4 190.7 249.3 190.1 249.3 189.5C249.3 189.5 249.2 189.5 249.3 189.5Z" fill="#B21E34"/>
<path d="M247.7 189.9C248.3 190.6 248.9 191.8 248.4 192.8C248.2 193.1 247.8 193.4 247.4 193.3L247.3 193.2C247.5 192.5 247.5 192.3 247.7 191.7C247.9 191.1 247.8 190.5 247.7 189.9C247.7 189.9 247.6 189.9 247.7 189.9Z" fill="#B21E34"/>
<path d="M246.1 190.5C246.7 191.2 247.3 192.4 246.8 193.4C246.6 193.7 246.2 194 245.8 193.9L245.7 193.8C245.9 193.1 245.9 192.9 246.1 192.3C246.2 191.7 246.1 191.1 246.1 190.5C246.1 190.5 246 190.5 246.1 190.5Z" fill="#B21E34"/>
<path d="M244.4 190.9C245 191.6 245.6 192.8 245.1 193.8C244.9 194.1 244.5 194.4 244.1 194.3L244 194.2C244.2 193.5 244.2 193.3 244.4 192.7C244.5 192.2 244.4 191.5 244.4 190.9C244.4 190.9 244.3 191 244.4 190.9Z" fill="#B21E34"/>
<path d="M240.8 200.9C240.9 201.9 241.8 202.6 242.8 202.5C243.8 202.4 244.5 201.5 244.4 200.5C244.3 199.5 243.4 198.8 242.4 198.9C241.4 199.1 240.7 200 240.8 200.9Z" fill="white"/>
<path d="M234.8 187.3C249.8 180.4 264.8 176.3 281.4 176.2C289.1 176.2 296.8 177.3 304.3 179.2C311.9 181.1 318.7 184.7 326 187.5C326.5 187.7 326.8 186.9 326.4 186.6C314.1 177.5 296.4 174.6 281.4 174.4C265.3 174.1 248.1 178.3 234.8 187.3C234.7 187.4 234.7 187.3 234.8 187.3Z" fill="#4F0008"/>
<path d="M226.4 185.3C232.5 173.4 243.1 167 255.8 163.7C270.9 159.7 285.3 162.2 300 166.1C300.3 166.2 300.6 165.7 300.2 165.5C285.9 158.9 268.3 159.3 253.4 163.2C242.1 166.2 229.7 173.4 226.1 185.2C226 185.3 226.3 185.4 226.4 185.3Z" fill="#4F0008"/>
<path d="M236.5 194.9C236.2 193.4 233.9 193.4 233.5 194.9C233.4 195.3 233.4 195.7 233.7 196.1C234.3 197 235.8 197.2 236.3 196.1C236.5 195.6 236.6 195.3 236.5 194.9Z" fill="#B1354E"/>
<path d="M222.6 188C224.2 189.1 225.9 189.2 227.8 188.7C228.7 188.4 229 187.5 228.7 186.7C228.7 186.1 228.4 185.5 227.8 185.1C226.6 184.3 224.6 183.9 223.3 184.8C222.6 185.3 222.2 186.1 222.4 187C222.3 187.3 222.3 187.8 222.6 188Z" fill="#B1354E"/>
<path d="M225 192.8C223.9 192.4 222.6 192.5 221.6 193.1C221 193.5 220.7 194.1 220.9 194.8C220.7 195.4 221 196 221.5 196.4C222.8 197.2 224.6 196.4 225.7 195.5C226.1 195.1 226.2 194.5 226.1 194C226 193.3 225.6 193 225 192.8Z" fill="#B1354E"/>
<path d="M218.6 186.7C218.2 186.6 217.9 186.5 217.6 186.7L217.5 186.8C216.8 186.5 216.3 187.5 216.9 187.9C217.6 188.3 218.3 188.2 218.9 187.7C219.2 187.5 219 186.8 218.6 186.7Z" fill="#B1354E"/>
<path d="M226.9 201.2C226.6 201 226.2 200.7 225.8 200.8C225.5 200.8 225.2 201 224.9 201.1C224.1 201.4 224 202.8 225.1 203C225.8 203.1 226.3 203.1 226.7 202.8C227 202.7 227.2 202.5 227.2 202.2C227.2 201.9 227.2 201.5 226.9 201.2Z" fill="#B1354E"/>
<path d="M231.2 202.7C231.1 202.3 230.7 202.2 230.3 202.1C230 202 229.5 202.2 229.4 202.6C229.3 202.9 229.3 203.2 229.5 203.4C229.7 203.6 230 203.8 230.3 203.7C230.4 203.7 230.4 203.7 230.5 203.7C231 203.6 231.3 203.2 231.2 202.7Z" fill="#B1354E"/>
<path d="M224.7 205.1C224.6 205.1 224.6 205.1 224.5 205C224 204.7 223.5 205.3 223.9 205.7C224.1 205.9 224.3 206 224.7 206C225.2 205.9 225.2 205.2 224.7 205.1Z" fill="#B1354E"/>
<path d="M231.8 204.2C230.9 204.1 230.1 205.4 231 206C231.2 206.2 231.5 206.3 231.7 206.4C232.3 206.6 232.9 206.1 232.9 205.5C233.1 204.8 232.5 204 231.8 204.2Z" fill="#B1354E"/>
<path d="M249.7 231.5C248.8 231.1 247.9 231.1 247.1 231.4C246.1 231.7 245.6 232.3 245.4 233.3C245.1 234.8 246.3 236 247.7 236.1C248.4 236.2 249.2 235.8 249.6 235.2C249.7 235.1 249.9 235 250 234.9C250.7 234.3 250.8 233.5 250.7 232.6C250.7 232.1 250.1 231.6 249.7 231.5Z" fill="#B1354E"/>
<path d="M245.9 222.4C245.3 222.5 244.8 222.6 244.2 222.9C243.9 223.1 243.6 223.4 243.5 223.8C243.1 224.3 243.2 225.2 243.9 225.5C244.6 225.7 245.4 225.9 246.1 225.5C246.8 225.2 247.2 224.5 247.2 223.7C247.3 222.9 246.7 222.3 245.9 222.4Z" fill="#B1354E"/>
<path d="M252.3 221C251.5 220.4 250.6 220.3 249.8 221.1C249.5 221.4 249.4 222 249.5 222.4C249.5 222.6 249.5 222.9 249.7 223.1C249.7 223.1 249.7 223.2 249.8 223.2C250.1 223.6 250.6 223.8 251.1 223.7C251.7 223.6 252 223.3 252.4 222.9C252.8 222.5 252.8 221.4 252.3 221Z" fill="#B1354E"/>
<path d="M253.8 230.1C253.8 230.2 253.7 230.2 253.6 230.2C252.9 230.4 253.2 231.6 253.9 231.6C254.3 231.6 254.6 231.5 254.9 231.3C256 230.6 254.7 229 253.8 230.1Z" fill="#B1354E"/>
<path d="M250.8 225.7C250.1 225.4 249.5 225.3 248.8 225.5C247.8 225.7 247.6 227 248.4 227.5C248.8 227.8 249.1 227.8 249.5 227.6C250.1 227.7 250.7 227.5 251.2 227C251.6 226.7 251.4 226 250.8 225.7Z" fill="#B1354E"/>
<path d="M252.4 217C251.8 217 251.6 217.3 251.5 217.7C251.1 218.2 251.4 219 252.2 218.9C252.5 218.9 252.7 218.8 253 218.8C253.5 218.7 253.8 218.1 253.6 217.7C253.3 217.1 252.9 217 252.4 217Z" fill="#B1354E"/>
<path d="M252.8 254C252.1 253.3 250.5 253.1 250.2 254.3C250.2 254.5 250.1 254.6 250.2 254.7C249.9 255.2 250.1 255.8 250.7 256.1C251.1 256.3 251.7 256.4 252.1 256.1C252.5 255.9 252.7 255.5 253 255.2C253.2 255 253.1 254.4 252.8 254Z" fill="#BD5E31"/>
<path d="M268.7 235.7C268.7 235.7 268.7 235.6 268.7 235.7C268.4 230.3 266.7 225.6 264.4 220.9C263.3 218.6 261.6 213 258.2 213.5C256.2 213.8 256.4 216.6 257.5 220.1C258 222.5 258.8 224.9 259.5 227C260.3 229.6 261.4 232.1 263.2 234.1C260.8 233.6 258.3 233.5 255.8 233.3C251.5 232.9 247.3 232.5 243 232.1C242.4 232 241.7 232.4 241.8 233.2C241.6 233.2 241.3 233.3 241.1 233.5C239.3 235.6 238.9 238.4 238.2 241C238.2 241.1 238.1 241.3 238.1 241.4C237.1 244.4 236.2 247.4 235.6 250.5C235.3 251.5 235.1 252.4 234.8 253.4C234.8 253.4 234.8 253.4 234.8 253.5C234.1 254.1 233.5 255 233.2 255.6C232.4 257.2 231.9 258.9 231.6 260.7C231.6 260.9 231.9 261.1 232 260.9C232.6 259.3 233.4 257.9 234.5 256.5C234.7 256.3 234.8 256.1 235 255.8C235 255.9 235 256.1 235.1 256.2C235.3 257.5 235.6 258.7 236 260C236.2 260.8 237.4 260.4 237.2 259.6C236.9 258.5 236.7 257.3 236.6 256.1C236.5 255.4 236.6 254.6 236.5 253.8C236.6 253.6 236.8 253.4 236.9 253.1C236.9 253 236.9 252.9 236.9 252.8C238.7 247.4 240.7 242.1 243 236.9C243.1 236.9 243.3 237 243.4 237C244.5 237 245.7 237 246.8 237C249.9 237.4 253.2 237.6 256.4 237.6C259.8 238 263.3 238.1 266.8 238.1C266.9 238.1 267 238.1 267.1 238C268 238 269 236.9 268.7 235.7Z" fill="#4F0008"/>
<path d="M278.4 263C280.1 257.9 280.3 252.9 279.9 247.6C279.7 245.1 280.2 239.2 276.9 238.4C274.9 237.9 274.1 240.6 273.8 244.3C273.4 246.7 273.3 249.2 273.1 251.4C272.9 254.1 273 256.8 273.9 259.3C271.8 257.9 269.5 256.9 267.3 255.8C263.5 253.9 259.7 251.9 255.9 249.9C255.4 249.6 254.5 249.7 254.4 250.4C254.2 250.3 253.9 250.3 253.7 250.4C251.3 251.7 249.8 254.2 248.2 256.3C248.1 256.4 248 256.5 247.9 256.6C245.8 259 243.9 261.5 242.2 264.1C241.6 264.9 241 265.7 240.4 266.5C240.4 266.5 240.4 266.5 240.4 266.6C239.5 266.9 238.7 267.5 238.1 268C236.7 269.2 235.6 270.6 234.7 272.2C234.6 272.4 234.9 272.7 235 272.5C236.2 271.2 237.5 270.2 238.9 269.3C239.1 269.2 239.3 269 239.6 268.9C239.6 269 239.5 269.2 239.5 269.3C239.2 270.6 239 271.9 238.9 273.1C238.8 273.9 240 273.9 240.1 273.2C240.3 272 240.5 270.9 240.9 269.8C241.1 269.1 241.5 268.4 241.7 267.7C241.9 267.6 242.1 267.4 242.3 267.2C242.4 267.1 242.4 267 242.4 266.9C246.1 262.5 249.9 258.4 254 254.4C254.1 254.5 254.2 254.6 254.3 254.6C255.4 255 256.4 255.5 257.5 255.9C260.2 257.4 263.2 258.9 266.2 260.1C269.2 261.7 272.4 263.2 275.7 264.4C275.8 264.4 275.9 264.4 276 264.4C276.9 264.9 278.3 264.3 278.4 263Z" fill="#4F0008"/>
<path d="M301.5 311.4C301.6 311.1 301.5 310.8 301.2 310.5C296.7 305.8 292.6 300.9 288.7 295.7C291.5 290.8 294.4 285.9 297.3 281C297.8 280.8 298.3 280.2 298.2 279.7C297.4 272.2 296.6 264.8 295.8 257.3C295.6 255 293.5 251 290.6 252C286.4 253.5 289.4 266.1 290.1 269.2C290.3 270 293 278.3 292.9 278.4C289.3 283.3 285.5 288.2 282.7 293.5C282.7 293.5 282.7 293.6 282.6 293.6C282.5 293.8 282.4 293.9 282.4 294.1L282.3 294.2C282.3 294.3 282.3 294.4 282.3 294.4C282.3 294.9 282.7 295.4 283.3 295.6C283.9 296.3 284.6 296.9 285.2 297.6C285.3 298 285.6 298.2 285.9 298.3C289.8 303 294.3 307.2 298.9 311.2C298 311.4 297 311.7 296.1 311.9C294.6 312.3 293.1 312.7 291.6 313C290.9 313.2 291.1 314.5 291.9 314.3C293.4 314 297.2 313.3 297.5 313.2C296.7 314.3 296.1 315.6 295.6 316.9C295.5 317.3 296.1 317.7 296.4 317.3C297.1 316.3 297.9 315.4 298.9 314.6C299.4 314.2 299.8 313.8 300.3 313.4C300.9 313 301.4 312.8 301.6 312C301.7 311.9 301.6 311.6 301.5 311.4Z" fill="#4F0008"/>
<path d="M275.4 241C280.5 237.7 285.9 232.9 289 227.1C288.6 226.7 287.5 225.7 287.3 225.5C284.2 231.6 279.3 236.3 272.8 240.5C265.7 245.1 257.7 249 249.2 248.7C249 249.1 248.9 249.6 248.8 250.1C258.5 251 267.3 246.3 275.4 241Z" fill="#4F0008"/>
<path d="M290.3 277.6C286.1 280.4 281.5 281.7 276.7 281.8C275.2 281.6 273.7 281.5 272.2 281.6C271.8 281.6 271.4 281.5 271 281.4C270.8 281.4 270.6 281.7 270.8 281.8C271 281.9 271.3 282 271.5 282.1C271.5 282.2 271.5 282.2 271.5 282.3C277.9 284 285.1 284.3 291 281.9C291.2 281.8 291.4 281.7 291.6 281.6C292.5 280.7 292.9 279.5 292 277.9C291.6 277.4 290.8 277.3 290.3 277.6Z" fill="#4F0008"/>
<path d="M204.6 195.1C211 195.5 217.1 196.6 223 199C223.7 199.3 224.1 198.1 223.3 197.8C217.3 195.4 211 194.2 204.5 194.8C204.4 194.9 204.4 195.1 204.6 195.1Z" fill="#B21E34"/>
<path d="M204.6 191.7C204.6 192.3 204.6 192.9 204.8 193.4C205.1 194 205.2 194.1 205.5 194.8V194.9C205.1 195 204.7 194.9 204.4 194.6C203.8 193.8 204.1 192.5 204.6 191.7C204.6 191.7 204.5 191.7 204.6 191.7Z" fill="#B21E34"/>
<path d="M206.2 191.8C206.2 192.4 206.2 193 206.4 193.5C206.7 194.1 206.8 194.2 207.1 194.9V195C206.7 195.1 206.3 195 206 194.7C205.3 193.9 205.7 192.6 206.2 191.8C206.2 191.8 206.1 191.8 206.2 191.8Z" fill="#B21E34"/>
<path d="M208 192.1C208 192.7 208 193.3 208.2 193.8C208.5 194.4 208.6 194.5 208.9 195.2V195.3C208.5 195.4 208.1 195.3 207.8 195C207.1 194.2 207.5 192.9 208 192.1C208 192.1 207.9 192.1 208 192.1Z" fill="#B21E34"/>
<path d="M209.7 192.2C209.7 192.8 209.7 193.4 209.9 193.9C210.2 194.5 210.3 194.6 210.6 195.3V195.4C210.2 195.5 209.8 195.4 209.5 195.1C208.8 194.3 209.2 193 209.7 192.2C209.7 192.2 209.6 192.2 209.7 192.2Z" fill="#B21E34"/>
<path d="M233.1 218C232.9 218.9 232.1 219.5 231.2 219.4C230.7 219.3 230.3 218.9 230 218.5C229.8 218.1 229.8 217.7 229.5 217.4C229.4 217.3 229.2 217.2 229.1 217.2C228.7 217.1 228.2 217.3 228.1 217.8C227.9 218.7 227.1 219.3 226.2 219.2C225.7 219.1 225.3 218.7 225 218.3C224.8 217.9 224.8 217.5 224.5 217.2C224.3 217 223.9 217 223.7 217.2C223.3 217.8 223.6 218.6 224 219.1C224 219.1 224 219.1 224.1 219.2C224.5 220 225.4 220.7 226.3 220.9C227.5 221.1 228.5 220.4 229 219.4C229.4 220.2 230.3 220.9 231.2 221.1C232.9 221.4 234.2 219.8 234.3 218.2V218.1C234.3 218 234.3 218 234.3 217.9C234.4 217.1 233.2 217.3 233.1 218Z" fill="#B21E34"/>
<path d="M250.8 191.4C260.2 193 268.7 196.3 277.1 200.9C285.7 205.6 291.4 212.5 298.7 218.7C299 218.9 299.4 218.6 299.2 218.3C294.8 210.3 285.5 204.1 277.9 199.6C269.7 194.8 260.2 192.2 250.9 191C250.6 190.9 250.6 191.3 250.8 191.4Z" fill="#F2B0A2"/>
<path d="M300.8 221.7C303.2 224.8 305.2 228 307.2 231.4C309 234.4 310.1 237.7 311.9 240.7C312.1 241 312.6 240.8 312.5 240.4C311.2 233.2 306.1 226.4 301.3 221.2C301 220.7 300.5 221.3 300.8 221.7Z" fill="#F2B0A2"/>
</svg>
