<svg width="390" height="844" viewBox="0 0 390 844" fill="none" xmlns="http://www.w3.org/2000/svg">
<g clip-path="url(#clip0_30_23299)">
<g opacity="0.5">
<path d="M47.9 66.2C42.7 71 33.3 77.3 22.7 80.8C20.9 81.4 19.1 81.8 17.3 82.2C15.5 82.6 15.3 82.7 15.2 81.5C14.2 73.9 13 66.4 11.1 58.9C9.19998 52.3 6.99998 45.8 3.99998 39.5C3.79998 39 3.99998 38.4 4.49998 38.1C12 33.8 18 28.2 22.6 21.2C22.9 20.7 23.2 20.4 23.8 20.7C33.8 25 44.4 27.5 55.2 29.2C59.8 29.9 64.5 30.5 69.1 31.1C70 31.2 70.1 31.4 70 32.2C68.7 38.3 66 44 62.6 49.3C59.1 54.7 55 59.6 47.9 66.2ZM25.9 22.8C20.9 30.5 14.3 36.6 6.09998 41.3C11.9 54.1 14.4 67.6 16.2 81.4L24.3 79.1C24 78 23.7 77 23.4 76.1C21.2 68.9 18.7 61.8 15.4 54.9C15.2 54.5 14.7 54 15.4 53.6C16.1 53.3 16.3 54 16.5 54.4C19.1 59.7 21.1 65.1 23 70.6C23.9 73.2 24.7 75.8 25.6 78.6C28.3 77.3 30.9 76.1 33.4 74.8C33.3 74.5 33.3 74.5 33.3 74.4C29.2 66.2 24.9 58.1 20.1 50.2C19.3 48.9 18.5 47.6 17.7 46.3C17.5 46 17.5 45.6 17.9 45.5C18.1 45.4 18.5 45.6 18.7 45.8C18.9 46 19 46.2 19.2 46.5C24.7 55.3 29.5 64.3 34.2 73.5C34.3 73.7 34.5 74 34.7 74.3C37.3 72.6 39.8 70.9 42.4 69.2C41.8 68.5 41.4 67.9 40.9 67.3C35.1 59.8 29.3 52.3 23.4 44.8C22.5 43.6 21.6 42.5 20.7 41.3C20.4 41 20.3 40.6 20.7 40.3C21.1 40 21.4 40.3 21.7 40.6L21.8 40.7C24.1 43.6 26.3 46.5 28.6 49.4C31.4 52.9 34.1 56.4 36.8 59.9C39 62.8 41.1 65.4 43.3 68.3C46.9 65.6 50.1 62.6 53.1 59.4C52.9 59.2 52.7 59 52.5 58.9C48.4 55.6 44.2 52.3 40.1 49.1C35.1 45.2 30.2 41.3 25.2 37.3C24.9 37 24.5 36.7 24.9 36.3C25.3 35.9 25.7 36.2 26 36.4C28.2 38.2 30.5 39.9 32.7 41.7C39 46.7 45.4 51.7 51.7 56.7C52.4 57.3 53.1 57.8 54 58.5C56 56.1 57.9 53.8 59.8 51.4C59.4 51.2 59.2 51 58.9 50.9C49.6 46.1 40.5 41 31.8 35.3C31.4 35 30.9 34.8 30.6 34.4C30.5 34.3 30.4 33.8 30.5 33.7C30.7 33.5 31 33.5 31.3 33.5C31.4 33.5 31.6 33.7 31.7 33.7C39.1 38.6 46.8 43.1 54.7 47.3C56.6 48.3 58.5 49.3 60.5 50.4C62 47.9 63.4 45.5 64.9 43.1C64.6 43 64.4 42.9 64.3 42.9C61.7 42 59 41 56.4 40.1C50.6 37.9 45.1 35.5 39.7 32.5C39.3 32.3 38.9 32 39.2 31.6C39.5 31.1 39.9 31.3 40.3 31.5C48 35.8 56.3 39 64.7 41.8C64.9 41.9 65.2 41.9 65.4 42C66.7 39.9 68.8 33.8 68.8 32.3C54.1 30.5 39.6 28.2 25.9 22.8ZM5.69998 40.2C13.5 35.7 19.8 29.8 24.7 22.4C24.2 22.2 23.9 22.1 23.6 22C22.2 23.8 20.9 25.6 19.5 27.2C15.6 31.7 11.1 35.5 5.89998 38.6C4.99998 39.2 4.99998 39.1 5.69998 40.2Z" fill="#337085"/>
<path d="M101.6 285.7C96.4 290.5 87 296.8 76.4 300.3C74.6 300.9 72.8 301.3 71 301.7C69.2 302.1 69 302.2 68.9 301C67.9 293.4 66.7 285.9 64.8 278.4C63.1 271.7 60.9 265.3 57.9 259C57.7 258.5 57.9 257.9 58.4 257.6C65.9 253.3 71.9 247.7 76.5 240.7C76.8 240.2 77.1 239.9 77.7 240.2C87.7 244.5 98.3 247 109.1 248.7C113.7 249.4 118.4 250 123 250.6C123.9 250.7 124 250.9 123.9 251.7C122.6 257.8 119.9 263.5 116.5 268.8C112.9 274.2 108.7 279.1 101.6 285.7ZM79.7 242.3C74.7 250 68.1 256.1 59.9 260.8C65.7 273.6 68.2 287.1 70 300.9L78.1 298.6C77.8 297.5 77.5 296.5 77.2 295.6C75 288.4 72.5 281.3 69.2 274.4C69 274 68.5 273.5 69.2 273.1C69.9 272.8 70.1 273.5 70.3 273.9C72.9 279.2 74.9 284.6 76.8 290.1C77.7 292.7 78.5 295.3 79.4 298.1C82.1 296.8 84.7 295.6 87.2 294.3C87.1 294 87.1 294 87.1 293.9C83 285.7 78.7 277.6 73.9 269.7C73.1 268.4 72.3 267.1 71.5 265.8C71.3 265.5 71.3 265.1 71.7 265C71.9 264.9 72.3 265.1 72.5 265.3C72.7 265.5 72.8 265.7 73 266C78.5 274.8 83.3 283.8 88 293C88.1 293.2 88.3 293.5 88.5 293.8C91.1 292.1 93.6 290.4 96.2 288.7C95.6 288 95.2 287.4 94.7 286.8C88.9 279.3 83.1 271.8 77.2 264.3C76.3 263.1 75.4 262 74.5 260.8C74.2 260.5 74.1 260.1 74.5 259.8C74.9 259.5 75.2 259.8 75.5 260.1L75.6 260.2C77.9 263.1 80.1 266 82.4 268.9C85.2 272.4 87.9 275.9 90.6 279.4C92.8 282.3 94.9 284.9 97.1 287.8C100.7 285.1 103.9 282.1 106.9 278.9C106.7 278.7 106.5 278.5 106.3 278.4C102.2 275.1 98 271.8 93.9 268.6C88.9 264.7 84 260.8 79 256.8C78.7 256.5 78.3 256.2 78.7 255.8C79.1 255.4 79.5 255.7 79.8 255.9C82 257.7 84.3 259.4 86.5 261.2C92.8 266.2 99.2 271.2 105.5 276.2C106.2 276.8 106.9 277.3 107.8 278C109.8 275.6 111.7 273.3 113.6 270.9C113.2 270.7 113 270.5 112.7 270.4C103.4 265.6 94.3 260.5 85.6 254.8C85.2 254.5 84.7 254.3 84.4 253.9C84.3 253.8 84.2 253.3 84.3 253.2C84.5 253 84.8 253 85.1 253C85.2 253 85.4 253.2 85.5 253.2C92.9 258.1 100.6 262.6 108.5 266.8C110.4 267.8 112.3 268.8 114.3 269.9C115.8 267.4 117.2 265 118.7 262.6C118.4 262.5 118.2 262.4 118.1 262.4C115.5 261.5 112.8 260.5 110.2 259.6C104.4 257.4 98.9 255 93.5 252C93.1 251.8 92.7 251.5 93 251.1C93.3 250.6 93.7 250.8 94.1 251C101.8 255.3 110.1 258.5 118.5 261.3C118.7 261.4 119 261.4 119.2 261.5C120.5 259.4 122.6 253.3 122.6 251.8C107.8 250 93.4 247.7 79.7 242.3ZM59.5 259.7C67.3 255.2 73.6 249.3 78.5 241.9C78 241.7 77.7 241.6 77.4 241.5C76 243.3 74.7 245.1 73.3 246.7C69.4 251.2 64.9 255 59.7 258.1C58.8 258.7 58.8 258.6 59.5 259.7Z" fill="#337085"/>
<path d="M349.4 325.7C344.2 330.5 334.8 336.8 324.2 340.3C322.4 340.9 320.6 341.3 318.8 341.7C317 342.1 316.8 342.2 316.7 341C315.7 333.4 314.5 325.9 312.6 318.4C310.9 311.7 308.7 305.3 305.7 299C305.5 298.5 305.7 297.9 306.2 297.6C313.7 293.3 319.7 287.7 324.3 280.7C324.6 280.2 324.9 279.9 325.5 280.2C335.5 284.5 346.1 287 356.9 288.7C361.5 289.4 366.2 290 370.8 290.6C371.7 290.7 371.8 290.9 371.7 291.7C370.4 297.8 367.7 303.5 364.3 308.8C360.7 314.2 356.5 319.1 349.4 325.7ZM327.4 282.3C322.4 290 315.8 296.1 307.6 300.8C313.4 313.6 315.9 327.1 317.7 340.9L325.8 338.6C325.5 337.5 325.2 336.5 324.9 335.6C322.7 328.4 320.2 321.3 316.9 314.4C316.7 314 316.2 313.5 316.9 313.1C317.6 312.8 317.8 313.5 318 313.9C320.6 319.2 322.6 324.6 324.5 330.1C325.4 332.7 326.2 335.3 327.1 338.1C329.8 336.8 332.4 335.6 334.9 334.3C334.8 334 334.8 334 334.8 333.9C330.7 325.7 326.4 317.6 321.6 309.7C320.8 308.4 320 307.1 319.2 305.8C319 305.5 319 305.1 319.4 305C319.6 304.9 320 305.1 320.2 305.3C320.4 305.5 320.5 305.7 320.7 306C326.2 314.8 331 323.8 335.7 333C335.8 333.2 336 333.5 336.2 333.8C338.8 332.1 341.3 330.4 343.9 328.7C343.3 328 342.9 327.4 342.4 326.8C336.6 319.3 330.8 311.8 324.9 304.3C324 303.1 323.1 302 322.2 300.8C321.9 300.5 321.8 300.1 322.2 299.8C322.6 299.5 322.9 299.8 323.2 300.1L323.3 300.2C325.6 303.1 327.8 306 330.1 308.9C332.9 312.4 335.6 315.9 338.3 319.4C340.5 322.3 342.6 324.9 344.8 327.8C348.4 325.1 351.6 322.1 354.6 318.9C354.4 318.7 354.2 318.5 354 318.4C349.9 315.1 345.7 311.8 341.6 308.6C336.6 304.7 331.7 300.8 326.7 296.8C326.4 296.5 326 296.2 326.4 295.8C326.8 295.4 327.2 295.7 327.5 295.9C329.7 297.7 332 299.4 334.2 301.2C340.5 306.2 346.9 311.2 353.2 316.2C353.9 316.8 354.6 317.3 355.5 318C357.5 315.6 359.4 313.3 361.3 310.9C360.9 310.7 360.7 310.5 360.4 310.4C351.1 305.6 342 300.5 333.3 294.8C332.9 294.5 332.4 294.3 332.1 293.9C332 293.8 331.9 293.3 332 293.2C332.2 293 332.5 293 332.8 293C332.9 293 333.1 293.2 333.2 293.2C340.6 298.1 348.3 302.6 356.2 306.8C358.1 307.8 360 308.8 362 309.9C363.5 307.4 364.9 305 366.4 302.6C366.1 302.5 365.9 302.4 365.8 302.4C363.2 301.5 360.5 300.5 357.9 299.6C352.1 297.4 346.6 295 341.2 292C340.8 291.8 340.4 291.5 340.7 291.1C341 290.6 341.4 290.8 341.8 291C349.5 295.3 357.8 298.5 366.2 301.3C366.4 301.4 366.7 301.4 366.9 301.5C368.2 299.4 370.3 293.3 370.3 291.8C355.6 290 341.2 287.7 327.4 282.3ZM307.3 299.6C315.1 295.1 321.4 289.2 326.3 281.8C325.8 281.6 325.5 281.5 325.2 281.4C323.8 283.2 322.5 285 321.1 286.6C317.2 291.1 312.7 294.9 307.5 298C306.5 298.6 306.5 298.6 307.3 299.6Z" fill="#337085"/>
<path d="M100.2 442.2C95 447 85.6 453.3 75 456.8C73.2 457.4 71.4 457.8 69.6 458.2C67.8 458.6 67.6 458.7 67.5 457.5C66.5 449.9 65.3 442.4 63.4 434.9C61.7 428.2 59.5 421.8 56.5 415.5C56.3 415 56.5 414.4 57 414.1C64.5 409.8 70.5 404.2 75.1 397.2C75.4 396.7 75.7 396.4 76.3 396.7C86.3 401 96.9 403.5 107.7 405.2C112.3 405.9 117 406.5 121.6 407.1C122.5 407.2 122.6 407.4 122.5 408.2C121.2 414.3 118.5 420 115.1 425.3C111.4 430.8 107.2 435.6 100.2 442.2ZM78.2 398.8C73.2 406.5 66.6 412.6 58.4 417.3C64.2 430.1 66.7 443.6 68.5 457.4L76.6 455.1C76.3 454 76 453 75.7 452.1C73.5 444.9 71 437.8 67.7 430.9C67.5 430.5 67 430 67.7 429.6C68.4 429.3 68.6 430 68.8 430.4C71.4 435.7 73.4 441.1 75.3 446.6C76.2 449.2 77 451.8 77.9 454.6C80.6 453.3 83.2 452.1 85.7 450.8C85.6 450.5 85.6 450.5 85.6 450.4C81.5 442.2 77.2 434.1 72.4 426.2C71.6 424.9 70.8 423.6 70 422.3C69.8 422 69.8 421.6 70.2 421.5C70.4 421.4 70.8 421.6 71 421.8C71.2 422 71.3 422.2 71.5 422.5C77 431.3 81.8 440.3 86.5 449.5C86.6 449.7 86.8 450 87 450.3C89.6 448.6 92.1 446.9 94.7 445.2C94.1 444.5 93.7 443.9 93.2 443.3C87.4 435.8 81.6 428.3 75.7 420.8C74.8 419.6 73.9 418.5 73 417.3C72.7 417 72.6 416.6 73 416.3C73.4 416 73.7 416.3 74 416.6L74.1 416.7C76.4 419.6 78.6 422.5 80.9 425.4C83.7 428.9 86.4 432.4 89.1 435.9C91.3 438.8 93.4 441.4 95.6 444.3C99.2 441.6 102.4 438.6 105.4 435.4C105.2 435.2 105 435 104.8 434.9C100.7 431.6 96.5 428.3 92.4 425.1C87.4 421.2 82.5 417.3 77.5 413.3C77.2 413 76.8 412.7 77.2 412.3C77.6 411.9 78 412.2 78.3 412.4C80.5 414.2 82.8 415.9 85 417.7C91.3 422.7 97.7 427.7 104 432.7C104.7 433.3 105.4 433.8 106.3 434.5C108.3 432.1 110.2 429.8 112.1 427.4C111.7 427.2 111.5 427 111.2 426.9C101.9 422.1 92.8 417 84.1 411.3C83.7 411 83.2 410.8 82.9 410.4C82.8 410.3 82.7 409.8 82.8 409.7C83 409.5 83.3 409.5 83.6 409.5C83.7 409.5 83.9 409.7 84 409.7C91.4 414.6 99.1 419.1 107 423.3C108.9 424.3 110.8 425.3 112.8 426.4C114.3 423.9 115.7 421.5 117.2 419.1C116.9 419 116.7 418.9 116.6 418.9C114 418 111.3 417 108.7 416.1C102.9 413.9 97.4 411.5 92 408.5C91.6 408.3 91.2 408 91.5 407.6C91.8 407.1 92.2 407.3 92.6 407.5C100.3 411.8 108.6 415 117 417.8C117.2 417.9 117.5 417.9 117.7 418C119 415.9 121.1 409.8 121.1 408.3C106.3 406.6 91.9 404.2 78.2 398.8ZM58 416.2C65.8 411.7 72.1 405.8 77 398.4C76.5 398.2 76.2 398.1 75.9 398C74.5 399.8 73.2 401.6 71.8 403.2C67.9 407.7 63.4 411.5 58.2 414.6C57.3 415.2 57.3 415.2 58 416.2Z" fill="#337085"/>
<path d="M249.3 130.7C244.1 135.5 234.7 141.8 224.1 145.3C222.3 145.9 220.5 146.3 218.7 146.7C216.9 147.1 216.7 147.2 216.6 146C215.6 138.4 214.4 130.9 212.5 123.4C210.8 116.7 208.6 110.3 205.6 104C205.4 103.5 205.6 102.9 206.1 102.6C213.6 98.3 219.6 92.7 224.2 85.7C224.5 85.2 224.8 84.9 225.4 85.2C235.4 89.5 246 92 256.8 93.7C261.4 94.4 266.1 95 270.7 95.6C271.6 95.7 271.7 95.9 271.6 96.7C270.3 102.8 267.6 108.5 264.2 113.8C260.6 119.3 256.4 124.2 249.3 130.7ZM227.4 87.4C222.4 95.1 215.8 101.2 207.6 105.9C213.4 118.7 215.9 132.2 217.7 146L225.8 143.7C225.5 142.6 225.2 141.6 224.9 140.7C222.7 133.5 220.2 126.4 216.9 119.5C216.7 119.1 216.2 118.6 216.9 118.2C217.6 117.9 217.8 118.6 218 119C220.6 124.3 222.6 129.7 224.5 135.2C225.4 137.8 226.2 140.4 227.1 143.2C229.8 141.9 232.4 140.7 234.9 139.4C234.8 139.1 234.8 139.1 234.8 139C230.7 130.8 226.4 122.7 221.6 114.8C220.8 113.5 220 112.2 219.2 110.9C219 110.6 219 110.2 219.4 110.1C219.6 110 220 110.2 220.2 110.4C220.4 110.6 220.5 110.8 220.7 111.1C226.2 119.9 231 128.9 235.7 138.1C235.8 138.3 236 138.6 236.2 138.9C238.8 137.2 241.3 135.5 243.9 133.8C243.3 133.1 242.9 132.5 242.4 131.9C236.6 124.4 230.8 116.9 224.9 109.4C224 108.2 223.1 107.1 222.2 105.9C221.9 105.6 221.8 105.2 222.2 104.9C222.6 104.6 222.9 104.9 223.2 105.2L223.3 105.3C225.6 108.2 227.8 111.1 230.1 114C232.9 117.5 235.6 121 238.3 124.5C240.5 127.4 242.6 130 244.8 132.9C248.4 130.2 251.6 127.2 254.6 124C254.4 123.8 254.2 123.6 254 123.5C249.9 120.2 245.7 116.9 241.6 113.7C236.6 109.8 231.7 105.9 226.7 101.9C226.4 101.6 226 101.3 226.4 100.9C226.8 100.5 227.2 100.8 227.5 101C229.7 102.8 232 104.5 234.2 106.3C240.5 111.3 246.9 116.3 253.2 121.3C253.9 121.9 254.6 122.4 255.5 123.1C257.5 120.7 259.4 118.4 261.3 116C260.9 115.8 260.7 115.6 260.4 115.5C251.1 110.7 242 105.6 233.3 99.9C232.9 99.6 232.4 99.4 232.1 99C232 98.9 231.9 98.4 232 98.3C232.2 98.1 232.5 98.1 232.8 98.1C232.9 98.1 233.1 98.3 233.2 98.3C240.6 103.2 248.3 107.7 256.2 111.9C258.1 112.9 260 113.9 262 115C263.5 112.5 264.9 110.1 266.4 107.7C266.1 107.6 265.9 107.5 265.8 107.5C263.2 106.6 260.5 105.6 257.9 104.7C252.1 102.5 246.6 100.1 241.2 97.1C240.8 96.9 240.4 96.6 240.7 96.2C241 95.7 241.4 95.9 241.8 96.1C249.5 100.4 257.8 103.6 266.2 106.4C266.4 106.5 266.7 106.5 266.9 106.6C268.2 104.5 270.3 98.4 270.3 96.9C255.5 95.1 241.1 92.8 227.4 87.4ZM207.2 104.7C215 100.2 221.3 94.3 226.2 86.9C225.7 86.7 225.4 86.6 225.1 86.5C223.7 88.3 222.4 90.1 221 91.7C217.1 96.2 212.6 100 207.4 103.1C206.5 103.7 206.5 103.7 207.2 104.7Z" fill="#337085"/>
<path d="M175.3 709C170.1 713.8 160.7 720.1 150.1 723.6C148.3 724.2 146.5 724.6 144.7 725C142.9 725.4 142.7 725.5 142.6 724.3C141.6 716.7 140.4 709.2 138.5 701.7C136.8 695 134.6 688.6 131.6 682.3C131.4 681.8 131.6 681.2 132.1 680.9C139.6 676.6 145.6 671 150.2 664C150.5 663.5 150.8 663.2 151.4 663.5C161.4 667.8 172 670.3 182.8 672C187.4 672.7 192.1 673.3 196.7 673.9C197.6 674 197.7 674.2 197.6 675C196.3 681.1 193.6 686.8 190.2 692.1C186.5 697.6 182.3 702.4 175.3 709ZM153.3 665.6C148.3 673.3 141.7 679.4 133.5 684.1C139.3 696.9 141.8 710.4 143.6 724.2L151.7 721.9C151.4 720.8 151.1 719.8 150.8 718.9C148.6 711.7 146.1 704.6 142.8 697.7C142.6 697.3 142.1 696.8 142.8 696.4C143.5 696.1 143.7 696.8 143.9 697.2C146.5 702.5 148.5 707.9 150.4 713.4C151.3 716 152.1 718.6 153 721.4C155.7 720.1 158.3 718.9 160.8 717.6C160.7 717.3 160.7 717.3 160.7 717.2C156.6 709 152.3 700.9 147.5 693C146.7 691.7 145.9 690.4 145.1 689.1C144.9 688.8 144.9 688.4 145.3 688.3C145.5 688.2 145.9 688.4 146.1 688.6C146.3 688.8 146.4 689 146.6 689.3C152.1 698.1 156.9 707.1 161.6 716.3C161.7 716.5 161.9 716.8 162.1 717.1C164.7 715.4 167.2 713.7 169.8 712C169.2 711.3 168.8 710.7 168.3 710.1C162.5 702.6 156.7 695.1 150.8 687.6C149.9 686.4 149 685.3 148.1 684.1C147.8 683.8 147.7 683.4 148.1 683.1C148.5 682.8 148.8 683.1 149.1 683.4L149.2 683.5C151.5 686.4 153.7 689.3 156 692.2C158.8 695.7 161.5 699.2 164.2 702.7C166.4 705.6 168.5 708.2 170.7 711.1C174.3 708.4 177.5 705.4 180.5 702.2C180.3 702 180.1 701.8 179.9 701.7C175.8 698.4 171.6 695.1 167.5 691.9C162.5 688 157.6 684.1 152.6 680.1C152.3 679.8 151.9 679.5 152.3 679.1C152.7 678.7 153.1 679 153.4 679.2C155.6 681 157.9 682.7 160.1 684.5C166.4 689.5 172.8 694.5 179.1 699.5C179.8 700.1 180.5 700.6 181.4 701.3C183.4 698.9 185.3 696.6 187.2 694.2C186.8 694 186.6 693.8 186.3 693.7C177 688.9 167.9 683.8 159.2 678.1C158.8 677.8 158.3 677.6 158 677.2C157.9 677.1 157.8 676.6 157.9 676.5C158.1 676.3 158.4 676.3 158.7 676.3C158.8 676.3 159 676.5 159.1 676.5C166.5 681.4 174.2 685.9 182.1 690.1C184 691.1 185.9 692.1 187.9 693.2C189.4 690.7 190.8 688.3 192.3 685.9C192 685.8 191.8 685.7 191.7 685.7C189.1 684.8 186.4 683.8 183.8 682.9C178 680.7 172.5 678.3 167.1 675.3C166.7 675.1 166.3 674.8 166.6 674.4C166.9 673.9 167.3 674.1 167.7 674.3C175.4 678.6 183.7 681.8 192.1 684.6C192.3 684.7 192.6 684.7 192.8 684.8C194.1 682.7 196.2 676.6 196.2 675.1C181.4 673.3 167 671 153.3 665.6ZM133.1 683C140.9 678.5 147.2 672.6 152.1 665.2C151.6 665 151.3 664.9 151 664.8C149.6 666.6 148.3 668.4 146.9 670C143 674.5 138.5 678.3 133.3 681.4C132.4 682 132.4 681.9 133.1 683Z" fill="#337085"/>
<path d="M349.4 610.9C344.2 615.7 334.8 622 324.2 625.5C322.4 626.1 320.6 626.5 318.8 626.9C317 627.3 316.8 627.4 316.7 626.2C315.7 618.6 314.5 611.1 312.6 603.6C310.9 596.9 308.7 590.5 305.7 584.2C305.5 583.7 305.7 583.1 306.2 582.8C313.7 578.5 319.7 572.9 324.3 565.9C324.6 565.4 324.9 565.1 325.5 565.4C335.5 569.7 346.1 572.2 356.9 573.9C361.5 574.6 366.2 575.2 370.8 575.8C371.7 575.9 371.8 576.1 371.7 576.9C370.4 583 367.7 588.7 364.3 594C360.7 599.4 356.5 604.3 349.4 610.9ZM327.4 567.5C322.4 575.2 315.8 581.3 307.6 586C313.4 598.8 315.9 612.3 317.7 626.1L325.8 623.8C325.5 622.7 325.2 621.7 324.9 620.8C322.7 613.6 320.2 606.5 316.9 599.6C316.7 599.2 316.2 598.7 316.9 598.3C317.6 598 317.8 598.7 318 599.1C320.6 604.4 322.6 609.8 324.5 615.3C325.4 617.9 326.2 620.5 327.1 623.3C329.8 622 332.4 620.8 334.9 619.5C334.8 619.2 334.8 619.2 334.8 619.1C330.7 610.9 326.4 602.8 321.6 594.9C320.8 593.6 320 592.3 319.2 591C319 590.7 319 590.3 319.4 590.2C319.6 590.1 320 590.3 320.2 590.5C320.4 590.7 320.5 590.9 320.7 591.2C326.2 600 331 609 335.7 618.2C335.8 618.4 336 618.7 336.2 619C338.8 617.3 341.3 615.6 343.9 613.9C343.3 613.2 342.9 612.6 342.4 612C336.6 604.5 330.8 597 324.9 589.5C324 588.3 323.1 587.2 322.2 586C321.9 585.7 321.8 585.3 322.2 585C322.6 584.7 322.9 585 323.2 585.3L323.3 585.4C325.6 588.3 327.8 591.2 330.1 594.1C332.9 597.6 335.6 601.1 338.3 604.6C340.5 607.5 342.6 610.1 344.8 613C348.4 610.3 351.6 607.3 354.6 604.1C354.4 603.9 354.2 603.7 354 603.6C349.9 600.3 345.7 597 341.6 593.8C336.6 589.9 331.7 586 326.7 582C326.4 581.7 326 581.4 326.4 581C326.8 580.6 327.2 580.9 327.5 581.1C329.7 582.9 332 584.6 334.2 586.4C340.5 591.4 346.9 596.4 353.2 601.4C353.9 602 354.6 602.5 355.5 603.2C357.5 600.8 359.4 598.5 361.3 596.1C360.9 595.9 360.7 595.7 360.4 595.6C351.1 590.8 342 585.7 333.3 580C332.9 579.7 332.4 579.5 332.1 579.1C332 579 331.9 578.5 332 578.4C332.2 578.2 332.5 578.2 332.8 578.2C332.9 578.2 333.1 578.4 333.2 578.4C340.6 583.3 348.3 587.8 356.2 592C358.1 593 360 594 362 595.1C363.5 592.6 364.9 590.2 366.4 587.8C366.1 587.7 365.9 587.6 365.8 587.6C363.2 586.7 360.5 585.7 357.9 584.8C352.1 582.6 346.6 580.2 341.2 577.2C340.8 577 340.4 576.7 340.7 576.3C341 575.8 341.4 576 341.8 576.2C349.5 580.5 357.8 583.7 366.2 586.5C366.4 586.6 366.7 586.6 366.9 586.7C368.2 584.6 370.3 578.5 370.3 577C355.6 575.2 341.2 572.9 327.4 567.5ZM307.3 584.8C315.1 580.3 321.4 574.4 326.3 567C325.8 566.8 325.5 566.7 325.2 566.6C323.8 568.4 322.5 570.2 321.1 571.8C317.2 576.3 312.7 580.1 307.5 583.2C306.5 583.8 306.5 583.8 307.3 584.8Z" fill="#337085"/>
<path d="M128.6 152.8C128 152.9 127.4 152.8 127.3 152.1C126.9 149.2 125.3 146.9 123.2 144.9C120.4 142.2 117.1 140 113.5 138.2C112.8 137.8 112.6 137.4 112.7 136.7C113 135.5 113.2 134.2 113.4 133C113.6 132.2 113.7 132.1 114.4 131.9C112.3 129.6 110.1 127.3 108.1 125.1C107.8 125.3 107.4 125.7 107 125.9C106.2 126.3 105.3 126.5 104.4 126.9C104.5 127.2 104.6 127.4 104.7 127.7C106.1 131.4 107.4 135.2 107.7 139.2C107.8 140.6 107.8 142.1 107.3 143.5C107 144.2 106.4 144.4 105.9 144C105.7 143.8 105.5 143.4 105.6 143.2C106.4 140.9 106.1 138.5 105.5 136.2C104.7 133.2 103.6 130.2 102.6 127.2C102.3 126.2 102.4 126 103.3 125.6C104.3 125.2 105.4 124.8 106.4 124.5C106.7 124.4 107.1 124.3 107.5 124.3C107 123.4 106.4 122.5 105.9 121.8C108.1 120.1 110.2 118.5 112.4 116.8C119.8 123.7 127.2 130.6 134.7 137.6C131.2 137.8 127.8 137.5 124.4 136.7C121 135.9 118 134.6 115.3 132.6C115 133.9 114.8 135.1 114.5 136.4C114.4 136.9 114.5 137.2 115 137.4C118.5 139.2 121.7 141.4 124.4 144.1C126.4 146.1 128.1 148.4 128.6 151.2C128.7 151.7 128.7 152.2 128.7 152.6C128.8 152.6 128.7 152.7 128.6 152.8Z" stroke="#337085" stroke-miterlimit="10" stroke-linecap="round" stroke-linejoin="round"/>
<path d="M152.4 130.6C150.8 130.7 149.3 130.2 147.9 129.6C145.2 128.4 143.1 126.6 141.1 124.6C139.1 122.4 137.3 120.1 135.8 117.6C135.6 117.3 135.4 117.2 135 117.3C133.6 117.6 132.2 117.8 130.7 118C133.1 120.9 134.6 124.2 135.4 127.7C136 130.4 136.2 133.2 136 136.1C128.5 129.1 121.1 122.2 113.7 115.3C115.5 113.3 117.2 111.3 119.1 109.3C119.9 109.7 120.9 110.3 121.8 110.8C122.4 109.4 122.9 107.9 123.5 106.4C123.7 105.8 124.3 105.9 124.9 106.1C126.9 106.7 128.9 107.5 130.9 108C133.1 108.5 135.3 108.9 137.5 109.3C139 109.5 140.5 109.5 141.9 109C142.4 108.8 142.9 109 143.1 109.5C143.3 110 143 110.4 142.4 110.6C140.9 111.1 139.4 111.1 137.8 111C133.7 110.7 129.7 109.6 125.8 108.3C125.5 108.2 125.2 108.1 124.9 108H124.8C124 109.1 124.2 110.7 123 111.5C125.4 113.4 127.8 115.4 130.2 117.4C130.2 116.8 130.7 116.6 131.4 116.5C132.8 116.3 134.1 116.1 135.5 115.8C136.2 115.7 136.6 115.9 137 116.5C138.9 119.8 141.1 122.8 144 125.4C145.7 126.9 147.6 128.3 149.9 128.9C150.5 129.1 151.1 129.2 151.6 129.3C152.5 129.4 152.7 129.6 152.7 130.5C152.6 130.4 152.5 130.5 152.4 130.6Z" stroke="#337085" stroke-miterlimit="10" stroke-linecap="round" stroke-linejoin="round"/>
<path d="M83.5 103.6C87.6 101.4 91.6 102.3 95.6 103.8C97.8 104.6 99.8 105.8 101.9 106.8C102.1 106.1 102.6 105.5 103.7 105.3C103.2 104.6 102.7 103.9 102.2 103.2C100.6 100.8 99.5 98.2 98.9 95.5C98.4 93 98.4 90.5 99.9 88.2C100.3 87.9 100.6 87.5 101 87.2C101.5 87 102 87 102.3 87.5C102.6 88 102.3 88.3 101.9 88.6C100.7 89.7 100.3 91.1 100.3 92.6C100.3 95.3 101.1 97.8 102.4 100.2C103.1 101.5 104.1 102.8 104.9 104.1C105.1 104.5 105.3 104.9 105.4 105.3C105.3 105.3 105.3 105.4 105.2 105.4C105.5 105.5 105.8 105.6 106.2 105.7C104.4 106.5 103.1 107.6 102.2 109.4C102 109 101.9 108.7 101.9 108.5C101.9 108.6 101.8 108.6 101.8 108.7C101.3 108.5 100.7 108.3 100.3 108C96.9 105.8 93.3 104.2 89.1 103.9C87.6 103.8 86.1 103.9 84.7 104.7C84.4 104.9 84.1 105.1 83.8 105.4C83.5 105.7 83.1 106 82.6 105.8C82 105.5 82.1 105.1 82.3 104.6C82.8 104.3 83.1 104 83.5 103.6Z" stroke="#337085" stroke-miterlimit="10" stroke-linecap="round" stroke-linejoin="round"/>
<path d="M115.5 107.7C116.1 108 116.8 108.2 117.5 108.5C114.1 112.9 110 116.7 105.3 119.9C105 119.2 104.7 118.6 104.4 118C104.4 117.9 104.3 117.8 104.3 117.7C104 116.3 103.6 115 103.4 113.6C103.3 112.6 103.4 111.6 103.7 110.7C104.4 108.3 106.2 107.1 108.7 106.8C110.6 106.6 112.5 106.9 114.4 107.4C114.6 107.5 114.9 107.5 115.2 107.6C115.3 107.6 115.4 107.7 115.5 107.7Z" stroke="#337085" stroke-miterlimit="10" stroke-linecap="round" stroke-linejoin="round"/>
<path d="M104.3 117.7C104.3 117.8 104.4 117.9 104.4 118C104.1 118.9 103.8 119.1 102.8 118.7C100.8 118 98.8 117.3 96.8 116.6C96.3 116.4 95.9 116.4 95.5 116.6C93 117.7 90.5 118.8 88 119.9C87.7 120 87.1 120.1 86.8 119.9C86.2 119.6 86.4 118.8 87.1 118.5C88.5 117.9 89.9 117.3 91.3 116.7C92.7 116.1 94.1 115.5 95.5 114.9C95.9 114.8 96.3 114.7 96.7 114.9C99 115.6 101.3 116.4 103.5 117.2C103.8 117.4 104 117.6 104.3 117.7Z" stroke="#337085" stroke-miterlimit="10" stroke-linecap="round" stroke-linejoin="round"/>
<path d="M115.5 107.7C115.4 107.7 115.3 107.6 115.2 107.6C115 107.4 114.8 107.1 114.7 106.9C113.9 104.8 113 102.7 112.2 100.5C112.1 100.2 112.1 99.7 112.3 99.4C113.5 96.8 114.8 94.3 116.1 91.8C116.1 91.7 116.2 91.6 116.3 91.5C116.6 91.1 116.9 90.9 117.4 91.1C117.9 91.3 118 91.7 117.8 92.2C117.3 93.3 116.7 94.4 116.1 95.6C115.4 96.9 114.7 98.3 114.1 99.6C114 99.9 113.9 100.3 114.1 100.6C114.8 102.5 115.6 104.4 116.3 106.3C116.6 107.1 116.5 107.4 115.5 107.7Z" stroke="#337085" stroke-miterlimit="10" stroke-linecap="round" stroke-linejoin="round"/>
<path d="M347.2 80.2C346.6 80.3 346 80.2 345.9 79.5C345.5 76.6 343.9 74.3 341.8 72.3C339 69.6 335.7 67.4 332.1 65.6C331.4 65.2 331.2 64.8 331.3 64.1C331.6 62.9 331.8 61.6 332 60.4C332.2 59.6 332.3 59.5 333 59.3C330.9 57 328.7 54.7 326.7 52.5C326.4 52.7 326 53.1 325.6 53.3C324.8 53.7 323.9 53.9 323 54.3C323.1 54.6 323.2 54.8 323.3 55.1C324.7 58.8 326 62.6 326.3 66.6C326.4 68 326.4 69.5 325.9 70.9C325.6 71.6 325 71.8 324.5 71.4C324.3 71.2 324.1 70.8 324.2 70.6C325 68.3 324.7 65.9 324.1 63.6C323.3 60.6 322.2 57.6 321.2 54.6C320.9 53.6 321 53.4 321.9 53C322.9 52.6 324 52.2 325 51.9C325.3 51.8 325.7 51.7 326.1 51.7C325.6 50.8 325 49.9 324.5 49.2C326.7 47.5 328.8 45.9 331 44.2C338.4 51.1 345.8 58 353.3 65C349.8 65.2 346.4 64.9 343 64.1C339.6 63.3 336.6 62 333.9 60C333.6 61.3 333.4 62.5 333.1 63.8C333 64.3 333.1 64.6 333.6 64.8C337.1 66.6 340.3 68.8 343 71.5C345 73.5 346.7 75.8 347.2 78.6C347.3 79.1 347.3 79.6 347.3 80C347.5 79.9 347.4 80 347.2 80.2Z" stroke="#337085" stroke-miterlimit="10" stroke-linecap="round" stroke-linejoin="round"/>
<path d="M371 58C369.4 58.1 367.9 57.6 366.5 57C363.8 55.8 361.7 54 359.7 52C357.7 49.8 355.9 47.5 354.4 45C354.2 44.7 354 44.6 353.6 44.7C352.2 45 350.8 45.2 349.3 45.4C351.7 48.3 353.2 51.6 354 55.1C354.6 57.8 354.8 60.6 354.6 63.5C347.1 56.5 339.7 49.6 332.3 42.7C334.1 40.7 335.8 38.7 337.7 36.7C338.5 37.1 339.5 37.7 340.4 38.2C341 36.8 341.5 35.3 342.1 33.8C342.3 33.2 342.9 33.3 343.5 33.5C345.5 34.1 347.5 34.9 349.5 35.4C351.7 35.9 353.9 36.3 356.1 36.7C357.6 36.9 359.1 36.9 360.5 36.4C361 36.2 361.5 36.4 361.7 36.9C361.9 37.4 361.6 37.8 361 38C359.5 38.5 358 38.5 356.4 38.4C352.3 38.1 348.3 37 344.4 35.7C344.1 35.6 343.8 35.5 343.5 35.4H343.4C342.6 36.5 342.8 38.1 341.6 38.9C344 40.8 346.4 42.8 348.8 44.8C348.8 44.2 349.3 44 350 43.9C351.4 43.7 352.7 43.5 354.1 43.2C354.8 43.1 355.2 43.3 355.6 43.9C357.5 47.2 359.7 50.2 362.6 52.8C364.3 54.3 366.2 55.7 368.5 56.3C369.1 56.5 369.7 56.6 370.2 56.7C371.1 56.8 371.3 57 371.3 57.9C371.3 57.7 371.2 57.9 371 58Z" stroke="#337085" stroke-miterlimit="10" stroke-linecap="round" stroke-linejoin="round"/>
<path d="M302.2 31C306.3 28.8 310.3 29.7 314.3 31.2C316.5 32 318.5 33.2 320.6 34.2C320.8 33.5 321.3 32.9 322.4 32.7C321.9 32 321.4 31.3 320.9 30.6C319.3 28.2 318.2 25.6 317.6 22.9C317.1 20.4 317.1 17.9 318.6 15.6C319 15.3 319.3 14.9 319.7 14.6C320.2 14.4 320.7 14.4 321 14.9C321.3 15.4 321 15.7 320.6 16C319.4 17.1 319 18.5 319 20C319 22.7 319.8 25.2 321.1 27.6C321.8 28.9 322.8 30.2 323.6 31.5C323.8 31.9 324 32.3 324.1 32.7C324 32.7 324 32.8 323.9 32.8C324.2 32.9 324.5 33 324.9 33.1C323.1 33.9 321.8 35 320.9 36.8C320.7 36.4 320.6 36.1 320.6 35.9C320.6 36 320.5 36 320.5 36.1C320 35.9 319.4 35.7 319 35.4C315.6 33.2 312 31.6 307.8 31.3C306.3 31.2 304.8 31.3 303.4 32.1C303.1 32.3 302.8 32.5 302.5 32.8C302.2 33.1 301.8 33.4 301.3 33.2C300.7 32.9 300.8 32.5 301 32C301.4 31.7 301.8 31.3 302.2 31Z" stroke="#337085" stroke-miterlimit="10" stroke-linecap="round" stroke-linejoin="round"/>
<path d="M334.2 35.1C334.8 35.4 335.5 35.6 336.2 35.9C332.8 40.3 328.7 44.1 324 47.3C323.7 46.6 323.4 46 323.1 45.4C323.1 45.3 323 45.2 323 45.1C322.7 43.7 322.3 42.4 322.1 41C322 40 322.1 39 322.4 38.1C323.1 35.7 324.9 34.5 327.4 34.2C329.3 34 331.2 34.3 333.1 34.8C333.3 34.9 333.6 34.9 333.9 35C333.9 35 334 35 334.2 35.1Z" stroke="#337085" stroke-miterlimit="10" stroke-linecap="round" stroke-linejoin="round"/>
<path d="M323 45.1C323 45.2 323.1 45.3 323.1 45.4C322.8 46.3 322.5 46.5 321.5 46.1C319.5 45.4 317.5 44.7 315.5 44C315 43.8 314.6 43.8 314.2 44C311.7 45.1 309.2 46.2 306.7 47.3C306.4 47.4 305.8 47.5 305.5 47.3C304.9 47 305.1 46.2 305.8 45.9C307.2 45.3 308.6 44.7 310 44.1C311.4 43.5 312.8 42.9 314.2 42.3C314.6 42.2 315 42.1 315.4 42.3C317.7 43 320 43.8 322.2 44.6C322.5 44.8 322.7 44.9 323 45.1Z" stroke="#337085" stroke-miterlimit="10" stroke-linecap="round" stroke-linejoin="round"/>
<path d="M334.2 35.1C334.1 35.1 334 35 333.9 35C333.7 34.8 333.5 34.5 333.4 34.3C332.6 32.2 331.7 30.1 330.9 27.9C330.8 27.6 330.8 27.1 331 26.8C332.2 24.2 333.5 21.7 334.8 19.2C334.8 19.1 334.9 19 335 18.9C335.3 18.5 335.6 18.3 336.1 18.5C336.6 18.7 336.7 19.1 336.5 19.6C336 20.7 335.4 21.8 334.8 23C334.1 24.3 333.4 25.7 332.8 27C332.7 27.3 332.6 27.7 332.8 28C333.5 29.9 334.3 31.8 335 33.7C335.3 34.5 335.1 34.8 334.2 35.1Z" stroke="#337085" stroke-miterlimit="10" stroke-linecap="round" stroke-linejoin="round"/>
<path d="M224.9 407.7C224.3 407.8 223.7 407.7 223.6 407C223.2 404.1 221.6 401.8 219.5 399.8C216.7 397.1 213.4 394.9 209.8 393.1C209.1 392.7 208.9 392.3 209 391.6C209.3 390.4 209.5 389.1 209.7 387.9C209.9 387.1 210 387 210.7 386.8C208.6 384.5 206.4 382.2 204.4 380C204.1 380.2 203.7 380.6 203.3 380.8C202.5 381.2 201.6 381.4 200.7 381.8C200.8 382.1 200.9 382.3 201 382.6C202.4 386.3 203.7 390.1 204 394.1C204.1 395.5 204.1 397 203.6 398.4C203.3 399.1 202.7 399.3 202.2 398.9C202 398.7 201.8 398.3 201.9 398.1C202.7 395.8 202.4 393.4 201.8 391.1C201 388.1 199.9 385.1 198.9 382.1C198.6 381.1 198.7 380.9 199.6 380.5C200.6 380.1 201.7 379.7 202.7 379.4C203 379.3 203.4 379.2 203.8 379.2C203.3 378.3 202.7 377.4 202.2 376.7C204.4 375 206.5 373.4 208.7 371.7C216.1 378.6 223.5 385.5 231 392.5C227.5 392.7 224.1 392.4 220.7 391.6C217.3 390.8 214.3 389.5 211.6 387.5C211.3 388.8 211.1 390 210.8 391.3C210.7 391.8 210.8 392.1 211.3 392.3C214.8 394.1 218 396.3 220.7 399C222.7 401 224.4 403.3 224.9 406.1C225 406.6 225 407.1 225 407.5C225.2 407.4 225.1 407.6 224.9 407.7Z" stroke="#337085" stroke-miterlimit="10" stroke-linecap="round" stroke-linejoin="round"/>
<path d="M248.7 385.5C247.1 385.6 245.6 385.1 244.2 384.5C241.5 383.3 239.4 381.5 237.4 379.5C235.4 377.3 233.6 375 232.1 372.5C231.9 372.2 231.7 372.1 231.3 372.2C229.9 372.5 228.5 372.7 227 372.9C229.4 375.8 230.9 379.1 231.7 382.6C232.3 385.3 232.5 388.1 232.3 391C224.8 384 217.4 377.1 210 370.2C211.8 368.2 213.5 366.2 215.4 364.2C216.2 364.6 217.2 365.2 218.1 365.7C218.7 364.3 219.2 362.8 219.8 361.3C220 360.7 220.6 360.8 221.2 361C223.2 361.6 225.2 362.4 227.2 362.9C229.4 363.4 231.6 363.8 233.8 364.2C235.3 364.4 236.8 364.4 238.2 363.9C238.7 363.7 239.2 363.9 239.4 364.4C239.6 364.9 239.3 365.3 238.7 365.5C237.2 366 235.7 366 234.1 365.9C230 365.6 226 364.5 222.1 363.2C221.8 363.1 221.5 363 221.2 362.9H221.1C220.3 364 220.5 365.6 219.3 366.4C221.7 368.3 224.1 370.3 226.5 372.3C226.5 371.7 227 371.5 227.7 371.4C229.1 371.2 230.4 371 231.8 370.7C232.5 370.6 232.9 370.8 233.3 371.4C235.2 374.7 237.4 377.7 240.3 380.3C242 381.8 243.9 383.2 246.2 383.8C246.8 384 247.4 384.1 247.9 384.2C248.8 384.3 249 384.5 249 385.4C249 385.3 248.9 385.4 248.7 385.5Z" stroke="#337085" stroke-miterlimit="10" stroke-linecap="round" stroke-linejoin="round"/>
<path d="M179.9 358.5C184 356.3 188 357.2 192 358.7C194.2 359.5 196.2 360.7 198.3 361.7C198.5 361 199 360.4 200.1 360.2C199.6 359.5 199.1 358.8 198.6 358.1C197 355.7 195.9 353.1 195.3 350.4C194.8 347.9 194.8 345.4 196.3 343.1C196.7 342.8 197 342.4 197.4 342.1C197.9 341.9 198.4 341.9 198.7 342.4C199 342.9 198.7 343.2 198.3 343.5C197.1 344.6 196.7 346 196.7 347.5C196.7 350.2 197.5 352.7 198.8 355.1C199.5 356.4 200.5 357.7 201.3 359C201.5 359.4 201.7 359.8 201.8 360.2C201.7 360.2 201.7 360.3 201.6 360.3C201.9 360.4 202.2 360.5 202.6 360.6C200.8 361.4 199.5 362.5 198.6 364.3C198.4 363.9 198.3 363.6 198.3 363.4C198.3 363.5 198.2 363.5 198.2 363.6C197.7 363.4 197.1 363.2 196.7 362.9C193.3 360.7 189.7 359.1 185.5 358.8C184 358.7 182.5 358.8 181.1 359.6C180.8 359.8 180.5 360 180.2 360.3C179.9 360.6 179.5 360.9 179 360.7C178.4 360.4 178.5 360 178.7 359.5C179.1 359.2 179.5 358.8 179.9 358.5Z" stroke="#337085" stroke-miterlimit="10" stroke-linecap="round" stroke-linejoin="round"/>
<path d="M211.8 362.6C212.4 362.9 213.1 363.1 213.8 363.4C210.4 367.8 206.3 371.6 201.6 374.8C201.3 374.1 201 373.5 200.7 372.9C200.7 372.8 200.6 372.7 200.6 372.6C200.3 371.2 199.9 369.9 199.7 368.5C199.6 367.5 199.7 366.5 200 365.6C200.7 363.2 202.5 362 205 361.7C206.9 361.5 208.8 361.8 210.7 362.3C210.9 362.4 211.2 362.4 211.5 362.5C211.6 362.5 211.7 362.6 211.8 362.6Z" stroke="#337085" stroke-miterlimit="10" stroke-linecap="round" stroke-linejoin="round"/>
<path d="M200.7 372.6C200.7 372.7 200.8 372.8 200.8 372.9C200.5 373.8 200.2 374 199.2 373.6C197.2 372.9 195.2 372.2 193.2 371.5C192.7 371.3 192.3 371.3 191.9 371.5C189.4 372.6 186.9 373.7 184.4 374.8C184.1 374.9 183.5 375 183.2 374.8C182.6 374.5 182.8 373.7 183.5 373.4C184.9 372.8 186.3 372.2 187.7 371.6C189.1 371 190.5 370.4 191.9 369.8C192.3 369.7 192.7 369.6 193.1 369.8C195.4 370.5 197.7 371.3 199.9 372.1C200.1 372.3 200.4 372.5 200.7 372.6Z" stroke="#337085" stroke-miterlimit="10" stroke-linecap="round" stroke-linejoin="round"/>
<path d="M211.8 362.6C211.7 362.6 211.6 362.5 211.5 362.5C211.3 362.3 211.1 362 211 361.8C210.2 359.7 209.3 357.6 208.5 355.4C208.4 355.1 208.4 354.6 208.6 354.3C209.8 351.7 211.1 349.2 212.4 346.7C212.4 346.6 212.5 346.5 212.6 346.4C212.9 346 213.2 345.8 213.7 346C214.2 346.2 214.3 346.6 214.1 347.1C213.6 348.2 213 349.3 212.4 350.5C211.7 351.8 211 353.2 210.4 354.5C210.3 354.8 210.2 355.2 210.4 355.5C211.1 357.4 211.9 359.3 212.6 361.2C213 362 212.8 362.3 211.8 362.6Z" stroke="#337085" stroke-miterlimit="10" stroke-linecap="round" stroke-linejoin="round"/>
<path d="M267.7 525.1C267.1 525.2 266.5 525.1 266.4 524.4C266 521.5 264.4 519.2 262.3 517.2C259.5 514.5 256.2 512.3 252.6 510.5C251.9 510.1 251.7 509.7 251.8 509C252.1 507.8 252.3 506.5 252.5 505.3C252.7 504.5 252.8 504.4 253.5 504.2C251.4 501.9 249.2 499.6 247.2 497.4C246.9 497.6 246.5 498 246.1 498.2C245.3 498.6 244.4 498.8 243.5 499.2C243.6 499.5 243.7 499.7 243.8 500C245.2 503.7 246.5 507.5 246.8 511.5C246.9 512.9 246.9 514.4 246.4 515.8C246.1 516.5 245.5 516.7 245 516.3C244.8 516.1 244.6 515.7 244.7 515.5C245.5 513.2 245.2 510.8 244.6 508.5C243.8 505.5 242.7 502.5 241.7 499.5C241.4 498.5 241.5 498.3 242.4 497.9C243.4 497.5 244.5 497.1 245.5 496.8C245.8 496.7 246.2 496.6 246.6 496.6C246.1 495.7 245.5 494.8 245 494.1C247.2 492.4 249.3 490.8 251.5 489.1C258.9 496 266.3 502.9 273.8 509.9C270.3 510.1 266.9 509.8 263.5 509C260.1 508.2 257.1 506.9 254.4 504.9C254.1 506.2 253.9 507.4 253.6 508.7C253.5 509.2 253.6 509.5 254.1 509.7C257.6 511.5 260.8 513.7 263.5 516.4C265.5 518.4 267.2 520.7 267.7 523.5C267.8 524 267.8 524.5 267.8 524.9C268 524.9 267.8 525 267.7 525.1Z" stroke="#337085" stroke-miterlimit="10" stroke-linecap="round" stroke-linejoin="round"/>
<path d="M291.5 502.9C289.9 503 288.4 502.5 287 501.9C284.3 500.7 282.2 498.9 280.2 496.9C278.2 494.7 276.4 492.4 274.9 489.9C274.7 489.6 274.5 489.5 274.1 489.6C272.7 489.9 271.3 490.1 269.8 490.3C272.2 493.2 273.7 496.5 274.5 500C275.1 502.7 275.3 505.5 275.1 508.4C267.6 501.4 260.2 494.5 252.8 487.6C254.6 485.6 256.3 483.6 258.2 481.6C259 482 260 482.6 260.9 483.1C261.5 481.7 262 480.2 262.6 478.7C262.8 478.1 263.4 478.2 264 478.4C266 479 268 479.8 270 480.3C272.2 480.8 274.4 481.2 276.6 481.6C278.1 481.8 279.6 481.8 281 481.3C281.5 481.1 282 481.3 282.2 481.8C282.4 482.3 282.1 482.7 281.5 482.9C280 483.4 278.5 483.4 276.9 483.3C272.8 483 268.8 481.9 264.9 480.6C264.6 480.5 264.3 480.4 264 480.3H263.9C263.1 481.4 263.3 483 262.1 483.8C264.5 485.7 266.9 487.7 269.3 489.7C269.3 489.1 269.8 488.9 270.5 488.8C271.9 488.6 273.2 488.4 274.6 488.1C275.3 488 275.7 488.2 276.1 488.8C278 492.1 280.2 495.1 283.1 497.7C284.8 499.2 286.7 500.6 289 501.2C289.6 501.4 290.2 501.5 290.7 501.6C291.6 501.7 291.8 501.9 291.8 502.8C291.8 502.7 291.6 502.8 291.5 502.9Z" stroke="#337085" stroke-miterlimit="10" stroke-linecap="round" stroke-linejoin="round"/>
<path d="M222.6 475.9C226.7 473.7 230.7 474.6 234.7 476.1C236.9 476.9 238.9 478.1 241 479.1C241.2 478.4 241.7 477.8 242.8 477.6C242.3 476.9 241.8 476.2 241.3 475.5C239.7 473.1 238.6 470.5 238 467.8C237.5 465.3 237.5 462.8 239 460.5C239.4 460.2 239.7 459.8 240.1 459.5C240.6 459.3 241.1 459.3 241.4 459.8C241.7 460.3 241.4 460.6 241 460.9C239.8 462 239.4 463.4 239.4 464.9C239.4 467.6 240.2 470.1 241.5 472.5C242.2 473.8 243.2 475.1 244 476.4C244.2 476.8 244.4 477.2 244.5 477.6C244.4 477.6 244.4 477.7 244.3 477.7C244.6 477.8 244.9 477.9 245.3 478C243.5 478.8 242.2 479.9 241.3 481.7C241.1 481.3 241 481 241 480.8C241 480.9 240.9 480.9 240.9 481C240.4 480.8 239.8 480.6 239.4 480.3C236 478.1 232.4 476.5 228.2 476.2C226.7 476.1 225.2 476.2 223.8 477C223.5 477.2 223.2 477.4 222.9 477.7C222.6 478 222.2 478.3 221.7 478.1C221.1 477.8 221.2 477.4 221.4 476.9C221.9 476.6 222.3 476.3 222.6 475.9Z" stroke="#337085" stroke-miterlimit="10" stroke-linecap="round" stroke-linejoin="round"/>
<path d="M254.6 480C255.2 480.3 255.9 480.5 256.6 480.8C253.2 485.2 249.1 489 244.4 492.2C244.1 491.5 243.8 490.9 243.5 490.3C243.5 490.2 243.4 490.1 243.4 490C243.1 488.6 242.7 487.3 242.5 485.9C242.4 484.9 242.5 483.9 242.8 483C243.5 480.6 245.3 479.4 247.8 479.1C249.7 478.9 251.6 479.2 253.5 479.7C253.7 479.8 254 479.8 254.3 479.9C254.4 479.9 254.5 480 254.6 480Z" stroke="#337085" stroke-miterlimit="10" stroke-linecap="round" stroke-linejoin="round"/>
<path d="M243.4 490C243.4 490.1 243.5 490.2 243.5 490.3C243.2 491.2 242.9 491.4 241.9 491C239.9 490.3 237.9 489.6 235.9 488.9C235.4 488.7 235 488.7 234.6 488.9C232.1 490 229.6 491.1 227.1 492.2C226.8 492.3 226.2 492.4 225.9 492.2C225.3 491.9 225.5 491.1 226.2 490.8C227.6 490.2 229 489.6 230.4 489C231.8 488.4 233.2 487.8 234.6 487.2C235 487.1 235.4 487 235.8 487.2C238.1 487.9 240.4 488.7 242.6 489.5C242.9 489.7 243.2 489.9 243.4 490Z" stroke="#337085" stroke-miterlimit="10" stroke-linecap="round" stroke-linejoin="round"/>
<path d="M254.6 480C254.5 480 254.4 479.9 254.3 479.9C254.1 479.7 253.9 479.4 253.8 479.2C253 477.1 252.1 475 251.3 472.8C251.2 472.5 251.2 472 251.4 471.7C252.6 469.1 253.9 466.6 255.2 464.1C255.2 464 255.3 463.9 255.4 463.8C255.7 463.4 256 463.2 256.5 463.4C257 463.6 257.1 464 256.9 464.5C256.4 465.6 255.8 466.7 255.2 467.9C254.5 469.2 253.8 470.6 253.2 471.9C253.1 472.2 253 472.6 253.2 472.9C253.9 474.8 254.7 476.7 255.4 478.6C255.7 479.5 255.6 479.8 254.6 480Z" stroke="#337085" stroke-miterlimit="10" stroke-linecap="round" stroke-linejoin="round"/>
<path d="M46.5 655.5C45.9 655.6 45.3 655.5 45.2 654.8C44.8 651.9 43.2 649.6 41.1 647.6C38.3 644.9 35 642.7 31.4 640.9C30.7 640.5 30.5 640.1 30.6 639.4C30.9 638.2 31.1 636.9 31.3 635.7C31.5 634.9 31.6 634.8 32.3 634.6C30.2 632.3 28 630 26 627.8C25.7 628 25.3 628.4 24.9 628.6C24.1 629 23.2 629.2 22.3 629.6C22.4 629.9 22.5 630.1 22.6 630.4C24 634.1 25.3 637.9 25.6 641.9C25.7 643.3 25.7 644.8 25.2 646.2C24.9 646.9 24.3 647.1 23.8 646.7C23.6 646.5 23.4 646.1 23.5 645.9C24.3 643.6 24 641.2 23.4 638.9C22.6 635.9 21.5 632.9 20.5 629.9C20.2 628.9 20.3 628.7 21.2 628.3C22.2 627.9 23.3 627.5 24.3 627.2C24.6 627.1 25 627 25.4 627C24.9 626.1 24.3 625.2 23.8 624.5C26 622.8 28.1 621.2 30.3 619.5C37.8 626 45.2 633 52.8 640C49.3 640.2 45.9 639.9 42.5 639.1C39.1 638.3 36.1001 637 33.4001 635C33.1001 636.3 32.9 637.5 32.6 638.8C32.5 639.3 32.6 639.6 33.1 639.8C36.6 641.6 39.8 643.8 42.5 646.5C44.5 648.5 46.2 650.8 46.7 653.6C46.8 654.1 46.8 654.6 46.8 655C46.7 655.2 46.6 655.4 46.5 655.5Z" stroke="#337085" stroke-miterlimit="10" stroke-linecap="round" stroke-linejoin="round"/>
<path d="M70.2 633.3C68.6 633.4 67.1 632.9 65.7 632.3C63 631.1 60.9 629.3 58.9 627.3C56.9 625.1 55.1 622.8 53.6 620.3C53.4 620 53.2 619.9 52.8 620C51.4 620.3 50 620.5 48.5 620.7C50.9 623.6 52.4 626.9 53.2 630.4C53.8 633.1 54 635.9 53.8 638.8C46.3 631.8 38.9 624.9 31.5 618C33.3 616 35 614 36.9 612C37.7 612.4 38.7 613 39.6 613.5C40.2 612.1 40.7 610.6 41.3 609.1C41.5 608.5 42.1 608.6 42.7 608.8C44.7 609.4 46.7 610.2 48.7 610.7C50.9 611.2 53.1 611.6 55.3 612C56.8 612.2 58.3 612.2 59.7 611.7C60.2 611.5 60.7 611.7 60.9 612.2C61.1 612.7 60.8 613.1 60.2 613.3C58.7 613.8 57.2 613.8 55.6 613.7C51.5 613.4 47.5 612.3 43.6 611C43.3 610.9 43 610.8 42.7 610.7H42.6C41.8 611.8 42 613.4 40.8 614.2C43.2 616.1 45.6 618.1 48 620.1C48 619.5 48.5 619.3 49.2 619.2C50.6 619 51.9 618.8 53.3 618.5C54 618.4 54.4 618.6 54.8 619.2C56.7 622.5 58.9 625.5 61.8 628.1C63.5 629.6 65.4 631 67.7 631.6C68.3 631.8 68.9 631.9 69.4 632C70.3 632.1 70.5 632.3 70.5 633.2C70.5 633 70.4 633.2 70.2 633.3Z" stroke="#337085" stroke-miterlimit="10" stroke-linecap="round" stroke-linejoin="round"/>
<path d="M1.40001 606.3C5.50001 604.1 9.50001 605 13.5 606.5C15.7 607.3 17.7 608.5 19.8 609.5C20 608.8 20.5 608.2 21.6 608C21.1 607.3 20.6 606.6 20.1 605.9C18.5 603.5 17.4 600.9 16.8 598.2C16.3 595.7 16.3 593.2 17.8 590.9C18.2 590.6 18.5 590.2 18.9 589.9C19.4 589.7 19.9 589.7 20.2 590.2C20.5 590.7 20.2 591 19.8 591.3C18.6 592.4 18.2 593.8 18.2 595.3C18.2 598 19 600.5 20.3 602.9C21 604.2 22 605.5 22.8 606.8C23 607.2 23.2 607.6 23.3 608C23.2 608 23.2 608.1 23.1 608.1C23.4 608.2 23.7 608.3 24.1 608.4C22.3 609.2 21 610.3 20.1 612.1C19.9 611.7 19.8 611.4 19.8 611.2C19.8 611.3 19.7 611.3 19.7 611.4C19.2 611.2 18.6 611 18.2 610.7C14.8 608.5 11.2 606.9 7.00001 606.6C5.50001 606.5 4.00001 606.6 2.60001 607.4C2.30001 607.6 2.00001 607.8 1.70001 608.1C1.40001 608.4 1.00001 608.7 0.500011 608.5C-0.0999886 608.2 1.13994e-05 607.8 0.200011 607.3C0.600011 607 1.00001 606.6 1.40001 606.3Z" stroke="#337085" stroke-miterlimit="10" stroke-linecap="round" stroke-linejoin="round"/>
<path d="M33.4 610.4C34 610.7 34.7 610.9 35.4 611.2C32 615.6 27.9 619.4 23.2 622.6C22.9 621.9 22.6 621.3 22.3 620.7C22.3 620.6 22.2 620.5 22.2 620.4C21.9 619 21.5 617.7 21.3 616.3C21.2 615.3 21.3 614.3 21.6 613.4C22.3 611 24.1 609.8 26.6 609.5C28.5 609.3 30.4 609.6 32.3 610.1C32.5 610.2 32.7999 610.2 33.0999 610.3C33.1999 610.3 33.3 610.3 33.4 610.4Z" stroke="#337085" stroke-miterlimit="10" stroke-linecap="round" stroke-linejoin="round"/>
<path d="M22.2 620.4C22.2 620.5 22.3 620.6 22.3 620.7C22 621.6 21.7 621.8 20.7 621.4C18.7 620.7 16.7 620 14.7 619.3C14.2 619.1 13.8 619.1 13.4 619.3C10.9 620.4 8.4 621.5 5.9 622.6C5.6 622.7 5 622.8 4.7 622.6C4.1 622.3 4.3 621.5 5 621.2C6.4 620.6 7.8 620 9.2 619.4C10.6 618.8 12 618.2 13.4 617.6C13.8 617.5 14.2 617.4 14.6 617.6C16.9 618.3 19.2 619.1 21.4 619.9C21.7 620.1 21.9 620.3 22.2 620.4Z" stroke="#337085" stroke-miterlimit="10" stroke-linecap="round" stroke-linejoin="round"/>
<path d="M33.4 610.4C33.3 610.4 33.2 610.3 33.1 610.3C32.9 610.1 32.7 609.8 32.6 609.6C31.8 607.5 30.9 605.4 30.1 603.2C30 602.9 30 602.4 30.2 602.1C31.4 599.5 32.7 597 34 594.5C34 594.4 34.1 594.3 34.2 594.2C34.5 593.8 34.8 593.6 35.3 593.8C35.8 594 35.9 594.4 35.7 594.9C35.2 596 34.6 597.1 34 598.3C33.3 599.6 32.6 601 32 602.3C31.9 602.6 31.8 603 32 603.3C32.7 605.2 33.5 607.1 34.2 609C34.5 609.8 34.3 610.1 33.4 610.4Z" stroke="#337085" stroke-miterlimit="10" stroke-linecap="round" stroke-linejoin="round"/>
<path d="M47.6 844C47 844.1 46.4 844 46.3 843.3C45.9 840.4 44.3 838.1 42.2 836.1C39.4 833.4 36.1 831.2 32.5 829.4C31.8 829 31.6 828.6 31.7 827.9C32 826.7 32.2 825.4 32.4 824.2C32.6 823.4 32.7 823.3 33.4 823.1C31.3 820.8 29.1 818.5 27.1 816.3C26.8 816.5 26.4 816.9 26 817.1C25.2 817.5 24.3 817.7 23.4 818.1C23.5 818.4 23.6 818.6 23.7 818.9C25.1 822.6 26.4 826.4 26.7 830.4C26.8 831.8 26.8 833.3 26.3 834.7C26 835.4 25.4 835.6 24.9 835.2C24.7 835 24.5 834.6 24.6 834.4C25.4 832.1 25.1 829.7 24.5 827.4C23.7 824.4 22.6 821.4 21.6 818.4C21.3 817.4 21.4 817.2 22.3 816.8C23.3 816.4 24.4 816 25.4 815.7C25.7 815.6 26.1 815.5 26.5 815.5C26 814.6 25.4 813.7 24.9 813C27.1 811.3 29.2 809.7 31.4 808C38.8 814.9 46.2 821.8 53.7 828.8C50.2 829 46.8 828.7 43.4 827.9C40 827.1 37 825.8 34.3 823.8C34 825.1 33.8 826.3 33.5 827.6C33.4 828.1 33.5 828.4 34 828.6C37.5 830.4 40.7 832.6 43.4 835.3C45.4 837.3 47.1 839.6 47.6 842.4C47.7 842.9 47.7 843.4 47.7 843.8C47.9 843.7 47.8 843.9 47.6 844Z" stroke="#337085" stroke-miterlimit="10" stroke-linecap="round" stroke-linejoin="round"/>
<path d="M71.4001 821.8C69.8001 821.9 68.3001 821.4 66.9001 820.8C64.2001 819.6 62.1001 817.8 60.1001 815.8C58.1001 813.6 56.3001 811.3 54.8001 808.8C54.6001 808.5 54.4001 808.4 54.0001 808.5C52.6001 808.8 51.2001 809 49.7001 809.2C52.1001 812.1 53.6001 815.4 54.4001 818.9C55.0001 821.6 55.2001 824.4 55.0001 827.3C47.5001 820.3 40.1001 813.4 32.7001 806.5C34.5001 804.5 36.2001 802.5 38.1001 800.5C38.9001 800.9 39.9001 801.5 40.8001 802C41.4001 800.6 41.9001 799.1 42.5001 797.6C42.7001 797 43.3001 797.1 43.9001 797.3C45.9001 797.9 47.9001 798.7 49.9001 799.2C52.1001 799.7 54.3001 800.1 56.5001 800.5C58.0001 800.7 59.5001 800.7 60.9001 800.2C61.4001 800 61.9001 800.2 62.1001 800.7C62.3001 801.2 62.0001 801.6 61.4001 801.8C59.9001 802.3 58.4001 802.3 56.8001 802.2C52.7001 801.9 48.7001 800.8 44.8001 799.5C44.5001 799.4 44.2001 799.3 43.9001 799.2H43.8001C43.0001 800.3 43.2001 801.9 42.0001 802.7C44.4001 804.6 46.8001 806.6 49.2001 808.6C49.2001 808 49.7001 807.8 50.4001 807.7C51.8001 807.5 53.1001 807.3 54.5001 807C55.2001 806.9 55.6001 807.1 56.0001 807.7C57.9001 811 60.1001 814 63.0001 816.6C64.7001 818.1 66.6001 819.5 68.9001 820.1C69.5001 820.3 70.1001 820.4 70.6001 820.5C71.5001 820.6 71.7001 820.8 71.7001 821.7C71.7001 821.5 71.6001 821.7 71.4001 821.8Z" stroke="#337085" stroke-miterlimit="10" stroke-linecap="round" stroke-linejoin="round"/>
<path d="M2.60008 794.8C6.70008 792.6 10.7001 793.5 14.7001 795C16.9001 795.8 18.9001 797 21.0001 798C21.2001 797.3 21.7001 796.7 22.8001 796.5C22.3001 795.8 21.8001 795.1 21.3001 794.4C19.7001 792 18.6001 789.4 18.0001 786.7C17.5001 784.2 17.5001 781.7 19.0001 779.4C19.4001 779.1 19.7001 778.7 20.1001 778.4C20.6001 778.2 21.1001 778.2 21.4001 778.7C21.7001 779.2 21.4001 779.5 21.0001 779.8C19.8001 780.9 19.4001 782.3 19.4001 783.8C19.4001 786.5 20.2001 789 21.5001 791.4C22.2001 792.7 23.2001 794 24.0001 795.3C24.2001 795.7 24.4001 796.1 24.5001 796.5C24.4001 796.5 24.4001 796.6 24.3001 796.6C24.6001 796.7 24.9001 796.8 25.3001 796.9C23.5001 797.7 22.2001 798.8 21.3001 800.6C21.1001 800.2 21.0001 799.9 21.0001 799.7C21.0001 799.8 20.9001 799.8 20.9001 799.9C20.4001 799.7 19.8001 799.5 19.4001 799.2C16.0001 797 12.4001 795.4 8.20008 795.1C6.70008 795 5.20008 795.1 3.80008 795.9C3.50008 796.1 3.20008 796.3 2.90008 796.6C2.60008 796.9 2.20008 797.2 1.70008 797C1.10008 796.7 1.20008 796.3 1.40008 795.8C1.80008 795.5 2.20008 795.1 2.60008 794.8Z" stroke="#337085" stroke-miterlimit="10" stroke-linecap="round" stroke-linejoin="round"/>
<path d="M34.6 798.9C35.2 799.2 35.9 799.4 36.6 799.7C33.2 804.1 29.1 807.9 24.4 811.1C24.1 810.4 23.8 809.8 23.5 809.2C23.5 809.1 23.4 809 23.4 808.9C23.1 807.5 22.7 806.2 22.5 804.8C22.4 803.8 22.5 802.8 22.8 801.9C23.5 799.5 25.3 798.3 27.8 798C29.7 797.8 31.6 798.1 33.5 798.6C33.7 798.7 34 798.7 34.3 798.8C34.3 798.8 34.4 798.8 34.6 798.9Z" stroke="#337085" stroke-miterlimit="10" stroke-linecap="round" stroke-linejoin="round"/>
<path d="M23.4001 808.9C23.4001 809 23.5001 809.1 23.5001 809.2C23.2001 810.1 22.9001 810.3 21.9001 809.9C19.9001 809.2 17.9001 808.5 15.9001 807.8C15.4001 807.6 15.0001 807.6 14.6001 807.8C12.1001 808.9 9.60007 810 7.10007 811.1C6.80007 811.2 6.20007 811.3 5.90007 811.1C5.30007 810.8 5.50007 810 6.20007 809.7C7.60007 809.1 9.00007 808.5 10.4001 807.9C11.8001 807.3 13.2001 806.7 14.6001 806.1C15.0001 806 15.4001 805.9 15.8001 806.1C18.1001 806.8 20.4001 807.6 22.6001 808.4C22.9001 808.6 23.1001 808.8 23.4001 808.9Z" stroke="#337085" stroke-miterlimit="10" stroke-linecap="round" stroke-linejoin="round"/>
<path d="M34.6001 798.9C34.5001 798.9 34.4001 798.8 34.3001 798.8C34.1001 798.6 33.9001 798.3 33.8001 798.1C33.0001 796 32.1001 793.9 31.3001 791.7C31.2001 791.4 31.2001 790.9 31.4001 790.6C32.6001 788 33.9001 785.5 35.2001 783C35.2001 782.9 35.3001 782.8 35.4001 782.7C35.7001 782.3 36.0001 782.1 36.5001 782.3C37.0001 782.5 37.1001 782.9 36.9001 783.4C36.4001 784.5 35.8001 785.6 35.2001 786.8C34.5001 788.1 33.8001 789.5 33.2001 790.8C33.1001 791.1 33.0001 791.5 33.2001 791.8C33.9001 793.7 34.7001 795.6 35.4001 797.5C35.7001 798.3 35.5001 798.6 34.6001 798.9Z" stroke="#337085" stroke-miterlimit="10" stroke-linecap="round" stroke-linejoin="round"/>
<path d="M324 747.8C323.4 747.9 322.8 747.8 322.7 747.1C322.3 744.2 320.7 741.9 318.6 739.9C315.8 737.2 312.5 735 308.9 733.2C308.2 732.8 308 732.4 308.1 731.7C308.4 730.5 308.6 729.2 308.8 728C309 727.2 309.1 727.1 309.8 726.9C307.7 724.6 305.5 722.3 303.5 720.1C303.2 720.3 302.8 720.7 302.4 720.9C301.6 721.3 300.7 721.5 299.8 721.9C299.9 722.2 300 722.4 300.1 722.7C301.5 726.4 302.8 730.2 303.1 734.2C303.2 735.6 303.2 737.1 302.7 738.5C302.4 739.2 301.8 739.4 301.3 739C301.1 738.8 300.9 738.4 301 738.2C301.8 735.9 301.5 733.5 300.9 731.2C300.1 728.2 299 725.2 298 722.2C297.7 721.2 297.8 721 298.7 720.6C299.7 720.2 300.8 719.8 301.8 719.5C302.1 719.4 302.5 719.3 302.9 719.3C302.4 718.4 301.8 717.5 301.3 716.8C303.5 715.1 305.6 713.5 307.8 711.8C315.2 718.7 322.6 725.6 330.1 732.6C326.6 732.8 323.2 732.5 319.8 731.7C316.4 730.9 313.4 729.6 310.7 727.6C310.4 728.9 310.2 730.1 309.9 731.4C309.8 731.9 309.9 732.2 310.4 732.4C313.9 734.2 317.1 736.4 319.8 739.1C321.8 741.1 323.5 743.4 324 746.2C324.1 746.7 324.1 747.2 324.1 747.6C324.3 747.6 324.1 747.7 324 747.8Z" stroke="#337085" stroke-miterlimit="10" stroke-linecap="round" stroke-linejoin="round"/>
<path d="M347.8 725.6C346.2 725.7 344.7 725.2 343.3 724.6C340.6 723.4 338.5 721.6 336.5 719.6C334.5 717.4 332.7 715.1 331.2 712.6C331 712.3 330.8 712.2 330.4 712.3C329 712.6 327.6 712.8 326.1 713C328.5 715.9 330 719.2 330.8 722.7C331.4 725.4 331.6 728.2 331.4 731.1C323.9 724.1 316.5 717.2 309.1 710.3C310.9 708.3 312.6 706.3 314.5 704.3C315.3 704.7 316.3 705.3 317.2 705.8C317.8 704.4 318.3 702.9 318.9 701.4C319.1 700.8 319.7 700.9 320.3 701.1C322.3 701.7 324.3 702.5 326.3 703C328.5 703.5 330.7 703.9 332.9 704.3C334.4 704.5 335.9 704.5 337.3 704C337.8 703.8 338.3 704 338.5 704.5C338.7 705 338.4 705.4 337.8 705.6C336.3 706.1 334.8 706.1 333.2 706C329.1 705.7 325.1 704.6 321.2 703.3C320.9 703.2 320.6 703.1 320.3 703H320.2C319.4 704.1 319.6 705.7 318.4 706.5C320.8 708.4 323.2 710.4 325.6 712.4C325.6 711.8 326.1 711.6 326.8 711.5C328.2 711.3 329.5 711.1 330.9 710.8C331.6 710.7 332 710.9 332.4 711.5C334.3 714.8 336.5 717.8 339.4 720.4C341.1 721.9 343 723.3 345.3 723.9C345.9 724.1 346.5 724.2 347 724.3C347.9 724.4 348.1 724.6 348.1 725.5C348 725.4 347.9 725.5 347.8 725.6Z" stroke="#337085" stroke-miterlimit="10" stroke-linecap="round" stroke-linejoin="round"/>
<path d="M278.9 698.6C283 696.4 287 697.3 291 698.8C293.2 699.6 295.2 700.8 297.3 701.8C297.5 701.1 298 700.5 299.1 700.3C298.6 699.6 298.1 698.9 297.6 698.2C296 695.8 294.9 693.2 294.3 690.5C293.8 688 293.8 685.5 295.3 683.2C295.7 682.9 296 682.5 296.4 682.2C296.9 682 297.4 682 297.7 682.5C298 683 297.7 683.3 297.3 683.6C296.1 684.7 295.7 686.1 295.7 687.6C295.7 690.3 296.5 692.8 297.8 695.2C298.5 696.5 299.5 697.8 300.3 699.1C300.5 699.5 300.7 699.9 300.8 700.3C300.7 700.3 300.7 700.4 300.6 700.4C300.9 700.5 301.2 700.6 301.6 700.7C299.8 701.5 298.5 702.6 297.6 704.4C297.4 704 297.3 703.7 297.3 703.5C297.3 703.6 297.2 703.6 297.2 703.7C296.7 703.5 296.1 703.3 295.7 703C292.3 700.8 288.7 699.2 284.5 698.9C283 698.8 281.5 698.9 280.1 699.7C279.8 699.9 279.5 700.1 279.2 700.4C278.9 700.7 278.5 701 278 700.8C277.4 700.5 277.5 700.1 277.7 699.6C278.2 699.3 278.5 699 278.9 698.6Z" stroke="#337085" stroke-miterlimit="10" stroke-linecap="round" stroke-linejoin="round"/>
<path d="M310.9 702.7C311.5 703 312.2 703.2 312.9 703.5C309.5 707.9 305.4 711.7 300.7 714.9C300.4 714.2 300.1 713.6 299.8 713C299.8 712.9 299.7 712.8 299.7 712.7C299.4 711.3 299 710 298.8 708.6C298.7 707.6 298.8 706.6 299.1 705.7C299.8 703.3 301.6 702.1 304.1 701.8C306 701.6 307.9 701.9 309.8 702.4C310 702.5 310.3 702.5 310.6 702.6C310.7 702.7 310.8 702.7 310.9 702.7Z" stroke="#337085" stroke-miterlimit="10" stroke-linecap="round" stroke-linejoin="round"/>
<path d="M299.7 712.8C299.7 712.9 299.8 713 299.8 713.1C299.5 714 299.2 714.2 298.2 713.8C296.2 713.1 294.2 712.4 292.2 711.7C291.7 711.5 291.3 711.5 290.9 711.7C288.4 712.8 285.9 713.9 283.4 715C283.1 715.1 282.5 715.2 282.2 715C281.6 714.7 281.8 713.9 282.5 713.6C283.9 713 285.3 712.4 286.7 711.8C288.1 711.2 289.5 710.6 290.9 710C291.3 709.9 291.7 709.8 292.1 710C294.4 710.7 296.7 711.5 298.9 712.3C299.2 712.4 299.5 712.6 299.7 712.8Z" stroke="#337085" stroke-miterlimit="10" stroke-linecap="round" stroke-linejoin="round"/>
<path d="M310.9 702.7C310.8 702.7 310.7 702.6 310.6 702.6C310.4 702.4 310.2 702.1 310.1 701.9C309.3 699.8 308.4 697.7 307.6 695.5C307.5 695.2 307.5 694.7 307.7 694.4C308.9 691.8 310.2 689.3 311.5 686.8C311.5 686.7 311.6 686.6 311.7 686.5C312 686.1 312.3 685.9 312.8 686.1C313.3 686.3 313.4 686.7 313.2 687.2C312.7 688.3 312.1 689.4 311.5 690.6C310.8 691.9 310.1 693.3 309.5 694.6C309.4 694.9 309.3 695.3 309.5 695.6C310.2 697.5 311 699.4 311.7 701.3C312 702.2 311.9 702.5 310.9 702.7Z" stroke="#337085" stroke-miterlimit="10" stroke-linecap="round" stroke-linejoin="round"/>
<path d="M193.6 10C193.5 12.9 193.3 15.9 193.2 18.8C193.1 20.8 193.2 22.9 193.2 24.9C193.2 25.3 193.3 25.8 193.4 26.6C194.6 25.6 195.6 24.8 196.5 24.1C196.6 24.2 196.7 24.2 196.9 24.3C196.8 24.6 196.7 25.1 196.5 25.3C194.4 27.2 192.3 29.1 190.2 31.1C189.1 32.1 188.7 31.3 188.4 30.5C185.9 24.6 184.3 18.5 183.1 12.2C182.6 9.7 182.3 7.2 181.8 4.8C181.7 4.3 181.2 3.8 180.8 3.3C180.3 3.7 179.6 4 179.4 4.6C177.9 8.2 177.5 11.9 177.6 15.7C177.6 16.2 177.8 16.7 178 17.1C180.9 22.1 183.9 27.1 186.9 32.1C187.5 33.1 187.5 33.7 186.6 34.5C183.3 37.4 180 40.4 176.8 43.4C175.9 44.2 175.4 44.1 174.5 43.3C170.7 39.8 166.7 36.5 162.9 32.9C157.7 28 151.3 27 144.4 27.1C143.2 27.1 141.9 27.2 140.8 27.5C140.3 27.6 139.8 28.2 139.3 28.5C139.7 28.9 140.1 29.5 140.6 29.7C146.6 32.1 152.8 34.1 158.6 36.8C163.6 39.1 168.1 42.2 172.9 44.9C174 45.5 173.7 46 173 46.8C171.7 48.3 170.4 48.3 168.6 47.7C166.1 46.8 163.4 46.1 160.8 45.3C159.4 44.9 158.1 44.8 156.8 45.3C154.5 46.2 152.2 47.1 149.9 47.9C149.7 48 149.4 48.1 149.3 48.2C149 48.7 148.7 49.2 148.5 49.7C149 49.9 149.5 50.2 150 50.2C153 50.2 156 50 158.9 50C161.5 50 164.1 50.1 166.7 50.2C167.1 50.2 167.6 50.5 168 50.7C167.8 51.1 167.7 51.5 167.4 51.8C166 53.1 164.6 54.4 163.2 55.6C162.9 55.9 162.4 56 162 56.2C161.9 56 161.7 55.9 161.6 55.7C163 54.4 164.5 53.1 165.9 51.7C165.8 51.5 165.7 51.4 165.7 51.2C164.3 51.1 162.8 51 161.4 51C157.7 51 154 51.1 150.3 51.2C148.9 51.2 147.7 51.1 147.2 49.7C146.7 48.3 147.7 47.5 148.9 46.9C150.7 46.1 152.5 45.3 154.3 44.5C154.7 44.3 155.1 44.2 155.5 44C155.5 43.9 155.5 43.7 155.5 43.6C155 43.4 154.6 43.2 154.1 43.1C150.3 42.4 146.4 41.7 142.6 41.1C141.2 40.9 140.1 40.5 140 39C139.9 37.6 141 36.9 142.2 36.7C144.6 36.2 147 35.7 149.4 35.3C150.1 35.2 150.7 35.2 151.4 35.1C151.5 35 151.5 34.9 151.6 34.7C151.2 34.4 150.8 34.1 150.3 33.9C146.9 32.7 143.6 31.5 140.2 30.3C139 29.9 137.9 29.4 138 28C138 26.8 138.9 26.2 140.6 25.9C144.4 25.3 148.2 25.6 152 26.3C152.6 26.4 153.1 26.5 153.9 26.2C153.6 25.9 153.3 25.5 152.9 25.3C150.1 23.5 147.2 21.8 144.3 20.1C142.9 19.3 142.2 18.5 142.4 16.9C142.8 16.5 143.2 16.1 143.7 15.8C149.3 15.6 154.3 17.9 159.7 19.6C159.4 18.8 159.2 18.4 159.1 18C158.2 15.1 157.1 12.2 156.4 9.3C156 7.7 156.4 5.9 156.4 4.2C156.7 3.9 157 3.7 157.2 3.4C158.8 3 159.8 3.6 160.6 5C162.2 7.6 163.9 10.2 165.5 12.7C165.7 13 166.1 13.3 166.4 13.6C166.7 13 166.7 12.5 166.6 12C166.1 8.6 165.9 5.3 166.6 1.9C166.8 0.7 167.4 -0.2 168.8 -0.2C170.2 -0.3 170.8 0.6 171.2 1.7C172.4 4.9 173.7 8.1 174.9 11.3C175.1 11.7 175.3 12 175.5 12.4C175.6 12.4 175.8 12.4 175.9 12.3C176 11.8 176.1 11.4 176.2 11C176.8 8.6 177.3 6.2 177.9 3.8C178.2 2.6 179 1.7 180.5 1.9C182 2.1 182.4 3.1 182.6 4.3C183.2 7.9 183.9 11.6 184.6 15.2C184.7 15.6 184.9 16.1 185.1 16.5C185.2 16.5 185.4 16.5 185.5 16.5C185.7 16.1 185.9 15.7 186.1 15.4C187 13.7 187.9 12 188.8 10.3C189.5 8.9 190.7 8.4 192.3 8.8C192.9 9.3 193.2 9.7 193.6 10ZM180.6 38.3C181.3 37.6 182 36.9 182.8 36.3C183.8 35.5 183.7 35 182.8 34.1C179.7 31.1 176.5 28 173.6 24.8C168.3 18.8 163.8 12.4 159.8 5.6C159.5 5.1 158.8 4.9 158.3 4.6C158 5.2 157.3 5.7 157.4 6.2C157.8 8.9 158 11.8 158.9 14.4C162.5 24.5 169.2 32.8 176.8 40.5C177.3 41 177.7 41 178.3 40.5C179 39.8 179.8 39.1 180.6 38.3ZM179.8 30.2C179.9 30.1 180 30.1 180.1 30C181.4 31.3 182.7 32.6 184.1 33.8C184.3 34 185.1 34 185.3 33.8C185.6 33.6 185.6 33 185.6 32.7C185.6 32.4 185.2 32.1 185 31.8C181.8 26.3 178.3 21 175.4 15.3C173.3 11.1 172 6.6 170.2 2.3C170 1.8 169.5 1.5 169.1 1.1C168.7 1.5 168.3 1.9 167.9 2.3C167.8 2.4 167.8 2.6 167.8 2.8C166.8 7.8 167.9 12.7 169.2 17.5C169.3 17.7 169.5 18 169.7 18.2C173.1 22.2 176.5 26.2 179.8 30.2ZM175.7 42.6C175.9 42.5 176.1 42.4 176.3 42.3C176.1 41.9 176 41.4 175.6 41C170.2 35.3 165.2 29.3 161.2 22.5C161 22.1 160.7 21.7 160.3 21.5C155.8 19.2 151 17.5 145.8 17.1C145 17 144 16.8 143.7 17.8C143.3 18.8 144.3 19.1 145 19.5C155.8 25.6 165.8 32.7 174.4 41.3C174.8 41.8 175.2 42.2 175.7 42.6ZM172 45.9C171.7 45.6 171.4 45.2 171 44.9C166.2 42.2 161.3 39.5 156.5 36.9C156.1 36.7 155.6 36.5 155.1 36.5C151 36.4 146.9 36.6 143 37.9C142.4 38.1 141.9 38.8 141.4 39.2C142 39.6 142.5 40.2 143.2 40.3C152.3 41.6 161.2 43.7 169.9 46.7C170.8 47 171.4 46.9 172 45.9ZM189.5 29.5C189.7 29.6 189.9 29.6 190.1 29.7C190.7 28.9 191.8 28 191.9 27.2C192.2 21.9 192.3 16.7 192.4 11.4C192.4 11 192.1 10.4 191.8 10.3C191.5 10.2 190.8 10.4 190.6 10.7C190 11.5 189.4 12.4 188.9 13.2C186.6 17 185.8 21 187.9 25.1C188.5 26.5 188.9 28 189.5 29.5Z" fill="#337085"/>
<path d="M70.3001 161.4C70.2001 164.3 70.0001 167.3 69.9001 170.2C69.8001 172.2 69.9001 174.3 69.9001 176.3C69.9001 176.7 70.0001 177.2 70.1001 178C71.3001 177 72.3001 176.2 73.2001 175.5C73.3001 175.6 73.4001 175.6 73.6001 175.7C73.5001 176 73.4001 176.5 73.2001 176.7C71.1001 178.6 69.0001 180.5 66.9001 182.5C65.8001 183.5 65.4001 182.7 65.1001 181.9C62.6001 176 61.0001 169.9 59.8001 163.6C59.3001 161.1 59.0001 158.6 58.5001 156.2C58.4001 155.7 57.9001 155.2 57.5001 154.7C57.0001 155.1 56.3001 155.4 56.1001 156C54.6001 159.6 54.2001 163.3 54.3001 167.1C54.3001 167.6 54.5001 168.1 54.7001 168.5C57.6001 173.5 60.6001 178.5 63.6001 183.5C64.2001 184.5 64.2001 185.1 63.3001 185.9C60.0001 188.8 56.7001 191.8 53.5001 194.8C52.6001 195.6 52.1001 195.5 51.2001 194.7C47.4001 191.2 43.4001 187.9 39.6001 184.3C34.4001 179.4 28.0001 178.4 21.1001 178.5C19.9001 178.5 18.6001 178.6 17.5001 178.9C17.0001 179 16.5001 179.6 16.0001 179.9C16.4001 180.3 16.8001 180.9 17.3001 181.1C23.3001 183.5 29.5001 185.5 35.3001 188.2C40.3001 190.5 44.8001 193.6 49.6001 196.3C50.7001 196.9 50.4001 197.4 49.7001 198.2C48.4001 199.7 47.1001 199.7 45.3001 199.1C42.8001 198.2 40.1001 197.5 37.5001 196.7C36.1001 196.3 34.8001 196.2 33.5001 196.7C31.2001 197.6 28.9001 198.5 26.6001 199.3C26.4001 199.4 26.1001 199.5 26.0001 199.6C25.7001 200.1 25.4001 200.6 25.2001 201.1C25.7001 201.3 26.2001 201.6 26.7001 201.6C29.7001 201.6 32.7001 201.4 35.6001 201.4C38.2001 201.4 40.8001 201.5 43.4001 201.6C43.8001 201.6 44.3001 201.9 44.7001 202.1C44.5001 202.5 44.4001 202.9 44.1001 203.2C42.7001 204.5 41.3001 205.8 39.9001 207C39.6001 207.3 39.1001 207.4 38.7001 207.6C38.6001 207.4 38.4001 207.3 38.3001 207.1C39.7001 205.8 41.2001 204.5 42.6001 203.1C42.5001 202.9 42.4001 202.8 42.4001 202.6C41.0001 202.5 39.5001 202.4 38.1001 202.4C34.4001 202.4 30.7001 202.5 27.0001 202.6C25.6001 202.6 24.4001 202.5 23.9001 201.1C23.4001 199.7 24.4001 198.9 25.6001 198.3C27.4001 197.5 29.2001 196.7 31.0001 195.9C31.4001 195.7 31.8001 195.6 32.2001 195.4C32.2001 195.3 32.2001 195.1 32.2001 195C31.7001 194.8 31.3001 194.6 30.8001 194.5C27.0001 193.8 23.1001 193.1 19.3001 192.5C17.9001 192.3 16.8001 191.9 16.7001 190.4C16.6001 189 17.7001 188.3 18.9001 188.1C21.3001 187.6 23.7001 187.1 26.1001 186.7C26.8001 186.6 27.4001 186.6 28.1001 186.5C28.2001 186.4 28.2001 186.3 28.3001 186.1C27.9001 185.8 27.5001 185.5 27.0001 185.3C23.6001 184.1 20.3001 182.9 16.9001 181.7C15.7001 181.3 14.6001 180.8 14.7001 179.4C14.7001 178.2 15.6001 177.6 17.3001 177.3C21.1001 176.7 24.9001 177 28.7001 177.7C29.3001 177.8 29.8001 177.9 30.6001 177.6C30.3001 177.3 30.0001 176.9 29.6001 176.7C26.8001 174.9 23.9001 173.2 21.0001 171.5C19.6001 170.7 18.9001 169.9 19.1001 168.3C19.5001 167.9 19.9001 167.5 20.4001 167.2C26.0001 167 31.0001 169.3 36.4001 171C36.1001 170.2 35.9001 169.8 35.8001 169.4C34.9001 166.5 33.8001 163.6 33.1001 160.7C32.7001 159.1 33.1001 157.3 33.1001 155.6C33.4001 155.3 33.7001 155.1 33.9001 154.8C35.5001 154.4 36.5001 155 37.3001 156.4C38.9001 159 40.6001 161.6 42.2001 164.1C42.4001 164.4 42.8001 164.7 43.1001 165C43.4001 164.4 43.4001 163.9 43.3001 163.4C42.8001 160 42.6001 156.7 43.3001 153.3C43.5001 152.1 44.1001 151.2 45.5001 151.2C46.9001 151.1 47.5001 152 47.9001 153.1C49.1001 156.3 50.4001 159.5 51.6001 162.7C51.8001 163.1 52.0001 163.4 52.2001 163.8C52.3001 163.8 52.5001 163.8 52.6001 163.7C52.7001 163.2 52.8001 162.8 52.9001 162.4C53.5001 160 54.0001 157.6 54.6001 155.2C54.9001 154 55.7001 153.1 57.2001 153.3C58.7001 153.5 59.1001 154.5 59.3001 155.7C59.9001 159.3 60.6001 163 61.3001 166.6C61.4001 167 61.6001 167.5 61.8001 167.9C61.9001 167.9 62.1001 167.9 62.2001 167.9C62.4001 167.5 62.6001 167.1 62.8001 166.8C63.7001 165.1 64.6001 163.4 65.5001 161.7C66.2001 160.3 67.4001 159.8 69.0001 160.2C69.6001 160.8 70.0001 161.1 70.3001 161.4ZM57.3001 189.8C58.0001 189.1 58.7001 188.4 59.5001 187.8C60.5001 187 60.4001 186.5 59.5001 185.6C56.4001 182.6 53.2001 179.5 50.3001 176.3C45.0001 170.3 40.5001 163.9 36.5001 157.1C36.2001 156.6 35.5001 156.4 35.0001 156.1C34.7001 156.7 34.0001 157.2 34.1001 157.7C34.5001 160.4 34.7001 163.3 35.6001 165.9C39.2001 176 45.9001 184.3 53.5001 192C54.0001 192.5 54.4001 192.5 55.0001 192C55.7001 191.2 56.5001 190.5 57.3001 189.8ZM56.6001 181.7C56.7001 181.6 56.8001 181.6 56.9001 181.5C58.2001 182.8 59.5001 184.1 60.9001 185.3C61.1001 185.5 61.9001 185.5 62.1001 185.3C62.4001 185.1 62.4001 184.5 62.4001 184.2C62.4001 183.9 62.0001 183.6 61.8001 183.3C58.6001 177.8 55.1001 172.5 52.2001 166.8C50.1001 162.6 48.8001 158.1 47.0001 153.8C46.8001 153.3 46.3001 153 45.9001 152.6C45.5001 153 45.1001 153.4 44.7001 153.8C44.6001 153.9 44.6001 154.1 44.6001 154.3C43.6001 159.3 44.7001 164.2 46.0001 169C46.1001 169.2 46.3001 169.5 46.5001 169.7C49.8001 173.6 53.2001 177.6 56.6001 181.7ZM52.4001 194C52.6001 193.9 52.8001 193.8 53.0001 193.7C52.8001 193.3 52.7001 192.8 52.3001 192.4C46.9001 186.7 41.9001 180.7 37.9001 173.9C37.7001 173.5 37.4001 173.1 37.0001 172.9C32.5001 170.6 27.7001 168.9 22.5001 168.5C21.7001 168.4 20.7001 168.2 20.4001 169.2C20.0001 170.2 21.0001 170.5 21.7001 170.9C32.5001 177 42.5001 184.1 51.1001 192.7C51.5001 193.2 52.0001 193.6 52.4001 194ZM48.7001 197.3C48.4001 197 48.1001 196.6 47.7001 196.3C42.9001 193.6 38.0001 190.9 33.2001 188.3C32.8001 188.1 32.3001 187.9 31.8001 187.9C27.7001 187.8 23.6001 188 19.7001 189.3C19.1001 189.5 18.6001 190.2 18.1001 190.6C18.7001 191 19.2001 191.6 19.9001 191.7C29.0001 193 37.9001 195.1 46.6001 198.1C47.5001 198.4 48.2001 198.4 48.7001 197.3ZM66.2001 180.9C66.4001 181 66.6001 181 66.8001 181.1C67.4001 180.3 68.5001 179.4 68.6001 178.6C68.9001 173.3 69.0001 168.1 69.1001 162.8C69.1001 162.4 68.8001 161.8 68.5001 161.7C68.2001 161.6 67.5001 161.8 67.3001 162.1C66.7001 162.9 66.1001 163.8 65.6001 164.6C63.3001 168.4 62.5001 172.4 64.6001 176.5C65.3001 178 65.7001 179.5 66.2001 180.9Z" fill="#337085"/>
<path d="M311.3 196C311.2 198.9 311 201.9 310.9 204.8C310.8 206.8 310.9 208.9 310.9 210.9C310.9 211.3 311 211.8 311.1 212.6C312.3 211.6 313.3 210.8 314.2 210.1C314.3 210.2 314.4 210.2 314.6 210.3C314.5 210.6 314.4 211.1 314.2 211.3C312.1 213.2 310 215.1 307.9 217.1C306.8 218.1 306.4 217.3 306.1 216.5C303.6 210.6 302 204.5 300.8 198.2C300.3 195.7 300 193.2 299.5 190.8C299.4 190.3 298.9 189.8 298.5 189.3C298 189.7 297.3 190 297.1 190.6C295.6 194.2 295.2 197.9 295.3 201.7C295.3 202.2 295.5 202.7 295.7 203.1C298.6 208.1 301.6 213.1 304.6 218.1C305.2 219.1 305.2 219.7 304.3 220.5C301 223.4 297.7 226.4 294.5 229.4C293.6 230.2 293.1 230.1 292.2 229.3C288.4 225.8 284.4 222.5 280.6 218.9C275.4 214 269 213 262.1 213.1C260.9 213.1 259.6 213.2 258.5 213.5C258 213.6 257.5 214.2 257 214.5C257.4 214.9 257.8 215.5 258.3 215.7C264.3 218.1 270.5 220.1 276.3 222.8C281.3 225.1 285.8 228.2 290.6 230.9C291.7 231.5 291.4 232 290.7 232.8C289.4 234.3 288.1 234.3 286.3 233.7C283.8 232.8 281.1 232.1 278.5 231.3C277.1 230.9 275.8 230.8 274.5 231.3C272.2 232.2 269.9 233.1 267.6 233.9C267.4 234 267.1 234.1 267 234.2C266.7 234.7 266.4 235.2 266.2 235.7C266.7 235.9 267.2 236.2 267.7 236.2C270.7 236.2 273.7 236 276.6 236C279.2 236 281.8 236.1 284.4 236.2C284.8 236.2 285.3 236.5 285.7 236.7C285.5 237.1 285.4 237.5 285.1 237.8C283.7 239.1 282.3 240.4 280.9 241.6C280.6 241.9 280.1 242 279.7 242.2C279.6 242 279.4 241.9 279.3 241.7C280.7 240.4 282.2 239.1 283.6 237.7C283.5 237.5 283.4 237.4 283.4 237.2C282 237.1 280.5 237 279.1 237C275.4 237 271.7 237.1 268 237.2C266.6 237.2 265.4 237.1 264.9 235.7C264.4 234.3 265.4 233.5 266.6 232.9C268.4 232.1 270.2 231.3 272 230.5C272.4 230.3 272.8 230.2 273.2 230C273.2 229.9 273.2 229.7 273.2 229.6C272.7 229.4 272.3 229.2 271.8 229.1C268 228.4 264.1 227.7 260.3 227.1C258.9 226.9 257.8 226.5 257.7 225C257.6 223.6 258.7 222.9 259.9 222.7C262.3 222.2 264.7 221.7 267.1 221.3C267.8 221.2 268.4 221.2 269.1 221.1C269.2 221 269.2 220.9 269.3 220.7C268.9 220.4 268.5 220.1 268 219.9C264.6 218.7 261.3 217.5 257.9 216.3C256.7 215.9 255.6 215.4 255.7 214C255.7 212.8 256.6 212.2 258.3 211.9C262.1 211.3 265.9 211.6 269.7 212.3C270.3 212.4 270.8 212.5 271.6 212.2C271.3 211.9 271 211.5 270.6 211.3C267.8 209.5 264.9 207.8 262 206.1C260.6 205.3 259.9 204.5 260.1 202.9C260.5 202.5 260.9 202.1 261.4 201.8C267 201.6 272 203.9 277.4 205.6C277.1 204.8 276.9 204.4 276.8 204C275.9 201.1 274.8 198.2 274.1 195.3C273.7 193.7 274.1 191.9 274.1 190.2C274.4 189.9 274.7 189.7 274.9 189.4C276.5 189 277.5 189.6 278.3 191C279.9 193.6 281.6 196.2 283.2 198.7C283.4 199 283.8 199.3 284.1 199.6C284.4 199 284.4 198.5 284.3 198C283.8 194.6 283.6 191.3 284.3 187.9C284.5 186.7 285.1 185.8 286.5 185.8C287.9 185.7 288.5 186.6 288.9 187.7C290.1 190.9 291.4 194.1 292.6 197.3C292.8 197.7 293 198 293.2 198.4C293.3 198.4 293.5 198.4 293.6 198.3C293.7 197.8 293.8 197.4 293.9 197C294.5 194.6 295 192.2 295.6 189.8C295.9 188.6 296.7 187.7 298.2 187.9C299.7 188.1 300.1 189.1 300.3 190.3C300.9 193.9 301.6 197.6 302.3 201.2C302.4 201.6 302.6 202.1 302.8 202.5C302.9 202.5 303.1 202.5 303.2 202.5C303.4 202.1 303.6 201.7 303.8 201.4C304.7 199.7 305.6 198 306.5 196.3C307.2 194.9 308.4 194.4 310 194.8C310.6 195.4 311 195.7 311.3 196ZM298.3 224.3C299 223.6 299.7 222.9 300.5 222.3C301.5 221.5 301.4 221 300.5 220.1C297.4 217.1 294.2 214 291.3 210.8C286 204.8 281.5 198.4 277.5 191.6C277.2 191.1 276.5 190.9 276 190.6C275.7 191.2 275 191.7 275.1 192.2C275.5 194.9 275.7 197.8 276.6 200.4C280.2 210.5 286.9 218.8 294.5 226.5C295 227 295.4 227 296 226.5C296.7 225.8 297.5 225.1 298.3 224.3ZM297.6 216.3C297.7 216.2 297.8 216.2 297.9 216.1C299.2 217.4 300.5 218.7 301.9 219.9C302.1 220.1 302.9 220.1 303.1 219.9C303.4 219.7 303.4 219.1 303.4 218.8C303.4 218.5 303 218.2 302.8 217.9C299.6 212.4 296.1 207.1 293.2 201.4C291.1 197.2 289.8 192.7 288 188.4C287.8 187.9 287.3 187.6 286.9 187.2C286.5 187.6 286.1 188 285.7 188.4C285.6 188.5 285.6 188.7 285.6 188.9C284.6 193.9 285.7 198.8 287 203.6C287.1 203.8 287.3 204.1 287.5 204.3C290.8 208.2 294.2 212.2 297.6 216.3ZM293.4 228.6C293.6 228.5 293.8 228.4 294 228.3C293.8 227.9 293.7 227.4 293.3 227C287.9 221.3 282.9 215.3 278.9 208.5C278.7 208.1 278.4 207.7 278 207.5C273.5 205.2 268.7 203.5 263.5 203.1C262.7 203 261.7 202.8 261.4 203.8C261 204.8 262 205.1 262.7 205.5C273.5 211.6 283.5 218.7 292.1 227.3C292.5 227.8 293 228.2 293.4 228.6ZM289.7 231.9C289.4 231.6 289.1 231.2 288.7 230.9C283.9 228.2 279 225.5 274.2 222.9C273.8 222.7 273.3 222.5 272.8 222.5C268.7 222.4 264.6 222.6 260.7 223.9C260.1 224.1 259.6 224.8 259.1 225.2C259.7 225.6 260.2 226.2 260.9 226.3C270 227.6 278.9 229.7 287.6 232.7C288.5 233 289.2 233 289.7 231.9ZM307.2 215.5C307.4 215.6 307.6 215.6 307.8 215.7C308.4 214.9 309.5 214 309.6 213.2C309.9 207.9 310 202.7 310.1 197.4C310.1 197 309.8 196.4 309.5 196.3C309.2 196.2 308.5 196.4 308.3 196.7C307.7 197.5 307.1 198.4 306.6 199.2C304.3 203 303.5 207 305.6 211.1C306.3 212.5 306.7 214.1 307.2 215.5Z" fill="#337085"/>
<path d="M79.1 510.2C79 513.1 78.8 516.1 78.7 519C78.6 521 78.7 523.1 78.7 525.1C78.7 525.5 78.8 526 78.9 526.8C80.1 525.8 81.1 525 82 524.3C82.1 524.4 82.2 524.4 82.4 524.5C82.3 524.8 82.2 525.3 82 525.5C79.9 527.4 77.8 529.3 75.7 531.3C74.6 532.3 74.2 531.5 73.9 530.7C71.4 524.8 69.8 518.7 68.6 512.4C68.1 509.9 67.8 507.4 67.3 505C67.2 504.5 66.7 504 66.3 503.5C65.8 503.9 65.1 504.2 64.9 504.8C63.4 508.4 63 512.1 63.1 515.9C63.1 516.4 63.3 516.9 63.5 517.3C66.4 522.3 69.4 527.3 72.4 532.3C73 533.3 73 533.9 72.1 534.7C68.8 537.6 65.5 540.6 62.3 543.6C61.4 544.4 60.9 544.3 60 543.5C56.2 540 52.2 536.7 48.4 533.1C43.2 528.2 36.8 527.2 29.9 527.3C28.7 527.3 27.4 527.4 26.3 527.7C25.8 527.8 25.3 528.4 24.8 528.7C25.2 529.1 25.6 529.7 26.1 529.9C32.1 532.3 38.3 534.3 44.1 537C49.1 539.3 53.6 542.4 58.4 545.1C59.5 545.7 59.2 546.2 58.5 547C57.2 548.5 55.9 548.5 54.1 547.9C51.6 547 48.9 546.3 46.3 545.5C44.9 545.1 43.6 545 42.3 545.5C40 546.4 37.7 547.3 35.4 548.1C35.2 548.2 34.9 548.3 34.8 548.4C34.5 548.9 34.2 549.4 34 549.9C34.5 550.1 35 550.4 35.5 550.4C38.5 550.4 41.5 550.2 44.4 550.2C47 550.2 49.6 550.3 52.2 550.4C52.6 550.4 53.1 550.7 53.5 550.9C53.3 551.3 53.2 551.7 52.9 552C51.5 553.3 50.1 554.6 48.7 555.8C48.4 556.1 47.9 556.2 47.5 556.4C47.4 556.2 47.2 556.1 47.1 555.9C48.5 554.6 50 553.3 51.4 551.9C51.3 551.7 51.2 551.6 51.2 551.4C49.8 551.3 48.3 551.2 46.9 551.2C43.2 551.2 39.5 551.3 35.8 551.4C34.4 551.4 33.2 551.3 32.7 549.9C32.2 548.5 33.2 547.7 34.4 547.1C36.2 546.3 38 545.5 39.8 544.7C40.2 544.5 40.6 544.4 41 544.2C41 544.1 41 543.9 41 543.8C40.5 543.6 40.1 543.4 39.6 543.3C35.8 542.6 31.9 541.9 28.1 541.3C26.7 541.1 25.6 540.7 25.5 539.2C25.4 537.8 26.5 537.1 27.7 536.9C30.1 536.4 32.5 535.9 34.9 535.5C35.6 535.4 36.2 535.4 36.9 535.3C37 535.2 37 535.1 37.1 534.9C36.7 534.6 36.3 534.3 35.8 534.1C32.4 532.9 29.1 531.7 25.7 530.5C24.5 530.1 23.4 529.6 23.5 528.2C23.5 527 24.4 526.4 26.1 526.1C29.9 525.5 33.7 525.8 37.5 526.5C38.1 526.6 38.6 526.7 39.4 526.4C39.1 526.1 38.8 525.7 38.4 525.5C35.6 523.7 32.7 522 29.8 520.3C28.4 519.5 27.7 518.7 27.9 517.1C28.3 516.7 28.7 516.3 29.2 516C34.8 515.8 39.8 518.1 45.2 519.8C44.9 519 44.7 518.6 44.6 518.2C43.7 515.3 42.6 512.4 41.9 509.5C41.5 507.9 41.9 506.1 41.9 504.4C42.2 504.1 42.5 503.9 42.7 503.6C44.3 503.2 45.3 503.8 46.1 505.2C47.7 507.8 49.4 510.4 51 512.9C51.2 513.2 51.6 513.5 51.9 513.8C52.2 513.2 52.2 512.7 52.1 512.2C51.6 508.8 51.4 505.5 52.1 502.1C52.3 500.9 52.9 500 54.3 500C55.7 499.9 56.3 500.8 56.7 501.9C57.9 505.1 59.2 508.3 60.4 511.5C60.6 511.9 60.8 512.2 61 512.6C61.1 512.6 61.3 512.6 61.4 512.5C61.5 512 61.6 511.6 61.7 511.2C62.3 508.8 62.8 506.4 63.4 504C63.7 502.8 64.5 501.9 66 502.1C67.5 502.3 67.9 503.3 68.1 504.5C68.7 508.1 69.4 511.8 70.1 515.4C70.2 515.8 70.4 516.3 70.6 516.7C70.7 516.7 70.9 516.7 71 516.7C71.2 516.3 71.4 515.9 71.6 515.6C72.5 513.9 73.4 512.2 74.3 510.5C75 509.1 76.2 508.6 77.8 509C78.4 509.5 78.7 509.8 79.1 510.2ZM66.1 538.5C66.8 537.8 67.5 537.1 68.3 536.5C69.3 535.7 69.2 535.2 68.3 534.3C65.2 531.3 62 528.2 59.1 525C53.8 519 49.3 512.6 45.3 505.8C45 505.3 44.3 505.1 43.8 504.8C43.5 505.4 42.8 505.9 42.9 506.4C43.3 509.1 43.5 512 44.4 514.6C48 524.7 54.7 533 62.3 540.7C62.8 541.2 63.2 541.2 63.8 540.7C64.5 539.9 65.3 539.2 66.1 538.5ZM65.3 530.4C65.4 530.3 65.5 530.3 65.6 530.2C66.9 531.5 68.2 532.8 69.6 534C69.8 534.2 70.6 534.2 70.8 534C71.1 533.8 71.1 533.2 71.1 532.9C71.1 532.6 70.7 532.3 70.5 532C67.3 526.5 63.8 521.2 60.9 515.5C58.8 511.3 57.5 506.8 55.7 502.5C55.5 502 55 501.7 54.6 501.3C54.2 501.7 53.8 502.1 53.4 502.5C53.3 502.6 53.3 502.8 53.3 503C52.3 508 53.4 512.9 54.7 517.7C54.8 517.9 55 518.2 55.2 518.4C58.6 522.3 62 526.4 65.3 530.4ZM61.2 542.8C61.4 542.7 61.6 542.6 61.8 542.5C61.6 542.1 61.5 541.6 61.1 541.2C55.7 535.5 50.7 529.5 46.7 522.7C46.5 522.3 46.2 521.9 45.8 521.7C41.3 519.4 36.5 517.7 31.3 517.3C30.5 517.2 29.5 517 29.2 518C28.8 519 29.8 519.3 30.5 519.7C41.3 525.8 51.3 532.9 59.9 541.5C60.3 541.9 60.7 542.4 61.2 542.8ZM57.5 546.1C57.2 545.8 56.9 545.4 56.5 545.1C51.7 542.4 46.8 539.7 42 537.1C41.6 536.9 41.1 536.7 40.6 536.7C36.5 536.6 32.4 536.8 28.5 538.1C27.9 538.3 27.4 539 26.9 539.4C27.5 539.8 28 540.4 28.7 540.5C37.8 541.8 46.7 543.9 55.4 546.9C56.3 547.2 56.9 547.1 57.5 546.1ZM75 529.7C75.2 529.8 75.4 529.8 75.6 529.9C76.2 529.1 77.3 528.2 77.4 527.4C77.7 522.1 77.8 516.9 77.9 511.6C77.9 511.2 77.6 510.6 77.3 510.5C77 510.4 76.3 510.6 76.1 510.9C75.5 511.7 74.9 512.6 74.4 513.4C72.1 517.2 71.3 521.2 73.4 525.3C74 526.7 74.4 528.2 75 529.7Z" fill="#337085"/>
<path d="M376.5 794.3C376.4 797.2 376.2 800.2 376.1 803.1C376 805.1 376.1 807.2 376.1 809.2C376.1 809.6 376.2 810.1 376.3 810.9C377.5 809.9 378.5 809.1 379.4 808.4C379.5 808.5 379.6 808.5 379.8 808.6C379.7 808.9 379.6 809.4 379.4 809.6C377.3 811.5 375.2 813.4 373.1 815.4C372 816.4 371.6 815.6 371.3 814.8C368.8 808.9 367.2 802.8 366 796.5C365.5 794 365.2 791.5 364.7 789.1C364.6 788.6 364.1 788.1 363.7 787.6C363.2 788 362.5 788.3 362.3 788.9C360.8 792.5 360.4 796.2 360.5 800C360.5 800.5 360.7 801 360.9 801.4C363.8 806.4 366.8 811.4 369.8 816.4C370.4 817.4 370.4 818 369.5 818.8C366.2 821.7 362.9 824.7 359.7 827.7C358.8 828.5 358.3 828.4 357.4 827.6C353.6 824.1 349.6 820.8 345.8 817.2C340.6 812.3 334.2 811.3 327.3 811.4C326.1 811.4 324.8 811.5 323.7 811.8C323.2 811.9 322.7 812.5 322.2 812.8C322.6 813.2 323 813.8 323.5 814C329.5 816.4 335.7 818.4 341.5 821.1C346.5 823.4 351 826.5 355.8 829.2C356.9 829.8 356.6 830.3 355.9 831.1C354.6 832.6 353.3 832.6 351.5 832C349 831.1 346.3 830.4 343.7 829.6C342.3 829.2 341 829.1 339.7 829.6C337.4 830.5 335.1 831.4 332.8 832.2C332.6 832.3 332.3 832.4 332.2 832.5C331.9 833 331.6 833.5 331.4 834C331.9 834.2 332.4 834.5 332.9 834.5C335.9 834.5 338.9 834.3 341.8 834.3C344.4 834.3 347 834.4 349.6 834.5C350 834.5 350.5 834.8 350.9 835C350.7 835.4 350.6 835.8 350.3 836.1C348.9 837.4 347.5 838.7 346.1 839.9C345.8 840.2 345.3 840.3 344.9 840.5C344.8 840.3 344.6 840.2 344.5 840C345.9 838.7 347.4 837.4 348.8 836C348.7 835.8 348.6 835.7 348.6 835.5C347.2 835.4 345.7 835.3 344.3 835.3C340.6 835.3 336.9 835.4 333.2 835.5C331.8 835.5 330.6 835.4 330.1 834C329.6 832.6 330.6 831.8 331.8 831.2C333.6 830.4 335.4 829.6 337.2 828.8C337.6 828.6 338 828.5 338.4 828.3C338.4 828.2 338.4 828 338.4 827.9C337.9 827.7 337.5 827.5 337 827.4C333.2 826.7 329.3 826 325.5 825.4C324.1 825.2 323 824.8 322.9 823.3C322.8 821.9 323.9 821.2 325.1 821C327.5 820.5 329.9 820 332.3 819.6C333 819.5 333.6 819.5 334.3 819.4C334.4 819.3 334.4 819.2 334.5 819C334.1 818.7 333.7 818.4 333.2 818.2C329.8 817 326.5 815.8 323.1 814.6C321.9 814.2 320.8 813.7 320.9 812.3C320.9 811.1 321.8 810.5 323.5 810.2C327.3 809.6 331.1 809.9 334.9 810.6C335.5 810.7 336 810.8 336.8 810.5C336.5 810.2 336.2 809.8 335.8 809.6C333 807.8 330.1 806.1 327.2 804.4C325.8 803.6 325.1 802.8 325.3 801.2C325.7 800.8 326.1 800.4 326.6 800.1C332.2 799.9 337.2 802.2 342.6 803.9C342.3 803.1 342.1 802.7 342 802.3C341.1 799.4 340 796.5 339.3 793.6C338.9 792 339.3 790.2 339.3 788.5C339.6 788.2 339.9 788 340.1 787.7C341.7 787.3 342.7 787.9 343.5 789.3C345.1 791.9 346.8 794.5 348.4 797C348.6 797.3 349 797.6 349.3 797.9C349.6 797.3 349.6 796.8 349.5 796.3C349 792.9 348.8 789.6 349.5 786.2C349.7 785 350.3 784.1 351.7 784.1C353.1 784 353.7 784.9 354.1 786C355.3 789.2 356.6 792.4 357.8 795.6C358 796 358.2 796.3 358.4 796.7C358.5 796.7 358.7 796.7 358.8 796.6C358.9 796.1 359 795.7 359.1 795.3C359.7 792.9 360.2 790.5 360.8 788.1C361.1 786.9 361.9 786 363.4 786.2C364.9 786.4 365.3 787.4 365.5 788.6C366.1 792.2 366.8 795.9 367.5 799.5C367.6 799.9 367.8 800.4 368 800.8C368.1 800.8 368.3 800.8 368.4 800.8C368.6 800.4 368.8 800 369 799.7C369.9 798 370.8 796.3 371.7 794.6C372.4 793.2 373.6 792.7 375.2 793.1C375.8 793.6 376.2 793.9 376.5 794.3ZM363.5 822.6C364.2 821.9 364.9 821.2 365.7 820.6C366.7 819.8 366.6 819.3 365.7 818.4C362.6 815.4 359.4 812.3 356.5 809.1C351.2 803.1 346.7 796.7 342.7 789.9C342.4 789.4 341.7 789.2 341.2 788.9C340.9 789.5 340.2 790 340.3 790.5C340.7 793.2 340.9 796.1 341.8 798.7C345.4 808.8 352.1 817.1 359.7 824.8C360.2 825.3 360.6 825.3 361.2 824.8C361.9 824.1 362.7 823.3 363.5 822.6ZM362.8 814.5C362.9 814.4 363 814.4 363.1 814.3C364.4 815.6 365.7 816.9 367.1 818.1C367.3 818.3 368.1 818.3 368.3 818.1C368.6 817.9 368.6 817.3 368.6 817C368.6 816.7 368.2 816.4 368 816.1C364.8 810.6 361.3 805.3 358.4 799.6C356.3 795.4 355 790.9 353.2 786.6C353 786.1 352.5 785.8 352.1 785.4C351.7 785.8 351.3 786.2 350.9 786.6C350.8 786.7 350.8 786.9 350.8 787.1C349.8 792.1 350.9 797 352.2 801.8C352.3 802 352.5 802.3 352.7 802.5C356 806.4 359.4 810.5 362.8 814.5ZM358.6 826.9C358.8 826.8 359 826.7 359.2 826.6C359 826.2 358.9 825.7 358.5 825.3C353.1 819.6 348.1 813.6 344.1 806.8C343.9 806.4 343.6 806 343.2 805.8C338.7 803.5 333.9 801.8 328.7 801.4C327.9 801.3 326.9 801.1 326.6 802.1C326.2 803.1 327.2 803.4 327.9 803.8C338.7 809.9 348.7 817 357.3 825.6C357.7 826 358.2 826.5 358.6 826.9ZM354.9 830.2C354.6 829.9 354.3 829.5 353.9 829.2C349.1 826.5 344.2 823.8 339.4 821.2C339 821 338.5 820.8 338 820.8C333.9 820.7 329.8 820.9 325.9 822.2C325.3 822.4 324.8 823.1 324.3 823.5C324.9 823.9 325.4 824.5 326.1 824.6C335.2 825.9 344.1 828 352.8 831C353.7 831.3 354.4 831.2 354.9 830.2ZM372.4 813.8C372.6 813.9 372.8 813.9 373 814C373.6 813.2 374.7 812.3 374.8 811.5C375.1 806.2 375.2 801 375.3 795.7C375.3 795.3 375 794.7 374.7 794.6C374.4 794.5 373.7 794.7 373.5 795C372.9 795.8 372.3 796.7 371.8 797.5C369.5 801.3 368.7 805.3 370.8 809.4C371.5 810.8 371.9 812.3 372.4 813.8Z" fill="#337085"/>
<path d="M171.3 780.7C171.2 783.6 171 786.6 170.9 789.5C170.8 791.5 170.9 793.6 170.9 795.6C170.9 796 171 796.5 171.1 797.3C172.3 796.3 173.3 795.5 174.2 794.8C174.3 794.9 174.4 794.9 174.6 795C174.5 795.3 174.4 795.8 174.2 796C172.1 797.9 170 799.8 167.9 801.8C166.8 802.8 166.4 802 166.1 801.2C163.6 795.3 162 789.2 160.8 782.9C160.3 780.4 160 777.9 159.5 775.5C159.4 775 158.9 774.5 158.5 774C158 774.4 157.3 774.7 157.1 775.3C155.6 778.9 155.2 782.6 155.3 786.4C155.3 786.9 155.5 787.4 155.7 787.8C158.6 792.8 161.6 797.8 164.6 802.8C165.2 803.8 165.2 804.4 164.3 805.2C161 808.1 157.7 811.1 154.5 814.1C153.6 814.9 153.1 814.8 152.2 814C148.4 810.5 144.4 807.2 140.6 803.6C135.4 798.7 129 797.7 122.1 797.8C120.9 797.8 119.6 797.9 118.5 798.2C118 798.3 117.5 798.9 117 799.2C117.4 799.6 117.8 800.2 118.3 800.4C124.3 802.8 130.5 804.8 136.3 807.5C141.3 809.8 145.8 812.9 150.6 815.6C151.7 816.2 151.4 816.7 150.7 817.5C149.4 819 148.1 819 146.3 818.4C143.8 817.5 141.1 816.8 138.5 816C137.1 815.6 135.8 815.5 134.5 816C132.2 816.9 129.9 817.8 127.6 818.6C127.4 818.7 127.1 818.8 127 818.9C126.7 819.4 126.4 819.9 126.2 820.4C126.7 820.6 127.2 820.9 127.7 820.9C130.7 820.9 133.7 820.7 136.6 820.7C139.2 820.7 141.8 820.8 144.4 820.9C144.8 820.9 145.3 821.2 145.7 821.4C145.5 821.8 145.4 822.2 145.1 822.5C143.7 823.8 142.3 825.1 140.9 826.3C140.6 826.6 140.1 826.7 139.7 826.9C139.6 826.7 139.4 826.6 139.3 826.4C140.7 825.1 142.2 823.8 143.6 822.4C143.5 822.2 143.4 822.1 143.4 821.9C142 821.8 140.5 821.7 139.1 821.7C135.4 821.7 131.7 821.8 128 821.9C126.6 821.9 125.4 821.8 124.9 820.4C124.4 819 125.4 818.2 126.6 817.6C128.4 816.8 130.2 816 132 815.2C132.4 815 132.8 814.9 133.2 814.7C133.2 814.6 133.2 814.4 133.2 814.3C132.7 814.1 132.3 813.9 131.8 813.8C128 813.1 124.1 812.4 120.3 811.8C118.9 811.6 117.8 811.2 117.7 809.7C117.6 808.3 118.7 807.6 119.9 807.4C122.3 806.9 124.7 806.4 127.1 806C127.8 805.9 128.4 805.9 129.1 805.8C129.2 805.7 129.2 805.6 129.3 805.4C128.9 805.1 128.5 804.8 128 804.6C124.6 803.4 121.3 802.2 117.9 801C116.7 800.6 115.6 800.1 115.7 798.7C115.7 797.5 116.6 796.9 118.3 796.6C122.1 796 125.9 796.3 129.7 797C130.3 797.1 130.8 797.2 131.6 796.9C131.3 796.6 131 796.2 130.6 796C127.8 794.2 124.9 792.5 122 790.8C120.6 790 119.9 789.2 120.1 787.6C120.5 787.2 120.9 786.8 121.4 786.5C127 786.3 132 788.6 137.4 790.3C137.1 789.5 136.9 789.1 136.8 788.7C135.9 785.8 134.8 782.9 134.1 780C133.7 778.4 134.1 776.6 134.1 774.9C134.4 774.6 134.7 774.4 134.9 774.1C136.5 773.7 137.5 774.3 138.3 775.7C139.9 778.3 141.6 780.9 143.2 783.4C143.4 783.7 143.8 784 144.1 784.3C144.4 783.7 144.4 783.2 144.3 782.7C143.8 779.3 143.6 776 144.3 772.6C144.5 771.4 145.1 770.5 146.5 770.5C147.9 770.4 148.5 771.3 148.9 772.4C150.1 775.6 151.4 778.8 152.6 782C152.8 782.4 153 782.7 153.2 783.1C153.3 783.1 153.5 783.1 153.6 783C153.7 782.5 153.8 782.1 153.9 781.7C154.5 779.3 155 776.9 155.6 774.5C155.9 773.3 156.7 772.4 158.2 772.6C159.7 772.8 160.1 773.8 160.3 775C160.9 778.6 161.6 782.3 162.3 785.9C162.4 786.3 162.6 786.8 162.8 787.2C162.9 787.2 163.1 787.2 163.2 787.2C163.4 786.8 163.6 786.4 163.8 786.1C164.7 784.4 165.6 782.7 166.5 781C167.2 779.6 168.4 779.1 170 779.5C170.6 780.1 171 780.4 171.3 780.7ZM158.3 809.1C159 808.4 159.7 807.7 160.5 807.1C161.5 806.3 161.4 805.8 160.5 804.9C157.4 801.9 154.2 798.8 151.3 795.6C146 789.6 141.5 783.2 137.5 776.4C137.2 775.9 136.5 775.7 136 775.4C135.7 776 135 776.5 135.1 777C135.5 779.7 135.7 782.6 136.6 785.2C140.2 795.3 146.9 803.6 154.5 811.3C155 811.8 155.4 811.8 156 811.3C156.7 810.5 157.5 809.8 158.3 809.1ZM157.6 801C157.7 800.9 157.8 800.9 157.9 800.8C159.2 802.1 160.5 803.4 161.9 804.6C162.1 804.8 162.9 804.8 163.1 804.6C163.4 804.4 163.4 803.8 163.4 803.5C163.4 803.2 163 802.9 162.8 802.6C159.6 797.1 156.1 791.8 153.2 786.1C151.1 781.9 149.8 777.4 148 773.1C147.8 772.6 147.3 772.3 146.9 771.9C146.5 772.3 146.1 772.7 145.7 773.1C145.6 773.2 145.6 773.4 145.6 773.6C144.6 778.6 145.7 783.5 147 788.3C147.1 788.5 147.3 788.8 147.5 789C150.8 792.9 154.2 797 157.6 801ZM153.4 813.4C153.6 813.3 153.8 813.2 154 813.1C153.8 812.7 153.7 812.2 153.3 811.8C147.9 806.1 142.9 800.1 138.9 793.3C138.7 792.9 138.4 792.5 138 792.3C133.5 790 128.7 788.3 123.5 787.9C122.7 787.8 121.7 787.6 121.4 788.6C121 789.6 122 789.9 122.7 790.3C133.5 796.4 143.5 803.5 152.1 812.1C152.5 812.5 153 812.9 153.4 813.4ZM149.7 816.7C149.4 816.4 149.1 816 148.7 815.7C143.9 813 139 810.3 134.2 807.7C133.8 807.5 133.3 807.3 132.8 807.3C128.7 807.2 124.6 807.4 120.7 808.7C120.1 808.9 119.6 809.6 119.1 810C119.7 810.4 120.2 811 120.9 811.1C130 812.4 138.9 814.5 147.6 817.5C148.5 817.7 149.2 817.7 149.7 816.7ZM167.2 800.2C167.4 800.3 167.6 800.3 167.8 800.4C168.4 799.6 169.5 798.7 169.6 797.9C169.9 792.6 170 787.4 170.1 782.1C170.1 781.7 169.8 781.1 169.5 781C169.2 780.9 168.5 781.1 168.3 781.4C167.7 782.2 167.1 783.1 166.6 783.9C164.3 787.7 163.5 791.7 165.6 795.8C166.3 797.3 166.7 798.8 167.2 800.2Z" fill="#337085"/>
<path d="M386.7 437.5C386.6 440.4 386.4 443.4 386.3 446.3C386.2 448.3 386.3 450.4 386.3 452.4C386.3 452.8 386.4 453.3 386.5 454.1C387.7 453.1 388.7 452.3 389.6 451.6C389.7 451.7 389.8 451.7 390 451.8C389.9 452.1 389.8 452.6 389.6 452.8C387.5 454.7 385.4 456.6 383.3 458.6C382.2 459.6 381.8 458.8 381.5 458C379 452.1 377.4 446 376.2 439.7C375.7 437.2 375.4 434.7 374.9 432.3C374.8 431.8 374.3 431.3 373.9 430.8C373.4 431.2 372.7 431.5 372.5 432.1C371 435.7 370.6 439.4 370.7 443.2C370.7 443.7 370.9 444.2 371.1 444.6C374 449.6 377 454.6 380 459.6C380.6 460.6 380.6 461.2 379.7 462C376.4 464.9 373.1 467.9 369.9 470.9C369 471.7 368.5 471.6 367.6 470.8C363.8 467.3 359.8 464 356 460.4C350.8 455.5 344.4 454.5 337.5 454.6C336.3 454.6 335 454.7 333.9 455C333.4 455.1 332.9 455.7 332.4 456C332.8 456.4 333.2 457 333.7 457.2C339.7 459.6 345.9 461.6 351.7 464.3C356.7 466.6 361.2 469.7 366 472.4C367.1 473 366.8 473.5 366.1 474.3C364.8 475.8 363.5 475.8 361.7 475.2C359.2 474.3 356.5 473.6 353.9 472.8C352.5 472.4 351.2 472.3 349.9 472.8C347.6 473.7 345.3 474.6 343 475.4C342.8 475.5 342.5 475.6 342.4 475.7C342.1 476.2 341.8 476.7 341.6 477.2C342.1 477.4 342.6 477.7 343.1 477.7C346.1 477.7 349.1 477.5 352 477.5C354.6 477.5 357.2 477.6 359.8 477.7C360.2 477.7 360.7 478 361.1 478.2C360.9 478.6 360.8 479 360.5 479.3C359.1 480.6 357.7 481.9 356.3 483.1C356 483.4 355.5 483.5 355.1 483.7C355 483.5 354.8 483.4 354.7 483.2C356.1 481.9 357.6 480.6 359 479.2C358.9 479 358.8 478.9 358.8 478.7C357.4 478.6 355.9 478.5 354.5 478.5C350.8 478.5 347.1 478.6 343.4 478.7C342 478.7 340.8 478.6 340.3 477.2C339.8 475.8 340.8 475 342 474.4C343.8 473.6 345.6 472.8 347.4 472C347.8 471.8 348.2 471.7 348.6 471.5C348.6 471.4 348.6 471.2 348.6 471.1C348.1 470.9 347.7 470.7 347.2 470.6C343.4 469.9 339.5 469.2 335.7 468.6C334.3 468.4 333.2 468 333.1 466.5C333 465.1 334.1 464.4 335.3 464.2C337.7 463.7 340.1 463.2 342.5 462.8C343.2 462.7 343.8 462.7 344.5 462.6C344.6 462.5 344.6 462.4 344.7 462.2C344.3 461.9 343.9 461.6 343.4 461.4C340 460.2 336.7 459 333.3 457.8C332.1 457.4 331 456.9 331.1 455.5C331.1 454.3 332 453.7 333.7 453.4C337.5 452.8 341.3 453.1 345.1 453.8C345.7 453.9 346.2 454 347 453.7C346.7 453.4 346.4 453 346 452.8C343.2 451 340.3 449.3 337.4 447.6C336 446.8 335.3 446 335.5 444.4C335.9 444 336.3 443.6 336.8 443.3C342.4 443.1 347.4 445.4 352.8 447.1C352.5 446.3 352.3 445.9 352.2 445.5C351.3 442.6 350.2 439.7 349.5 436.8C349.1 435.2 349.5 433.4 349.5 431.7C349.8 431.4 350.1 431.2 350.3 430.9C351.9 430.5 352.9 431.1 353.7 432.5C355.3 435.1 357 437.7 358.6 440.2C358.8 440.5 359.2 440.8 359.5 441.1C359.8 440.5 359.8 440 359.7 439.5C359.2 436.1 359 432.8 359.7 429.4C359.9 428.2 360.5 427.3 361.9 427.3C363.3 427.2 363.9 428.1 364.3 429.2C365.5 432.4 366.8 435.6 368 438.8C368.2 439.2 368.4 439.5 368.6 439.9C368.7 439.9 368.9 439.9 369 439.8C369.1 439.3 369.2 438.9 369.3 438.5C369.9 436.1 370.4 433.7 371 431.3C371.3 430.1 372.1 429.2 373.6 429.4C375.1 429.6 375.5 430.6 375.7 431.8C376.3 435.4 377 439.1 377.7 442.7C377.8 443.1 378 443.6 378.2 444C378.3 444 378.5 444 378.6 444C378.8 443.6 379 443.2 379.2 442.9C380.1 441.2 381 439.5 381.9 437.8C382.6 436.4 383.8 435.9 385.4 436.3C386 436.9 386.3 437.2 386.7 437.5ZM373.7 465.9C374.4 465.2 375.1 464.5 375.9 463.9C376.9 463.1 376.8 462.6 375.9 461.7C372.8 458.7 369.6 455.6 366.7 452.4C361.4 446.4 356.9 440 352.9 433.2C352.6 432.7 351.9 432.5 351.4 432.2C351.1 432.8 350.4 433.3 350.5 433.8C350.9 436.5 351.1 439.4 352 442C355.6 452.1 362.3 460.4 369.9 468.1C370.4 468.6 370.8 468.6 371.4 468.1C372.1 467.3 372.9 466.6 373.7 465.9ZM373 457.8C373.1 457.7 373.2 457.7 373.3 457.6C374.6 458.9 375.9 460.2 377.3 461.4C377.5 461.6 378.3 461.6 378.5 461.4C378.8 461.2 378.8 460.6 378.8 460.3C378.8 460 378.4 459.7 378.2 459.4C375 453.9 371.5 448.6 368.6 442.9C366.5 438.7 365.2 434.2 363.4 429.9C363.2 429.4 362.7 429.1 362.3 428.7C361.9 429.1 361.5 429.5 361.1 429.9C361 430 361 430.2 361 430.4C360 435.4 361.1 440.3 362.4 445.1C362.5 445.3 362.7 445.6 362.9 445.8C366.2 449.7 369.6 453.7 373 457.8ZM368.8 470.1C369 470 369.2 469.9 369.4 469.8C369.2 469.4 369.1 468.9 368.7 468.5C363.3 462.8 358.3 456.8 354.3 450C354.1 449.6 353.8 449.2 353.4 449C348.9 446.7 344.1 445 338.9 444.6C338.1 444.5 337.1 444.3 336.8 445.3C336.4 446.3 337.4 446.6 338.1 447C348.9 453.1 358.9 460.2 367.5 468.8C367.9 469.3 368.4 469.7 368.8 470.1ZM365.1 473.4C364.8 473.1 364.5 472.7 364.1 472.4C359.3 469.7 354.4 467 349.6 464.4C349.2 464.2 348.7 464 348.2 464C344.1 463.9 340 464.1 336.1 465.4C335.5 465.6 335 466.3 334.5 466.7C335.1 467.1 335.6 467.7 336.3 467.8C345.4 469.1 354.3 471.2 363 474.2C363.9 474.5 364.5 474.5 365.1 473.4ZM382.6 457C382.8 457.1 383 457.1 383.2 457.2C383.8 456.4 384.9 455.5 385 454.7C385.3 449.4 385.4 444.2 385.5 438.9C385.5 438.5 385.2 437.9 384.9 437.8C384.6 437.7 383.9 437.9 383.7 438.2C383.1 439 382.5 439.9 382 440.7C379.7 444.5 378.9 448.5 381 452.6C381.6 454.1 382 455.6 382.6 457Z" fill="#337085"/>
<path d="M337.5 158C333.7 166.3 337 175.8 345.3 180.3C353.3 184.6 363.1 183.1 369.1 176.7C375 170.4 375.3 161 369.9 154.4C364 147.2 353.3 145.3 345 150C344.8 149.1 344.6 148.2 344.4 147.3C344.4 147.2 344.7 147 344.9 146.9C348.5 145.2 352.3 144.5 356.3 144.7C365.9 145.2 374.1 151.6 376.2 160.4C378 167.8 375.9 174.2 370.3 179.6C363.4 186.2 352.2 187.4 343.7 182.7C334.7 177.6 330.8 167.7 334.2 158.4C334.4 158 334.5 157.8 335 157.9C335.8 158 336.7 158 337.5 158Z" fill="#337085"/>
<path d="M330.2 149.5C331.8 147.8 333.4 146.1 335 144.4C335.5 145.1 336 145.7 336.5 146.4C338 148.4 339.5 150.5 341.1 152.5C341.3 152.8 341.3 153 341.1 153.2C340.1 154.2 340.1 154.2 338.9 153.6C336.2 152.3 333.5 151 330.8 149.7C330.5 149.7 330.4 149.6 330.2 149.5Z" fill="#337085"/>
<path d="M342.4 151.8C340.5 149.2 338.6 146.7 336.7 144.1C336 143.2 336 143.2 336.8 142.3C337.9 141.1 339.1 139.8 340.2 138.6C340.3 138.5 340.4 138.3 340.6 138.1C340.7 138.3 340.7 138.5 340.8 138.6C341.7 142.4 342.5 146.1 343.4 149.9C343.6 150.6 343.5 151 342.9 151.4C342.7 151.6 342.6 151.7 342.4 151.8Z" fill="#337085"/>
<path d="M339.1 155.4C338.9 155.8 338.7 156.1 338.4 156.4C338.3 156.5 338 156.6 337.8 156.6C333.8 156.3 329.9 156.1 325.9 155.8C325.4 155.8 325 155.7 324.4 155.7C324.5 155.5 324.6 155.4 324.7 155.3C326 153.9 327.4 152.4 328.7 151C328.9 150.8 329 150.6 329.4 150.8C332.6 152.3 335.8 153.9 339.1 155.4Z" fill="#337085"/>
<path d="M327.2 150.4C325.8 151.8 324.6 153.2 323.2 154.6C322.9 153.1 322.6 151.7 322.3 150.2C324 150.3 325.5 150.3 327.2 150.4Z" fill="#337085"/>
<path d="M339.4 137.3C338.1 138.7 336.8 140.1 335.4 141.5C335.1 140 334.8 138.6 334.5 137.1C336.2 137.2 337.8 137.2 339.4 137.3Z" fill="#337085"/>
<path d="M333.3 143.9C332 145.3 330.7 146.7 329.3 148.1C329 146.6 328.7 145.2 328.4 143.7C330.1 143.7 331.7 143.8 333.3 143.9Z" fill="#337085"/>
<path d="M327.9 149C326.3 148.9 324.8 148.9 323.1 148.8C324.4 147.4 325.7 146 327 144.6C327.4 146.1 327.6 147.5 327.9 149Z" fill="#337085"/>
<path d="M334.1 142.4C332.5 142.3 330.9 142.3 329.3 142.2C330.6 140.8 331.9 139.4 333.2 138C333.5 139.5 333.8 140.9 334.1 142.4Z" fill="#337085"/>
<path d="M164.5 256.4C160.7 264.7 164 274.2 172.3 278.7C180.3 283 190.1 281.5 196.1 275.1C202 268.8 202.3 259.4 196.9 252.8C191 245.6 180.3 243.7 172 248.4C171.8 247.5 171.6 246.6 171.4 245.7C171.4 245.6 171.7 245.4 171.9 245.3C175.5 243.6 179.3 242.9 183.3 243.1C192.9 243.6 201.1 250 203.2 258.8C205 266.2 202.9 272.6 197.3 278C190.4 284.6 179.2 285.8 170.7 281.1C161.7 276 157.8 266.1 161.2 256.8C161.4 256.4 161.5 256.2 162 256.3C162.8 256.3 163.6 256.3 164.5 256.4Z" fill="#337085"/>
<path d="M157.1 247.8C158.7 246.1 160.3 244.4 161.9 242.7C162.4 243.4 162.9 244 163.4 244.7C164.9 246.7 166.4 248.8 168 250.8C168.2 251.1 168.2 251.3 168 251.5C167 252.5 167 252.5 165.8 251.9C163.1 250.6 160.4 249.3 157.7 248C157.5 248 157.3 247.9 157.1 247.8Z" fill="#337085"/>
<path d="M169.4 250.1C167.5 247.5 165.6 245 163.7 242.4C163 241.5 163 241.5 163.8 240.6C164.9 239.4 166.1 238.1 167.2 236.9C167.3 236.8 167.4 236.6 167.6 236.4C167.7 236.6 167.7 236.8 167.8 236.9C168.7 240.7 169.5 244.4 170.4 248.2C170.6 248.9 170.5 249.3 169.9 249.7C169.7 249.9 169.6 250 169.4 250.1Z" fill="#337085"/>
<path d="M166 253.7C165.8 254.1 165.6 254.4 165.3 254.7C165.2 254.8 164.9 254.9 164.7 254.9C160.7 254.6 156.8 254.4 152.8 254.1C152.3 254.1 151.9 254 151.3 254C151.4 253.8 151.5 253.7 151.6 253.6C152.9 252.2 154.3 250.7 155.6 249.3C155.8 249.1 155.9 248.9 156.3 249.1C159.5 250.7 162.7 252.2 166 253.7Z" fill="#337085"/>
<path d="M154.1 248.7C152.7 250.1 151.5 251.5 150.1 252.9C149.8 251.4 149.5 250 149.2 248.5C150.9 248.6 152.5 248.7 154.1 248.7Z" fill="#337085"/>
<path d="M166.4 235.6C165.1 237 163.8 238.4 162.4 239.8C162.1 238.3 161.8 236.9 161.5 235.4C163.2 235.5 164.7 235.6 166.4 235.6Z" fill="#337085"/>
<path d="M160.3 242.2C159 243.6 157.7 245 156.3 246.4C156 244.9 155.7 243.5 155.4 242C157.1 242.1 158.6 242.1 160.3 242.2Z" fill="#337085"/>
<path d="M154.9 247.3C153.3 247.2 151.8 247.2 150.1 247.1C151.4 245.7 152.7 244.3 154 242.9C154.3 244.4 154.6 245.8 154.9 247.3Z" fill="#337085"/>
<path d="M161 240.7C159.4 240.6 157.8 240.6 156.2 240.5C157.5 239.1 158.8 237.7 160.1 236.3C160.5 237.8 160.7 239.2 161 240.7Z" fill="#337085"/>
<path d="M15.1 332.5C11.3 340.8 14.6 350.3 22.9 354.8C30.9 359.1 40.7 357.6 46.7 351.2C52.6 344.9 52.9 335.5 47.5 328.9C41.6 321.7 30.9 319.8 22.6 324.5C22.4 323.6 22.2 322.7 22 321.8C22 321.7 22.3 321.5 22.5 321.4C26.1 319.7 29.9 319 33.9 319.2C43.5 319.7 51.7 326.1 53.8 334.9C55.6 342.3 53.5 348.7 47.9 354.1C41 360.7 29.8 361.9 21.3 357.2C12.3 352.1 8.40004 342.2 11.8 332.9C12 332.5 12.1 332.3 12.6 332.4C13.5 332.5 14.3 332.5 15.1 332.5Z" fill="#337085"/>
<path d="M7.80005 324C9.40005 322.3 11 320.6 12.6 318.9C13.1 319.6 13.6 320.2 14.1 320.9C15.6 322.9 17.1 325 18.7 327C18.9 327.3 18.9 327.5 18.7 327.7C17.7 328.7 17.7 328.7 16.5 328.1C13.8 326.8 11.1 325.5 8.40005 324.2C8.10005 324.2 8.00005 324.1 7.80005 324Z" fill="#337085"/>
<path d="M20 326.3C18.1 323.7 16.2 321.2 14.3 318.6C13.6 317.7 13.6 317.7 14.4 316.8C15.5 315.6 16.7 314.3 17.8 313.1C17.9 313 18 312.8 18.2 312.6C18.3 312.8 18.3 313 18.4 313.1C19.3 316.9 20.1 320.6 21 324.4C21.2 325.1 21.1 325.5 20.5 325.9C20.4 326.1 20.2 326.2 20 326.3Z" fill="#337085"/>
<path d="M16.7 329.9C16.5 330.3 16.3 330.6 16 330.9C15.9 331 15.6 331.1 15.4 331.1C11.4 330.8 7.5 330.6 3.5 330.3C3 330.3 2.6 330.2 2 330.2C2.1 330 2.2 329.9 2.3 329.8C3.6 328.4 5 326.9 6.3 325.5C6.5 325.3 6.6 325.1 7 325.3C10.2 326.8 13.4 328.3 16.7 329.9Z" fill="#337085"/>
<path d="M4.80002 324.9C3.40002 326.3 2.20002 327.7 0.800024 329.1C0.500024 327.6 0.200024 326.2 -0.0999756 324.7C1.60002 324.8 3.20002 324.8 4.80002 324.9Z" fill="#337085"/>
<path d="M17.1001 311.8C15.8001 313.2 14.5001 314.6 13.1001 316C12.8001 314.5 12.5001 313.1 12.2001 311.6C13.9001 311.7 15.4001 311.7 17.1001 311.8Z" fill="#337085"/>
<path d="M10.9 318.3C9.6 319.7 8.3 321.1 6.9 322.5C6.6 321 6.3 319.6 6 318.1C7.8 318.2 9.3 318.3 10.9 318.3Z" fill="#337085"/>
<path d="M5.60005 323.5C4.00005 323.4 2.50005 323.4 0.800049 323.3C2.10005 321.9 3.40005 320.5 4.70005 319.1C5.00005 320.5 5.30005 322 5.60005 323.5Z" fill="#337085"/>
<path d="M11.7 316.9C10.1 316.8 8.50002 316.8 6.90002 316.7C8.20002 315.3 9.50002 313.9 10.8 312.5C11.1 314 11.4 315.4 11.7 316.9Z" fill="#337085"/>
<path d="M126.1 514.4C122.3 522.7 125.6 532.2 133.9 536.7C141.9 541 151.7 539.5 157.7 533.1C163.6 526.8 163.9 517.4 158.5 510.8C152.6 503.6 141.9 501.7 133.6 506.4C133.4 505.5 133.2 504.6 133 503.7C133 503.6 133.3 503.4 133.5 503.3C137.1 501.6 140.9 500.9 144.9 501.1C154.5 501.6 162.7 508 164.8 516.8C166.6 524.2 164.5 530.6 158.9 536C152 542.6 140.8 543.8 132.3 539.1C123.3 534 119.4 524.1 122.8 514.8C123 514.4 123.1 514.2 123.6 514.3C124.4 514.3 125.2 514.3 126.1 514.4Z" fill="#337085"/>
<path d="M118.7 505.9C120.3 504.2 121.9 502.5 123.5 500.8C124 501.5 124.5 502.1 125 502.8C126.5 504.8 128 506.9 129.6 508.9C129.8 509.2 129.8 509.4 129.6 509.6C128.6 510.6 128.6 510.6 127.4 510C124.7 508.7 122 507.4 119.3 506.1C119 506 118.9 506 118.7 505.9Z" fill="#337085"/>
<path d="M130.9 508.2C129 505.6 127.1 503.1 125.2 500.5C124.5 499.6 124.5 499.6 125.3 498.7C126.4 497.5 127.6 496.2 128.7 495C128.8 494.9 128.9 494.7 129.1 494.5C129.2 494.7 129.2 494.9 129.3 495C130.2 498.8 131 502.5 131.9 506.3C132.1 507 132 507.4 131.4 507.8C131.3 507.9 131.1 508 130.9 508.2Z" fill="#337085"/>
<path d="M127.6 511.8C127.4 512.2 127.2 512.5 126.9 512.8C126.8 512.9 126.5 513 126.3 513C122.3 512.7 118.4 512.5 114.4 512.2C113.9 512.2 113.5 512.1 112.9 512.1C113 511.9 113.1 511.8 113.2 511.7C114.5 510.3 115.9 508.8 117.2 507.4C117.4 507.2 117.5 507 117.9 507.2C121.1 508.7 124.3 510.2 127.6 511.8Z" fill="#337085"/>
<path d="M115.7 506.8C114.3 508.2 113.1 509.6 111.7 511C111.4 509.5 111.1 508.1 110.8 506.6C112.5 506.6 114.1 506.7 115.7 506.8Z" fill="#337085"/>
<path d="M128 493.7C126.7 495.1 125.4 496.5 124 497.9C123.7 496.4 123.4 495 123.1 493.5C124.8 493.5 126.3 493.6 128 493.7Z" fill="#337085"/>
<path d="M121.9 500.2C120.6 501.6 119.3 503 117.9 504.4C117.6 502.9 117.3 501.5 117 500C118.7 500.1 120.2 500.1 121.9 500.2Z" fill="#337085"/>
<path d="M116.5 505.3C114.9 505.2 113.4 505.2 111.7 505.1C113 503.7 114.3 502.3 115.6 500.9C115.9 502.4 116.2 503.8 116.5 505.3Z" fill="#337085"/>
<path d="M122.6 498.8C121 498.7 119.4 498.7 117.8 498.6C119.1 497.2 120.4 495.8 121.7 494.4C122 495.9 122.3 497.3 122.6 498.8Z" fill="#337085"/>
<path d="M230.6 800.8C226.8 809.1 230.1 818.6 238.4 823.1C246.4 827.4 256.2 825.9 262.2 819.5C268.1 813.2 268.4 803.8 263 797.2C257.1 790 246.4 788.1 238.1 792.8C237.9 791.9 237.7 791 237.5 790.1C237.5 790 237.8 789.8 238 789.7C241.6 788 245.4 787.3 249.4 787.5C259 788 267.2 794.4 269.3 803.2C271.1 810.6 269 817 263.4 822.4C256.5 829 245.3 830.2 236.8 825.5C227.8 820.4 223.9 810.5 227.3 801.2C227.5 800.8 227.6 800.6 228.1 800.7C228.9 800.7 229.7 800.7 230.6 800.8Z" fill="#337085"/>
<path d="M223.2 792.2C224.8 790.5 226.4 788.8 228 787.1C228.5 787.8 229 788.4 229.5 789.1C231 791.1 232.5 793.2 234.1 795.2C234.3 795.5 234.3 795.7 234.1 795.9C233.1 796.9 233.1 796.9 231.9 796.3C229.2 795 226.5 793.7 223.8 792.4C223.6 792.4 223.4 792.3 223.2 792.2Z" fill="#337085"/>
<path d="M235.5 794.5C233.6 791.9 231.7 789.4 229.8 786.8C229.1 785.9 229.1 785.9 229.9 785C231 783.8 232.2 782.5 233.3 781.3C233.4 781.2 233.5 781 233.7 780.8C233.8 781 233.8 781.2 233.9 781.3C234.8 785.1 235.6 788.8 236.5 792.6C236.7 793.3 236.6 793.7 236 794.1C235.8 794.3 235.7 794.4 235.5 794.5Z" fill="#337085"/>
<path d="M232.1 798.1C231.9 798.5 231.7 798.8 231.4 799.1C231.3 799.2 231 799.3 230.8 799.3C226.8 799 222.9 798.8 218.9 798.5C218.4 798.5 218 798.4 217.4 798.4C217.5 798.2 217.6 798.1 217.7 798C219 796.6 220.4 795.1 221.7 793.7C221.9 793.5 222 793.3 222.4 793.5C225.6 795.1 228.8 796.6 232.1 798.1Z" fill="#337085"/>
<path d="M220.3 793.1C218.9 794.5 217.7 795.9 216.3 797.3C216 795.8 215.7 794.4 215.4 792.9C217 793 218.6 793.1 220.3 793.1Z" fill="#337085"/>
<path d="M232.5 780C231.2 781.4 229.9 782.8 228.5 784.2C228.2 782.7 227.9 781.3 227.6 779.8C229.3 779.9 230.8 780 232.5 780Z" fill="#337085"/>
<path d="M226.4 786.6C225.1 788 223.8 789.4 222.4 790.8C222.1 789.3 221.8 787.9 221.5 786.4C223.2 786.5 224.7 786.5 226.4 786.6Z" fill="#337085"/>
<path d="M221 791.7C219.4 791.6 217.9 791.6 216.2 791.5C217.5 790.1 218.8 788.7 220.1 787.3C220.4 788.8 220.7 790.2 221 791.7Z" fill="#337085"/>
<path d="M227.1 785.1C225.5 785 223.9 785 222.3 784.9C223.6 783.5 224.9 782.1 226.2 780.7C226.6 782.2 226.8 783.6 227.1 785.1Z" fill="#337085"/>
<path d="M32.2 711.9C28.4 720.2 31.7 729.7 40 734.2C48 738.5 57.8 737 63.8 730.6C69.7 724.3 70 714.9 64.6 708.3C58.7 701.1 48 699.2 39.7 703.9C39.5 703 39.3 702.1 39.1 701.2C39.1 701.1 39.4 700.9 39.6 700.8C43.2 699.1 47 698.4 51 698.6C60.6 699.1 68.8 705.5 70.9 714.3C72.7 721.7 70.6 728.1 65 733.5C58.1 740.1 46.9 741.3 38.4 736.6C29.4 731.5 25.5 721.6 28.9 712.3C29.1 711.9 29.2 711.7 29.7 711.8C30.5 711.8 31.3 711.8 32.2 711.9Z" fill="#337085"/>
<path d="M24.8 703.3C26.4 701.6 28 699.9 29.6 698.2C30.1 698.9 30.6 699.5 31.1 700.2C32.6 702.2 34.1001 704.3 35.7001 706.3C35.9001 706.6 35.9001 706.8 35.7001 707C34.7001 708 34.7 708 33.5 707.4C30.8 706.1 28.1 704.8 25.4 703.5C25.1 703.5 25 703.4 24.8 703.3Z" fill="#337085"/>
<path d="M37.1 705.6C35.2 703 33.3 700.5 31.4 697.9C30.7 697 30.7 697 31.5 696.1C32.6 694.9 33.8 693.6 34.9 692.4C35 692.3 35.1 692.1 35.3 691.9C35.4 692.1 35.4 692.3 35.5 692.4C36.4 696.2 37.2 699.9 38.1 703.7C38.3 704.4 38.2 704.8 37.6 705.2C37.4 705.4 37.2 705.5 37.1 705.6Z" fill="#337085"/>
<path d="M33.7 709.2C33.5 709.6 33.3 709.9 33 710.2C32.9 710.3 32.6 710.4 32.4 710.4C28.4 710.1 24.5 709.9 20.5 709.6C20 709.6 19.6 709.5 19 709.5C19.1 709.3 19.2 709.2 19.3 709.1C20.6 707.7 22 706.2 23.3 704.8C23.5 704.6 23.6 704.4 24 704.6C27.2 706.2 30.4 707.7 33.7 709.2Z" fill="#337085"/>
<path d="M21.8 704.2C20.4 705.6 19.2 707 17.8 708.4C17.5 706.9 17.2 705.5 16.9 704C18.6 704.1 20.2 704.2 21.8 704.2Z" fill="#337085"/>
<path d="M34.1001 691.1C32.8001 692.5 31.5001 693.9 30.1001 695.3C29.8001 693.8 29.5001 692.4 29.2001 690.9C30.9001 691 32.4001 691.1 34.1001 691.1Z" fill="#337085"/>
<path d="M28 697.7C26.7 699.1 25.4 700.5 24 701.9C23.7 700.4 23.4 699 23.1 697.5C24.8 697.6 26.3 697.6 28 697.7Z" fill="#337085"/>
<path d="M22.6 702.8C21 702.7 19.5 702.7 17.8 702.6C19.1 701.2 20.4001 699.8 21.7001 698.4C22.0001 699.9 22.3 701.3 22.6 702.8Z" fill="#337085"/>
<path d="M28.7 696.2C27.1 696.1 25.5 696.1 23.9 696C25.2 694.6 26.5 693.2 27.8 691.8C28.1 693.3 28.4 694.7 28.7 696.2Z" fill="#337085"/>
</g>
</g>
<defs>
<clipPath id="clip0_30_23299">
<rect width="390" height="844" fill="white"/>
</clipPath>
</defs>
</svg>
