<svg width="390" height="844" viewBox="0 0 390 844" fill="none" xmlns="http://www.w3.org/2000/svg">
<g clip-path="url(#clip0_19_47233)">
<path d="M15.9 0.299927H0V646.4H15.9C47.4 459.4 44.9 241.7 15.9 0.299927Z" fill="#F6BBB5"/>
<path d="M0 646.4V844.3H15.9C47.5 787 44.9 720.4 15.9 646.4H0Z" fill="#F6BBB5"/>
<path d="M17.3001 34.4999C24.1001 187.4 24.3001 340.5 19.4001 493.5C17.9001 531.7 15.8001 570 12.8001 608.1L11.1001 627.2C10.4001 633.5 9.8001 639.9 9.1001 646.2C17.1001 443.9 22.6001 236.8 17.3001 34.4999Z" fill="#F0968E"/>
<path d="M8.7998 649.1C28.1998 712 28.5998 781.1 8.7998 844C15.2998 809.8 19.0998 775.2 18.4998 740.4C18.0998 709.7 14.2998 679.3 8.7998 649.1Z" fill="#F0968E"/>
<path d="M16 654H0V645H12.6C16 645 18.7 647.7 18.7 651.1V651.3C18.7 652.8 17.5 654 16 654Z" fill="#4C0003"/>
<path d="M374.1 0H390V646.1H374.1C342.6 459.1 345.1 241.4 374.1 0Z" fill="#F6BBB5"/>
<path d="M390 646.1V844H374.1C342.5 786.7 345.1 720.1 374.1 646.1H390Z" fill="#F6BBB5"/>
<path d="M373.2 34.2C366.4 237.8 373.4 443.3 381 645.8C380.3 639.5 379.6 633.1 379 626.8C377.9 615.2 376.6 600 375.9 588.7C369.9 506 368.2 423.1 367.7 340.2C367.3 238.5 366.9 134.8 373.2 34.2Z" fill="#F0968E"/>
<path d="M381.2 648.8C375.7 679 371.9 709.5 371.5 740.2C370.9 775 374.7 809.6 381.2 843.8C361.4 780.9 361.8 711.7 381.2 648.8Z" fill="#F0968E"/>
<path d="M374 653.7H390V644.7H377.4C374 644.7 371.3 647.4 371.3 650.8V651C371.3 652.5 372.5 653.7 374 653.7Z" fill="#4C0003"/>
<path d="M0.399902 -0.300049V86.8H0.499902C1.8999 107.1 18.7999 123 39.3999 123C59.9999 123 76.7999 107.1 78.2999 86.9H78.4999C79.9999 107.1 96.7999 123 117.4 123C138 123 154.8 107.1 156.3 86.9H156.5C158 107.1 174.8 123 195.4 123C216 123 232.8 107.1 234.3 86.9H234.5C236 107.1 252.8 123 273.4 123C294 123 310.8 107.1 312.3 86.9H312.5C314 107.1 330.8 123 351.4 123C372 123 388.8 107.1 390.3 86.9H390.4V-0.300049H0.399902Z" fill="#F0968E" stroke="#F6BBB5" stroke-miterlimit="10"/>
<path d="M78.5 86.8999V-0.200073" stroke="#F6BBB5" stroke-miterlimit="10" stroke-linecap="round"/>
<path d="M156.4 86.8999V-0.200073" stroke="#F6BBB5" stroke-miterlimit="10" stroke-linecap="round"/>
<path d="M234.4 86.8999V-0.200073" stroke="#F6BBB5" stroke-miterlimit="10" stroke-linecap="round"/>
<path d="M312.3 86.8999V-0.200073" stroke="#F6BBB5" stroke-miterlimit="10" stroke-linecap="round"/>
</g>
<defs>
<clipPath id="clip0_19_47233">
<rect width="390" height="844" fill="white"/>
</clipPath>
</defs>
</svg>
