<svg width="358" height="334" viewBox="0 0 358 334" fill="none" xmlns="http://www.w3.org/2000/svg">
<g clip-path="url(#clip0_57_53363)">
<path d="M191.1 137.6C196.3 138.1 201.4 139.6 206.4 141.1C215.3 143.7 224.3 146.4 233.2 149C227.3 169.6 218.7 191.6 201 204.3C187.5 214 170.2 217.7 153.5 217C138.5 216.4 119.1 210.8 105.1 205.6C101.9 204.4 102.1 201.9 103.7 197.9C106.9 189.6 111.5 181.6 117.5 174.8C124.8 166.5 133.9 160 143.3 153.9C157.6 144.7 173.9 135.9 191.1 137.6Z" fill="#4F0008"/>
<path d="M113.5 190.5C113.5 184.9 117.7 177.9 121.9 174.2C132.8 164.4 139.6 157.8 155.6 149.7C165 144.9 176.6 141.4 185.7 136.1C188.6 134.4 191.8 132.7 195.1 133.3C200.1 134.1 202.7 139.6 205.8 143.6C210.8 150.1 219 154 227.3 153.7C223 174 209 192.1 190.6 202C172.2 211.8 149.7 213.4 129.9 206.9C126 205.6 122 204 118.9 201.3C115.7 198.5 113.4 194.6 113.5 190.5Z" fill="#B21E34"/>
<path d="M73.4001 138C74.3001 140.9 74.1001 144 73.6001 147C78.7001 147.2 83.7001 148.6 88.8001 149.5C91.6001 148.9 94.5001 148.5 97.5001 148.2C102.3 147.4 107.5 147.5 111.8 147.6C112.1 147.6 112.4 147.7 112.7 147.8C113.5 147.3 114.5 147.2 115.3 147.7C121 151.2 143.4 156.7 141.4 166.7C141.3 167.1 141 167.5 140.7 167.8C140.8 168.7 139.7 169.4 138.8 169C129.2 164.6 119.1 161.2 109.5 156.9C108.4 156.4 108.1 155.4 108.4 154.4C103.8 154.5 99.2001 154.5 94.6001 154.4C93.5001 154.5 92.4001 154.6 91.2001 154.6C90.2001 154.6 89.5 153.9 89.2001 153.1C88.8001 153 88.3001 153 87.9001 152.9C87.7001 152.9 87.6001 152.8 87.5001 152.7C83.4001 152.7 79.2001 152.2 75.5001 151.1C74.5001 151 73.4001 150.8 72.4001 150.5C71.8001 150.3 71.5001 150 71.3001 149.5C71.3001 149.5 71.2001 149.5 71.2001 149.4C71.0001 149.3 70.8001 149 70.6001 148.8C69.8001 148.3 69.2001 147.7 68.5001 147C67.9001 146.4 67.5001 145.6 67.0001 144.9C66.5001 144.2 65.9001 143.7 65.6001 142.8C65.1001 141 67.0001 139.9 68.5001 140.6C69.2001 140.9 69.7001 141.6 70.1001 142.3C70.0001 140.9 69.9001 139.5 70.3001 138C70.8001 136.4 72.9001 136.6 73.4001 138Z" fill="#4F0008"/>
<path d="M185.1 105.6C184.7 102.1 184 99.6 182.9 100.1C182.4 100.3 182 100.6 181.5 100.8C181 100.7 180.5 100.9 180.3 101.4C175.5 103.8 171 106.7 166.5 109.5C165.5 102.9 167.5 96.2 169.5 89.8C168 90.6 166.8 92.1 166.2 93.7C165.6 92.5 164.9 91.4 164 90.4C163.8 90.2 163.5 89.9 163.2 90C162.5 90.1 162.6 91.1 162.9 91.7C165.1 96.7 163.5 101.2 162.9 106.3C162.4 109 162 111.6 161.5 114.3C161.4 114.8 161.9 115.2 162.3 115.2C163.5 116.6 180.1 108 180.1 107.7C180 111.8 179.7 115.8 179.3 119.9C178.1 127 176.6 134.1 174.7 141.1C174.2 142.7 176.2 143.4 177.3 142.5C178 142.5 178.7 142.5 179.5 142.5C180.1 142.6 180.5 142.3 180.7 141.8C183.8 134.9 185.2 127.4 185.5 119.9C185.6 118.4 185.7 111 185.1 105.6Z" fill="#4F0008"/>
<path d="M152.6 120.7C152.6 120.5 152.6 120.3 152.5 120.1C152.4 119.7 152.2 119.4 152 119.2C151.5 118.3 150.4 117.7 149.5 118.6C143.4 124.1 137.3 129.7 131.7 135.8C131.1 129.5 131.3 122 129.4 115.8C129.5 115.6 129.6 115.5 129.6 115.2C129.9 112.8 130.4 110.4 131.1 108.1C131.3 107.5 130.6 107.1 130.2 107.6C129 109 128.2 110.5 127.6 112.1C127.4 111.9 127.2 111.6 127 111.3C126.3 110.5 125.8 110.1 124.9 109.6C124.7 109.5 124.4 109.7 124.4 110C124.5 111.1 124.7 111.8 125.3 112.9C125.8 113.9 126.3 114.8 126.9 115.8C127 116 127.2 116.1 127.3 116.2C126.5 122.7 127.9 130.1 128.2 136.4C128.2 137 128.5 137.4 128.9 137.6C128.1 138.6 129.3 140.5 130.7 139.8C135 137.7 138.7 134.9 142.1 131.7C143.7 130.5 148 127.4 148.6 126.9C147.7 127.6 152.5 138.5 153 139.8C154.3 143 155.7 146.2 157.1 149.3C158 151.3 158.8 155 160.9 156.1C162 156.7 163.8 156.3 164 155C164 155.3 165.4 154.3 165.5 154C165.9 153.3 165.5 152.4 165.3 151.8C163.8 147.6 162.3 143.3 160.8 139.1C159.4 135.2 157.5 131.6 155.7 127.9C154.7 126 152.6 122.8 152.6 120.7Z" fill="#4F0008"/>
<path d="M131.6 166.5C132.3 164.5 133.5 162.9 135.2 161.7C137.3 160.1 139.2 161 141.5 161.1C141.8 161.1 142 160.7 141.8 160.5C140.1 158.8 137 159.4 135.1 160.4C132.8 161.5 131.6 164 131.2 166.4C131.1 166.7 131.5 166.8 131.6 166.5Z" fill="#BD5E31"/>
<path d="M158.7 149.9C159.8 148.7 161.1 147.5 162.6 146.9C163.7 146.5 165.5 147 166.2 146.1C166.3 146 166.4 145.8 166.3 145.7C165.7 144.1 163.1 144.9 161.9 145.4C160 146.3 158.6 147.6 158.1 149.6C158.1 149.8 158.5 150.1 158.7 149.9Z" fill="#BD5E31"/>
<path d="M175.8 137.9C177.2 138.3 178.3 138.9 179.3 139.9C179.7 140.2 180.3 140.2 180.6 139.7C181.2 138.4 182.1 137.3 183.3 136.4C184.1 135.8 184.9 135.6 185.1 134.5C185.1 134.3 185 134.2 184.9 134.1C182.6 132.5 179.8 137.4 179.2 139.1C179.6 138.9 180 138.8 180.4 138.6C179 137.8 177.5 137.5 176 137.5C175.6 137.5 175.6 137.9 175.8 137.9Z" fill="#BD5E31"/>
<path d="M198.4 133.7C192.5 129.8 183.4 132.6 180.6 139.1C178.2 137.3 174.8 136.9 172.1 138.3C169.4 139.7 167.6 142.6 167.7 145.7C162.3 144.6 156.6 149.6 156.9 155.1C151.8 152.9 145.1 157.5 145.4 163.1C143.4 160.6 139.6 159.6 136.7 160.8C133.7 162 131.8 165.4 132.1 168.6C130.3 166.7 126.9 167.4 125.2 169.4C123.5 171.4 123.2 174.2 123.3 176.9C120.4 175.4 116.5 177.1 115.1 180C113.7 182.9 114.3 186.6 116.1 189.3C117.8 192.1 120.5 194.1 123.3 195.8C142.2 208.1 167.3 210.4 188.1 201.6C208.9 192.9 224.8 173.2 228.8 151C218 150.7 202.4 143.6 198.4 133.7Z" fill="#F2B0A2"/>
<path d="M198.4 133.7C196.8 132.7 196.6 141.3 196.7 142.2C197.4 146.5 199.6 150.5 202.8 153.3C207.7 157.5 214.4 158.6 220.5 157.2C223.1 156.6 225.5 155.7 227.8 154.6C228.1 153.4 228.3 152.3 228.6 151.1C218 150.7 202.4 143.6 198.4 133.7Z" fill="#EE7675"/>
<path d="M244 113.4C240.4 108.9 236 104.7 230.5 103.2C225 101.7 219 103.3 214.3 106.4C209.6 109.6 206.1 114.3 203.5 119.3C200.9 124.3 199.1 129.8 199.2 135.4C199.3 141 201.4 146.7 205.7 150.4C210.5 154.5 217.4 155.5 223.6 154.2C229.8 152.9 235.3 149.5 240.3 145.6C245.2 141.9 249.9 137.1 250.8 131.1C251.7 124.7 248.1 118.5 244 113.4Z" fill="#F2B0A2"/>
<path d="M232 145.8C231.3 147.9 228.9 149 226.6 148.2C224.4 147.4 223.1 145.1 223.9 143C224.6 140.9 226.5 141.2 228.7 142C230.9 142.7 232.7 143.7 232 145.8Z" fill="#B1354E"/>
<path d="M212 128.5C211.3 130.4 209.2 131.3 207.2 130.6C205.2 129.9 204.1 127.8 204.8 126C205.5 124.1 207.1 124.2 209.1 124.9C211.1 125.6 212.6 126.6 212 128.5Z" fill="#B1354E"/>
<path d="M215.6 112.3C216.1 112.6 216.5 112.7 217.1 112.7C217.5 112.7 217.9 112.8 218.2 112.9C218.8 113.1 219.4 113.4 220 113.3C220.8 113.2 221.4 112.6 221.5 111.8C221.6 111.2 221.3 110.6 220.9 110.3C220 109.7 219 109.6 218 109.7C217 109.8 215.8 110.2 215.5 111.2C215.2 111.6 215.3 112.1 215.6 112.3Z" fill="#B21E34"/>
<path d="M243.2 133.4C242.7 133 242.6 132.7 242.4 132.1C242.3 131.7 242.1 131.3 241.9 131.1C241.6 130.6 241.2 130.1 241.1 129.5C241 128.7 241.4 128 242.1 127.7C242.6 127.5 243.3 127.5 243.8 127.9C244.6 128.6 244.9 129.5 245.1 130.6C245.2 131.6 245.2 132.8 244.2 133.4C244 133.6 243.5 133.6 243.2 133.4Z" fill="#B21E34"/>
<path d="M236.6 124.8C236.6 124.7 236.5 124.7 236.6 124.8C235.8 124.4 235 124.4 234.4 125C233.9 125.5 233.7 126.5 234.1 127.1C234.1 127.1 234.1 127.2 234.2 127.2C234.9 128.1 236.1 128.4 237 127.6C237.7 126.8 237.6 125.2 236.6 124.8Z" fill="#B1354E"/>
<path d="M237.1 113.9C237.5 113.4 237.8 112.7 237.6 111.9C237.3 110.3 236.2 109 234.8 108.2C233.7 107.6 232.2 107.9 231.5 109.1V109.2C231.1 109.3 230.7 109.7 230.8 110.2C231 111.2 231.4 112.1 232 112.9C232.7 113.7 233.6 114.4 234.6 114.9C235.7 115.3 236.8 114.8 237.1 113.9Z" fill="#B1354E"/>
<path d="M237.9 118.2C237.5 116.3 234.1 116.7 234.4 118.7C234.4 118.8 234.4 118.8 234.4 118.9C234.5 119.5 234.8 120 235.2 120.3C235.5 120.6 235.7 120.9 236 121.3C236.9 122.3 238.9 121.3 238.4 119.9C238.2 119.3 238 118.8 237.9 118.2Z" fill="#B1354E"/>
<path d="M229.7 121.8C229.3 121.3 228.7 121 228.1 121.1C227.6 120.9 226.9 121.2 226.9 122C226.9 122.2 226.9 122.4 227 122.6C227 122.8 227 123.1 227.2 123.3C227.5 124 228 124.5 228.7 124.8C229.8 125.3 231.1 124.2 230.4 123.1C230.2 122.6 230 122.2 229.7 121.8Z" fill="#B1354E"/>
<path d="M229.1 116.2C228.5 115 227.4 114 226 113.7C225.2 113.5 224.3 113.9 223.9 114.6C223.3 115 222.9 115.6 223.2 116.4C223.8 118.1 225.8 119 227.5 119C229 119.1 229.6 117.4 229.1 116.2Z" fill="#B1354E"/>
<path d="M226.6 107.8C227.2 107.8 227.5 107.1 227.2 106.7C226.9 106.2 226.7 106 226.2 105.9H226.1C225.7 105.2 224.4 105.5 224.7 106.4C225.1 107.2 225.7 107.7 226.6 107.8Z" fill="#B1354E"/>
<path d="M223.8 126.1C223.6 125.8 223.4 125.5 223 125.4C222.7 125.3 222.4 125.4 222.2 125.4C221.5 125.5 221 126.5 221.8 127C222.3 127.3 222.7 127.4 223.2 127.2C223.5 127.2 223.7 127.1 223.7 126.9C223.9 126.7 224 126.3 223.8 126.1Z" fill="#B1354E"/>
<path d="M226.9 128.4C226.9 128.1 226.6 127.8 226.4 127.7C226.1 127.6 225.7 127.6 225.5 127.8C225.3 128 225.2 128.2 225.3 128.5C225.4 128.7 225.6 129 225.9 129C226 129 226 129 226.1 129C226.5 129.1 226.9 128.8 226.9 128.4Z" fill="#B1354E"/>
<path d="M220.5 127.8C220.4 127.8 220.4 127.7 220.3 127.7C220 127.3 219.4 127.7 219.6 128.1C219.7 128.3 219.9 128.5 220.1 128.5C220.7 128.6 220.9 128 220.5 127.8Z" fill="#B1354E"/>
<path d="M224.9 129.8C224.2 129.5 223.2 130.3 223.8 131C223.9 131.2 224.1 131.3 224.3 131.5C224.7 131.8 225.3 131.5 225.5 131.1C225.8 130.6 225.5 129.8 224.9 129.8Z" fill="#B1354E"/>
<path d="M246.8 122.1C247 121.2 246.7 120.5 246.2 119.7C245.7 118.8 244.6 119.3 244.3 120.1C244.2 120.2 244.1 120.3 244.2 120.5C244.3 121.4 244.7 122.1 245.4 122.6C246.1 123 246.7 122.7 246.8 122.1Z" fill="#B1354E"/>
<path d="M160.4 260.1C158.8 258 156.3 256.6 153.9 255.3C156.3 251.5 157.8 247 159.7 242.8C161.6 241 163.3 239.1 165.1 237C168.2 233.9 170.7 229.9 172.9 226.7C173.1 226.4 173.2 226.2 173.2 225.9C173.9 225.6 174.5 224.8 174.6 224C174.9 218 182.3 198.6 173.8 195C173.4 194.8 173 194.9 172.6 195C172 194.5 170.9 194.9 170.8 195.8C169.2 205.1 166.6 214.3 164.8 223.6C164.6 224.7 165.2 225.4 166.1 225.7C163.7 229.1 161.4 232.5 159.1 235.9C158.5 236.7 157.8 237.5 157.3 238.3C156.8 239.1 156.9 239.9 157.4 240.5C157.2 240.8 157 241.2 156.9 241.5C156.8 241.6 156.8 241.8 156.8 241.9C154.8 244.9 153 248.3 151.9 251.6C151.5 252.4 151.1 253.3 150.8 254.2C150.6 254.7 150.7 255.1 151 255.5V255.6C151 255.8 151 256.1 151.2 256.4C151.2 257.2 151.3 258.1 151.5 258.9C151.7 259.6 152 260.4 152.3 261.1C152.6 261.8 152.6 262.5 153.1 263.2C154.2 264.5 155.9 263.6 156.2 262.2C156.3 261.5 156.1 260.8 155.7 260.2C156.7 261 157.7 261.8 159 262.2C160.3 262.8 161.3 261.1 160.4 260.1Z" fill="#4F0008"/>
<path d="M207.5 118.1C210.4 117.1 213.6 117.6 215.1 120.6C215.7 121.8 215.5 123.2 215.4 124.5C215.3 125 215.9 125.5 216.4 125.5C216.9 125.5 217.2 125.2 217.3 124.8C219.4 119.1 211.7 113.7 207.3 117.9C207.2 118 207.3 118.2 207.5 118.1Z" fill="#B21E34"/>
<path d="M228.9 134.3C231.3 134 233.7 134.9 235.1 136.9C236.5 138.9 235.6 141.7 235.2 143.9C235.1 144.2 235.4 144.4 235.6 144.2C238.5 142.6 238.3 139 237.1 136.4C235.7 133.3 231.8 132 228.7 132.9C228 133.1 228.1 134.4 228.9 134.3Z" fill="#B21E34"/>
<path d="M212.7 137.6C210.8 137 208.7 137.6 207.4 139C207.5 139.9 208.2 140.4 209 140.7C212.9 142.2 211.9 145.8 214.5 148.4C214.5 148.4 214.6 148.4 214.6 148.5C216.1 147 216.9 144.9 216.7 142.8C216.4 140.4 214.8 138.3 212.7 137.6Z" fill="#B21E34"/>
<path d="M242.8 121.2C254.8 112.6 267.6 103.6 283 103.9C291.7 104.1 299.7 108.4 304.3 115.8C308.5 122.5 308.2 132.1 308.6 139.7C308.6 140.4 309.6 140.4 309.7 139.7C311.2 123 307.3 107.5 289.4 102.8C271.6 98.1 255.3 110.3 242.2 120.5C241.9 120.8 242.4 121.6 242.8 121.2Z" fill="#4F0008"/>
<path d="M232.4 106.1C244.2 95.3 259.6 86.1 275.8 92.9C291.3 99.5 288.4 117.8 286.9 131.1C286.8 131.6 287.6 131.6 287.7 131.2C291.5 116.7 291.4 99.5 276.6 91.6C260.5 83.1 243.1 94.4 232 105.6C231.6 106 232.1 106.4 232.4 106.1Z" fill="#4F0008"/>
<path d="M132 167.2C132 167.7 132 168.1 132 168.6C131.6 168.2 131.1 167.9 130.6 167.7C130.6 167.7 130.6 167.8 130.7 167.8C135.4 174 140 179.5 143 186.8C145.4 192.7 146.1 199 146.4 205.3C147 205.4 147.6 205.5 148.2 205.6C150.1 191.9 143.6 174.7 132 167.2Z" fill="#4F0008"/>
<path d="M123.2 175.8C123.2 176.2 123.2 176.5 123.2 176.9C122.8 176.7 122.3 176.5 121.8 176.4C130 183.8 133.8 191.9 135.3 202C136.2 202.4 137.1 202.7 138 203C138.2 192.5 131.8 181.5 123.2 175.8Z" fill="#4F0008"/>
<path d="M164.9 206.8C165.3 190.1 157.3 173.5 145.3 162C145.3 162.3 145.3 162.7 145.3 163C144.9 162.5 144.4 162 143.9 161.7C143.8 161.9 143.9 162.1 144 162.2C156.4 174.7 161.9 190 163 206.9C163.7 206.9 164.3 206.9 164.9 206.8Z" fill="#4F0008"/>
<path d="M210.4 186.2C210.7 167.5 196.2 147.9 181 138.9C180.9 138.8 180.8 138.8 180.7 138.8C180.7 138.9 180.6 139 180.5 139.1C180.4 139 180.3 139 180.2 138.9C179.9 139.1 179.9 139.6 180.3 139.9C188.4 145.6 195.1 152.7 200.3 161.2C205.5 169.7 206.7 178.4 208.8 187.7C209.4 187.2 209.9 186.7 210.4 186.2Z" fill="#4F0008"/>
<path d="M201 194.3C199.6 173.9 185.8 153.7 168 144.6C167.9 144.5 167.8 144.5 167.7 144.5C167.7 144.9 167.6 145.2 167.6 145.6C167.5 145.6 167.4 145.6 167.4 145.6C186 157.7 195.9 174.8 199.2 195.6C199.8 195.2 200.4 194.7 201 194.3Z" fill="#4F0008"/>
<path d="M177.4 175.1C173 167.4 165.5 157.7 156.8 154.5C156.8 154.7 156.8 154.8 156.8 155C156.7 155 156.7 155 156.6 154.9C159.2 157.8 162.5 160.2 165.3 162.9C169.4 166.7 172.7 171.3 175.7 176C180.8 184.1 183.5 193.4 185 202.7C185.3 202.6 185.7 202.4 186 202.3C185.4 192.6 182.3 183.6 177.4 175.1Z" fill="#4F0008"/>
<path d="M284.1 158C282.5 158.8 279.2 160.5 279.2 160.5C279.5 158.8 279.5 157 279.6 155.4C279.7 154.3 278.1 154.2 277.8 155.2C277.2 157.2 276.4 159.3 276.2 161.4C276.2 161.6 276.2 161.8 276.3 162C275.8 162.3 275.3 162.8 275 163.3C274.9 163.5 274.9 163.7 275 163.8C273.2 165.7 271.4 167.5 269.6 169.4C267.5 171.6 264.7 173.8 262.8 176.3C262.5 175.4 262.2 174.4 261.8 173.5C260.7 166.5 259.5 159.1 257.3 152.3C257.4 152.2 257.5 152.1 257.7 152C257.8 151.9 257.9 151.8 258.1 151.7C259.3 150.7 258.2 148.9 256.9 148.9C256.9 148.5 256.5 148.2 256.1 148.4C256 148.5 255.9 148.5 255.7 148.6C255.4 148.5 255.1 148.6 255 148.9C243.7 154.2 233.6 159.1 220.9 160.2C220 160.3 219.4 160.8 219.4 161.7C219.2 163.5 216.6 165.4 218.5 167.3C220.4 169.2 224.4 167.5 226.3 167.1C235.5 165.1 244.4 161.2 252.3 155.9C254.5 163.9 257.2 171.6 260.8 179C260.9 179.3 261 179.6 261.1 179.8C261.2 180 261.3 180.2 261.5 180.4C261.6 180.6 261.7 180.9 261.8 181.1C262.5 182.6 264.7 181.5 264.3 180.1C270 174.8 275 168.7 279.7 162.6C279.8 162.5 279.8 162.4 279.8 162.4C281.5 161.4 283.3 160.5 285 159.5C286 158.9 285.1 157.5 284.1 158Z" fill="#4F0008"/>
<path d="M237.6 207.6C236.5 207.5 235.5 207.6 234.5 207.8C234.4 207.6 234.2 207.4 233.9 207.4C234.3 206.1 234.6 204.8 234.9 203.4C235.1 202.6 234.1 202.3 233.7 202.9C232.8 204.2 231.9 205.4 231.3 206.8C230.9 207.7 230.4 208.6 230.3 209.5C227.8 211.4 225.2 213.3 222.8 215.2C221.6 216 220.5 216.8 219.3 217.5C219.6 216.8 219.8 216.1 220.1 215.4C221.3 213.4 222.2 211.1 222.8 208.7C224.4 204.8 224.3 204.8 226 200.9C226.1 200.7 226.5 200.4 227 200C228.8 198.6 228.3 195.7 226.1 195C224 194.4 221.9 193.7 221.7 193.7C209.1 191.4 201 189.7 188.4 187.3C187.6 187.1 186.5 187.7 186.6 188.7C186.6 189.3 186.7 190 186.7 190.6C186.2 191.8 185.9 193 185.8 194.3C185.6 195.3 186.2 196.1 187.2 196.1C198.5 196.9 208.6 200.2 219.9 200.5C216.1 209 216.1 216.3 214 225.3C213.7 226.7 215.7 227.3 216.2 225.9C216.3 225.9 216.4 225.9 216.5 225.9C220.1 225.1 223 221.6 225.4 219C227.7 216.5 229.9 213.9 232.1 211.2C232.9 211.3 233.7 210.9 234.6 210.5C236 210 236.9 209.4 238 208.5C238.4 208.2 238.1 207.6 237.6 207.6Z" fill="#4F0008"/>
<path d="M190.1 139.5C189.9 138.3 189.5 137.5 188.7 136.8C187.9 136 187 135.8 185.8 136.2C184.1 136.8 183.7 138.6 184.3 140.1C184.6 140.9 185.4 141.4 186.3 141.5C186.5 141.7 186.6 141.7 186.8 141.7C187.7 142 188.6 141.7 189.4 141.2C190.1 140.9 190.3 140.1 190.1 139.5Z" fill="#B1354E"/>
<path d="M194.2 135.8C193.8 135.3 193.4 134.8 192.8 134.4C192.4 134.2 192 134.2 191.6 134.2C190.9 134.1 190 134.7 190.2 135.6C190.4 136.4 190.7 137.3 191.4 137.7C192.1 138.2 193 138.2 193.7 137.8C194.6 137.4 194.7 136.4 194.2 135.8Z" fill="#B1354E"/>
<path d="M193.8 142.8C193.7 142.7 193.7 142.7 193.6 142.6C192.9 142.1 192 143 192.4 143.7C192.6 144.1 192.9 144.3 193.2 144.5C194.6 145.3 195.3 143.1 193.8 142.8Z" fill="#B1354E"/>
<path d="M182 148.3C181.9 147.5 181.6 146.9 181.1 146.2C180.3 145.4 179 145.7 178.8 147C178.7 147.5 178.9 147.8 179.3 148.2C179.6 148.8 180.1 149.3 180.8 149.6C181.5 149.5 182.1 148.9 182 148.3Z" fill="#B1354E"/>
<path d="M189.2 154.8C188.9 154.2 188.4 154.2 188 154.3C187.3 154.2 186.6 154.9 187.2 155.6C187.4 155.8 187.6 156.1 187.8 156.4C188.2 156.8 188.9 156.9 189.2 156.3C189.5 155.8 189.4 155.3 189.2 154.8Z" fill="#B1354E"/>
<path d="M168.4 150.6C168.7 149.5 167.9 147.9 166.6 148.2C166.4 148.2 166.3 148.4 166.1 148.4C165.5 148.4 165 148.9 165 149.7C165.1 150.2 165.3 150.8 165.8 151.1C166.3 151.4 166.7 151.4 167.2 151.5C167.7 151.5 168.3 151.1 168.4 150.6Z" fill="#B1354E"/>
<path d="M165 156.4C164.4 156.2 163.9 155.9 163.7 155.4C163.4 154.8 162.5 155.2 162.8 155.9C163.1 156.8 163.7 157.4 164.5 157.8C165.3 158.2 165.9 156.7 165 156.4Z" fill="#B1354E"/>
<path d="M214.5 113.7C214.9 114.7 215.2 116 214.5 116.9C214.3 117.1 213.4 117.4 213.2 117C213.5 116.3 213.6 116.1 214.1 115.5C214.3 114.9 214.4 114.3 214.5 113.7C214.4 113.7 214.5 113.7 214.5 113.7Z" fill="#B21E34"/>
<path d="M212.8 113.8C213.2 114.8 213.5 116.1 212.8 117C212.6 117.2 211.7 117.5 211.5 117.1C211.8 116.4 211.9 116.2 212.4 115.6C212.7 115.1 212.7 114.4 212.8 113.8C212.7 113.8 212.8 113.8 212.8 113.8Z" fill="#B21E34"/>
<path d="M210.9 114C211.3 115 211.6 116.3 210.9 117.2C210.7 117.4 209.8 117.7 209.6 117.3C209.9 116.6 210 116.4 210.5 115.8C210.8 115.3 210.8 114.6 210.9 114C210.8 114 210.9 114 210.9 114Z" fill="#B21E34"/>
<path d="M209.1 114.1C209.5 115.1 209.8 116.4 209.1 117.3C208.9 117.5 208 117.8 207.8 117.4C208.1 116.7 208.2 116.5 208.7 115.9C208.9 115.4 209 114.7 209.1 114.1C209 114.1 209.1 114.1 209.1 114.1Z" fill="#B21E34"/>
<path d="M240.9 142.1C240 142.7 238.7 143.2 237.7 142.5C237.5 142.3 237 141.5 237.4 141.3C238.2 141.5 238.3 141.6 239 141.9C239.6 142.1 240.3 142.1 240.9 142.1C240.9 142 240.9 142.1 240.9 142.1Z" fill="#B21E34"/>
<path d="M240.6 140.5C239.7 141.1 238.4 141.6 237.4 140.9C237.2 140.7 236.7 139.9 237.1 139.7C237.9 139.9 238 140 238.7 140.3C239.3 140.5 239.9 140.5 240.6 140.5C240.6 140.4 240.6 140.5 240.6 140.5Z" fill="#B21E34"/>
<path d="M240.1 138.6C239.2 139.2 237.9 139.7 236.9 139C236.7 138.8 236.2 138 236.6 137.8C237.4 138 237.5 138.1 238.2 138.4C238.8 138.7 239.5 138.6 240.1 138.6C240.1 138.5 240.1 138.6 240.1 138.6Z" fill="#B21E34"/>
<path d="M239.8 136.8C238.9 137.4 237.6 137.9 236.6 137.2C236.4 137 235.9 136.2 236.3 136C237.1 136.2 237.2 136.3 237.9 136.6C238.5 136.8 239.1 136.8 239.8 136.8C239.7 136.7 239.8 136.8 239.8 136.8Z" fill="#B21E34"/>
<path d="M164.6 279.8C164.6 279.8 170.5 282.2 174.7 282.3C178.2 282.4 184.1 284.7 184.1 284.7C184.1 284.7 185.1 283.4 184.9 282.6C181.9 280.4 172.2 276.5 172.2 276.5L164.6 279.8Z" fill="#B21E34"/>
<path d="M160 265.8C166.2 266.8 167.5 267.2 178.8 265.2C190.1 263.2 186.6 263.3 194.6 260.8C200.1 259.1 203.9 258.4 205.7 260.5C207.5 262.5 206.9 265 203.4 271.1C198.3 280.2 191.4 279.8 185 279.3C174.4 278.5 172.7 283.4 163.5 279C158.5 276.8 154.7 269.1 160 265.8Z" fill="#FAFFFA"/>
<path d="M179.6 269.7C176.1 270.2 165.8 269.5 163.3 271.5C161.7 272.7 161.5 274 161.6 275C159.1 274.2 157.4 272.8 157.7 269.6C158.4 263.7 162.5 265.7 169.8 265.6C178.1 265.5 188.3 263.3 188.3 263.3C189.9 262.9 192.2 263.2 193.6 264.1C190.5 265.8 187.8 268.6 179.6 269.7Z" fill="#B21E34"/>
<path d="M194.9 266.7C193.8 270.3 192.4 272.7 187.2 273.8C182.6 274.7 175 276.5 169.9 276.1C167.3 275.8 164.2 275.7 161.8 275C161.8 274.2 161.9 272.7 163.5 271.5C165.9 269.7 176.2 270.2 179.8 269.7C188.1 268.6 190.7 265.7 193.9 263.9C194.7 264.7 195.3 265.5 194.9 266.7Z" fill="#B21E34"/>
<path d="M161.3 274.9C161.3 274.9 169.6 271.1 170.7 266.3C171.5 263 167.7 262.3 165.7 262.9C163.7 263.3 161.3 265.3 160.6 265.7L162.9 265.4C162.9 265.4 167.7 261.9 168 265.3C168.3 268.8 159.1 273.7 159.1 273.7L161.3 274.9Z" fill="#FAFFFA"/>
<path d="M48 125.1C48 125.1 48.4 118.8 50.1 114.9C51.5 111.7 52 105.4 52 105.4C52 105.4 53.6 105 54.3 105.6C55 109.3 54.3 119.7 54.3 119.7L48 125.1Z" fill="#B21E34"/>
<path d="M58.6 135.3C60.4 129.3 60.5 127.9 67.2 118.6C73.9 109.3 72.3 112.4 77.9 106.3C81.8 102.1 84.1 98.9 83 96.4C81.9 93.9 79.5 93.4 72.4 93.9C62 94.6 59.4 100.9 57.1 106.9C53.2 116.8 48.1 116.2 48.1 126.4C48 132 53.1 138.7 58.6 135.3Z" fill="#FAFFFA"/>
<path d="M63.3 116C61.4 119 57.5 128.5 54.7 129.9C52.9 130.8 51.7 130.4 50.8 129.9C50.4 132.5 51 134.7 54 135.7C59.6 137.6 59.6 133.1 62.8 126.5C66.5 119.1 72.8 110.8 72.8 110.8C73.9 109.6 74.6 107.3 74.4 105.7C71.8 107.9 67.9 109.1 63.3 116Z" fill="#B21E34"/>
<path d="M72.6 103.5C68.9 103 66.1 103.1 62.9 107.4C60.1 111.1 55.2 117.3 53.4 122C52.5 124.5 51.3 127.3 50.9 129.7C51.6 130.1 53 130.6 54.8 129.7C57.4 128.3 61.5 118.8 63.4 115.8C68 108.8 71.7 107.7 74.7 105.6C74.6 104.5 73.9 103.6 72.6 103.5Z" fill="#B21E34"/>
<path d="M51 130.2C51 130.2 58 124.4 62.8 125.4C66.1 126.1 65.1 129.8 63.7 131.4C62.5 133 59.7 134.4 58.9 134.7L60.1 132.8C60.1 132.8 65.4 130 62.4 128.2C59.4 126.4 51 132.6 51 132.6V130.2Z" fill="#FAFFFA"/>
<path d="M8.9 -137.5H0V223.5H8.9C26.5 119 25.1 -2.60001 8.9 -137.5Z" fill="#F6BBB5"/>
<path d="M0.0999756 223.4V334H8.99998C26.7 302 25.2 264.8 8.99998 223.4H0.0999756Z" fill="#F6BBB5"/>
<path d="M9.69995 -118.4C13.5 -33 13.6 52.6 10.9 138C10.1 159.3 8.89995 180.7 7.19995 202L6.29995 212.7C5.89995 216.2 5.59995 219.8 5.19995 223.3C9.59995 110.4 12.7 -5.3 9.69995 -118.4Z" fill="#F0968E"/>
<path d="M4.90002 224.9C15.8 260 16 298.7 4.90002 333.8C8.50002 314.7 10.7 295.4 10.3 275.9C10.2 258.9 8.00002 241.8 4.90002 224.9Z" fill="#F0968E"/>
<path d="M8.99998 227.7H0.0999756V222.7H7.09998C8.99998 222.7 10.5 224.2 10.5 226.1V226.2C10.5 227 9.79998 227.7 8.99998 227.7Z" fill="#4C0003"/>
<path d="M0 -70.5V9.5H0.1C1.5 28 16.9 42.6 35.8 42.6C54.7 42.6 70.1 28 71.5 9.5H71.7C73.1 28 88.5 42.6 107.4 42.6C126.3 42.6 141.7 28 143.1 9.5H143.3C144.7 28 160.1 42.6 179 42.6C197.9 42.6 213.3 28 214.7 9.5H214.9C216.3 28 231.7 42.6 250.6 42.6C269.5 42.6 284.9 28 286.3 9.5H286.5C287.9 28 303.3 42.6 322.2 42.6C341.1 42.6 356.5 28 357.9 9.5H358V-70.5H0Z" fill="#F0968E" stroke="#F6BBB5" stroke-miterlimit="10"/>
<path d="M71.7 9.60001V-70.4" stroke="#F6BBB5" stroke-miterlimit="10" stroke-linecap="round"/>
<path d="M143.1 9.60001V-70.4" stroke="#F6BBB5" stroke-miterlimit="10" stroke-linecap="round"/>
<path d="M214.7 9.60001V-70.4" stroke="#F6BBB5" stroke-miterlimit="10" stroke-linecap="round"/>
<path d="M286.3 9.60001V-70.4" stroke="#F6BBB5" stroke-miterlimit="10" stroke-linecap="round"/>
<path d="M349.1 -137.5H358V223.5H349.1C331.5 119 332.9 -2.60001 349.1 -137.5Z" fill="#F6BBB5"/>
<path d="M357.9 223.4V334H349C331.3 302 332.8 264.8 349 223.4H357.9Z" fill="#F6BBB5"/>
<path d="M348.3 -118.4C344.5 -33 344.4 52.6 347.1 138C347.9 159.3 349.1 180.7 350.8 202L351.7 212.7C352.1 216.2 352.4 219.8 352.8 223.3C348.4 110.4 345.3 -5.3 348.3 -118.4Z" fill="#F0968E"/>
<path d="M353.1 224.9C342.2 260 342 298.7 353.1 333.8C349.5 314.7 347.3 295.4 347.7 275.9C347.8 258.9 350 241.8 353.1 224.9Z" fill="#F0968E"/>
<path d="M349 227.7H357.9V222.7H350.9C349 222.7 347.5 224.2 347.5 226.1V226.2C347.5 227 348.2 227.7 349 227.7Z" fill="#4C0003"/>
</g>
<defs>
<clipPath id="clip0_57_53363">
<rect width="358" height="334" rx="8" fill="white"/>
</clipPath>
</defs>
</svg>
