<svg width="18" height="18" viewBox="0 0 18 18" fill="none" xmlns="http://www.w3.org/2000/svg">
<path d="M1.6875 4.51125C1.90042 5.51885 2.41757 6.43679 3.16905 7.14098C3.92052 7.84517 4.87008 8.30166 5.88938 8.44875L6.03562 8.47125M16.4981 4.51125C16.2852 5.51885 15.7681 6.43679 15.0166 7.14098C14.2651 7.84517 13.3155 8.30166 12.2963 8.44875L12.15 8.47125M16.4981 13.8769C16.2852 12.8693 15.7681 11.9513 15.0166 11.2471C14.2651 10.543 13.3155 10.0865 12.2963 9.93938L12.15 9.91687M1.6875 13.8769C1.90042 12.8693 2.41757 11.9513 3.16905 11.2471C3.92052 10.543 4.87008 10.0865 5.88938 9.93938L6.03562 9.91687M14.4731 1.6875C14.4731 3.59438 13.3706 5.32687 11.6381 6.13125L10.6481 6.5925M3.7125 1.6875C3.7125 3.59438 4.815 5.32687 6.5475 6.13125L7.5375 6.5925M3.7125 16.7963C3.7125 14.8894 4.815 13.1569 6.5475 12.3525L7.5375 11.8912M14.4731 16.7963C14.4731 14.8894 13.3706 13.1569 11.6381 12.3525L10.6481 11.8912" stroke="#D7E4E7" stroke-width="0.5625" stroke-miterlimit="10" stroke-linecap="round" stroke-linejoin="round"/>
<path d="M9.39937 1.6875V3.18375H10.17V2.45812C10.17 2.03625 9.82687 1.6875 9.39937 1.6875ZM8.78625 1.6875V3.18375H8.01562V2.45812C8.01562 2.03625 8.35875 1.6875 8.78625 1.6875Z" fill="#D7E4E7"/>
<path d="M10.8619 6.13125C11.111 5.77296 11.2445 5.34701 11.2444 4.91063C11.2449 4.57344 11.166 4.24086 11.0141 3.93981C10.8623 3.63875 10.6417 3.37765 10.3702 3.17764C10.0988 2.97763 9.78403 2.84431 9.4515 2.78846C9.11897 2.73261 8.77796 2.75581 8.45605 2.85618C8.13414 2.95654 7.84037 3.13126 7.5985 3.36619C7.35663 3.60113 7.17344 3.88969 7.06375 4.20854C6.95406 4.52739 6.92095 4.86758 6.96709 5.2016C7.01324 5.53561 7.13734 5.85408 7.32937 6.13125C6.51815 6.47751 5.82656 7.05451 5.34054 7.79055C4.85451 8.52659 4.59548 9.38922 4.59562 10.2713C4.59562 12.7575 6.60937 14.7713 9.09562 14.7713C11.5819 14.7713 13.5956 12.7575 13.5956 10.2713C13.5956 8.415 12.465 6.82313 10.8619 6.13125Z" fill="#D7E4E7"/>
<path d="M14.7544 1.6875C14.7544 1.61291 14.7247 1.54137 14.672 1.48863C14.6193 1.43588 14.5477 1.40625 14.4731 1.40625C14.3985 1.40625 14.327 1.43588 14.2743 1.48863C14.2215 1.54137 14.1919 1.61291 14.1919 1.6875C14.1926 2.56789 13.9414 3.4301 13.468 4.17236C12.9945 4.91461 12.3186 5.50591 11.52 5.87644L10.9187 6.156C10.9 6.14765 10.8812 6.1394 10.8624 6.13125C11.0314 5.88719 11.148 5.61074 11.2048 5.31935C11.2615 5.02797 11.2573 4.72798 11.1923 4.43832C11.1272 4.14867 11.0029 3.87564 10.827 3.63647C10.6512 3.39729 10.4277 3.19718 10.1706 3.04875V2.45812C10.1698 2.25378 10.0882 2.05803 9.94363 1.91363C9.79903 1.76924 9.60316 1.68794 9.39881 1.6875V2.78325C9.19544 2.7544 8.989 2.75459 8.78569 2.78381V1.6875C8.35819 1.6875 8.01506 2.03625 8.01506 2.45812V3.05269C7.75899 3.20162 7.5365 3.40192 7.36158 3.641C7.18666 3.88007 7.06309 4.15275 6.99863 4.44188C6.93418 4.73102 6.93024 5.03036 6.98707 5.32109C7.04389 5.61182 7.16024 5.88766 7.32881 6.13125C7.30869 6.13974 7.28863 6.14836 7.26862 6.15712L6.66562 5.87587C5.86714 5.50533 5.1913 4.91411 4.71788 4.17198C4.24445 3.42984 3.99319 2.56778 3.99375 1.6875C3.99375 1.61291 3.96412 1.54137 3.91137 1.48863C3.85863 1.43588 3.78709 1.40625 3.7125 1.40625C3.63791 1.40625 3.56637 1.43588 3.51363 1.48863C3.46088 1.54137 3.43125 1.61291 3.43125 1.6875C3.43068 2.67509 3.71266 3.64224 4.2439 4.47478C4.77514 5.30732 5.53347 5.9705 6.42937 6.38606L6.65325 6.49069C6.05831 6.87604 5.56233 7.39591 5.20537 8.00831C4.39736 7.75801 3.67081 7.29655 3.10074 6.6716C2.53067 6.04666 2.13776 5.28087 1.96256 4.45331C1.94553 4.38198 1.90131 4.32013 1.83933 4.28093C1.77735 4.24174 1.70251 4.2283 1.63077 4.24348C1.55902 4.25867 1.49604 4.30128 1.45526 4.36222C1.41448 4.42317 1.39911 4.49764 1.41244 4.56975C1.60519 5.47981 2.03341 6.32336 2.65428 7.01609C3.27516 7.70883 4.06696 8.2265 4.95056 8.51737C4.7515 8.98751 4.63431 9.48823 4.60406 9.99788C3.80071 10.3259 3.08986 10.8456 2.53353 11.5115C1.9772 12.1775 1.59231 12.9695 1.41244 13.8184C1.39823 13.8908 1.41307 13.9659 1.45376 14.0275C1.49444 14.0891 1.55772 14.1322 1.62992 14.1476C1.70212 14.163 1.77747 14.1493 1.8397 14.1096C1.90193 14.0699 1.94606 14.0073 1.96256 13.9354C2.1154 13.2138 2.43398 12.5377 2.89311 11.9604C3.35223 11.3832 3.93933 10.9206 4.608 10.6093C4.66465 11.3815 4.92068 12.1257 5.35106 12.7693C4.75114 13.255 4.26739 13.8687 3.93522 14.5654C3.60305 15.2622 3.43086 16.0244 3.43125 16.7963C3.43125 16.8708 3.46088 16.9424 3.51363 16.9951C3.56637 17.0479 3.63791 17.0775 3.7125 17.0775C3.78709 17.0775 3.85863 17.0479 3.91137 16.9951C3.96412 16.9424 3.99375 16.8708 3.99375 16.7963C3.99334 16.1109 4.14558 15.434 4.43942 14.8148C4.73325 14.1956 5.16131 13.6496 5.6925 13.2165C6.11454 13.7052 6.63705 14.097 7.22435 14.3653C7.81166 14.6337 8.44993 14.7721 9.09562 14.7712C9.74076 14.772 10.3785 14.6338 10.9654 14.3658C11.5522 14.0979 12.0745 13.7067 12.4965 13.2188C13.0268 13.652 13.454 14.1977 13.7472 14.8165C14.0405 15.4353 14.1924 16.1115 14.1919 16.7963C14.1919 16.8708 14.2215 16.9424 14.2743 16.9951C14.327 17.0479 14.3985 17.0775 14.4731 17.0775C14.5477 17.0775 14.6193 17.0479 14.672 16.9951C14.7247 16.9424 14.7544 16.8708 14.7544 16.7963C14.7544 15.2123 14.0344 13.7419 12.8379 12.7721C13.2691 12.1287 13.5259 11.3845 13.5832 10.6121C14.2505 10.9238 14.8363 11.3863 15.2944 11.963C15.7525 12.5397 16.0704 13.2149 16.2231 13.9354C16.2396 14.0073 16.2837 14.0699 16.3459 14.1096C16.4082 14.1493 16.4835 14.163 16.5557 14.1476C16.6279 14.1322 16.6912 14.0891 16.7319 14.0275C16.7726 13.9659 16.7874 13.8908 16.7732 13.8184C16.5935 12.9705 16.2094 12.1795 15.6542 11.514C15.0991 10.8485 14.3896 10.3288 13.5877 10.0001C13.5575 9.48915 13.4395 8.9872 13.239 8.51625C14.1217 8.22489 14.9126 7.70713 15.5328 7.01465C16.1529 6.32216 16.5806 5.47916 16.7732 4.56975C16.7815 4.53338 16.7825 4.49572 16.7762 4.45896C16.7698 4.42219 16.7562 4.38706 16.7362 4.35561C16.7161 4.32415 16.69 4.29701 16.6593 4.27575C16.6286 4.25449 16.5941 4.23955 16.5576 4.23179C16.5211 4.22402 16.4834 4.2236 16.4467 4.23054C16.4101 4.23748 16.3752 4.25165 16.344 4.27221C16.3129 4.29278 16.2862 4.31933 16.2654 4.35032C16.2446 4.38132 16.2302 4.41614 16.2231 4.45275C16.0481 5.27997 15.6556 6.04554 15.0861 6.67046C14.5165 7.29538 13.7906 7.75702 12.9831 8.00775C12.6244 7.39605 12.1278 6.87656 11.5329 6.49069L11.7568 6.38663C12.6527 5.97089 13.4109 5.30757 13.942 4.47494C14.4732 3.6423 14.755 2.67511 14.7544 1.6875Z" fill="white"/>
</svg>
