<svg width="197" height="198" viewBox="0 0 197 198" fill="none" xmlns="http://www.w3.org/2000/svg">
<path d="M9.8103 178.348C9.8103 180.489 9.91734 182.95 11.3088 184.556C13.5565 187.125 17.7307 186.589 20.9417 185.519C32.5013 181.666 42.5624 174.067 51.018 165.397C65.5745 150.412 76.2778 131.039 78.0973 110.168C79.9169 89.2965 71.8894 67.2477 55.2993 54.5107C26.4004 88.7613 10.0244 133.394 9.8103 178.348Z" fill="#4F0008"/>
<path d="M191.445 94.7551C193.372 96.0395 195.406 97.431 196.048 99.6787C197.011 103.104 194.121 106.422 191.338 108.669C181.277 116.483 168.861 120.978 156.339 123.44C134.825 127.614 111.599 125.795 92.3328 115.305C73.0669 104.923 58.2963 85.1222 56.7979 63.2875C103.464 57.7217 151.95 69.0672 191.445 94.7551Z" fill="#4F0008"/>
<path d="M165.757 106.101C164.58 110.168 160.299 112.308 156.338 113.593C140.069 119.159 121.874 118.945 105.712 113.058C89.5497 107.171 75.5284 95.6113 66.7517 80.8408C65.5744 78.8072 64.397 76.1313 65.6814 74.2047C66.8588 72.3852 69.4275 72.1711 71.6752 72.2781C100.467 72.8133 129.152 79.6634 155.161 92.1863C160.941 94.8621 167.47 99.8927 165.757 106.101Z" fill="#B1354E"/>
<path d="M28.7549 169.25C32.7151 170.641 36.8894 168.394 40.3145 165.932C54.2288 155.871 64.5039 140.886 68.9993 124.296C73.4947 107.706 72.1033 89.6175 65.1461 73.8837C64.1828 71.743 62.6844 69.2813 60.3296 69.1742C58.189 69.0672 56.4765 71.1008 55.2991 72.9204C39.0301 96.7887 28.1127 124.189 23.4033 152.553C22.44 158.761 22.7611 167.109 28.7549 169.25Z" fill="#B1354E"/>
<path d="M73.709 194.938C56.3696 185.626 48.7703 164.541 47.3789 144.847C45.5593 119.159 51.7672 92.8286 65.0393 70.7798C82.6997 104.281 93.6171 141.207 97.1492 178.883C97.5773 183.914 97.7914 189.479 94.7945 193.44C90.192 199.54 80.452 198.577 73.709 194.938Z" fill="#EE7675"/>
<path d="M161.583 158.119C142.745 163.791 122.409 154.158 107.531 141.314C88.0514 124.403 73.9231 101.391 67.6082 76.4525C103.785 87.691 137.608 105.994 166.721 130.183C170.574 133.394 174.641 137.14 175.283 142.171C176.461 149.77 168.968 155.871 161.583 158.119Z" fill="#EE7675"/>
<path d="M47.3791 89.4035C43.5259 85.0151 38.9235 80.1987 33.6789 77.5228C33.4648 77.4158 32.6086 77.5228 31.4312 77.7369C26.4007 74.2048 21.3701 72.2782 15.3763 71.422C14.627 69.1743 13.2356 67.1406 11.9512 65.107C10.1316 62.1101 8.74021 59.0061 6.49252 56.3303C5.74329 55.474 4.56593 56.3303 4.77999 57.2936C4.99406 58.3639 5.52922 59.2202 6.17142 60.1835C7.02768 61.3609 7.24175 62.6453 7.77691 64.0367C8.84724 66.8195 10.4527 69.2813 11.8442 71.8501C11.416 72.7064 11.6301 74.0978 12.8075 74.4189C17.0888 75.7033 21.049 77.951 25.1163 79.6635C24.7952 79.7705 24.4741 79.9846 24.26 80.0916L24.153 80.1987C23.7248 80.0916 23.5108 80.7338 23.9389 80.8409C24.0459 81.1619 24.367 81.376 24.6881 81.269C24.7952 81.269 24.9022 81.269 25.0092 81.162C28.1132 82.3393 30.682 84.48 33.5719 86.0855C36.6758 87.798 39.6727 89.7246 42.5626 91.9723C45.2384 94.0059 46.951 97.0028 49.7338 98.9294C50.376 99.4646 51.2323 99.3576 51.8745 98.8224C53.8011 96.3606 48.6635 90.7949 47.3791 89.4035Z" fill="#4F0008"/>
<path d="M4.88714 51.6208C4.88714 52.5841 4.88714 53.6545 4.99417 54.6178C4.99417 55.5811 4.7801 56.5444 5.52934 57.2936C5.85043 57.6147 6.27857 57.4006 6.49263 57.0795C7.0278 56.3303 6.59967 55.367 6.49263 54.5107C6.3856 53.5474 6.17153 52.5841 6.0645 51.5138C5.85043 50.7646 4.78011 50.7646 4.88714 51.6208Z" fill="#4F0008"/>
<path d="M0.0703057 53.8685C1.46173 55.474 3.81646 56.2233 5.63602 57.1866C6.92041 57.8288 7.77668 55.7951 6.38525 55.26C4.45866 54.5107 2.318 53.3334 0.177337 53.4404C-0.0367289 53.4404 -0.0367273 53.7615 0.0703057 53.8685Z" fill="#4F0008"/>
<path d="M45.4522 191.406C47.5929 190.228 50.0547 190.014 52.4094 189.907C51.8742 185.947 52.1953 181.773 52.0883 177.599C51.232 175.458 50.4828 173.317 49.8406 170.963C48.4492 167.323 47.807 163.256 47.1648 159.831C47.1648 159.51 47.1648 159.296 47.1648 159.082C46.6296 158.547 46.4155 157.69 46.7366 157.048C48.6632 152.018 49.6265 133.715 57.761 133.715C58.0821 133.715 58.4032 133.822 58.7243 134.143C59.4736 133.929 60.1158 134.678 59.9017 135.428C57.8681 143.562 56.6907 152.018 54.8711 160.259C54.6571 161.223 53.9079 161.544 53.0516 161.544C53.8008 165.183 54.443 168.715 55.0852 172.354C55.2993 173.21 55.5133 174.067 55.7274 174.923C55.8344 175.672 55.4063 176.421 54.8711 176.742C54.8711 177.063 54.9782 177.385 54.9782 177.813C54.9782 177.92 54.9782 178.027 54.8711 178.134C55.4063 181.345 55.7274 184.663 55.4063 187.767C55.4063 188.623 55.5133 189.479 55.4063 190.228C55.4063 190.657 55.0852 190.978 54.7641 191.192V191.299C54.6571 191.513 54.55 191.727 54.336 191.834C54.0149 192.476 53.6938 193.118 53.2656 193.761C52.8375 194.296 52.3023 194.724 51.8742 195.259C51.4461 195.794 51.125 196.329 50.4828 196.65C49.1984 197.293 48.021 196.008 48.3421 194.724C48.4492 194.189 48.8773 193.654 49.4125 193.225C48.3421 193.547 47.1648 193.761 45.9874 193.761C44.596 193.761 44.4889 192.048 45.4522 191.406Z" fill="#4F0008"/>
<path d="M46.5227 112.844C41.4922 115.841 35.9265 119.48 32.2873 124.082C32.0733 124.296 32.0733 125.152 32.0733 126.33C27.5779 130.611 24.9021 135.214 22.8684 140.993C20.5137 141.314 18.266 142.278 16.1254 143.134C12.9144 144.311 9.48931 145.061 6.49239 146.88C5.52909 147.415 6.17129 148.807 7.13458 148.807C8.31195 148.807 9.16821 148.486 10.2385 147.95C11.63 147.415 12.9144 147.308 14.3058 147.094C17.1957 146.559 19.9785 145.489 22.7614 144.525C23.5106 145.168 24.9021 145.168 25.4372 144.097C27.5779 140.137 30.4678 136.712 32.9295 132.966C33.0366 133.287 33.1436 133.608 33.1436 133.929C33.1436 133.929 33.1436 134.036 33.2506 134.036C33.1436 134.464 33.6788 134.678 33.8928 134.357C34.2139 134.357 34.535 134.036 34.428 133.715C34.428 133.608 34.428 133.501 34.428 133.394C36.1405 130.611 38.7093 128.47 40.85 125.902C43.0977 123.119 45.5594 120.55 48.2352 118.195C50.804 115.948 54.015 114.77 56.4768 112.523C57.119 111.88 57.226 111.131 56.6908 110.382C54.6572 107.813 48.2352 111.773 46.5227 112.844Z" fill="#4F0008"/>
<path d="M1.56909 146.88C3.28162 147.094 4.99414 147.201 6.70667 147.415L1.56909 146.88Z" fill="#4F0008"/>
<path d="M1.46187 147.522C2.5322 147.736 3.60253 147.843 4.56582 148.057C5.42209 148.164 6.27835 148.486 7.02758 148.057C7.34868 147.843 7.45571 147.308 7.13461 147.094C6.38538 146.452 5.52913 146.666 4.67286 146.559C3.60253 146.559 2.5322 146.452 1.46187 146.452C0.819675 146.345 0.819675 147.415 1.46187 147.522Z" fill="#4F0008"/>
<path d="M2.6394 152.767C3.81677 150.947 5.10116 149.235 6.27853 147.415L2.6394 152.767Z" fill="#4F0008"/>
<path d="M2.74625 152.981C4.56581 151.911 5.74317 149.77 7.02757 148.164C7.99086 146.987 6.1713 145.703 5.31504 146.987C4.24471 148.807 2.63921 150.626 2.31812 152.767C2.31812 152.981 2.53218 153.088 2.74625 152.981Z" fill="#4F0008"/>
<path d="M84.4122 164.434C74.6722 165.611 63.8618 160.687 56.5836 154.586C54.8711 153.088 53.0515 150.947 54.0148 148.914C48.235 145.489 46.2014 137.033 49.8405 131.36C45.5592 127.614 44.81 120.443 48.235 115.948C45.6662 112.63 46.0944 107.385 49.0913 104.602C46.0944 101.391 46.4154 96.3605 47.0576 91.9722C47.5928 87.5838 48.128 82.6603 45.4521 79.2353C54.1218 77.5227 59.6875 70.9937 64.9322 63.9296C73.2807 70.6726 80.9871 78.272 87.5161 86.8346C91.2623 91.7581 94.5803 97.0027 97.7913 102.354C101.002 107.706 104.106 113.165 105.605 119.266C107.424 126.865 106.568 134.999 104.855 142.492C103.464 148.272 101.002 154.051 96.828 158.333C93.1888 161.972 88.9075 163.898 84.4122 164.434Z" fill="#F2B0A2"/>
<path d="M64.8252 63.9296C59.5806 70.9937 53.9079 77.5227 45.3452 79.2353C46.6296 80.8408 47.1648 82.7674 47.3788 84.801C48.8773 85.0151 50.4828 85.1221 51.9813 84.908C57.9751 84.0518 63.2197 79.7704 66.2166 74.4188C67.501 72.1711 68.3573 69.8164 68.9995 67.4616C67.6081 66.1772 66.2166 64.9999 64.8252 63.9296Z" fill="#EE7675"/>
<path d="M56.5836 29.7861C51.446 27.6455 45.8803 26.04 40.4216 27.3244C35.07 28.6088 30.6816 32.676 28.2199 37.4925C25.6511 42.309 24.9019 47.9817 24.9019 53.4404C25.0089 58.8991 25.9722 64.3578 28.541 69.0672C31.2168 73.7767 35.6052 77.7369 40.8498 78.8072C46.8436 80.0916 53.1586 77.7369 57.761 73.7767C62.3634 69.8165 65.5744 64.3578 68.0361 58.7921C70.4979 53.4404 72.3175 47.2325 70.2838 41.6668C68.3572 35.887 62.3634 32.2479 56.5836 29.7861Z" fill="#F2B0A2"/>
<path d="M48.0212 105.673C63.1129 107.813 80.7733 102.997 90.8344 91.5442C90.2993 90.7949 89.7641 89.9387 89.1219 89.1895C84.3054 93.8989 79.4889 97.9662 72.6388 100.963C65.2535 104.281 57.012 105.03 48.8775 104.495C48.8775 104.495 48.8775 104.495 48.9845 104.602C48.6634 104.923 48.3423 105.244 48.0212 105.673Z" fill="#4F0008"/>
<path d="M105.926 135.856C106.033 134.678 106.247 133.608 106.354 132.431C98.3267 138.211 90.1922 143.134 80.2381 146.024C72.3177 148.379 62.5777 149.77 53.5869 148.593C53.6939 148.7 53.801 148.7 53.908 148.807C53.694 149.342 53.5869 149.877 53.694 150.412C61.1863 151.483 69.3208 150.412 76.3849 149.021C86.5531 147.094 97.3634 142.599 105.926 135.856Z" fill="#4F0008"/>
<path d="M79.5958 114.984C86.1248 112.844 93.5101 109.205 98.6476 103.853C98.3265 103.318 97.4703 101.819 97.2562 101.605C92.0116 107.278 85.2685 111.024 76.92 113.7C67.7151 116.59 57.8681 118.516 48.5562 115.734C48.2351 116.162 47.914 116.59 47.7 117.125C58.0821 120.871 69.1065 118.302 79.5958 114.984Z" fill="#4F0008"/>
<path d="M75.4216 130.825C85.2686 128.257 96.6141 123.119 104.535 115.734C104.213 114.77 103.892 113.914 103.464 112.951C95.1157 118.945 87.3023 124.51 77.1341 127.935C69.3207 130.504 58.9385 132.431 49.7337 131.36C49.4126 131.896 49.0915 132.431 48.8774 133.073C57.5471 134.786 67.9293 132.752 75.4216 130.825Z" fill="#4F0008"/>
<path d="M59.5806 67.8898C59.9017 70.0304 58.4033 72.0641 56.0485 72.3852C53.8009 72.7063 51.6602 71.3148 51.3391 69.1742C51.018 67.0335 52.5164 64.9999 54.8712 64.6788C57.1189 64.3577 59.1525 65.8562 59.5806 67.8898Z" fill="#B1354E"/>
<path d="M36.4617 61.2538C36.7828 63.3945 35.2844 65.4281 32.9296 65.7492C30.6819 66.0703 28.5413 64.6788 28.2202 62.5382C27.8991 60.3975 29.3976 58.3639 31.7523 58.0428C34 57.7217 36.1406 59.1131 36.4617 61.2538Z" fill="#B1354E"/>
<path d="M33.8928 37.4924C34.535 37.5995 34.8561 37.4924 35.3912 37.1713C35.7123 36.9573 36.1405 36.8502 36.4616 36.8502C37.1038 36.7432 37.6389 36.7432 38.1741 36.3151C38.8163 35.8869 39.0304 35.1377 38.7093 34.3885C38.4952 33.8533 37.96 33.4252 37.4249 33.3181C36.3545 33.2111 35.4983 33.5322 34.642 34.1744C33.7857 34.8166 33.0365 35.5658 33.2506 36.6362C33.3576 37.0643 33.5717 37.4924 33.8928 37.4924Z" fill="#B1354E"/>
<path d="M64.1831 43.8074C63.6479 43.7003 63.3268 43.4863 62.8987 43.0581C62.5776 42.737 62.2565 42.523 62.0424 42.4159C61.5072 42.0948 60.9721 41.8808 60.5439 41.4526C60.1158 40.8104 60.1158 40.0612 60.651 39.419C60.9721 38.9909 61.6143 38.7768 62.1494 38.8838C63.2198 39.0979 63.862 39.7401 64.5042 40.5964C65.1464 41.4526 65.5745 42.4159 65.0393 43.3792C64.9323 43.5933 64.6112 43.9144 64.1831 43.8074Z" fill="#B1354E"/>
<path d="M54.0149 34.8166C70.3909 26.4681 86.7669 20.9023 105.177 19.9391C114.488 19.4039 123.8 20.2601 132.898 22.1867C141.461 23.8993 149.167 27.6454 157.409 30.3212C158.051 30.5353 158.265 29.572 157.837 29.2509C143.173 19.2969 122.302 17.1562 105.07 17.6914C87.3021 18.4406 68.3573 24.0063 54.0149 34.8166C53.9078 34.7096 54.0149 34.8166 54.0149 34.8166Z" fill="#4F0008"/>
<path d="M43.8468 32.3549C50.2688 17.5843 62.6846 9.44984 77.6692 4.84742C93.8312 -0.183124 109.351 1.63644 125.62 4.74039C126.048 4.84743 126.262 4.20522 125.834 3.99116C109.886 -2.10972 90.9413 -0.611258 74.9934 4.41929C61.6143 8.59358 46.8437 17.7984 43.5257 32.2479C43.4187 32.3549 43.7397 32.569 43.8468 32.3549Z" fill="#4F0008"/>
<path d="M87.302 86.4066C91.7974 82.6604 96.828 78.2721 99.7179 73.1345C99.8249 72.9204 99.8249 72.0642 99.6108 70.8868C103.357 65.9633 105.391 61.0398 106.568 55.0459C108.816 54.4037 110.956 53.1193 112.99 51.9419C115.987 50.2294 119.305 49.0521 121.981 46.8044C122.837 46.1622 122.088 44.8778 121.124 44.9848C120.054 45.1989 119.198 45.627 118.235 46.2692C116.95 47.0184 115.666 47.2325 114.381 47.7677C111.599 48.731 109.03 50.2294 106.354 51.5138C105.498 50.9787 104.106 51.1927 103.785 52.3701C102.287 56.5444 99.9319 60.3976 98.0053 64.4648C97.8983 64.1437 97.7913 63.8226 97.5772 63.6085L97.4702 63.5015C97.5772 63.0734 96.935 62.8593 96.828 63.2874C96.5069 63.3945 96.2928 63.6085 96.3998 64.0367C96.3998 64.1437 96.3999 64.2507 96.5069 64.3578C95.2225 67.3547 92.9748 69.9235 91.2623 72.7063C89.4427 75.8103 87.4091 78.7002 85.0543 81.483C82.9137 84.0518 79.8097 85.6573 77.7761 88.3331C77.241 88.9753 77.2409 89.8316 77.8831 90.4738C80.0238 92.5074 85.8036 87.5839 87.302 86.4066Z" fill="#4F0008"/>
<path d="M126.69 45.4129C125.727 45.4129 124.764 45.4129 123.907 45.3059C123.051 45.3059 121.981 44.9848 121.231 45.627C120.803 45.9481 120.803 46.4832 121.231 46.6973C121.981 47.1254 122.73 46.9114 123.586 46.8043C124.657 46.6973 125.727 46.5903 126.797 46.4832C127.546 46.4832 127.439 45.4129 126.69 45.4129Z" fill="#4F0008"/>
<path d="M124.55 40.4894C122.944 41.8808 122.088 44.1285 121.017 45.9481C120.375 47.1255 122.302 48.0887 122.837 46.9114C123.693 44.8778 124.978 42.7371 124.978 40.5964C125.085 40.4894 124.764 40.3824 124.55 40.4894Z" fill="#4F0008"/>
<path d="M84.3051 101.177C84.091 101.926 84.5192 102.676 85.2684 102.997C88.3724 104.281 91.7974 104.174 95.0084 105.351C98.4335 106.529 101.537 108.027 104.748 109.847C107.638 111.452 110.849 112.523 113.418 114.449C113.418 114.556 113.525 114.663 113.525 114.663C113.632 115.091 113.953 115.091 114.274 115.091C114.595 115.412 115.024 114.877 114.702 114.556V114.449C114.702 114.128 114.702 113.807 114.595 113.486C118.235 116.055 122.195 118.195 125.62 121.085C126.476 121.834 127.76 121.406 128.296 120.55C131.293 120.336 134.182 120.336 137.072 119.801C138.464 119.587 139.748 119.052 141.247 119.159C142.424 119.159 143.387 119.159 144.458 118.73C145.314 118.409 145.421 116.911 144.351 116.804C140.926 116.269 137.5 116.804 133.968 116.911C131.614 116.911 129.152 116.804 126.904 117.446C122.944 112.844 118.663 109.633 112.99 107.278C112.562 106.208 112.241 105.351 111.92 105.244C106.889 102.247 100.253 100.963 94.5803 99.9997C92.5466 99.5716 85.1614 98.1801 84.3051 101.177Z" fill="#4F0008"/>
<path d="M148.739 114.556C147.776 114.984 146.919 115.412 145.956 115.841C145.1 116.162 143.816 116.483 143.708 117.446C143.708 117.767 143.816 118.088 144.03 118.195C144.886 118.623 145.635 117.874 146.384 117.446C147.348 116.911 148.311 116.269 149.274 115.734C149.702 115.305 149.274 114.342 148.739 114.556Z" fill="#4F0008"/>
<path d="M150.024 120.55C148.953 118.731 146.813 117.553 145.1 116.269C143.923 115.305 142.638 117.125 143.923 117.981C145.742 119.052 147.669 120.55 149.702 120.978C149.917 120.978 150.131 120.764 150.024 120.55Z" fill="#4F0008"/>
<path d="M55.2995 42.8441C53.5869 42.9511 52.9447 45.1988 54.4432 45.948H54.5502C55.5135 46.4832 56.7979 45.948 57.012 44.7707C57.3331 43.9144 56.4768 42.7371 55.2995 42.8441Z" fill="#B1354E"/>
<path d="M43.9537 33.1041C45.4522 34.8166 47.2717 35.3518 49.4124 35.3518C50.4827 35.3518 51.0179 34.3885 50.9109 33.4252C51.0179 32.783 50.9109 31.9267 50.3757 31.3916C49.1983 30.1072 47.1647 29.1439 45.4522 29.7861C44.4889 30.1072 44.0607 30.9634 43.9537 31.8197C43.6326 32.0338 43.6326 32.676 43.9537 33.1041Z" fill="#B1354E"/>
<path d="M54.7643 37.8136C54.3361 37.3854 53.908 37.0643 53.4799 36.6362C52.1955 35.1377 49.7337 37.2784 50.804 38.7768C50.804 38.8839 50.9111 38.8839 50.9111 38.9909C51.2322 39.4191 51.7673 39.7401 52.1955 39.7401C52.5166 39.8472 52.7306 39.9542 53.0517 40.0613C53.5869 40.2753 54.2291 40.2753 54.6572 39.7401C55.2994 39.205 55.2994 38.3487 54.7643 37.8136Z" fill="#B1354E"/>
<path d="M49.4126 44.1285C48.9844 43.9144 48.6633 43.5933 48.2352 43.3793C47.7 43.1652 47.1649 43.2722 46.8438 43.4863C46.2016 43.4863 45.7734 44.2355 46.0945 44.8777C46.2016 44.9848 46.3086 45.0918 46.3086 45.1988C46.4156 45.4129 46.6297 45.6269 46.9508 45.841C47.486 46.2691 48.2352 46.4832 48.8774 46.4832C50.1618 46.3762 50.3759 44.7707 49.4126 44.1285Z" fill="#B1354E"/>
<path d="M45.4522 39.205C44.1678 38.2417 42.7764 37.8136 41.278 38.3487C40.5287 38.5628 40.1006 39.205 40.1006 39.9542C39.6725 40.5964 39.7795 41.3457 40.3147 41.9879C41.5991 43.2723 43.7397 42.8441 45.2382 42.2019C46.2015 41.5597 46.3085 39.8472 45.4522 39.205Z" fill="#B1354E"/>
<path d="M39.7794 30.4282C39.3513 30.2142 39.1372 30.0001 38.7091 30.2142C38.7091 30.2142 38.6021 30.2142 38.6021 30.3212C37.9599 29.786 36.9966 30.7493 37.6388 31.3915C38.174 31.9267 39.0302 32.0337 39.6724 31.7126C40.2076 31.4986 40.4216 30.7493 39.7794 30.4282Z" fill="#B1354E"/>
<path d="M63.0058 35.8869C62.7917 35.0307 62.1495 34.6025 61.4003 34.1744C60.544 33.6392 59.7948 34.6025 60.0089 35.3518C60.0089 35.4588 60.0089 35.6729 60.1159 35.7799C60.6511 36.4221 61.2933 36.9573 62.1495 36.9573C62.6847 37.0643 63.1128 36.5291 63.0058 35.8869Z" fill="#B1354E"/>
<path d="M54.2289 96.8958C53.2656 96.1466 52.4093 95.9325 51.339 95.9325C50.1616 95.9325 49.4124 96.4677 48.8772 97.538C48.128 99.1435 49.0913 100.749 50.5898 101.391C51.339 101.712 52.3023 101.498 52.9445 100.963C53.1585 100.963 53.2656 100.856 53.3726 100.749C54.2289 100.321 54.657 99.4646 54.8711 98.5013C55.1922 97.8591 54.7641 97.2169 54.2289 96.8958Z" fill="#B1354E"/>
<path d="M54.4432 91.33C53.801 91.223 53.1588 91.223 52.5166 91.33C52.0885 91.4371 51.7674 91.7582 51.5533 92.0793C51.0181 92.5074 50.8041 93.5777 51.5533 94.0059C52.1955 94.434 53.0518 94.8621 53.908 94.6481C54.7643 94.541 55.4065 93.8988 55.6205 93.0426C55.8346 92.1863 55.2995 91.4371 54.4432 91.33Z" fill="#B1354E"/>
<path d="M59.1525 96.5746C59.0455 96.5746 59.0455 96.5746 58.9385 96.5746C58.0822 96.6816 58.0822 97.966 58.8314 98.1801C59.2596 98.2871 59.5807 98.2871 60.0088 98.1801C61.5073 97.859 60.4369 95.7184 59.1525 96.5746Z" fill="#B1354E"/>
<path d="M54.6573 108.883C54.0151 108.348 53.3729 108.134 52.5166 108.027C51.3393 108.027 50.6971 109.205 51.4463 110.168C51.7674 110.596 52.0885 110.703 52.6237 110.703C53.2659 110.917 53.9081 110.917 54.6573 110.596C55.1925 110.168 55.1925 109.312 54.6573 108.883Z" fill="#B1354E"/>
<path d="M64.3972 108.455C63.755 108.241 63.4339 108.562 63.2198 108.991C62.6846 109.419 62.6846 110.382 63.5409 110.489C63.862 110.489 64.1831 110.596 64.5042 110.596C65.0394 110.596 65.5745 110.168 65.4675 109.526C65.3605 108.883 64.9323 108.669 64.3972 108.455Z" fill="#B1354E"/>
<path d="M50.9109 122.584C50.3758 121.62 48.6632 120.978 47.914 122.156C47.807 122.263 47.807 122.477 47.6999 122.584C47.2718 123.012 47.2718 123.761 47.807 124.296C48.2351 124.617 48.7703 124.831 49.3054 124.724C49.8406 124.617 50.1617 124.296 50.5898 123.975C51.125 123.761 51.232 123.012 50.9109 122.584Z" fill="#B1354E"/>
<path d="M52.6233 129.22C52.0882 129.541 51.553 129.648 51.0178 129.434C50.3756 129.22 50.0545 130.183 50.6967 130.397C51.553 130.825 52.4093 130.825 53.2655 130.504C54.1218 130.183 53.4796 128.685 52.6233 129.22Z" fill="#B1354E"/>
<path d="M124.978 183.592C122.623 183.271 120.161 183.914 117.914 184.77C116.95 180.81 115.131 177.063 113.632 173.317C113.632 171.07 113.525 168.715 113.311 166.36C113.204 162.507 112.348 158.44 111.706 155.015C111.599 154.801 111.599 154.48 111.385 154.372C111.599 153.73 111.599 152.874 111.063 152.339C107.424 148.379 99.825 131.681 92.3327 134.678C92.0116 134.785 91.7975 135.107 91.5835 135.428C90.8342 135.535 90.5131 136.498 90.9413 137.14C95.7578 143.99 99.932 151.376 104.749 158.333C105.284 159.189 106.14 159.189 106.889 158.868C107.531 162.507 108.174 166.039 108.923 169.678C109.03 170.534 109.137 171.498 109.351 172.354C109.458 173.103 110.207 173.638 110.849 173.638C110.956 173.96 111.063 174.281 111.171 174.602C111.171 174.709 111.278 174.816 111.385 174.923C112.027 178.134 112.99 181.345 114.489 184.128C114.703 184.877 115.024 185.733 115.452 186.482C115.666 186.911 115.987 187.125 116.415 187.232C116.415 187.232 116.415 187.339 116.522 187.339C116.629 187.553 116.843 187.66 117.057 187.66C117.592 188.195 118.128 188.623 118.77 189.051C119.305 189.372 120.054 189.586 120.696 189.907C121.339 190.229 121.767 190.657 122.516 190.657C124.014 190.764 124.55 189.158 123.8 188.088C123.479 187.553 122.837 187.339 122.195 187.125C123.372 187.018 124.443 186.803 125.513 186.375C126.583 185.412 126.155 183.807 124.978 183.592Z" fill="#4F0008"/>
<path d="M66.9659 49.3731C67.5011 50.2294 67.8222 51.2997 68.0363 52.263C68.6785 56.4373 66.1097 60.8257 62.1495 62.2171C58.1892 63.6085 53.3728 61.789 51.2321 58.1498C50.2688 56.4373 49.9477 54.4037 50.1618 52.4771C55.4064 50.2294 61.1862 49.1591 66.9659 49.3731Z" fill="#D7E4E7"/>
<path d="M65.7886 49.3732C66.3237 51.4068 66.0027 53.7615 64.7183 55.474C62.7917 58.1499 58.7244 59.1132 55.8345 57.6147C53.6939 56.5444 52.3024 54.2967 52.0884 51.8349C56.3697 50.1224 61.0791 49.3732 65.7886 49.3732Z" fill="#B1354E"/>
<path d="M69.9627 49.2662C63.0055 48.4099 56.2625 49.4802 49.7334 51.835C48.9842 52.156 49.3053 53.3334 50.1616 53.1193C56.5836 50.6576 63.2196 49.8013 69.9627 49.5873C70.0697 49.5873 70.1767 49.2662 69.9627 49.2662Z" fill="#B1354E"/>
<path d="M69.2136 45.627C69.6417 46.5902 69.9628 47.9817 69.2136 48.8379C68.9995 49.052 68.1433 49.3731 67.9292 48.945C68.2503 48.1957 68.3573 48.0887 68.7855 47.4465C68.9995 46.9113 69.1066 46.2692 69.2136 45.627C69.1066 45.627 69.2136 45.627 69.2136 45.627Z" fill="#B1354E"/>
<path d="M67.5012 45.734C67.9293 46.6973 68.2504 48.0887 67.5012 48.945C67.2871 49.1591 66.4309 49.4802 66.2168 49.052C66.5379 48.3028 66.6449 48.1958 67.0731 47.5536C67.3942 47.0184 67.3942 46.3762 67.5012 45.734C67.3942 45.734 67.5012 45.734 67.5012 45.734Z" fill="#B1354E"/>
<path d="M65.5744 45.9481C66.0026 46.9114 66.3237 48.3028 65.5744 49.1591C65.3604 49.3732 64.5041 49.6943 64.29 49.2661C64.6111 48.5169 64.7182 48.4099 65.1463 47.7677C65.4674 47.2325 65.4674 46.5903 65.5744 45.9481C65.4674 45.9481 65.5744 45.9481 65.5744 45.9481Z" fill="#B1354E"/>
<path d="M63.7549 46.0551C64.183 47.0184 64.5041 48.4098 63.7549 49.266C63.5408 49.4801 62.6845 49.8012 62.4705 49.3731C62.7916 48.6238 62.8986 48.5168 63.3267 47.8746C63.5408 47.3394 63.6478 46.6973 63.7549 46.0551C63.6478 46.0551 63.7549 46.0551 63.7549 46.0551Z" fill="#B1354E"/>
<path d="M57.654 55.5811C57.5469 56.6514 58.2962 57.6147 59.3665 57.7217C60.4368 57.8288 61.4001 57.0795 61.5071 56.0092C61.6142 54.9389 60.865 53.9756 59.7946 53.8685C58.7243 53.8685 57.761 54.6178 57.654 55.5811Z" fill="#D7E4E7"/>
<path d="M30.6817 40.7034C29.8254 41.3456 29.0762 42.0948 28.541 42.844C26.1863 46.2691 26.6144 51.4067 29.6113 54.4036C32.6082 57.4005 37.7458 57.8286 41.1709 55.3669C42.7764 54.2966 43.9537 52.584 44.4889 50.6574C40.7427 46.4831 35.9263 43.0581 30.6817 40.7034Z" fill="#D7E4E7"/>
<path d="M31.7521 41.2385C30.3607 42.844 29.7184 45.0917 30.0395 47.1253C30.6817 50.4434 33.8927 53.0122 37.2108 52.9051C39.5655 52.7981 41.8132 51.4067 43.0976 49.373C39.8866 45.948 35.9264 43.2722 31.7521 41.2385Z" fill="#B1354E"/>
<path d="M27.899 39.419C34.535 41.5597 40.2078 45.5199 45.1313 50.4434C45.7735 51.0856 44.8102 52.0489 44.275 51.4067C39.5656 46.4832 33.9999 42.737 27.899 39.7401C27.6849 39.6331 27.7919 39.312 27.899 39.419Z" fill="#B1354E"/>
<path d="M30.2534 36.5291C29.9323 37.0643 29.7182 37.7065 29.7182 38.3487C29.8253 38.9909 29.8253 39.205 29.8253 40.0612L29.7182 40.1683C29.2901 40.1683 28.862 39.8472 28.7549 39.419C28.5409 38.1346 29.3971 37.0643 30.2534 36.5291C30.2534 36.4221 30.2534 36.5291 30.2534 36.5291Z" fill="#B1354E"/>
<path d="M31.752 37.2784C31.4309 37.8136 31.2168 38.4558 31.2168 39.098C31.3238 39.7402 31.3238 39.9542 31.3238 40.8105L31.2168 40.9175C30.7887 40.9175 30.3605 40.5964 30.2535 40.1683C30.0394 38.9909 30.8957 37.8136 31.752 37.2784C31.6449 37.1714 31.752 37.2784 31.752 37.2784Z" fill="#B1354E"/>
<path d="M33.3574 38.3487C33.0363 38.8839 32.8223 39.5261 32.8223 40.1683C32.9293 40.8105 32.9293 41.0245 32.9293 41.8808L32.8223 41.9878C32.3941 41.9878 31.966 41.6667 31.859 41.2386C31.6449 39.9542 32.5012 38.8839 33.3574 38.3487C33.3574 38.2417 33.3574 38.3487 33.3574 38.3487Z" fill="#B1354E"/>
<path d="M35.07 39.2049C34.7489 39.7401 34.5348 40.3823 34.5348 41.0245C34.6419 41.6667 34.6419 41.8807 34.6419 42.737L34.5348 42.844C34.1067 42.844 33.6786 42.5229 33.5715 42.0948C33.2504 40.8104 34.2137 39.7401 35.07 39.2049C34.963 39.0979 35.07 39.2049 35.07 39.2049Z" fill="#B1354E"/>
<path d="M36.3546 50.4435C36.0335 51.5138 34.9632 52.049 33.8928 51.7279C32.8225 51.4068 32.2873 50.3364 32.6084 49.2661C32.9295 48.1958 33.9998 47.6606 35.0702 47.9817C36.1405 48.3028 36.6757 49.3731 36.3546 50.4435Z" fill="#D7E4E7"/>
<path d="M45.8804 70.7797C45.4523 71.636 44.4889 72.1711 43.6327 71.85C43.0975 71.636 42.7764 71.2078 42.6694 70.6727C42.5624 70.2445 42.6694 69.8164 42.4553 69.3883C42.3483 69.2812 42.2413 69.1742 42.0272 69.0672C41.7061 68.8531 41.0639 68.9601 40.8498 69.3883C40.4217 70.2445 39.4584 70.7797 38.6021 70.4586C38.067 70.2445 37.7459 69.8164 37.6388 69.2812C37.5318 68.8531 37.6388 68.425 37.4248 67.9968C37.2107 67.6757 36.8896 67.5687 36.5685 67.8898C35.9263 68.3179 36.1404 69.2812 36.3544 69.9234C36.3544 69.9234 36.3544 69.9234 36.3544 70.0305C36.5685 70.9938 37.4248 71.957 38.174 72.2781C39.3514 72.8133 40.6358 72.2782 41.385 71.3149C41.5991 72.2782 42.4553 73.2415 43.2046 73.5626C44.9171 74.3118 46.7366 72.9203 47.1648 71.2078V71.1008C47.1648 70.9938 47.1648 70.9938 47.1648 70.8867C47.4859 70.1375 46.2015 70.0305 45.8804 70.7797Z" fill="#B1354E"/>
<path d="M44.1679 57.2935C44.6999 57.2935 45.1312 56.8622 45.1312 56.3302C45.1312 55.7982 44.6999 55.3669 44.1679 55.3669C43.6359 55.3669 43.2046 55.7982 43.2046 56.3302C43.2046 56.8622 43.6359 57.2935 44.1679 57.2935Z" fill="#B1354E"/>
<path d="M46.4154 56.8654C46.6519 56.8654 46.8436 56.6737 46.8436 56.4373C46.8436 56.2008 46.6519 56.0092 46.4154 56.0092C46.179 56.0092 45.9873 56.2008 45.9873 56.4373C45.9873 56.6737 46.179 56.8654 46.4154 56.8654Z" fill="#B1354E"/>
<path d="M48.0212 58.471C48.435 58.471 48.7704 58.1356 48.7704 57.7218C48.7704 57.308 48.435 56.9725 48.0212 56.9725C47.6074 56.9725 47.272 57.308 47.272 57.7218C47.272 58.1356 47.6074 58.471 48.0212 58.471Z" fill="#B1354E"/>
</svg>
