<svg width="111" height="95" viewBox="0 0 111 95" fill="none" xmlns="http://www.w3.org/2000/svg">
<g clip-path="url(#clip0_139_520719)">
<g opacity="0.5">
<path d="M13.6116 19.02C12.1336 20.3878 9.45725 22.175 6.45131 23.1734C5.942 23.3432 5.43268 23.453 4.91339 23.5728C4.40407 23.6826 4.34416 23.7126 4.3142 23.3731C4.03457 21.2165 3.68505 19.0799 3.14577 16.9533C2.66642 15.0463 2.03727 13.2291 1.18842 11.442C1.1285 11.3022 1.18842 11.1324 1.32823 11.0426C3.45536 9.82451 5.16305 8.22704 6.47128 6.24017C6.56116 6.10039 6.64105 6.01054 6.81082 6.10039C9.65698 7.31847 12.6629 8.03734 15.7388 8.51658C17.047 8.71626 18.3852 8.88599 19.6934 9.05573C19.9531 9.08568 19.973 9.14559 19.9531 9.36524C19.5836 11.1025 18.8146 12.7199 17.8459 14.2276C16.8273 15.7951 15.6289 17.1529 13.6116 19.03V19.02ZM7.39004 6.71942C5.97196 8.90596 4.09449 10.6432 1.75765 11.9811C3.40542 15.6154 4.11447 19.4593 4.62378 23.3731L6.93066 22.7241C6.84078 22.4146 6.76089 22.1251 6.67101 21.8755C6.04186 19.8287 5.33282 17.8119 4.39409 15.855C4.33417 15.7452 4.19436 15.5954 4.39409 15.4856C4.59382 15.3957 4.65374 15.5954 4.70367 15.7152C5.44267 17.2228 6.0119 18.7604 6.55117 20.3179C6.81082 21.0568 7.03053 21.7956 7.29017 22.5943C8.05913 22.2249 8.79814 21.8855 9.50718 21.5161C9.48721 21.4561 9.47722 21.4195 9.47722 21.4062C8.3088 19.0799 7.09044 16.7735 5.72229 14.5271C5.4926 14.1577 5.26291 13.7883 5.04321 13.4188C4.98329 13.329 4.98329 13.2192 5.10313 13.1892C5.16305 13.1592 5.2729 13.2192 5.33282 13.2791C5.39274 13.339 5.4227 13.3889 5.47263 13.4787C7.04051 15.9748 8.39868 18.5408 9.73687 21.1466C9.76683 21.2065 9.82675 21.2864 9.87668 21.3763C10.6157 20.897 11.3247 20.4078 12.0637 19.9286C11.894 19.7289 11.7841 19.5591 11.6343 19.3894C9.98653 17.2628 8.33876 15.1261 6.66102 12.9995C6.40138 12.66 6.15171 12.3505 5.89206 12.0011C5.80219 11.9112 5.78221 11.8014 5.89206 11.7215C6.00191 11.6416 6.12175 11.7215 6.17169 11.8114L6.20164 11.8413C6.85077 12.67 7.47992 13.4887 8.13903 14.3174C8.93795 15.3158 9.70691 16.3043 10.4659 17.3027C11.095 18.1314 11.6842 18.8702 12.3134 19.6889C13.332 18.9202 14.2508 18.0715 15.0996 17.1629C15.0397 17.103 14.9898 17.0531 14.9299 17.0231C13.7614 16.0846 12.573 15.1461 11.4046 14.2375C9.98653 13.1293 8.58842 12.021 7.17034 10.8828C7.08046 10.793 6.97061 10.7131 7.08046 10.6033C7.19031 10.4935 7.31015 10.5733 7.39004 10.6332C8.01919 11.1424 8.66831 11.6317 9.29746 12.1409C11.085 13.5586 12.9026 14.9864 14.7002 16.4041C14.8999 16.5739 15.0996 16.7136 15.3493 16.9133C15.9185 16.2344 16.4578 15.5754 16.9971 14.8965C16.8872 14.8366 16.8273 14.7867 16.7374 14.7567C14.091 13.3889 11.5045 11.9412 9.03781 10.3237C8.92796 10.2339 8.77816 10.1839 8.69827 10.0641C8.66831 10.0342 8.63835 9.8944 8.66831 9.86445C8.72823 9.80454 8.80812 9.80454 8.898 9.80454C8.92796 9.80454 8.98788 9.86445 9.00785 9.86445C11.115 11.2523 13.3021 12.5402 15.549 13.7283C16.0883 14.0079 16.6276 14.2975 17.1968 14.607C17.6262 13.8981 18.0257 13.2192 18.4451 12.5302C18.3552 12.5003 18.3053 12.4703 18.2753 12.4703C17.5363 12.2107 16.7674 11.9312 16.0284 11.6716C14.3806 11.0426 12.8127 10.3637 11.2848 9.515C11.1749 9.4551 11.0551 9.37522 11.145 9.25541C11.2348 9.11563 11.3447 9.16555 11.4545 9.22546C13.6416 10.4435 15.9984 11.3521 18.3852 12.1508C18.4451 12.1808 18.525 12.1808 18.5849 12.2107C18.9544 11.6117 19.5536 9.88442 19.5536 9.4551C15.3493 8.9459 11.2548 8.28694 7.36008 6.75935L7.39004 6.71942ZM1.6478 11.6317C3.8648 10.3537 5.65239 8.67633 7.0505 6.56965C6.91069 6.50975 6.82081 6.47979 6.74092 6.45983C6.34146 6.96902 5.97196 7.47822 5.57249 7.93749C4.46399 9.21547 3.18572 10.2938 1.70772 11.1724C1.53462 11.2855 1.51465 11.4386 1.6478 11.6317Z" fill="#337085"/>
<path d="M38.2982 84.7362C36.8202 86.104 34.1438 87.8912 31.1378 88.8896C30.6285 89.0594 30.1192 89.1692 29.5999 89.289C29.0906 89.3988 29.0307 89.4288 29.0007 89.0893C28.7211 86.9327 28.3716 84.7961 27.8323 82.6694C27.3529 80.7625 26.7238 78.9453 25.8749 77.1581C25.815 77.0184 25.8749 76.8486 26.0148 76.7588C28.1419 75.5407 29.8496 73.9432 31.1578 71.9564C31.2477 71.8166 31.3276 71.7267 31.4973 71.8166C34.3435 73.0347 37.3494 73.7535 40.4253 74.2328C41.7335 74.4324 43.0717 74.6022 44.3799 74.7719C44.6396 74.8019 44.6596 74.8618 44.6396 75.0814C44.2701 76.8187 43.5011 78.4361 42.5324 79.9437C41.4839 81.5113 40.3154 82.8691 38.2982 84.7462V84.7362ZM32.0466 72.4356C30.6285 74.6222 28.7511 76.3594 26.4142 77.6973C28.062 81.3316 28.771 85.1755 29.2803 89.0893L31.5872 88.4403C31.4973 88.1308 31.4175 87.8413 31.3276 87.5917C30.6984 85.5449 29.9894 83.5281 29.0507 81.5712C28.9907 81.4613 28.8509 81.3116 29.0507 81.2018C29.2504 81.1119 29.3103 81.3116 29.3602 81.4314C30.0992 82.939 30.6685 84.4766 31.2077 86.0341C31.4674 86.773 31.6871 87.5118 31.9467 88.3105C32.7157 87.9411 33.4547 87.6017 34.1637 87.2322C34.1438 87.1723 34.1338 87.1357 34.1338 87.1224C32.9654 84.7961 31.747 82.4897 30.3789 80.2433C30.1492 79.8739 29.9195 79.5044 29.6998 79.135C29.6399 79.0452 29.6399 78.9353 29.7597 78.9054C29.8196 78.8754 29.9295 78.9353 29.9894 78.9952C30.0493 79.0552 30.0793 79.1051 30.1292 79.1949C31.6971 81.691 33.0552 84.2569 34.3934 86.8628C34.4234 86.9227 34.4833 87.0026 34.5332 87.0925C35.2722 86.6132 35.9813 86.124 36.7203 85.6447C36.5505 85.4451 36.4407 85.2753 36.2909 85.1056C34.6431 82.979 32.9953 80.8423 31.3176 78.7157C31.0579 78.3762 30.8083 78.0667 30.5486 77.7173C30.4587 77.6274 30.4388 77.5176 30.5486 77.4377C30.6585 77.3578 30.7783 77.4377 30.8283 77.5276L30.8582 77.5575C31.5073 78.3862 32.1365 79.2049 32.7956 80.0336C33.5945 81.032 34.3635 82.0205 35.1224 83.0189C35.7516 83.8476 36.3408 84.5864 36.97 85.4051C37.9886 84.6363 38.9073 83.7877 39.7562 82.8791C39.6963 82.8192 39.6463 82.7693 39.5864 82.7393C38.418 81.8008 37.2296 80.8623 36.0612 79.9537C34.6431 78.8455 33.245 77.7372 31.8269 76.599C31.737 76.5092 31.6272 76.4293 31.737 76.3195C31.8469 76.2096 31.9667 76.2895 32.0466 76.3494C32.6758 76.8586 33.3249 77.3478 33.954 77.857C35.7416 79.2748 37.5592 80.7025 39.3567 82.1203C39.5565 82.29 39.7562 82.4298 40.0058 82.6295C40.5751 81.9506 41.1143 81.2916 41.6536 80.6127C41.5438 80.5528 41.4839 80.5029 41.394 80.4729C38.7475 79.1051 36.161 77.6574 33.6944 76.0399C33.5845 75.9501 33.4347 75.9001 33.3548 75.7803C33.3249 75.7504 33.2949 75.6106 33.3249 75.5806C33.3848 75.5207 33.4647 75.5207 33.5546 75.5207C33.5845 75.5207 33.6444 75.5806 33.6644 75.5806C35.7716 76.9684 37.9586 78.2564 40.2056 79.4445C40.7448 79.7241 41.2841 80.0136 41.8534 80.3231C42.2828 79.6143 42.6822 78.9353 43.1017 78.2464C43.0118 78.2165 42.9619 78.1865 42.9319 78.1865C42.1929 77.9269 41.4239 77.6474 40.6849 77.3878C39.0372 76.7588 37.4693 76.0798 35.9413 75.2312C35.8315 75.1713 35.7116 75.0914 35.8015 74.9716C35.8914 74.8318 36.0013 74.8817 36.1111 74.9416C38.2982 76.1597 40.655 77.0683 43.0417 77.867C43.1017 77.897 43.1816 77.897 43.2415 77.9269C43.611 77.3279 44.2102 75.6006 44.2102 75.1713C40.0358 74.6621 35.9114 74.0031 32.0166 72.4755L32.0466 72.4356ZM26.3044 77.3478C28.5214 76.0699 30.309 74.3925 31.7071 72.2858C31.5673 72.2259 31.4774 72.196 31.3975 72.176C30.998 72.6852 30.6285 73.1944 30.2291 73.6537C29.1206 74.9317 27.8423 76.01 26.3643 76.8886C26.1912 77.0017 26.1712 77.1548 26.3044 77.3478Z" fill="#337085"/>
<path d="M99.3358 90.3773C97.8578 91.7451 95.1814 93.5323 92.1754 94.5307C91.6661 94.7005 91.1568 94.8103 90.6375 94.9301C90.1282 95.0399 90.0683 95.0699 90.0383 94.7304C89.7587 92.5738 89.4092 90.4372 88.8699 88.3106C88.3905 86.4036 87.7614 84.5864 86.9125 82.7993C86.8526 82.6595 86.9125 82.4897 87.0524 82.3999C89.1795 81.1818 90.8872 79.5843 92.1954 77.5975C92.2853 77.4577 92.3652 77.3678 92.5349 77.4577C95.3811 78.6758 98.387 79.3946 101.463 79.8739C102.771 80.0736 104.109 80.2433 105.418 80.413C105.677 80.443 105.697 80.5029 105.677 80.7225C105.308 82.4598 104.539 84.0772 103.57 85.5849C102.521 87.1524 101.323 88.5102 99.3358 90.3873V90.3773ZM93.0842 78.0767C91.6661 80.2633 89.7887 82.0005 87.4518 83.3384C89.0996 86.9727 89.8086 90.8166 90.3179 94.7304L92.6248 94.0814C92.5349 93.7719 92.455 93.4824 92.3652 93.2328C91.736 91.186 91.027 89.1692 90.0882 87.2123C90.0283 87.1025 89.8885 86.9527 90.0882 86.8429C90.288 86.753 90.3479 86.9527 90.3978 87.0725C91.1368 88.5801 91.7061 90.1177 92.2453 91.6752C92.505 92.4141 92.7247 93.1529 92.9843 93.9516C93.7533 93.5822 94.4923 93.2428 95.2013 92.8733C95.1814 92.8134 95.1714 92.7768 95.1714 92.7635C94.003 90.4372 92.7846 88.1308 91.4165 85.8844C91.1868 85.515 90.9571 85.1456 90.7374 84.7761C90.6775 84.6863 90.6775 84.5765 90.7973 84.5465C90.8572 84.5165 90.9671 84.5764 91.027 84.6364C91.0869 84.6963 91.1169 84.7462 91.1668 84.836C92.7347 87.3321 94.0928 89.8981 95.431 92.5039C95.461 92.5638 95.5209 92.6437 95.5708 92.7336C96.3098 92.2543 97.0189 91.7651 97.7579 91.2859C97.5881 91.0862 97.4783 90.9164 97.3285 90.7467C95.6807 88.6201 94.0329 86.4834 92.3552 84.3568C92.0955 84.0173 91.8459 83.7078 91.5862 83.3584C91.4963 83.2685 91.4764 83.1587 91.5862 83.0788C91.6961 82.9989 91.8159 83.0788 91.8658 83.1687L91.8958 83.1986C92.5449 84.0273 93.1741 84.846 93.8332 85.6747C94.6321 86.6731 95.4011 87.6616 96.16 88.66C96.7892 89.4887 97.3784 90.2275 98.0075 91.0462C99.0262 90.2775 99.9449 89.4288 100.794 88.5202C100.734 88.4603 100.684 88.4104 100.624 88.3804C99.4556 87.4419 98.2672 86.5034 97.0988 85.5948C95.6807 84.4866 94.2826 83.3783 92.8645 82.2401C92.7746 82.1503 92.6648 82.0704 92.7746 81.9606C92.8845 81.8508 93.0043 81.9306 93.0842 81.9905C93.7134 82.4997 94.3625 82.989 94.9916 83.4982C96.7792 84.9159 98.5968 86.3437 100.394 87.7614C100.594 87.9312 100.794 88.0709 101.043 88.2706C101.613 87.5917 102.152 86.9327 102.691 86.2538C102.581 86.1939 102.521 86.144 102.432 86.114C99.7851 84.7462 97.1986 83.2985 94.732 81.681C94.6221 81.5912 94.4723 81.5412 94.3924 81.4214C94.3625 81.3915 94.3325 81.2517 94.3625 81.2217C94.4224 81.1618 94.5023 81.1618 94.5922 81.1618C94.6221 81.1618 94.682 81.2217 94.702 81.2217C96.8092 82.6096 98.9962 83.8975 101.243 85.0856C101.782 85.3652 102.322 85.6547 102.891 85.9643C103.32 85.2554 103.72 84.5764 104.139 83.8875C104.049 83.8576 103.999 83.8276 103.969 83.8276C103.23 83.568 102.462 83.2885 101.723 83.0289C100.075 82.3999 98.5069 81.721 96.9789 80.8723C96.8691 80.8124 96.7493 80.7325 96.8391 80.6127C96.929 80.4729 97.0389 80.5229 97.1487 80.5828C99.3358 81.8008 101.693 82.7094 104.079 83.5081C104.139 83.5381 104.219 83.5381 104.279 83.568C104.649 82.969 105.248 81.2417 105.248 80.8124C101.043 80.3032 96.949 79.6143 93.0542 78.1166L93.0842 78.0767ZM87.342 82.989C89.559 81.711 91.3466 80.0336 92.7447 77.927C92.6049 77.867 92.515 77.8371 92.4351 77.8171C92.0356 78.3263 91.6661 78.8355 91.2667 79.2948C90.1582 80.5728 88.8799 81.6511 87.4019 82.5297C87.2288 82.6428 87.2088 82.7959 87.342 82.989Z" fill="#337085"/>
<path d="M70.8841 37.381C69.4061 38.7488 66.7297 40.536 63.7238 41.5344C63.2145 41.7041 62.7051 41.814 62.1858 41.9338C61.6765 42.0436 61.6166 42.0735 61.5867 41.7341C61.307 39.5775 60.9575 37.4409 60.4182 35.3142C59.9389 33.4072 59.3097 31.5901 58.4609 29.8029C58.401 29.6631 58.4609 29.4934 58.6007 29.4036C60.7278 28.1855 62.4355 26.588 63.7437 24.6011C63.8336 24.4614 63.9135 24.3715 64.0833 24.4614C66.9294 25.6794 69.9354 26.3983 73.0112 26.8775C74.3195 27.0772 75.6576 27.247 76.9659 27.4167C77.2255 27.4466 77.2455 27.5065 77.2255 27.7262C76.856 29.4635 76.0871 31.0809 75.1184 32.5885C74.0698 34.156 72.9014 35.5139 70.8841 37.3909V37.381ZM64.6325 25.0504C63.2145 27.237 61.337 28.9742 59.0002 30.3121C60.6479 33.9464 61.357 37.7903 61.8663 41.7041L64.1732 41.0552C64.0833 40.7456 64.0034 40.4561 63.9135 40.2065C63.2844 38.1597 62.5753 36.1429 61.6366 34.186C61.5767 34.0762 61.4369 33.9264 61.6366 33.8166C61.8363 33.7267 61.8962 33.9264 61.9462 34.0462C62.6852 35.5538 63.2544 37.0914 63.7937 38.649C64.0533 39.3878 64.273 40.1266 64.5327 40.9254C65.3016 40.5559 66.0406 40.2165 66.7497 39.8471C66.7297 39.7872 66.7197 39.7505 66.7197 39.7372C65.5513 37.4109 64.3329 35.1046 62.9648 32.8581C62.7351 32.4887 62.5054 32.1193 62.2857 31.7498C62.2258 31.66 62.2258 31.5502 62.3456 31.5202C62.4055 31.4903 62.5154 31.5502 62.5753 31.6101C62.6352 31.67 62.6652 31.7199 62.7151 31.8098C64.283 34.3058 65.6412 36.8718 66.9794 39.4776C67.0093 39.5376 67.0692 39.6174 67.1192 39.7073C67.8582 39.228 68.5672 38.7388 69.3062 38.2596C69.1365 38.0599 69.0266 37.8902 68.8768 37.7204C67.229 35.5938 65.5813 33.4572 63.9035 31.3305C63.6439 30.991 63.3942 30.6815 63.1346 30.3321C63.0447 30.2422 63.0247 30.1324 63.1346 30.0525C63.2444 29.9727 63.3343 30.0525 63.4142 30.1424L63.4441 30.1723C64.0933 31.001 64.7224 31.8197 65.3815 32.6484C66.1804 33.6469 66.9494 34.6353 67.7084 35.6337C68.3375 36.4624 68.9267 37.2012 69.5559 38.0199C70.5745 37.2512 71.4933 36.4025 72.3421 35.4939C72.2822 35.434 72.2323 35.3841 72.1723 35.3542C71.0039 34.4156 69.8155 33.4771 68.6471 32.5686C67.229 31.4603 65.8309 30.3521 64.4128 29.2139C64.323 29.124 64.2131 29.0441 64.323 28.9343C64.4328 28.8245 64.5526 28.9043 64.6325 28.9642C65.2617 29.4734 65.9108 29.9627 66.54 30.4719C68.3275 31.8896 70.1451 33.3174 71.9427 34.7351C72.1424 34.9049 72.3421 35.0446 72.5918 35.2443C73.161 34.5654 73.7003 33.9064 74.2396 33.2275C74.1297 33.1676 74.0698 33.1177 73.9799 33.0877C71.3335 31.7199 68.747 30.2722 66.2803 28.6547C66.1705 28.5649 66.0207 28.515 65.9408 28.3951C65.9108 28.3652 65.8809 28.2254 65.9108 28.1955C65.9707 28.1356 66.0506 28.1356 66.1405 28.1356C66.1705 28.1356 66.2304 28.1955 66.2503 28.1955C68.3575 29.5833 70.5445 30.8712 72.7915 32.0594C73.3308 32.3389 73.8701 32.6285 74.4393 32.938C74.8687 32.2291 75.2682 31.5502 75.6876 30.8613C75.5977 30.8313 75.5478 30.8013 75.5178 30.8013C74.7788 30.5418 74.0099 30.2622 73.2709 30.0026C71.6231 29.3736 70.0552 28.6947 68.5273 27.846C68.4174 27.7861 68.2976 27.7062 68.3875 27.5864C68.4773 27.4466 68.5872 27.4966 68.697 27.5565C70.8841 28.7745 73.2409 29.6831 75.6277 30.4819C75.6876 30.5118 75.7675 30.5118 75.8274 30.5418C76.1969 29.9427 76.7961 28.2154 76.7961 27.7861C72.6217 27.3069 68.4973 26.6179 64.6026 25.0904L64.6325 25.0504ZM58.8903 29.9926C61.1073 28.7146 62.8949 27.0373 64.293 24.9306C64.1532 24.8707 64.0633 24.8408 63.9834 24.8208C63.584 25.33 63.2145 25.8392 62.815 26.2985C61.7065 27.5764 60.4282 28.6547 58.9502 29.5333C58.7771 29.6465 58.7571 29.7996 58.8903 29.9926Z" fill="#337085"/>
<path d="M36.5506 43.6611C36.3809 43.691 36.2111 43.6611 36.1811 43.4614C36.0713 42.6327 35.6119 41.9837 35.0127 41.4146C34.2138 40.6458 33.275 40.0268 32.2564 39.5076C32.0567 39.3978 31.9968 39.278 32.0267 39.0783C32.1166 38.7388 32.1665 38.3694 32.2265 38.03C32.2864 37.8003 32.3163 37.7704 32.5061 37.7204C31.9069 37.0715 31.2877 36.4125 30.7185 35.7835C30.6286 35.8434 30.5188 35.9532 30.4089 36.0131C30.1792 36.123 29.9296 36.1829 29.6699 36.2927C29.6999 36.3826 29.7298 36.4325 29.7598 36.5223C30.1593 37.5707 30.5288 38.649 30.6087 39.7872C30.6386 40.1865 30.6386 40.6159 30.4988 41.0053C30.4389 41.2049 30.2392 41.2648 30.0993 41.145C30.0394 41.0851 29.9895 40.9753 30.0095 40.9154C30.2392 40.2664 30.1493 39.5775 29.9795 38.9285C29.7498 38.0799 29.4402 37.2212 29.1506 36.3726C29.0607 36.093 29.0907 36.0331 29.3504 35.9133C29.63 35.8035 29.9495 35.6837 30.2292 35.6038C30.319 35.5738 30.4289 35.5439 30.5387 35.5439C30.3989 35.2843 30.2292 35.0347 30.0794 34.835C30.7085 34.3558 31.2977 33.8965 31.9269 33.4172C34.034 35.3741 36.1312 37.341 38.2683 39.3279C37.2697 39.3878 36.3109 39.298 35.3423 39.0683C34.3736 38.8387 33.5247 38.4693 32.7558 37.9002C32.6659 38.2696 32.6159 38.609 32.5261 38.9785C32.4961 39.1182 32.5261 39.2081 32.6659 39.258C33.6645 39.7672 34.5733 40.3962 35.3423 41.165C35.9115 41.7341 36.3908 42.3831 36.5406 43.1818C36.5706 43.3216 36.5706 43.4614 36.5706 43.5812C36.6305 43.5512 36.6006 43.5812 36.5406 43.6411L36.5506 43.6611Z" stroke="#337085" stroke-width="0.3" stroke-linecap="round" stroke-linejoin="round"/>
<path d="M43.3215 37.351C42.8622 37.381 42.4427 37.2412 42.0433 37.0715C41.2743 36.732 40.6751 36.2228 40.1059 35.6537C39.5366 35.0247 39.0273 34.3757 38.5979 33.6668C38.538 33.577 38.4881 33.557 38.3682 33.577C37.9688 33.6668 37.5693 33.7168 37.1499 33.7767C37.829 34.6053 38.2584 35.5339 38.4881 36.5323C38.6578 37.3011 38.7178 38.0998 38.6578 38.9185C36.5307 36.9317 34.4236 34.9648 32.3164 33.0079C32.8257 32.4388 33.3151 31.8697 33.8543 31.3006C34.084 31.4104 34.3636 31.5801 34.6233 31.7299C34.7931 31.3305 34.9329 30.9012 35.1026 30.4819C35.1626 30.3121 35.3323 30.3421 35.5021 30.392C36.0713 30.5617 36.6406 30.7914 37.2098 30.9311C37.8389 31.0709 38.4581 31.1907 39.0873 31.3006C39.5167 31.3605 39.9361 31.3605 40.3356 31.2107C40.4754 31.1508 40.6152 31.2107 40.6751 31.3505C40.735 31.4903 40.6451 31.6101 40.4754 31.66C40.046 31.7998 39.6265 31.7998 39.1671 31.7698C37.9987 31.68 36.8603 31.3705 35.7518 31.001C35.6619 30.9711 35.582 30.9411 35.4921 30.9112H35.4622C35.2325 31.2207 35.2924 31.68 34.9528 31.9096C35.6319 32.4488 36.321 33.0179 37.0001 33.587C37.0001 33.4172 37.1399 33.3573 37.3396 33.3274C37.7391 33.2675 38.1086 33.2175 38.508 33.1277C38.7078 33.0977 38.8176 33.1576 38.9375 33.3274C39.4767 34.2659 40.1059 35.1145 40.9248 35.8534C41.4041 36.2827 41.9434 36.6821 42.6025 36.8518C42.7723 36.9117 42.942 36.9417 43.0819 36.9616C43.3415 36.9916 43.3914 37.0515 43.3914 37.3011C43.3914 37.2412 43.3315 37.3011 43.3016 37.331L43.3215 37.351Z" stroke="#337085" stroke-width="0.3" stroke-linecap="round" stroke-linejoin="round"/>
<path d="M23.7579 29.6731C24.9263 29.0441 26.0647 29.3037 27.1932 29.7331C27.8224 29.9627 28.3916 30.3022 28.9808 30.5817C29.0407 30.382 29.1805 30.2123 29.4901 30.1524C29.3503 29.9527 29.2105 29.753 29.0607 29.5533C28.6013 28.8744 28.2917 28.1356 28.122 27.3668C27.9822 26.6579 27.9822 25.949 28.4016 25.2901C28.5114 25.2002 28.6013 25.0904 28.7112 25.0105C28.851 24.9506 28.9908 24.9506 29.0807 25.1004C29.1705 25.2501 29.0807 25.33 28.9708 25.4099C28.6313 25.7194 28.5114 26.1188 28.5114 26.5481C28.5114 27.3169 28.7411 28.0257 29.1106 28.7047C29.3104 29.0741 29.59 29.4435 29.8197 29.8129C29.8796 29.9228 29.9295 30.0426 29.9595 30.1524C29.9295 30.1524 29.9295 30.1823 29.8996 30.1823C29.9894 30.2123 30.0693 30.2422 30.1792 30.2722C29.6699 30.5018 29.3004 30.8114 29.0407 31.3205C28.9808 31.2107 28.9508 31.1209 28.9508 31.061C28.9508 31.0909 28.9209 31.0909 28.9209 31.1209C28.7811 31.061 28.6113 31.011 28.4915 30.9212C27.5228 30.2922 26.5042 29.8429 25.3058 29.753C24.8764 29.7231 24.4569 29.753 24.0575 29.9827C23.9676 30.0426 23.8877 30.0925 23.7978 30.1823C23.7079 30.2722 23.5981 30.3521 23.4583 30.2922C23.2885 30.2023 23.3185 30.0925 23.3684 29.9527C23.4782 29.8628 23.5981 29.753 23.7079 29.6731H23.7579Z" stroke="#337085" stroke-width="0.3" stroke-linecap="round" stroke-linejoin="round"/>
<path d="M32.8257 30.8413C32.9955 30.9012 33.1952 30.9811 33.3949 31.0709C32.4263 32.319 31.2678 33.3973 29.9296 34.3058C29.8398 34.1061 29.7599 33.9364 29.67 33.7667C29.67 33.7367 29.64 33.7068 29.64 33.6768C29.5501 33.2774 29.4403 32.908 29.3804 32.5087C29.3504 32.2291 29.3804 31.9396 29.4703 31.68C29.67 31.001 30.1793 30.6616 30.8883 30.5717C31.4276 30.5118 31.9669 30.6017 32.5062 30.7415C32.5661 30.7714 32.646 30.7714 32.7358 30.8014C32.7658 30.8014 32.7958 30.8014 32.8257 30.8313V30.8413Z" stroke="#337085" stroke-width="0.3" stroke-linecap="round" stroke-linejoin="round"/>
<path d="M29.6499 33.6868C29.6499 33.6868 29.6799 33.7467 29.6799 33.7767C29.59 34.0363 29.5101 34.0862 29.2205 33.9763C28.6512 33.7767 28.082 33.577 27.5128 33.3773C27.373 33.3174 27.2531 33.3174 27.1433 33.3773C26.4342 33.6868 25.7252 34.0063 25.0162 34.3158C24.9263 34.3458 24.7565 34.3757 24.6766 34.3158C24.5068 34.226 24.5668 34.0063 24.7665 33.9164C25.166 33.7467 25.5654 33.577 25.9649 33.4072C26.3643 33.2375 26.7638 33.0678 27.1633 32.8981C27.2731 32.8681 27.393 32.8381 27.5028 32.8981C28.1519 33.0977 28.811 33.3274 29.4402 33.547C29.5301 33.6069 29.61 33.6369 29.6699 33.6868H29.6499Z" stroke="#337085" stroke-width="0.3" stroke-linecap="round" stroke-linejoin="round"/>
<path d="M32.8256 30.8413C32.8256 30.8413 32.7657 30.8113 32.7357 30.8113C32.6758 30.7514 32.6259 30.6716 32.5959 30.6116C32.3662 30.0126 32.1166 29.4135 31.8869 28.7945C31.8569 28.7047 31.8569 28.5649 31.9168 28.485C32.2564 27.7462 32.6259 27.0373 32.9954 26.2985C32.9954 26.2685 33.0253 26.2386 33.0553 26.2086C33.1452 26.0988 33.2251 26.0389 33.3649 26.0988C33.5047 26.1587 33.5346 26.2685 33.4747 26.4083C33.3349 26.7178 33.1651 27.0373 32.9954 27.3768C32.7956 27.7462 32.5959 28.1455 32.4261 28.515C32.3962 28.6048 32.3662 28.7146 32.4261 28.7945C32.6259 29.3337 32.8556 29.8728 33.0553 30.412C33.1651 30.6716 33.1152 30.7514 32.8256 30.8413V30.8413Z" stroke="#337085" stroke-width="0.3" stroke-linecap="round" stroke-linejoin="round"/>
<path d="M104 18.8303C103.83 18.8602 103.66 18.8303 103.63 18.6306C103.52 17.8019 103.061 17.1529 102.462 16.5838C101.663 15.815 100.724 15.196 99.7054 14.6768C99.5057 14.567 99.4458 14.4472 99.4757 14.2475C99.5656 13.908 99.6155 13.5386 99.6754 13.1991C99.7354 12.9695 99.7653 12.9396 99.9551 12.8896C99.3559 12.2407 98.7367 11.5817 98.1675 10.9527C98.0776 11.0126 97.9677 11.1224 97.8579 11.1823C97.6282 11.2922 97.3785 11.3521 97.1189 11.4619C97.1489 11.5517 97.1788 11.6017 97.2088 11.6915C97.6082 12.7399 97.9777 13.8182 98.0576 14.9564C98.0876 15.3557 98.0876 15.7851 97.9478 16.1744C97.8879 16.3741 97.6881 16.434 97.5483 16.3142C97.4884 16.2543 97.4385 16.1445 97.4584 16.0846C97.6881 15.4356 97.5982 14.7467 97.4285 14.0977C97.1988 13.2491 96.8892 12.3904 96.5996 11.5418C96.5097 11.2622 96.5397 11.2023 96.7993 11.0825C97.0789 10.9727 97.3985 10.8528 97.6781 10.773C97.768 10.743 97.8779 10.7131 97.9877 10.7131C97.8479 10.4535 97.6781 10.2039 97.5283 10.0042C98.1575 9.52494 98.7467 9.06567 99.3758 8.58643C101.483 10.5433 103.58 12.5102 105.717 14.4971C104.719 14.557 103.76 14.4671 102.791 14.2375C101.823 14.0079 100.974 13.6384 100.205 13.0693C100.115 13.4388 100.065 13.7782 99.975 14.1476C99.9451 14.2874 99.975 14.3773 100.115 14.4272C101.113 14.9364 102.022 15.5654 102.791 16.3342C103.36 16.9033 103.84 17.5523 103.99 18.351C104.02 18.4908 104.02 18.6306 104.02 18.7504C104.079 18.7504 104.02 18.7803 103.99 18.8103L104 18.8303Z" stroke="#337085" stroke-width="0.3" stroke-linecap="round" stroke-linejoin="round"/>
<path d="M110.76 12.5203C110.301 12.5502 109.881 12.4104 109.482 12.2407C108.713 11.9012 108.114 11.392 107.545 10.8229C106.975 10.1939 106.466 9.54496 106.037 8.83608C105.977 8.74622 105.927 8.72625 105.807 8.74622C105.407 8.83608 105.008 8.886 104.589 8.94591C105.268 9.7746 105.697 10.7031 105.927 11.7016C106.097 12.4703 106.156 13.2691 106.097 14.0878C103.969 12.1009 101.862 10.134 99.7551 8.17712C100.264 7.60802 100.754 7.03892 101.293 6.46982C101.523 6.57964 101.802 6.74938 102.062 6.89914C102.232 6.49977 102.372 6.07045 102.541 5.65111C102.601 5.48138 102.771 5.51133 102.941 5.56125C103.51 5.73098 104.079 5.96062 104.649 6.1004C105.278 6.24018 105.897 6.35999 106.526 6.46982C106.955 6.52972 107.375 6.52972 107.774 6.37996C107.914 6.32005 108.054 6.37996 108.114 6.51974C108.174 6.65952 108.084 6.77933 107.914 6.82925C107.485 6.96903 107.065 6.96903 106.606 6.93908C105.437 6.84922 104.299 6.53971 103.19 6.17029C103.101 6.14034 103.021 6.11038 102.931 6.08043H102.901C102.671 6.38994 102.731 6.84922 102.392 7.07886C103.071 7.618 103.76 8.18711 104.439 8.75621C104.439 8.58648 104.579 8.52657 104.778 8.49662C105.178 8.43671 105.547 8.38679 105.947 8.29693C106.146 8.26698 106.256 8.32688 106.376 8.49662C106.915 9.43514 107.545 10.2838 108.363 11.0226C108.843 11.452 109.382 11.8513 110.041 12.0211C110.211 12.081 110.381 12.1109 110.521 12.1309C110.78 12.1608 110.83 12.2207 110.83 12.4703C110.8 12.4404 110.77 12.4703 110.74 12.5003L110.76 12.5203Z" stroke="#337085" stroke-width="0.3" stroke-linecap="round" stroke-linejoin="round"/>
<path d="M91.1768 4.84258C92.3452 4.21357 93.4837 4.47316 94.6122 4.90249C95.2413 5.13212 95.8105 5.47159 96.3997 5.75115C96.4597 5.55146 96.5995 5.38173 96.9091 5.32182C96.7692 5.12214 96.6294 4.92246 96.4796 4.72277C96.0203 4.04384 95.7107 3.30501 95.5409 2.53622C95.4011 1.82734 95.4011 1.11846 95.8205 0.459502C95.9304 0.369644 96.0203 0.259817 96.1301 0.179943C96.2699 0.120038 96.4097 0.120038 96.4996 0.269801C96.5895 0.419565 96.4996 0.499439 96.3898 0.579313C96.0502 0.888824 95.9304 1.28819 95.9304 1.71752C95.9304 2.4863 96.1601 3.19518 96.5296 3.87411C96.7293 4.24353 97.0089 4.61294 97.2386 4.98236C97.2985 5.09219 97.3485 5.212 97.3784 5.32182C97.3485 5.32182 97.3485 5.35178 97.3185 5.35178C97.4084 5.38173 97.4883 5.41168 97.5981 5.44164C97.0888 5.67127 96.7193 5.98078 96.4597 6.48998C96.3997 6.38015 96.3698 6.29029 96.3698 6.23039C96.3698 6.26034 96.3398 6.26034 96.3398 6.2903C96.2 6.23039 96.0302 6.18047 95.9104 6.09061C94.9417 5.4616 93.9231 5.01231 92.7247 4.92245C92.2953 4.8925 91.8759 4.92245 91.4764 5.15209C91.3865 5.212 91.3066 5.26192 91.2167 5.35178C91.1269 5.44164 91.017 5.52151 90.8772 5.4616C90.7074 5.37175 90.7374 5.26192 90.7873 5.12214C90.9271 5.03228 91.017 4.95241 91.1269 4.84258H91.1768Z" stroke="#337085" stroke-width="0.3" stroke-linecap="round" stroke-linejoin="round"/>
<path d="M100.274 6.01048C100.444 6.07039 100.644 6.15026 100.844 6.24012C99.875 7.48815 98.7166 8.56645 97.3784 9.47501C97.2885 9.27533 97.2086 9.1056 97.1187 8.93586C97.1187 8.90591 97.0888 8.87596 97.0888 8.84601C96.9989 8.44664 96.889 8.07722 96.8291 7.67785C96.7991 7.39829 96.8291 7.10875 96.919 6.84916C97.1187 6.17023 97.628 5.83077 98.3371 5.74091C98.8763 5.681 99.4156 5.77086 99.9549 5.91064C100.015 5.94059 100.095 5.94059 100.185 5.97055C100.215 5.97055 100.244 6.0005 100.274 6.0005V6.01048Z" stroke="#337085" stroke-width="0.3" stroke-linecap="round" stroke-linejoin="round"/>
<path d="M97.0889 8.85599C97.0889 8.85599 97.1188 8.9159 97.1188 8.94585C97.0289 9.20544 96.9491 9.25536 96.6594 9.14554C96.0902 8.94585 95.521 8.74617 94.9518 8.54648C94.8119 8.48658 94.6921 8.48658 94.5823 8.54648C93.8732 8.856 93.1642 9.17549 92.4551 9.485C92.3652 9.51495 92.1955 9.54491 92.1156 9.485C91.9458 9.39514 92.0057 9.17549 92.2055 9.08563C92.6049 8.9159 93.0044 8.74617 93.4038 8.57644C93.8033 8.4067 94.2028 8.23697 94.6022 8.06724C94.7121 8.03729 94.8319 8.00733 94.9418 8.06724C95.5909 8.26692 96.25 8.49656 96.8791 8.71622C96.969 8.77612 97.019 8.82604 97.1088 8.85599H97.0889Z" stroke="#337085" stroke-width="0.3" stroke-linecap="round" stroke-linejoin="round"/>
<path d="M100.275 6.01053C100.275 6.01053 100.215 5.98058 100.185 5.98058C100.125 5.92067 100.075 5.8408 100.045 5.7809C99.8152 5.18184 99.5655 4.58279 99.3358 3.96376C99.3059 3.87391 99.3059 3.73413 99.3658 3.65425C99.7053 2.91542 100.075 2.20654 100.444 1.46771C100.444 1.43775 100.474 1.4078 100.504 1.37785C100.594 1.26802 100.674 1.20812 100.814 1.26802C100.954 1.32793 100.984 1.43775 100.924 1.57753C100.784 1.88704 100.614 2.20654 100.444 2.546C100.245 2.91542 100.045 3.31479 99.8751 3.68421C99.8452 3.77406 99.8152 3.88389 99.8751 3.96376C100.075 4.50291 100.305 5.04206 100.504 5.58121C100.594 5.86077 100.564 5.95063 100.275 6.01053V6.01053Z" stroke="#337085" stroke-width="0.3" stroke-linecap="round" stroke-linejoin="round"/>
<path d="M55.0257 3.05539C54.9957 3.88408 54.9358 4.73274 54.9158 5.55145C54.8859 6.12055 54.9158 6.7196 54.9158 7.2887C54.9158 7.39853 54.9458 7.5483 54.9757 7.76795C55.3153 7.48839 55.6049 7.25875 55.8545 7.05907C55.8845 7.08902 55.9145 7.08902 55.9644 7.11897C55.9344 7.20883 55.9045 7.34861 55.8545 7.39853C55.2554 7.93768 54.6562 8.47683 54.067 9.04593C53.7574 9.32549 53.6375 9.10584 53.5576 8.8762C52.8486 7.19885 52.3892 5.46159 52.0497 3.67441C51.9099 2.96553 51.82 2.25665 51.6802 1.56774C51.6502 1.42796 51.5104 1.28818 51.4006 1.13842C51.2608 1.24824 51.061 1.3381 51.0011 1.50783C50.5717 2.52622 50.4618 3.58455 50.4918 4.66285C50.4918 4.80263 50.5517 4.94241 50.6016 5.06222C51.4305 6.47998 52.2794 7.90773 53.1282 9.32549C53.298 9.60505 53.298 9.78476 53.0384 10.0044C52.0996 10.8331 51.1609 11.6818 50.2521 12.5304C49.9925 12.7601 49.8527 12.7301 49.603 12.5005C48.5244 11.5021 47.386 10.5635 46.3074 9.54514C44.8294 8.15733 43.0119 7.86779 41.0446 7.89774C40.705 7.89774 40.3355 7.9277 40.0259 8.00757C39.8861 8.03752 39.7463 8.20725 39.5965 8.28713C39.7064 8.39696 39.8262 8.56669 39.966 8.62659C41.6737 9.30552 43.4313 9.87462 45.0791 10.6434C46.4972 11.2924 47.7755 12.181 49.1436 12.9498C49.4532 13.1195 49.3733 13.2593 49.1736 13.4889C48.8041 13.9182 48.4346 13.9182 47.9253 13.7485C47.2162 13.4889 46.4473 13.2892 45.7083 13.0696C45.3088 12.9598 44.9393 12.9298 44.5698 13.0696C43.9207 13.3292 43.2616 13.5788 42.6124 13.8084C42.5525 13.8384 42.4726 13.8683 42.4427 13.8983C42.3528 14.038 42.2729 14.1778 42.213 14.3276C42.3528 14.3875 42.4926 14.4674 42.6424 14.4674C43.4913 14.4674 44.3501 14.4075 45.169 14.4075C45.908 14.4075 46.647 14.4374 47.386 14.4674C47.4958 14.4674 47.6456 14.5572 47.7555 14.6071C47.6956 14.717 47.6656 14.8368 47.5857 14.9167C47.1863 15.2861 46.7868 15.6555 46.3873 15.995C46.2975 16.0848 46.1576 16.1048 46.0478 16.1647C46.0178 16.1048 45.9579 16.0748 45.9379 16.0249C46.3374 15.6555 46.7668 15.2861 47.1563 14.8867C47.1263 14.8268 47.0964 14.7969 47.0964 14.7469C46.6969 14.717 46.2675 14.687 45.878 14.687C44.8294 14.687 43.7709 14.717 42.7223 14.7469C42.3228 14.7469 41.9833 14.717 41.8435 14.3176C41.7037 13.9182 41.9833 13.6886 42.3228 13.5189C42.8321 13.2892 43.3415 13.0596 43.8607 12.8399C43.9706 12.78 44.0904 12.7501 44.2003 12.7002V12.5903C44.0605 12.5304 43.9406 12.4805 43.8008 12.4506C42.7223 12.2509 41.6138 12.0512 40.5352 11.8815C40.1358 11.8215 39.8262 11.7117 39.7962 11.2824C39.7663 10.883 40.0759 10.6833 40.4254 10.6334C41.1045 10.4936 41.7935 10.3539 42.4726 10.2341C42.6724 10.2041 42.8421 10.2041 43.0419 10.1741C43.0718 10.1442 43.0718 10.1142 43.1018 10.0643C42.9919 9.97446 42.8721 9.89459 42.7323 9.83469C41.7636 9.49522 40.8249 9.15576 39.8661 8.81629C39.5266 8.70647 39.217 8.5567 39.237 8.16732C39.237 7.82785 39.4966 7.65812 39.976 7.56826C41.0545 7.39853 42.1331 7.47841 43.2116 7.67809C43.3814 7.70804 43.5212 7.738 43.7509 7.64814C43.661 7.55828 43.5811 7.44845 43.4713 7.38855C42.6724 6.87935 41.8535 6.39012 41.0246 5.91088C40.6251 5.68124 40.4254 5.45161 40.4853 5.00232C40.5952 4.89249 40.715 4.77268 40.8548 4.6928C42.4427 4.6329 43.8707 5.29186 45.3987 5.7711C45.3088 5.54146 45.2589 5.43164 45.2289 5.31183C44.9693 4.48313 44.6597 3.66443 44.4599 2.83574C44.3501 2.37646 44.4599 1.86727 44.4599 1.38802C44.5498 1.29816 44.6297 1.24824 44.6896 1.15838C45.149 1.04856 45.4286 1.21829 45.6583 1.61766C46.1177 2.35649 46.5971 3.09533 47.0464 3.80421C47.1064 3.89406 47.2162 3.97394 47.3061 4.0638C47.396 3.89407 47.396 3.75429 47.366 3.60452C47.2262 2.63605 47.1663 1.69753 47.366 0.739047C47.4259 0.399583 47.5957 0.139992 47.9952 0.139992C48.3946 0.11004 48.5644 0.36963 48.6742 0.679141C49.0138 1.58771 49.3833 2.49627 49.7228 3.40484C49.7827 3.51466 49.8327 3.60452 49.8926 3.71435C49.9226 3.71435 49.9825 3.71435 50.0025 3.6844C50.0324 3.54462 50.0624 3.42481 50.0923 3.31498C50.2621 2.63605 50.4019 1.94714 50.5717 1.26821C50.6616 0.928747 50.8813 0.669157 51.3107 0.729062C51.7401 0.788968 51.85 1.06853 51.9099 1.40799C52.0796 2.42638 52.2794 3.48471 52.4791 4.5031C52.5091 4.61293 52.569 4.76269 52.6189 4.87252H52.7288C52.7887 4.76269 52.8386 4.64288 52.8985 4.56301C53.1582 4.08377 53.4079 3.59454 53.6675 3.11529C53.8672 2.71592 54.2068 2.57615 54.6662 2.68597C54.8359 2.8557 54.9458 2.94556 55.0357 3.02544L55.0257 3.05539ZM51.3307 11.1227C51.5304 10.923 51.7301 10.7233 51.9598 10.5535C52.2394 10.3239 52.2195 10.1841 51.9598 9.92454C51.081 9.07588 50.1722 8.18729 49.3433 7.27872C47.8354 5.57142 46.5571 3.75429 45.4186 1.82733C45.3288 1.68755 45.139 1.62764 44.9892 1.54777C44.8993 1.7175 44.7096 1.85728 44.7296 2.00704C44.8394 2.77583 44.8993 3.59454 45.159 4.33337C46.1776 7.19885 48.085 9.56511 50.2421 11.7517C50.3819 11.8914 50.5018 11.8914 50.6715 11.7517C50.8713 11.522 51.101 11.3223 51.3207 11.1227H51.3307ZM51.1309 8.81629C51.1309 8.81629 51.1908 8.78634 51.2208 8.75639C51.5903 9.1258 51.9598 9.49522 52.3593 9.83469C52.4192 9.89459 52.6389 9.89459 52.6988 9.83469C52.7887 9.77478 52.7887 9.60505 52.7887 9.52517C52.7887 9.4453 52.6788 9.35544 52.6189 9.26558C51.7101 7.69806 50.7115 6.20042 49.8926 4.57299C49.2934 3.37488 48.9239 2.0969 48.4146 0.878826C48.3547 0.739047 48.2149 0.649188 48.105 0.539362C47.9952 0.649188 47.8753 0.768999 47.7655 0.878826C47.7355 0.908779 47.7355 0.968684 47.7355 1.01861C47.4559 2.43637 47.7655 3.83416 48.135 5.19202C48.1649 5.25192 48.2249 5.33179 48.2748 5.3917C49.2135 6.49995 50.1822 7.63815 51.1409 8.80631L51.1309 8.81629ZM49.9325 12.3108L50.1023 12.2209C50.0424 12.1111 50.0124 11.9613 49.9026 11.8515C48.3647 10.2341 46.9466 8.52675 45.8081 6.58981C45.7482 6.47998 45.6683 6.36017 45.5485 6.31025C44.2702 5.66127 42.902 5.17205 41.424 5.06222C41.1944 5.03227 40.9147 4.97236 40.8249 5.26191C40.715 5.54146 40.9946 5.63132 41.1944 5.74115C44.2602 7.47841 47.1064 9.49522 49.5531 11.9314C49.6629 12.0712 49.8127 12.191 49.9226 12.3008L49.9325 12.3108ZM48.884 13.2493C48.7941 13.1594 48.7142 13.0496 48.6043 12.9697C47.2362 12.2009 45.8481 11.4322 44.4799 10.6933C44.3701 10.6334 44.2203 10.5835 44.0805 10.5835C42.912 10.5535 41.7536 10.6135 40.6451 10.9829C40.4753 11.0428 40.3355 11.2425 40.1857 11.3523C40.3555 11.4621 40.4953 11.6318 40.695 11.6618C43.2815 12.0312 45.8081 12.6303 48.2848 13.4789C48.5444 13.5688 48.7442 13.5688 48.884 13.2493ZM53.8572 8.58666C53.9172 8.61661 53.9671 8.61661 54.027 8.64656C54.1968 8.41692 54.5064 8.16732 54.5363 7.93768C54.6262 6.43006 54.6462 4.95239 54.6761 3.44477C54.6761 3.33495 54.5863 3.16522 54.5064 3.13526C54.4265 3.10531 54.2267 3.16522 54.1668 3.24509C53.9971 3.47473 53.8273 3.72433 53.6875 3.95397C53.0383 5.03227 52.8087 6.17047 53.4078 7.33863C53.6076 7.76795 53.7174 8.18729 53.8672 8.58666H53.8572Z" fill="#337085"/>
<path d="M19.9829 46.0972C19.953 46.9259 19.8931 47.7745 19.8731 48.5933C19.8431 49.1624 19.8731 49.7614 19.8731 50.3305C19.8731 50.4403 19.903 50.5901 19.933 50.8098C20.2725 50.5302 20.5622 50.3006 20.8118 50.1009C20.8418 50.1308 20.8717 50.1308 20.9217 50.1608C20.8917 50.2506 20.8618 50.3904 20.8118 50.4403C20.2126 50.9795 19.6134 51.5186 19.0242 52.0877C18.7147 52.3673 18.5948 52.1476 18.5149 51.918C17.8059 50.2407 17.3465 48.5034 17.007 46.7162C16.8672 46.0073 16.7773 45.2985 16.6375 44.6095C16.6075 44.4698 16.4677 44.33 16.3578 44.1802C16.218 44.2901 16.0183 44.3799 15.9584 44.5496C15.529 45.568 15.4191 46.6264 15.4491 47.7047C15.4491 47.8444 15.509 47.9842 15.5589 48.104C16.3878 49.5218 17.2367 50.9495 18.0855 52.3673C18.2553 52.6469 18.2553 52.8266 17.9956 53.0462C17.0569 53.8749 16.1182 54.7236 15.2094 55.5722C14.9497 55.8019 14.8099 55.7719 14.5603 55.5423C13.4817 54.5439 12.3433 53.6053 11.2647 52.5869C9.78672 51.1991 7.96918 50.9096 6.00183 50.9396C5.66229 50.9396 5.29279 50.9695 4.98321 51.0494C4.8434 51.0793 4.70359 51.2491 4.55379 51.3289C4.66364 51.4388 4.78348 51.6085 4.92329 51.6684C6.63098 52.3473 8.38861 52.9164 10.0364 53.6852C11.4545 54.3342 12.7327 55.2228 14.1009 55.9916C14.4105 56.1613 14.3306 56.3011 14.1308 56.5307C13.7613 56.96 13.3918 56.96 12.8825 56.7903C12.1735 56.5307 11.4045 56.331 10.6655 56.1114C10.2661 56.0016 9.89657 55.9716 9.52707 56.1114C8.87795 56.371 8.21884 56.6206 7.56971 56.8502C7.5098 56.8802 7.4299 56.9101 7.39994 56.9401C7.31007 57.0799 7.23017 57.2196 7.17025 57.3694C7.31007 57.4293 7.44988 57.5092 7.59967 57.5092C8.44853 57.5092 9.30737 57.4493 10.1263 57.4493C10.8653 57.4493 11.6043 57.4792 12.3433 57.5092C12.4531 57.5092 12.6029 57.599 12.7128 57.649C12.6528 57.7588 12.6229 57.8786 12.543 57.9585C12.1435 58.3279 11.7441 58.6973 11.3446 59.0368C11.2547 59.1266 11.1149 59.1466 11.0051 59.2065C10.9751 59.1466 10.9152 59.1166 10.8952 59.0667C11.2947 58.6973 11.7241 58.3279 12.1136 57.9285C12.0836 57.8686 12.0537 57.8387 12.0537 57.7887C11.6542 57.7588 11.2248 57.7288 10.8353 57.7288C9.78672 57.7288 8.72815 57.7588 7.67957 57.7887C7.28011 57.7887 6.94056 57.7588 6.80075 57.3594C6.66094 56.96 6.94056 56.7304 7.28011 56.5607C7.78942 56.331 8.29873 56.1014 8.81803 55.8818C8.92788 55.8218 9.04772 55.7919 9.15757 55.742V55.6321C9.01776 55.5722 8.89792 55.5223 8.75811 55.4924C7.67957 55.2927 6.57106 55.093 5.49252 54.9233C5.09306 54.8634 4.78348 54.7535 4.75352 54.3242C4.72356 53.9248 5.03314 53.7252 5.38267 53.6752C6.06175 53.5355 6.75082 53.3957 7.4299 53.2759C7.62963 53.2459 7.7994 53.2459 7.99913 53.216C8.02909 53.186 8.02909 53.1561 8.05905 53.1061C7.9492 53.0163 7.82936 52.9364 7.68955 52.8765C6.72086 52.537 5.78213 52.1976 4.82343 51.8581C4.48388 51.7483 4.1743 51.5985 4.19428 51.2091C4.19428 50.8697 4.45393 50.6999 4.93328 50.6101C6.01182 50.4403 7.09036 50.5202 8.16891 50.7199C8.33868 50.7499 8.47849 50.7798 8.70818 50.6899C8.6183 50.6001 8.5384 50.4903 8.42855 50.4304C7.62963 49.9212 6.81074 49.4319 5.98186 48.9527C5.5824 48.7231 5.38267 48.4934 5.44259 48.0441C5.55244 47.9343 5.67228 47.8145 5.81209 47.7346C7.39994 47.6747 8.82801 48.3337 10.3559 48.8129C10.2661 48.5833 10.2161 48.4734 10.1862 48.3536C9.92653 47.5249 9.61695 46.7062 9.41722 45.8775C9.30737 45.4183 9.41722 44.9091 9.41722 44.4298C9.5071 44.34 9.58699 44.2901 9.64691 44.2002C10.1063 44.0904 10.3859 44.2601 10.6156 44.6595C11.075 45.3983 11.5543 46.1371 12.0037 46.846C12.0636 46.9359 12.1735 47.0157 12.2634 47.1056C12.3532 46.9359 12.3533 46.7961 12.3233 46.6463C12.1835 45.6779 12.1236 44.7393 12.3233 43.7809C12.3832 43.4414 12.553 43.1818 12.9524 43.1818C13.3519 43.1518 13.5217 43.4114 13.6315 43.721C13.9711 44.6295 14.3406 45.5381 14.6801 46.4466C14.74 46.5565 14.79 46.6463 14.8499 46.7562C14.8798 46.7562 14.9398 46.7562 14.9597 46.7262C14.9897 46.5864 15.0196 46.4666 15.0496 46.3568C15.2194 45.6779 15.3592 44.9889 15.529 44.31C15.6188 43.9706 15.8385 43.711 16.268 43.7709C16.6974 43.8308 16.8072 44.1103 16.8672 44.4498C17.0369 45.4682 17.2367 46.5265 17.4364 47.5449C17.4663 47.6547 17.5263 47.8045 17.5762 47.9143H17.686C17.746 47.8045 17.7959 47.6847 17.8558 47.6048C18.1155 47.1256 18.3651 46.6363 18.6248 46.1571C18.8245 45.7577 19.164 45.618 19.6234 45.7278C19.8232 45.8676 19.903 45.9574 19.9929 46.0672L19.9829 46.0972ZM16.3179 54.1345C16.5176 53.9348 16.7174 53.7351 16.947 53.5654C17.2267 53.3358 17.2067 53.196 16.947 52.9364C16.0682 52.0877 15.1595 51.1991 14.3306 50.2906C12.8226 48.5833 11.5443 46.7661 10.4059 44.8392C10.316 44.6994 10.1263 44.6395 9.97646 44.5596C9.88658 44.7294 9.69684 44.8691 9.71681 45.0189C9.82666 45.7877 9.88658 46.6064 10.1462 47.3452C11.1649 50.2107 13.0723 52.577 15.2294 54.7635C15.3692 54.9033 15.489 54.9033 15.6588 54.7635C15.8286 54.5638 16.0882 54.3342 16.3079 54.1345H16.3179ZM16.0882 51.8281C16.0882 51.8281 16.1481 51.7982 16.1781 51.7682C16.5476 52.1377 16.9171 52.5071 17.3165 52.8465C17.3765 52.9064 17.5962 52.9064 17.6561 52.8465C17.746 52.7866 17.746 52.6169 17.746 52.537C17.746 52.4572 17.6361 52.3673 17.5762 52.2774C16.6674 50.7099 15.6688 49.2123 14.8499 47.5848C14.2507 46.3867 13.8812 45.1088 13.3719 43.8907C13.312 43.7509 13.1721 43.661 13.0623 43.5512C12.9524 43.661 12.8326 43.7809 12.7228 43.8907C12.6928 43.9206 12.6928 43.9805 12.6928 44.0305C12.4132 45.4482 12.7228 46.846 13.0923 48.2039C13.1222 48.2638 13.1821 48.3437 13.2321 48.4036C14.1708 49.5118 15.1395 50.68 16.0982 51.8182L16.0882 51.8281ZM14.9198 55.3526L15.0896 55.2627C15.0296 55.1529 14.9997 55.0031 14.8898 54.8933C13.3519 53.2759 11.9338 51.5686 10.7954 49.6316C10.7354 49.5218 10.6555 49.402 10.5357 49.3521C9.25743 48.7031 7.88928 48.2139 6.41128 48.104C6.18159 48.0741 5.90197 48.0142 5.81209 48.3037C5.70224 48.5833 5.98186 48.6731 6.18159 48.783C9.24745 50.5202 12.0936 52.537 14.5403 54.9732C14.6501 55.113 14.77 55.2328 14.9098 55.3426L14.9198 55.3526ZM13.8412 56.2911C13.7514 56.2012 13.6715 56.0914 13.5616 56.0115C12.1935 55.2428 10.8053 54.474 9.43719 53.7351C9.32734 53.6752 9.17754 53.6253 9.03773 53.6253C7.86931 53.5954 6.71088 53.6553 5.60237 54.0247C5.4326 54.0846 5.29279 54.2843 5.14299 54.3941C5.31276 54.5039 5.45258 54.6737 5.65231 54.7036C8.23881 55.073 10.7654 55.6721 13.242 56.5207C13.5017 56.6106 13.7014 56.5806 13.8412 56.2911ZM18.8145 51.6285C18.8744 51.6584 18.9244 51.6584 18.9843 51.6884C19.1541 51.4587 19.4636 51.2091 19.4936 50.9795C19.5835 49.4719 19.6035 47.9942 19.6334 46.4866C19.6334 46.3768 19.5435 46.207 19.4636 46.1771C19.3837 46.1471 19.184 46.207 19.1241 46.2869C18.9543 46.5165 18.7846 46.7661 18.6447 46.9958C17.9956 48.0741 17.7659 49.2123 18.3651 50.3804C18.5649 50.7798 18.6747 51.2091 18.8245 51.6285H18.8145Z" fill="#337085"/>
<path d="M88.5103 55.9317C88.4803 56.7604 88.4204 57.609 88.4004 58.4277C88.3705 58.9968 88.4004 59.5959 88.4004 60.165C88.4004 60.2748 88.4304 60.4246 88.4604 60.6442C88.7999 60.3647 89.0895 60.135 89.3392 59.9353C89.3691 59.9653 89.3991 59.9653 89.449 59.9953C89.4191 60.0851 89.3891 60.2249 89.3392 60.2748C88.74 60.814 88.1408 61.3531 87.5516 61.9222C87.242 62.2018 87.1222 61.9821 87.0423 61.7525C86.3332 60.0751 85.8738 58.3379 85.5343 56.5507C85.3945 55.8418 85.3046 55.1329 85.1648 54.444C85.1348 54.3042 84.995 54.1645 84.8852 54.0147C84.7454 54.1245 84.5456 54.2144 84.4857 54.3841C84.0563 55.4025 83.9464 56.4608 83.9764 57.5391C83.9764 57.6789 84.0363 57.8187 84.0863 57.9385C84.9151 59.3563 85.764 60.784 86.6129 62.2018C86.7826 62.4813 86.7826 62.661 86.523 62.8807C85.5842 63.7094 84.6455 64.5581 83.7367 65.4067C83.4771 65.6364 83.3373 65.6064 83.0876 65.3768C82.0091 64.3783 80.8706 63.4398 79.7921 62.4214C78.3141 61.0336 76.4965 60.7441 74.5292 60.774C74.1896 60.774 73.8201 60.804 73.5106 60.8839C73.3707 60.9138 73.2309 61.0835 73.0811 61.1634C73.191 61.2732 73.3108 61.443 73.4506 61.5029C75.1583 62.1818 76.9159 62.7509 78.5637 63.5197C79.9818 64.1687 81.2601 65.0573 82.6282 65.826C82.9378 65.9958 82.8579 66.1356 82.6582 66.3652C82.2887 66.7945 81.9192 66.7945 81.4099 66.6248C80.7008 66.3652 79.9319 66.1655 79.1929 65.9459C78.7934 65.836 78.4239 65.8061 78.0544 65.9459C77.4053 66.2055 76.7462 66.4551 76.0971 66.6847C76.0371 66.7146 75.9572 66.7446 75.9273 66.7745C75.8374 66.9143 75.7575 67.0541 75.6976 67.2039C75.8374 67.2638 75.9772 67.3437 76.127 67.3437C76.9759 67.3437 77.8347 67.2837 78.6536 67.2837C79.3926 67.2837 80.1316 67.3137 80.8706 67.3437C80.9805 67.3437 81.1303 67.4335 81.2401 67.4834C81.1802 67.5933 81.1502 67.7131 81.0703 67.7929C80.6709 68.1624 80.2714 68.5318 79.872 68.8712C79.7821 68.9611 79.6423 68.9811 79.5324 69.041C79.5025 68.9811 79.4425 68.9511 79.4226 68.9012C79.822 68.5318 80.2514 68.1624 80.6409 67.763C80.611 67.7031 80.581 67.6731 80.581 67.6232C80.1815 67.5933 79.7521 67.5633 79.3626 67.5633C78.3141 67.5633 77.2555 67.5933 76.2069 67.6232C75.8074 67.6232 75.4679 67.5933 75.3281 67.1939C75.1883 66.7945 75.4679 66.5649 75.8075 66.3952C76.3168 66.1655 76.8261 65.9359 77.3454 65.7162C77.4552 65.6563 77.5751 65.6264 77.6849 65.5764V65.4666C77.5451 65.4067 77.4253 65.3568 77.2855 65.3268C76.2069 65.1272 75.0984 64.9275 74.0199 64.7577C73.6204 64.6978 73.3108 64.588 73.2809 64.1587C73.2509 63.7593 73.5605 63.5596 73.91 63.5097C74.5891 63.3699 75.2782 63.2301 75.9572 63.1103C76.157 63.0804 76.3267 63.0804 76.5265 63.0504C76.5564 63.0205 76.5564 62.9905 76.5864 62.9406C76.4765 62.8507 76.3567 62.7709 76.2169 62.711C75.2482 62.3715 74.3095 62.032 73.3508 61.6926C73.0112 61.5828 72.7016 61.433 72.7216 61.0436C72.7216 60.7041 72.9813 60.5344 73.4606 60.4445C74.5392 60.2748 75.6177 60.3547 76.6963 60.5544C76.866 60.5843 77.0058 60.6143 77.2355 60.5244C77.1456 60.4346 77.0657 60.3247 76.9559 60.2648C76.157 59.7556 75.3381 59.2664 74.5092 58.7872C74.1097 58.5575 73.91 58.3279 73.9699 57.8786C74.0798 57.7688 74.1996 57.649 74.3394 57.5691C75.9273 57.5092 77.3554 58.1681 78.8833 58.6474C78.7934 58.4177 78.7435 58.3079 78.7135 58.1881C78.4539 57.3594 78.1443 56.5407 77.9446 55.712C77.8347 55.2527 77.9446 54.7435 77.9446 54.2643C78.0344 54.1744 78.1143 54.1245 78.1743 54.0347C78.6336 53.9248 78.9133 54.0946 79.1429 54.4939C79.6023 55.2328 80.0817 55.9716 80.5311 56.6805C80.591 56.7703 80.7008 56.8502 80.7907 56.9401C80.8806 56.7703 80.8806 56.6306 80.8506 56.4808C80.7108 55.5123 80.6509 54.5738 80.8506 53.6153C80.9106 53.2759 81.0803 53.0163 81.4798 53.0163C81.8792 52.9863 82.049 53.2459 82.1589 53.5554C82.4984 54.464 82.8679 55.3726 83.2074 56.2811C83.2674 56.3909 83.3173 56.4808 83.3772 56.5906C83.4072 56.5906 83.4671 56.5906 83.4871 56.5607C83.517 56.4509 83.547 56.3011 83.577 56.1913C83.7467 55.5123 83.8865 54.8234 84.0563 54.1445C84.1462 53.805 84.3659 53.5454 84.7953 53.6053C85.2247 53.6652 85.3346 53.9448 85.3945 54.2843C85.5643 55.3027 85.764 56.361 85.9637 57.3794C85.9937 57.4892 86.0536 57.639 86.1035 57.7488H86.2134C86.2733 57.639 86.3232 57.5192 86.3832 57.4393C86.6428 56.96 86.8925 56.4708 87.1521 55.9916C87.3518 55.5922 87.6914 55.4524 88.1508 55.5623C88.3205 55.702 88.4104 55.7919 88.5203 55.9017L88.5103 55.9317ZM84.8153 63.969C85.015 63.7693 85.2147 63.5696 85.4444 63.3999C85.724 63.1702 85.7041 63.0305 85.4444 62.7709C84.5656 61.9222 83.6568 61.0336 82.828 60.1251C81.32 58.4177 80.0417 56.6006 78.9033 54.6737C78.8134 54.5339 78.6236 54.474 78.4738 54.3941C78.384 54.5638 78.1942 54.7036 78.2142 54.8534C78.324 55.6222 78.384 56.4409 78.6436 57.1797C79.6622 60.0452 81.5697 62.4114 83.7267 64.598C83.8666 64.7378 83.9864 64.7378 84.1562 64.598C84.3559 64.3683 84.5856 64.1687 84.8053 63.969H84.8153ZM84.5856 61.6626C84.5856 61.6626 84.6455 61.6327 84.6755 61.6027C85.045 61.9721 85.4145 62.3416 85.8139 62.681C85.8738 62.7409 86.0935 62.7409 86.1535 62.681C86.2433 62.6211 86.2433 62.4514 86.2433 62.3715C86.2433 62.2916 86.1335 62.2018 86.0736 62.1119C85.1648 60.5444 84.1662 59.0468 83.3473 57.4193C82.7481 56.2212 82.3786 54.9432 81.8693 53.7252C81.8093 53.5854 81.6695 53.4955 81.5597 53.3857C81.4498 53.4955 81.33 53.6153 81.2201 53.7252C81.1902 53.7551 81.1902 53.815 81.1902 53.8649C80.9106 55.2827 81.2201 56.6805 81.5896 58.0383C81.6196 58.0983 81.6795 58.1781 81.7294 58.238C82.6682 59.3463 83.6369 60.5144 84.5956 61.6526L84.5856 61.6626ZM83.4172 65.1871L83.5869 65.0972C83.527 64.9874 83.4971 64.8376 83.3872 64.7278C81.8493 63.1103 80.4312 61.403 79.2927 59.4661C79.2328 59.3563 79.1529 59.2365 79.0331 59.1865C77.7548 58.5376 76.3867 58.0483 74.9087 57.9385C74.679 57.9085 74.3994 57.8486 74.3095 58.1382C74.1996 58.4177 74.4792 58.5076 74.679 58.6174C77.7448 60.3547 80.591 62.3715 83.0377 64.8077C83.1475 64.9175 83.2674 65.0672 83.4072 65.1771L83.4172 65.1871ZM82.3686 66.1256C82.2787 66.0357 82.1988 65.9259 82.089 65.846C80.7208 65.0772 79.3327 64.3084 77.9645 63.5696C77.8547 63.5097 77.7049 63.4598 77.5651 63.4598C76.3967 63.4298 75.2382 63.4897 74.1297 63.8592C73.9599 63.9191 73.8201 64.1187 73.6703 64.2286C73.8401 64.3384 73.9799 64.5081 74.1796 64.5381C76.7662 64.9075 79.2927 65.5066 81.7694 66.3552C81.9991 66.4451 82.1988 66.4151 82.3686 66.1256ZM87.3119 61.4629C87.3718 61.4929 87.4218 61.4929 87.4817 61.5228C87.6514 61.2932 87.961 61.0436 87.991 60.814C88.0809 59.3063 88.1008 57.8287 88.1308 56.3211C88.1308 56.2112 88.0409 56.0415 87.961 56.0115C87.8811 55.9816 87.6814 56.0415 87.6215 56.1214C87.4517 56.351 87.2819 56.6006 87.1421 56.8303C86.493 57.9085 86.2633 59.0468 86.8625 60.2149C87.0622 60.6143 87.1721 61.0436 87.3219 61.4629H87.3119Z" fill="#337085"/>
<path d="M95.9603 45.1387C94.8817 47.495 95.8205 50.2007 98.1773 51.4787C100.454 52.6968 103.24 52.2775 104.938 50.4603C106.616 48.6732 106.696 45.9974 105.168 44.1203C103.49 42.0736 100.454 41.5344 98.0874 42.8723C98.0275 42.6127 97.9775 42.3631 97.9176 42.1035C97.9176 42.0736 98.0075 42.0137 98.0574 41.9937C99.0761 41.5145 100.165 41.3148 101.293 41.3647C104.019 41.5045 106.356 43.3216 106.945 45.8277C107.455 47.9343 106.856 49.7515 105.268 51.279C103.31 53.1561 100.125 53.4955 97.7079 52.1577C95.1514 50.7099 94.0429 47.8944 95.0115 45.2486C95.0715 45.1387 95.1014 45.0788 95.2412 45.1088C95.4709 45.1088 95.7006 45.1088 95.9503 45.1387H95.9603Z" fill="#337085"/>
<path d="M93.8533 42.7226C94.3127 42.2433 94.762 41.7541 95.2214 41.2748C95.3612 41.4745 95.501 41.6443 95.6508 41.8439C96.0803 42.413 96.4997 43.0121 96.9591 43.5812C97.019 43.6711 97.019 43.721 96.9591 43.7809C96.7727 43.9673 96.5629 44.0039 96.3299 43.8907C95.561 43.5213 94.792 43.1519 94.023 42.7825C93.9332 42.7525 93.9132 42.7525 93.8533 42.7226Z" fill="#337085"/>
<path d="M97.3484 43.3715C96.8091 42.6327 96.2699 41.9238 95.7306 41.185C95.5974 41.0119 95.6074 40.8422 95.7606 40.6758C96.0701 40.3363 96.4097 39.9669 96.7292 39.6274C96.7592 39.5975 96.7892 39.5376 96.8391 39.4877C96.8691 39.5476 96.8691 39.5975 96.899 39.6274C97.1587 40.7057 97.3784 41.7541 97.638 42.8424C97.6979 43.0421 97.668 43.1519 97.4982 43.2717C97.4383 43.3016 97.3884 43.3316 97.3584 43.3815L97.3484 43.3715Z" fill="#337085"/>
<path d="M96.3797 44.3999C96.3197 44.5097 96.2698 44.5996 96.1799 44.6795C96.15 44.7094 96.0701 44.7394 96.0102 44.7394C94.8717 44.6495 93.7632 44.5996 92.6247 44.5097C92.4849 44.5097 92.3651 44.4798 92.1953 44.4798C92.2253 44.4199 92.2552 44.3899 92.2852 44.3699C92.6547 43.9706 93.0542 43.5413 93.4237 43.1519C93.4836 43.092 93.5135 43.042 93.6234 43.092C94.5322 43.5213 95.4409 43.9406 96.3797 44.3999Z" fill="#337085"/>
<path d="M93.0043 42.9722C92.6048 43.3715 92.2653 43.7709 91.8658 44.1703C91.776 43.7409 91.6961 43.3416 91.6062 42.9222C92.0856 42.9222 92.5449 42.9522 92.9943 42.9821L93.0043 42.9722Z" fill="#337085"/>
<path d="M96.4997 39.2281C96.1302 39.6275 95.7607 40.0268 95.3612 40.4262C95.2713 39.9969 95.1914 39.5975 95.1016 39.1782C95.5809 39.2081 96.0103 39.2381 96.4897 39.2381L96.4997 39.2281Z" fill="#337085"/>
<path d="M94.7619 41.1051C94.3924 41.5045 94.0229 41.9038 93.6234 42.3032C93.5335 41.8739 93.4536 41.4745 93.3638 41.0552C93.8431 41.0851 94.2725 41.0851 94.7519 41.1151L94.7619 41.1051Z" fill="#337085"/>
<path d="M93.2241 42.5528C92.7647 42.5229 92.3453 42.5229 91.856 42.4929C92.2255 42.0935 92.595 41.6942 92.9645 41.2948C93.0543 41.7241 93.1342 42.1235 93.2241 42.5428V42.5528Z" fill="#337085"/>
<path d="M94.9617 40.7058C94.5023 40.6758 94.0529 40.6758 93.5935 40.6459C93.963 40.2465 94.3325 39.8471 94.702 39.4478C94.7919 39.8771 94.8718 40.2764 94.9617 40.6958V40.7058Z" fill="#337085"/>
<path d="M57.6422 84.4266C56.5636 86.7829 57.5023 89.4887 59.8592 90.7666C62.1361 91.9847 64.9223 91.5654 66.62 89.7482C68.2977 87.9611 68.3776 85.2853 66.8497 83.4083C65.172 81.3615 62.1361 80.8223 59.7693 82.1602C59.7094 81.9006 59.6594 81.651 59.5995 81.3914C59.5995 81.3615 59.6894 81.3016 59.7393 81.2816C60.7579 80.8024 61.8465 80.6027 62.9749 80.6526C65.7013 80.7924 68.0381 82.6095 68.6273 85.1156C69.1366 87.2222 68.5374 89.0394 66.9496 90.5669C64.9922 92.444 61.8065 92.7834 59.3898 91.4456C56.8332 89.9978 55.7247 87.1823 56.6934 84.5365C56.7534 84.4266 56.7833 84.3667 56.9231 84.3967C57.1528 84.4266 57.4025 84.4266 57.6322 84.4266H57.6422Z" fill="#337085"/>
<path d="M55.5747 82.0105C56.0341 81.5312 56.4835 81.042 56.9429 80.5627C57.0827 80.7624 57.2225 80.9322 57.3723 81.1318C57.8017 81.7009 58.2211 82.3 58.6805 82.8691C58.7404 82.959 58.7404 83.0089 58.6805 83.0688C58.4941 83.2552 58.2844 83.2918 58.0514 83.1786C57.2824 82.8092 56.5134 82.4398 55.7445 82.0704C55.6546 82.0704 55.6346 82.0404 55.5747 82.0105Z" fill="#337085"/>
<path d="M59.0401 82.6695C58.5008 81.9306 57.9615 81.2217 57.4222 80.4829C57.2891 80.3098 57.2991 80.1401 57.4522 79.9737C57.7618 79.6342 58.1013 79.2648 58.4209 78.9254C58.4509 78.8954 58.4808 78.8355 58.5307 78.7856C58.5607 78.8455 58.5607 78.8954 58.5907 78.9254C58.8503 80.0037 59.07 81.052 59.3297 82.1403C59.3896 82.34 59.3596 82.4498 59.1899 82.5696C59.1299 82.6295 59.1 82.6595 59.05 82.6794L59.0401 82.6695Z" fill="#337085"/>
<path d="M58.1013 83.6878C58.0414 83.7976 57.9915 83.8875 57.9016 83.9674C57.8716 83.9973 57.7918 84.0273 57.7318 84.0273C56.5934 83.9374 55.4849 83.8875 54.3464 83.7976C54.2066 83.7976 54.0868 83.7677 53.917 83.7677C53.947 83.7078 53.9769 83.6778 54.0069 83.6579C54.3764 83.2585 54.7758 82.8292 55.1453 82.4398C55.2053 82.3799 55.2352 82.3299 55.3451 82.3799C56.2538 82.8092 57.1626 83.2285 58.1013 83.6878Z" fill="#337085"/>
<path d="M54.716 82.2701C54.3165 82.6694 53.977 83.0688 53.5775 83.4682C53.4876 83.0389 53.4077 82.6395 53.3179 82.2202C53.7972 82.2501 54.2266 82.2501 54.706 82.2801L54.716 82.2701Z" fill="#337085"/>
<path d="M58.2113 78.5459C57.8418 78.9453 57.4723 79.3447 57.0729 79.7441C56.983 79.3147 56.9031 78.9154 56.8132 78.496C57.2726 78.526 57.722 78.526 58.2014 78.5559L58.2113 78.5459Z" fill="#337085"/>
<path d="M56.4535 80.3931C56.084 80.7924 55.7145 81.1918 55.3151 81.5912C55.2252 81.1618 55.1453 80.7625 55.0554 80.3431C55.5348 80.3731 55.9942 80.403 56.4435 80.403L56.4535 80.3931Z" fill="#337085"/>
<path d="M54.9158 81.8707C54.4564 81.8407 54.0369 81.8407 53.5476 81.8108C53.9171 81.4114 54.2866 81.012 54.6561 80.6127C54.766 81.012 54.8259 81.4114 54.9158 81.8607V81.8707Z" fill="#337085"/>
<path d="M56.6833 79.9937C56.224 79.9637 55.7746 79.9637 55.3152 79.9338C55.6847 79.5344 56.0542 79.135 56.4237 78.7357C56.5136 79.165 56.5935 79.5643 56.6833 79.9837V79.9937Z" fill="#337085"/>
<path d="M4.32403 87.1724C3.24549 89.5286 4.18422 92.2344 6.54104 93.5124C8.81796 94.7304 11.6042 94.3111 13.3019 92.494C14.9796 90.7068 15.0595 88.031 13.5316 86.154C11.8539 84.1072 8.81796 83.5681 6.45116 84.9059C6.39124 84.6464 6.34131 84.3967 6.28139 84.1372C6.28139 84.1072 6.37127 84.0473 6.4212 84.0273C7.43982 83.5481 8.52835 83.3484 9.65683 83.3983C12.3831 83.5381 14.72 85.3552 15.3092 87.8613C15.8185 89.968 15.2193 91.7851 13.6315 93.3127C11.6741 95.1897 8.48841 95.5292 6.07167 94.1913C3.51513 92.7436 2.40663 89.928 3.37532 87.2822C3.43524 87.1724 3.46519 87.1125 3.60501 87.1424C3.8347 87.1424 4.06439 87.1424 4.31405 87.1724H4.32403Z" fill="#337085"/>
<path d="M2.21704 84.7562C2.67642 84.2769 3.12581 83.7877 3.58519 83.3085C3.725 83.5082 3.86481 83.6779 4.01461 83.8776C4.44403 84.4467 4.86346 85.0457 5.32284 85.6148C5.38276 85.7047 5.38276 85.7546 5.32284 85.8145C5.13643 86.0009 4.92671 86.0375 4.69369 85.9243C3.92473 85.5549 3.15577 85.1855 2.38681 84.8161C2.32689 84.7861 2.27696 84.7562 2.21704 84.7562Z" fill="#337085"/>
<path d="M5.71218 85.4152C5.1729 84.6763 4.63363 83.9675 4.09436 83.2286C3.96121 83.0556 3.9712 82.8858 4.12432 82.7194C4.4339 82.38 4.77344 82.0106 5.09301 81.6711C5.12297 81.6411 5.15293 81.5812 5.20286 81.5313C5.23282 81.5912 5.23282 81.6411 5.26278 81.6711C5.52243 82.7494 5.74214 83.7977 6.00179 84.886C6.0617 85.0857 6.03174 85.1955 5.86197 85.3153C5.80205 85.3453 5.7721 85.3752 5.72216 85.4252L5.71218 85.4152Z" fill="#337085"/>
<path d="M4.74367 86.4335C4.68375 86.5434 4.63382 86.6332 4.54394 86.7131C4.51398 86.743 4.43409 86.773 4.37417 86.773C3.23571 86.6831 2.12721 86.6332 0.988746 86.5434C0.848935 86.5434 0.729097 86.5134 0.559326 86.5134C0.589286 86.4535 0.619245 86.4235 0.649205 86.4036C1.01871 86.0042 1.41817 85.5749 1.78767 85.1855C1.84759 85.1256 1.87754 85.0757 1.9874 85.1256C2.92613 85.5549 3.8349 85.9743 4.74367 86.4335Z" fill="#337085"/>
<path d="M1.3881 84.9858C0.988641 85.3852 0.6491 85.7846 0.249639 86.1839C0.159761 85.7546 0.0798688 85.3553 -0.0100098 84.9359C0.469342 84.9659 0.898762 84.9958 1.37811 84.9958L1.3881 84.9858Z" fill="#337085"/>
<path d="M4.86344 81.2617C4.49394 81.6611 4.12444 82.0605 3.72498 82.4598C3.6351 82.0305 3.55521 81.6311 3.46533 81.2118C3.94468 81.2417 4.40406 81.2717 4.85346 81.2717L4.86344 81.2617Z" fill="#337085"/>
<path d="M3.12565 83.1387C2.75615 83.5381 2.38665 83.9375 1.98719 84.3368C1.89731 83.9075 1.81742 83.5081 1.72754 83.0888C2.20689 83.1188 2.63631 83.1188 3.11566 83.1487L3.12565 83.1387Z" fill="#337085"/>
<path d="M1.58788 84.5864C1.1285 84.5565 0.709065 84.5565 0.219727 84.5265C0.589227 84.1272 0.958728 83.7278 1.32823 83.3284C1.41811 83.7578 1.498 84.1571 1.58788 84.5765V84.5864Z" fill="#337085"/>
<path d="M3.32543 82.7394C2.86605 82.7094 2.41665 82.7094 1.95728 82.6795C2.32678 82.2801 2.69628 81.8808 3.06578 81.4814C3.17563 81.9107 3.23555 82.3101 3.32543 82.7294V82.7394Z" fill="#337085"/>
</g>
</g>
<defs>
<clipPath id="clip0_139_520719">
<rect width="111" height="95" rx="8" fill="white"/>
</clipPath>
</defs>
</svg>
