<svg width="111" height="95" viewBox="0 0 111 95" fill="none" xmlns="http://www.w3.org/2000/svg">
<g opacity="0.5">
<g clip-path="url(#clip0_146_458320)">
<path d="M13.6119 19.02C12.1339 20.3878 9.45749 22.175 6.45155 23.1734C5.94224 23.3432 5.43293 23.453 4.91363 23.5728C4.40432 23.6826 4.3444 23.7126 4.31444 23.3731C4.03482 21.2165 3.68529 19.0799 3.14602 16.9533C2.66667 15.0463 2.03752 13.2291 1.18866 11.442C1.12874 11.3022 1.18866 11.1324 1.32847 11.0426C3.4556 9.82451 5.16329 8.22704 6.47152 6.24017C6.5614 6.10039 6.6413 6.01054 6.81107 6.10039C9.65722 7.31847 12.6632 8.03734 15.739 8.51658C17.0472 8.71626 18.3854 8.88599 19.6937 9.05573C19.9533 9.08568 19.9733 9.14559 19.9533 9.36524C19.5838 11.1025 18.8148 12.7199 17.8462 14.2276C16.8275 15.7951 15.6292 17.1529 13.6119 19.03V19.02ZM7.39028 6.71942C5.9722 8.90596 4.09474 10.6432 1.75789 11.9811C3.40567 15.6154 4.11471 19.4593 4.62402 23.3731L6.9309 22.7241C6.84103 22.4146 6.76113 22.1251 6.67125 21.8755C6.0421 19.8287 5.33306 17.8119 4.39433 15.855C4.33441 15.7452 4.1946 15.5954 4.39433 15.4856C4.59406 15.3957 4.65398 15.5954 4.70391 15.7152C5.44291 17.2228 6.01215 18.7604 6.55142 20.3179C6.81107 21.0568 7.03077 21.7956 7.29042 22.5943C8.05938 22.2249 8.79838 21.8855 9.50742 21.5161C9.48745 21.4561 9.47746 21.4195 9.47746 21.4062C8.30904 19.0799 7.09069 16.7735 5.72254 14.5271C5.49285 14.1577 5.26316 13.7883 5.04345 13.4188C4.98354 13.329 4.98354 13.2192 5.10337 13.1892C5.16329 13.1592 5.27314 13.2192 5.33306 13.2791C5.39298 13.339 5.42294 13.3889 5.47287 13.4787C7.04076 15.9748 8.39892 18.5408 9.73711 21.1466C9.76707 21.2065 9.82699 21.2864 9.87692 21.3763C10.6159 20.897 11.325 20.4078 12.064 19.9286C11.8942 19.7289 11.7843 19.5591 11.6345 19.3894C9.98677 17.2628 8.339 15.1261 6.66127 12.9995C6.40162 12.66 6.15196 12.3505 5.89231 12.0011C5.80243 11.9112 5.78246 11.8014 5.89231 11.7215C6.00216 11.6416 6.122 11.7215 6.17193 11.8114L6.20189 11.8413C6.85101 12.67 7.48016 13.4887 8.13927 14.3174C8.93819 15.3158 9.70715 16.3043 10.4661 17.3027C11.0953 18.1314 11.6845 18.8702 12.3136 19.6889C13.3323 18.9202 14.251 18.0715 15.0999 17.1629C15.0399 17.103 14.99 17.0531 14.9301 17.0231C13.7617 16.0846 12.5733 15.1461 11.4049 14.2375C9.98678 13.1293 8.58866 12.021 7.17058 10.8828C7.0807 10.793 6.97085 10.7131 7.0807 10.6033C7.19055 10.4935 7.31039 10.5733 7.39028 10.6332C8.01943 11.1424 8.66856 11.6317 9.29771 12.1409C11.0853 13.5586 12.9028 14.9864 14.7004 16.4041C14.9001 16.5739 15.0999 16.7136 15.3495 16.9133C15.9188 16.2344 16.458 15.5754 16.9973 14.8965C16.8875 14.8366 16.8275 14.7867 16.7377 14.7567C14.0912 13.3889 11.5047 11.9412 9.03806 10.3237C8.92821 10.2339 8.77841 10.1839 8.69852 10.0641C8.66856 10.0342 8.6386 9.8944 8.66856 9.86445C8.72848 9.80454 8.80837 9.80454 8.89825 9.80454C8.92821 9.80454 8.98812 9.86445 9.0081 9.86445C11.1152 11.2523 13.3023 12.5402 15.5493 13.7283C16.0885 14.0079 16.6278 14.2975 17.197 14.607C17.6264 13.8981 18.0259 13.2192 18.4453 12.5302C18.3555 12.5003 18.3055 12.4703 18.2756 12.4703C17.5366 12.2107 16.7676 11.9312 16.0286 11.6716C14.3808 11.0426 12.813 10.3637 11.285 9.515C11.1752 9.4551 11.0553 9.37522 11.1452 9.25541C11.2351 9.11563 11.3449 9.16555 11.4548 9.22546C13.6418 10.4435 15.9987 11.3521 18.3854 12.1508C18.4453 12.1808 18.5252 12.1808 18.5852 12.2107C18.9547 11.6117 19.5538 9.88442 19.5538 9.4551C15.3495 8.9459 11.2551 8.28694 7.36032 6.75935L7.39028 6.71942ZM1.64804 11.6317C3.86505 10.3537 5.65263 8.67633 7.05074 6.56965C6.91093 6.50975 6.82105 6.47979 6.74116 6.45983C6.3417 6.96902 5.9722 7.47822 5.57274 7.93749C4.46424 9.21547 3.18596 10.2938 1.70796 11.1724C1.53486 11.2855 1.51489 11.4386 1.64804 11.6317Z" fill="#ACC7CE"/>
<path d="M38.2984 84.7362C36.8204 86.104 34.144 87.8912 31.1381 88.8896C30.6288 89.0594 30.1195 89.1692 29.6002 89.289C29.0908 89.3988 29.0309 89.4288 29.001 89.0893C28.7213 86.9327 28.3718 84.7961 27.8325 82.6694C27.3532 80.7625 26.724 78.9453 25.8752 77.1581C25.8153 77.0184 25.8752 76.8486 26.015 76.7588C28.1421 75.5407 29.8498 73.9432 31.158 71.9564C31.2479 71.8166 31.3278 71.7267 31.4976 71.8166C34.3437 73.0347 37.3497 73.7535 40.4255 74.2328C41.7338 74.4324 43.0719 74.6022 44.3802 74.7719C44.6398 74.8019 44.6598 74.8618 44.6398 75.0814C44.2703 76.8187 43.5014 78.4361 42.5327 79.9437C41.4841 81.5113 40.3157 82.8691 38.2984 84.7462V84.7362ZM32.0468 72.4356C30.6288 74.6222 28.7513 76.3594 26.4145 77.6973C28.0622 81.3316 28.7713 85.1755 29.2806 89.0893L31.5875 88.4403C31.4976 88.1308 31.4177 87.8413 31.3278 87.5917C30.6987 85.5449 29.9896 83.5281 29.0509 81.5712C28.991 81.4613 28.8512 81.3116 29.0509 81.2018C29.2506 81.1119 29.3105 81.3116 29.3605 81.4314C30.0995 82.939 30.6687 84.4766 31.208 86.0341C31.4676 86.773 31.6873 87.5118 31.947 88.3105C32.7159 87.9411 33.4549 87.6017 34.164 87.2322C34.144 87.1723 34.134 87.1357 34.134 87.1224C32.9656 84.7961 31.7473 82.4897 30.3791 80.2433C30.1494 79.8739 29.9197 79.5044 29.7 79.135C29.6401 79.0452 29.6401 78.9353 29.7599 78.9054C29.8199 78.8754 29.9297 78.9353 29.9896 78.9952C30.0495 79.0552 30.0795 79.1051 30.1294 79.1949C31.6973 81.691 33.0555 84.2569 34.3937 86.8628C34.4236 86.9227 34.4836 87.0026 34.5335 87.0925C35.2725 86.6132 35.9815 86.124 36.7205 85.6447C36.5508 85.4451 36.4409 85.2753 36.2911 85.1056C34.6433 82.979 32.9956 80.8423 31.3178 78.7157C31.0582 78.3762 30.8085 78.0667 30.5489 77.7173C30.459 77.6274 30.439 77.5176 30.5489 77.4377C30.6587 77.3578 30.7786 77.4377 30.8285 77.5276L30.8585 77.5575C31.5076 78.3862 32.1367 79.2049 32.7958 80.0336C33.5948 81.032 34.3637 82.0205 35.1227 83.0189C35.7518 83.8476 36.341 84.5864 36.9702 85.4051C37.9888 84.6363 38.9076 83.7877 39.7564 82.8791C39.6965 82.8192 39.6466 82.7693 39.5867 82.7393C38.4182 81.8008 37.2298 80.8623 36.0614 79.9537C34.6433 78.8455 33.2452 77.7372 31.8271 76.599C31.7373 76.5092 31.6274 76.4293 31.7373 76.3195C31.8471 76.2096 31.967 76.2895 32.0468 76.3494C32.676 76.8586 33.3251 77.3478 33.9543 77.857C35.7419 79.2748 37.5594 80.7025 39.357 82.1203C39.5567 82.29 39.7564 82.4298 40.0061 82.6295C40.5753 81.9506 41.1146 81.2916 41.6539 80.6127C41.544 80.5528 41.4841 80.5029 41.3942 80.4729C38.7478 79.1051 36.1613 77.6574 33.6946 76.0399C33.5848 75.9501 33.435 75.9001 33.3551 75.7803C33.3251 75.7504 33.2952 75.6106 33.3251 75.5806C33.385 75.5207 33.4649 75.5207 33.5548 75.5207C33.5848 75.5207 33.6447 75.5806 33.6647 75.5806C35.7718 76.9684 37.9589 78.2564 40.2058 79.4445C40.7451 79.7241 41.2844 80.0136 41.8536 80.3231C42.283 79.6143 42.6825 78.9353 43.1019 78.2464C43.012 78.2165 42.9621 78.1865 42.9321 78.1865C42.1931 77.9269 41.4242 77.6474 40.6852 77.3878C39.0374 76.7588 37.4695 76.0798 35.9416 75.2312C35.8317 75.1713 35.7119 75.0914 35.8018 74.9716C35.8917 74.8318 36.0015 74.8817 36.1114 74.9416C38.2984 76.1597 40.6552 77.0683 43.042 77.867C43.1019 77.897 43.1818 77.897 43.2417 77.9269C43.6112 77.3279 44.2104 75.6006 44.2104 75.1713C40.0361 74.6621 35.9116 74.0031 32.0169 72.4755L32.0468 72.4356ZM26.3046 77.3478C28.5216 76.0699 30.3092 74.3925 31.7073 72.2858C31.5675 72.2259 31.4776 72.196 31.3977 72.176C30.9983 72.6852 30.6288 73.1944 30.2293 73.6537C29.1208 74.9317 27.8425 76.01 26.3645 76.8886C26.1914 77.0017 26.1715 77.1548 26.3046 77.3478Z" fill="#ACC7CE"/>
<path d="M99.336 90.3773C97.858 91.7451 95.1816 93.5323 92.1757 94.5307C91.6664 94.7005 91.1571 94.8103 90.6378 94.9301C90.1284 95.0399 90.0685 95.0699 90.0386 94.7304C89.7589 92.5738 89.4094 90.4372 88.8701 88.3106C88.3908 86.4036 87.7616 84.5864 86.9128 82.7993C86.8529 82.6595 86.9128 82.4897 87.0526 82.3999C89.1797 81.1818 90.8874 79.5843 92.1956 77.5975C92.2855 77.4577 92.3654 77.3678 92.5352 77.4577C95.3813 78.6758 98.3873 79.3946 101.463 79.8739C102.771 80.0736 104.11 80.2433 105.418 80.413C105.677 80.443 105.697 80.5029 105.677 80.7225C105.308 82.4598 104.539 84.0772 103.57 85.5849C102.522 87.1524 101.323 88.5102 99.336 90.3873V90.3773ZM93.0844 78.0767C91.6664 80.2633 89.7889 82.0005 87.4521 83.3384C89.0998 86.9727 89.8089 90.8166 90.3182 94.7304L92.6251 94.0814C92.5352 93.7719 92.4553 93.4824 92.3654 93.2328C91.7363 91.186 91.0272 89.1692 90.0885 87.2123C90.0286 87.1025 89.8888 86.9527 90.0885 86.8429C90.2882 86.753 90.3481 86.9527 90.3981 87.0725C91.1371 88.5801 91.7063 90.1177 92.2456 91.6752C92.5052 92.4141 92.7249 93.1529 92.9846 93.9516C93.7535 93.5822 94.4925 93.2428 95.2016 92.8733C95.1816 92.8134 95.1716 92.7768 95.1716 92.7635C94.0032 90.4372 92.7849 88.1308 91.4167 85.8844C91.187 85.515 90.9573 85.1456 90.7376 84.7761C90.6777 84.6863 90.6777 84.5765 90.7975 84.5465C90.8575 84.5165 90.9673 84.5764 91.0272 84.6364C91.0871 84.6963 91.1171 84.7462 91.167 84.836C92.7349 87.3321 94.0931 89.8981 95.4313 92.5039C95.4612 92.5638 95.5212 92.6437 95.5711 92.7336C96.3101 92.2543 97.0191 91.7651 97.7581 91.2859C97.5884 91.0862 97.4785 90.9164 97.3287 90.7467C95.6809 88.6201 94.0332 86.4834 92.3554 84.3568C92.0958 84.0173 91.8461 83.7078 91.5865 83.3584C91.4966 83.2685 91.4766 83.1587 91.5865 83.0788C91.6963 82.9989 91.8162 83.0788 91.8661 83.1687L91.896 83.1986C92.5452 84.0273 93.1743 84.846 93.8334 85.6747C94.6324 86.6731 95.4013 87.6616 96.1603 88.66C96.7894 89.4887 97.3786 90.2275 98.0078 91.0462C99.0264 90.2775 99.9452 89.4288 100.794 88.5202C100.734 88.4603 100.684 88.4104 100.624 88.3804C99.4558 87.4419 98.2674 86.5034 97.099 85.5948C95.6809 84.4866 94.2828 83.3783 92.8647 82.2401C92.7749 82.1503 92.665 82.0704 92.7749 81.9606C92.8847 81.8508 93.0046 81.9306 93.0844 81.9905C93.7136 82.4997 94.3627 82.989 94.9919 83.4982C96.7795 84.9159 98.597 86.3437 100.395 87.7614C100.594 87.9312 100.794 88.0709 101.044 88.2706C101.613 87.5917 102.152 86.9327 102.691 86.2538C102.582 86.1939 102.522 86.144 102.432 86.114C99.7854 84.7462 97.1989 83.2985 94.7322 81.681C94.6224 81.5912 94.4726 81.5412 94.3927 81.4214C94.3627 81.3915 94.3328 81.2517 94.3627 81.2217C94.4226 81.1618 94.5025 81.1618 94.5924 81.1618C94.6224 81.1618 94.6823 81.2217 94.7023 81.2217C96.8094 82.6096 98.9965 83.8975 101.243 85.0856C101.783 85.3652 102.322 85.6547 102.891 85.9643C103.321 85.2554 103.72 84.5764 104.14 83.8875C104.05 83.8576 104 83.8276 103.97 83.8276C103.231 83.568 102.462 83.2885 101.723 83.0289C100.075 82.3999 98.5071 81.721 96.9792 80.8723C96.8693 80.8124 96.7495 80.7325 96.8394 80.6127C96.9293 80.4729 97.0391 80.5229 97.149 80.5828C99.336 81.8008 101.693 82.7094 104.08 83.5081C104.14 83.5381 104.219 83.5381 104.279 83.568C104.649 82.969 105.248 81.2417 105.248 80.8124C101.044 80.3032 96.9492 79.6143 93.0545 78.1166L93.0844 78.0767ZM87.3422 82.989C89.5592 81.711 91.3468 80.0336 92.7449 77.927C92.6051 77.867 92.5152 77.8371 92.4353 77.8171C92.0359 78.3263 91.6664 78.8355 91.2669 79.2948C90.1584 80.5728 88.8801 81.6511 87.4021 82.5297C87.229 82.6428 87.2091 82.7959 87.3422 82.989Z" fill="#ACC7CE"/>
<path d="M70.8843 37.381C69.4063 38.7488 66.73 40.536 63.724 41.5344C63.2147 41.7041 62.7054 41.814 62.1861 41.9338C61.6768 42.0436 61.6169 42.0735 61.5869 41.7341C61.3073 39.5775 60.9578 37.4409 60.4185 35.3142C59.9391 33.4072 59.31 31.5901 58.4611 29.8029C58.4012 29.6631 58.4611 29.4934 58.6009 29.4036C60.7281 28.1855 62.4358 26.588 63.744 24.6011C63.8339 24.4614 63.9138 24.3715 64.0835 24.4614C66.9297 25.6794 69.9356 26.3983 73.0115 26.8775C74.3197 27.0772 75.6579 27.247 76.9661 27.4167C77.2258 27.4466 77.2457 27.5065 77.2258 27.7262C76.8563 29.4635 76.0873 31.0809 75.1186 32.5885C74.07 34.156 72.9016 35.5139 70.8843 37.3909V37.381ZM64.6328 25.0504C63.2147 27.237 61.3372 28.9742 59.0004 30.3121C60.6482 33.9464 61.3572 37.7903 61.8665 41.7041L64.1734 41.0552C64.0835 40.7456 64.0036 40.4561 63.9138 40.2065C63.2846 38.1597 62.5756 36.1429 61.6368 34.186C61.5769 34.0762 61.4371 33.9264 61.6368 33.8166C61.8366 33.7267 61.8965 33.9264 61.9464 34.0462C62.6854 35.5538 63.2546 37.0914 63.7939 38.649C64.0536 39.3878 64.2733 40.1266 64.5329 40.9254C65.3019 40.5559 66.0409 40.2165 66.7499 39.8471C66.7299 39.7872 66.72 39.7505 66.72 39.7372C65.5515 37.4109 64.3332 35.1046 62.965 32.8581C62.7353 32.4887 62.5057 32.1193 62.286 31.7498C62.226 31.66 62.226 31.5502 62.3459 31.5202C62.4058 31.4903 62.5156 31.5502 62.5756 31.6101C62.6355 31.67 62.6654 31.7199 62.7154 31.8098C64.2833 34.3058 65.6414 36.8718 66.9796 39.4776C67.0096 39.5376 67.0695 39.6174 67.1194 39.7073C67.8584 39.228 68.5675 38.7388 69.3065 38.2596C69.1367 38.0599 69.0268 37.8902 68.877 37.7204C67.2293 35.5938 65.5815 33.4572 63.9038 31.3305C63.6441 30.991 63.3945 30.6815 63.1348 30.3321C63.0449 30.2422 63.025 30.1324 63.1348 30.0525C63.2447 29.9727 63.3345 30.0525 63.4144 30.1424L63.4444 30.1723C64.0935 31.001 64.7227 31.8197 65.3818 32.6484C66.1807 33.6469 66.9497 34.6353 67.7086 35.6337C68.3378 36.4624 68.927 37.2012 69.5561 38.0199C70.5748 37.2512 71.4935 36.4025 72.3424 35.4939C72.2824 35.434 72.2325 35.3841 72.1726 35.3542C71.0042 34.4156 69.8158 33.4771 68.6474 32.5686C67.2293 31.4603 65.8312 30.3521 64.4131 29.2139C64.3232 29.124 64.2134 29.0441 64.3232 28.9343C64.4331 28.8245 64.5529 28.9043 64.6328 28.9642C65.2619 29.4734 65.9111 29.9627 66.5402 30.4719C68.3278 31.8896 70.1453 33.3174 71.9429 34.7351C72.1426 34.9049 72.3424 35.0446 72.592 35.2443C73.1613 34.5654 73.7005 33.9064 74.2398 33.2275C74.1299 33.1676 74.07 33.1177 73.9802 33.0877C71.3337 31.7199 68.7472 30.2722 66.2806 28.6547C66.1707 28.5649 66.0209 28.515 65.941 28.3951C65.9111 28.3652 65.8811 28.2254 65.9111 28.1955C65.971 28.1356 66.0509 28.1356 66.1407 28.1356C66.1707 28.1356 66.2306 28.1955 66.2506 28.1955C68.3577 29.5833 70.5448 30.8712 72.7918 32.0594C73.331 32.3389 73.8703 32.6285 74.4395 32.938C74.869 32.2291 75.2684 31.5502 75.6878 30.8613C75.598 30.8313 75.548 30.8013 75.5181 30.8013C74.7791 30.5418 74.0101 30.2622 73.2711 30.0026C71.6233 29.3736 70.0555 28.6947 68.5275 27.846C68.4177 27.7861 68.2978 27.7062 68.3877 27.5864C68.4776 27.4466 68.5874 27.4966 68.6973 27.5565C70.8843 28.7745 73.2412 29.6831 75.6279 30.4819C75.6878 30.5118 75.7677 30.5118 75.8277 30.5418C76.1972 29.9427 76.7963 28.2154 76.7963 27.7861C72.622 27.3069 68.4976 26.6179 64.6028 25.0904L64.6328 25.0504ZM58.8905 29.9926C61.1075 28.7146 62.8951 27.0373 64.2932 24.9306C64.1534 24.8707 64.0636 24.8408 63.9837 24.8208C63.5842 25.33 63.2147 25.8392 62.8152 26.2985C61.7067 27.5764 60.4285 28.6547 58.9505 29.5333C58.7774 29.6465 58.7574 29.7996 58.8905 29.9926Z" fill="#337085"/>
<path d="M36.5509 43.6611C36.3811 43.691 36.2113 43.6611 36.1814 43.4614C36.0715 42.6327 35.6121 41.9837 35.0129 41.4146C34.214 40.6458 33.2753 40.0268 32.2567 39.5076C32.0569 39.3978 31.997 39.278 32.027 39.0783C32.1169 38.7388 32.1668 38.3694 32.2267 38.03C32.2866 37.8003 32.3166 37.7704 32.5063 37.7204C31.9071 37.0715 31.288 36.4125 30.7187 35.7835C30.6289 35.8434 30.519 35.9532 30.4092 36.0131C30.1795 36.123 29.9298 36.1829 29.6702 36.2927C29.7001 36.3826 29.7301 36.4325 29.76 36.5223C30.1595 37.5707 30.529 38.649 30.6089 39.7872C30.6389 40.1865 30.6389 40.6159 30.499 41.0053C30.4391 41.2049 30.2394 41.2648 30.0996 41.145C30.0397 41.0851 29.9897 40.9753 30.0097 40.9154C30.2394 40.2664 30.1495 39.5775 29.9797 38.9285C29.7501 38.0799 29.4405 37.2212 29.1509 36.3726C29.061 36.093 29.0909 36.0331 29.3506 35.9133C29.6302 35.8035 29.9498 35.6837 30.2294 35.6038C30.3193 35.5738 30.4291 35.5439 30.539 35.5439C30.3992 35.2843 30.2294 35.0347 30.0796 34.835C30.7088 34.3558 31.298 33.8965 31.9271 33.4172C34.0343 35.3741 36.1314 37.341 38.2685 39.3279C37.2699 39.3878 36.3112 39.298 35.3425 39.0683C34.3738 38.8387 33.525 38.4693 32.756 37.9002C32.6661 38.2696 32.6162 38.609 32.5263 38.9785C32.4963 39.1182 32.5263 39.2081 32.6661 39.258C33.6648 39.7672 34.5735 40.3962 35.3425 41.165C35.9117 41.7341 36.3911 42.3831 36.5409 43.1818C36.5708 43.3216 36.5708 43.4614 36.5708 43.5812C36.6308 43.5512 36.6008 43.5812 36.5409 43.6411L36.5509 43.6611Z" fill="#ACC7CE" stroke="#337085" stroke-width="0.3" stroke-linecap="round" stroke-linejoin="round"/>
<path d="M43.3215 37.351C42.8622 37.381 42.4427 37.2412 42.0433 37.0715C41.2743 36.732 40.6751 36.2228 40.1059 35.6537C39.5366 35.0247 39.0273 34.3757 38.5979 33.6668C38.538 33.577 38.4881 33.557 38.3682 33.577C37.9688 33.6668 37.5693 33.7168 37.1499 33.7767C37.829 34.6053 38.2584 35.5339 38.4881 36.5323C38.6578 37.3011 38.7178 38.0998 38.6578 38.9185C36.5307 36.9317 34.4236 34.9648 32.3164 33.0079C32.8257 32.4388 33.3151 31.8697 33.8543 31.3006C34.084 31.4104 34.3636 31.5801 34.6233 31.7299C34.7931 31.3305 34.9329 30.9012 35.1026 30.4819C35.1626 30.3121 35.3323 30.3421 35.5021 30.392C36.0713 30.5617 36.6406 30.7914 37.2098 30.9311C37.8389 31.0709 38.4581 31.1907 39.0873 31.3006C39.5167 31.3605 39.9361 31.3605 40.3356 31.2107C40.4754 31.1508 40.6152 31.2107 40.6751 31.3505C40.735 31.4903 40.6451 31.6101 40.4754 31.66C40.046 31.7998 39.6265 31.7998 39.1671 31.7698C37.9987 31.68 36.8603 31.3705 35.7518 31.001C35.6619 30.9711 35.582 30.9411 35.4921 30.9112H35.4622C35.2325 31.2207 35.2924 31.68 34.9528 31.9096C35.6319 32.4488 36.321 33.0179 37.0001 33.587C37.0001 33.4172 37.1399 33.3573 37.3396 33.3274C37.7391 33.2675 38.1086 33.2175 38.508 33.1277C38.7078 33.0977 38.8176 33.1576 38.9375 33.3274C39.4767 34.2659 40.1059 35.1145 40.9248 35.8534C41.4041 36.2827 41.9434 36.6821 42.6025 36.8518C42.7723 36.9117 42.942 36.9417 43.0819 36.9616C43.3415 36.9916 43.3914 37.0515 43.3914 37.3011C43.3914 37.2412 43.3315 37.3011 43.3016 37.331L43.3215 37.351Z" fill="#ACC7CE" stroke="#337085" stroke-width="0.3" stroke-linecap="round" stroke-linejoin="round"/>
<path d="M23.7581 29.6731C24.9265 29.0441 26.065 29.3037 27.1935 29.7331C27.8226 29.9627 28.3918 30.3022 28.981 30.5817C29.041 30.382 29.1808 30.2123 29.4904 30.1524C29.3506 29.9527 29.2107 29.753 29.0609 29.5533C28.6016 28.8744 28.292 28.1356 28.1222 27.3668C27.9824 26.6579 27.9824 25.949 28.4018 25.2901C28.5117 25.2002 28.6016 25.0904 28.7114 25.0105C28.8512 24.9506 28.991 24.9506 29.0809 25.1004C29.1708 25.2501 29.0809 25.33 28.9711 25.4099C28.6315 25.7194 28.5117 26.1188 28.5117 26.5481C28.5117 27.3169 28.7414 28.0257 29.1109 28.7047C29.3106 29.0741 29.5902 29.4435 29.8199 29.8129C29.8798 29.9228 29.9298 30.0426 29.9597 30.1524C29.9298 30.1524 29.9298 30.1823 29.8998 30.1823C29.9897 30.2123 30.0696 30.2422 30.1794 30.2722C29.6701 30.5018 29.3006 30.8114 29.041 31.3205C28.981 31.2107 28.9511 31.1209 28.9511 31.061C28.9511 31.0909 28.9211 31.0909 28.9211 31.1209C28.7813 31.061 28.6115 31.011 28.4917 30.9212C27.523 30.2922 26.5044 29.8429 25.306 29.753C24.8766 29.7231 24.4572 29.753 24.0577 29.9827C23.9678 30.0426 23.8879 30.0925 23.7981 30.1823C23.7082 30.2722 23.5983 30.3521 23.4585 30.2922C23.2887 30.2023 23.3187 30.0925 23.3686 29.9527C23.4785 29.8628 23.5983 29.753 23.7082 29.6731H23.7581Z" fill="#ACC7CE" stroke="#337085" stroke-width="0.3" stroke-linecap="round" stroke-linejoin="round"/>
<path d="M32.8257 30.8413C32.9955 30.9012 33.1952 30.9811 33.3949 31.0709C32.4263 32.319 31.2678 33.3973 29.9296 34.3058C29.8398 34.1061 29.7599 33.9364 29.67 33.7667C29.67 33.7367 29.64 33.7068 29.64 33.6768C29.5501 33.2774 29.4403 32.908 29.3804 32.5087C29.3504 32.2291 29.3804 31.9396 29.4703 31.68C29.67 31.001 30.1793 30.6616 30.8883 30.5717C31.4276 30.5118 31.9669 30.6017 32.5062 30.7415C32.5661 30.7714 32.646 30.7714 32.7358 30.8014C32.7658 30.8014 32.7958 30.8014 32.8257 30.8313V30.8413Z" fill="#ACC7CE" stroke="#337085" stroke-width="0.3" stroke-linecap="round" stroke-linejoin="round"/>
<path d="M29.6501 33.6868C29.6501 33.6868 29.6801 33.7467 29.6801 33.7767C29.5902 34.0363 29.5103 34.0862 29.2207 33.9763C28.6515 33.7767 28.0823 33.577 27.513 33.3773C27.3732 33.3174 27.2534 33.3174 27.1435 33.3773C26.4345 33.6868 25.7254 34.0063 25.0164 34.3158C24.9265 34.3458 24.7568 34.3757 24.6769 34.3158C24.5071 34.226 24.567 34.0063 24.7667 33.9164C25.1662 33.7467 25.5657 33.577 25.9651 33.4072C26.3646 33.2375 26.764 33.0678 27.1635 32.8981C27.2734 32.8681 27.3932 32.8381 27.503 32.8981C28.1522 33.0977 28.8113 33.3274 29.4404 33.547C29.5303 33.6069 29.6102 33.6369 29.6701 33.6868H29.6501Z" fill="#ACC7CE" stroke="#337085" stroke-width="0.3" stroke-linecap="round" stroke-linejoin="round"/>
<path d="M32.8261 30.8413C32.8261 30.8413 32.7662 30.8113 32.7362 30.8113C32.6763 30.7514 32.6264 30.6716 32.5964 30.6116C32.3667 30.0126 32.117 29.4135 31.8874 28.7945C31.8574 28.7047 31.8574 28.5649 31.9173 28.485C32.2569 27.7462 32.6264 27.0373 32.9959 26.2985C32.9959 26.2685 33.0258 26.2386 33.0558 26.2086C33.1457 26.0988 33.2255 26.0389 33.3654 26.0988C33.5052 26.1587 33.5351 26.2685 33.4752 26.4083C33.3354 26.7178 33.1656 27.0373 32.9959 27.3768C32.7961 27.7462 32.5964 28.1455 32.4266 28.515C32.3967 28.6048 32.3667 28.7146 32.4266 28.7945C32.6264 29.3337 32.856 29.8728 33.0558 30.412C33.1656 30.6716 33.1157 30.7514 32.8261 30.8413Z" fill="#ACC7CE" stroke="#337085" stroke-width="0.3" stroke-linecap="round" stroke-linejoin="round"/>
<path d="M104 18.8303C103.83 18.8602 103.66 18.8303 103.63 18.6306C103.52 17.8019 103.061 17.1529 102.462 16.5838C101.663 15.815 100.724 15.196 99.7054 14.6768C99.5057 14.567 99.4458 14.4472 99.4757 14.2475C99.5656 13.908 99.6155 13.5386 99.6754 13.1991C99.7354 12.9695 99.7653 12.9396 99.9551 12.8896C99.3559 12.2407 98.7367 11.5817 98.1675 10.9527C98.0776 11.0126 97.9677 11.1224 97.8579 11.1823C97.6282 11.2922 97.3785 11.3521 97.1189 11.4619C97.1489 11.5517 97.1788 11.6017 97.2088 11.6915C97.6082 12.7399 97.9777 13.8182 98.0576 14.9564C98.0876 15.3557 98.0876 15.7851 97.9478 16.1744C97.8879 16.3741 97.6881 16.434 97.5483 16.3142C97.4884 16.2543 97.4385 16.1445 97.4584 16.0846C97.6881 15.4356 97.5982 14.7467 97.4285 14.0977C97.1988 13.2491 96.8892 12.3904 96.5996 11.5418C96.5097 11.2622 96.5397 11.2023 96.7993 11.0825C97.0789 10.9727 97.3985 10.8528 97.6781 10.773C97.768 10.743 97.8779 10.7131 97.9877 10.7131C97.8479 10.4535 97.6781 10.2039 97.5283 10.0042C98.1575 9.52494 98.7467 9.06567 99.3758 8.58643C101.483 10.5433 103.58 12.5102 105.717 14.4971C104.719 14.557 103.76 14.4671 102.791 14.2375C101.823 14.0079 100.974 13.6384 100.205 13.0693C100.115 13.4388 100.065 13.7782 99.975 14.1476C99.9451 14.2874 99.975 14.3773 100.115 14.4272C101.113 14.9364 102.022 15.5654 102.791 16.3342C103.36 16.9033 103.84 17.5523 103.99 18.351C104.02 18.4908 104.02 18.6306 104.02 18.7504C104.079 18.7504 104.02 18.7803 103.99 18.8103L104 18.8303Z" fill="#ACC7CE" stroke="#337085" stroke-width="0.3" stroke-linecap="round" stroke-linejoin="round"/>
<path d="M110.761 12.5203C110.301 12.5502 109.882 12.4104 109.482 12.2407C108.713 11.9012 108.114 11.392 107.545 10.8229C106.976 10.1939 106.466 9.54496 106.037 8.83608C105.977 8.74622 105.927 8.72625 105.807 8.74622C105.408 8.83608 105.008 8.886 104.589 8.94591C105.268 9.7746 105.697 10.7031 105.927 11.7016C106.097 12.4703 106.157 13.2691 106.097 14.0878C103.97 12.1009 101.863 10.134 99.7554 8.17712C100.265 7.60802 100.754 7.03892 101.293 6.46982C101.523 6.57964 101.803 6.74938 102.062 6.89914C102.232 6.49977 102.372 6.07045 102.542 5.65111C102.602 5.48138 102.771 5.51133 102.941 5.56125C103.51 5.73098 104.08 5.96062 104.649 6.1004C105.278 6.24018 105.897 6.35999 106.526 6.46982C106.956 6.52972 107.375 6.52972 107.775 6.37996C107.914 6.32005 108.054 6.37996 108.114 6.51974C108.174 6.65952 108.084 6.77933 107.914 6.82925C107.485 6.96903 107.065 6.96903 106.606 6.93908C105.438 6.84922 104.299 6.53971 103.191 6.17029C103.101 6.14034 103.021 6.11038 102.931 6.08043H102.901C102.671 6.38994 102.731 6.84922 102.392 7.07886C103.071 7.618 103.76 8.18711 104.439 8.75621C104.439 8.58648 104.579 8.52657 104.779 8.49662C105.178 8.43671 105.548 8.38679 105.947 8.29693C106.147 8.26698 106.257 8.32688 106.376 8.49662C106.916 9.43514 107.545 10.2838 108.364 11.0226C108.843 11.452 109.382 11.8513 110.041 12.0211C110.211 12.081 110.381 12.1109 110.521 12.1309C110.78 12.1608 110.83 12.2207 110.83 12.4703C110.8 12.4404 110.77 12.4703 110.741 12.5003L110.761 12.5203Z" fill="#ACC7CE" stroke="#337085" stroke-width="0.3" stroke-linecap="round" stroke-linejoin="round"/>
<path d="M91.1771 4.84258C92.3455 4.21357 93.4839 4.47316 94.6124 4.90249C95.2416 5.13212 95.8108 5.47159 96.4 5.75115C96.4599 5.55146 96.5997 5.38173 96.9093 5.32182C96.7695 5.12214 96.6297 4.92245 96.4799 4.72277C96.0205 4.04384 95.7109 3.30501 95.5412 2.53622C95.4013 1.82734 95.4013 1.11846 95.8208 0.459502C95.9306 0.369644 96.0205 0.259817 96.1304 0.179943C96.2702 0.120038 96.41 0.120038 96.4999 0.269801C96.5897 0.419565 96.4999 0.499439 96.39 0.579313C96.0505 0.888824 95.9306 1.28819 95.9306 1.71752C95.9306 2.4863 96.1603 3.19518 96.5298 3.87411C96.7296 4.24353 97.0092 4.61294 97.2389 4.98236C97.2988 5.09219 97.3487 5.212 97.3787 5.32182C97.3487 5.32182 97.3487 5.35178 97.3187 5.35178C97.4086 5.38173 97.4885 5.41168 97.5984 5.44164C97.0891 5.67127 96.7196 5.98078 96.4599 6.48998C96.4 6.38015 96.37 6.2903 96.37 6.23039C96.37 6.26034 96.3401 6.26034 96.3401 6.2903C96.2003 6.23039 96.0305 6.18047 95.9107 6.09061C94.942 5.4616 93.9233 5.01231 92.725 4.92245C92.2955 4.8925 91.8761 4.92245 91.4766 5.15209C91.3868 5.212 91.3069 5.26192 91.217 5.35178C91.1271 5.44164 91.0173 5.52151 90.8775 5.4616C90.7077 5.37175 90.7376 5.26192 90.7876 5.12214C90.9274 5.03228 91.0173 4.95241 91.1271 4.84258H91.1771Z" fill="#ACC7CE" stroke="#337085" stroke-width="0.3" stroke-linecap="round" stroke-linejoin="round"/>
<path d="M100.275 6.01048C100.445 6.07039 100.644 6.15026 100.844 6.24012C99.8755 7.48815 98.717 8.56645 97.3789 9.47501C97.289 9.27533 97.2091 9.1056 97.1192 8.93586C97.1192 8.90591 97.0892 8.87596 97.0892 8.84601C96.9994 8.44664 96.8895 8.07722 96.8296 7.67785C96.7996 7.39829 96.8296 7.10875 96.9195 6.84916C97.1192 6.17023 97.6285 5.83077 98.3376 5.74091C98.8768 5.681 99.4161 5.77086 99.9554 5.91064C100.015 5.94059 100.095 5.94059 100.185 5.97055C100.215 5.97055 100.245 6.0005 100.275 6.0005V6.01048Z" fill="#ACC7CE" stroke="#337085" stroke-width="0.3" stroke-linecap="round" stroke-linejoin="round"/>
<path d="M97.0891 8.85599C97.0891 8.85599 97.1191 8.9159 97.1191 8.94585C97.0292 9.20544 96.9493 9.25536 96.6597 9.14554C96.0905 8.94585 95.5212 8.74617 94.952 8.54648C94.8122 8.48658 94.6923 8.48658 94.5825 8.54648C93.8735 8.856 93.1644 9.17549 92.4554 9.485C92.3655 9.51495 92.1957 9.54491 92.1158 9.485C91.9461 9.39514 92.006 9.17549 92.2057 9.08563C92.6052 8.9159 93.0046 8.74617 93.4041 8.57644C93.8035 8.4067 94.203 8.23697 94.6025 8.06724C94.7123 8.03729 94.8322 8.00733 94.942 8.06724C95.5911 8.26692 96.2502 8.49656 96.8794 8.71622C96.9693 8.77612 97.0192 8.82604 97.1091 8.85599H97.0891Z" fill="#ACC7CE" stroke="#337085" stroke-width="0.3" stroke-linecap="round" stroke-linejoin="round"/>
<path d="M100.275 6.01053C100.275 6.01053 100.215 5.98058 100.185 5.98058C100.125 5.92067 100.075 5.8408 100.045 5.7809C99.8154 5.18184 99.5658 4.58279 99.3361 3.96376C99.3061 3.87391 99.3061 3.73413 99.366 3.65425C99.7056 2.91542 100.075 2.20654 100.445 1.46771C100.445 1.43775 100.475 1.4078 100.505 1.37785C100.594 1.26802 100.674 1.20812 100.814 1.26802C100.954 1.32793 100.984 1.43775 100.924 1.57753C100.784 1.88704 100.614 2.20654 100.445 2.546C100.245 2.91542 100.045 3.31479 99.8754 3.68421C99.8454 3.77406 99.8154 3.88389 99.8754 3.96376C100.075 4.50291 100.305 5.04206 100.505 5.58121C100.594 5.86077 100.564 5.95063 100.275 6.01053Z" fill="#ACC7CE" stroke="#337085" stroke-width="0.3" stroke-linecap="round" stroke-linejoin="round"/>
<path d="M55.0259 3.05539C54.9959 3.88408 54.936 4.73274 54.9161 5.55145C54.8861 6.12055 54.9161 6.7196 54.9161 7.2887C54.9161 7.39853 54.946 7.5483 54.976 7.76795C55.3155 7.48839 55.6051 7.25875 55.8548 7.05907C55.8847 7.08902 55.9147 7.08902 55.9646 7.11897C55.9347 7.20883 55.9047 7.34861 55.8548 7.39853C55.2556 7.93768 54.6564 8.47683 54.0672 9.04593C53.7576 9.32549 53.6378 9.10584 53.5579 8.8762C52.8489 7.19885 52.3895 5.46159 52.0499 3.67441C51.9101 2.96553 51.8202 2.25665 51.6804 1.56774C51.6505 1.42796 51.5107 1.28818 51.4008 1.13842C51.261 1.24824 51.0613 1.3381 51.0013 1.50783C50.5719 2.52622 50.4621 3.58455 50.492 4.66285C50.492 4.80263 50.552 4.94241 50.6019 5.06222C51.4308 6.47998 52.2796 7.90773 53.1285 9.32549C53.2982 9.60505 53.2982 9.78476 53.0386 10.0044C52.0999 10.8331 51.1611 11.6818 50.2524 12.5304C49.9927 12.7601 49.8529 12.7301 49.6032 12.5005C48.5247 11.5021 47.3862 10.5635 46.3077 9.54514C44.8297 8.15733 43.0121 7.86779 41.0448 7.89774C40.7053 7.89774 40.3358 7.9277 40.0262 8.00757C39.8864 8.03752 39.7466 8.20725 39.5968 8.28713C39.7066 8.39696 39.8264 8.56669 39.9663 8.62659C41.674 9.30552 43.4316 9.87462 45.0793 10.6434C46.4974 11.2924 47.7757 12.181 49.1439 12.9498C49.4534 13.1195 49.3735 13.2593 49.1738 13.4889C48.8043 13.9182 48.4348 13.9182 47.9255 13.7485C47.2165 13.4889 46.4475 13.2892 45.7085 13.0696C45.309 12.9598 44.9395 12.9298 44.57 13.0696C43.9209 13.3292 43.2618 13.5788 42.6127 13.8084C42.5528 13.8384 42.4729 13.8683 42.4429 13.8983C42.353 14.038 42.2731 14.1778 42.2132 14.3276C42.353 14.3875 42.4928 14.4674 42.6426 14.4674C43.4915 14.4674 44.3503 14.4075 45.1692 14.4075C45.9082 14.4075 46.6472 14.4374 47.3862 14.4674C47.4961 14.4674 47.6459 14.5572 47.7557 14.6071C47.6958 14.717 47.6659 14.8368 47.586 14.9167C47.1865 15.2861 46.787 15.6555 46.3876 15.995C46.2977 16.0848 46.1579 16.1048 46.048 16.1647C46.0181 16.1048 45.9582 16.0748 45.9382 16.0249C46.3376 15.6555 46.7671 15.2861 47.1565 14.8867C47.1266 14.8268 47.0966 14.7969 47.0966 14.7469C46.6972 14.717 46.2677 14.687 45.8783 14.687C44.8297 14.687 43.7711 14.717 42.7225 14.7469C42.3231 14.7469 41.9835 14.717 41.8437 14.3176C41.7039 13.9182 41.9835 13.6886 42.3231 13.5189C42.8324 13.2892 43.3417 13.0596 43.861 12.8399C43.9708 12.78 44.0907 12.7501 44.2005 12.7002V12.5903C44.0607 12.5304 43.9409 12.4805 43.8011 12.4506C42.7225 12.2509 41.614 12.0512 40.5355 11.8815C40.136 11.8215 39.8264 11.7117 39.7965 11.2824C39.7665 10.883 40.0761 10.6833 40.4256 10.6334C41.1047 10.4936 41.7938 10.3539 42.4729 10.2341C42.6726 10.2041 42.8424 10.2041 43.0421 10.1741C43.0721 10.1442 43.0721 10.1142 43.102 10.0643C42.9922 9.97446 42.8723 9.89459 42.7325 9.83469C41.7638 9.49522 40.8251 9.15576 39.8664 8.81629C39.5269 8.70647 39.2173 8.5567 39.2372 8.16732C39.2372 7.82785 39.4969 7.65812 39.9762 7.56826C41.0548 7.39853 42.1333 7.47841 43.2119 7.67809C43.3816 7.70804 43.5215 7.738 43.7511 7.64814C43.6613 7.55828 43.5814 7.44845 43.4715 7.38855C42.6726 6.87935 41.8537 6.39012 41.0248 5.91088C40.6254 5.68124 40.4256 5.45161 40.4856 5.00232C40.5954 4.89249 40.7152 4.77268 40.8551 4.6928C42.4429 4.6329 43.871 5.29186 45.3989 5.7711C45.309 5.54146 45.2591 5.43164 45.2291 5.31183C44.9695 4.48313 44.6599 3.66443 44.4602 2.83574C44.3503 2.37646 44.4602 1.86727 44.4602 1.38802C44.5501 1.29816 44.63 1.24824 44.6899 1.15838C45.1493 1.04856 45.4289 1.21829 45.6586 1.61766C46.1179 2.35649 46.5973 3.09533 47.0467 3.80421C47.1066 3.89406 47.2165 3.97394 47.3063 4.0638C47.3962 3.89407 47.3962 3.75429 47.3663 3.60452C47.2264 2.63605 47.1665 1.69753 47.3663 0.739047C47.4262 0.399583 47.5959 0.139992 47.9954 0.139992C48.3949 0.11004 48.5646 0.36963 48.6745 0.679141C49.014 1.58771 49.3835 2.49627 49.7231 3.40484C49.783 3.51466 49.8329 3.60452 49.8928 3.71435C49.9228 3.71435 49.9827 3.71435 50.0027 3.6844C50.0327 3.54462 50.0626 3.42481 50.0926 3.31498C50.2623 2.63605 50.4022 1.94714 50.5719 1.26821C50.6618 0.928747 50.8815 0.669157 51.3109 0.729062C51.7403 0.788968 51.8502 1.06853 51.9101 1.40799C52.0799 2.42638 52.2796 3.48471 52.4793 4.5031C52.5093 4.61293 52.5692 4.76269 52.6192 4.87252H52.729C52.7889 4.76269 52.8389 4.64288 52.8988 4.56301C53.1584 4.08377 53.4081 3.59454 53.6677 3.11529C53.8675 2.71592 54.207 2.57615 54.6664 2.68597C54.8362 2.8557 54.946 2.94556 55.0359 3.02544L55.0259 3.05539ZM51.3309 11.1227C51.5306 10.923 51.7304 10.7233 51.96 10.5535C52.2397 10.3239 52.2197 10.1841 51.96 9.92454C51.0812 9.07588 50.1725 8.18729 49.3436 7.27872C47.8356 5.57142 46.5574 3.75429 45.4189 1.82733C45.329 1.68755 45.1393 1.62764 44.9895 1.54777C44.8996 1.7175 44.7098 1.85728 44.7298 2.00704C44.8397 2.77583 44.8996 3.59454 45.1592 4.33337C46.1779 7.19885 48.0853 9.56511 50.2424 11.7517C50.3822 11.8914 50.502 11.8914 50.6718 11.7517C50.8715 11.522 51.1012 11.3223 51.3209 11.1227H51.3309ZM51.1312 8.81629C51.1312 8.81629 51.1911 8.78634 51.2211 8.75639C51.5906 9.1258 51.9601 9.49522 52.3595 9.83469C52.4194 9.89459 52.6391 9.89459 52.6991 9.83469C52.7889 9.77478 52.7889 9.60505 52.7889 9.52517C52.7889 9.4453 52.6791 9.35544 52.6192 9.26558C51.7104 7.69806 50.7117 6.20042 49.8928 4.57299C49.2937 3.37488 48.9242 2.0969 48.4148 0.878826C48.3549 0.739047 48.2151 0.649188 48.1053 0.539362C47.9954 0.649188 47.8756 0.768999 47.7657 0.878826C47.7358 0.908779 47.7358 0.968684 47.7358 1.01861C47.4561 2.43637 47.7657 3.83416 48.1352 5.19202C48.1652 5.25192 48.2251 5.33179 48.275 5.3917C49.2138 6.49995 50.1825 7.63815 51.1412 8.80631L51.1312 8.81629ZM49.9328 12.3108L50.1026 12.2209C50.0426 12.1111 50.0127 11.9613 49.9028 11.8515C48.3649 10.2341 46.9468 8.52675 45.8084 6.58981C45.7484 6.47998 45.6686 6.36017 45.5487 6.31025C44.2704 5.66127 42.9023 5.17205 41.4243 5.06222C41.1946 5.03227 40.915 4.97236 40.8251 5.26191C40.7152 5.54146 40.9949 5.63132 41.1946 5.74115C44.2605 7.47841 47.1066 9.49522 49.5533 11.9314C49.6632 12.0712 49.813 12.191 49.9228 12.3008L49.9328 12.3108ZM48.8842 13.2493C48.7943 13.1594 48.7144 13.0496 48.6046 12.9697C47.2364 12.2009 45.8483 11.4322 44.4802 10.6933C44.3703 10.6334 44.2205 10.5835 44.0807 10.5835C42.9123 10.5535 41.7538 10.6135 40.6453 10.9829C40.4756 11.0428 40.3358 11.2425 40.186 11.3523C40.3557 11.4621 40.4955 11.6318 40.6953 11.6618C43.2818 12.0312 45.8084 12.6303 48.285 13.4789C48.5447 13.5688 48.7444 13.5688 48.8842 13.2493ZM53.8575 8.58666C53.9174 8.61661 53.9673 8.61661 54.0273 8.64656C54.197 8.41692 54.5066 8.16732 54.5366 7.93768C54.6264 6.43006 54.6464 4.95239 54.6764 3.44477C54.6764 3.33495 54.5865 3.16522 54.5066 3.13526C54.4267 3.10531 54.227 3.16522 54.1671 3.24509C53.9973 3.47473 53.8275 3.72433 53.6877 3.95397C53.0386 5.03227 52.8089 6.17047 53.4081 7.33863C53.6078 7.76795 53.7177 8.18729 53.8675 8.58666H53.8575Z" fill="#ACC7CE"/>
<path d="M19.9834 46.0972C19.9535 46.9259 19.8935 47.7745 19.8736 48.5933C19.8436 49.1624 19.8736 49.7614 19.8736 50.3305C19.8736 50.4403 19.9035 50.5901 19.9335 50.8098C20.273 50.5302 20.5626 50.3006 20.8123 50.1009C20.8423 50.1308 20.8722 50.1308 20.9222 50.1608C20.8922 50.2506 20.8622 50.3904 20.8123 50.4403C20.2131 50.9795 19.6139 51.5186 19.0247 52.0877C18.7151 52.3673 18.5953 52.1476 18.5154 51.918C17.8064 50.2407 17.347 48.5034 17.0075 46.7162C16.8676 46.0073 16.7778 45.2985 16.6379 44.6095C16.608 44.4698 16.4682 44.33 16.3583 44.1802C16.2185 44.2901 16.0188 44.3799 15.9589 44.5496C15.5294 45.568 15.4196 46.6264 15.4496 47.7047C15.4496 47.8444 15.5095 47.9842 15.5594 48.104C16.3883 49.5218 17.2371 50.9495 18.086 52.3673C18.2558 52.6469 18.2558 52.8266 17.9961 53.0462C17.0574 53.8749 16.1187 54.7236 15.2099 55.5722C14.9502 55.8019 14.8104 55.7719 14.5608 55.5423C13.4822 54.5439 12.3438 53.6053 11.2652 52.5869C9.78721 51.1991 7.96966 50.9096 6.00232 50.9396C5.66278 50.9396 5.29328 50.9695 4.9837 51.0494C4.84389 51.0793 4.70408 51.2491 4.55428 51.3289C4.66413 51.4388 4.78397 51.6085 4.92378 51.6684C6.63147 52.3473 8.3891 52.9164 10.0369 53.6852C11.455 54.3342 12.7332 55.2228 14.1014 55.9916C14.411 56.1613 14.3311 56.3011 14.1313 56.5307C13.7618 56.96 13.3923 56.96 12.883 56.7903C12.174 56.5307 11.405 56.331 10.666 56.1114C10.2666 56.0016 9.89706 55.9716 9.52756 56.1114C8.87843 56.371 8.21933 56.6206 7.5702 56.8502C7.51028 56.8802 7.43039 56.9101 7.40043 56.9401C7.31055 57.0799 7.23066 57.2196 7.17074 57.3694C7.31055 57.4293 7.45037 57.5092 7.60016 57.5092C8.44902 57.5092 9.30786 57.4493 10.1267 57.4493C10.8657 57.4493 11.6048 57.4792 12.3438 57.5092C12.4536 57.5092 12.6034 57.599 12.7133 57.649C12.6533 57.7588 12.6234 57.8786 12.5435 57.9585C12.144 58.3279 11.7446 58.6973 11.3451 59.0368C11.2552 59.1266 11.1154 59.1466 11.0056 59.2065C10.9756 59.1466 10.9157 59.1166 10.8957 59.0667C11.2952 58.6973 11.7246 58.3279 12.1141 57.9285C12.0841 57.8686 12.0541 57.8387 12.0541 57.7887C11.6547 57.7588 11.2253 57.7288 10.8358 57.7288C9.78721 57.7288 8.72864 57.7588 7.68005 57.7887C7.28059 57.7887 6.94105 57.7588 6.80124 57.3594C6.66143 56.96 6.94105 56.7304 7.28059 56.5607C7.78991 56.331 8.29922 56.1014 8.81852 55.8818C8.92837 55.8218 9.04821 55.7919 9.15806 55.742V55.6321C9.01825 55.5722 8.89841 55.5223 8.7586 55.4924C7.68005 55.2927 6.57155 55.093 5.49301 54.9233C5.09355 54.8634 4.78397 54.7535 4.75401 54.3242C4.72405 53.9248 5.03363 53.7252 5.38316 53.6752C6.06224 53.5355 6.75131 53.3957 7.43039 53.2759C7.63012 53.2459 7.79989 53.2459 7.99962 53.216C8.02958 53.186 8.02958 53.1561 8.05954 53.1061C7.94969 53.0163 7.82985 52.9364 7.69004 52.8765C6.72135 52.537 5.78262 52.1976 4.82391 51.8581C4.48437 51.7483 4.17479 51.5985 4.19476 51.2091C4.19476 50.8697 4.45441 50.6999 4.93377 50.6101C6.01231 50.4403 7.09085 50.5202 8.16939 50.7199C8.33916 50.7499 8.47897 50.7798 8.70866 50.6899C8.61879 50.6001 8.53889 50.4903 8.42904 50.4304C7.63012 49.9212 6.81123 49.4319 5.98235 48.9527C5.58289 48.7231 5.38316 48.4934 5.44308 48.0441C5.55293 47.9343 5.67277 47.8145 5.81258 47.7346C7.40043 47.6747 8.8285 48.3337 10.3564 48.8129C10.2666 48.5833 10.2166 48.4734 10.1867 48.3536C9.92702 47.5249 9.61744 46.7062 9.41771 45.8775C9.30785 45.4183 9.41771 44.9091 9.41771 44.4298C9.50759 44.34 9.58748 44.2901 9.6474 44.2002C10.1068 44.0904 10.3864 44.2601 10.6161 44.6595C11.0755 45.3983 11.5548 46.1371 12.0042 46.846C12.0641 46.9359 12.174 47.0157 12.2639 47.1056C12.3537 46.9359 12.3537 46.7961 12.3238 46.6463C12.184 45.6779 12.124 44.7393 12.3238 43.7809C12.3837 43.4414 12.5535 43.1818 12.9529 43.1818C13.3524 43.1518 13.5222 43.4114 13.632 43.721C13.9716 44.6295 14.3411 45.5381 14.6806 46.4466C14.7405 46.5565 14.7904 46.6463 14.8504 46.7562C14.8803 46.7562 14.9402 46.7562 14.9602 46.7262C14.9902 46.5864 15.0201 46.4666 15.0501 46.3568C15.2199 45.6779 15.3597 44.9889 15.5294 44.31C15.6193 43.9706 15.839 43.711 16.2684 43.7709C16.6979 43.8308 16.8077 44.1103 16.8676 44.4498C17.0374 45.4682 17.2371 46.5265 17.4369 47.5449C17.4668 47.6547 17.5267 47.8045 17.5767 47.9143H17.6865C17.7465 47.8045 17.7964 47.6847 17.8563 47.6048C18.116 47.1256 18.3656 46.6363 18.6253 46.1571C18.825 45.7577 19.1645 45.618 19.6239 45.7278C19.8236 45.8676 19.9035 45.9574 19.9934 46.0672L19.9834 46.0972ZM16.3184 54.1345C16.5181 53.9348 16.7178 53.7351 16.9475 53.5654C17.2272 53.3358 17.2072 53.196 16.9475 52.9364C16.0687 52.0877 15.1599 51.1991 14.3311 50.2906C12.8231 48.5833 11.5448 46.7661 10.4064 44.8392C10.3165 44.6994 10.1267 44.6395 9.97695 44.5596C9.88707 44.7294 9.69733 44.8691 9.7173 45.0189C9.82715 45.7877 9.88707 46.6064 10.1467 47.3452C11.1653 50.2107 13.0728 52.577 15.2299 54.7635C15.3697 54.9033 15.4895 54.9033 15.6593 54.7635C15.829 54.5638 16.0887 54.3342 16.3084 54.1345H16.3184ZM16.0887 51.8281C16.0887 51.8281 16.1486 51.7982 16.1786 51.7682C16.5481 52.1377 16.9176 52.5071 17.317 52.8465C17.377 52.9064 17.5967 52.9064 17.6566 52.8465C17.7465 52.7866 17.7465 52.6169 17.7465 52.537C17.7465 52.4572 17.6366 52.3673 17.5767 52.2774C16.6679 50.7099 15.6693 49.2123 14.8504 47.5848C14.2512 46.3867 13.8817 45.1088 13.3724 43.8907C13.3124 43.7509 13.1726 43.661 13.0628 43.5512C12.9529 43.661 12.8331 43.7809 12.7232 43.8907C12.6933 43.9206 12.6933 43.9805 12.6933 44.0305C12.4137 45.4482 12.7232 46.846 13.0927 48.2039C13.1227 48.2638 13.1826 48.3437 13.2326 48.4036C14.1713 49.5118 15.14 50.68 16.0987 51.8182L16.0887 51.8281ZM14.9203 55.3526L15.09 55.2627C15.0301 55.1529 15.0002 55.0031 14.8903 54.8933C13.3524 53.2759 11.9343 51.5686 10.7958 49.6316C10.7359 49.5218 10.656 49.402 10.5362 49.3521C9.25792 48.7031 7.88977 48.2139 6.41177 48.104C6.18208 48.0741 5.90246 48.0142 5.81258 48.3037C5.70273 48.5833 5.98235 48.6731 6.18208 48.783C9.24794 50.5202 12.0941 52.537 14.5408 54.9732C14.6506 55.113 14.7705 55.2328 14.9103 55.3426L14.9203 55.3526ZM13.8417 56.2911C13.7518 56.2012 13.672 56.0914 13.5621 56.0115C12.194 55.2428 10.8058 54.474 9.43768 53.7351C9.32783 53.6752 9.17803 53.6253 9.03822 53.6253C7.8698 53.5954 6.71136 53.6553 5.60286 54.0247C5.43309 54.0846 5.29328 54.2843 5.14348 54.3941C5.31325 54.5039 5.45306 54.6737 5.65279 54.7036C8.2393 55.073 10.7659 55.6721 13.2425 56.5207C13.5022 56.6106 13.7019 56.5806 13.8417 56.2911ZM18.815 51.6285C18.8749 51.6584 18.9249 51.6584 18.9848 51.6884C19.1545 51.4587 19.4641 51.2091 19.4941 50.9795C19.584 49.4719 19.6039 47.9942 19.6339 46.4866C19.6339 46.3768 19.544 46.207 19.4641 46.1771C19.3842 46.1471 19.1845 46.207 19.1246 46.2869C18.9548 46.5165 18.785 46.7661 18.6452 46.9958C17.9961 48.0741 17.7664 49.2123 18.3656 50.3804C18.5653 50.7798 18.6752 51.2091 18.825 51.6285H18.815Z" fill="#ACC7CE"/>
<path d="M88.5108 55.9317C88.4808 56.7604 88.4209 57.609 88.4009 58.4277C88.371 58.9968 88.4009 59.5959 88.4009 60.165C88.4009 60.2748 88.4309 60.4246 88.4608 60.6442C88.8004 60.3647 89.09 60.135 89.3397 59.9353C89.3696 59.9653 89.3996 59.9653 89.4495 59.9953C89.4195 60.0851 89.3896 60.2249 89.3397 60.2748C88.7405 60.814 88.1413 61.3531 87.5521 61.9222C87.2425 62.2018 87.1227 61.9821 87.0428 61.7525C86.3337 60.0751 85.8743 58.3379 85.5348 56.5507C85.395 55.8418 85.3051 55.1329 85.1653 54.444C85.1353 54.3042 84.9955 54.1645 84.8857 54.0147C84.7459 54.1245 84.5461 54.2144 84.4862 54.3841C84.0568 55.4025 83.9469 56.4608 83.9769 57.5391C83.9769 57.6789 84.0368 57.8187 84.0867 57.9385C84.9156 59.3563 85.7645 60.784 86.6133 62.2018C86.7831 62.4813 86.7831 62.661 86.5235 62.8807C85.5847 63.7094 84.646 64.5581 83.7372 65.4067C83.4776 65.6364 83.3378 65.6064 83.0881 65.3768C82.0096 64.3783 80.8711 63.4398 79.7926 62.4214C78.3146 61.0336 76.497 60.7441 74.5297 60.774C74.1901 60.774 73.8206 60.804 73.511 60.8839C73.3712 60.9138 73.2314 61.0835 73.0816 61.1634C73.1915 61.2732 73.3113 61.443 73.4511 61.5029C75.1588 62.1818 76.9164 62.7509 78.5642 63.5197C79.9823 64.1687 81.2606 65.0573 82.6287 65.826C82.9383 65.9958 82.8584 66.1356 82.6587 66.3652C82.2892 66.7945 81.9197 66.7945 81.4104 66.6248C80.7013 66.3652 79.9324 66.1655 79.1934 65.9459C78.7939 65.836 78.4244 65.8061 78.0549 65.9459C77.4058 66.2055 76.7467 66.4551 76.0975 66.6847C76.0376 66.7146 75.9577 66.7446 75.9278 66.7745C75.8379 66.9143 75.758 67.0541 75.6981 67.2039C75.8379 67.2638 75.9777 67.3437 76.1275 67.3437C76.9764 67.3437 77.8352 67.2837 78.6541 67.2837C79.3931 67.2837 80.1321 67.3137 80.8711 67.3437C80.981 67.3437 81.1307 67.4335 81.2406 67.4834C81.1807 67.5933 81.1507 67.7131 81.0708 67.7929C80.6714 68.1624 80.2719 68.5318 79.8724 68.8712C79.7826 68.9611 79.6428 68.9811 79.5329 69.041C79.5029 68.9811 79.443 68.9511 79.4231 68.9012C79.8225 68.5318 80.2519 68.1624 80.6414 67.763C80.6114 67.7031 80.5815 67.6731 80.5815 67.6232C80.182 67.5933 79.7526 67.5633 79.3631 67.5633C78.3146 67.5633 77.256 67.5933 76.2074 67.6232C75.8079 67.6232 75.4684 67.5933 75.3286 67.1939C75.1888 66.7945 75.4684 66.5649 75.8079 66.3952C76.3173 66.1655 76.8266 65.9359 77.3459 65.7162C77.4557 65.6563 77.5756 65.6264 77.6854 65.5764V65.4666C77.5456 65.4067 77.4258 65.3568 77.2859 65.3268C76.2074 65.1272 75.0989 64.9275 74.0204 64.7577C73.6209 64.6978 73.3113 64.588 73.2813 64.1587C73.2514 63.7593 73.561 63.5596 73.9105 63.5097C74.5896 63.3699 75.2787 63.2301 75.9577 63.1103C76.1575 63.0804 76.3272 63.0804 76.527 63.0504C76.5569 63.0205 76.5569 62.9905 76.5869 62.9406C76.477 62.8507 76.3572 62.7709 76.2174 62.711C75.2487 62.3715 74.31 62.032 73.3513 61.6926C73.0117 61.5828 72.7021 61.433 72.7221 61.0436C72.7221 60.7041 72.9818 60.5344 73.4611 60.4445C74.5396 60.2748 75.6182 60.3547 76.6967 60.5544C76.8665 60.5843 77.0063 60.6143 77.236 60.5244C77.1461 60.4346 77.0662 60.3247 76.9564 60.2648C76.1575 59.7556 75.3386 59.2664 74.5097 58.7872C74.1102 58.5575 73.9105 58.3279 73.9704 57.8786C74.0803 57.7688 74.2001 57.649 74.3399 57.5691C75.9278 57.5092 77.3558 58.1681 78.8838 58.6474C78.7939 58.4177 78.744 58.3079 78.714 58.1881C78.4544 57.3594 78.1448 56.5407 77.9451 55.712C77.8352 55.2527 77.9451 54.7435 77.9451 54.2643C78.0349 54.1744 78.1148 54.1245 78.1747 54.0347C78.6341 53.9248 78.9137 54.0946 79.1434 54.4939C79.6028 55.2328 80.0822 55.9716 80.5316 56.6805C80.5915 56.7703 80.7013 56.8502 80.7912 56.9401C80.8811 56.7703 80.8811 56.6306 80.8511 56.4808C80.7113 55.5123 80.6514 54.5738 80.8511 53.6153C80.911 53.2759 81.0808 53.0163 81.4803 53.0163C81.8797 52.9863 82.0495 53.2459 82.1594 53.5554C82.4989 54.464 82.8684 55.3726 83.2079 56.2811C83.2679 56.3909 83.3178 56.4808 83.3777 56.5906C83.4077 56.5906 83.4676 56.5906 83.4876 56.5607C83.5175 56.4509 83.5475 56.3011 83.5774 56.1913C83.7472 55.5123 83.887 54.8234 84.0568 54.1445C84.1467 53.805 84.3664 53.5454 84.7958 53.6053C85.2252 53.6652 85.3351 53.9448 85.395 54.2843C85.5648 55.3027 85.7645 56.361 85.9642 57.3794C85.9942 57.4892 86.0541 57.639 86.104 57.7488H86.2139C86.2738 57.639 86.3237 57.5192 86.3836 57.4393C86.6433 56.96 86.893 56.4708 87.1526 55.9916C87.3523 55.5922 87.6919 55.4524 88.1513 55.5623C88.321 55.702 88.4109 55.7919 88.5208 55.9017L88.5108 55.9317ZM84.8158 63.969C85.0155 63.7693 85.2152 63.5696 85.4449 63.3999C85.7245 63.1702 85.7046 63.0305 85.4449 62.7709C84.5661 61.9222 83.6573 61.0336 82.8285 60.1251C81.3205 58.4177 80.0422 56.6006 78.9038 54.6737C78.8139 54.5339 78.6241 54.474 78.4743 54.3941C78.3845 54.5638 78.1947 54.7036 78.2147 54.8534C78.3245 55.6222 78.3845 56.4409 78.6441 57.1797C79.6627 60.0452 81.5701 62.4114 83.7272 64.598C83.867 64.7378 83.9869 64.7378 84.1567 64.598C84.3564 64.3683 84.5861 64.1687 84.8058 63.969H84.8158ZM84.5861 61.6626C84.5861 61.6626 84.646 61.6327 84.676 61.6027C85.0455 61.9721 85.415 62.3416 85.8144 62.681C85.8743 62.7409 86.094 62.7409 86.154 62.681C86.2438 62.6211 86.2438 62.4514 86.2438 62.3715C86.2438 62.2916 86.134 62.2018 86.0741 62.1119C85.1653 60.5444 84.1666 59.0468 83.3477 57.4193C82.7486 56.2212 82.3791 54.9432 81.8698 53.7252C81.8098 53.5854 81.67 53.4955 81.5602 53.3857C81.4503 53.4955 81.3305 53.6153 81.2206 53.7252C81.1907 53.7551 81.1907 53.815 81.1907 53.8649C80.911 55.2827 81.2206 56.6805 81.5901 58.0383C81.6201 58.0983 81.68 58.1781 81.7299 58.238C82.6687 59.3463 83.6374 60.5144 84.5961 61.6526L84.5861 61.6626ZM83.4177 65.1871L83.5874 65.0972C83.5275 64.9874 83.4975 64.8376 83.3877 64.7278C81.8498 63.1103 80.4317 61.403 79.2932 59.4661C79.2333 59.3563 79.1534 59.2365 79.0336 59.1865C77.7553 58.5376 76.3872 58.0483 74.9092 57.9385C74.6795 57.9085 74.3998 57.8486 74.31 58.1382C74.2001 58.4177 74.4797 58.5076 74.6795 58.6174C77.7453 60.3547 80.5915 62.3715 83.0382 64.8077C83.148 64.9175 83.2679 65.0672 83.4077 65.1771L83.4177 65.1871ZM82.3691 66.1256C82.2792 66.0357 82.1993 65.9259 82.0894 65.846C80.7213 65.0772 79.3332 64.3084 77.965 63.5696C77.8552 63.5097 77.7054 63.4598 77.5656 63.4598C76.3971 63.4298 75.2387 63.4897 74.1302 63.8592C73.9604 63.9191 73.8206 64.1187 73.6708 64.2286C73.8406 64.3384 73.9804 64.5081 74.1801 64.5381C76.7666 64.9075 79.2932 65.5066 81.7699 66.3552C81.9996 66.4451 82.1993 66.4151 82.3691 66.1256ZM87.3124 61.4629C87.3723 61.4929 87.4222 61.4929 87.4822 61.5228C87.6519 61.2932 87.9615 61.0436 87.9915 60.814C88.0814 59.3063 88.1013 57.8287 88.1313 56.3211C88.1313 56.2112 88.0414 56.0415 87.9615 56.0115C87.8816 55.9816 87.6819 56.0415 87.622 56.1214C87.4522 56.351 87.2824 56.6006 87.1426 56.8303C86.4935 57.9085 86.2638 59.0468 86.863 60.2149C87.0627 60.6143 87.1726 61.0436 87.3224 61.4629H87.3124Z" fill="#ACC7CE"/>
<path d="M95.9605 45.1387C94.882 47.495 95.8207 50.2007 98.1775 51.4787C100.454 52.6968 103.241 52.2775 104.938 50.4603C106.616 48.6732 106.696 45.9974 105.168 44.1203C103.49 42.0736 100.454 41.5344 98.0876 42.8723C98.0277 42.6127 97.9778 42.3631 97.9179 42.1035C97.9179 42.0736 98.0077 42.0137 98.0577 41.9937C99.0763 41.5145 100.165 41.3148 101.293 41.3647C104.02 41.5045 106.356 43.3216 106.946 45.8277C107.455 47.9343 106.856 49.7515 105.268 51.279C103.311 53.1561 100.125 53.4955 97.7081 52.1577C95.1516 50.7099 94.0431 47.8944 95.0118 45.2486C95.0717 45.1387 95.1017 45.0788 95.2415 45.1088C95.4712 45.1088 95.7009 45.1088 95.9505 45.1387H95.9605Z" fill="#ACC7CE"/>
<path d="M93.8535 42.7226C94.3129 42.2433 94.7623 41.7541 95.2217 41.2748C95.3615 41.4745 95.5013 41.6443 95.6511 41.8439C96.0805 42.413 96.4999 43.0121 96.9593 43.5812C97.0192 43.6711 97.0192 43.721 96.9593 43.7809C96.7729 43.9673 96.5632 44.0039 96.3302 43.8907C95.5612 43.5213 94.7922 43.1519 94.0233 42.7825C93.9334 42.7525 93.9134 42.7525 93.8535 42.7226Z" fill="#ACC7CE"/>
<path d="M97.3489 43.3715C96.8096 42.6327 96.2704 41.9238 95.7311 41.185C95.5979 41.0119 95.6079 40.8422 95.761 40.6758C96.0706 40.3363 96.4102 39.9669 96.7297 39.6274C96.7597 39.5975 96.7897 39.5376 96.8396 39.4877C96.8695 39.5476 96.8695 39.5975 96.8995 39.6274C97.1592 40.7057 97.3789 41.7541 97.6385 42.8424C97.6984 43.0421 97.6685 43.1519 97.4987 43.2717C97.4388 43.3016 97.3888 43.3316 97.3589 43.3815L97.3489 43.3715Z" fill="#ACC7CE"/>
<path d="M96.3801 44.3999C96.3202 44.5097 96.2703 44.5996 96.1804 44.6795C96.1505 44.7094 96.0706 44.7394 96.0106 44.7394C94.8722 44.6495 93.7637 44.5996 92.6252 44.5097C92.4854 44.5097 92.3656 44.4798 92.1958 44.4798C92.2258 44.4199 92.2557 44.3899 92.2857 44.3699C92.6552 43.9706 93.0546 43.5413 93.4241 43.1519C93.4841 43.092 93.514 43.042 93.6239 43.092C94.5326 43.5213 95.4414 43.9406 96.3801 44.3999Z" fill="#ACC7CE"/>
<path d="M93.0045 42.9722C92.6051 43.3715 92.2655 43.7709 91.8661 44.1703C91.7762 43.7409 91.6963 43.3416 91.6064 42.9222C92.0858 42.9222 92.5452 42.9522 92.9946 42.9821L93.0045 42.9722Z" fill="#ACC7CE"/>
<path d="M96.4997 39.2281C96.1302 39.6275 95.7607 40.0268 95.3612 40.4262C95.2713 39.9969 95.1914 39.5975 95.1016 39.1782C95.5809 39.2081 96.0103 39.2381 96.4897 39.2381L96.4997 39.2281Z" fill="#337085"/>
<path d="M94.7624 41.1051C94.3929 41.5045 94.0234 41.9038 93.6239 42.3032C93.534 41.8739 93.4541 41.4745 93.3643 41.0552C93.8436 41.0851 94.273 41.0851 94.7524 41.1151L94.7624 41.1051Z" fill="#337085"/>
<path d="M93.2241 42.5528C92.7647 42.5229 92.3453 42.5229 91.856 42.4929C92.2255 42.0935 92.595 41.6942 92.9645 41.2948C93.0543 41.7241 93.1342 42.1235 93.2241 42.5428V42.5528Z" fill="#337085"/>
<path d="M94.9619 40.7058C94.5025 40.6758 94.0531 40.6758 93.5938 40.6459C93.9633 40.2465 94.3328 39.8471 94.7023 39.4478C94.7921 39.8771 94.872 40.2764 94.9619 40.6958V40.7058Z" fill="#337085"/>
<path d="M57.6426 84.4266C56.5641 86.7829 57.5028 89.4887 59.8596 90.7666C62.1366 91.9847 64.9228 91.5654 66.6205 89.7482C68.2982 87.9611 68.3781 85.2853 66.8502 83.4083C65.1725 81.3615 62.1366 80.8223 59.7698 82.1602C59.7098 81.9006 59.6599 81.651 59.6 81.3914C59.6 81.3615 59.6899 81.3016 59.7398 81.2816C60.7584 80.8024 61.847 80.6027 62.9754 80.6526C65.7017 80.7924 68.0386 82.6095 68.6278 85.1156C69.1371 87.2222 68.5379 89.0394 66.9501 90.5669C64.9927 92.444 61.807 92.7834 59.3903 91.4456C56.8337 89.9978 55.7252 87.1823 56.6939 84.5365C56.7538 84.4266 56.7838 84.3667 56.9236 84.3967C57.1533 84.4266 57.403 84.4266 57.6326 84.4266H57.6426Z" fill="#337085"/>
<path d="M55.5752 82.0105C56.0346 81.5312 56.484 81.042 56.9433 80.5627C57.0832 80.7624 57.223 80.9322 57.3728 81.1318C57.8022 81.7009 58.2216 82.3 58.681 82.8691C58.7409 82.959 58.7409 83.0089 58.681 83.0688C58.4946 83.2552 58.2849 83.2918 58.0518 83.1786C57.2829 82.8092 56.5139 82.4398 55.745 82.0704C55.6551 82.0704 55.6351 82.0404 55.5752 82.0105Z" fill="#337085"/>
<path d="M59.0408 82.6695C58.5015 81.9306 57.9622 81.2217 57.423 80.4829C57.2898 80.3098 57.2998 80.1401 57.4529 79.9737C57.7625 79.6342 58.1021 79.2648 58.4216 78.9254C58.4516 78.8954 58.4815 78.8355 58.5315 78.7856C58.5614 78.8455 58.5614 78.8954 58.5914 78.9254C58.851 80.0037 59.0707 81.052 59.3304 82.1403C59.3903 82.34 59.3604 82.4498 59.1906 82.5696C59.1307 82.6295 59.1007 82.6595 59.0508 82.6794L59.0408 82.6695Z" fill="#ACC7CE"/>
<path d="M58.1018 83.6878C58.0419 83.7976 57.992 83.8875 57.9021 83.9674C57.8721 83.9973 57.7922 84.0273 57.7323 84.0273C56.5939 83.9374 55.4854 83.8875 54.3469 83.7976C54.2071 83.7976 54.0873 83.7677 53.9175 83.7677C53.9474 83.7078 53.9774 83.6778 54.0074 83.6579C54.3769 83.2585 54.7763 82.8292 55.1458 82.4398C55.2057 82.3799 55.2357 82.3299 55.3455 82.3799C56.2543 82.8092 57.1631 83.2285 58.1018 83.6878Z" fill="#ACC7CE"/>
<path d="M54.7165 82.2701C54.317 82.6694 53.9775 83.0688 53.578 83.4682C53.4881 83.0389 53.4082 82.6395 53.3184 82.2202C53.7977 82.2501 54.2271 82.2501 54.7065 82.2801L54.7165 82.2701Z" fill="#ACC7CE"/>
<path d="M58.2116 78.5459C57.8421 78.9453 57.4726 79.3447 57.0731 79.7441C56.9832 79.3147 56.9034 78.9154 56.8135 78.496C57.2729 78.526 57.7222 78.526 58.2016 78.5559L58.2116 78.5459Z" fill="#ACC7CE"/>
<path d="M56.4543 80.3931C56.0848 80.7924 55.7153 81.1918 55.3158 81.5912C55.2259 81.1618 55.146 80.7625 55.0562 80.3431C55.5355 80.3731 55.9949 80.403 56.4443 80.403L56.4543 80.3931Z" fill="#ACC7CE"/>
<path d="M54.916 81.8707C54.4566 81.8407 54.0372 81.8407 53.5479 81.8108C53.9174 81.4114 54.2869 81.012 54.6564 80.6127C54.7662 81.012 54.8261 81.4114 54.916 81.8607V81.8707Z" fill="#ACC7CE"/>
<path d="M56.6836 79.9937C56.2242 79.9637 55.7748 79.9637 55.3154 79.9338C55.6849 79.5344 56.0544 79.135 56.4239 78.7357C56.5138 79.165 56.5937 79.5643 56.6836 79.9837V79.9937Z" fill="#ACC7CE"/>
<path d="M4.32428 87.1724C3.24574 89.5286 4.18447 92.2344 6.54128 93.5124C8.81821 94.7304 11.6044 94.3111 13.3021 92.494C14.9799 90.7068 15.0598 88.031 13.5318 86.154C11.8541 84.1072 8.81821 83.5681 6.4514 84.9059C6.39148 84.6464 6.34155 84.3967 6.28163 84.1372C6.28163 84.1072 6.37151 84.0473 6.42144 84.0273C7.44007 83.5481 8.5286 83.3484 9.65707 83.3983C12.3834 83.5381 14.7202 85.3552 15.3094 87.8613C15.8187 89.968 15.2196 91.7851 13.6317 93.3127C11.6743 95.1897 8.48865 95.5292 6.07192 94.1913C3.51537 92.7436 2.40687 89.928 3.37556 87.2822C3.43548 87.1724 3.46544 87.1125 3.60525 87.1424C3.83494 87.1424 4.06463 87.1424 4.31429 87.1724H4.32428Z" fill="#ACC7CE"/>
<path d="M2.21729 84.7562C2.67666 84.2769 3.12606 83.7877 3.58544 83.3085C3.72525 83.5082 3.86506 83.6779 4.01486 83.8776C4.44428 84.4467 4.86371 85.0457 5.32309 85.6148C5.38301 85.7047 5.38301 85.7546 5.32309 85.8145C5.13667 86.0009 4.92696 86.0375 4.69394 85.9243C3.92498 85.5549 3.15602 85.1855 2.38706 84.8161C2.32714 84.7861 2.2772 84.7562 2.21729 84.7562Z" fill="#ACC7CE"/>
<path d="M5.71266 85.4152C5.17339 84.6763 4.63412 83.9675 4.09485 83.2286C3.9617 83.0556 3.97168 82.8858 4.12481 82.7194C4.43439 82.38 4.77393 82.0106 5.0935 81.6711C5.12346 81.6411 5.15342 81.5812 5.20335 81.5313C5.23331 81.5912 5.23331 81.6411 5.26327 81.6711C5.52292 82.7494 5.74262 83.7977 6.00227 84.886C6.06219 85.0857 6.03223 85.1955 5.86246 85.3153C5.80254 85.3453 5.77258 85.3752 5.72265 85.4252L5.71266 85.4152Z" fill="#ACC7CE"/>
<path d="M4.74392 86.4335C4.684 86.5434 4.63406 86.6332 4.54419 86.7131C4.51423 86.743 4.43433 86.773 4.37442 86.773C3.23595 86.6831 2.12745 86.6332 0.98899 86.5434C0.849179 86.5434 0.729341 86.5134 0.55957 86.5134C0.58953 86.4535 0.619489 86.4235 0.649449 86.4036C1.01895 86.0042 1.41841 85.5749 1.78791 85.1855C1.84783 85.1256 1.87779 85.0757 1.98764 85.1256C2.92637 85.5549 3.83514 85.9743 4.74392 86.4335Z" fill="#ACC7CE"/>
<path d="M1.38835 84.9858C0.988885 85.3852 0.649344 85.7846 0.249884 86.1839C0.160005 85.7546 0.0801129 85.3553 -0.00976562 84.9359C0.469587 84.9659 0.899006 84.9958 1.37836 84.9958L1.38835 84.9858Z" fill="#ACC7CE"/>
<path d="M4.86344 81.2617C4.49394 81.6611 4.12444 82.0605 3.72498 82.4598C3.6351 82.0305 3.55521 81.6311 3.46533 81.2118C3.94468 81.2417 4.40406 81.2717 4.85346 81.2717L4.86344 81.2617Z" fill="#ACC7CE"/>
<path d="M3.12614 83.1387C2.75664 83.5381 2.38714 83.9375 1.98768 84.3368C1.8978 83.9075 1.81791 83.5081 1.72803 83.0888C2.20738 83.1188 2.6368 83.1188 3.11615 83.1487L3.12614 83.1387Z" fill="#ACC7CE"/>
<path d="M1.58788 84.5864C1.1285 84.5565 0.709065 84.5565 0.219727 84.5265C0.589227 84.1272 0.958728 83.7278 1.32823 83.3284C1.41811 83.7578 1.498 84.1571 1.58788 84.5765V84.5864Z" fill="#ACC7CE"/>
<path d="M3.32567 82.7394C2.86629 82.7094 2.4169 82.7094 1.95752 82.6795C2.32702 82.2801 2.69652 81.8808 3.06602 81.4814C3.17587 81.9107 3.23579 82.3101 3.32567 82.7294V82.7394Z" fill="#ACC7CE"/>
</g>
</g>
<defs>
<clipPath id="clip0_146_458320">
<rect width="111" height="95" rx="8" fill="white"/>
</clipPath>
</defs>
</svg>
