<svg width="111" height="95" viewBox="0 0 111 95" fill="none" xmlns="http://www.w3.org/2000/svg">
<g clip-path="url(#clip0_139_415383)">
<g opacity="0.5">
<path d="M6.19055 47.02C6.42055 48.19 6.58055 49.16 6.85055 50.13C7.59055 52.58 8.29055 55.02 9.53055 57.28C10.0706 58.33 10.8106 59.26 11.6706 60.11C11.9006 60.34 12.2506 60.42 12.5606 60.3C12.8706 60.18 12.9106 59.87 12.9506 59.56C13.0706 58.12 12.5206 56.76 11.9406 55.52C10.5806 52.53 8.79055 49.81 6.62055 47.29C6.50055 47.21 6.43055 47.21 6.19055 47.02Z" fill="#337085" fill-opacity="0.5"/>
<path d="M44.7629 20.86C45.3429 24.63 46.3929 28.08 48.1429 31.31C48.6429 32.24 49.2729 33.17 50.1229 33.87C50.3929 34.1 50.6629 34.34 51.0529 34.18C51.4429 34.02 51.4429 33.68 51.4429 33.29C51.5229 31.89 50.9429 30.65 50.3929 29.41C49.1129 26.38 47.1729 23.7 45.1929 21.1C45.1529 21.02 45.0329 20.98 44.7629 20.87V20.86Z" fill="#337085" fill-opacity="0.5"/>
<path d="M0.710022 19.98C1.06002 21.84 1.53002 23.63 2.11002 25.46C2.89002 27.79 3.78002 30.04 5.29002 31.98C5.60002 32.37 5.99002 32.76 6.42002 33.07C6.92002 33.46 7.31002 33.23 7.35002 32.68C7.43002 32.02 7.47002 31.32 7.23002 30.62C6.45002 28.29 5.40002 26.12 4.05002 24.06C3.20002 22.78 2.22002 21.61 1.37002 20.37C1.25002 20.18 1.14002 19.94 0.710022 19.98Z" fill="#337085" fill-opacity="0.5"/>
<path d="M75.7352 53.4701C75.9252 54.3201 76.0452 55.1801 76.2752 56.0301C76.9352 58.7101 77.7852 61.3101 79.1052 63.7601C79.6452 64.7701 80.2752 65.8201 81.2752 66.4801C81.9752 66.9101 82.3652 66.7101 82.4052 65.9401C82.4852 64.6201 82.0152 63.3801 81.5152 62.2101C80.1152 58.9901 78.1752 56.1501 75.9652 53.4301C75.8852 53.4301 75.8052 53.4701 75.7352 53.4701Z" fill="#337085" fill-opacity="0.5"/>
<path d="M104.317 76.44C104.507 77.29 104.627 78.15 104.857 79C105.517 81.68 106.367 84.28 107.687 86.73C108.227 87.74 108.857 88.79 109.857 89.45C110.557 89.88 110.947 89.68 110.987 88.91C111.067 87.59 110.597 86.35 110.097 85.18C108.697 81.96 106.757 79.12 104.547 76.4C104.467 76.4 104.387 76.44 104.317 76.44Z" fill="#337085" fill-opacity="0.5"/>
<path d="M88.8058 31.29C88.9658 32.92 89.4258 34.4 89.8558 35.91C90.5158 38.08 91.2958 40.26 92.4958 42.24C92.9958 43.09 93.6658 43.79 94.3958 44.45C94.5858 44.64 94.8658 44.72 95.1358 44.64C95.4458 44.52 95.4058 44.25 95.4458 43.98C95.5658 42.97 95.2858 42 94.9458 41.07C94.0958 38.55 92.6958 36.29 91.0658 34.12C90.5258 33.38 89.8658 32.64 89.4358 31.83C89.3158 31.52 89.1658 31.33 88.8158 31.29H88.8058Z" fill="#337085" fill-opacity="0.5"/>
<path d="M58.234 46.8199C58.624 48.6799 59.084 50.4699 59.594 52.2599C60.024 53.7399 60.684 55.1299 61.304 56.5299C61.844 57.6999 62.624 58.7399 63.554 59.6799C63.824 59.9499 64.174 60.1799 64.564 59.9899C64.914 59.8299 64.914 59.4099 64.914 59.0599C64.914 57.6999 64.484 56.4599 63.944 55.2499C62.624 52.1799 60.644 49.4599 58.544 46.8599C58.504 46.8599 58.424 46.8599 58.234 46.8199Z" fill="#337085" fill-opacity="0.5"/>
<path d="M47.0329 56.4199C46.8429 55.0199 46.3729 53.66 45.7529 52.34C44.5529 49.74 42.9229 47.4499 41.1329 45.1899C41.0129 45.0699 40.9029 44.92 40.7829 44.8C40.7029 44.72 40.5529 44.64 40.4729 44.68C40.2829 44.72 40.3529 44.9099 40.3929 45.0299C41.2129 48.5299 42.1029 52.0199 44.0029 55.1699C44.4329 55.8699 44.8529 56.61 45.5129 57.15C45.8629 57.42 46.1729 57.8099 46.6429 57.6199C47.1129 57.4299 46.9929 56.8799 47.0329 56.4199Z" fill="#337085" fill-opacity="0.5"/>
<path d="M75.7551 81.74C75.6751 82.63 76.0252 83.49 76.2252 84.34C76.8052 86.9 77.6651 89.43 78.8651 91.76C79.3651 92.69 79.9552 93.66 80.7652 94.4C81.1152 94.71 81.5852 95.22 82.0452 94.9C82.4352 94.63 82.4351 94.05 82.3551 93.5C82.0851 91.91 81.4652 90.43 80.7652 89C79.5952 86.51 77.8952 84.38 76.2952 82.17C76.1352 82.01 75.9051 81.9 75.7551 81.74Z" fill="#337085" fill-opacity="0.5"/>
<path d="M25.5917 20.12C26.0617 23.03 26.9117 25.79 28.0417 28.51C28.7017 30.06 29.5217 31.5 30.6817 32.7C30.9917 33.01 31.3417 33.24 31.7717 33.05C32.2017 32.89 32.0417 32.47 32.0817 32.16C32.2017 30.26 31.3417 28.59 30.5317 26.96C29.3317 24.59 27.7717 22.46 26.1417 20.4C26.0617 20.24 25.9817 20.09 25.6017 20.13L25.5917 20.12Z" fill="#337085" fill-opacity="0.5"/>
<path d="M45.7225 90.1C45.4525 88.35 44.7925 86.57 43.8625 84.9C42.6925 82.8 41.3425 80.78 39.8225 78.88C39.6625 78.69 39.5525 78.41 39.3225 78.49C39.0125 78.61 39.1325 78.96 39.1625 79.15C40.1325 82.96 41.0225 86.84 43.4725 90.14C43.6625 90.41 43.8625 90.64 44.0925 90.88C44.4425 91.23 44.8325 91.66 45.3725 91.42C45.9125 91.19 45.6425 90.64 45.7225 90.1Z" fill="#337085" fill-opacity="0.5"/>
<path d="M3.45037 74.97C3.53037 76.14 4.03037 77.14 4.38037 78.15C5.43037 81.37 6.67037 84.48 8.22037 87.51C8.76037 88.6 9.46037 89.61 10.2004 90.54C10.3904 90.81 10.6704 91.28 11.0904 91.01C11.5204 90.78 11.3204 90.35 11.2504 90C10.3204 86.58 8.80037 83.44 6.98037 80.37C6.09037 78.86 5.15037 77.34 4.22037 75.83C4.06037 75.56 3.95037 75.17 3.44037 74.98L3.45037 74.97Z" fill="#337085" fill-opacity="0.5"/>
<path d="M70.6747 26.62C70.4447 27.67 70.9847 28.56 71.2547 29.49C72.1847 32.64 73.3147 35.74 75.1347 38.54C75.4047 38.97 75.8347 39.32 76.1447 39.74C76.3047 39.97 76.5347 39.97 76.7647 39.9C77.0347 39.82 76.9947 39.59 76.9947 39.4C77.0347 38.12 76.4947 36.99 76.0247 35.87C74.8247 33.07 73.3447 30.39 71.5247 27.95C71.2147 27.52 70.9447 27.1 70.6747 26.63V26.62Z" fill="#337085" fill-opacity="0.5"/>
<path d="M41.8728 0C41.4828 1.01 42.1028 1.79 42.3428 2.64C42.7328 4.04 43.1928 5.44 43.7428 6.8C44.5628 8.78 45.4928 10.72 46.7728 12.47C47.0028 12.78 47.3128 13.21 47.7828 12.97C48.2128 12.74 48.0928 12.31 48.0128 11.88C47.4328 8.93 45.9528 6.37 44.4428 3.84C43.6228 2.56 42.7328 1.28 41.8828 0L41.8728 0Z" fill="#337085" fill-opacity="0.5"/>
<path d="M60.9842 77.91C61.3342 79.11 61.6842 80.32 62.0742 81.48C63.0042 84.43 64.0942 87.31 65.9142 89.87C66.1442 90.18 66.4542 90.49 66.7342 90.76C66.8942 90.95 67.1242 91.03 67.3542 90.92C67.6242 90.76 67.5442 90.53 67.5142 90.3C67.3242 88.86 66.8942 87.43 66.2742 86.14C64.7942 83.27 63.2042 80.43 60.9942 77.91H60.9842Z" fill="#337085" fill-opacity="0.5"/>
<path d="M25.4716 65.96C26.1716 68.76 26.3616 71.71 28.6216 73.96C28.7416 74.08 28.8516 74.19 29.0116 74.31C29.2816 74.5 29.6316 74.74 29.9816 74.54C30.3316 74.38 30.4116 74.04 30.4516 73.65C30.6116 72.45 30.1416 71.4 29.6316 70.35C28.7816 68.56 27.4916 67.09 26.2116 65.61C26.0516 65.45 25.9016 65.14 25.6716 65.22C25.4016 65.34 25.6316 65.69 25.4816 65.96H25.4716Z" fill="#337085" fill-opacity="0.5"/>
<path d="M16.7513 5.62003C17.2213 8.26003 17.6413 11.06 19.7013 13.23C20.0913 13.62 20.5513 14.05 21.1413 13.77C21.6813 13.5 21.8013 12.88 21.6813 12.33C21.3713 10.74 20.7113 9.30003 19.8213 7.98003C19.1613 7.01003 18.4613 6.08003 17.5713 5.26003C17.3413 5.07003 17.2613 4.60003 16.9113 4.72003C16.6413 4.84003 16.8313 5.22003 16.7513 5.61003V5.62003Z" fill="#337085" fill-opacity="0.5"/>
<path d="M16.7313 39.87C17.0413 42.78 17.5113 45.38 18.8713 47.75C19.1813 48.25 19.6113 48.68 20.1113 49.07C20.5013 49.34 20.9613 49.65 21.3913 49.34C21.7813 49.07 21.7813 48.56 21.7413 48.1C21.5113 45.85 20.3413 44.02 18.9813 42.27C18.3213 41.49 17.5813 40.76 16.7313 39.86V39.87Z" fill="#337085" fill-opacity="0.5"/>
<path d="M102.847 3.19005C103.157 6.10005 103.627 8.70005 104.987 11.0701C105.297 11.5701 105.727 12.0001 106.227 12.3901C106.617 12.6601 107.077 12.9701 107.507 12.6601C107.897 12.3901 107.897 11.8801 107.857 11.4201C107.627 9.17005 106.457 7.34005 105.097 5.59005C104.437 4.81005 103.697 4.08005 102.847 3.18005V3.19005Z" fill="#337085" fill-opacity="0.5"/>
<path d="M25.6218 80.3C25.3518 81.19 25.6218 81.93 25.7418 82.63C26.1718 84.84 26.7918 87.02 28.2318 88.84C28.4618 89.15 28.8118 89.38 29.2018 89.58C29.8618 89.85 30.4018 89.5 30.4418 88.69C30.4818 87.56 30.0918 86.52 29.5918 85.51C28.6618 83.57 27.3018 81.9 25.6318 80.31L25.6218 80.3Z" fill="#337085" fill-opacity="0.5"/>
<path d="M69.9941 15.86C69.9541 14.19 69.2541 12.75 68.2841 11.39C67.5041 10.3 66.6941 9.22004 65.7241 8.24004C65.5641 8.08004 65.4141 7.89004 65.2241 8.05004C64.9941 8.17004 65.1841 8.36004 65.1841 8.52004C65.4141 10.77 65.8841 12.99 66.9341 15.01C67.2441 15.59 67.6341 16.14 68.1041 16.6C68.4941 16.99 68.8841 17.45 69.5441 17.22C70.1241 16.95 69.9341 16.37 70.0141 15.86H69.9941Z" fill="#337085" fill-opacity="0.5"/>
<path d="M4.89001 7.85998C4.85001 6.18998 4.15001 4.74998 3.18001 3.38998C2.41001 2.30998 1.59001 1.21998 0.62001 0.249976C0.46001 0.0999755 0.31001 -0.100024 0.11001 0.0599755C-0.11999 0.179976 0.0700097 0.369975 0.0700097 0.529975C0.30001 2.77998 0.77001 4.99998 1.82001 7.01998C2.13001 7.59998 2.52001 8.14997 2.99001 8.60997C3.38001 8.99998 3.77001 9.45997 4.43001 9.22997C5.01001 8.95997 4.82001 8.37998 4.90001 7.86998L4.89001 7.85998Z" fill="#337085" fill-opacity="0.5"/>
<path d="M99.5266 53.96C99.9966 56.64 100.347 59.4 102.167 61.65C102.207 61.73 102.247 61.81 102.327 61.84C102.827 62.27 103.257 62.93 104.037 62.58C104.777 62.23 104.507 61.49 104.427 60.87C104.117 58.46 102.637 56.64 101.167 54.85C100.817 54.46 100.507 54.07 100.117 53.68C99.9966 53.56 99.8866 53.37 99.6866 53.45C99.4566 53.57 99.5266 53.8 99.5266 53.95V53.96Z" fill="#337085" fill-opacity="0.5"/>
<path d="M0 85.39C0.31 88.3 0.78 90.9 2.14 93.27C2.45 93.77 2.88 94.2 3.38 94.59C3.77 94.86 4.23 95.17 4.66 94.86C5.05 94.59 5.05 94.08 5.01 93.62C4.78 91.37 3.61 89.54 2.25 87.79C1.59 87.03 0.85 86.29 0 85.39Z" fill="#337085" fill-opacity="0.5"/>
<path d="M97.0262 20.5001C96.9862 18.8301 96.2862 17.3901 95.3162 16.0301C94.5362 14.9401 93.7263 13.8601 92.7563 12.8801C92.5963 12.7201 92.4463 12.5301 92.2563 12.6901C92.0263 12.8101 92.2162 13.0001 92.2162 13.1601C92.4462 15.4101 92.9162 17.6301 93.9662 19.6501C94.2762 20.2301 94.6662 20.7801 95.1362 21.2401C95.5262 21.6301 95.9162 22.0901 96.5763 21.8601C97.1562 21.5901 96.9663 21.0101 97.0463 20.5001H97.0262Z" fill="#337085" fill-opacity="0.5"/>
<path d="M80.635 9.34002C80.595 7.67002 79.895 6.23002 78.925 4.87002C78.145 3.78002 77.335 2.70002 76.365 1.72002C76.205 1.56002 76.055 1.37002 75.865 1.53002C75.635 1.65002 75.825 1.84002 75.825 2.00002C76.055 4.25002 76.525 6.47002 77.575 8.49002C77.885 9.07002 78.275 9.62002 78.745 10.08C79.135 10.47 79.525 10.93 80.185 10.7C80.765 10.43 80.575 9.85002 80.655 9.34002H80.635Z" fill="#337085" fill-opacity="0.5"/>
<path d="M106.977 40.46C106.937 38.79 106.237 37.35 105.267 35.99C104.487 34.9 103.677 33.82 102.707 32.84C102.547 32.68 102.397 32.49 102.207 32.65C101.977 32.77 102.167 32.96 102.167 33.12C102.397 35.37 102.867 37.59 103.917 39.61C104.227 40.19 104.617 40.74 105.087 41.2C105.477 41.59 105.867 42.05 106.527 41.82C107.107 41.55 106.917 40.97 106.997 40.46H106.977Z" fill="#337085" fill-opacity="0.5"/>
<path d="M47.0331 67.46C47.7331 70.26 47.9231 73.21 50.1831 75.46C50.3031 75.58 50.4131 75.69 50.5731 75.81C50.8431 76 51.1931 76.24 51.5431 76.04C51.8931 75.88 51.9731 75.54 52.0131 75.15C52.1731 73.95 51.7031 72.9 51.1931 71.85C50.3431 70.06 49.0531 68.59 47.7731 67.11C47.6131 66.95 47.4631 66.64 47.2331 66.72C46.9631 66.84 47.1931 67.19 47.0431 67.46H47.0331Z" fill="#337085" fill-opacity="0.5"/>
</g>
</g>
<defs>
<clipPath id="clip0_139_415383">
<rect width="111" height="95" rx="8" fill="white"/>
</clipPath>
</defs>
</svg>
