<svg width="111" height="95" viewBox="0 0 111 95" fill="none" xmlns="http://www.w3.org/2000/svg">
<g opacity="0.5">
<g clip-path="url(#clip0_146_279641)">
<g opacity="0.5">
<path d="M6.19043 47.02C6.42043 48.19 6.58043 49.16 6.85043 50.13C7.59043 52.58 8.29043 55.02 9.53043 57.28C10.0704 58.33 10.8104 59.26 11.6704 60.11C11.9004 60.34 12.2504 60.42 12.5604 60.3C12.8704 60.18 12.9104 59.87 12.9504 59.56C13.0704 58.12 12.5204 56.76 11.9404 55.52C10.5804 52.53 8.79043 49.81 6.62043 47.29C6.50043 47.21 6.43043 47.21 6.19043 47.02Z" fill="#ACC7CE"/>
<path d="M44.7627 20.86C45.3427 24.63 46.3927 28.08 48.1427 31.31C48.6427 32.24 49.2727 33.17 50.1227 33.87C50.3927 34.1 50.6627 34.34 51.0527 34.18C51.4427 34.02 51.4427 33.68 51.4427 33.29C51.5227 31.89 50.9427 30.65 50.3927 29.41C49.1127 26.38 47.1727 23.7 45.1927 21.1C45.1527 21.02 45.0327 20.98 44.7627 20.87V20.86Z" fill="#ACC7CE"/>
<path d="M0.709961 19.98C1.05996 21.84 1.52996 23.63 2.10996 25.46C2.88996 27.79 3.77996 30.04 5.28996 31.98C5.59996 32.37 5.98996 32.76 6.41996 33.07C6.91996 33.46 7.30996 33.23 7.34996 32.68C7.42996 32.02 7.46996 31.32 7.22996 30.62C6.44996 28.29 5.39996 26.12 4.04996 24.06C3.19996 22.78 2.21996 21.61 1.36996 20.37C1.24996 20.18 1.13996 19.94 0.709961 19.98Z" fill="#ACC7CE"/>
<path d="M75.7349 53.4701C75.9249 54.3201 76.0449 55.1801 76.2749 56.0301C76.9349 58.7101 77.7849 61.3101 79.1049 63.7601C79.6449 64.7701 80.2749 65.8201 81.2749 66.4801C81.9749 66.9101 82.3649 66.7101 82.4049 65.9401C82.4849 64.6201 82.0149 63.3801 81.5149 62.2101C80.1149 58.9901 78.1749 56.1501 75.9649 53.4301C75.8849 53.4301 75.8049 53.4701 75.7349 53.4701Z" fill="#ACC7CE"/>
<path d="M104.317 76.44C104.507 77.29 104.627 78.15 104.857 79C105.517 81.68 106.367 84.28 107.687 86.73C108.227 87.74 108.857 88.79 109.857 89.45C110.557 89.88 110.947 89.68 110.987 88.91C111.067 87.59 110.597 86.35 110.097 85.18C108.697 81.96 106.757 79.12 104.547 76.4C104.467 76.4 104.387 76.44 104.317 76.44Z" fill="#ACC7CE"/>
<path d="M88.8057 31.29C88.9657 32.92 89.4257 34.4 89.8557 35.91C90.5157 38.08 91.2957 40.26 92.4957 42.24C92.9957 43.09 93.6657 43.79 94.3957 44.45C94.5857 44.64 94.8657 44.72 95.1357 44.64C95.4457 44.52 95.4057 44.25 95.4457 43.98C95.5657 42.97 95.2857 42 94.9457 41.07C94.0957 38.55 92.6957 36.29 91.0657 34.12C90.5257 33.38 89.8657 32.64 89.4357 31.83C89.3157 31.52 89.1657 31.33 88.8157 31.29H88.8057Z" fill="#ACC7CE"/>
<path d="M58.2339 46.8199C58.6239 48.6799 59.0839 50.4699 59.5939 52.2599C60.0239 53.7399 60.6839 55.1299 61.3039 56.5299C61.8439 57.6999 62.6239 58.7399 63.5539 59.6799C63.8239 59.9499 64.1739 60.1799 64.5639 59.9899C64.9139 59.8299 64.9139 59.4099 64.9139 59.0599C64.9139 57.6999 64.4839 56.4599 63.9439 55.2499C62.6239 52.1799 60.6439 49.4599 58.5439 46.8599C58.5039 46.8599 58.4239 46.8599 58.2339 46.8199Z" fill="#ACC7CE"/>
<path d="M47.0325 56.4199C46.8425 55.0199 46.3725 53.66 45.7525 52.34C44.5525 49.74 42.9225 47.4499 41.1325 45.1899C41.0125 45.0699 40.9025 44.92 40.7825 44.8C40.7025 44.72 40.5525 44.64 40.4725 44.68C40.2825 44.72 40.3525 44.9099 40.3925 45.0299C41.2125 48.5299 42.1025 52.0199 44.0025 55.1699C44.4325 55.8699 44.8525 56.61 45.5125 57.15C45.8625 57.42 46.1725 57.8099 46.6425 57.6199C47.1125 57.4299 46.9925 56.8799 47.0325 56.4199Z" fill="#ACC7CE"/>
<path d="M75.7548 81.74C75.6748 82.63 76.0248 83.49 76.2248 84.34C76.8048 86.9 77.6648 89.43 78.8648 91.76C79.3648 92.69 79.9548 93.66 80.7648 94.4C81.1148 94.71 81.5848 95.22 82.0448 94.9C82.4348 94.63 82.4348 94.05 82.3548 93.5C82.0848 91.91 81.4648 90.43 80.7648 89C79.5948 86.51 77.8948 84.38 76.2948 82.17C76.1348 82.01 75.9048 81.9 75.7548 81.74Z" fill="#ACC7CE"/>
<path d="M25.5913 20.12C26.0613 23.03 26.9113 25.79 28.0413 28.51C28.7013 30.06 29.5213 31.5 30.6813 32.7C30.9913 33.01 31.3413 33.24 31.7713 33.05C32.2013 32.89 32.0413 32.47 32.0813 32.16C32.2013 30.26 31.3413 28.59 30.5313 26.96C29.3313 24.59 27.7713 22.46 26.1413 20.4C26.0613 20.24 25.9813 20.09 25.6013 20.13L25.5913 20.12Z" fill="#ACC7CE"/>
<path d="M45.7222 90.1C45.4522 88.35 44.7922 86.57 43.8622 84.9C42.6922 82.8 41.3422 80.78 39.8222 78.88C39.6622 78.69 39.5522 78.41 39.3222 78.49C39.0122 78.61 39.1322 78.96 39.1622 79.15C40.1322 82.96 41.0222 86.84 43.4722 90.14C43.6622 90.41 43.8622 90.64 44.0922 90.88C44.4422 91.23 44.8322 91.66 45.3722 91.42C45.9122 91.19 45.6422 90.64 45.7222 90.1Z" fill="#ACC7CE"/>
<path d="M3.44994 74.97C3.52994 76.14 4.02994 77.14 4.37994 78.15C5.42994 81.37 6.66994 84.48 8.21994 87.51C8.75994 88.6 9.45994 89.61 10.1999 90.54C10.3899 90.81 10.6699 91.28 11.0899 91.01C11.5199 90.78 11.3199 90.35 11.2499 90C10.3199 86.58 8.79994 83.44 6.97994 80.37C6.08994 78.86 5.14994 77.34 4.21994 75.83C4.05994 75.56 3.94994 75.17 3.43994 74.98L3.44994 74.97Z" fill="#ACC7CE"/>
<path d="M70.6748 26.62C70.4448 27.67 70.9848 28.56 71.2548 29.49C72.1848 32.64 73.3148 35.74 75.1348 38.54C75.4048 38.97 75.8348 39.32 76.1448 39.74C76.3048 39.97 76.5348 39.97 76.7648 39.9C77.0348 39.82 76.9948 39.59 76.9948 39.4C77.0348 38.12 76.4948 36.99 76.0248 35.87C74.8248 33.07 73.3448 30.39 71.5248 27.95C71.2148 27.52 70.9448 27.1 70.6748 26.63V26.62Z" fill="#ACC7CE"/>
<path d="M41.8728 0C41.4828 1.01 42.1028 1.79 42.3428 2.64C42.7328 4.04 43.1928 5.44 43.7428 6.8C44.5628 8.78 45.4928 10.72 46.7728 12.47C47.0028 12.78 47.3128 13.21 47.7828 12.97C48.2128 12.74 48.0928 12.31 48.0128 11.88C47.4328 8.93 45.9528 6.37 44.4428 3.84C43.6228 2.56 42.7328 1.28 41.8828 0L41.8728 0Z" fill="#ACC7CE"/>
<path d="M60.9839 77.91C61.3339 79.11 61.6839 80.32 62.0739 81.48C63.0039 84.43 64.0939 87.31 65.9139 89.87C66.1439 90.18 66.4539 90.49 66.7339 90.76C66.8939 90.95 67.1239 91.03 67.3539 90.92C67.6239 90.76 67.5439 90.53 67.5139 90.3C67.3239 88.86 66.8939 87.43 66.2739 86.14C64.7939 83.27 63.2039 80.43 60.9939 77.91H60.9839Z" fill="#ACC7CE"/>
<path d="M25.4712 65.96C26.1712 68.76 26.3612 71.71 28.6212 73.96C28.7412 74.08 28.8512 74.19 29.0112 74.31C29.2812 74.5 29.6312 74.74 29.9812 74.54C30.3312 74.38 30.4112 74.04 30.4512 73.65C30.6112 72.45 30.1412 71.4 29.6312 70.35C28.7812 68.56 27.4912 67.09 26.2112 65.61C26.0512 65.45 25.9012 65.14 25.6712 65.22C25.4012 65.34 25.6312 65.69 25.4812 65.96H25.4712Z" fill="#ACC7CE"/>
<path d="M16.751 5.62003C17.221 8.26003 17.641 11.06 19.701 13.23C20.091 13.62 20.551 14.05 21.141 13.77C21.681 13.5 21.801 12.88 21.681 12.33C21.371 10.74 20.711 9.30003 19.821 7.98003C19.161 7.01003 18.461 6.08003 17.571 5.26003C17.341 5.07003 17.261 4.60003 16.911 4.72003C16.641 4.84003 16.831 5.22003 16.751 5.61003V5.62003Z" fill="#ACC7CE"/>
<path d="M16.731 39.87C17.041 42.78 17.511 45.38 18.871 47.75C19.181 48.25 19.611 48.68 20.111 49.07C20.501 49.34 20.961 49.65 21.391 49.34C21.781 49.07 21.781 48.56 21.741 48.1C21.511 45.85 20.341 44.02 18.981 42.27C18.321 41.49 17.581 40.76 16.731 39.86V39.87Z" fill="#ACC7CE"/>
<path d="M102.847 3.19005C103.157 6.10005 103.627 8.70005 104.987 11.0701C105.297 11.5701 105.727 12.0001 106.227 12.3901C106.617 12.6601 107.077 12.9701 107.507 12.6601C107.897 12.3901 107.897 11.8801 107.857 11.4201C107.627 9.17005 106.457 7.34005 105.097 5.59005C104.437 4.81005 103.697 4.08005 102.847 3.18005V3.19005Z" fill="#ACC7CE"/>
<path d="M25.6214 80.3C25.3514 81.19 25.6213 81.93 25.7413 82.63C26.1713 84.84 26.7913 87.02 28.2313 88.84C28.4613 89.15 28.8114 89.38 29.2014 89.58C29.8614 89.85 30.4014 89.5 30.4413 88.69C30.4813 87.56 30.0913 86.52 29.5913 85.51C28.6613 83.57 27.3013 81.9 25.6313 80.31L25.6214 80.3Z" fill="#ACC7CE"/>
<path d="M69.9941 15.86C69.9541 14.19 69.2541 12.75 68.2841 11.39C67.5041 10.3 66.6941 9.22004 65.7241 8.24004C65.5641 8.08004 65.4141 7.89004 65.2241 8.05004C64.9941 8.17004 65.1841 8.36004 65.1841 8.52004C65.4141 10.77 65.8841 12.99 66.9341 15.01C67.2441 15.59 67.6341 16.14 68.1041 16.6C68.4941 16.99 68.8841 17.45 69.5441 17.22C70.1241 16.95 69.9341 16.37 70.0141 15.86H69.9941Z" fill="#ACC7CE"/>
<path d="M4.88983 7.85998C4.84983 6.18998 4.14983 4.74998 3.17983 3.38998C2.40983 2.30998 1.58983 1.21998 0.619827 0.249976C0.459827 0.0999755 0.309827 -0.100024 0.109827 0.0599755C-0.120173 0.179976 0.0698266 0.369975 0.0698266 0.529975C0.299827 2.77998 0.769827 4.99998 1.81983 7.01998C2.12983 7.59998 2.51983 8.14997 2.98983 8.60997C3.37983 8.99998 3.76983 9.45997 4.42983 9.22997C5.00983 8.95997 4.81983 8.37998 4.89983 7.86998L4.88983 7.85998Z" fill="#ACC7CE"/>
<path d="M99.5261 53.96C99.9961 56.64 100.346 59.4 102.166 61.65C102.206 61.73 102.246 61.81 102.326 61.84C102.826 62.27 103.256 62.93 104.036 62.58C104.776 62.23 104.506 61.49 104.426 60.87C104.116 58.46 102.636 56.64 101.166 54.85C100.816 54.46 100.506 54.07 100.116 53.68C99.9961 53.56 99.8861 53.37 99.6861 53.45C99.4561 53.57 99.5261 53.8 99.5261 53.95V53.96Z" fill="#ACC7CE"/>
<path d="M0 85.39C0.31 88.3 0.78 90.9 2.14 93.27C2.45 93.77 2.88 94.2 3.38 94.59C3.77 94.86 4.23 95.17 4.66 94.86C5.05 94.59 5.05 94.08 5.01 93.62C4.78 91.37 3.61 89.54 2.25 87.79C1.59 87.03 0.85 86.29 0 85.39Z" fill="#ACC7CE"/>
<path d="M97.0258 20.5001C96.9858 18.8301 96.2858 17.3901 95.3158 16.0301C94.5358 14.9401 93.7258 13.8601 92.7558 12.8801C92.5958 12.7201 92.4458 12.5301 92.2558 12.6901C92.0258 12.8101 92.2158 13.0001 92.2158 13.1601C92.4458 15.4101 92.9158 17.6301 93.9658 19.6501C94.2758 20.2301 94.6658 20.7801 95.1358 21.2401C95.5258 21.6301 95.9158 22.0901 96.5758 21.8601C97.1558 21.5901 96.9658 21.0101 97.0458 20.5001H97.0258Z" fill="#ACC7CE"/>
<path d="M80.6347 9.34002C80.5947 7.67002 79.8947 6.23002 78.9247 4.87002C78.1447 3.78002 77.3347 2.70002 76.3647 1.72002C76.2047 1.56002 76.0547 1.37002 75.8647 1.53002C75.6347 1.65002 75.8247 1.84002 75.8247 2.00002C76.0547 4.25002 76.5247 6.47002 77.5747 8.49002C77.8847 9.07002 78.2747 9.62002 78.7447 10.08C79.1347 10.47 79.5247 10.93 80.1847 10.7C80.7647 10.43 80.5747 9.85002 80.6547 9.34002H80.6347Z" fill="#ACC7CE"/>
<path d="M106.977 40.46C106.937 38.79 106.237 37.35 105.267 35.99C104.487 34.9 103.677 33.82 102.707 32.84C102.547 32.68 102.397 32.49 102.207 32.65C101.977 32.77 102.167 32.96 102.167 33.12C102.397 35.37 102.867 37.59 103.917 39.61C104.227 40.19 104.617 40.74 105.087 41.2C105.477 41.59 105.867 42.05 106.527 41.82C107.107 41.55 106.917 40.97 106.997 40.46H106.977Z" fill="#ACC7CE"/>
<path d="M47.0327 67.46C47.7327 70.26 47.9227 73.21 50.1827 75.46C50.3027 75.58 50.4127 75.69 50.5727 75.81C50.8427 76 51.1927 76.24 51.5427 76.04C51.8927 75.88 51.9727 75.54 52.0127 75.15C52.1727 73.95 51.7027 72.9 51.1927 71.85C50.3427 70.06 49.0527 68.59 47.7727 67.11C47.6127 66.95 47.4627 66.64 47.2327 66.72C46.9627 66.84 47.1927 67.19 47.0427 67.46H47.0327Z" fill="#ACC7CE"/>
</g>
</g>
</g>
<defs>
<clipPath id="clip0_146_279641">
<rect width="111" height="95" rx="8" fill="white"/>
</clipPath>
</defs>
</svg>
