<svg width="358" height="334" viewBox="0 0 358 334" fill="none" xmlns="http://www.w3.org/2000/svg">
<g clip-path="url(#clip0_57_28830)">
<path d="M56.9001 -27.5H-0.199951V29.6H56.9001V-27.5Z" fill="#F6BBB5"/>
<path d="M42.6 0.899994L28.3 15.2L42.6 29.5L56.9001 15.2L42.6 0.899994ZM42.2001 14.9C42.1 15.1 41.9001 15.2 41.7001 15.4C41.4001 15.8 41.5 16.2 41.5 16.6C41.6 17.6 41.6 20.2 41.6 21.2C41.6 21.5 41.6 21.8 41.3 21.8C41.1 21.9 40.9 21.8 40.8 21.6C40.7 21.4 40.7001 21.2 40.7001 21C40.6 19.7 40.5 16.6 40.6 15.1C40.3 15.1 40 14.9 40 14.7C39.8 14.4 39.8001 14.1 39.7001 13.9C39.6 13 39.6 12 39.8 11C39.8 10.9 39.9 10.7 40 10.7C40.1 10.7 40.1 10.7 40.2001 10.7C40.3001 10.7 40.3 10.8 40.3 10.9C40.3 11.4 40.3 11.9 40.3 12.4C40.3 12.6 40.4 12.9 40.6 12.8C40.7 12.8 40.7001 12.7 40.7001 12.6C40.7001 12.1 40.7 11.7 40.8 11.2C40.8 11 40.8 10.8 41 10.7C41.1 10.6 41.2 10.6 41.3 10.7C41.4 10.8 41.4001 10.8 41.4001 10.9C41.4001 11.4 41.4001 11.7 41.4001 12.2C41.4001 12.4 41.4 12.6 41.5 12.8C41.6 12.9 41.7 12.9 41.8 12.8C41.9 12.7 41.8 12.5 41.8 12.3C41.8 11.8 41.8001 11.4 41.9001 10.9C41.9001 11 42 11 42 11C42.2 10.9 42.3001 11.2 42.4001 11.4C42.4001 12.2 42.5 13.1 42.5 13.9C42.4 14.2 42.4001 14.5 42.2001 14.9ZM45.3 15.4C45.1 15.5 44.8001 15.4 44.7001 15.6C44.6 15.7 44.6 15.8 44.6 16C44.5 17.2 44.6 19.9 44.8 21.1C44.9 21.4 44.9 21.7 44.8 21.8C44.7 22.1 44.2 22.2 44 21.8C43.8 19.1 43.8001 15.4 43.7001 12.8C43.7001 12.2 43.6 11.6 43.7001 11.1C43.7001 11 43.7 10.9 43.8 10.9C43.9 10.9 44 10.9 44.1 11C44.6 11.4 44.8 12 45 12.6C45.2001 13.3 45.4 14.1 45.6 14.8C45.5 14.8 45.6 15.2 45.3 15.4Z" fill="#337085"/>
<path d="M14.1 0.899994L-0.199951 15.2L14.1 29.5L28.4 15.2L14.1 0.899994ZM13.7 14.9C13.6 15.1 13.4 15.2 13.2 15.4C12.9 15.8 13 16.2 13 16.6C13.1 17.6 13.1 20.2 13.1 21.2C13.1 21.5 13.1 21.8 12.8 21.8C12.6 21.9 12.4 21.8 12.3 21.6C12.2 21.4 12.2 21.2 12.2 21C12.1 19.7 12 16.6 12.1 15.1C11.8 15.1 11.5 14.9 11.5 14.7C11.3 14.4 11.3 14.1 11.2 13.9C11.1 13 11.1 12 11.3 11C11.3 10.9 11.4 10.7 11.5 10.7C11.6 10.7 11.6 10.7 11.7 10.7C11.8 10.7 11.8 10.8 11.8 10.9C11.8 11.4 11.8 11.9 11.8 12.4C11.8 12.6 11.9 12.9 12.1 12.8C12.2 12.8 12.2 12.7 12.2 12.6C12.2 12.1 12.2 11.7 12.3 11.2C12.3 11 12.3 10.8 12.5 10.7C12.6 10.6 12.7 10.6 12.8 10.7C12.9 10.8 12.9 10.8 12.9 10.9C12.9 11.4 12.9 11.7 12.9 12.2C12.9 12.4 12.9 12.6 13 12.8C13.1 12.9 13.2 12.9 13.3 12.8C13.4 12.7 13.3 12.5 13.3 12.3C13.3 11.8 13.3 11.4 13.4 10.9C13.4 10.8 13.5 10.8 13.5 10.8C13.7 10.7 13.8 11 13.9 11.2C13.9 12 14 12.9 14 13.7C13.9 14.2 13.9 14.5 13.7 14.9ZM16.7001 15.4C16.5 15.5 16.2001 15.4 16.1 15.6C16 15.6 16 15.7 16 15.9C15.9 17.1 16 19.8 16.2001 21C16.3001 21.3 16.3001 21.6 16.2001 21.7C16.1 22 15.6 22.1 15.4 21.7C15.2 19 15.2 15.3 15.1 12.7C15.1 12.1 15 11.5 15.1 11C15.1 10.9 15.1 10.8 15.2 10.8C15.3 10.8 15.4 10.8 15.5 10.9C16 11.3 16.2 11.9 16.4 12.5C16.6 13.2 16.8 14 17 14.7C16.9 14.8 16.9001 15.2 16.7001 15.4Z" fill="#337085"/>
<path d="M14.1 -27.6L-0.199951 -13.3L14.1 0.899994L28.4 -13.4L14.1 -27.6ZM13.7 -13.7C13.6 -13.5 13.4 -13.4 13.2 -13.2C12.9 -12.8 13 -12.4 13 -12C13.1 -11 13.1 -8.40001 13.1 -7.40001C13.1 -7.10001 13.1 -6.80001 12.8 -6.80001C12.6 -6.70001 12.4 -6.8 12.3 -7.00001C12.2 -7.20001 12.2 -7.40001 12.2 -7.60001C12.1 -8.90001 12 -12 12.1 -13.5C11.8 -13.5 11.5 -13.7 11.5 -13.9C11.3 -14.2 11.3 -14.5 11.2 -14.7C11.1 -15.6 11.1 -16.6 11.3 -17.6C11.3 -17.7 11.4 -17.9 11.5 -17.9C11.6 -17.9 11.6 -17.9 11.7 -17.9C11.8 -17.9 11.8 -17.8 11.8 -17.7C11.8 -17.2 11.8 -16.7 11.8 -16.2C11.8 -16 11.9 -15.7 12.1 -15.8C12.2 -15.8 12.2 -15.9 12.2 -16C12.2 -16.5 12.2 -16.9 12.3 -17.4C12.3 -17.6 12.3 -17.8 12.5 -17.9C12.6 -18 12.7 -18 12.8 -17.9C12.9 -17.8 12.9 -17.8 12.9 -17.7C12.9 -17.2 12.9 -16.9 12.9 -16.4C12.9 -16.2 12.9 -16 13 -15.8C13.1 -15.7 13.2 -15.7 13.3 -15.8C13.4 -15.9 13.3 -16.1 13.3 -16.3C13.3 -16.8 13.3 -17.2 13.4 -17.7C13.4 -17.8 13.5 -17.8 13.5 -17.8C13.7 -17.9 13.8 -17.6 13.9 -17.4C13.9 -16.6 14 -15.7 14 -14.9C13.9 -14.4 13.9 -14 13.7 -13.7ZM16.7001 -13.3C16.5 -13.2 16.2001 -13.3 16.1 -13.1C16 -13 16 -12.9 16 -12.7C15.9 -11.5 16 -8.80001 16.2001 -7.60001C16.3001 -7.30001 16.3001 -7.00001 16.2001 -6.90001C16.1 -6.60001 15.6 -6.50001 15.4 -6.90001C15.2 -9.60001 15.2 -13.3 15.1 -15.9C15.1 -16.5 15 -17.1 15.1 -17.6C15.1 -17.7 15.1 -17.8 15.2 -17.8C15.3 -17.8 15.4 -17.8 15.5 -17.7C16 -17.3 16.2 -16.7 16.4 -16.1C16.6 -15.4 16.8 -14.6 17 -13.9C16.9 -13.7 16.9001 -13.3 16.7001 -13.3Z" fill="#337085"/>
<path d="M42.6 -27.6L28.3 -13.3L42.6 0.899994L56.9001 -13.4L42.6 -27.6ZM42.2001 -13.7C42.1 -13.5 41.9001 -13.4 41.7001 -13.2C41.4001 -12.8 41.5 -12.4 41.5 -12C41.6 -11 41.6 -8.40001 41.6 -7.40001C41.6 -7.10001 41.6 -6.80001 41.3 -6.80001C41.2 -6.70001 41 -6.8 41 -7.00001C40.9 -7.20001 40.9001 -7.40001 40.9001 -7.60001C40.8001 -8.90001 40.7 -12 40.8 -13.5C40.5 -13.5 40.2001 -13.7 40.2001 -13.9C40.0001 -14.2 40.0001 -14.5 39.9001 -14.7C39.8001 -15.6 39.8 -16.6 40 -17.6C40 -17.7 40.1 -17.9 40.2001 -17.9C40.3001 -17.9 40.3001 -17.9 40.4001 -17.9C40.5001 -17.9 40.5 -17.8 40.5 -17.7C40.5 -17.2 40.5 -16.7 40.5 -16.2C40.5 -16 40.6 -15.7 40.8 -15.8C40.9 -15.8 40.9001 -15.9 40.9001 -16C40.9001 -16.5 40.9 -16.9 41 -17.4C41 -17.6 41.0001 -17.8 41.2001 -17.9C41.3001 -18 41.4 -18 41.5 -17.9C41.6 -17.8 41.6 -17.8 41.6 -17.7C41.6 -17.2 41.6 -16.9 41.6 -16.4C41.6 -16.2 41.6 -16 41.7001 -15.8C41.8001 -15.7 41.9 -15.7 42 -15.8C42.1 -15.9 42 -16.1 42 -16.3C42 -16.8 42 -17.2 42.1 -17.7C42.1 -17.8 42.2001 -17.8 42.2001 -17.8C42.4001 -17.9 42.5 -17.6 42.6 -17.4C42.6 -16.6 42.7001 -15.7 42.7001 -14.9C42.4001 -14.4 42.4001 -14 42.2001 -13.7ZM45.3 -13.3C45.1 -13.2 44.8001 -13.3 44.7001 -13.1C44.6 -13 44.6 -12.9 44.6 -12.7C44.5 -11.5 44.6 -8.80001 44.8 -7.60001C44.9 -7.30001 44.9 -7.00001 44.8 -6.90001C44.7 -6.60001 44.2 -6.50001 44 -6.90001C43.8 -9.60001 43.8001 -13.3 43.7001 -15.9C43.7001 -16.5 43.6 -17.1 43.7001 -17.6C43.7001 -17.7 43.7 -17.8 43.8 -17.8C43.9 -17.8 44 -17.8 44.1 -17.7C44.6 -17.3 44.8 -16.7 45 -16.1C45.2001 -15.4 45.4 -14.6 45.6 -13.9C45.5 -13.7 45.6 -13.3 45.3 -13.3Z" fill="#337085"/>
<path d="M208.1 -27.6H151V29.5H208.1V-27.6Z" fill="#F6BBB5"/>
<path d="M193.7 0.899994L179.4 15.2L193.7 29.5L208 15.2L193.7 0.899994ZM193.3 14.9C193.2 15.1 193 15.2 192.8 15.4C192.5 15.8 192.6 16.2 192.6 16.6C192.7 17.6 192.7 20.2 192.7 21.2C192.7 21.5 192.7 21.8 192.4 21.8C192.2 21.9 192 21.8 191.9 21.6C191.8 21.4 191.8 21.2 191.8 21C191.7 19.7 191.6 16.6 191.7 15.1C191.4 15.1 191.1 14.9 191.1 14.7C190.9 14.4 190.9 14.1 190.8 13.9C190.7 13 190.7 12 190.9 11C190.9 10.9 191 10.7 191.1 10.7C191.2 10.7 191.2 10.7 191.3 10.7C191.4 10.7 191.4 10.8 191.4 10.9C191.4 11.4 191.4 11.9 191.4 12.4C191.4 12.6 191.5 12.9 191.7 12.8C191.8 12.8 191.8 12.7 191.8 12.6C191.8 12.1 191.8 11.7 191.9 11.2C191.9 11 191.9 10.8 192.1 10.7C192.2 10.6 192.3 10.6 192.4 10.7C192.5 10.8 192.5 10.8 192.5 10.9C192.5 11.4 192.5 11.7 192.5 12.2C192.5 12.4 192.5 12.6 192.6 12.8C192.7 12.9 192.8 12.9 192.9 12.8C193 12.7 192.9 12.5 192.9 12.3C192.9 11.8 192.9 11.4 193 10.9C193 10.8 193.1 10.8 193.1 10.8C193.3 10.7 193.4 11 193.5 11.2C193.5 12 193.6 12.9 193.6 13.7C193.5 14.2 193.6 14.5 193.3 14.9ZM196.4 15.4C196.2 15.5 195.9 15.4 195.8 15.6C195.7 15.7 195.7 15.8 195.7 16C195.6 17.2 195.7 19.9 195.9 21.1C196 21.4 196 21.7 195.9 21.8C195.8 22 195.3 22.2 195.1 21.8C194.9 19.1 194.9 15.4 194.8 12.8C194.8 12.2 194.7 11.6 194.8 11.1C194.8 11 194.8 10.9 194.9 10.9C195 10.9 195.1 10.9 195.2 11C195.7 11.4 195.9 12 196.1 12.6C196.3 13.3 196.5 14.1 196.7 14.8C196.7 14.8 196.7 15.2 196.4 15.4Z" fill="#337085"/>
<path d="M165.2 0.899994L150.9 15.2L165.2 29.5L179.5 15.2L165.2 0.899994ZM164.8 14.9C164.7 15.1 164.5 15.2 164.3 15.4C164 15.8 164.1 16.2 164.1 16.6C164.2 17.6 164.2 20.2 164.2 21.2C164.2 21.5 164.2 21.8 163.9 21.8C163.7 21.9 163.5 21.8 163.4 21.6C163.3 21.4 163.3 21.2 163.3 21C163.2 19.7 163.1 16.6 163.2 15.1C162.9 15.1 162.6 14.9 162.6 14.7C162.4 14.4 162.4 14.1 162.3 13.9C162.2 13 162.2 12 162.4 11C162.4 10.9 162.5 10.7 162.6 10.7C162.7 10.7 162.7 10.7 162.8 10.7C162.9 10.7 162.9 10.8 162.9 10.9C162.9 11.4 162.9 11.9 162.9 12.4C162.9 12.6 163 12.9 163.2 12.8C163.3 12.8 163.3 12.7 163.3 12.6C163.3 12.1 163.3 11.7 163.4 11.2C163.4 11 163.4 10.8 163.6 10.7C163.7 10.6 163.8 10.6 163.9 10.7C164 11 164 11 164 11C164 11.5 164 11.8 164 12.3C164 12.5 164 12.7 164.1 12.9C164.2 13 164.3 13 164.4 12.9C164.5 12.8 164.4 12.6 164.4 12.4C164.4 11.9 164.4 11.5 164.5 11C164.5 10.9 164.6 10.9 164.6 10.9C164.8 10.8 164.9 11.1 165 11.3C165 12.1 165.1 13 165.1 13.8C165 14.2 165 14.5 164.8 14.9ZM167.9 15.4C167.7 15.5 167.4 15.4 167.3 15.6C167.2 15.7 167.2 15.8 167.2 16C167.1 17.2 167.2 19.9 167.4 21.1C167.5 21.4 167.5 21.7 167.4 21.8C167.3 22.1 166.8 22.2 166.6 21.8C166.4 19.1 166.4 15.4 166.3 12.8C166.3 12.2 166.2 11.6 166.3 11.1C166.3 11 166.3 10.9 166.4 10.9C166.5 10.9 166.6 10.9 166.7 11C167.2 11.4 167.4 12 167.6 12.6C167.8 13.3 168 14.1 168.2 14.8C168 14.8 168.1 15.2 167.9 15.4Z" fill="#337085"/>
<path d="M165.2 -27.6L150.9 -13.3L165.2 0.999994L179.5 -13.3L165.2 -27.6ZM164.8 -13.7C164.7 -13.5 164.5 -13.4 164.3 -13.2C164 -12.8 164.1 -12.4 164.1 -12C164.2 -11 164.2 -8.40001 164.2 -7.40001C164.2 -7.10001 164.2 -6.80001 163.9 -6.80001C163.7 -6.70001 163.5 -6.8 163.4 -7.00001C163.3 -7.20001 163.3 -7.40001 163.3 -7.60001C163.2 -8.90001 163.1 -12 163.2 -13.5C162.9 -13.5 162.6 -13.7 162.6 -13.9C162.4 -14.2 162.4 -14.5 162.3 -14.7C162.2 -15.6 162.2 -16.6 162.4 -17.6C162.4 -17.7 162.5 -17.9 162.6 -17.9C162.7 -17.9 162.7 -17.9 162.8 -17.9C162.9 -17.9 162.9 -17.8 162.9 -17.7C162.9 -17.2 162.9 -16.7 162.9 -16.2C162.9 -16 163 -15.7 163.2 -15.8C163.3 -15.8 163.3 -15.9 163.3 -16C163.3 -16.5 163.3 -16.9 163.4 -17.4C163.4 -17.6 163.4 -17.8 163.6 -17.9C163.7 -18 163.8 -18 163.9 -17.9C164 -17.8 164 -17.8 164 -17.7C164 -17.2 164 -16.9 164 -16.4C164 -16.2 164 -16 164.1 -15.8C164.2 -15.7 164.3 -15.7 164.4 -15.8C164.5 -15.9 164.4 -16.1 164.4 -16.3C164.4 -16.8 164.4 -17.2 164.5 -17.7C164.5 -17.8 164.6 -17.8 164.6 -17.8C164.8 -17.9 164.9 -17.6 165 -17.4C165 -16.6 165.1 -15.7 165.1 -14.9C165 -14.4 165 -14 164.8 -13.7ZM167.9 -13.3C167.7 -13.2 167.4 -13.3 167.3 -13.1C167.2 -13 167.2 -12.9 167.2 -12.7C167.1 -11.5 167.2 -8.80001 167.4 -7.60001C167.5 -7.30001 167.5 -7.00001 167.4 -6.90001C167.3 -6.60001 166.8 -6.50001 166.6 -6.90001C166.4 -9.60001 166.4 -13.3 166.3 -15.9C166.3 -16.5 166.2 -17.1 166.3 -17.6C166.3 -17.7 166.3 -17.8 166.4 -17.8C166.5 -17.8 166.6 -17.8 166.7 -17.7C167.2 -17.3 167.4 -16.7 167.6 -16.1C167.8 -15.4 168 -14.6 168.2 -13.9C168 -13.7 168.1 -13.3 167.9 -13.3Z" fill="#337085"/>
<path d="M193.7 -27.6L179.4 -13.3L193.7 0.999994L208 -13.3L193.7 -27.6ZM193.3 -13.7C193.2 -13.5 193 -13.4 192.8 -13.2C192.5 -12.8 192.6 -12.4 192.6 -12C192.7 -11 192.7 -8.40001 192.7 -7.40001C192.7 -7.10001 192.7 -6.80001 192.4 -6.80001C192.2 -6.70001 192 -6.8 191.9 -7.00001C192 -7.20001 192 -7.40001 192 -7.50001C191.9 -8.8 191.8 -11.9 191.9 -13.4C191.6 -13.4 191.3 -13.6 191.3 -13.8C191.1 -14.1 191.1 -14.4 191 -14.6C190.9 -15.5 190.9 -16.5 191.1 -17.5C191.1 -17.6 191.2 -17.8 191.3 -17.8C191.4 -17.8 191.4 -17.8 191.5 -17.8C191.6 -17.8 191.6 -17.7 191.6 -17.6C191.6 -17.1 191.6 -16.6 191.6 -16.1C191.6 -15.9 191.7 -15.6 191.9 -15.7C192 -15.7 192 -15.8 192 -15.9C192 -16.4 192 -16.8 192.1 -17.3C192.1 -17.5 192.1 -17.7 192.3 -17.8C192.4 -17.9 192.5 -17.9 192.6 -17.8C192.7 -17.7 192.7 -17.7 192.7 -17.6C192.7 -17.1 192.7 -16.8 192.7 -16.3C192.7 -16.1 192.7 -15.9 192.8 -15.7C192.9 -15.6 193 -15.6 193.1 -15.7C193.2 -15.8 193.1 -16 193.1 -16.2C193.1 -16.7 193.1 -17.1 193.2 -17.6C193.2 -17.7 193.3 -17.7 193.3 -17.7C193.5 -17.8 193.6 -17.5 193.7 -17.3C193.7 -16.5 193.8 -15.6 193.8 -14.8C193.5 -14.4 193.6 -14 193.3 -13.7ZM196.4 -13.3C196.2 -13.2 195.9 -13.3 195.8 -13.1C195.7 -13 195.7 -12.9 195.7 -12.7C195.6 -11.5 195.7 -8.80001 195.9 -7.60001C196 -7.30001 196 -7.00001 195.9 -6.90001C195.8 -6.7 195.3 -6.50001 195.1 -6.90001C194.9 -9.60001 194.9 -13.3 194.8 -15.9C194.8 -16.5 194.7 -17.1 194.8 -17.6C194.8 -17.7 194.8 -17.8 194.9 -17.8C195 -17.8 195.1 -17.8 195.2 -17.7C195.7 -17.3 195.9 -16.7 196.1 -16.1C196.3 -15.4 196.5 -14.6 196.7 -13.9C196.7 -13.7 196.7 -13.3 196.4 -13.3Z" fill="#337085"/>
<path d="M283.6 -28.5H226.5V28.6H283.6V-28.5Z" fill="#F0968E"/>
<path d="M269.3 0L255 14.3L269.3 28.6L283.6 14.3L269.3 0ZM268.9 14C268.8 14.2 268.6 14.3 268.4 14.5C268.1 14.9 268.2 15.3 268.2 15.7C268.3 16.7 268.3 19.3 268.3 20.3C268.3 20.6 268.3 20.9 268 20.9C267.8 21 267.6 20.9 267.5 20.7C267.4 20.5 267.4 20.3 267.4 20.1C267.3 18.8 267.2 15.7 267.3 14.2C267 14.2 266.7 14 266.7 13.8C266.5 13.5 266.5 13.2 266.4 13C266.3 12.1 266.3 11.1 266.5 10.1C266.5 10 266.6 9.8 266.7 9.8C266.8 9.8 266.8 9.8 266.9 9.8C267 9.8 267 9.9 267 10C267 10.5 267 11 267 11.5C267 11.7 267.1 12 267.3 11.9C267.4 11.9 267.4 11.8 267.4 11.7C267.4 11.2 267.4 10.8 267.5 10.3C267.5 10.1 267.5 9.9 267.7 9.8C267.8 9.7 267.9 9.7 268 9.8C268.1 9.9 268.1 9.9 268.1 10C268.1 10.5 268.1 10.8 268.1 11.3C268.1 11.5 268.1 11.7 268.2 11.9C268.3 12 268.4 12 268.5 11.9C268.6 11.8 268.5 11.6 268.5 11.4C268.5 10.9 268.5 10.5 268.6 10C268.6 9.9 268.7 9.9 268.7 9.9C268.9 9.8 269 10.1 269.1 10.3C269.1 11.1 269.2 12 269.2 12.8C269.2 13.3 269.2 13.6 268.9 14ZM271.9 14.4C271.7 14.5 271.4 14.4 271.3 14.6C271.2 14.7 271.2 14.8 271.2 15C271.1 16.2 271.2 18.9 271.4 20.1C271.5 20.4 271.5 20.7 271.4 20.8C271.3 21 270.8 21.2 270.6 20.8C270.4 18.1 270.4 14.4 270.3 11.8C270.3 11.2 270.2 10.6 270.3 10.1C270.3 10 270.3 9.9 270.4 9.9C270.5 9.9 270.6 9.9 270.7 10C271.2 10.4 271.4 11 271.6 11.6C271.8 12.3 272 13.1 272.2 13.8C272.2 13.9 272.2 14.3 271.9 14.4Z" fill="#337085"/>
<path d="M240.7 0L226.4 14.3L240.7 28.6L255 14.3L240.7 0ZM240.4 14C240.3 14.2 240.1 14.3 239.9 14.5C239.6 14.9 239.7 15.3 239.7 15.7C239.8 16.7 239.8 19.3 239.8 20.3C239.8 20.6 239.8 20.9 239.5 20.9C239.3 21 239.1 20.9 239 20.7C238.9 20.5 238.9 20.3 238.9 20.1C238.8 18.8 238.7 15.7 238.8 14.2C238.5 14.2 238.2 14 238.2 13.8C238 13.5 238 13.2 237.9 13C237.8 12.1 237.8 11.1 238 10.1C238 10 238.1 9.8 238.2 9.8C238.3 9.8 238.3 9.8 238.4 9.8C238.5 9.8 238.5 9.9 238.5 10C238.5 10.5 238.5 11 238.5 11.5C238.5 11.7 238.6 12 238.8 11.9C238.9 11.9 238.9 11.8 238.9 11.7C238.9 11.2 238.9 10.8 239 10.3C239 10.1 239 9.9 239.2 9.8C239.3 9.7 239.4 9.7 239.5 9.8C239.6 9.9 239.6 9.9 239.6 10C239.6 10.5 239.6 10.8 239.6 11.3C239.6 11.5 239.6 11.7 239.7 11.9C239.8 12 239.9 12 240 11.9C240.1 11.8 240 11.6 240 11.4C240 10.9 240 10.5 240.1 10C240.1 9.9 240.2 9.9 240.2 9.9C240.4 9.8 240.5 10.1 240.6 10.3C240.6 11.1 240.7 12 240.7 12.8C240.6 13.3 240.6 13.6 240.4 14ZM243.4 14.4C243.2 14.5 242.9 14.4 242.8 14.6C242.7 14.7 242.7 14.8 242.7 15C242.6 16.2 242.7 18.9 242.9 20.1C243 20.4 243 20.7 242.9 20.8C242.8 21 242.3 21.2 242.1 20.8C241.9 18.1 241.9 14.4 241.8 11.8C241.8 11.2 241.7 10.6 241.8 10.1C241.8 10 241.8 9.9 241.9 9.9C242 9.9 242.1 9.9 242.2 10C242.7 10.4 242.9 11 243.1 11.6C243.3 12.3 243.5 13.1 243.7 13.8C243.6 13.9 243.7 14.3 243.4 14.4Z" fill="#337085"/>
<path d="M359.2 -28.5H302.1V28.6H359.2V-28.5Z" fill="#F6BBB5"/>
<path d="M344.8 0L330.5 14.3L344.8 28.6L359.1 14.3L344.8 0ZM344.5 14C344.4 14.2 344.2 14.3 344 14.5C343.7 14.9 343.8 15.3 343.8 15.7C343.9 16.7 343.9 19.3 343.9 20.3C343.9 20.6 343.9 20.9 343.6 20.9C343.4 21 343.2 20.9 343.1 20.7C343 20.5 343 20.3 343 20.1C342.9 18.8 342.8 15.7 342.9 14.2C342.6 14.2 342.3 14 342.3 13.8C342.1 13.5 342.1 13.2 342 13C341.9 12.1 341.9 11.1 342.1 10.1C342.1 10 342.2 9.8 342.3 9.8C342.4 9.8 342.4 9.8 342.5 9.8C342.6 9.8 342.6 9.9 342.6 10C342.6 10.5 342.6 11 342.6 11.5C342.6 11.7 342.7 12 342.9 11.9C343 11.9 343 11.8 343 11.7C343 11.2 343 10.8 343.1 10.3C343.1 10.1 343.1 9.9 343.3 9.8C343.4 9.7 343.5 9.7 343.6 9.8C343.7 9.9 343.7 9.9 343.7 10C343.7 10.5 343.7 10.8 343.7 11.3C343.7 11.5 343.7 11.7 343.8 11.9C343.9 12 344 12 344.1 11.9C344.2 11.8 344.1 11.6 344.1 11.4C344.1 10.9 344.1 10.5 344.2 10C344.2 9.9 344.3 9.9 344.3 9.9C344.5 9.8 344.6 10.1 344.7 10.3C344.7 11.1 344.8 12 344.8 12.8C344.7 13.3 344.7 13.6 344.5 14ZM347.5 14.4C347.3 14.5 347 14.4 346.9 14.6C346.8 14.7 346.8 14.8 346.8 15C346.7 16.2 346.8 18.9 347 20.1C347.1 20.4 347.1 20.7 347 20.8C346.9 21.1 346.4 21.2 346.2 20.8C346 18.1 346 14.4 345.9 11.8C345.9 11.2 345.8 10.6 345.9 10.1C345.9 10 345.9 9.9 346 9.9C346.1 9.9 346.2 9.9 346.3 10C346.8 10.4 347 11 347.2 11.6C347.4 12.3 347.6 13.1 347.8 13.8C347.8 13.9 347.8 14.3 347.5 14.4Z" fill="#337085"/>
<path d="M316.3 0L302 14.3L316.3 28.6L330.6 14.3L316.3 0ZM315.9 14C315.8 14.2 315.6 14.3 315.4 14.5C315.1 14.9 315.2 15.3 315.2 15.7C315.3 16.7 315.3 19.3 315.3 20.3C315.3 20.6 315.3 20.9 315 20.9C314.8 21 314.6 20.9 314.5 20.7C314.4 20.5 314.4 20.3 314.4 20.1C314.3 18.8 314.2 15.7 314.3 14.2C314 14.2 313.7 14 313.7 13.8C313.5 13.5 313.5 13.2 313.4 13C313.3 12.1 313.3 11.1 313.5 10.1C313.5 10 313.6 9.8 313.7 9.8C313.8 9.8 313.8 9.8 313.9 9.8C314 9.8 314 9.9 314 10C314 10.5 314 11 314 11.5C314 11.7 314.1 12 314.3 11.9C314.4 11.9 314.4 11.8 314.4 11.7C314.4 11.2 314.4 10.8 314.5 10.3C314.5 10.1 314.5 9.9 314.7 9.8C314.8 9.7 314.9 9.7 315 9.8C315.1 9.9 315.1 9.9 315.1 10C315.1 10.5 315.1 10.8 315.1 11.3C315.1 11.5 315.1 11.7 315.2 11.9C315.3 12 315.4 12 315.5 11.9C315.6 11.8 315.5 11.6 315.5 11.4C315.5 10.9 315.5 10.5 315.6 10C315.6 9.9 315.7 9.9 315.7 9.9C315.9 9.8 316 10.1 316.1 10.3C316.1 11.1 316.2 12 316.2 12.8C316.1 13.3 316.1 13.6 315.9 14ZM319 14.4C318.8 14.5 318.5 14.4 318.4 14.6C318.3 14.7 318.3 14.8 318.3 15C318.2 16.2 318.3 18.9 318.5 20.1C318.6 20.4 318.6 20.7 318.5 20.8C318.4 21.1 317.9 21.2 317.7 20.8C317.5 18.1 317.5 14.4 317.4 11.8C317.4 11.2 317.3 10.6 317.4 10.1C317.4 10 317.4 9.9 317.5 9.9C317.6 9.9 317.7 9.9 317.8 10C318.3 10.4 318.5 11 318.7 11.6C318.9 12.3 319.1 13.1 319.3 13.8C319.2 13.9 319.2 14.3 319 14.4Z" fill="#337085"/>
<path d="M132.5 -27.5H75.4V29.6H132.5V-27.5Z" fill="#F0968E"/>
<path d="M118.2 0.899994L103.9 15.2L118.2 29.5L132.5 15.2L118.2 0.899994ZM117.8 14.9C117.7 15.1 117.5 15.2 117.3 15.4C117 15.8 117.1 16.2 117.1 16.6C117.2 17.6 117.2 20.2 117.2 21.2C117.2 21.5 117.2 21.8 116.9 21.8C116.7 21.9 116.5 21.8 116.4 21.6C116.3 21.4 116.3 21.2 116.3 21C116.2 19.7 116.1 16.6 116.2 15.1C115.9 15.1 115.6 14.9 115.6 14.7C115.4 14.4 115.4 14.1 115.3 13.9C115.2 13 115.2 12 115.4 11C115.4 10.9 115.5 10.7 115.6 10.7C115.7 10.7 115.7 10.7 115.8 10.7C115.9 10.7 115.9 10.8 115.9 10.9C115.9 11.4 115.9 11.9 115.9 12.4C115.9 12.6 116 12.9 116.2 12.8C116.3 12.8 116.3 12.7 116.3 12.6C116.3 12.1 116.3 11.7 116.4 11.2C116.4 11 116.4 10.8 116.6 10.7C116.7 10.6 116.8 10.6 116.9 10.7C117 11 117 11 117 11C117 11.5 117 11.8 117 12.3C117 12.5 117 12.7 117.1 12.9C117.2 13 117.3 13 117.4 12.9C117.5 12.8 117.4 12.6 117.4 12.4C117.4 11.9 117.4 11.5 117.5 11C117.5 10.9 117.6 10.9 117.6 10.9C117.8 10.8 117.9 11.1 118 11.3C118 12.1 118.1 13 118.1 13.8C118 14.2 118 14.5 117.8 14.9ZM120.8 15.4C120.6 15.5 120.3 15.4 120.2 15.6C120.1 15.7 120.1 15.8 120.1 16C120 17.2 120.1 19.9 120.3 21.1C120.4 21.4 120.4 21.7 120.3 21.8C120.2 22.1 119.7 22.2 119.5 21.8C119.3 19.1 119.3 15.4 119.2 12.8C119.2 12.2 119.1 11.6 119.2 11.1C119.2 11 119.2 10.9 119.3 10.9C119.4 10.9 119.5 10.9 119.6 11C120.1 11.4 120.3 12 120.5 12.6C120.7 13.3 120.9 14.1 121.1 14.8C121 14.8 121.1 15.2 120.8 15.4Z" fill="#337085"/>
<path d="M89.6 0.899994L75.4 15.2L89.7 29.5L104 15.2L89.6 0.899994ZM89.3 14.9C89.2 15.1 89 15.2 88.8 15.4C88.5 15.8 88.6 16.2 88.6 16.6C88.7 17.6 88.7 20.2 88.7 21.2C88.7 21.5 88.7 21.8 88.4 21.8C88.2 21.9 88 21.8 87.9 21.6C87.8 21.4 87.8 21.2 87.8 21C87.7 19.7 87.6 16.6 87.7 15.1C87.4 15.1 87.1 14.9 87.1 14.7C87 14.5 87 14.3 86.9 14C86.8 13.1 86.8 12.1 87 11.1C87 11 87.1 10.8 87.2 10.8C87.3 10.8 87.3 10.8 87.4 10.8C87.5 10.8 87.5 10.9 87.5 11C87.5 11.5 87.5 12 87.5 12.5C87.5 12.7 87.6 13 87.8 12.9C87.9 12.9 87.9 12.8 87.9 12.7C87.9 12.2 87.9 11.8 88 11.3C88 11.1 88 10.9 88.2 10.8C88.3 10.7 88.4 10.7 88.5 10.8C88.6 10.9 88.6 10.9 88.6 11C88.6 11.5 88.6 11.8 88.6 12.3C88.6 12.5 88.6 12.7 88.7 12.9C88.8 13 88.9 13 89 12.9C89.1 12.8 89 12.6 89 12.4C89 11.9 89 11.5 89.1 11C88.9 11 89 11 89 11C89.2 10.9 89.3 11.2 89.4 11.4C89.4 12.2 89.5 13.1 89.5 13.9C89.5 14.2 89.5 14.5 89.3 14.9ZM92.3 15.4C92.1 15.5 91.8 15.4 91.7 15.6C91.6 15.7 91.6 15.8 91.6 16C91.5 17.2 91.6 19.9 91.8 21.1C91.9 21.4 91.9 21.7 91.8 21.8C91.7 22.1 91.2 22.2 91 21.8C90.8 19.1 90.8 15.4 90.7 12.8C90.7 12.2 90.6 11.6 90.7 11.1C90.7 11 90.7 10.9 90.8 10.9C90.9 10.9 91 10.9 91.1 11C91.6 11.4 91.8 12 92 12.6C92.2 13.3 92.4 14.1 92.6 14.8C92.5 14.8 92.5 15.2 92.3 15.4Z" fill="#337085"/>
<path d="M89.6 -27.6L75.4 -13.3L89.6 0.899994L103.9 -13.4L89.6 -27.6ZM89.3 -13.7C89.2 -13.5 89 -13.4 88.8 -13.2C88.5 -12.8 88.6 -12.4 88.6 -12C88.7 -11 88.7 -8.40001 88.7 -7.40001C88.7 -7.10001 88.7 -6.80001 88.4 -6.80001C88.2 -6.70001 88 -6.8 87.9 -7.00001C87.8 -7.20001 87.8 -7.40001 87.8 -7.60001C87.7 -8.90001 87.6 -12 87.7 -13.5C87.4 -13.5 87.1 -13.7 87.1 -13.9C86.9 -14.2 86.9 -14.5 86.8 -14.7C86.7 -15.6 86.7 -16.6 86.9 -17.6C86.9 -17.7 87 -17.9 87.1 -17.9C87.2 -17.9 87.2 -17.9 87.3 -17.9C87.4 -17.9 87.4 -17.8 87.4 -17.7C87.4 -17.2 87.4 -16.7 87.4 -16.2C87.4 -16 87.5 -15.7 87.7 -15.8C87.8 -15.8 87.8 -15.9 87.8 -16C87.8 -16.5 87.8 -16.9 87.9 -17.4C87.9 -17.6 87.9 -17.8 88.1 -17.9C88.2 -18 88.3 -18 88.4 -17.9C88.5 -17.8 88.5 -17.8 88.5 -17.7C88.5 -17.2 88.5 -16.9 88.5 -16.4C88.5 -16.2 88.5 -16 88.6 -15.8C88.7 -15.7 88.8 -15.7 88.9 -15.8C89 -15.9 88.9 -16.1 88.9 -16.3C88.9 -16.8 88.9 -17.2 89 -17.7C89 -17.8 89.1 -17.8 89.1 -17.8C89.3 -17.9 89.4 -17.6 89.5 -17.4C89.5 -16.6 89.6 -15.7 89.6 -14.9C89.5 -14.4 89.5 -14 89.3 -13.7ZM92.3 -13.3C92.1 -13.2 91.8 -13.3 91.7 -13.1C91.6 -13 91.6 -12.9 91.6 -12.7C91.5 -11.5 91.6 -8.80001 91.8 -7.60001C91.9 -7.30001 91.9 -7.00001 91.8 -6.90001C91.7 -6.60001 91.2 -6.50001 91 -6.90001C90.8 -9.60001 90.8 -13.3 90.7 -15.9C90.7 -16.5 90.6 -17.1 90.7 -17.6C90.7 -17.7 90.7 -17.8 90.8 -17.8C90.9 -17.8 91 -17.8 91.1 -17.7C91.6 -17.3 91.8 -16.7 92 -16.1C92.2 -15.4 92.4 -14.6 92.6 -13.9C92.5 -13.7 92.5 -13.3 92.3 -13.3Z" fill="#337085"/>
<path d="M118.2 -27.6L103.9 -13.3L118.2 0.999994L132.5 -13.3L118.2 -27.6ZM117.8 -13.7C117.7 -13.5 117.5 -13.4 117.3 -13.2C117 -12.8 117.1 -12.4 117.1 -12C117.2 -11 117.2 -8.40001 117.2 -7.40001C117.2 -7.10001 117.2 -6.80001 116.9 -6.80001C116.7 -6.70001 116.5 -6.8 116.4 -7.00001C116.3 -7.20001 116.3 -7.40001 116.3 -7.60001C116.2 -8.90001 116.1 -12 116.2 -13.5C115.9 -13.5 115.6 -13.7 115.6 -13.9C115.4 -14.2 115.4 -14.5 115.3 -14.7C115.2 -15.6 115.2 -16.6 115.4 -17.6C115.4 -17.7 115.5 -17.9 115.6 -17.9C115.7 -17.9 115.7 -17.9 115.8 -17.9C115.9 -17.9 115.9 -17.8 115.9 -17.7C115.9 -17.2 115.9 -16.7 115.9 -16.2C115.9 -16 116 -15.7 116.2 -15.8C116.3 -15.8 116.3 -15.9 116.3 -16C116.3 -16.5 116.3 -16.9 116.4 -17.4C116.4 -17.6 116.4 -17.8 116.6 -17.9C116.7 -18 116.8 -18 116.9 -17.9C117 -17.8 117 -17.8 117 -17.7C117 -17.2 117 -16.9 117 -16.4C117 -16.2 117 -16 117.1 -15.8C117.2 -15.7 117.3 -15.7 117.4 -15.8C117.5 -15.9 117.4 -16.1 117.4 -16.3C117.4 -16.8 117.4 -17.2 117.5 -17.7C117.5 -17.8 117.6 -17.8 117.6 -17.8C117.8 -17.9 117.9 -17.6 118 -17.4C118 -16.6 118.1 -15.7 118.1 -14.9C118 -14.4 118 -14 117.8 -13.7ZM120.8 -13.3C120.6 -13.2 120.3 -13.3 120.2 -13.1C120.1 -13 120.1 -12.9 120.1 -12.7C120 -11.5 120.1 -8.80001 120.3 -7.60001C120.4 -7.30001 120.4 -7.00001 120.3 -6.90001C120.2 -6.60001 119.7 -6.50001 119.5 -6.90001C119.3 -9.60001 119.3 -13.3 119.2 -15.9C119.2 -16.5 119.1 -17.1 119.2 -17.6C119.2 -17.7 119.2 -17.8 119.3 -17.8C119.4 -17.8 119.5 -17.8 119.6 -17.7C120.1 -17.3 120.3 -16.7 120.5 -16.1C120.7 -15.4 120.9 -14.6 121.1 -13.9C121 -13.7 121.1 -13.3 120.8 -13.3Z" fill="#337085"/>
<path d="M387.5 121.6H330.4V178.7H387.5V121.6Z" fill="#F6BBB5"/>
<path d="M344.6 150.1L330.3 164.4L344.6 178.7L358.9 164.4L344.6 150.1ZM344.3 164.1C344.2 164.3 344 164.4 343.8 164.6C343.5 165 343.6 165.4 343.6 165.8C343.7 166.8 343.7 169.4 343.7 170.4C343.7 170.7 343.7 171 343.4 171C343.2 171.1 343 171 342.9 170.8C342.8 170.6 342.8 170.4 342.8 170.2C342.7 168.9 342.6 165.8 342.7 164.3C342.4 164.3 342.1 164.1 342.1 163.9C341.9 163.6 341.9 163.3 341.8 163.1C341.7 162.2 341.7 161.2 341.9 160.2C341.9 160.1 342 159.9 342.1 159.9C342.2 159.9 342.2 159.9 342.3 159.9C342.4 159.9 342.4 160 342.4 160.1C342.4 160.6 342.4 161.1 342.4 161.6C342.4 161.8 342.5 162.1 342.7 162C342.8 162 342.8 161.9 342.8 161.8C342.8 161.3 342.8 160.9 342.9 160.4C342.9 160.2 342.9 160 343.1 159.9C343.2 159.8 343.3 159.8 343.4 159.9C343.5 160 343.5 160 343.5 160.1C343.5 160.6 343.5 160.9 343.5 161.4C343.5 161.6 343.5 161.8 343.6 162C343.7 162.1 343.8 162.1 343.9 162C344 161.9 343.9 161.7 343.9 161.5C343.9 161 343.9 160.6 344 160.1C344 160 344.1 160 344.1 160C344.3 159.9 344.4 160.2 344.5 160.4C344.5 161.2 344.6 162.1 344.6 162.9C344.5 163.3 344.6 163.8 344.3 164.1ZM347.3 164.5C347.1 164.6 346.8 164.5 346.7 164.7C346.6 164.8 346.6 164.9 346.6 165.1C346.5 166.3 346.6 169 346.8 170.2C346.9 170.5 346.9 170.8 346.8 170.9C346.7 171.1 346.2 171.3 346 170.9C345.8 168.2 345.8 164.5 345.7 161.9C345.7 161.3 345.6 160.7 345.7 160.2C345.7 160.1 345.7 160 345.8 160C345.9 160 346 160 346.1 160.1C346.6 160.5 346.8 161.1 347 161.7C347.2 162.4 347.4 163.2 347.6 163.9C347.6 164.1 347.6 164.5 347.3 164.5Z" fill="#337085"/>
<path d="M344.6 121.6L330.3 135.9L344.6 150.2L358.9 135.9L344.6 121.6ZM344.3 135.6C344.2 135.8 344 135.9 343.8 136.1C343.5 136.5 343.6 136.9 343.6 137.3C343.7 138.3 343.7 140.9 343.7 141.9C343.7 142.2 343.7 142.5 343.4 142.5C343.2 142.6 343 142.5 342.9 142.3C342.8 142.1 342.8 141.9 342.8 141.7C342.7 140.4 342.6 137.3 342.7 135.8C342.4 135.8 342.1 135.6 342.1 135.4C341.9 135.1 341.9 134.8 341.8 134.6C341.7 133.7 341.7 132.7 341.9 131.7C341.9 131.6 342 131.4 342.1 131.4C342.2 131.4 342.2 131.4 342.3 131.4C342.4 131.4 342.4 131.5 342.4 131.6C342.4 132.1 342.4 132.6 342.4 133.1C342.4 133.3 342.5 133.6 342.7 133.5C342.8 133.5 342.8 133.4 342.8 133.3C342.8 132.8 342.8 132.4 342.9 131.9C342.9 131.7 342.9 131.5 343.1 131.4C343.2 131.3 343.3 131.3 343.4 131.4C343.5 131.5 343.5 131.5 343.5 131.6C343.5 132.1 343.5 132.4 343.5 132.9C343.5 133.1 343.5 133.3 343.6 133.5C343.7 133.6 343.8 133.6 343.9 133.5C344 133.4 343.9 133.2 343.9 133C343.9 132.5 343.9 132.1 344 131.6C344 131.5 344.1 131.5 344.1 131.5C344.3 131.4 344.4 131.7 344.5 131.9C344.5 132.7 344.6 133.6 344.6 134.4C344.5 134.8 344.6 135.2 344.3 135.6ZM347.3 136C347.1 136.1 346.8 136 346.7 136.2C346.6 136.3 346.6 136.4 346.6 136.6C346.5 137.8 346.6 140.5 346.8 141.7C346.9 142 346.9 142.3 346.8 142.4C346.7 142.6 346.2 142.8 346 142.4C345.8 139.7 345.8 136 345.7 133.4C345.7 132.8 345.6 132.2 345.7 131.7C345.7 131.6 345.7 131.5 345.8 131.5C345.9 131.5 346 131.5 346.1 131.6C346.6 132 346.8 132.6 347 133.2C347.2 133.9 347.4 134.7 347.6 135.4C347.6 135.6 347.6 135.8 347.3 136Z" fill="#337085"/>
<path d="M387.5 196.4H330.4V253.5H387.5V196.4Z" fill="#F0968E"/>
<path d="M344.6 224.9L330.3 239.2L344.6 253.5L358.9 239.2L344.6 224.9ZM344.3 238.8C344.2 239 344 239.1 343.8 239.3C343.5 239.7 343.6 240.1 343.6 240.5C343.7 241.5 343.7 244.1 343.7 245.1C343.7 245.4 343.7 245.7 343.4 245.7C343.2 245.8 343 245.7 342.9 245.5C342.8 245.3 342.8 245.1 342.8 244.9C342.7 243.6 342.6 240.5 342.7 239C342.4 239 342.1 238.8 342.1 238.6C341.9 238.3 341.9 238 341.8 237.8C341.7 236.9 341.7 235.9 341.9 234.9C341.9 234.8 342 234.6 342.1 234.6C342.2 234.6 342.2 234.6 342.3 234.6C342.4 234.6 342.4 234.7 342.4 234.8C342.4 235.3 342.4 235.8 342.4 236.3C342.4 236.5 342.5 236.8 342.7 236.7C342.8 236.7 342.8 236.6 342.8 236.5C342.8 236 342.8 235.6 342.9 235.1C342.9 234.9 342.9 234.7 343.1 234.6C343.2 234.5 343.3 234.5 343.4 234.6C343.5 234.7 343.5 234.7 343.5 234.8C343.5 235.3 343.5 235.6 343.5 236.1C343.5 236.3 343.5 236.5 343.6 236.7C343.7 236.8 343.8 236.8 343.9 236.7C344 236.6 343.9 236.4 343.9 236.2C343.9 235.7 343.9 235.3 344 234.8C344 234.7 344.1 234.7 344.1 234.7C344.3 234.6 344.4 234.9 344.5 235.1C344.5 235.9 344.6 236.8 344.6 237.6C344.5 238.1 344.6 238.5 344.3 238.8ZM347.3 239.3C347.1 239.4 346.8 239.3 346.7 239.5C346.6 239.6 346.6 239.7 346.6 239.9C346.5 241.1 346.6 243.8 346.8 245C346.9 245.3 346.9 245.6 346.8 245.7C346.7 245.9 346.2 246.1 346 245.7C345.8 243 345.8 239.3 345.7 236.7C345.7 236.1 345.6 235.5 345.7 235C345.7 234.9 345.7 234.8 345.8 234.8C345.9 234.8 346 234.8 346.1 234.9C346.6 235.3 346.8 235.9 347 236.5C347.2 237.2 347.4 238 347.6 238.7C347.6 238.8 347.6 239.2 347.3 239.3Z" fill="#337085"/>
<path d="M344.6 196.3L330.3 210.6L344.6 224.9L358.9 210.6L344.6 196.3ZM344.3 210.3C344.2 210.5 344 210.6 343.8 210.8C343.5 211.2 343.6 211.6 343.6 212C343.7 213 343.7 215.6 343.7 216.6C343.7 216.9 343.7 217.2 343.4 217.2C343.2 217.3 343 217.2 342.9 217C342.8 216.8 342.8 216.6 342.8 216.4C342.7 215.1 342.6 212 342.7 210.5C342.4 210.5 342.1 210.3 342.1 210.1C341.9 209.8 341.9 209.5 341.8 209.3C341.7 208.4 341.7 207.4 341.9 206.4C341.9 206.3 342 206.1 342.1 206.1C342.2 206.1 342.2 206.1 342.3 206.1C342.4 206.1 342.4 206.2 342.4 206.3C342.4 206.8 342.4 207.3 342.4 207.8C342.4 208 342.5 208.3 342.7 208.2C342.8 208.2 342.8 208.1 342.8 208C342.8 207.5 342.8 207.1 342.9 206.6C342.9 206.4 342.9 206.2 343.1 206.1C343.2 206 343.3 206 343.4 206.1C343.5 206.2 343.5 206.2 343.5 206.3C343.5 206.8 343.5 207.1 343.5 207.6C343.5 207.8 343.5 208 343.6 208.2C343.7 208.3 343.8 208.3 343.9 208.2C344 208.1 343.9 207.9 343.9 207.7C343.9 207.2 343.9 206.8 344 206.3C344 206.2 344.1 206.2 344.1 206.2C344.3 206.1 344.4 206.4 344.5 206.6C344.5 207.4 344.6 208.3 344.6 209.1C344.5 209.5 344.6 210 344.3 210.3ZM347.3 210.7C347.1 210.8 346.8 210.7 346.7 210.9C346.6 211 346.6 211.1 346.6 211.3C346.5 212.5 346.6 215.2 346.8 216.4C346.9 216.7 346.9 217 346.8 217.1C346.7 217.3 346.2 217.5 346 217.1C345.8 214.4 345.8 210.7 345.7 208.1C345.7 207.5 345.6 206.9 345.7 206.4C345.7 206.3 345.7 206.2 345.8 206.2C345.9 206.2 346 206.2 346.1 206.3C346.6 206.7 346.8 207.3 347 207.9C347.2 208.6 347.4 209.4 347.6 210.1C347.6 210.3 347.6 210.6 347.3 210.7Z" fill="#337085"/>
<path d="M387.5 271.2H330.4V328.3H387.5V271.2Z" fill="#F6BBB5"/>
<path d="M344.6 299.6L330.3 313.9L344.6 328.2L358.9 313.9L344.6 299.6ZM344.3 313.6C344.2 313.8 344 313.9 343.8 314.1C343.5 314.5 343.6 314.9 343.6 315.3C343.7 316.3 343.7 318.9 343.7 319.9C343.7 320.2 343.7 320.5 343.4 320.5C343.2 320.6 343 320.5 342.9 320.3C342.8 320.1 342.8 319.9 342.8 319.7C342.7 318.4 342.6 315.3 342.7 313.8C342.4 313.8 342.1 313.6 342.1 313.4C341.9 313.1 341.9 312.8 341.8 312.6C341.7 311.7 341.7 310.7 341.9 309.7C341.9 309.6 342 309.4 342.1 309.4C342.2 309.4 342.2 309.4 342.3 309.4C342.4 309.4 342.4 309.5 342.4 309.6C342.4 310.1 342.4 310.6 342.4 311.1C342.4 311.3 342.5 311.6 342.7 311.5C342.8 311.5 342.8 311.4 342.8 311.3C342.8 310.8 342.8 310.4 342.9 309.9C342.9 309.7 342.9 309.5 343.1 309.4C343.2 309.3 343.3 309.3 343.4 309.4C343.5 309.5 343.5 309.5 343.5 309.6C343.5 310.1 343.5 310.4 343.5 310.9C343.5 311.1 343.5 311.3 343.6 311.5C343.7 311.6 343.8 311.6 343.9 311.5C344 311.4 343.9 311.2 343.9 311C343.9 310.5 343.9 310.1 344 309.6C344 309.5 344.1 309.5 344.1 309.5C344.3 309.4 344.4 309.7 344.5 309.9C344.5 310.7 344.6 311.6 344.6 312.4C344.5 312.9 344.5 313.3 344.3 313.6ZM347.3 314C347.1 314.1 346.8 314 346.7 314.2C346.6 314.3 346.6 314.4 346.6 314.6C346.5 315.8 346.6 318.5 346.8 319.7C346.9 320 346.9 320.3 346.8 320.4C346.7 320.7 346.2 320.8 346 320.4C345.8 317.7 345.8 314 345.7 311.4C345.7 310.8 345.6 310.2 345.7 309.7C345.7 309.6 345.7 309.5 345.8 309.5C345.9 309.5 346 309.5 346.1 309.6C346.6 310 346.8 310.6 347 311.2C347.2 311.9 347.4 312.7 347.6 313.4C347.5 313.5 347.6 313.9 347.3 314Z" fill="#337085"/>
<path d="M344.6 271L330.3 285.3L344.6 299.6L358.9 285.3L344.6 271ZM344.3 285C344.2 285.2 344 285.3 343.8 285.5C343.5 285.9 343.6 286.3 343.6 286.7C343.7 287.7 343.7 290.3 343.7 291.3C343.7 291.6 343.7 291.9 343.4 291.9C343.2 292 343 291.9 342.9 291.7C342.8 291.5 342.8 291.3 342.8 291.1C342.7 289.8 342.6 286.7 342.7 285.2C342.4 285.2 342.1 285 342.1 284.8C341.9 284.5 341.9 284.2 341.8 284C341.7 283.1 341.7 282.1 341.9 281.1C341.9 281 342 280.8 342.1 280.8C342.2 280.8 342.2 280.8 342.3 280.8C342.4 280.8 342.4 280.9 342.4 281C342.4 281.5 342.4 282 342.4 282.5C342.4 282.7 342.5 283 342.7 282.9C342.8 282.9 342.8 282.8 342.8 282.7C342.8 282.2 342.8 281.8 342.9 281.3C342.9 281.1 342.9 280.9 343.1 280.8C343.2 280.7 343.3 280.7 343.4 280.8C343.5 280.9 343.5 280.9 343.5 281C343.5 281.5 343.5 281.8 343.5 282.3C343.5 282.5 343.5 282.7 343.6 282.9C343.7 283 343.8 283 343.9 282.9C344 282.8 343.9 282.6 343.9 282.4C343.9 281.9 343.9 281.5 344 281C344 280.9 344.1 280.9 344.1 280.9C344.3 280.8 344.4 281.1 344.5 281.3C344.5 282.1 344.6 283 344.6 283.8C344.5 284.3 344.5 284.7 344.3 285ZM347.3 285.5C347.1 285.6 346.8 285.5 346.7 285.7C346.6 285.8 346.6 285.9 346.6 286.1C346.5 287.3 346.6 290 346.8 291.2C346.9 291.5 346.9 291.8 346.8 291.9C346.7 292.2 346.2 292.3 346 291.9C345.8 289.2 345.8 285.5 345.7 282.9C345.7 282.3 345.6 281.7 345.7 281.2C345.7 281.1 345.7 281 345.8 281C345.9 281 346 281 346.1 281.1C346.6 281.5 346.8 282.1 347 282.7C347.2 283.4 347.4 284.2 347.6 284.9C347.5 285 347.6 285.4 347.3 285.5Z" fill="#337085"/>
<path d="M387.6 46.9H330.5V104H387.6V46.9Z" fill="#F0968E"/>
<path d="M344.6 75.4L330.3 89.7L344.6 104L358.9 89.7L344.6 75.4ZM344.3 89.4C344.2 89.6 344 89.7 343.8 89.9C343.5 90.3 343.6 90.7 343.6 91.1C343.7 92.1 343.7 94.7 343.7 95.7C343.7 96 343.7 96.3 343.4 96.3C343.2 96.4 343 96.3 342.9 96.1C342.8 95.9 342.8 95.7 342.8 95.5C342.7 94.2 342.6 91.1 342.7 89.6C342.4 89.6 342.1 89.4 342.1 89.2C341.9 88.9 341.9 88.6 341.8 88.4C341.7 87.5 341.7 86.5 341.9 85.5C341.9 85.4 342 85.2 342.1 85.2C342.2 85.2 342.2 85.2 342.3 85.2C342.4 85.2 342.4 85.3 342.4 85.4C342.4 85.9 342.4 86.4 342.4 86.9C342.4 87.1 342.5 87.4 342.7 87.3C342.8 87.3 342.8 87.2 342.8 87.1C342.8 86.6 342.8 86.2 342.9 85.7C342.9 85.5 342.9 85.3 343.1 85.2C343.2 85.1 343.3 85.1 343.4 85.2C343.5 85.3 343.5 85.3 343.5 85.4C343.5 85.9 343.5 86.2 343.5 86.7C343.5 86.9 343.5 87.1 343.6 87.3C343.7 87.4 343.8 87.4 343.9 87.3C344 87.2 343.9 87 343.9 86.8C343.9 86.3 343.9 85.9 344 85.4C344 85.3 344.1 85.3 344.1 85.3C344.3 85.2 344.4 85.5 344.5 85.7C344.5 86.5 344.6 87.4 344.6 88.2C344.5 88.6 344.6 89 344.3 89.4ZM347.3 89.8C347.1 89.9 346.8 89.8 346.7 90C346.6 90.1 346.6 90.2 346.6 90.4C346.5 91.6 346.6 94.3 346.8 95.5C346.9 95.8 346.9 96.1 346.8 96.2C346.7 96.3 346.2 96.6 346 96.2C345.8 93.5 345.8 89.8 345.7 87.2C345.7 86.6 345.6 86 345.7 85.5C345.7 85.4 345.7 85.3 345.8 85.3C345.9 85.3 346 85.3 346.1 85.4C346.6 85.8 346.8 86.4 347 87C347.2 87.7 347.4 88.5 347.6 89.2C347.6 89.4 347.6 89.6 347.3 89.8Z" fill="#337085"/>
<path d="M344.6 46.8L330.3 61.1L344.6 75.4L358.9 61.1L344.6 46.8ZM344.3 60.8C344.2 61 344 61.1 343.8 61.3C343.5 61.7 343.6 62.1 343.6 62.5C343.7 63.5 343.7 66.1 343.7 67.1C343.7 67.4 343.7 67.7 343.4 67.7C343.2 67.8 343 67.7 342.9 67.5C342.8 67.3 342.8 67.1 342.8 66.9C342.7 65.6 342.6 62.5 342.7 61C342.4 61 342.1 60.8 342.1 60.6C341.9 60.3 341.9 60 341.8 59.8C341.7 58.9 341.7 57.9 341.9 56.9C341.9 56.8 342 56.6 342.1 56.6C342.2 56.6 342.2 56.6 342.3 56.6C342.4 56.6 342.4 56.7 342.4 56.8C342.4 57.3 342.4 57.8 342.4 58.3C342.4 58.5 342.5 58.8 342.7 58.7C342.8 58.7 342.8 58.6 342.8 58.5C342.8 58 342.8 57.6 342.9 57.1C342.9 56.9 342.9 56.7 343.1 56.6C343.2 56.5 343.3 56.5 343.4 56.6C343.5 56.7 343.5 56.7 343.5 56.8C343.5 57.3 343.5 57.6 343.5 58.1C343.5 58.3 343.5 58.5 343.6 58.7C343.7 58.8 343.8 58.8 343.9 58.7C344 58.6 343.9 58.4 343.9 58.2C343.9 57.7 343.9 57.3 344 56.8C344 56.7 344.1 56.7 344.1 56.7C344.3 56.6 344.4 56.9 344.5 57.1C344.5 57.9 344.6 58.8 344.6 59.6C344.5 60.1 344.6 60.5 344.3 60.8ZM347.3 61.2C347.1 61.3 346.8 61.2 346.7 61.4C346.6 61.5 346.6 61.6 346.6 61.8C346.5 63 346.6 65.7 346.8 66.9C346.9 67.2 346.9 67.5 346.8 67.6C346.7 67.8 346.2 68 346 67.6C345.8 64.9 345.8 61.2 345.7 58.6C345.7 58 345.6 57.4 345.7 56.9C345.7 56.8 345.7 56.7 345.8 56.7C345.9 56.7 346 56.7 346.1 56.8C346.6 57.2 346.8 57.8 347 58.4C347.2 59.1 347.4 59.9 347.6 60.6C347.6 60.7 347.6 61.1 347.3 61.2Z" fill="#337085"/>
<path d="M28.7 121.6H-28.4V178.7H28.7V121.6Z" fill="#F6BBB5"/>
<path d="M14.4 150.1L0.100037 164.4L14.4 178.7L28.7 164.4L14.4 150.1ZM14 164.1C13.9 164.3 13.7 164.4 13.5 164.6C13.2 165 13.3 165.4 13.3 165.8C13.4 166.8 13.4 169.4 13.4 170.4C13.4 170.7 13.4 171 13.1 171C12.9 171.1 12.7 171 12.6 170.8C12.5 170.6 12.5 170.4 12.5 170.2C12.4 168.9 12.3 165.8 12.4 164.3C12.1 164.3 11.8 164.1 11.8 163.9C11.6 163.6 11.6 163.3 11.5 163.1C11.4 162.2 11.4 161.2 11.6 160.2C11.6 160.1 11.7 159.9 11.8 159.9C11.9 159.9 11.9 159.9 12 159.9C12.1 159.9 12.1 160 12.1 160.1C12.1 160.6 12.1 161.1 12.1 161.6C12.1 161.8 12.2 162.1 12.4 162C12.5 162 12.5 161.9 12.5 161.8C12.5 161.3 12.5 160.9 12.6 160.4C12.6 160.2 12.6 160 12.8 159.9C12.9 159.8 13 159.8 13.1 159.9C13.2 160 13.2 160 13.2 160.1C13.2 160.6 13.2 160.9 13.2 161.4C13.2 161.6 13.2 161.8 13.3 162C13.4 162.1 13.5 162.1 13.6 162C13.7 161.9 13.6 161.7 13.6 161.5C13.6 161 13.6 160.6 13.7 160.1C13.7 160 13.8 160 13.8 160C14 159.9 14.1 160.2 14.2 160.4C14.2 161.2 14.3 162.1 14.3 162.9C14.2 163.3 14.2 163.7 14 164.1ZM16.9 164.5C16.7 164.6 16.4 164.5 16.3 164.7C16.2 164.8 16.2 164.9 16.2 165.1C16.1 166.3 16.2 169 16.4 170.2C16.5 170.5 16.5 170.8 16.4 170.9C16.3 171.2 15.8 171.3 15.6 170.9C15.4 168.2 15.4 164.5 15.3 161.9C15.3 161.3 15.2 160.7 15.3 160.2C15.3 160.1 15.3 160 15.4 160C15.5 160 15.6 160 15.7 160.1C16.2 160.5 16.4 161.1 16.6 161.7C16.8 162.4 17 163.2 17.2 163.9C17.2 164 17.2 164.4 16.9 164.5Z" fill="#337085"/>
<path d="M14.4 121.6L0.100037 135.8L14.4 150.1L28.7 135.8L14.4 121.6ZM14 135.5C13.9 135.7 13.7 135.8 13.5 136C13.2 136.4 13.3 136.8 13.3 137.2C13.4 138.2 13.4 140.8 13.4 141.8C13.4 142.1 13.4 142.4 13.1 142.4C12.9 142.5 12.7 142.4 12.6 142.2C12.5 142 12.5 141.8 12.5 141.6C12.4 140.3 12.3 137.2 12.4 135.7C12.1 135.7 11.8 135.5 11.8 135.3C11.6 135 11.6 134.7 11.5 134.5C11.4 133.6 11.4 132.6 11.6 131.6C11.6 131.5 11.7 131.3 11.8 131.3C11.9 131.3 11.9 131.3 12 131.3C12.1 131.3 12.1 131.4 12.1 131.5C12.1 132 12.1 132.5 12.1 133C12.1 133.2 12.2 133.5 12.4 133.4C12.5 133.4 12.5 133.3 12.5 133.2C12.5 132.7 12.5 132.3 12.6 131.8C12.6 131.6 12.6 131.4 12.8 131.3C12.9 131.2 13 131.2 13.1 131.3C13.2 131.4 13.2 131.4 13.2 131.5C13.2 132 13.2 132.3 13.2 132.8C13.2 133 13.2 133.2 13.3 133.4C13.4 133.5 13.5 133.5 13.6 133.4C13.7 133.3 13.6 133.1 13.6 132.9C13.6 132.4 13.6 132 13.7 131.5C13.7 131.4 13.8 131.4 13.8 131.4C14 131.3 14.1 131.6 14.2 131.8C14.2 132.6 14.3 133.5 14.3 134.3C14.2 134.7 14.2 135.2 14 135.5ZM16.9 135.9C16.7 136 16.4 135.9 16.3 136.1C16.2 136.2 16.2 136.3 16.2 136.5C16.1 137.7 16.2 140.4 16.4 141.6C16.5 141.9 16.5 142.2 16.4 142.3C16.3 142.6 15.8 142.7 15.6 142.3C15.4 139.6 15.4 135.9 15.3 133.3C15.3 132.7 15.2 132.1 15.3 131.6C15.3 131.5 15.3 131.4 15.4 131.4C15.5 131.4 15.6 131.4 15.7 131.5C16.2 131.9 16.4 132.5 16.6 133.1C16.8 133.8 17 134.6 17.2 135.3C17.2 135.5 17.2 135.8 16.9 135.9Z" fill="#337085"/>
<path d="M28.6 196.3H-28.5V253.4H28.6V196.3Z" fill="#F0968E"/>
<path d="M14.4 224.8L0.100037 239.1L14.4 253.4L28.7 239.1L14.4 224.8ZM14 238.8C13.9 239 13.7 239.1 13.5 239.3C13.2 239.7 13.3 240.1 13.3 240.5C13.4 241.5 13.4 244.1 13.4 245.1C13.4 245.4 13.4 245.7 13.1 245.7C12.9 245.8 12.7 245.7 12.6 245.5C12.5 245.3 12.5 245.1 12.5 244.9C12.4 243.6 12.3 240.5 12.4 239C12.1 239 11.8 238.8 11.8 238.6C11.6 238.3 11.6 238 11.5 237.8C11.4 236.9 11.4 235.9 11.6 234.9C11.6 234.8 11.7 234.6 11.8 234.6C11.9 234.6 11.9 234.6 12 234.6C12.1 234.6 12.1 234.7 12.1 234.8C12.1 235.3 12.1 235.8 12.1 236.3C12.1 236.5 12.2 236.8 12.4 236.7C12.5 236.7 12.5 236.6 12.5 236.5C12.5 236 12.5 235.6 12.6 235.1C12.6 234.9 12.6 234.7 12.8 234.6C12.9 234.5 13 234.5 13.1 234.6C13.2 234.7 13.2 234.7 13.2 234.8C13.2 235.3 13.2 235.6 13.2 236.1C13.2 236.3 13.2 236.5 13.3 236.7C13.4 236.8 13.5 236.8 13.6 236.7C13.7 236.6 13.6 236.4 13.6 236.2C13.6 235.7 13.6 235.3 13.7 234.8C13.7 234.7 13.8 234.7 13.8 234.7C14 234.6 14.1 234.9 14.2 235.1C14.2 235.9 14.3 236.8 14.3 237.6C14.2 238.1 14.2 238.5 14 238.8ZM16.9 239.3C16.7 239.4 16.4 239.3 16.3 239.5C16.2 239.6 16.2 239.7 16.2 239.9C16.1 241.1 16.2 243.8 16.4 245C16.5 245.3 16.5 245.6 16.4 245.7C16.3 245.9 15.8 246.1 15.6 245.7C15.4 243 15.4 239.3 15.3 236.7C15.3 236.1 15.2 235.5 15.3 235C15.3 234.9 15.3 234.8 15.4 234.8C15.5 234.8 15.6 234.8 15.7 234.9C16.2 235.3 16.4 235.9 16.6 236.5C16.8 237.2 17 238 17.2 238.7C17.2 238.8 17.2 239.1 16.9 239.3Z" fill="#337085"/>
<path d="M14.4 196.3L0.100037 210.6L14.4 224.9L28.7 210.6L14.4 196.3ZM14 210.3C13.9 210.5 13.7 210.6 13.5 210.8C13.2 211.2 13.3 211.6 13.3 212C13.4 213 13.4 215.6 13.4 216.6C13.4 216.9 13.4 217.2 13.1 217.2C12.9 217.3 12.7 217.2 12.6 217C12.5 216.8 12.5 216.6 12.5 216.4C12.4 215.1 12.3 212 12.4 210.5C12.1 210.5 11.8 210.3 11.8 210.1C11.6 209.8 11.6 209.5 11.5 209.3C11.4 208.4 11.4 207.4 11.6 206.4C11.6 206.3 11.7 206.1 11.8 206.1C11.9 206.1 11.9 206.1 12 206.1C12.1 206.1 12.1 206.2 12.1 206.3C12.1 206.8 12.1 207.3 12.1 207.8C12.1 208 12.2 208.3 12.4 208.2C12.5 208.2 12.5 208.1 12.5 208C12.5 207.5 12.5 207.1 12.6 206.6C12.6 206.4 12.6 206.2 12.8 206.1C12.9 206 13 206 13.1 206.1C13.2 206.2 13.2 206.2 13.2 206.3C13.2 206.8 13.2 207.1 13.2 207.6C13.2 207.8 13.2 208 13.3 208.2C13.4 208.3 13.5 208.3 13.6 208.2C13.7 208.1 13.6 207.9 13.6 207.7C13.6 207.2 13.6 206.8 13.7 206.3C13.7 206.2 13.8 206.2 13.8 206.2C14 206.1 14.1 206.4 14.2 206.6C14.2 207.4 14.3 208.3 14.3 209.1C14.2 209.5 14.2 209.9 14 210.3ZM16.9 210.7C16.7 210.8 16.4 210.7 16.3 210.9C16.2 211 16.2 211.1 16.2 211.3C16.1 212.5 16.2 215.2 16.4 216.4C16.5 216.7 16.5 217 16.4 217.1C16.3 217.3 15.8 217.5 15.6 217.1C15.4 214.4 15.4 210.7 15.3 208.1C15.3 207.5 15.2 206.9 15.3 206.4C15.3 206.3 15.3 206.2 15.4 206.2C15.5 206.2 15.6 206.2 15.7 206.3C16.2 206.7 16.4 207.3 16.6 207.9C16.8 208.6 17 209.4 17.2 210.1C17.2 210.2 17.2 210.6 16.9 210.7Z" fill="#337085"/>
<path d="M28.6 271.1H-28.5V328.2H28.6V271.1Z" fill="#F6BBB5"/>
<path d="M14.3 299.6L0 313.8L14.3 328.1L28.6 313.8L14.3 299.6ZM13.9 313.5C13.8 313.7 13.6 313.8 13.4 314C13.1 314.4 13.2 314.8 13.2 315.2C13.3 316.2 13.3 318.8 13.3 319.8C13.3 320.1 13.3 320.4 13 320.4C12.8 320.5 12.6 320.4 12.5 320.2C12.4 320 12.4 319.8 12.4 319.6C12.3 318.3 12.2 315.2 12.3 313.7C12 313.7 11.7 313.5 11.7 313.3C11.5 313 11.5 312.7 11.4 312.5C11.3 311.6 11.3 310.6 11.5 309.6C11.5 309.5 11.6 309.3 11.7 309.3C11.8 309.3 11.8 309.3 11.9 309.3C12 309.3 12 309.4 12 309.5C12 310 12 310.5 12 311C12 311.2 12.1 311.5 12.3 311.4C12.4 311.4 12.4 311.3 12.4 311.2C12.4 310.7 12.4 310.3 12.5 309.8C12.5 309.6 12.5 309.4 12.7 309.3C12.8 309.2 12.9 309.2 13 309.3C13.1 309.4 13.1 309.4 13.1 309.5C13.1 310 13.1 310.3 13.1 310.8C13.1 311 13.1 311.2 13.2 311.4C13.3 311.5 13.4 311.5 13.5 311.4C13.6 311.3 13.5 311.1 13.5 310.9C13.5 310.4 13.5 310 13.6 309.5C13.6 309.4 13.7 309.4 13.7 309.4C13.9 309.3 14 309.6 14.1 309.8C14.1 310.6 14.2 311.5 14.2 312.3C14.1 312.8 14.2 313.3 13.9 313.5ZM16.9 314C16.7 314.1 16.4 314 16.3 314.2C16.2 314.3 16.2 314.4 16.2 314.6C16.1 315.8 16.2 318.5 16.4 319.7C16.5 320 16.5 320.3 16.4 320.4C16.3 320.7 15.8 320.8 15.6 320.4C15.4 317.7 15.4 314 15.3 311.4C15.3 310.8 15.2 310.2 15.3 309.7C15.3 309.6 15.3 309.5 15.4 309.5C15.5 309.5 15.6 309.5 15.7 309.6C16.2 310 16.4 310.6 16.6 311.2C16.8 311.9 17 312.7 17.2 313.4C17.2 313.5 17.2 313.8 16.9 314Z" fill="#337085"/>
<path d="M14.3 271L0 285.3L14.3 299.6L28.6 285.3L14.3 271ZM13.9 285C13.8 285.2 13.6 285.3 13.4 285.5C13.1 285.9 13.2 286.3 13.2 286.7C13.3 287.7 13.3 290.3 13.3 291.3C13.3 291.6 13.3 291.9 13 291.9C12.8 292 12.6 291.9 12.5 291.7C12.4 291.5 12.4 291.3 12.4 291.1C12.3 289.8 12.2 286.7 12.3 285.2C12 285.2 11.7 285 11.7 284.8C11.5 284.5 11.5 284.2 11.4 284C11.3 283.1 11.3 282.1 11.5 281.1C11.5 281 11.6 280.8 11.7 280.8C11.8 280.8 11.8 280.8 11.9 280.8C12 280.8 12 280.9 12 281C12 281.5 12 282 12 282.5C12 282.7 12.1 283 12.3 282.9C12.4 282.9 12.4 282.8 12.4 282.7C12.4 282.2 12.4 281.8 12.5 281.3C12.5 281.1 12.5 280.9 12.7 280.8C12.8 280.7 12.9 280.7 13 280.8C13.1 280.9 13.1 280.9 13.1 281C13.1 281.5 13.1 281.8 13.1 282.3C13.1 282.5 13.1 282.7 13.2 282.9C13.3 283 13.4 283 13.5 282.9C13.6 282.8 13.5 282.6 13.5 282.4C13.5 281.9 13.5 281.5 13.6 281C13.6 280.9 13.7 280.9 13.7 280.9C13.9 280.8 14 281.1 14.1 281.3C14.1 282.1 14.2 283 14.2 283.8C14.1 284.3 14.2 284.6 13.9 285ZM16.9 285.5C16.7 285.6 16.4 285.5 16.3 285.7C16.2 285.8 16.2 285.9 16.2 286.1C16.1 287.3 16.2 290 16.4 291.2C16.5 291.5 16.5 291.8 16.4 291.9C16.3 292.2 15.8 292.3 15.6 291.9C15.4 289.2 15.4 285.5 15.3 282.9C15.3 282.3 15.2 281.7 15.3 281.2C15.3 281.1 15.3 281 15.4 281C15.5 281 15.6 281 15.7 281.1C16.2 281.5 16.4 282.1 16.6 282.7C16.8 283.4 17 284.2 17.2 284.9C17.2 284.9 17.2 285.3 16.9 285.5Z" fill="#337085"/>
<path d="M28.6 46.8H-28.5V103.9H28.6V46.8Z" fill="#F0968E"/>
<path d="M14.4 75.4L0.100037 89.6L14.4 103.9L28.7 89.6L14.4 75.4ZM14 89.3C13.9 89.5 13.7 89.6 13.5 89.8C13.2 90.2 13.3 90.6 13.3 91C13.4 92 13.4 94.6 13.4 95.6C13.4 95.9 13.4 96.2 13.1 96.2C12.9 96.3 12.7 96.2 12.6 96C12.5 95.8 12.5 95.6 12.5 95.4C12.4 94.1 12.3 91 12.4 89.5C12.1 89.5 11.8 89.3 11.8 89.1C11.6 88.8 11.6 88.5 11.5 88.3C11.4 87.4 11.4 86.4 11.6 85.4C11.6 85.3 11.7 85.1 11.8 85.1C11.9 85.1 11.9 85.1 12 85.1C12.1 85.1 12.1 85.2 12.1 85.3C12.1 85.8 12.1 86.3 12.1 86.8C12.1 87 12.2 87.3 12.4 87.2C12.5 87.2 12.5 87.1 12.5 87C12.5 86.5 12.5 86.1 12.6 85.6C12.6 85.4 12.6 85.2 12.8 85.1C12.9 85 13 85 13.1 85.1C13.2 85.2 13.2 85.2 13.2 85.3C13.2 85.8 13.2 86.1 13.2 86.6C13.2 86.8 13.2 87 13.3 87.2C13.4 87.3 13.5 87.3 13.6 87.2C13.7 87.1 13.6 86.9 13.6 86.7C13.6 86.2 13.6 85.8 13.7 85.3C13.7 85.2 13.8 85.2 13.8 85.2C14 85.1 14.1 85.4 14.2 85.6C14.2 86.4 14.3 87.3 14.3 88.1C14.2 88.5 14.2 89 14 89.3ZM16.9 89.7C16.7 89.8 16.4 89.7 16.3 89.9C16.2 90 16.2 90.1 16.2 90.3C16.1 91.5 16.2 94.2 16.4 95.4C16.5 95.7 16.5 96 16.4 96.1C16.3 96.3 15.8 96.5 15.6 96.1C15.4 93.4 15.4 89.7 15.3 87.1C15.3 86.5 15.2 85.9 15.3 85.4C15.3 85.3 15.3 85.2 15.4 85.2C15.5 85.2 15.6 85.2 15.7 85.3C16.2 85.7 16.4 86.3 16.6 86.9C16.8 87.6 17 88.4 17.2 89.1C17.2 89.3 17.2 89.6 16.9 89.7Z" fill="#337085"/>
<path d="M14.4 46.8L0.100037 61L14.4 75.3L28.6 61L14.4 46.8ZM14 60.7C13.9 60.9 13.7 61 13.5 61.2C13.2 61.6 13.3 62 13.3 62.4C13.4 63.4 13.4 66 13.4 67C13.4 67.3 13.4 67.6 13.1 67.6C12.9 67.7 12.7 67.6 12.6 67.4C12.5 67.2 12.5 67 12.5 66.8C12.4 65.5 12.3 62.4 12.4 60.9C12.1 60.9 11.8 60.7 11.8 60.5C11.6 60.2 11.6 59.9 11.5 59.7C11.4 58.8 11.4 57.8 11.6 56.8C11.6 56.7 11.7 56.5 11.8 56.5C11.9 56.5 11.9 56.5 12 56.5C12.1 56.5 12.1 56.6 12.1 56.7C12.1 57.2 12.1 57.7 12.1 58.2C12.1 58.4 12.2 58.7 12.4 58.6C12.5 58.6 12.5 58.5 12.5 58.4C12.5 57.9 12.5 57.5 12.6 57C12.6 56.8 12.6 56.6 12.8 56.5C12.9 56.4 13 56.4 13.1 56.5C13.2 56.6 13.2 56.6 13.2 56.7C13.2 57.2 13.2 57.5 13.2 58C13.2 58.2 13.2 58.4 13.3 58.6C13.4 58.7 13.5 58.7 13.6 58.6C13.7 58.5 13.6 58.3 13.6 58.1C13.6 57.6 13.6 57.2 13.7 56.7C13.7 56.6 13.8 56.6 13.8 56.6C14 56.5 14.1 56.8 14.2 57C14.2 57.8 14.3 58.7 14.3 59.5C14.2 60 14.2 60.5 14 60.7ZM16.9 61.2C16.7 61.3 16.4 61.2 16.3 61.4C16.2 61.5 16.2 61.6 16.2 61.8C16.1 63 16.2 65.7 16.4 66.9C16.5 67.2 16.5 67.5 16.4 67.6C16.3 67.8 15.8 68 15.6 67.6C15.4 64.9 15.4 61.2 15.3 58.6C15.3 58 15.2 57.4 15.3 56.9C15.3 56.8 15.3 56.7 15.4 56.7C15.5 56.7 15.6 56.7 15.7 56.8C16.2 57.2 16.4 57.8 16.6 58.4C16.8 59.1 17 59.9 17.2 60.6C17.2 60.7 17.2 61 16.9 61.2Z" fill="#337085"/>
<path d="M358.4 394.1H-0.5V313.2C-0.5 313.2 5.8 323.2 13.7 324.2C21.5 325.2 33.3 310.3 33.3 310.3C33.3 310.3 41.4 299.6 56.1 310.3C70.9 321 78.8 323.2 82.5 319.8C86.2 316.4 97 297.2 107.4 295.1C117.8 293 122.1 294.7 134.8 301.2C147.5 307.7 148.8 314.8 154.3 306.9C157 302.9 164.8 283.7 173.6 281.3C183.1 278.8 183.4 286.4 189.3 297.5C195.3 308.6 197.6 318 207.2 314.9C215.9 312 229.5 300.4 253.4 311C259.2 313.6 265.8 313.4 271.4 310.4C274.1 308.9 277.3 307 281 304.4C294.5 295 314 275.8 334.6 308.5C334.6 308.5 342.7 321.5 347.1 321.8C351.5 322.1 358.3 317.9 358.3 317.9L358.4 394.1Z" fill="#4C0003"/>
<path d="M128.8 317.3C129.3 317.8 130.2 318.4 130.3 319.1C130.4 319.7 129.6 320.9 129 321C126.1 321.7 123.3 322.2 120.4 322.6C119.8 322.7 118.7 321.7 118.4 320.9C118.2 320.4 119.1 319.1 119.7 319C122.5 318.3 125.4 317.8 128.8 317.3Z" fill="#F0968E"/>
<path d="M172.6 315.9C173 316.8 174 318 173.7 318.4C171.9 321.2 169.8 323.8 167.7 326.4C167.4 326.8 166.1 326.5 165.6 326.1C165.2 325.8 164.9 324.6 165.1 324.3C167 321.6 169.1 319.1 171.1 316.6C171.3 316.2 171.7 316.2 172.6 315.9Z" fill="#F0968E"/>
<path d="M105.1 342C104.8 341.7 104.1 341.3 103.7 340.6C102.4 338.5 101 336.5 99.9 334.3C99.5 333.5 100.2 332.3 100.4 331.3C101.3 331.7 102.6 331.8 103.1 332.4C104.6 334.4 105.9 336.7 107.1 338.9C108 340.5 107.2 342 105.1 342Z" fill="#F0968E"/>
<path d="M302.5 318.5C301.9 319.7 301.8 320.2 301.4 320.6C299.2 322.5 297 324.5 294.7 326.1C294.2 326.5 292.8 326.3 292.4 325.8C292 325.3 291.9 323.9 292.4 323.4C294.6 321.3 297 319.3 299.5 317.5C300 317.2 301.4 318.1 302.5 318.5Z" fill="#F0968E"/>
<path d="M229.3 322.6C229.9 323.1 230.7 323.4 230.9 324C231.1 324.6 230.8 325.7 230.3 325.8C227.5 327.1 224.7 328.3 221.7 329.3C221.2 329.5 220.2 328.9 220 328.5C219.7 328 220 326.8 220.4 326.7C223.2 325.3 226.2 324 229.3 322.6Z" fill="#F6BBB5"/>
<path d="M25.8 332.4C22.8 330.8 19.8 329.5 17 327.8C16.6 327.6 16.5 326.3 16.7 325.9C17 325.4 18 325.1 18.4 325.3C21.2 326.4 23.8 327.7 26.5 329.1C27 329.4 27.3 330.4 27.2 330.9C27.2 331.4 26.5 331.8 25.8 332.4Z" fill="#F6BBB5"/>
<path d="M269.9 335.8C271 332.8 271.8 329.9 273 327.1C273.2 326.6 274.5 326.1 274.9 326.4C275.5 326.6 276.1 327.8 275.9 328.3C275.2 331.1 274.2 333.8 273.1 336.6C272.9 337.1 271.8 337.5 271.2 337.4C270.7 337.2 270.3 336.3 269.9 335.8Z" fill="#F0968E"/>
<path d="M44.1 341.4C45.1 338.4 45.8 335.8 47 333.2C47.3 332.6 48.4 332.4 49.1 331.9C49.5 332.6 50.3 333.5 50.1 334.1C49.5 336.8 48.5 339.3 47.5 341.9C47.2 342.5 46 343.2 45.5 343C44.9 342.9 44.5 341.8 44.1 341.4Z" fill="#F0968E"/>
<path d="M305.1 335.9C304.5 336.5 304.2 337.3 303.5 337.5C303 337.7 301.9 337.1 301.8 336.7C300.7 333.9 299.7 331.1 298.8 328.2C298.7 327.7 299.4 326.6 299.7 326.5C300.3 326.4 301.5 326.7 301.7 327.2C303 330 304 332.9 305.1 335.9Z" fill="#F6BBB5"/>
<path d="M262.6 136.3C246 124.8 163.3 80 212.4 154.5C218 159.8 240.4 158.7 240.4 158.7C240.4 158.7 221.9 168.7 219.9 177.8C217.9 186.9 230.7 200.1 234.6 200.6C242.9 201.4 253.1 186.9 260 174.5C266.9 162 262.6 136.3 262.6 136.3Z" fill="#B1354E"/>
<path d="M262.7 140.6C251.5 132.9 195.5 102.5 228.7 152.9C232.5 156.5 247.7 155.7 247.7 155.7C247.7 155.7 235.2 162.5 233.8 168.6C232.5 174.8 241.1 183.8 243.7 184C249.4 184.5 256.2 174.7 260.8 166.3C265.5 157.9 262.7 140.6 262.7 140.6Z" fill="white"/>
<path d="M257.5 140.8C268 123.6 325.5 49.1 310.7 137.1C307.7 144.2 286.8 152.3 286.8 152.3C286.8 152.3 307.7 153.9 313.3 161.5C318.9 169 312.5 186.3 309.1 188.2C301.8 192.4 286.7 183.2 275.4 174.6C264.1 166 257.5 140.8 257.5 140.8Z" fill="#B1354E"/>
<path d="M257.5 146C264.2 135 300.8 87.6 291.4 143.6C289.5 148.1 276.1 153.3 276.1 153.3C276.1 153.3 289.4 154.3 293 159.2C296.5 164 292.5 175 290.3 176.2C285.7 178.9 276 173 268.8 167.6C261.7 162 257.5 146 257.5 146Z" fill="white"/>
<path d="M248.7 203.5C249.5 203.5 250.1 203.9 250.8 204.3C252.3 196.9 254.1 189.8 256.7 191.1C257.5 191.5 257.8 192.4 257.5 193.2C257.3 193.1 254.1 201.7 253.5 208.6C253.4 211 249.9 211.3 247.7 209.4C245.1 207.1 245.8 203.4 248.7 203.5Z" fill="#4C0003"/>
<path d="M284.9 162C284.3 162.5 284 163.2 283.8 163.9C278 159.2 272.1 154.7 270.9 157.3C270.5 158.1 270.8 159.1 271.6 159.4C271.7 159.5 278.8 162.9 283.8 168.4C285.7 170.6 288.7 169.1 289.4 165.7C289.9 162.6 287.1 160.1 284.9 162Z" fill="#4C0003"/>
<path d="M293.7 193.3C293 193.5 292.3 193.9 291.8 194.5C288.8 187.6 285.6 181 283.3 182.7C282.6 183.2 282.5 184.2 283 184.9C283.1 185 287.8 191.3 289.8 198.5C290.5 201.3 293.9 201.3 296 198.7C297.9 196.1 296.6 192.6 293.7 193.3Z" fill="#4C0003"/>
<path d="M262.4 202.2C246.6 189 243.2 164.2 246.2 146L257.5 140.7C297.8 168.7 293.2 227.2 262.4 202.2Z" fill="#EE7675"/>
<path d="M283.6 174.5C279.6 180.7 270.3 189.8 250.9 186.8C248 180.6 246.4 174.1 245.7 167.9C261.5 170 270.3 164.1 275.1 158.5C278.3 163.1 281.4 168.4 283.6 174.5Z" fill="#F2B0A2"/>
<path d="M262.4 202.2C261 201 259.7 199.7 258.6 198.4C273.9 199.8 282.3 193.5 286.7 187.9C287.9 205 277.7 215.7 262.4 202.2Z" fill="#F2B0A2"/>
<path d="M280.1 207C274.9 211 264.3 205.5 258.6 198.4C245.8 184.9 243.6 162.4 246.2 146L257.5 140.7C257.5 140.7 260.2 142.5 264.1 146C259.3 160.8 258.1 180.7 267.4 195.1C270.1 200.1 276 206.2 280.1 207Z" fill="#EE7675"/>
<path d="M262 106.9C261.4 106.9 260.9 106.2 261.2 105.6C269.7 83.7 247.9 83.3 252.5 94C252.9 94.9 256.4 95.4 256.6 93.9C256.8 93.1 256.2 92.5 255.6 92.5C254.5 92.5 254.4 90.7 255.6 90.7C256.7 90.5 258.9 91.8 258.4 94.1C257.9 97.4 252.4 97.1 251 94.9C248.6 90.8 250.5 85 257 85.4C266.1 86.9 266.3 98.1 262.9 106.3C262.7 106.7 262.3 106.9 262 106.9Z" fill="#4C0003"/>
<path d="M244.5 106.9C244 106.9 243.6 106.5 243.6 105.9C243.7 82.4 223.2 89.8 231.3 98.1C232 98.8 235.5 98 235.1 96.5C235 95.6 234.3 95.3 233.7 95.6C232.6 96 231.9 94.3 233 93.9C234 93.4 236.6 93.8 236.9 96.1C237.6 99.4 232.4 101 230.3 99.5C223 93.6 232 84 239.5 90C243.4 93 245.7 99.3 245.4 105.9C245.4 106.5 244.9 106.9 244.5 106.9Z" fill="#4C0003"/>
<path d="M252.2 102.5C288.7 102.7 283.5 157 243.1 152.1C219.6 149.6 220.7 130.8 225.2 126.2C229.7 121.8 227.8 102.5 252.2 102.5Z" fill="#F2B0A2"/>
<path d="M243.1 152.1C229.1 150.6 223.8 143.3 222.8 136.7C225 142 230.3 146.9 241 148.1C270.9 150.8 279.5 127 270.8 109.8C286.1 125.7 275.8 155.6 243.1 152.1Z" fill="#F18080"/>
<path d="M261.7 125.1C261.5 135.1 249.6 135.1 249.4 125.1C249.7 115.2 261.5 115.2 261.7 125.1Z" fill="white"/>
<path d="M258.7 125.1C258.6 130.6 252.6 130.6 252.5 125.1C252.6 119.7 258.6 119.7 258.7 125.1Z" fill="#B21E34"/>
<path d="M257.4 123C257.4 124.6 254.8 124.6 254.9 123C254.8 121.3 257.4 121.3 257.4 123Z" fill="white"/>
<path d="M243.4 123.7C243.2 133.7 231.3 133.7 231.1 123.7C231.3 113.7 243.3 113.7 243.4 123.7Z" fill="white"/>
<path d="M240.4 123.7C240.3 129.2 234.3 129.2 234.2 123.7C234.3 118.2 240.3 118.2 240.4 123.7Z" fill="#B21E34"/>
<path d="M239.1 121.5C239.1 123.1 236.5 123.1 236.6 121.5C236.5 119.9 239.1 119.9 239.1 121.5Z" fill="white"/>
<path d="M260.5 136.6C260.5 139.6 252.4 139.6 252.4 136.6C252.4 133.6 260.5 133.6 260.5 136.6Z" fill="#B1354E"/>
<path d="M237.5 135.5C237.5 138.5 229.4 138.5 229.4 135.5C229.4 132.6 237.5 132.6 237.5 135.5Z" fill="#B1354E"/>
<path d="M241.6 135.8C241.8 136.3 241.9 136.9 242.2 137.5C243.1 139.4 244.9 137.7 245 136.5C245.1 136 245.8 136 245.8 136.5C245.8 137.3 245.9 138.5 246.9 138.7C248.1 139 249 137.1 248.8 136.3C248.7 135.8 249.5 135.5 249.6 136.1C249.8 137.4 248.9 139.5 247.4 139.7C246.3 139.8 245.6 139.2 245.3 138.3C244.9 139 244.2 139.4 243.2 139.5C241.6 139.6 241.1 137.3 240.8 136.2C240.7 135.5 241.5 135.3 241.6 135.8Z" fill="#B21E34"/>
<path d="M248.7 101.3C248.8 101.3 248.8 101.3 248.8 101.3C247.6 99.6 247.2 97.8 247.9 97.3C248.7 96.8 250.7 97.4 252.1 99.2C252.5 99.7 252.8 100.2 252.9 100.8C253.1 100.5 253.3 100.2 253.6 99.9C255 98.2 256.9 97.3 257.6 97.9C258.3 98.5 258 100.7 256.6 102.4L256.5 102.5C258.6 102.9 260.1 103.8 260 104.7C259.9 105.7 257.9 106.6 255.7 106.3C254 106.1 252.7 105.2 252.1 104.4C251.4 104.8 250.3 105.1 249 105.2C246.8 105.4 244.9 104.7 244.8 103.8C244.8 102.7 246.5 101.5 248.7 101.3Z" fill="white"/>
<path d="M230.5 169.1C241.38 169.1 250.2 164.578 250.2 159C250.2 153.422 241.38 148.9 230.5 148.9C219.62 148.9 210.8 153.422 210.8 159C210.8 164.578 219.62 169.1 230.5 169.1Z" fill="#F5F7F7"/>
<path d="M210.7 159C210.8 154.8 215 152.2 218.6 150.7C226.1 147.8 234.8 147.9 242.3 150.6C252.9 154.8 252.9 163.1 242.2 167.2C234.7 170 226.1 170.2 218.5 167.3C215.1 165.8 210.8 163.2 210.7 159ZM210.8 159C210.9 163.2 215.2 165.6 218.8 166.9C226.3 169.4 234.8 169.6 242.3 167C252.7 163.1 252.6 155 242.2 151.1C234.7 148.4 226.3 148.5 218.8 151C215.2 152.4 211 154.8 210.8 159Z" fill="#B1354E"/>
<path d="M230.5 165.2C237.128 165.2 242.5 162.424 242.5 159C242.5 155.576 237.128 152.8 230.5 152.8C223.873 152.8 218.5 155.576 218.5 159C218.5 162.424 223.873 165.2 230.5 165.2Z" fill="#F5F7F7"/>
<path d="M218.4 159C218.5 156.4 221.1 154.8 223.2 153.9C226.6 152.5 230.5 152.3 234.1 152.8C245.4 154.9 245.3 162.9 234.1 165.1C230.5 165.8 226.6 165.6 223.2 164.2C221 163.2 218.5 161.6 218.4 159ZM218.4 159C219.1 165.5 232.9 165.9 237.5 163.8C243.8 161.4 243.7 156.5 237.4 154.3C232.9 152.7 227.7 152.7 223.2 154.2C221.2 155 218.6 156.5 218.4 159Z" fill="#B1354E"/>
<path d="M223.2 158C224.6 161.7 226.6 163.8 230.4 163.8C234.3 163.8 236.5 161.4 237.6 158C238.6 154.8 234.2 151.5 230.4 151.5C226.6 151.6 222 154.9 223.2 158Z" fill="#4C0003"/>
<path d="M237.7 158L235.2 164.9C232.2 165.7 229.2 165.7 226.2 164.9L223.2 158L224 158.8L224.8 158L225.5 158.7L226.3 157.9L227.2 158.8L228.3 157.7L229.4 158.8L230.6 157.6L231.7 158.7L232.7 157.7L233.7 158.7L234.8 157.6L235.9 158.7L237.7 158Z" fill="#F6BBB5"/>
<path d="M233.6 168.1C233.8 168.8 233.8 169.6 233.7 170.3C241.1 169 248.4 167.8 248.2 170.7C248.1 171.6 247.4 172.3 246.5 172.2C246.4 172.2 238.5 171.8 231.5 174.3C228.8 175.3 226.9 172.5 227.9 169.3C228.9 166.3 232.6 165.4 233.6 168.1Z" fill="#4C0003"/>
<path d="M233.5 154.3L231.2 155.7" stroke="#F6BBB5" stroke-width="0.75" stroke-miterlimit="10" stroke-linecap="round" stroke-linejoin="round"/>
<path d="M228.3 155.9L229.6 156.3" stroke="#F0968E" stroke-width="0.5" stroke-miterlimit="10" stroke-linecap="round" stroke-linejoin="round"/>
<path d="M227.4 156.5L226.1 157.3" stroke="#F6BBB5" stroke-width="0.75" stroke-miterlimit="10" stroke-linecap="round" stroke-linejoin="round"/>
<path d="M224.3 156.7L225.1 156.8" stroke="#F0968E" stroke-width="0.5" stroke-miterlimit="10" stroke-linecap="round" stroke-linejoin="round"/>
<path d="M233.5 157.8L234.7 156.8" stroke="#F6BBB5" stroke-width="0.75" stroke-miterlimit="10" stroke-linecap="round" stroke-linejoin="round"/>
<path d="M236.6 157.1H235.8" stroke="#F0968E" stroke-width="0.5" stroke-miterlimit="10" stroke-linecap="round" stroke-linejoin="round"/>
<path d="M228.9 153.4L230.1 152.3" stroke="#F6BBB5" stroke-width="0.75" stroke-miterlimit="10" stroke-linecap="round" stroke-linejoin="round"/>
<path d="M232 152.7H231.2" stroke="#F0968E" stroke-width="0.5" stroke-miterlimit="10" stroke-linecap="round" stroke-linejoin="round"/>
<path d="M120.6 200C106.9 194.5 104 174.6 103.6 164L119.1 161.8C119.3 161.7 133.7 173.3 136.7 178.2C143.7 188.1 137.4 206.6 120.6 200Z" fill="white"/>
<path d="M114.2 161.1C149.1 185.8 104.4 202.6 104.2 162.5L114.2 161.1Z" fill="#B1354E"/>
<path d="M110.5 148.1C161.3 102.5 186.7 182.6 105.1 165.5L110.5 148.1Z" fill="white"/>
<path d="M108.7 152.2C141.5 122.7 158 174.5 105.2 163.5L108.7 152.2Z" fill="#B1354E"/>
<path d="M55.9 189.1C70.6 189.9 81.7 173.2 86.7 163.7L73.7 155.1C73.6 154.9 55.6 159.2 50.8 162.5C40 168.6 37.9 187.9 55.9 189.1Z" fill="white"/>
<path d="M78.3 156.6C36.2 164 69.5 198.3 86.8 162.2L78.3 156.6Z" fill="#B1354E"/>
<path d="M87.2 146.5C60.8 83.6 3.5 145.2 84.7 164.6L87.2 146.5Z" fill="white"/>
<path d="M87.1 151C70 110.4 33 150.2 85.5 162.7L87.1 151Z" fill="#B1354E"/>
<path d="M104.9 208.8C104.2 208.8 103.6 209 103 209.5C101.8 202.7 100.5 196.2 98.1 197.3C97.4 197.6 97 198.5 97.4 199.2C97.4 199.3 100.3 205.9 100.5 212.7C100.5 215.3 103.5 216.1 105.9 214.1C108.1 212.2 107.6 208.8 104.9 208.8Z" fill="#4C0003"/>
<path d="M69.6 169.7C70.1 170.2 70.4 170.8 70.6 171.5C76 167.3 81.5 163.4 82.5 165.8C82.8 166.5 82.5 167.4 81.8 167.7C81.7 167.7 75.2 170.7 70.5 175.6C68.7 177.5 66 176.1 65.5 173C65 170.1 67.7 167.9 69.6 169.7Z" fill="#4C0003"/>
<path d="M70.8 202.7C71.5 202.8 72.1 203.1 72.6 203.6C74.7 197.1 76.9 190.7 79.1 192.1C79.8 192.5 80 193.4 79.6 194.1C79.5 194.2 75.9 200.4 74.8 207.1C74.4 209.7 71.4 210.1 69.2 207.8C67.3 205.6 68.2 202.3 70.8 202.7Z" fill="#4C0003"/>
<path d="M116.9 169.7C116.2 169.8 115.6 170.2 115.1 170.7C112.6 164.3 110 158.1 107.9 159.7C107.2 160.2 107.1 161.1 107.5 161.8C107.6 161.9 111.7 167.8 113.1 174.4C113.6 176.9 116.7 177.2 118.7 174.8C120.6 172.5 119.5 169.2 116.9 169.7Z" fill="#4C0003"/>
<path d="M108.9 189.1C104.8 202.6 93.1 209.2 80.5 198.9C75.4 194.9 73.7 188.5 73.5 182C73.4 176.3 74.5 170.2 76.5 164.7C84.2 140.3 101.2 149.9 110.1 156.9C112.8 162.9 112.7 179.8 108.9 189.1Z" fill="#EE7675"/>
<path d="M96.3 203.6C89.8 205.6 78.7 200.2 75.6 192.5C73 186.6 73.1 179.3 74.3 172.9C78.2 153.8 87.7 141.5 106.1 154.1C92.6 162.5 80.1 192.1 96.3 203.6Z" fill="#F2B0A2"/>
<path d="M111.3 179.8C105.4 181.6 92.4 183.3 74.3 172.9C74.8 170.1 75.6 167.4 76.5 164.8C94.4 174.3 107 171.9 112.1 170.2C112.1 173 111.9 176.2 111.3 179.8Z" fill="#EE7675"/>
<path d="M108.9 189.1C107.4 193.5 105.4 196.9 103.2 199.4C96.6 199.8 87.3 198.7 75.6 192.5C74.2 189.4 73.6 185.8 73.5 182C90.2 191.6 102.6 190.7 108.9 189.1Z" fill="#EE7675"/>
<path d="M88 120.4C88.5 120.3 88.8 119.6 88.5 119.2C84.8 113.4 83 105 89.5 102.4C94.5 100.6 97 108.7 91.8 108.9C91 108.8 90.8 108.4 90.7 108.2C90 106.5 92.2 107.2 92 105.9C91.7 104.8 90.2 105.2 89.3 106.4C87.5 110.9 94.1 111.7 95.8 108.3C97.3 104.3 94.8 99.5 89.1 100.9C81.4 103.7 82.9 113.5 87.2 120.2C87.3 120.4 87.7 120.5 88 120.4Z" fill="#4C0003"/>
<path d="M103.2 117.7C103.6 117.6 103.9 117.2 103.9 116.7C102.7 111.4 103.6 106.1 106.2 103.2C108.3 100.4 113.6 100.8 114.3 103.7C115.1 106.1 113.6 109.3 110.6 108C109.8 107.6 109.8 107.2 109.8 107C109.7 106.2 110.3 105.8 110.9 106C111.9 106.2 112.2 104.6 111.2 104.4C110.2 104.1 108.1 104.9 108.2 106.9C108.1 109.9 112.9 110.5 114.5 108.8C119.9 102.5 110.6 95.5 105 101.9C102.1 105.2 101.1 111 102.3 116.7C102.5 117.5 102.9 117.8 103.2 117.7Z" fill="#4C0003"/>
<path d="M95.8 115.1C63.9 121 76.8 167.7 111.5 157.1C131.7 151.2 127.8 135 123.1 131.7C118.6 128.5 117.2 111.3 95.8 115.1Z" fill="#F18080"/>
<path d="M111.4 157.1C123.4 153.6 126.9 146.4 126.7 140.4C125.6 145.4 121.7 150.5 112.5 153.3C86.7 160.3 76.7 138.8 81.7 122.3C70.9 138.7 83.4 165.2 111.4 157.1Z" fill="#F2B0A2"/>
<path d="M87.8 134C89.2 141.5 98.2 139.9 97 132.4C95.6 124.9 86.6 126.5 87.8 134Z" fill="white"/>
<path d="M90.1 133.6C90.9 137.8 95.4 136.9 94.7 132.8C93.9 128.7 89.4 129.4 90.1 133.6Z" fill="#B21E34"/>
<path d="M90.8 131.8C91 133.1 93 132.7 92.7 131.4C92.5 130.2 90.6 130.6 90.8 131.8Z" fill="white"/>
<path d="M108.6 128.5C110 136 119 134.4 117.8 126.9C116.3 119.4 107.3 121 108.6 128.5Z" fill="white"/>
<path d="M110.9 128.2C111.7 132.4 116.2 131.5 115.5 127.4C114.7 123.2 110.2 124 110.9 128.2Z" fill="#B21E34"/>
<path d="M111.6 126.3C111.8 127.6 113.8 127.2 113.5 125.9C113.3 124.7 111.3 125.1 111.6 126.3Z" fill="white"/>
<path d="M92.3001 144.3C92.8001 147.1 100.4 145.8 99.9001 143C99.5001 140.1 91.8001 141.5 92.3001 144.3Z" fill="#B1354E"/>
<path d="M113.9 139.5C114.4 142.3 122 141 121.5 138.2C121 135.3 113.4 136.6 113.9 139.5Z" fill="#B1354E"/>
<path d="M112.4 136.1C116.818 136.1 120.4 132.518 120.4 128.1C120.4 123.682 116.818 120.1 112.4 120.1C107.982 120.1 104.4 123.682 104.4 128.1C104.4 132.518 107.982 136.1 112.4 136.1Z" stroke="white" stroke-width="0.5" stroke-miterlimit="10"/>
<path d="M92.4 141.2C96.8183 141.2 100.4 137.618 100.4 133.2C100.4 128.782 96.8183 125.2 92.4 125.2C87.9817 125.2 84.4 128.782 84.4 133.2C84.4 137.618 87.9817 141.2 92.4 141.2Z" stroke="white" stroke-width="0.5" stroke-miterlimit="10"/>
<path d="M105 131.1C102.6 131.3 101.3 132.1 100.4 133.2" stroke="white" stroke-width="0.5" stroke-miterlimit="10"/>
<path d="M112.2 144C112.1 144.7 112 145.3 111.8 145.9C111.1 148.1 109 146.5 108.7 145.2C108.6 144.6 107.7 144.7 107.7 145.3C107.8 146.2 107.9 147.5 106.9 147.9C105.6 148.4 104.5 146.5 104.5 145.5C104.6 144.9 103.6 144.8 103.5 145.4C103.4 146.9 104.8 149 106.4 149C107.7 148.9 108.3 148.2 108.5 147.1C109.1 147.8 109.9 148.2 110.9 148.1C112.6 147.9 112.9 145.4 113.1 144.2C113.3 143.6 112.4 143.4 112.2 144Z" fill="#B21E34"/>
<path d="M124.1 214.5C124.1 214.2 124.2 214 124.2 213.7C124.4 198.8 124.6 183.9 124.8 168.9C124.9 166.4 123.2 164.3 120.9 163.8C117.9 163.1 114.9 165.3 114.7 168.4C114.6 169.3 114.7 170.2 114.7 171.1C114.7 171.6 115.1 172 115.5 172C116 172 116.3 171.6 116.3 171.1C116.3 170.2 116.3 169.3 116.3 168.4C116.4 166.3 118.5 164.8 120.5 165.4C122 165.8 123.1 167.2 123 168.8C122.9 172.8 122.9 176.8 122.8 180.8C122.6 191.7 122.5 202.7 122.4 213.6C122.4 213.9 122.5 214.2 122.5 214.5C122.6 214.6 122.6 214.6 122.7 214.7C123 214.7 123.4 214.8 123.7 214.8C123.8 214.7 123.9 214.6 124.1 214.5Z" fill="#17596D"/>
<path d="M201.2 246H150.4C148.5 246 147 244.5 147 242.6V195.8C147 193.9 148.5 192.4 150.4 192.4H201.2C203.1 192.4 204.6 193.9 204.6 195.8V242.6C204.6 244.5 203.1 246 201.2 246Z" fill="#EE7675"/>
<path d="M172.5 190.4H154.2V192.5H172.5V190.4Z" fill="white"/>
<path d="M197.3 190.4H179V192.5H197.3V190.4Z" fill="white"/>
<path d="M194 241.7H157.8C155.9 241.7 154.4 240.2 154.4 238.3V209.7C154.4 207.8 155.9 206.3 157.8 206.3H194C195.9 206.3 197.4 207.8 197.4 209.7V238.3C197.3 240.1 195.8 241.7 194 241.7Z" fill="#B1354E"/>
<path d="M158.4 203.2C160.002 203.2 161.3 201.902 161.3 200.3C161.3 198.698 160.002 197.4 158.4 197.4C156.798 197.4 155.5 198.698 155.5 200.3C155.5 201.902 156.798 203.2 158.4 203.2Z" fill="white"/>
<path d="M166.3 203.2C167.902 203.2 169.2 201.902 169.2 200.3C169.2 198.698 167.902 197.4 166.3 197.4C164.698 197.4 163.4 198.698 163.4 200.3C163.4 201.902 164.698 203.2 166.3 203.2Z" fill="white"/>
<path d="M186.5 203.2C188.102 203.2 189.4 201.902 189.4 200.3C189.4 198.698 188.102 197.4 186.5 197.4C184.898 197.4 183.6 198.698 183.6 200.3C183.6 201.902 184.898 203.2 186.5 203.2Z" fill="white"/>
<path d="M194.5 203.2C196.102 203.2 197.4 201.902 197.4 200.3C197.4 198.698 196.102 197.4 194.5 197.4C192.898 197.4 191.6 198.698 191.6 200.3C191.6 201.902 192.898 203.2 194.5 203.2Z" fill="white"/>
<path d="M184.6 211.7H166.3V213.8H184.6V211.7Z" fill="#EE7675"/>
<path d="M162 246H154.2V248.7H162V246Z" fill="white"/>
<path d="M197.4 246H189.6V248.7H197.4V246Z" fill="white"/>
</g>
<defs>
<clipPath id="clip0_57_28830">
<rect width="358" height="334" rx="8" fill="white"/>
</clipPath>
</defs>
</svg>
