<svg width="111" height="95" viewBox="0 0 111 95" fill="none" xmlns="http://www.w3.org/2000/svg">
<rect width="111" height="95" rx="8" fill="#2B6F81"/>
<g clip-path="url(#clip0_146_279403)">
<g opacity="0.5">
<path d="M15 76.6C20.6 82.7 29.6 84 35.6 89.6C37.3 91.2 38.7 93 39.8 95H111V48.4C107.6 46 104.7 43 102.7 39.2C97.2 28.7 100.3 14.7 93.8 4.8C92.5 3 90.9 1.4 89.2 0H0V35.9C1.4 37.6 2.7 39.4 3.7 41.4C9.2 52.5 6.7 67.6 15 76.6Z" fill="#FDEFED"/>
<path d="M20.8001 70.8L2.40015 100.2L3.70015 100L23.3001 70.4L20.8001 70.8Z" fill="#FDEFED"/>
<path d="M2.4002 100.3C2.4002 100.3 2.4002 100.2 2.4002 100.3C2.3002 100.2 2.3002 100.2 2.4002 100.3L20.7002 70.8L23.3002 70.4C23.3002 70.4 23.3002 70.4 23.4002 70.4C23.4002 70.4 23.4002 70.4 23.4002 70.5L3.8002 100L2.4002 100.3ZM20.8002 70.8L2.5002 100.1L3.6002 99.9L23.1002 70.4L20.8002 70.8Z" fill="#4C0003"/>
<path d="M13.1001 66.1L-1.3999 97.9L0.100098 97.4L16.1001 65.2L13.1001 66.1Z" fill="#FDEFED"/>
<path d="M-1.39985 97.9C-1.49985 97.9 -1.49985 97.9 -1.39985 97.9C-1.49985 97.9 -1.49985 97.9 -1.39985 97.9L13.0001 66.1L16.0001 65.2H16.1001C16.1001 65.2 16.1001 65.2 16.1001 65.3L0.100146 97.5L-1.39985 97.9ZM13.1001 66.2L-1.29985 97.8L0.000146508 97.4L15.9001 65.3L13.1001 66.2Z" fill="#4C0003"/>
<path d="M16.9 68.3L0.5 99L2.1 98.7L20.2 67.9L16.9 68.3Z" fill="#FDEFED"/>
<path d="M0.500049 99C0.500049 99 0.400049 99 0.500049 99C0.400049 99 0.400049 99 0.500049 99L16.9 68.3L20.2001 67.8C20.2001 67.8 20.2 67.8 20.3 67.8C20.3 67.8 20.3 67.8 20.3 67.9L2.20005 98.8L0.500049 99ZM16.9 68.4L0.600049 98.9L2.10005 98.7L20.1 67.9L16.9 68.4Z" fill="#4C0003"/>
<path d="M20.2001 67.9L2.1001 98.7L2.4001 100.2L20.8001 70.8L20.2001 67.9Z" fill="#FDEFED"/>
<path d="M2.4001 100.3C2.4001 100.2 2.4001 100.2 2.4001 100.3L2.1001 98.8L20.2001 67.9C20.2001 67.9 20.2001 67.9 20.3001 67.9C20.3001 67.9 20.3001 67.9 20.4001 68L21.0001 70.9L2.4001 100.3C2.5001 100.3 2.4001 100.3 2.4001 100.3ZM2.2001 98.8L2.4001 100.1L20.6001 70.8L20.2001 68L2.2001 98.8Z" fill="#4C0003"/>
<path d="M11.8001 63.4L-2.09985 96.6L-1.39985 97.9L13.1001 66.1L11.8001 63.4Z" fill="#FDEFED"/>
<path d="M-1.39985 97.9C-1.49985 97.9 -1.49985 97.9 -1.39985 97.9L-2.09985 96.5C-2.09985 96.5 -2.09985 96.5 -2.09985 96.4L11.7001 63.3C11.7001 63.3 11.7001 63.3 11.8001 63.3C11.8001 63.3 11.8001 63.3 11.9001 63.3L13.2001 66C13.2001 66 13.2001 66 13.2001 66.1L-1.39985 97.9ZM-1.99985 96.5L-1.39985 97.7L13.0001 66.1L11.8001 63.6L-1.99985 96.5Z" fill="#4C0003"/>
<path d="M8.70015 64.2L-3.59985 96.9L-2.09985 96.6L11.8001 63.4L8.70015 64.2Z" fill="#FDEFED"/>
<path d="M-3.59985 97C-3.59985 97 -3.59985 96.9 -3.59985 97L8.70015 64.2L11.7001 63.4C11.7001 63.4 11.7001 63.4 11.8001 63.4C11.8001 63.4 11.8001 63.4 11.8001 63.5L-1.99985 96.6L-3.59985 97ZM8.80015 64.3L-3.49985 96.9L-2.09985 96.5L11.7001 63.5L8.80015 64.3Z" fill="#4C0003"/>
<path d="M5.0001 62.6L-5.3999 96.1L-4.2999 95.7L7.4001 61.7L5.0001 62.6Z" fill="#FDEFED"/>
<path d="M-5.5 96.2C-5.5 96.2 -5.5 96.1 -5.5 96.2L4.9 62.6L7.3 61.7C7.3 61.7 7.3 61.7 7.4 61.7C7.4 61.7 7.4 61.7 7.4 61.8L-4.2 95.8L-5.5 96.2C-5.4 96.2 -5.5 96.2 -5.5 96.2ZM5 62.7L-5.3 96L-4.3 95.6L7.3 61.8L5 62.7Z" fill="#4C0003"/>
<path d="M4.3002 60.5L-5.7998 95.1L-5.3998 96.1L5.0002 62.6L4.3002 60.5Z" fill="#FDEFED"/>
<path d="M-5.4999 96.2L-5.8999 95.1L4.2001 60.4C4.2001 60.4 4.2001 60.4 4.3001 60.4H4.4001L5.1001 62.6L-5.3999 96.2C-5.3999 96.2 -5.3999 96.2 -5.4999 96.2C-5.3999 96.2 -5.4999 96.2 -5.4999 96.2ZM4.9001 62.6L4.3001 60.7L-5.6999 95.1L-5.3999 96" fill="#4C0003"/>
<path d="M7.4002 61.7L-4.2998 95.7L-3.5998 96.9L8.7002 64.2L7.4002 61.7Z" fill="#FDEFED"/>
<path d="M-3.5998 97L-4.2998 95.7C-4.2998 95.7 -4.2998 95.7 -4.2998 95.6L7.3002 61.6C7.3002 61.6 7.3002 61.6 7.4002 61.6C7.4002 61.6 7.4002 61.6 7.5002 61.6L8.9002 64.1C8.9002 64.1 8.9002 64.1 8.9002 64.2L-3.5998 97C-3.4998 97 -3.4998 97 -3.5998 97ZM-4.1998 95.7L-3.5998 96.8L8.7002 64.2L7.4002 61.8L-4.1998 95.7Z" fill="#4C0003"/>
<path d="M16.1001 65.2L0.100098 97.4L0.500098 99L16.9001 68.3L16.1001 65.2Z" fill="#FDEFED"/>
<path d="M0.5 99C0.4 99 0.4 99 0.5 99L0 97.4L16 65.2C16 65.2 16 65.2 16.1 65.2C16.1 65.2 16.1 65.2 16.2 65.2L17 68.4L0.5 99ZM0.1 97.4L0.5 98.8L16.8 68.3L16 65.3L0.1 97.4Z" fill="#4C0003"/>
<path d="M32.7001 79.7L8.30005 104.7L8.40005 106.2L32.8 82.8L32.7001 79.7Z" fill="#FDEFED"/>
<path d="M8.40005 106.2L8.30005 104.6L32.6 79.7C32.6 79.7 32.6 79.7 32.7001 79.7C32.7001 79.7 32.7001 79.7 32.7001 79.8L32.8 82.8L8.40005 106.2ZM8.40005 104.7L8.50005 106L32.8 82.7L32.7001 79.8L8.40005 104.7Z" fill="#4C0003"/>
<path d="M23.3002 70.4L3.7002 100L3.9002 101.5L23.7002 73.5L23.3002 70.4Z" fill="#FDEFED"/>
<path d="M3.8001 101.6L3.6001 100L23.2001 70.4C23.2001 70.4 23.2001 70.4 23.3001 70.4C23.3001 70.4 23.3001 70.4 23.3001 70.5L23.6001 73.6L3.8001 101.6C3.9001 101.6 3.9001 101.6 3.8001 101.6ZM3.8001 100L3.9001 101.3L23.6001 73.4L23.3001 70.5L3.8001 100Z" fill="#4C0003"/>
<path d="M37.4 86.9L35.1 85.6L9.5 107.6L10.7 108.2L37.4 86.9Z" fill="#FDEFED"/>
<path d="M9.5 107.6C9.5 107.6 9.5 107.5 9.5 107.6L35 85.5H35.1L37.4 86.8C37.4 86.8 37.4 86.8 37.4 86.9L10.7 108.2C10.7 108.2 10.7 108.2 10.6 108.2L9.5 107.6ZM35.1 85.7L9.7 107.6L10.7 108.2L37.3 87L35.1 85.7Z" fill="#4C0003"/>
<path d="M35.3 83.6L9.7 106.6L9.5 107.6L35.1 85.6L35.3 83.6Z" fill="#FDEFED"/>
<path d="M9.5 107.6L9.6 106.5L35.3 83.5C35.3 83.5 35.3 83.5 35.4 83.5C35.4 83.5 35.4 83.5 35.4 83.6L35.2 85.6L9.5 107.6C9.6 107.6 9.5 107.6 9.5 107.6ZM9.7 106.6L9.6 107.4L35 85.5L35.2 83.7L9.7 106.6Z" fill="#4C0003"/>
<path d="M30.1001 79.3L7.1001 104.5L8.3001 104.7L32.7001 79.7L30.1001 79.3Z" fill="#FDEFED"/>
<path d="M7 104.5C7 104.5 7 104.4 7 104.5L30 79.3C30 79.3 30 79.3 30.1 79.3L32.7 79.7C32.7 79.7 32.7 79.7 32.8 79.7C32.8 79.7 32.8 79.7 32.8 79.8L8.4 104.7C8.4 104.7 8.4 104.7 8.3 104.7L7 104.5ZM30.1 79.4L7.2 104.4L8.3 104.6L32.5 79.8L30.1 79.4Z" fill="#4C0003"/>
<path d="M32.8001 82.8L8.40015 106.2L9.70015 106.6L35.3001 83.6L32.8001 82.8Z" fill="#FDEFED"/>
<path d="M8.40016 106.2C8.30016 106.2 8.40016 106.1 8.40016 106.2L32.8002 82.7C32.8002 82.7 32.8002 82.7 32.9002 82.7L35.4002 83.5C35.4002 83.5 35.4002 83.5 35.4002 83.6L9.70016 106.6C9.70016 106.6 9.70016 106.6 9.60016 106.6L8.40016 106.2ZM32.8002 82.8L8.50016 106.1L9.60016 106.4L35.1002 83.5L32.8002 82.8Z" fill="#4C0003"/>
<path d="M26.9002 73.3L5.50024 101.5L5.80024 103L27.5002 76.4L26.9002 73.3Z" fill="#FDEFED"/>
<path d="M5.70015 103.1C5.70015 103 5.70015 103 5.70015 103.1L5.40015 101.5L26.9001 73.3C26.9001 73.3 26.9001 73.3 27.0001 73.3C27.0001 73.3 27.0001 73.3 27.0001 73.4L27.5001 76.5C27.5001 76.5 27.5001 76.5 27.5001 76.6L5.70015 103.1C5.80015 103.1 5.80015 103.1 5.70015 103.1ZM5.60015 101.5L5.80015 102.9L27.4001 76.4L26.9001 73.5L5.60015 101.5Z" fill="#4C0003"/>
<path d="M30.4001 76.9L7.2001 103.2L7.1001 104.5L30.1001 79.3L30.4001 76.9Z" fill="#FDEFED"/>
<path d="M7 104.5L7.2 103.2L30.4 76.8C30.4 76.8 30.4 76.8 30.5 76.8C30.5 76.8 30.5 76.8 30.5 76.9L30.1 79.4L7 104.5C7.1 104.5 7.1 104.5 7 104.5ZM7.3 103.3L7.2 104.3L30.1 79.3L30.4 77.1L7.3 103.3Z" fill="#4C0003"/>
<path d="M23.7001 73.5L3.90015 101.5H5.50015L26.9001 73.3L23.7001 73.5Z" fill="#FDEFED"/>
<path d="M3.80005 101.6C3.80005 101.5 3.80005 101.5 3.80005 101.6L23.6 73.4L26.9 73.2C26.9 73.2 26.9 73.2 27 73.2C27 73.2 27 73.2 27 73.3L5.50005 101.5L3.80005 101.6C3.90005 101.6 3.80005 101.6 3.80005 101.6ZM23.7001 73.5L4.00005 101.5L5.50005 101.4L26.9 73.4L23.7001 73.5Z" fill="#4C0003"/>
<path d="M27.5003 76.4L5.80029 103L7.20029 103.2L30.4003 76.9L27.5003 76.4Z" fill="#FDEFED"/>
<path d="M5.7002 103.1C5.7002 103 5.7002 103 5.7002 103.1C5.7002 103 5.7002 103 5.7002 103.1L27.4002 76.4C27.4002 76.4 27.4002 76.4 27.5002 76.4L30.5002 76.9C30.5002 76.9 30.5002 76.9 30.5002 77L7.3002 103.3C7.3002 103.3 7.3002 103.3 7.2002 103.3L5.7002 103.1ZM27.5002 76.5L5.9002 103L7.2002 103.2L30.3002 76.9L27.5002 76.5Z" fill="#4C0003"/>
<path d="M0.500049 61.5L-5.79995 60.2L-6.19995 61.5L0.200048 62.7L0.500049 61.5Z" fill="#FDEFED"/>
<path d="M-6.19995 61.5L-5.89995 60.2C-5.89995 60.2 -5.89995 60.1 -5.79995 60.2L0.600049 61.5C0.600049 61.5 0.600049 61.5 0.600049 61.6L0.300049 62.9C0.300049 62.9 0.300048 63 0.200048 62.9L-6.19995 61.5ZM-5.79995 60.3L-6.09995 61.4L0.100049 62.6L0.400049 61.5L-5.79995 60.3Z" fill="#4C0003"/>
<path d="M0.200146 62.7L-6.19985 61.5L-6.59985 62.8L-0.199853 64.1L0.200146 62.7Z" fill="#FDEFED"/>
<path d="M-6.59985 62.9C-6.59985 62.9 -6.59985 62.8 -6.59985 62.9L-6.19985 61.5C-6.19985 61.5 -6.19985 61.4 -6.09985 61.5L0.300147 62.8L-0.0998535 64.2C-0.0998535 64.2 -0.0998535 64.3 -0.199853 64.2L-6.59985 62.9ZM-6.09985 61.5L-6.39985 62.8L-0.199853 64L0.100146 62.7L-6.09985 61.5Z" fill="#4C0003"/>
<path d="M0.900196 60.2L-5.4998 58.9L-5.7998 60.2L0.500196 61.5L0.900196 60.2Z" fill="#FDEFED"/>
<path d="M-5.8999 60.3C-5.8999 60.3 -5.8999 60.2 -5.8999 60.3C-5.8999 60.2 -5.8999 60.2 -5.8999 60.3L-5.5999 59C-5.5999 59 -5.5999 58.9 -5.4999 59L0.800098 60.3L0.500098 61.6C0.500098 61.6 0.500098 61.7 0.400098 61.6L-5.8999 60.3C-5.7999 60.3 -5.8999 60.3 -5.8999 60.3ZM-5.3999 59L-5.6999 60.2L0.500098 61.4L0.800098 60.3L-5.3999 59Z" fill="#4C0003"/>
<path d="M3.2 61.3L-3.2 60.1L-3.5 61.3L2.8 62.6L3.2 61.3Z" fill="#B1354E"/>
<path d="M2.50005 64.1L-3.89995 62.8L-4.19995 64.1L2.10005 65.4L2.50005 64.1Z" fill="#B1354E"/>
<path d="M2.00015 65.5L-4.29985 64.3L-4.59985 65.6L1.70015 66.8L2.00015 65.5Z" fill="#B1354E"/>
<path d="M0.800098 69.8L-5.5999 68.5L-5.8999 69.8L0.400098 71L0.800098 69.8Z" fill="#B1354E"/>
<path d="M0.100146 72.6L-6.29985 71.3L-6.59985 72.6L-0.299854 73.8L0.100146 72.6Z" fill="#B1354E"/>
<path d="M3.00005 59.9L-7.19995 95.6L-9.19995 95.1L0.700048 59.4L3.00005 59.9Z" fill="#FDEFED"/>
<path d="M-9.30005 95.1L0.599952 59.3L2.99995 59.8L-7.20005 95.7L-9.30005 95.1ZM0.699951 59.5L-9.20005 95L-7.30005 95.5L2.89995 60L0.699951 59.5Z" fill="#4C0003"/>
<path d="M4.7 59.6L-5.9 96.6L-8 96.1L2.3 59.1L4.7 59.6Z" fill="#005268"/>
<path d="M-8 96.2C-8 96.1 -8 96.1 -8 96.2C-8 96.1 -8 96.1 -8 96.2L2.3 59C2.3 59 2.3 58.9 2.4 59L4.8 59.5C4.8 59.5 4.8 59.5 4.8 59.6L-5.8 96.6C-5.8 96.6 -5.8 96.7 -5.9 96.6L-8 96.2ZM4.6 59.6L2.3 59.1L-7.9 96.1L-6 96.6" fill="#4C0003"/>
<path d="M15.4 65.8L5.19995 85.9L15 66L15.4 65.8Z" fill="#F8CBC7"/>
<path d="M11.3001 64L10.8001 64.1L2.1001 85.9L11.3001 64Z" fill="#F8CBC7"/>
<path d="M6.8001 62.6L6.2001 62.8L-1.3999 86L6.8001 62.6Z" fill="#F8CBC7"/>
<path d="M19.5 68.5L7.80005 88L19 68.7L19.5 68.5Z" fill="#F8CBC7"/>
<path d="M22.5 70.9L9.69995 90.7L22 71.1L22.5 70.9Z" fill="#F8CBC7"/>
<path d="M26.1 73.6L11.3 93.3L25.7 73.7L26.1 73.6Z" fill="#F8CBC7"/>
<path d="M29.7001 77.2L12.6001 96.5L29.2001 77.4L29.7001 77.2Z" fill="#F8CBC7"/>
<path d="M31.8 79.9L13.3 99.1L31.4 80.1L31.8 79.9Z" fill="#F8CBC7"/>
<path d="M34.5001 83.6L13.6001 102.6L34.0001 83.7L34.5001 83.6Z" fill="#F8CBC7"/>
<path d="M36.5 86.9L13.3 105.7L36 87L36.5 86.9Z" fill="#F8CBC7"/>
<path d="M39.7 88.7L10.2 110.7L9 109.1L37.9 86.4L39.7 88.7Z" fill="#005268"/>
<path d="M10.2 110.8L9 109.2V109.1L38 86.3L39.8 88.6L10.2 110.8ZM39.6 88.7L37.9 86.5L9 109.2L10.2 110.7" fill="#4C0003"/>
<path d="M132 6.1C131.2 6.1 130.3 6.2 129.5 6.4C127.2 6.6 125.1 7.2 123.9 7.7C121.6 8.6 119.1 8.1 118.3 6.1C117.9 5.1 117.2 4.1 116.6 3.3C115.6 1.5 114.2 0.0999999 112.3 -0.8L107.6 -3L107 -1.6C102.1 -1 97 2.9 94.1 8.9C91.2 14.9 91.4 21.3 94 25.5L93.3 27L98 29.2C99.2 29.8 100.6 30.1 101.9 30.1C101.9 30.1 102 30.1 102.1 30.1H102.2C103 30.1 105.2 30 106.9 29.6C109 29.1 111 30.6 111.7 33C112.1 34.4 113.3 36.9 114.8 39C115.2 39.6 115.6 40.2 116.1 40.7C115.3 40.9 114.7 41 114.7 41L119.2 43.1C119.4 43.2 119.5 43.3 119.7 43.4C127.1 46.9 137 41.7 141.8 31.7C146.5 22 144.6 11.3 137.7 7.5L132.4 5L132 6.1Z" fill="#005268" stroke="#4C0003" stroke-width="0.01" stroke-miterlimit="10"/>
<path d="M141.8 31.7C137 41.7 127.1 47 119.6 43.5C119.5 43.4 119.3 43.4 119.1 43.3L114.6 41.2C114.6 41.2 114.6 41.2 114.6 41.1C114.6 41.1 114.6 41 114.7 41L116 40.7C115.6 40.2 115.2 39.7 114.8 39.1C113.2 36.8 112.1 34.4 111.7 33C111 30.5 109 29.1 107 29.6C105.3 30 103.1 30.1 102.3 30.1H102.2C102 30.1 102 30.1 102 30.1C100.6 30.1 99.3 29.8 98.1 29.2L93.3 27C93.3 27 93.2 26.9 93.3 26.9L94 25.5C91.3 21.2 91.4 14.6 94.1 8.8C96.9 3 101.9 -1.1 107 -1.8L107.7 -3.2C107.7 -3.2 107.8 -3.3 107.8 -3.2L112.5 -1C114.3 -0.100001 115.7 1.2 116.8 3.1C117.5 4.1 118.1 5.1 118.5 5.9C119.3 7.8 121.7 8.4 124 7.4C125.3 6.9 127.5 6.4 129.6 6.1C130.4 5.9 131.2 5.8 132 5.8L132.5 4.7C132.5 4.7 132.5 4.7 132.6 4.7L137.9 7.2C144.7 11.4 146.5 22 141.8 31.7ZM119.2 43.1C119.4 43.2 119.6 43.3 119.7 43.4C127 46.9 136.9 41.7 141.7 31.7C146.3 22 144.5 11.4 137.6 7.6L132.5 5.1L132 6.1C132 6.1 132 6.1 131.9 6.1C131.1 6.1 130.3 6.2 129.4 6.4C127.3 6.6 125.1 7.1 123.8 7.7C121.3 8.7 118.9 8 118.1 6.1C117.7 5.3 117.2 4.4 116.5 3.3C115.5 1.5 114 0.0999987 112.3 -0.700001L107.7 -2.9L107 -1.6C107 -1.6 107 -1.6 106.9 -1.6C101.9 -1 96.8 3.1 94.1 8.9C91.3 14.7 91.3 21.2 94 25.5V25.6L93.4 26.9L98 29.1C99.2 29.7 100.5 30 101.9 30C101.9 30 102 30 102.1 30H102.2C103.1 30 105.2 29.9 106.9 29.5C109 29 111 30.4 111.7 33C112.1 34.3 113.2 36.8 114.8 39C115.2 39.6 115.6 40.2 116.1 40.7C116.1 40.7 116.1 40.7 116.1 40.8C116.1 40.8 116.1 40.8 116 40.9L114.8 41.2L119.2 43.1Z" fill="#005268" stroke="#4C0003" stroke-width="0.01" stroke-miterlimit="10"/>
<path d="M125.4 4.40002C123.1 4.60002 121 5.20002 119.8 5.70002C117.5 6.60002 115 6.10002 114.2 4.10002C113.8 3.10002 113.1 2.10002 112.5 1.30002C111.5 -0.499977 110.1 -1.89998 108.2 -2.79998C102.1 -5.59998 94 -1.29998 90 7.00002C86 15.3 87.8 24.4 93.9 27.3C95.1 27.9 96.5 28.2 97.8 28.2C97.8 28.2 97.9 28.2 98 28.2H98.1C98.9 28.2 101.1 28.1 102.8 27.7C104.9 27.2 106.9 28.7 107.6 31.1C108 32.5 109.2 35 110.7 37.1C111.5 38.4 112.5 39.5 113.6 40.3C113.7 40.4 113.8 40.4 113.9 40.5C114.4 40.9 115 41.2 115.5 41.5C122.9 45 132.8 39.8 137.6 29.8C142.4 19.8 140.3 8.80002 132.9 5.30002C130.6 4.10002 128 3.90002 125.4 4.40002Z" fill="#F3A8A1" stroke="#4C0003" stroke-width="0.01" stroke-miterlimit="10"/>
<path d="M137.8 29.8C133 39.8 123.1 45.1 115.6 41.6C115 41.3 114.5 41 113.9 40.6C113.8 40.5 113.7 40.5 113.6 40.4C112.5 39.5 111.5 38.4 110.7 37.1C109.1 34.8 108 32.4 107.6 31C106.9 28.5 104.9 27.1 102.9 27.6C101.2 28 98.9999 28.1 98.1999 28.1H98.0999C97.8999 28.1 97.8999 28.1 97.8999 28.1C96.4999 28.1 95.1999 27.8 93.9999 27.2C87.7999 24.4 85.9999 15.2 89.9999 6.90001C93.9999 -1.39999 102.2 -5.79999 108.3 -2.79999C110.1 -1.89999 111.5 -0.599987 112.6 1.30001C113.3 2.30001 113.9 3.30001 114.3 4.10001C115.1 6.00001 117.5 6.60001 119.8 5.60001C121.1 5.10001 123.3 4.60001 125.4 4.30001C128.1 3.80001 130.7 4.00001 133 5.10001C140.4 8.70001 142.6 19.8 137.8 29.8ZM97.8999 28.1C97.8999 28.1 97.9999 28.1 98.0999 28.1H98.1999C99.0999 28.1 101.2 28 102.9 27.6C105 27.1 107 28.5 107.7 31.1C108.1 32.4 109.2 34.9 110.8 37.1C111.6 38.4 112.6 39.5 113.7 40.3C113.8 40.4 113.9 40.4 114 40.5C114.5 40.9 115.1 41.2 115.6 41.5C122.9 45 132.8 39.8 137.6 29.8C142.4 19.8 140.3 8.90001 132.9 5.40001C130.6 4.30001 128 4.00001 125.4 4.60001C123.3 4.80001 121.1 5.30001 119.8 5.90001C117.3 6.90001 114.9 6.20001 114.1 4.30001C113.7 3.50001 113.2 2.60001 112.5 1.50001C111.5 -0.299987 110 -1.69999 108.3 -2.49999C102.2 -5.59999 93.9999 -1.19999 90.0999 7.00001C86.1999 15.2 87.8999 24.3 93.9999 27.2C95.1999 27.8 96.4999 28.1 97.8999 28.1Z" fill="#005268" stroke="#4C0003" stroke-width="0.01" stroke-miterlimit="10"/>
<path d="M109.3 8.50001C112.7 10.1 114.1 14.2 112.5 17.6C110.9 21 106.8 22.4 103.4 20.8C99.9999 19.2 98.5999 15.1 100.2 11.7C101.8 8.3 105.9 6.80001 109.3 8.50001Z" fill="#005268" stroke="#4C0003" stroke-width="0.01" stroke-miterlimit="10"/>
<path d="M109.7 9.49999C112.7 10.9 114 14.5 112.5 17.5C111.1 20.5 107.5 21.8 104.5 20.3C101.5 18.9 100.2 15.3 101.7 12.3C103.1 9.29999 106.7 8.09999 109.7 9.49999Z" fill="#F8CBC7" stroke="#4C0003" stroke-width="0.01" stroke-miterlimit="10"/>
<path d="M112.6 17.6C111 21 106.9 22.5 103.4 20.8C100 19.2 98.5 15.1 100.2 11.6C101.8 8.2 105.9 6.7 109.4 8.4C112.9 10.1 114.2 14.1 112.6 17.6ZM100.3 11.7C98.7 15 100.1 19.1 103.5 20.7C106.8 22.3 110.9 20.9 112.5 17.5C114.1 14.2 112.7 10.1 109.3 8.5C105.9 6.9 101.9 8.3 100.3 11.7Z" fill="#005268" stroke="#4C0003" stroke-width="0.01" stroke-miterlimit="10"/>
<path d="M61.7476 -9.26752L59.3755 -4.30542L89.2383 9.97061L91.6105 5.00851L61.7476 -9.26752Z" fill="#F3A8A1" stroke="#4C0003" stroke-width="0.01" stroke-miterlimit="10"/>
<path d="M91.6999 5.09999L89.2999 10.1C89.2999 10.1 89.1999 10.2 89.1999 10.1L59.3999 -4.20001C59.3999 -4.20001 59.2999 -4.30001 59.3999 -4.30001L61.7999 -9.30001C61.7999 -9.30001 61.8999 -9.40001 61.8999 -9.30001L91.6999 4.99999C91.6999 4.99999 91.6999 4.99999 91.6999 5.09999ZM89.1999 9.89999L91.4999 5.09999L61.7999 -9.10001L59.4999 -4.30001L89.1999 9.89999Z" fill="#005268" stroke="#4C0003" stroke-width="0.01" stroke-miterlimit="10"/>
<path d="M127.8 24.3C127.8 24.4 127.6 24.4 127.5 24.4L60.7999 -7.49999C60.6999 -7.49999 60.7 -7.69999 60.7 -7.79999C60.7 -7.89999 60.9 -7.89999 61 -7.89999L127.7 24C127.8 24.1 127.8 24.2 127.8 24.3Z" fill="#005268" stroke="#4C0003" stroke-width="0.01" stroke-miterlimit="10"/>
<path d="M128.2 23.3C128.2 23.4 128 23.4 127.9 23.4L61.1999 -8.49999C61.0999 -8.49999 61.0999 -8.69999 61.0999 -8.79999C61.0999 -8.89999 61.2999 -8.89999 61.3999 -8.89999L128.1 23C128.2 23.1 128.3 23.2 128.2 23.3Z" fill="#005268" stroke="#4C0003" stroke-width="0.01" stroke-miterlimit="10"/>
<path d="M127.3 25.2C127.3 25.3 127.1 25.3 127 25.3L60.3998 -6.6C60.2998 -6.6 60.2998 -6.8 60.2998 -6.9C60.2998 -7 60.3998 -7 60.4998 -7L127.2 24.9C127.4 25 127.4 25.1 127.3 25.2Z" fill="#005268" stroke="#4C0003" stroke-width="0.01" stroke-miterlimit="10"/>
<path d="M126.9 26.1C126.9 26.2 126.7 26.2 126.6 26.2L59.8998 -5.70001C59.7998 -5.70001 59.7998 -5.90001 59.7998 -6.00001C59.7998 -6.10001 59.9998 -6.10001 60.0998 -6.10001L126.8 25.8C126.9 25.9 127 26 126.9 26.1Z" fill="#005268" stroke="#4C0003" stroke-width="0.01" stroke-miterlimit="10"/>
<path d="M126.5 27C126.5 27.1 126.3 27.1 126.2 27.1L59.4999 -4.79998C59.3999 -4.79998 59.3999 -4.99998 59.3999 -5.09998C59.3999 -5.19998 59.5999 -5.19998 59.6999 -5.19998L126.4 26.7C126.5 26.8 126.5 26.9 126.5 27Z" fill="#005268" stroke="#4C0003" stroke-width="0.01" stroke-miterlimit="10"/>
<path d="M128.7 22.8L126.3 27.8C126.3 27.9 126.1 27.9 126 27.9L59.2999 -4.1C59.1999 -4.1 59.2 -4.3 59.2 -4.4L61.5999 -9.4C61.5999 -9.5 61.8 -9.5 61.9 -9.5L128.6 22.4C128.7 22.5 128.7 22.7 128.7 22.8ZM126 27.4L128.2 22.8L61.9 -9L59.7 -4.4L126 27.4Z" fill="#005268" stroke="#4C0003" stroke-width="0.01" stroke-miterlimit="10"/>
<path d="M97.9 27C97.9 27 87 25.4 89.3 11.1C89.3 11.1 87.5 22.4 97.9 27Z" fill="#005268" stroke="#4C0003" stroke-width="0.01" stroke-miterlimit="10"/>
<path d="M45.0001 12.5C44.7001 10.6 45.9001 8.7 47.9001 8.4C49.8001 8.1 51.7001 9.3 52.0001 11.3C52.3001 13.2 51.1001 15.1 49.1001 15.4C47.2001 15.7 45.4001 14.5 45.0001 12.5Z" fill="#F8CBC7" stroke="#4C0003" stroke-width="0.1" stroke-miterlimit="10"/>
<path d="M41.5 9.80003C41.4 11.8 39.8 13.3 37.8 13.2C35.8 13.1 34.3 11.5 34.4 9.50003C34.5 7.50003 36.1 6.00003 38.1 6.10003C40 6.20003 41.6 7.90003 41.5 9.80003Z" fill="#F8CBC7" stroke="#4C0003" stroke-width="0.1" stroke-miterlimit="10"/>
<path d="M54.2 6.80002C53.9 4.90002 55.1 3.00002 57.1 2.70002C59 2.40002 60.9 3.60002 61.2 5.60002C61.5 7.50002 60.3 9.40002 58.3 9.70002C56.4 10 54.6 8.70002 54.2 6.80002Z" fill="#F8CBC7" stroke="#4C0003" stroke-width="0.1" stroke-miterlimit="10"/>
<path d="M32.5 -3.19997C34.5 -2.79997 35.7 -0.99997 35.3 1.00003C34.9 2.90003 33.1 4.20003 31.1 3.80003C29.2 3.40003 27.9 1.60003 28.3 -0.399971C28.7 -2.29997 30.6 -3.59997 32.5 -3.19997Z" fill="#F8CBC7" stroke="#4C0003" stroke-width="0.1" stroke-miterlimit="10"/>
<path d="M43.3001 -16.9C51.4001 -18.3 59.1001 -13 60.5001 -4.89999C61.9001 3.20001 56.6001 10.9 48.5001 12.3C40.4001 13.7 32.7001 8.40001 31.3001 0.300013C29.9001 -7.69999 35.3001 -15.4 43.3001 -16.9Z" fill="#F8CBC7" stroke="#4C0003" stroke-width="0.1" stroke-miterlimit="10"/>
<path d="M43.2001 -17.5C51.6001 -19 59.7001 -13.4 61.2001 -4.99998C62.7001 3.40002 57.1001 11.4 48.7001 12.9C40.3001 14.4 32.3001 8.80002 30.8001 0.400024C29.3001 -7.89998 34.8001 -15.9 43.2001 -17.5ZM48.4001 11.1C55.8001 9.80002 60.7001 2.70002 59.4001 -4.69998C58.1001 -12.1 51.0001 -17 43.6001 -15.7C36.2001 -14.4 31.3001 -7.29998 32.6001 0.100023C33.9001 7.50002 41.0001 12.5 48.4001 11.1Z" fill="#005268" stroke="#4C0003" stroke-width="0.1" stroke-miterlimit="10"/>
<path d="M48.2 10.1C41.4 11.4 34.8 6.80001 33.6 7.62939e-06C32.4 -6.79999 36.9 -13.4 43.8 -14.6C50.6 -15.8 57.2 -11.3 58.4 -4.39999C59.6 2.40001 55 8.90001 48.2 10.1ZM48.4 11.1C55.8 9.80001 60.7 2.70001 59.4 -4.69999C58.1 -12.1 51 -17 43.6 -15.7C36.2 -14.4 31.3 -7.29999 32.6 0.100008C33.9 7.50001 41 12.5 48.4 11.1Z" fill="#B1354E" stroke="#4C0003" stroke-width="0.1" stroke-miterlimit="10"/>
<path opacity="0.4" d="M31.8001 3.8C32.5001 5.50001 33.5001 7 34.7001 8.2C34.4001 8.8 34.3001 9.50001 34.5001 10.3C34.8001 12.2 36.7001 13.5 38.6001 13.2C39.4001 13.1 40.0001 12.7 40.5001 12.2C42.0001 12.8 43.6001 13.1 45.2001 13.2C45.8001 14.8 47.4001 15.7 49.1001 15.4L43.2001 -17.4C40.3001 -16.9 37.7001 -15.6 35.7001 -13.7C35.1001 -14 34.4001 -14.1 33.7001 -13.9C31.8001 -13.6 30.5001 -11.7 30.8001 -9.79999C30.9001 -9.09999 31.2001 -8.49999 31.7001 -7.99999C31.0001 -6.49999 30.6001 -4.79999 30.5001 -2.99999C29.0001 -2.39999 28.0001 -0.799995 28.4001 0.900005C28.7001 2.60001 30.1001 3.8 31.8001 3.8Z" fill="#FDEFED" stroke="#4C0003" stroke-width="0.1" stroke-miterlimit="10"/>
<path d="M-19.9462 -22.3632L-23.3574 -18.4388L8.18904 8.98205L11.6002 5.05761L-19.9462 -22.3632Z" fill="#F3A8A1" stroke="#4C0003" stroke-width="0.15" stroke-miterlimit="10"/>
<path d="M11.6219 5.01791L8.21069 8.94235L10.022 10.5168L13.4332 6.59231L11.6219 5.01791Z" fill="#B1354E" stroke="#4C0003" stroke-width="0.15" stroke-miterlimit="10"/>
<path d="M10 10.5L13.4 6.60001C13.4 6.60001 16.5 9.40001 19.9 8.90001C20.2 8.90001 20.3 9.20001 20.2 9.40001L13.6 17C13.4 17.2 13.2 17.1 13.2 16.8C13.2 13.2 10 10.5 10 10.5Z" fill="#2B6F81" stroke="#4C0003" stroke-width="0.15" stroke-miterlimit="10"/>
<path d="M1.3 1.79999C1.4 1.59999 1 1.09999 0.400005 0.499988C-0.199995 -1.24574e-05 -0.799995 -0.300012 -0.899995 -0.100012C-0.999995 0.0999875 -0.699995 0.599988 -0.0999953 1.09999C0.500005 1.69999 1.1 1.89999 1.3 1.79999Z" fill="#4C0003" stroke="#4C0003" stroke-width="0.15" stroke-miterlimit="10"/>
<path d="M6.09993 5.9C6.19993 5.7 5.89993 5.2 5.29993 4.7C4.59993 4.2 3.99993 3.9 3.89993 4.1C3.69993 4.2 4.09993 4.8 4.69993 5.3C5.29993 5.8 5.89993 6.1 6.09993 5.9Z" fill="#4C0003" stroke="#4C0003" stroke-width="0.15" stroke-miterlimit="10"/>
<path opacity="0.4" d="M-26.1001 -24.3L-25.2001 -24.5C-23.9001 -24.9 -22.4001 -24.5 -21.4001 -23.6L-19.9001 -22.3L11.5999 4.99999L13.3999 6.59999C13.3999 6.59999 16.3999 9.39999 19.8999 8.89999C20.1999 8.89999 20.2999 9.19999 20.1999 9.39999L16.9999 13.1L-26.1001 -24.3Z" fill="#FDEFED" stroke="#4C0003" stroke-width="0.15" stroke-miterlimit="10"/>
<path d="M26 33.6C26 33.5 25.8999 33.5 25.8999 33.4C22.5999 28.4 15.2999 27.9 11 31.6C9.49995 32.8 7.99995 34.4 6.99995 36.1C5.79995 38 4.79995 40.1 3.79995 42.1C3.09995 43.6 2.99995 45.1 1.49995 45.9C-1.00005 47.3 -10.9001 51 -11.5001 53.3C-12.2001 55.6 -9.80005 57.4 -7.00005 55.6C-4.20005 53.8 2.59995 48.3 3.69995 48C4.69995 47.7 6.49995 48.2 7.39995 48.3C8.59995 48.5 9.69995 48.6 10.9 48.6C15.5999 48.6 20.7999 47.4 24.0999 43.8C26.3999 41.1 28.0999 37.1 26 33.6Z" fill="#F3A8A1" stroke="#4C0003" stroke-width="0.05" stroke-miterlimit="10"/>
<path d="M17.3 31.1C17 30.5 16.8 29.9 16.5 29.3C15.1 29.4 13.7 29.9 12.5 30.6C14.1 30.8 15.7 31 17.3 31.1Z" fill="#FDEFED" stroke="#4C0003" stroke-width="0.05" stroke-miterlimit="10"/>
<path d="M14.9 33C15.6 32.4 16.4 31.9 17.1 31.3C15.5 31.1 13.9 30.9 12.3 30.7C12.4 32 12.7 33.3 13 34.5C13.6 34 14.3 33.5 14.9 33Z" fill="#FDEFED" stroke="#4C0003" stroke-width="0.05" stroke-miterlimit="10"/>
<path d="M19.2001 35.5C17.9001 35.3 16.7001 35.1 15.4001 35C14.8001 34.9 14.1001 34.9 13.4001 34.8C13.3001 34.8 13.2001 34.8 13.1001 34.8C13.5001 36.1 14.0001 37.3 14.6001 38.5C14.8001 38.9 15.0001 39.2 15.2001 39.6C16.6001 38.2 17.9001 36.8 19.2001 35.5Z" fill="#FDEFED" stroke="#4C0003" stroke-width="0.05" stroke-miterlimit="10"/>
<path d="M16.8001 39.5C17.6001 39.4 18.5001 39.3 19.3001 39.3C20.1001 39.2 20.9001 39.2 21.7001 39.1C21.0001 37.9 20.3001 36.7 19.6001 35.5H19.5001C18.1001 36.9 16.8001 38.3 15.4001 39.7C15.8001 39.6 16.3001 39.5 16.8001 39.5Z" fill="#FDEFED" stroke="#4C0003" stroke-width="0.05" stroke-miterlimit="10"/>
<path d="M17.8 43.7C19 42.2 20.2 40.7 21.5 39.3C20.7 39.4 19.9 39.4 19.1 39.5C18.2 39.6 17.3 39.6 16.5 39.7C16.2 39.7 15.8 39.8 15.5 39.8C16.1 41.2 16.9 42.5 17.8 43.7Z" fill="#FDEFED" stroke="#4C0003" stroke-width="0.05" stroke-miterlimit="10"/>
<path d="M21.6 42.7C22.2 42.5 22.9 42.4 23.6 42.3C23 41.3 22.3999 40.4 21.7999 39.4C20.4999 40.7 19.4 42.2 18.2 43.6C19.3 43.2 20.4 43 21.6 42.7Z" fill="#FDEFED" stroke="#4C0003" stroke-width="0.05" stroke-miterlimit="10"/>
<path d="M21.1001 46.1C22.1001 45.5 23.1001 44.7 23.9001 43.8C24.0001 43.7 24.1001 43.5 24.3001 43.4C24.1001 43.1 23.9001 42.8 23.7001 42.5C22.8001 43.7 22.0001 44.9 21.1001 46.1Z" fill="#FDEFED" stroke="#4C0003" stroke-width="0.05" stroke-miterlimit="10"/>
<path d="M23.5001 42.4C22.9001 42.5 22.4001 42.6 21.8001 42.8C20.5001 43.1 19.2001 43.4 17.9001 43.8C18.6001 44.8 19.3001 45.7 20.1001 46.6C20.3001 46.5 20.5001 46.4 20.6001 46.3C21.6001 45.1 22.5001 43.7 23.5001 42.4Z" fill="#FDEFED" stroke="#4C0003" stroke-width="0.05" stroke-miterlimit="10"/>
<path d="M15.5 31.8C15 31.7 14.5 31.7 14.1 31.7C13.6 31.7 13 31.7 12.5 31.7C12.6 32.4 12.7 33 12.9 33.7C13.7 33 14.6 32.4 15.5 31.8Z" fill="#4C0003" stroke="#4C0003" stroke-width="0.05" stroke-miterlimit="10"/>
<path d="M14.7 38.5C15.2 38.1 15.6 37.7 16.1 37.3C16.7 36.8 17.3 36.4 18 35.9C17.6 35.9 17.2 35.8 16.7 35.8C15.6 35.8 14.5 35.8 13.5 35.8C13.8 36.7 14.2 37.6 14.7 38.5C14.6 38.5 14.6 38.5 14.7 38.5Z" fill="#4C0003"/>
<path d="M14.7 38.5C15.2 38.1 15.6 37.7 16.1 37.3C16.7 36.8 17.3 36.4 18 35.9C17.6 35.9 17.2 35.8 16.7 35.8C15.6 35.8 14.5 35.8 13.5 35.8C13.8 36.7 14.2 37.6 14.7 38.5ZM14.7 38.5C14.6 38.5 14.6 38.5 14.7 38.5Z" stroke="#4C0003" stroke-width="0.05" stroke-miterlimit="10"/>
<path d="M19.4 40.3C19.2 40.3 19.1 40.3 18.9 40.3C17.8 40.3 16.8 40.4 15.8 40.4C16.3 41.2 16.8 42.1 17.3 42.9C17.9 42 18.7 41.1 19.4 40.3Z" fill="#4C0003" stroke="#4C0003" stroke-width="0.05" stroke-miterlimit="10"/>
<path d="M20.4 45.3C20.8 44.7 21.3 44.2 21.7 43.6C20.6 43.9 19.5 44.3 18.5 44.6C18.9 45.1 19.3 45.7 19.8 46.2C19.9 45.9 20.2 45.6 20.4 45.3Z" fill="#4C0003" stroke="#4C0003" stroke-width="0.05" stroke-miterlimit="10"/>
<path d="M19.4 35.2C18.7 33.9 18.1 32.6 17.5 31.3C17.5 31.3 17.5 31.3 17.4 31.3C16.7 31.9 16 32.4 15.3 32.9C14.6 33.4 13.9 34 13.3 34.6C13.7 34.7 14.3 34.7 14.5 34.7C15 34.7 15.5 34.8 16 34.8C17.1 35 18.2 35.1 19.4 35.2C19.4 35.3 19.4 35.3 19.4 35.2Z" fill="#FDEFED"/>
<path d="M19.4 35.2C18.7 33.9 18.1 32.6 17.5 31.3C17.5 31.3 17.5 31.3 17.4 31.3C16.7 31.9 16 32.4 15.3 32.9C14.6 33.4 13.9 34 13.3 34.6C13.7 34.7 14.3 34.7 14.5 34.7C15 34.7 15.5 34.8 16 34.8C17.1 35 18.2 35.1 19.4 35.2ZM19.4 35.2C19.4 35.3 19.4 35.3 19.4 35.2Z" stroke="#4C0003" stroke-width="0.05" stroke-miterlimit="10"/>
<path d="M16.4 30C16.6 30 16.8 30.1 16.9 30.1C16.8 29.8 16.6 29.5 16.5 29.2C15.7 29.3 15 29.4 14.3 29.7C15 29.8 15.7 29.9 16.4 30Z" fill="#4C0003" stroke="#4C0003" stroke-width="0.05" stroke-miterlimit="10"/>
<path d="M17.7 38.6H17.7999C18.4999 38.6 19.1999 38.6 19.9 38.6C20.4 38.6 20.7999 38.6 21.2999 38.7C20.7999 37.9 20.4 37.1 19.9 36.3C19.5 36.7 19.1 37 18.7 37.5C18.4 37.9 18.1 38.3 17.7 38.6Z" fill="#4C0003" stroke="#4C0003" stroke-width="0.05" stroke-miterlimit="10"/>
<path d="M23.2001 41.6C22.9001 41.1 22.5001 40.5 22.2001 40C21.6001 40.8 21.0001 41.5 20.4001 42.3C21.3001 42.1 22.2001 41.9 23.2001 41.6Z" fill="#4C0003" stroke="#4C0003" stroke-width="0.05" stroke-miterlimit="10"/>
<path d="M23.4001 44.4C23.6001 44.2 23.8001 44 23.9001 43.8C24.0001 43.7 24.1001 43.5 24.3001 43.4C24.3001 43.4 24.3001 43.4 24.3001 43.3C24.0001 43.7 23.7001 44 23.4001 44.4Z" fill="#4C0003" stroke="#4C0003" stroke-width="0.05" stroke-miterlimit="10"/>
<path d="M18.9001 34.3C18.6001 33.6 18.2001 33 17.9001 32.3C17.2001 32.8 16.5001 33.4 15.9001 33.9C16.9001 34 17.9001 34.1 18.9001 34.3Z" fill="#4C0003" stroke="#4C0003" stroke-width="0.05" stroke-miterlimit="10"/>
<path d="M4.39995 40.8C4.19995 41.2 3.99995 41.7 3.79995 42.1C3.19995 43.5 2.99995 45 1.69995 45.8C1.99995 46.7 2.49995 47.5 3.09995 48.3C3.29995 48.1 3.49995 48 3.59995 48C4.59995 47.7 6.39995 48.2 7.29995 48.3C7.79995 48.4 8.19995 48.4 8.69995 48.5C6.39995 46.5 4.89995 43.8 4.39995 40.8Z" fill="#005268" stroke="#4C0003" stroke-width="0.05" stroke-miterlimit="10"/>
<path d="M4.5001 45.5L5.2001 45.7L4.6001 46.1V46.9L4.0001 46.4L3.3001 46.7L3.5001 46L3.1001 45.4H3.8001L4.2001 44.8L4.5001 45.5Z" fill="#FDEFED" stroke="#4C0003" stroke-width="0.05" stroke-miterlimit="10"/>
<path d="M-11.1 55.7C-11.7 55.1 -11.9 54.2 -11.6 53.2C-11.1 51.5 -5.59996 49 -1.69996 47.2C-0.399964 46.6 0.800037 46.1 1.50004 45.7C2.60004 45.1 2.90004 44.2 3.30004 43.1C3.40004 42.7 3.60004 42.4 3.70004 42C4.80004 39.6 5.80004 37.7 6.90004 35.9C7.90004 34.4 9.30004 32.7 10.8 31.4C14.9 28 21.2 28.1 24.8 31.8C25.2 32.2 25.6 32.7 25.9 33.2C25.9 33.3 26 33.4 26 33.4C28.7 37.8 25.1 42.4 24 43.7C20.2 48 14.1 48.6 10.8 48.6C9.70004 48.6 8.60004 48.5 7.30004 48.3C7.10004 48.3 6.90004 48.2 6.70004 48.2C5.70004 48 4.40004 47.8 3.60004 48C3.00004 48.2 0.600037 50 -1.79996 51.8C-3.79996 53.3 -5.79996 54.8 -6.99996 55.6C-8.89996 56.8 -10.4 56.4 -11.1 55.7ZM24.7 32.1C21.2 28.5 15 28.3 11 31.7C9.50004 33 8.10004 34.6 7.10004 36.1C6.00004 37.8 5.00004 39.7 3.90004 42.1C3.70004 42.5 3.60004 42.8 3.50004 43.2C3.10004 44.3 2.70004 45.3 1.60004 45.9C0.900037 46.3 -0.199963 46.8 -1.59996 47.4C-5.29996 49.1 -10.9 51.6 -11.4 53.2C-11.6 54.1 -11.5 54.9 -10.9 55.5C-10.2 56.2 -8.79996 56.6 -7.09996 55.4C-5.79996 54.6 -3.79996 53.1 -1.89996 51.6C0.600037 49.8 3.00004 48 3.60004 47.9C4.40004 47.7 5.80004 47.9 6.80004 48.1C7.00004 48.1 7.20004 48.2 7.40004 48.2C8.70004 48.4 9.80004 48.5 10.9 48.5C14.2 48.5 20.2 47.9 24 43.7C25.1 42.4 28.6 37.9 26 33.7C26 33.6 25.9 33.6 25.9 33.5C25.4 33 25.1 32.5 24.7 32.1Z" stroke="#4C0003" stroke-width="0.05" stroke-miterlimit="10"/>
<path opacity="0.4" d="M23.8001 43.7C26.3001 41 28.0001 37 25.8001 33.5C25.8001 33.4 25.7001 33.4 25.7001 33.3C25.5001 33 25.3001 32.8 25.1001 32.5C25.2001 32.9 25.2001 33.3 25.1001 33.7C24.8001 35.4 23.7001 37 22.6001 38.2C20.0001 41.2 16.4001 43.1 12.6001 44.2C11.0001 44.7 9.1001 45 7.3001 44.7C5.7001 44.7 4.0001 44.8 2.7001 45.8C-0.0999031 48 -2.4999 50.7 -5.6999 52.4C-6.5999 52.9 -7.7999 53.3 -8.7999 52.8C-9.3999 52.5 -9.5999 51.9 -9.2999 51.3C-9.1999 51.1 -9.1999 51 -9.0999 50.8C-10.3999 51.6 -11.3999 52.4 -11.5999 53.1C-12.2999 55.4 -9.8999 57.2 -7.0999 55.4C-4.2999 53.6 2.5001 48.1 3.6001 47.8C4.6001 47.5 6.4001 48 7.3001 48.1C8.5001 48.3 9.6001 48.4 10.8001 48.4C15.4001 48.5 20.6001 47.3 23.8001 43.7Z" fill="#FDEFED" stroke="#4C0003" stroke-width="0.05" stroke-miterlimit="10"/>
<path opacity="0.4" d="M22.0001 31C19.5001 30.1 16.8001 30.2 14.3001 31C11.7001 31.8 8.90007 34.3 7.90007 36.8C7.80007 37.1 8.40007 37.2 8.60007 37.1C10.6001 35.6 12.2001 33.6 14.5001 32.4C16.7001 31.2 19.5001 30.8 21.9001 31.2C22.0001 31.2 22.2001 31.1 22.0001 31Z" fill="#FDEFED" stroke="#4C0003" stroke-width="0.05" stroke-miterlimit="10"/>
<path opacity="0.4" d="M6.80004 39C6.90004 38.8 7.00004 38.7 7.20004 38.5C7.30004 38.4 7.20004 38.3 7.10004 38.3C7.00004 38.3 6.90004 38.3 6.80004 38.4C6.60004 38.6 6.50004 38.7 6.40004 38.9C6.20004 39.1 6.70004 39.1 6.80004 39Z" fill="#FDEFED" stroke="#4C0003" stroke-width="0.05" stroke-miterlimit="10"/>
<path d="M69.7002 101.1L72.0002 91.1L73.9002 90.5L70.6002 100.8L69.7002 101.1Z" fill="#568C9B"/>
<path d="M69.7002 101.1L72.0002 91.1L73.9002 90.5L70.6002 100.8L69.7002 101.1Z" stroke="#4C0003" stroke-width="0.05" stroke-miterlimit="10"/>
<path d="M69.7002 101.1L72.0002 91.1L70.6002 89.8L69.0002 100.4L69.7002 101.1Z" fill="#F3A8A1"/>
<path d="M69.7002 101.1L72.0002 91.1L70.6002 89.8L69.0002 100.4L69.7002 101.1Z" stroke="#4C0003" stroke-width="0.05" stroke-miterlimit="10"/>
<path d="M117.2 96.4C115.7 95 115.1 93.5 115.4 92.2C115.6 91.2 116.5 90.3 117.9 89.9C124.9 87.7 125.6 81.3 119.4 75.5L118.7 74.8C112.5 69 101.8 66.1 94.7 68.2L76.5 73.8C76.1 73.9 75.9 74.2 75.8 74.6L74.8 79.1C74.7 79.5 74.4 79.7 74.1 79.9L69.7 81.3C69.3 81.4 69.1 81.7 69 82.1L67.8 87.2L101.2 118.3L102.4 113.2C102.5 112.8 102.8 112.6 103.1 112.4L107.5 111C107.9 110.9 108.1 110.6 108.2 110.2L109.2 105.7C109.3 105.3 109.6 105.1 109.9 104.9L116.6 102.8C118 102.4 118.9 101.5 119.1 100.5C119.4 99.4 118.8 97.9 117.2 96.4Z" fill="#F3A8A1"/>
<path d="M117.2 96.4C115.7 95 115.1 93.5 115.4 92.2C115.6 91.2 116.5 90.3 117.9 89.9C124.9 87.7 125.6 81.3 119.4 75.5C113.2 69.3 102 66 94.7 68.2L76.5 73.8C76.1 73.9 75.9 74.2 75.8 74.6L74.8 79.1C74.7 79.5 74.4 79.7 74.1 79.9L69.7 81.3C69.3 81.4 69.1 81.7 69 82.1L67.8 87.2L101.2 118.3L102.4 113.2C102.5 112.8 102.8 112.6 103.1 112.4L107.5 111C107.9 110.9 108.1 110.6 108.2 110.2L109.2 105.7C109.3 105.3 109.6 105.1 109.9 104.9L116.6 102.8C120 101.8 119.9 98.9 117.2 96.4Z" stroke="#4C0003" stroke-width="0.05" stroke-miterlimit="10"/>
<path d="M116.5 97.2C114.8 95.6 114 93.7 114.3 92C114.6 90.6 115.8 89.5 117.5 88.9C120.2 88.1 121.9 86.5 122.4 84.6C123 82.1 121.6 79.1 118.6 76.3L117.9 75.6C114.8 72.7 110.2 70.4 105.5 69.3C101.6 68.4 97.9002 68.4 95.0002 69.3L77.4002 74.7C77.0002 74.8 76.8002 75.1 76.7002 75.5L75.7002 80C75.6002 80.4 75.3002 80.6 75.0002 80.8L70.6002 82.2C70.2002 82.3 70.0002 82.6 69.9002 83L68.7002 88.1L100.3 117.6L101.5 112.5C101.6 112.1 101.9 111.9 102.2 111.7L106.6 110.3C107 110.2 107.2 109.9 107.3 109.5L108.3 105C108.4 104.6 108.7 104.4 109 104.2L116.3 102C117 101.8 117.9 101.3 118.1 100.5C118.3 99.5 117.7 98.3 116.5 97.2Z" fill="#2B6F81"/>
<path d="M116.5 97.2C113.3 94.4 113.4 90.2 117.6 89C125 86.7 123.3 80.2 117.9 75.7C112.7 70.7 102 67.2 94.9001 69.4L77.3001 74.8C76.9001 74.9 76.7001 75.2 76.6001 75.6L75.6001 80.1C75.5001 80.5 75.2001 80.7 74.9001 80.9L70.5001 82.3C70.1001 82.4 69.9001 82.7 69.8001 83.1L68.6001 88.2L100.2 117.7L101.4 112.6C101.5 112.2 101.8 112 102.1 111.8L106.5 110.4C106.9 110.3 107.1 110 107.2 109.6L108.2 105.1C108.3 104.7 108.6 104.5 108.9 104.3L116.2 102.1C118.8 101.3 118.6 99 116.5 97.2Z" stroke="#4C0003" stroke-width="0.05" stroke-miterlimit="10"/>
<path d="M114.4 92C114.2 92.9 113.4 96.2 113.2 97.1C112.8 98.7 113.6 100.6 115.3 102.2L112.7 103L84.9001 77.1L93.8001 74.4C96.7001 73.5 100.4 73.5 104.3 74.4C109.1 75.5 113.6 77.8 116.7 80.7L117.4 81.4C119.3 83.2 120.6 85.1 121.1 86.9C120.2 87.8 119 88.5 117.5 89C115.9 89.5 114.7 90.6 114.4 92Z" fill="#005268"/>
<path d="M114.4 92C114.2 92.9 113.4 96.2 113.2 97.1C112.8 98.7 113.6 100.6 115.3 102.2L112.7 103L84.9001 77.1L93.8001 74.4C100.8 72.2 111.5 75.7 116.8 80.7C118.9 82.5 120.8 84.9 121.2 86.9C120.3 87.8 119.1 88.5 117.6 89C115.9 89.5 114.7 90.6 114.4 92Z" stroke="#4C0003" stroke-width="0.05" stroke-miterlimit="10"/>
<path d="M68.9001 86.6L68.6001 87.9L100.3 117.4L100.6 116L68.9001 86.6Z" fill="#568C9B"/>
<path d="M68.9001 86.6L68.6001 87.9L100.3 117.4L100.6 116L68.9001 86.6Z" stroke="#4C0003" stroke-width="0.05" stroke-miterlimit="10"/>
<path d="M104.3 110.9L102.1 111.6C101.7 111.7 101.5 112 101.4 112.4L100.5 116.2L68.9001 86.6L75.9001 84.5L104.3 110.9Z" fill="#F3A8A1"/>
<path d="M104.3 110.9L102.1 111.6C101.7 111.7 101.5 112 101.4 112.4L100.5 116.2L68.9001 86.6L75.9001 84.5C76.0001 84.4 104.3 110.9 104.3 110.9Z" stroke="#4C0003" stroke-width="0.05" stroke-miterlimit="10"/>
<path d="M112.8 103L109 104.2C108.8 104.3 108.6 104.4 108.5 104.6L77.9001 76.1L82.4001 74.8L112.8 103Z" fill="#F3A8A1"/>
<path d="M112.8 103L109 104.2C108.8 104.3 108.6 104.4 108.5 104.6L77.9001 76.1L82.4001 74.8L112.8 103Z" stroke="#4C0003" stroke-width="0.05" stroke-miterlimit="10"/>
<path d="M108.5 104.6C108.4 104.7 108.4 104.8 108.3 105L107.3 109.5C107.2 109.9 106.9 110.1 106.6 110.3L104.4 111L76 84.4L77.9 76L108.5 104.6Z" fill="#568C9B"/>
<path d="M108.5 104.6C108.4 104.4 107.3 109.4 107.3 109.5C107.2 109.9 106.9 110.1 106.6 110.3L104.4 111L76 84.4L77.9 76L108.5 104.6Z" stroke="#4C0003" stroke-width="0.05" stroke-miterlimit="10"/>
<path d="M104.3 110.9L102.4 111.5L102.1 111.6C101.9 111.7 101.8 111.8 101.6 111.9C101.5 112 101.4 112.2 101.4 112.4L100.7 115.3L69.7 86.4L70 85.2L76.2 83.3L105.5 110.6L104.3 110.9Z" fill="#F3A8A1"/>
<path d="M104.3 110.9C104.1 111 102.3 111.5 102.1 111.6C101.8 111.7 101.5 112 101.4 112.4L100.7 115.3L69.7 86.4L70 85.2L76.2 83.3L105.5 110.6C105.5 110.5 104.3 110.9 104.3 110.9Z" stroke="#4C0003" stroke-width="0.05" stroke-miterlimit="10"/>
<path d="M71.1 86.1L70 85.1L69.7 86.4L70.8 87.3L71.1 86.1Z" fill="#E1E1E1"/>
<path d="M71.1 86.1L70 85.1L69.7 86.4L70.8 87.3L71.1 86.1Z" stroke="#4C0003" stroke-width="0.05" stroke-miterlimit="10"/>
<path d="M72.1999 87.2L71.1999 86.2L70.8999 87.4L71.8999 88.4L72.1999 87.2Z" fill="#E1E1E1"/>
<path d="M72.1999 87.2L71.1999 86.2L70.8999 87.4L71.8999 88.4L72.1999 87.2Z" stroke="#4C0003" stroke-width="0.05" stroke-miterlimit="10"/>
<path d="M73.3999 88.3L72.3999 87.3L72.0999 88.5L73.0999 89.5L73.3999 88.3Z" fill="#E1E1E1"/>
<path d="M73.3999 88.3L72.3999 87.3L72.0999 88.5L73.0999 89.5L73.3999 88.3Z" stroke="#4C0003" stroke-width="0.05" stroke-miterlimit="10"/>
<path d="M74.6 89.4L73.5 88.4L73.3 89.6L74.3 90.6L74.6 89.4Z" fill="#E1E1E1"/>
<path d="M74.6 89.4L73.5 88.4L73.3 89.6L74.3 90.6L74.6 89.4Z" stroke="#4C0003" stroke-width="0.05" stroke-miterlimit="10"/>
<path d="M75.7999 90.5L74.6999 89.5L74.3999 90.7L75.4999 91.7L75.7999 90.5Z" fill="#E1E1E1"/>
<path d="M75.7999 90.5L74.6999 89.5L74.3999 90.7L75.4999 91.7L75.7999 90.5Z" stroke="#4C0003" stroke-width="0.05" stroke-miterlimit="10"/>
<path d="M76.8999 91.6L75.8999 90.6L75.5999 91.8L76.6999 92.8L76.8999 91.6Z" fill="#E1E1E1"/>
<path d="M76.8999 91.6L75.8999 90.6L75.5999 91.8L76.6999 92.8L76.8999 91.6Z" stroke="#4C0003" stroke-width="0.05" stroke-miterlimit="10"/>
<path d="M78.1 92.7L77.1 91.7L76.8 92.9L77.8 93.9L78.1 92.7Z" fill="#E1E1E1"/>
<path d="M78.1 92.7L77.1 91.7L76.8 92.9L77.8 93.9L78.1 92.7Z" stroke="#4C0003" stroke-width="0.05" stroke-miterlimit="10"/>
<path d="M79.3 93.8L78.3 92.8L78 94L79 95L79.3 93.8Z" fill="#E1E1E1"/>
<path d="M79.3 93.8L78.3 92.8L78 94L79 95L79.3 93.8Z" stroke="#4C0003" stroke-width="0.05" stroke-miterlimit="10"/>
<path d="M80.4999 94.9L79.3999 93.9L79.0999 95.1L80.1999 96.1L80.4999 94.9Z" fill="#E1E1E1"/>
<path d="M80.4999 94.9L79.3999 93.9L79.0999 95.1L80.1999 96.1L80.4999 94.9Z" stroke="#4C0003" stroke-width="0.05" stroke-miterlimit="10"/>
<path d="M81.6 96L80.6 95L80.3 96.2L81.4 97.2L81.6 96Z" stroke="#4C0003" stroke-width="0.05" stroke-miterlimit="10"/>
<path d="M76.2 83.2L70 85.1L71.1 86.1L77.3 84.2L76.2 83.2Z" fill="#F5F5F5"/>
<path d="M76.2 83.2L70 85.1L71.1 86.1L77.3 84.2L76.2 83.2Z" stroke="#4C0003" stroke-width="0.05" stroke-miterlimit="10"/>
<path d="M77.4 84.3L71.2 86.2L72.2 87.2L78.5 85.3L77.4 84.3Z" fill="#F5F5F5"/>
<path d="M77.4 84.3L71.2 86.2L72.2 87.2L78.5 85.3L77.4 84.3Z" stroke="#4C0003" stroke-width="0.05" stroke-miterlimit="10"/>
<path d="M78.5999 85.4L72.3999 87.3L73.3999 88.3L79.5999 86.4L78.5999 85.4Z" fill="#F5F5F5"/>
<path d="M78.5999 85.4L72.3999 87.3L73.3999 88.3L79.5999 86.4L78.5999 85.4Z" stroke="#4C0003" stroke-width="0.05" stroke-miterlimit="10"/>
<path d="M79.8 86.5L73.5 88.4L74.6 89.4L80.8 87.5L79.8 86.5Z" fill="#F5F5F5"/>
<path d="M79.8 86.5L73.5 88.4L74.6 89.4L80.8 87.5L79.8 86.5Z" stroke="#4C0003" stroke-width="0.05" stroke-miterlimit="10"/>
<path d="M81 87.6L74.7 89.5L75.8 90.5L82 88.6L81 87.6Z" fill="#F5F5F5"/>
<path d="M81 87.6L74.7 89.5L75.8 90.5L82 88.6L81 87.6Z" stroke="#4C0003" stroke-width="0.05" stroke-miterlimit="10"/>
<path d="M82.0999 88.7L75.8999 90.6L76.8999 91.6L83.1999 89.7L82.0999 88.7Z" fill="#F5F5F5"/>
<path d="M82.0999 88.7L75.8999 90.6L76.8999 91.6L83.1999 89.7L82.0999 88.7Z" stroke="#4C0003" stroke-width="0.05" stroke-miterlimit="10"/>
<path d="M83.3001 89.8L77.1001 91.7L78.1001 92.7L84.3001 90.8L83.3001 89.8Z" fill="#F5F5F5"/>
<path d="M83.3001 89.8L77.1001 91.7L78.1001 92.7L84.3001 90.8L83.3001 89.8Z" stroke="#4C0003" stroke-width="0.05" stroke-miterlimit="10"/>
<path d="M84.5 90.9L78.3 92.8L79.3 93.8L85.5 91.9L84.5 90.9Z" fill="#F5F5F5"/>
<path d="M84.5 90.9L78.3 92.8L79.3 93.8L85.5 91.9L84.5 90.9Z" stroke="#4C0003" stroke-width="0.05" stroke-miterlimit="10"/>
<path d="M85.6999 92L79.3999 93.9L80.4999 94.9L86.6999 93L85.6999 92Z" fill="#F5F5F5"/>
<path d="M85.6999 92L79.3999 93.9L80.4999 94.9L86.6999 93L85.6999 92Z" stroke="#4C0003" stroke-width="0.05" stroke-miterlimit="10"/>
<path d="M86.8001 93.1L80.6001 95L81.6001 96L87.9001 94.1L86.8001 93.1Z" fill="#F5F5F5"/>
<path d="M86.8001 93.1L80.6001 95L81.6001 96L87.9001 94.1L86.8001 93.1Z" stroke="#4C0003" stroke-width="0.05" stroke-miterlimit="10"/>
<path d="M88 94.2L81.8 96.1L82.8 97.1L89 95.2L88 94.2Z" fill="#F5F5F5"/>
<path d="M88 94.2L81.8 96.1L82.8 97.1L89 95.2L88 94.2Z" stroke="#4C0003" stroke-width="0.05" stroke-miterlimit="10"/>
<path d="M74.3999 85.3L73.6999 84.6L73.5999 85L74.2999 85.6L74.3999 85.3Z" fill="#568C9B"/>
<path d="M74.3999 85.3L73.6999 84.6L73.5999 85L74.2999 85.6L74.3999 85.3Z" stroke="#4C0003" stroke-width="0.05" stroke-miterlimit="10"/>
<path d="M74.3998 85.3L77.7998 84.2L77.6998 84.6L74.2998 85.6L74.3998 85.3Z" fill="#2B6F81"/>
<path d="M74.3998 85.3L77.7998 84.2L77.6998 84.6L74.2998 85.6L74.3998 85.3Z" stroke="#4C0003" stroke-width="0.05" stroke-miterlimit="10"/>
<path d="M77.1 83.6L73.7 84.6L74.4 85.3L77.8 84.2L77.1 83.6Z" fill="#F3A8A1"/>
<path d="M77.1 83.6L73.7 84.6L74.4 85.3L77.8 84.2L77.1 83.6Z" stroke="#4C0003" stroke-width="0.05" stroke-miterlimit="10"/>
<path d="M75.5998 86.4L74.8998 85.7L74.7998 86.1L75.4998 86.7L75.5998 86.4Z" fill="#568C9B"/>
<path d="M75.5998 86.4L74.8998 85.7L74.7998 86.1L75.4998 86.7L75.5998 86.4Z" stroke="#4C0003" stroke-width="0.05" stroke-miterlimit="10"/>
<path d="M75.5998 86.4L78.9998 85.3L78.8998 85.7L75.4998 86.7L75.5998 86.4Z" fill="#2B6F81"/>
<path d="M75.5998 86.4L78.9998 85.3L78.8998 85.7L75.4998 86.7L75.5998 86.4Z" stroke="#4C0003" stroke-width="0.05" stroke-miterlimit="10"/>
<path d="M78.2999 84.7L74.8999 85.7L75.5999 86.4L78.9999 85.3L78.2999 84.7Z" fill="#F3A8A1"/>
<path d="M78.2999 84.7L74.8999 85.7L75.5999 86.4L78.9999 85.3L78.2999 84.7Z" stroke="#4C0003" stroke-width="0.05" stroke-miterlimit="10"/>
<path d="M77.8999 88.5L77.1999 87.9L77.0999 88.3L77.7999 88.9L77.8999 88.5Z" fill="#568C9B"/>
<path d="M77.8999 88.5L77.1999 87.9L77.0999 88.3L77.7999 88.9L77.8999 88.5Z" stroke="#4C0003" stroke-width="0.05" stroke-miterlimit="10"/>
<path d="M77.8998 88.5L81.2998 87.5L81.1998 87.9L77.7998 88.9L77.8998 88.5Z" fill="#2B6F81"/>
<path d="M77.8998 88.5L81.2998 87.5L81.1998 87.9L77.7998 88.9L77.8998 88.5Z" stroke="#4C0003" stroke-width="0.05" stroke-miterlimit="10"/>
<path d="M80.6 86.9L77.2 87.9L77.9 88.5L81.3 87.5L80.6 86.9Z" fill="#F3A8A1"/>
<path d="M80.6 86.9L77.2 87.9L77.9 88.5L81.3 87.5L80.6 86.9Z" stroke="#4C0003" stroke-width="0.05" stroke-miterlimit="10"/>
<path d="M79.0998 89.6L78.3998 89L78.2998 89.4L78.9998 90L79.0998 89.6Z" fill="#568C9B"/>
<path d="M79.0998 89.6L78.3998 89L78.2998 89.4L78.9998 90L79.0998 89.6Z" stroke="#4C0003" stroke-width="0.05" stroke-miterlimit="10"/>
<path d="M79.0998 89.6L82.4998 88.6L82.3998 89L78.9998 90L79.0998 89.6Z" fill="#2B6F81"/>
<path d="M79.0998 89.6L82.4998 88.6L82.3998 89L78.9998 90L79.0998 89.6Z" stroke="#4C0003" stroke-width="0.05" stroke-miterlimit="10"/>
<path d="M81.7999 88L78.3999 89L79.0999 89.6L82.4999 88.6L81.7999 88Z" fill="#F3A8A1"/>
<path d="M81.7999 88L78.3999 89L79.0999 89.6L82.4999 88.6L81.7999 88Z" stroke="#4C0003" stroke-width="0.05" stroke-miterlimit="10"/>
<path d="M80.2998 90.7L79.5998 90.1L79.4998 90.5L80.1998 91.1L80.2998 90.7Z" fill="#568C9B"/>
<path d="M80.2998 90.7L79.5998 90.1L79.4998 90.5L80.1998 91.1L80.2998 90.7Z" stroke="#4C0003" stroke-width="0.05" stroke-miterlimit="10"/>
<path d="M80.2997 90.7L83.6997 89.7L83.5997 90.1L80.1997 91.1L80.2997 90.7Z" fill="#2B6F81"/>
<path d="M80.2997 90.7L83.6997 89.7L83.5997 90.1L80.1997 91.1L80.2997 90.7Z" stroke="#4C0003" stroke-width="0.05" stroke-miterlimit="10"/>
<path d="M82.9999 89.1L79.5999 90.1L80.2999 90.7L83.6999 89.7L82.9999 89.1Z" fill="#F3A8A1"/>
<path d="M82.9999 89.1L79.5999 90.1L80.2999 90.7L83.6999 89.7L82.9999 89.1Z" stroke="#4C0003" stroke-width="0.05" stroke-miterlimit="10"/>
<path d="M82.5999 92.9L81.8999 92.3V92.7L82.4999 93.3L82.5999 92.9Z" fill="#568C9B"/>
<path d="M82.5999 92.9L81.8999 92.3V92.7L82.4999 93.3L82.5999 92.9Z" stroke="#4C0003" stroke-width="0.05" stroke-miterlimit="10"/>
<path d="M82.6 92.9L86 91.9L85.9 92.2L82.5 93.3L82.6 92.9Z" fill="#2B6F81"/>
<path d="M82.6 92.9L86 91.9L85.9 92.2L82.5 93.3L82.6 92.9Z" stroke="#4C0003" stroke-width="0.05" stroke-miterlimit="10"/>
<path d="M85.2999 91.3L81.8999 92.3L82.5999 92.9L85.9999 91.9L85.2999 91.3Z" fill="#F3A8A1"/>
<path d="M85.2999 91.3L81.8999 92.3L82.5999 92.9L85.9999 91.9L85.2999 91.3Z" stroke="#4C0003" stroke-width="0.05" stroke-miterlimit="10"/>
<path d="M83.8 94L83.1 93.4L83 93.8L83.7 94.4L83.8 94Z" fill="#568C9B"/>
<path d="M83.8 94L83.1 93.4L83 93.8L83.7 94.4L83.8 94Z" stroke="#4C0003" stroke-width="0.05" stroke-miterlimit="10"/>
<path d="M83.8 94L87.2 93L87.1 93.3L83.7 94.4L83.8 94Z" fill="#2B6F81"/>
<path d="M83.8 94L87.2 93L87.1 93.3L83.7 94.4L83.8 94Z" stroke="#4C0003" stroke-width="0.05" stroke-miterlimit="10"/>
<path d="M86.5001 92.4L83.1001 93.4L83.8001 94L87.2001 93L86.5001 92.4Z" fill="#F3A8A1"/>
<path d="M86.5001 92.4L83.1001 93.4L83.8001 94L87.2001 93L86.5001 92.4Z" stroke="#4C0003" stroke-width="0.05" stroke-miterlimit="10"/>
<path d="M88.9 94.5L85.5 95.6L86.1 96.2L89.5 95.2L88.9 94.5Z" fill="#F3A8A1"/>
<path d="M88.9 94.5L85.5 95.6L86.1 96.2L89.5 95.2L88.9 94.5Z" stroke="#4C0003" stroke-width="0.05" stroke-miterlimit="10"/>
<path d="M121.4 89.3C121 90.2 119.9 91 118.2 91.6L109.6 94.5L109.3 95.7L117.9 92.8C119.6 92.2 120.7 91.4 121.1 90.5C121.2 90.4 121.2 90.2 121.3 90.1L121.6 88.9C121.5 89 121.5 89.2 121.4 89.3Z" fill="#2B6F81"/>
<path d="M121.4 89.3C121 90.2 119.9 91 118.2 91.6L109.6 94.5L109.3 95.7L117.9 92.8C119.8 92.1 120.9 91.4 121.3 90.1L121.6 88.9C121.5 89 121.5 89.2 121.4 89.3Z" stroke="#4C0003" stroke-width="0.05" stroke-miterlimit="10"/>
<path d="M120 86C118.5 85 118 83.8 118.5 82.7C118.9 81.8 120 81 121.7 80.4C130 77.6 131.8 72 125.6 68L124.9 67.5C118.7 63.4 106.9 62.4 98.6001 65.2L76.4001 72.7L109.7 94.5L118.3 91.6C120 91 121.1 90.2 121.5 89.3C121.9 88.2 121.5 87 120 86Z" fill="#F3A8A1"/>
<path d="M120 86C116.8 83.8 118.6 81.4 121.7 80.4C130.6 77.5 131.6 71.3 124.8 67.5C118.6 63.4 106.8 62.4 98.5 65.2L76.3 72.7L109.6 94.5L118.2 91.6C121.4 90.6 123.1 88.2 120 86Z" stroke="#4C0003" stroke-width="0.05" stroke-miterlimit="10"/>
<path d="M98.5 65.2L91.7 67.5L97.5 86.6L109.1 94.2L100.1 64.7C99.6 64.9 99 65.1 98.5 65.2ZM109.2 63.7C107.5 63.7 105.8 63.8 104.1 64L113 93.4L117.7 91.8L109.2 63.7Z" fill="#FADDDA"/>
<path d="M98.5 65.2L91.7 67.5L97.5 86.6L109.1 94.2L100.1 64.7C99.6 64.9 99 65.1 98.5 65.2ZM98.5 65.2C98.5 65.2 99 65.1 98.5 65.2Z" stroke="#4C0003" stroke-width="0.05" stroke-miterlimit="10"/>
<path d="M109.2 63.7C107.5 63.7 105.8 63.8 104.1 64L113 93.4L117.7 91.8L109.2 63.7Z" stroke="#4C0003" stroke-width="0.05" stroke-miterlimit="10"/>
<path d="M76.2 72.7L76 73.9L109.3 95.7L109.6 94.5L76.2 72.7Z" fill="#568C9B"/>
<path d="M76.2 72.7L76 73.9L109.3 95.7L109.6 94.5L76.2 72.7Z" stroke="#4C0003" stroke-width="0.05" stroke-miterlimit="10"/>
<path d="M112 62.7C112 62.7 112 62.6 112 62.7C112.2 61.6 111.7 60.7 111 60.1C110.1 59.3 108.7 59.3 107.6 59.1C106.6 59 105.5 58.7 104.8 57.8C104 56.8 104.2 55.4 104.1 54.1C103.9 51.5 102.9 49.3 101.2 47.6C100.3 46.8 99.2999 46.2 98.2999 45.7C96.9999 45.2 95.4999 45.4 94.1999 45.2C94.1999 45.1 94.1999 45.1 94.0999 45.1C93.9999 44.5 93.2999 44.4 92.8999 44.3C92.3999 44.2 91.1999 44 90.7999 44.6C90.3999 44.9 90.5999 45.3 90.9999 45.6C90.9999 46 90.8999 46.4 90.9999 46.7C91.0999 46.9 91.1999 47 91.3999 47.1C90.9999 49.2 90.7999 51.4 90.3999 53.5C90.0999 55.7 89.6999 58 89.2999 60.2C88.6999 64.3 88.1999 68.5 87.5999 72.6C87.5999 72.6 87.5999 72.6 87.4999 72.6C86.5999 72.8 85.1999 73 84.7999 74.1C84.3999 75.1 85.7999 75.8 86.2999 76C87.5999 76.6 88.9999 76.8 90.2999 76.5C90.9999 76.3 92.2999 76 92.3999 75C93.8999 74 95.2999 72.9 96.7999 71.9C98.3999 70.8 100.1 69.8 101.8 68.8C105.2 66.8 108.7 65 112.1 63C112.1 62.8 112.1 62.7 112 62.7ZM105.9 64C104.1 64.8 102.3 65.8 100.5 66.7C98.5999 67.7 96.7999 68.8 94.9999 69.9C93.3999 70.9 91.5999 71.7 89.9999 72.9C89.6999 72.7 89.3999 72.7 89.0999 72.7C89.0999 72 89.2999 71.3 89.3999 70.5C89.4999 69.4 89.6999 68.3 89.8999 67.1C90.1999 64.7 90.5999 62.4 90.8999 60C91.2999 57.8 91.5999 55.5 91.8999 53.3C91.9999 52.2 92.1999 51 92.3999 49.9C92.3999 49.6 92.4999 49.3 92.4999 49C94.2999 48.2 96.2999 47.8 98.1999 48.3C99.0999 48.5 99.9999 49.1 100.6 49.8C101.4 50.7 101.7 52 101.9 53.2C102.4 55.7 102.9 58.3 104.9 59.7C105.7 60.3 106.7 60.5 107.7 60.5C108.6 60.5 110.1 60.5 110.7 61.5C109.1 62.4 107.5 63.3 105.9 64Z" fill="#4C0003"/>
<path d="M84.9999 73.9C85.3999 73.1 86.8999 72.9 87.4999 72.7H87.5999C87.5999 72.8 87.5999 72.9 87.5999 73C87.1999 72.9 86.5999 73.4 86.5999 73.9C86.6999 74.6 87.3999 75 87.8999 75.1C88.4999 75.2 89.3999 75 89.6999 74.3C89.8999 73.8 89.5999 73.2 89.1999 73.3C89.1999 73.2 89.1999 73.1 89.1999 73C89.1999 73 89.1999 73 89.2999 73C89.4999 73 89.5999 73.1 89.7999 73.1C90.1999 73.2 90.5999 73.4 90.7999 73.8C90.7999 73.9 90.9999 73.8 90.8999 73.7C90.7999 73.5 90.4999 73.3 90.2999 73.1C91.7999 72.1 93.4999 71.3 94.9999 70.3C96.6999 69.2 98.4999 68.1 100.3 67.2C102.1 66.2 103.9 65.2 105.8 64.4C107.6 63.6 109.3 62.6 111.2 61.9C111.3 61.9 111.3 61.7 111.2 61.7H111.1C110.7 60.9 109.7 60.8 109 60.7C107.8 60.6 106.7 60.6 105.6 60C102.9 58.6 102.8 55 102.1 52.2C100.9 47.6 96.1999 47.6 92.7999 49.1C92.7999 48.9 92.7999 48.8 92.7999 48.6C92.7999 48.5 92.7999 48.5 92.7999 48.4C94.3999 47.7 95.9999 47.4 97.6999 47.5C97.7999 47.5 97.8999 47.4 97.7999 47.4C96.1999 47.1 94.3999 47.5 92.8999 48.2C92.8999 48.1 92.8999 48 92.9999 47.9C92.9999 47.8 93.0999 47.5 93.0999 47.4C93.1999 47.3 93.2999 47.3 93.2999 47.1C93.3999 46.9 93.3999 46.6 93.4999 46.4C94.5999 46.1 95.4999 46.1 96.5999 46.2C96.6999 46.2 96.6999 46.1 96.6999 46.1C95.7999 45.7 94.5999 46 93.6999 46.2C93.9999 46.1 94.1999 45.9 94.1999 45.6C95.4999 45.8 96.7999 45.7 97.9999 46.1C99.1999 46.5 100.3 47.3 101.2 48.1C103 49.8 103.8 52.3 104 55C104.1 56 104.1 57 104.6 57.9C105 58.6 105.6 59 106.3 59.3C107.3 59.7 108.4 59.6 109.5 59.9C110.6 60.1 112 61.2 111.9 62.6C111.2 62.8 110.5 63.3 109.8 63.7C108.9 64.2 108 64.7 107 65.1C106.1 65.5 105.3 66.1 104.4 66.6C103.5 67.1 102.6 67.6 101.7 68.1C99.8999 69.1 98.1999 70.3 96.4999 71.4C95.6999 71.9 94.7999 72.5 93.9999 73.1C93.5999 73.4 93.0999 73.7 92.6999 73.9C92.3999 74.1 92.0999 74.4 91.7999 74.6C91.6999 74.6 91.6999 74.7 91.5999 74.7C91.5999 74.7 91.4999 74.7 91.4999 74.8L91.3999 74.9C91.2999 76 89.5999 76.2 88.8999 76.2C88.1999 76.3 87.3999 76.2 86.6999 75.9C86.3999 75.8 85.0999 75.1 84.8999 74.5C84.8999 74.2 84.8999 74 84.9999 73.9Z" fill="#B1354E"/>
<path d="M111.8 62.8C110.1 63.7 108.5 64.7 106.9 65.6C105.2 66.6 103.4 67.5 101.7 68.5C100.1 69.5 98.4999 70.5 96.8999 71.5C95.2999 72.5 93.8999 73.8 92.2999 74.8C92.2999 74.8 92.1999 74.8 92.1999 74.9C92.0999 74.9 92.1999 75 92.1999 75C91.9999 75.9 90.4999 76.2 89.8999 76.3C88.7999 76.5 87.5999 76.2 86.5999 75.8C85.9999 75.6 85.0999 75.2 84.8999 74.4C85.1999 75 86.3999 75.6 86.5999 75.7C87.3999 76.1 88.4999 76.1 89.3999 76C90.1999 75.9 91.3999 75.5 91.5999 74.5L91.6999 74.4C91.7999 74.4 91.7999 74.3 91.8999 74.3C92.2999 74 92.7999 73.7 93.1999 73.4C93.9999 72.9 94.7999 72.3 95.5999 71.7C97.3999 70.5 99.1999 69.3 101 68.3C102.7 67.3 104.5 66.3 106.3 65.3C107.2 64.8 108.1 64.4 109.1 63.9C109.9 63.4 110.8 62.8 111.7 62.4V62.5C111.8 62.7 111.8 62.7 111.8 62.8C111.8 62.7 111.8 62.8 111.8 62.8Z" fill="#F3A8A1"/>
<g opacity="0.53">
<path d="M90.6 74.5C90.5 75.2 89.3 75.6 88.1 75.4C86.8 75.2 85.9 74.4 86 73.7C86.1 73 87.3 72.6 88.5 72.8C89.8 73 90.7 73.8 90.6 74.5Z" fill="#A8581F"/>
</g>
<path d="M91 45.6C90.7 45.4 90.3999 45.1 90.6999 44.8C90.5999 45.3 91.3999 45.5 91.6999 45.5C91.7999 45.5 91.8 45.4 91.8 45.4C91.6 45.4 90.4999 45 91.0999 44.5C91.5999 44.1 92.4 44.3 92.9 44.4C93.2 44.5 93.3999 44.5 93.6999 44.7C93.8999 44.8 94.2 45.1 93.9 45.5C93.7 45.7 93.2999 45.6 93.0999 45.5C92.9999 45.5 92.9 45.7 93 45.7C93.2 45.7 93.7 45.8 94 45.6C93.6 46.1 92.8 46 92.3 46C91.9 46 91.4 45.8 91 45.6C91.1 45.6 91 45.6 91 45.6Z" fill="#B1354E"/>
<path d="M91.0999 46.5C91.0999 46.3 91.0999 46 91.0999 45.8C91.3999 46 91.5999 46.1 91.7999 46.1C92.1999 46.2 92.7999 46.3 93.2999 46.1V46.2C93.1999 46.4 93.1999 46.6 93.0999 46.8C92.6999 47.4 92.0999 47.3 91.5999 47C91.3999 47 91.0999 46.8 91.0999 46.5Z" fill="#B1354E"/>
<path d="M89.4 60.5C89.8 58.3 90.2 56 90.5 53.8C90.8 51.6 91.1 49.4 91.5 47.2C91.6 47.2 91.7 47.3 91.8 47.3C92.1 47.4 92.5 47.5 92.8 47.3C92.5 47.9 92.5 48.8 92.4 49.5C92.3 50.6 92.1 51.7 91.9 52.9C91.6 55.3 91.3 57.7 90.9 60.1C90.5 62.5 90.2 64.8 89.9 67.2C89.8 68.3 89.6 69.4 89.5 70.6C89.4 71.3 89.2 72.1 89.1 72.8C89.1 72.8 89.1 72.8 89.1 72.9C89.1 73 89.1 73.1 89.1 73.2C89.1 73.3 89.1 73.4 89.2 73.5C89.3 73.6 89.4 73.7 89.3 73.8C89.2 73.9 89.1 74 88.9 74.1C88.7 74.2 88.4 74.3 88.2 74.3C87.9 74.3 87.7 74.1 87.5 73.9C87.2 73.7 87.3 73.4 87.6 73.2C87.6 73.3 87.6 73.3 87.6 73.4C87.7 73.3 87.8 73.1 87.8 72.9C88.4 68.9 88.8 64.7 89.4 60.5Z" fill="#F3A8A1"/>
<path d="M87.0998 73.9C87.2998 74.2 87.7998 74.4 88.1998 74.5C88.5998 74.5 88.9998 74.3 89.2998 74.1C89.3998 74 89.4998 73.9 89.4998 73.7C89.5998 74 89.4998 74.4 89.0998 74.6C88.6998 74.9 88.1998 74.9 87.7998 74.9C87.4998 74.9 87.1998 74.6 86.8998 74.4C86.3998 73.9 86.7998 73.1 87.3998 73.1C87.1998 73.3 86.8998 73.6 87.0998 73.9Z" fill="#B1354E"/>
<path d="M93.7 48.3L90.5 73.4L93.7 48.3Z" fill="#005268"/>
<path d="M93.7 48.3C93.6 48.7 93.6 49.1 93.5 49.5C93.4 50.6 93.2 51.6 93.1 52.7C92.9 54.2 92.7 55.7 92.5 57.1C92.3 58.8 92.1 60.4 91.9 62.1C91.7 63.7 91.5 65.3 91.3 66.9C91.1 68.2 91 69.5 90.8 70.8C90.7 71.6 90.6 72.3 90.5 73.1C90.5 73.2 90.5 73.3 90.5 73.4C90.5 73.4 90.6 73.4 90.6 73.3C90.7 72.9 90.7 72.5 90.8 72.1C90.9 71 91.1 70 91.2 68.9C91.4 67.4 91.6 65.9 91.8 64.5C92 62.8 92.2 61.2 92.4 59.5C92.6 57.9 92.8 56.3 93 54.7C93.2 53.4 93.3 52.1 93.5 50.8C93.6 50 93.7 49.3 93.8 48.5C93.8 48.4 93.8 48.3 93.8 48.2C93.8 48.3 93.7 48.3 93.7 48.3Z" fill="#005268"/>
<path d="M94.6001 48L91.4001 73.1L94.6001 48Z" fill="#005268"/>
<path d="M94.5 48C94.4 48.4 94.4 48.8 94.3 49.2C94.2 50.3 94 51.3 93.9 52.4C93.7 53.9 93.5 55.4 93.3 56.8C93.1 58.5 92.9 60.1 92.7 61.8C92.5 63.4 92.3 65 92.1 66.6C91.9 67.9 91.8 69.2 91.6 70.5C91.5 71.3 91.4 72 91.3 72.8C91.3 72.9 91.3 73 91.3 73.1C91.3 73.1 91.4 73.1 91.4 73C91.5 72.6 91.5 72.2 91.6 71.8C91.7 70.7 91.9 69.7 92 68.6C92.2 67.1 92.4 65.6 92.6 64.2C92.8 62.5 93 60.9 93.2 59.2C93.4 57.6 93.6 56 93.8 54.4C94 53.1 94.1 51.8 94.3 50.5C94.4 49.7 94.5 49 94.6 48.2C94.6 48.1 94.6 48 94.6 47.9C94.6 48 94.5 48 94.5 48Z" fill="#005268"/>
<path d="M95.5001 47.9L92.4001 72.5L95.5001 47.9Z" fill="#005268"/>
<path d="M95.4 47.9C95.3 48.3 95.3 48.7 95.2 49.1C95.1 50.1 94.9 51.2 94.8 52.2C94.6 53.6 94.4 55.1 94.3 56.5C94.1 58.1 93.9 59.7 93.7 61.4C93.5 63 93.3 64.5 93.1 66.1C92.9 67.4 92.8 68.6 92.6 69.9C92.5 70.7 92.4 71.4 92.3 72.2C92.3 72.3 92.3 72.4 92.3 72.5C92.3 72.5 92.4 72.5 92.4 72.4C92.5 72 92.5 71.6 92.6 71.2C92.7 70.2 92.9 69.1 93 68.1C93.2 66.7 93.4 65.2 93.5 63.8C93.7 62.2 93.9 60.6 94.1 58.9C94.3 57.3 94.5 55.8 94.7 54.2C94.9 52.9 95 51.7 95.2 50.4C95.3 49.6 95.4 48.9 95.5 48.1C95.5 48 95.5 47.9 95.5 47.8C95.5 47.9 95.4 47.9 95.4 47.9Z" fill="#005268"/>
<path d="M96.3 47.7L93.3 71.9L96.3 47.7Z" fill="#005268"/>
<path d="M96.2 47.7C96.2 48.1 96.1 48.5 96.1 48.9C96 49.9 95.8 50.9 95.7 52C95.5 53.4 95.4 54.8 95.2 56.3C95 57.9 94.8 59.5 94.6 61.1C94.4 62.6 94.2 64.2 94 65.7C93.8 67 93.7 68.2 93.5 69.5C93.4 70.2 93.3 71 93.2 71.7C93.2 71.8 93.2 71.9 93.2 72C93.2 72 93.3 72 93.3 71.9C93.3 71.5 93.4 71.1 93.4 70.7C93.5 69.7 93.7 68.7 93.8 67.6C94 66.2 94.1 64.8 94.3 63.3C94.5 61.7 94.7 60.1 94.9 58.5C95.1 57 95.3 55.4 95.5 53.9C95.7 52.6 95.8 51.4 96 50.1C96.1 49.4 96.2 48.6 96.3 47.9C96.3 47.8 96.3 47.7 96.3 47.6C96.4 47.7 96.2 47.7 96.2 47.7Z" fill="#005268"/>
<path d="M97.3 47.8L94.3 71.3L97.3 47.8Z" fill="#005268"/>
<path d="M97.2 47.8C97.2 48.2 97.1 48.6 97.1 48.9C97 49.9 96.8 50.9 96.7 51.9C96.5 53.3 96.3 54.7 96.2 56C96 57.5 95.8 59.1 95.6 60.6C95.4 62.1 95.2 63.6 95 65.1C94.8 66.3 94.7 67.5 94.5 68.7C94.4 69.4 94.3 70.1 94.2 70.9C94.2 71 94.2 71.1 94.2 71.2C94.2 71.2 94.3 71.2 94.3 71.1C94.3 70.7 94.4 70.3 94.4 70C94.5 69 94.7 68 94.8 67C95 65.6 95.2 64.2 95.3 62.9C95.5 61.4 95.7 59.8 95.9 58.3C96.1 56.8 96.3 55.3 96.5 53.8C96.7 52.6 96.8 51.4 97 50.2C97.1 49.5 97.2 48.8 97.3 48C97.3 47.9 97.3 47.8 97.3 47.7C97.3 47.8 97.2 47.8 97.2 47.8Z" fill="#005268"/>
<path d="M97.9999 48L95.0999 71L97.9999 48Z" fill="#005268"/>
<path d="M97.9999 48C97.9999 48.4 97.8999 48.7 97.8999 49.1C97.7999 50.1 97.6999 51 97.4999 52C97.2999 53.4 97.1999 54.7 96.9999 56.1C96.7999 57.6 96.5999 59.1 96.3999 60.7C96.1999 62.2 95.9999 63.6 95.7999 65.1C95.6999 66.3 95.4999 67.5 95.3999 68.7C95.2999 69.4 95.1999 70.1 95.0999 70.8C95.0999 70.9 95.0999 71 95.0999 71.1C95.0999 71.1 95.1999 71.1 95.1999 71C95.1999 70.6 95.2999 70.3 95.2999 69.9C95.3999 68.9 95.4999 68 95.6999 67C95.8999 65.6 95.9999 64.3 96.1999 62.9C96.3999 61.4 96.5999 59.9 96.7999 58.3C96.9999 56.8 97.1999 55.4 97.3999 53.9C97.5999 52.7 97.6999 51.5 97.7999 50.3C97.8999 49.6 97.9999 48.9 98.0999 48.2C98.0999 48.1 98.0999 48 98.0999 47.9C98.0999 48 97.9999 48 97.9999 48Z" fill="#005268"/>
<path d="M98.7999 48.2L96.0999 70.4L98.7999 48.2Z" fill="#005268"/>
<path d="M98.8 48.2C98.8 48.6 98.7 48.9 98.7 49.3C98.6 50.2 98.5 51.2 98.4 52.1C98.2 53.4 98.1 54.7 97.9 56C97.7 57.5 97.5 58.9 97.4 60.4C97.2 61.8 97.1 63.2 96.9 64.6C96.8 65.7 96.6 66.9 96.5 68C96.4 68.7 96.3 69.4 96.2 70C96.2 70.1 96.2 70.2 96.2 70.3C96.2 70.3 96.3 70.3 96.3 70.2C96.3 69.8 96.4 69.5 96.4 69.1C96.5 68.2 96.6 67.2 96.7 66.3C96.9 65 97 63.7 97.2 62.4C97.4 60.9 97.6 59.5 97.7 58C97.9 56.6 98 55.2 98.2 53.8C98.3 52.7 98.5 51.5 98.6 50.4C98.7 49.7 98.8 49 98.9 48.4C98.9 48.3 98.9 48.2 98.9 48.1C98.9 48.2 98.8 48.2 98.8 48.2Z" fill="#005268"/>
<path d="M99.5999 48.6L97.0999 69.8L99.5999 48.6Z" fill="#005268"/>
<path d="M99.4999 48.6C99.4999 48.9 99.3999 49.3 99.3999 49.6C99.2999 50.5 99.1999 51.4 99.0999 52.3C98.9999 53.5 98.7999 54.8 98.6999 56C98.4999 57.4 98.3999 58.8 98.1999 60.2C97.9999 61.5 97.8999 62.9 97.6999 64.2C97.5999 65.3 97.3999 66.4 97.2999 67.5C97.1999 68.2 97.0999 68.8 97.0999 69.5C97.0999 69.6 97.0999 69.7 97.0999 69.8C97.0999 69.8 97.1999 69.8 97.1999 69.7C97.1999 69.4 97.2999 69 97.2999 68.7C97.3999 67.8 97.4999 66.9 97.5999 66C97.6999 64.8 97.8999 63.5 97.9999 62.3C98.1999 60.9 98.2999 59.5 98.4999 58.1C98.6999 56.8 98.7999 55.4 98.9999 54.1C99.0999 53 99.2999 51.9 99.3999 50.8C99.4999 50.1 99.5999 49.5 99.5999 48.8C99.5999 48.7 99.5999 48.6 99.5999 48.5C99.5999 48.5 99.4999 48.6 99.4999 48.6Z" fill="#005268"/>
<path d="M100.4 49L98 69.1L100.4 49Z" fill="#005268"/>
<path d="M100.3 49C100.3 49.3 100.2 49.6 100.2 50C100.1 50.8 100 51.7 99.9 52.5C99.8 53.7 99.6 54.9 99.5 56C99.3 57.3 99.2 58.6 99 60C98.9 61.3 98.7 62.5 98.6 63.8C98.5 64.8 98.4 65.9 98.2 66.9C98.1 67.5 98.1 68.1 98 68.7C98 68.8 98 68.9 98 69C98 69 98.1 69 98.1 68.9C98.1 68.6 98.2 68.3 98.2 67.9C98.3 67.1 98.4 66.2 98.5 65.4C98.6 64.2 98.8 63 98.9 61.9C99.1 60.6 99.2 59.3 99.4 57.9C99.5 56.6 99.7 55.4 99.8 54.1C99.9 53.1 100 52 100.2 51C100.3 50.4 100.3 49.8 100.4 49.2C100.4 49.1 100.4 49 100.4 48.9C100.5 49 100.3 49 100.3 49Z" fill="#005268"/>
<path d="M101.2 49.8L98.8999 68.8L101.2 49.8Z" fill="#005268"/>
<path d="M101.1 49.8C101.1 50.1 101 50.4 101 50.7C100.9 51.5 100.8 52.3 100.7 53.1C100.6 54.2 100.4 55.3 100.3 56.4C100.2 57.7 99.9999 58.9 99.8999 60.2C99.7999 61.4 99.5999 62.6 99.4999 63.8C99.3999 64.8 99.2999 65.8 99.0999 66.8C98.9999 67.4 98.9999 68 98.8999 68.6C98.8999 68.7 98.8999 68.8 98.8999 68.9C98.8999 68.9 98.9999 68.9 98.9999 68.8C98.9999 68.5 99.0999 68.2 99.0999 67.9C99.1999 67.1 99.2999 66.3 99.3999 65.5C99.4999 64.4 99.6999 63.3 99.7999 62.2C99.8999 60.9 100.1 59.7 100.2 58.4C100.3 57.2 100.5 56 100.6 54.8C100.7 53.8 100.8 52.8 101 51.8C101.1 51.2 101.1 50.6 101.2 50C101.2 49.9 101.2 49.8 101.2 49.7C101.2 49.8 101.1 49.8 101.1 49.8Z" fill="#005268"/>
<path d="M101.9 50.8L99.9001 68.2L101.9 50.8Z" fill="#005268"/>
<path d="M101.8 50.8C101.8 51.1 101.7 51.4 101.7 51.6C101.6 52.3 101.5 53.1 101.4 53.8C101.3 54.8 101.2 55.8 101.1 56.9C101 58 100.8 59.2 100.7 60.3C100.6 61.4 100.4 62.5 100.3 63.6C100.2 64.5 100.1 65.4 100 66.3C99.9 66.8 99.9 67.4 99.8 67.9C99.8 68 99.8 68.1 99.8 68.1C99.8 68.1 99.9 68.1 99.9 68C99.9 67.7 100 67.4 100 67.2C100.1 66.5 100.2 65.7 100.3 65C100.4 64 100.5 63 100.6 61.9C100.7 60.8 100.9 59.6 101 58.5C101.1 57.4 101.3 56.3 101.4 55.2C101.5 54.3 101.6 53.4 101.7 52.5C101.8 52 101.8 51.4 101.9 50.9C101.9 50.8 101.9 50.7 101.9 50.7C101.9 50.8 101.8 50.8 101.8 50.8Z" fill="#005268"/>
<path d="M102.5 52.4L100.8 67.6L102.5 52.4Z" fill="#005268"/>
<path d="M102.5 52.4C102.5 52.6 102.4 52.9 102.4 53.1C102.3 53.7 102.3 54.4 102.2 55C102.1 55.9 102 56.8 101.9 57.7C101.8 58.7 101.7 59.7 101.6 60.7C101.5 61.7 101.4 62.6 101.3 63.6C101.2 64.4 101.1 65.2 101 66C100.9 66.5 100.9 66.9 100.8 67.4C100.8 67.5 100.8 67.5 100.8 67.6C100.8 67.6 100.9 67.6 100.9 67.5C100.9 67.3 101 67 101 66.8C101.1 66.2 101.1 65.5 101.2 64.9C101.3 64 101.4 63.1 101.5 62.2C101.6 61.2 101.7 60.2 101.8 59.2C101.9 58.2 102 57.3 102.1 56.3C102.2 55.5 102.3 54.7 102.4 53.9C102.5 53.4 102.5 53 102.6 52.5C102.6 52.4 102.6 52.4 102.6 52.3C102.6 52.4 102.5 52.4 102.5 52.4Z" fill="#005268"/>
<path d="M103.1 54.8L101.8 67L103.1 54.8Z" fill="#005268"/>
<path d="M103.1 54.9C103.1 55.1 103 55.4 103 55.6C102.9 56.2 102.9 56.9 102.8 57.5C102.7 58.3 102.6 59.2 102.5 60C102.4 60.9 102.3 61.8 102.2 62.7C102.1 63.5 102 64.3 101.9 65.1C101.8 65.6 101.8 66.1 101.7 66.7C101.7 66.8 101.7 66.9 101.7 67C101.7 67 101.8 67 101.8 66.9C101.8 66.7 101.9 66.4 101.9 66.2C102 65.6 102 64.9 102.1 64.3C102.2 63.5 102.3 62.6 102.4 61.8C102.5 60.9 102.6 60 102.7 59.1C102.8 58.3 102.9 57.5 103 56.7C103.1 56.2 103.1 55.7 103.2 55.1C103.2 55 103.2 54.9 103.2 54.8L103.1 54.9Z" fill="#005268"/>
<path d="M103.7 57.3L102.6 66.7L103.7 57.3Z" fill="#005268"/>
<path d="M103.7 57.3C103.7 57.6 103.6 57.9 103.6 58.2C103.5 58.9 103.4 59.7 103.3 60.4C103.2 61.3 103.1 62.2 103 63.1C102.9 63.9 102.8 64.7 102.7 65.5C102.7 65.9 102.6 66.3 102.6 66.7C102.6 66.7 102.7 66.7 102.7 66.6C102.7 66.3 102.8 66 102.8 65.7C102.9 65 103 64.2 103.1 63.5C103.2 62.6 103.3 61.7 103.4 60.8C103.5 60 103.6 59.2 103.7 58.4C103.7 58 103.8 57.6 103.8 57.2C103.8 57.3 103.7 57.3 103.7 57.3Z" fill="#005268"/>
<path d="M104.5 58.6L103.6 66.1L104.5 58.6Z" fill="#005268"/>
<path d="M104.4 58.6C104.4 59 104.3 59.3 104.3 59.7C104.2 60.5 104.1 61.3 104 62.2C103.9 63.1 103.8 63.9 103.7 64.8C103.6 65.3 103.6 65.7 103.5 66.2C103.5 66.2 103.6 66.2 103.6 66.1C103.6 65.7 103.7 65.4 103.7 65C103.8 64.2 103.9 63.4 104 62.5C104.1 61.6 104.2 60.8 104.3 59.9C104.4 59.4 104.4 59 104.5 58.5C104.5 58.6 104.4 58.6 104.4 58.6Z" fill="#005268"/>
<path d="M105.3 59.3L104.6 65.5L105.3 59.3Z" fill="#005268"/>
<path d="M105.2 59.3C105.2 59.7 105.1 60.2 105.1 60.6C105 61.5 104.9 62.3 104.8 63.2C104.7 63.9 104.6 64.6 104.6 65.2C104.6 65.3 104.6 65.4 104.6 65.4C104.6 65.4 104.7 65.4 104.7 65.3C104.7 64.9 104.8 64.4 104.8 64C104.9 63.1 105 62.3 105.1 61.4C105.2 60.7 105.3 60 105.3 59.4C105.3 59.3 105.3 59.2 105.3 59.2C105.3 59.3 105.2 59.3 105.2 59.3Z" fill="#005268"/>
<path d="M106.1 59.7L105.5 65.1L106.1 59.7Z" fill="#005268"/>
<path d="M106 59.7C106 60.2 105.9 60.7 105.9 61.1C105.8 62 105.7 62.8 105.6 63.7C105.6 64.1 105.5 64.6 105.5 65C105.5 65 105.6 65 105.6 64.9C105.6 64.4 105.7 63.9 105.7 63.5C105.8 62.6 105.9 61.8 106 60.9C106 60.5 106.1 60 106.1 59.6C106.1 59.6 106 59.7 106 59.7Z" fill="#005268"/>
<path d="M107.1 59.9L106.6 64.5L107.1 59.9Z" fill="#005268"/>
<path d="M107 59.9C106.9 60.4 106.9 61 106.8 61.5C106.7 62.3 106.6 63.2 106.5 64C106.5 64.2 106.5 64.3 106.4 64.5C106.4 64.5 106.5 64.5 106.5 64.4C106.6 63.9 106.6 63.3 106.7 62.8C106.8 62 106.9 61.1 107 60.3C107 60.1 107 60 107.1 59.8C107.1 59.9 107 59.9 107 59.9Z" fill="#005268"/>
<path d="M108.9 60.2L108.5 63.3L108.9 60.2Z" fill="#005268"/>
<path d="M108.8 60.3C108.7 60.9 108.6 61.6 108.6 62.2C108.6 62.6 108.5 63 108.5 63.4C108.5 63.4 108.6 63.4 108.6 63.3C108.7 62.7 108.8 62 108.8 61.4C108.8 61 108.9 60.6 108.9 60.2C108.9 60.2 108.8 60.2 108.8 60.3Z" fill="#005268"/>
<path d="M108 60L107.5 63.9L108 60Z" fill="#005268"/>
<path d="M107.9 60.1C107.8 60.7 107.8 61.3 107.7 61.9C107.6 62.6 107.5 63.3 107.5 64C107.5 64 107.6 64 107.6 63.9C107.7 63.3 107.7 62.7 107.8 62.1C107.9 61.4 108 60.7 108 60L107.9 60.1Z" fill="#005268"/>
<path d="M108 60L107.5 63.9L108 60Z" fill="#005268"/>
<path d="M107.9 60.1C107.8 60.7 107.8 61.3 107.7 61.9C107.6 62.6 107.5 63.3 107.5 64C107.5 64 107.6 64 107.6 63.9C107.7 63.3 107.7 62.7 107.8 62.1C107.9 61.4 108 60.7 108 60L107.9 60.1Z" fill="#005268"/>
<g opacity="0.53">
<path d="M103 54.8C102.4 49.3 100.1 48.1 97.4999 47.5C95.7999 47.3 94.1999 47.7 92.5999 48.4C92.5999 48.5 92.5999 48.5 92.5999 48.6C92.5999 48.8 92.5999 48.9 92.5999 49.1C95.9999 47.6 100.7 47.6 101.9 52.2C102.6 55 102.7 58.7 105.4 60C106.4 60.5 107.3 60.5 108.3 60.6C107.4 60.5 103.7 60.3 103 54.8Z" fill="#A8581F"/>
</g>
<g opacity="0.34">
<path d="M99 46.7C100.3 47.4 101.9 48.5 103.1 50.8C102.7 49.7 102 48.7 101.2 47.9C100.3 47 99.2 46.2 98 45.9C96.8 45.5 95.4 45.6 94.2 45.4C94.1 45.7 93.9 45.9 93.7 46C94.7 45.7 95.8 45.5 96.7 45.9C97.2 46 98.1 46.2 99 46.7Z" fill="white"/>
</g>
<g opacity="0.12">
<path d="M93.6998 45.2C93.6998 45.5 92.9998 45.6 92.2998 45.5C91.5998 45.4 90.9998 45 91.0998 44.8C91.0998 44.5 91.7998 44.4 92.4998 44.5C93.1998 44.5 93.6998 44.9 93.6998 45.2Z" fill="white"/>
</g>
<g opacity="0.22">
<path d="M89.1998 73.5C89.1998 73.5 89.0998 73.5 89.1998 73.5C89.0998 73.4 89.0998 73.3 89.0998 73.2C89.0998 73.1 89.0998 73 89.0998 72.9V72.8C89.1998 72.1 89.3998 71.3 89.4998 70.6C89.5998 69.5 89.7998 68.4 89.8998 67.2C90.1998 64.8 90.5998 62.5 90.8998 60.1C91.2998 57.7 91.5998 55.3 91.8998 52.9C91.9998 51.8 92.2998 50.7 92.3998 49.5C92.4998 48.8 92.4998 48 92.7998 47.3C92.5998 47.4 92.2998 47.4 92.0998 47.3C92.1998 47.6 92.2998 48.3 91.9998 49.9C91.4998 53 88.9998 70 88.7998 71.6C88.6998 72.8 88.9998 73.6 88.7998 74C88.8998 73.9 89.0998 73.8 89.1998 73.7C89.3998 73.7 89.2998 73.6 89.1998 73.5Z" fill="#A8581F"/>
</g>
<g opacity="0.53">
<path d="M111.1 61.8C109.3 62.5 107.5 63.5 105.7 64.3C103.8 65.1 102 66.1 100.2 67.1C98.4 68.1 96.7 69.2 94.9 70.2C93.4 71.2 91.7 71.9 90.2 73C90.5 73.2 90.7 73.4 90.8 73.6C91 73.8 110.9 62.1 111.1 61.8Z" fill="#A8581F"/>
</g>
<path d="M86 69.3C86 69.2 86 69.1 86.1 69C86.2 68.7 86.2 68.4 86 68.2C85.8 67.9 85.3 67.8 85 67.7C84.4 67.4 83.7 67.2 83 67.1C82.6 67 81.7001 66.8 81.3001 67.1C81.1001 67.2 81.1 67.6 81 67.8C80.8 68.5 80.7001 69.3 80.4001 70C80.3001 70.4 80.2 70.8 80 71.2C79.5 70.6 78.2 70.8 77.7 71.3C77.1 71.8 76.8001 72.7 77.4001 73.3C77.9001 73.8 78.7 73.8 79.2 73.4C80 72.9 80.4 71.8 80.7 70.9C81 70.1 81.3001 69.3 81.4001 68.5C82.7001 68.7 84 69 85.2 69.4C85 70 84.9 70.6 84.7 71.2C84.6 71.6 84.5001 72 84.3001 72.4C83.8001 71.8 82.5 72 82 72.5C81.4 73 81.1 73.9 81.7 74.5C82.2 75 83 75 83.5 74.6C84.3 74.1 84.7 73 85 72.1C85.2 71.4 85.5 70.8 85.7 70.1C85.9 69.8 85.9 69.6 86 69.3Z" fill="#005268"/>
<path d="M79.9999 9.10001C79.5999 8.60001 78.9999 8.40001 78.3999 8.30001C77.8999 8.20001 77.2999 8.40001 76.8999 8.20001C76.2999 8.00001 76.2999 7.50001 76.1999 7.00001C76.0999 6.30001 74.9999 6.30001 74.7999 7.00001C74.4999 8.70001 74.0999 10.3 73.6999 12C73.5999 12.6 73.4999 13.4 73.2999 14.2C72.9999 13.9 72.5999 13.7 72.1999 13.6C71.8999 13.5 71.3999 13.5 71.0999 13.5C70.0999 13.7 69.2999 14.4 68.9999 15.3C68.6999 16.2 68.7999 17.4 69.6999 17.9C72.3999 19.5 73.9999 15.7 74.4999 13.7C74.8999 12.2 75.2999 10.8 75.6999 9.30001C75.7999 9.40001 75.9999 9.50001 76.0999 9.60001C76.5999 9.80001 77.1999 9.80001 77.6999 9.80001C78.1999 9.80001 78.5999 9.80001 78.9999 10.1C79.3999 10.5 79.4999 11.1 79.0999 11.6C78.5999 12.2 79.4999 13.1 79.9999 12.5C80.6999 11.6 80.9999 10.1 79.9999 9.10001Z" fill="#005268"/>
<path d="M18 21.5C18 22.2 17.9 22.9 17.7 23.6C17.4 24.5 16.7 25.2 15.8 25.3C15.5 25.3 15.2 25.3 15 25.2C14 24.8 14 23.7 14.3 22.8C14.6 22.2 15 21.6 15.4 21C16.4 19.5 16.5 18 16.6 16.4C16.6 16.2 16.9 16.1 17.1 16.3C17.9 17.9 18.1 19.8 18 21.5Z" fill="#F0968E"/>
<path d="M20.9 22.3C21 22.7 21.1 23 21.1 23.4C21.1 23.9 20.9 24.4 20.4 24.6C20.3 24.7 20.1 24.7 20 24.7C19.4 24.6 19.3 24.1 19.3 23.6C19.3 23.2 19.5 22.9 19.6 22.6C19.9 21.7 19.7 21 19.5 20.1C19.5 20 19.6001 19.9 19.7001 20C20.3001 20.5 20.7 21.5 20.9 22.3Z" fill="#F0968E"/>
<path d="M24.3999 14C25.0999 14 25.6999 14 26.3999 13.9C27.1999 13.7 27.9999 13.1 28.0999 12.2C28.0999 11.9 28.0999 11.7 27.9999 11.4C27.5999 10.5 26.5999 10.3 25.7999 10.6C25.1999 10.8 24.6999 11.2 24.0999 11.5C22.5999 12.3 21.0999 12.3 19.4999 12.3C19.2999 12.3 19.2999 12.5 19.3999 12.6C20.8999 13.6 22.6999 13.9 24.3999 14Z" fill="#F0968E"/>
<path d="M25.4001 16.8C25.7001 16.9 26.1001 17 26.5001 17C27.0001 17 27.5001 16.8 27.7001 16.4C27.8001 16.3 27.8001 16.1 27.8001 16C27.8001 15.4 27.2001 15.2 26.8001 15.2C26.4001 15.2 26.1001 15.3 25.8001 15.4C24.9001 15.6 24.1001 15.4 23.3001 15.1C23.2001 15.1 23.1001 15.2 23.2001 15.2C23.6001 16.1 24.6001 16.5 25.4001 16.8Z" fill="#F0968E"/>
<path d="M20.8999 19.2C22.0999 20.8 23.4999 21.9 24.5999 20.8C24.8999 20.5 24.9999 20.1 24.9999 19.8C24.9999 18.7 24.1999 18 23.3999 17.4C22.7999 16.9 22.0999 16.5 21.2999 16.1C20.4999 15.7 19.5999 15.1 18.6999 14.7C18.4999 14.6 18.2999 14.8 18.3999 15C18.8999 16 19.7999 17.8 20.8999 19.2Z" fill="#F0968E"/>
<path d="M95.3001 17.8C94.9001 17.6 94.4001 17.4 94.1001 17.1C93.6001 16.7 93.3001 16.1 93.5001 15.4C93.6001 15.2 93.7001 15.1 93.8001 14.9C94.3001 14.4 95.0001 14.7 95.4001 15.1C95.7001 15.4 95.9001 15.8 96.2001 16.2C96.9001 17.2 97.7001 17.6 98.7001 18.1C98.8001 18.2 98.8001 18.4 98.6001 18.4C97.5001 18.6 96.3001 18.2 95.3001 17.8Z" fill="#FDEFED"/>
<path d="M94 19.3C93.8 19.3 93.5 19.2 93.3 19.1C93 19 92.8 18.7 92.8 18.4C92.8 18.3 92.8 18.2 92.9 18.1C93.1 17.8 93.5 17.8 93.8 18C94 18.1 94.2 18.3 94.4 18.4C94.9 18.8 95.4 18.9 95.9 19C96 19 96 19.1 95.9 19.2C95.3 19.4 94.6 19.4 94 19.3Z" fill="#FDEFED"/>
<path d="M98.3 23.7C98.1 24.1 97.9 24.5 97.9 25C97.8 25.6 98 26.2 98.5 26.5C98.6 26.6 98.8 26.6 99 26.7C99.7 26.7 100 26.1 100.1 25.6C100.1 25.2 100 24.7 100 24.3C99.9 23.1 100.3 22.3 100.7 21.3C100.7 21.2 100.6 21.1 100.5 21.2C99.4 21.6 98.8 22.7 98.3 23.7Z" fill="#FDEFED"/>
<path d="M96.3002 23.6C96.1002 23.8 96.0002 24 95.9002 24.2C95.8002 24.5 95.8002 24.8 96.0002 25.1C96.1002 25.2 96.1002 25.2 96.2002 25.3C96.6002 25.4 96.8002 25.2 96.9002 24.9C97.0002 24.7 97.0002 24.4 97.0002 24.2C97.1002 23.6 97.5002 23.2 97.8002 22.7C97.8002 22.7 97.8002 22.6 97.7002 22.6C97.2002 22.6 96.7002 23.1 96.3002 23.6Z" fill="#FDEFED"/>
<path d="M96.0001 20.1C94.7001 20.4 93.6001 21 94.0001 22C94.1001 22.2 94.3001 22.4 94.5001 22.5C95.2001 22.8 95.8001 22.5 96.4001 22.1C96.9001 21.8 97.3001 21.5 97.7001 21.2C98.2001 20.8 98.8001 20.4 99.2001 20C99.3001 19.9 99.2001 19.7 99.1001 19.7C98.5001 19.7 97.1001 19.8 96.0001 20.1Z" fill="#FDEFED"/>
<path d="M24.6 60.7C24.2 60.7 23.8 60.9 23.5 61.2C23.3 61.4 23.1 61.7 22.8 61.9C22.4 62.1 22.2 61.9 21.9 61.7C21.5 61.5 21 62 21.3 62.4C22 63.3 22.6 64.2 23.3 65.1C23.5 65.4 23.9 65.8 24.2 66.2C23.9 66.2 23.6 66.3 23.4 66.5C23.2 66.6 23 66.8 22.9 67C22.6 67.6 22.6 68.3 22.9 68.8C23.2 69.4 23.8 69.8 24.5 69.6C26.5 69 25.3 66.5 24.6 65.4C24.1 64.6 23.5 63.7 23 62.9C23.1 62.9 23.2 62.9 23.3 62.8C23.6 62.6 23.9 62.4 24.1 62.1C24.3 61.9 24.5 61.6 24.8 61.6C25.2 61.6 25.5 61.8 25.6 62.2C25.7 62.7 26.5 62.7 26.4 62.2C26.1 61.4 25.5 60.7 24.6 60.7Z" fill="#005268"/>
<path d="M61.5999 98.3C61.5999 98.3 61.5999 98.2 61.6999 98.2C63.1999 95.2 61.4999 91.6 58.4999 90.5C57.4999 90.1 56.3999 89.9 55.2999 89.8C53.9999 89.7 52.7999 89.8 51.4999 89.9C50.5999 90 49.7999 90.3 48.9999 89.8C47.6999 88.9 43.1999 85.2 41.8999 85.5C40.5999 85.8 40.3999 87.4 41.9999 88.3C43.5999 89.2 48.0999 91 48.5999 91.4C48.9999 91.8 49.2999 92.8 49.3999 93.3C49.5999 93.9 49.8999 94.5 50.1999 95.1C51.4999 97.4 53.3999 99.6 56.0999 100.2C58.0999 100.5 60.4999 100.2 61.5999 98.3Z" fill="#F3A8A1" stroke="#4C0003" stroke-width="0.05" stroke-miterlimit="10"/>
<path d="M41.2998 87.6C41.4998 87.8 41.6998 88 41.9998 88.2C42.1998 88.3 42.2998 88.4 42.4998 88.5C42.7998 87.6 43.2998 86.7 44.0998 86.3C43.5998 86 43.0998 85.7 42.6998 85.6C41.9998 86.1 41.4998 86.8 41.2998 87.6Z" fill="#005268" stroke="#4C0003" stroke-width="0.05" stroke-miterlimit="10"/>
<path d="M60.5 93.4C60.7 93.1 60.9 92.8 61.2 92.5C60.8 91.9 60.2 91.3 59.5 90.9C59.8 91.8 60.1 92.6 60.5 93.4Z" fill="#FDEFED" stroke="#4C0003" stroke-width="0.05" stroke-miterlimit="10"/>
<path d="M58.9 92.7C59.4 92.9 59.7999 93.2 60.2999 93.3C59.8999 92.5 59.5999 91.7 59.2999 90.8C58.6999 91.2 58.2 91.7 57.7 92.2C58.1 92.4 58.5 92.6 58.9 92.7Z" fill="#FDEFED" stroke="#4C0003" stroke-width="0.05" stroke-miterlimit="10"/>
<path d="M58.8998 95.5C58.6998 94.8 58.3998 94.2 58.0998 93.5C57.8998 93.2 57.7998 92.8 57.6998 92.5C57.6998 92.5 57.6998 92.4 57.5998 92.3C57.0998 92.8 56.5998 93.4 56.1998 94C56.0998 94.2 55.9998 94.4 55.7998 94.6C56.7998 95 57.8998 95.2 58.8998 95.5Z" fill="#FDEFED" stroke="#4C0003" stroke-width="0.05" stroke-miterlimit="10"/>
<path d="M56.2999 95.4C56.5999 95.8 56.7999 96.2 57.0999 96.5C57.2999 96.9 57.5999 97.2 57.7999 97.6C58.1999 96.9 58.5999 96.3 58.9999 95.6C57.9999 95.3 56.8999 95.1 55.8999 94.8C55.9999 95 56.0999 95.2 56.2999 95.4Z" fill="#FDEFED" stroke="#4C0003" stroke-width="0.05" stroke-miterlimit="10"/>
<path d="M54.5 97C55.5 97.2 56.6 97.3 57.6 97.6C57.4 97.2 57.1 96.9 56.9 96.5C56.6 96.1 56.4 95.7 56.1 95.3C56 95.2 55.9 95 55.8 94.8C55.3 95.6 54.9 96.3 54.5 97Z" fill="#FDEFED" stroke="#4C0003" stroke-width="0.05" stroke-miterlimit="10"/>
<path d="M59.6 92.7C59.5 92.5 59.4 92.2 59.3 92C59.2 91.7 59 91.5 58.9 91.2C58.6 91.4 58.3 91.7 58 91.9C58.6 92.2 59.1 92.4 59.6 92.7Z" fill="#4C0003" stroke="#4C0003" stroke-width="0.05" stroke-miterlimit="10"/>
<path d="M56.2 94.1C56.5 94.2 56.9 94.3 57.2 94.5C57.6 94.7 58 94.8 58.4 95C58.3 94.8 58.1999 94.6 58.0999 94.4C57.7999 93.9 57.5 93.4 57.2 92.8C56.8 93.2 56.5 93.6 56.2 94.1Z" fill="#4C0003" stroke="#4C0003" stroke-width="0.05" stroke-miterlimit="10"/>
<path d="M58.9999 95.5C59.3999 94.8 59.8999 94.2 60.3999 93.5C59.8999 93.3 59.4999 93.1 58.9999 92.9C58.5999 92.7 58.0999 92.5 57.5999 92.4C57.6999 92.6 57.7999 92.9 57.8999 93C57.9999 93.3 58.0999 93.5 58.1999 93.8C58.4999 94.3 58.7999 94.9 58.9999 95.5Z" fill="#FDEFED" stroke="#4C0003" stroke-width="0.05" stroke-miterlimit="10"/>
<path d="M60.6998 92.7C60.6998 92.8 60.7998 92.9 60.7998 93C60.8998 92.9 60.9998 92.7 61.0998 92.6C60.8998 92.3 60.5998 91.9 60.2998 91.6C60.4998 91.9 60.5998 92.3 60.6998 92.7Z" fill="#4C0003" stroke="#4C0003" stroke-width="0.05" stroke-miterlimit="10"/>
<path d="M59.3998 95C59.5998 94.7 59.8998 94.3 60.0998 94C59.6998 93.8 59.1998 93.6 58.7998 93.5C58.9998 94 59.1998 94.5 59.3998 95Z" fill="#4C0003" stroke="#4C0003" stroke-width="0.05" stroke-miterlimit="10"/>
<path d="M52.2998 89.8C51.9998 89.8 51.7998 89.8 51.4998 89.9C50.5998 90 49.8998 90.3 49.0998 89.9C48.7998 90.3 48.4998 90.8 48.2998 91.2C48.3998 91.3 48.4998 91.3 48.5998 91.4C48.9998 91.8 49.2998 92.8 49.3998 93.3C49.4998 93.5 49.5998 93.8 49.6998 94C50.0998 92.3 50.9998 90.8 52.2998 89.8Z" fill="#005268" stroke="#4C0003" stroke-width="0.05" stroke-miterlimit="10"/>
<path d="M50 91.1L50.0999 91.5L49.7999 91.3L49.4 91.5L49.5 91.1L49.2 90.8L49.5999 90.7L49.7 90.4L49.9 90.7L50.2999 90.8L50 91.1Z" fill="#FDEFED" stroke="#4C0003" stroke-width="0.05" stroke-miterlimit="10"/>
<path d="M40.8998 86.3C40.9998 85.8 41.3998 85.5 41.8998 85.4C42.8998 85.2 45.4998 87.2 47.4998 88.6C48.1998 89.1 48.6998 89.5 49.0998 89.7C49.6998 90.1 50.1998 90 50.8998 89.9C51.0998 89.9 51.2998 89.8 51.5998 89.8C53.0998 89.7 54.2998 89.7 55.3998 89.7C56.3998 89.7 57.5998 90 58.5998 90.4C61.3998 91.4 62.9998 94.5 62.1998 97.3C62.0998 97.6 61.9998 97.9 61.7998 98.2C61.7998 98.2 61.7998 98.3 61.6998 98.3C60.2998 100.8 57.0998 100.3 56.1998 100.1C53.0998 99.4 51.1998 96.6 50.2998 95C49.9998 94.5 49.7998 93.9 49.4998 93.2C49.4998 93.1 49.3998 93 49.3998 92.9C49.1998 92.4 48.9998 91.7 48.6998 91.3C48.4998 91.1 46.8998 90.4 45.3998 89.7C44.1998 89.1 42.8998 88.6 42.0998 88.2C40.9998 87.7 40.7998 86.9 40.8998 86.3ZM61.9998 97.2C62.7998 94.5 61.1998 91.5 58.4998 90.5C57.4998 90.1 56.2998 89.9 55.2998 89.8C54.1998 89.7 52.9998 89.8 51.4998 89.9C51.2998 89.9 51.0998 90 50.7998 90C50.1998 90.1 49.5998 90.2 48.9998 89.8C48.5998 89.6 48.0998 89.2 47.3998 88.7C45.5998 87.3 42.8998 85.3 41.8998 85.5C41.3998 85.6 41.0998 85.9 40.8998 86.3C40.7998 86.8 40.8998 87.6 41.9998 88.1C42.6998 88.5 43.9998 89.1 45.1998 89.6C46.7998 90.3 48.2998 91 48.4998 91.2C48.7998 91.5 49.0998 92.3 49.2998 92.8C49.2998 92.9 49.3998 93 49.3998 93.1C49.5998 93.8 49.8998 94.3 50.1998 94.9C51.0998 96.5 52.9998 99.3 55.9998 99.9C56.8998 100.1 60.0998 100.6 61.3998 98.2C61.3998 98.2 61.3998 98.1 61.4998 98.1C61.7998 97.8 61.8998 97.5 61.9998 97.2Z" stroke="#4C0003" stroke-width="0.05" stroke-miterlimit="10"/>
<path d="M42.9998 86.4C42.8998 86.4 42.7998 86.3 42.8998 86.1C42.8998 86 42.9998 85.9 43.1998 86C43.2998 86 43.3998 86.1 43.2998 86.3C43.1998 86.3 43.0998 86.4 42.9998 86.4Z" fill="#FDEFED" stroke="#4C0003" stroke-width="0.05" stroke-miterlimit="10"/>
<path d="M42.4998 87C42.3998 87 42.2998 86.8 42.2998 86.7C42.2998 86.6 42.4998 86.5 42.5998 86.5C42.6998 86.5 42.7998 86.7 42.7998 86.8C42.6998 87 42.5998 87.1 42.4998 87Z" fill="#FDEFED" stroke="#4C0003" stroke-width="0.05" stroke-miterlimit="10"/>
<path d="M42.0999 87.8C41.9999 87.8 41.8999 87.6 41.8999 87.5C41.8999 87.4 42.0999 87.3 42.1999 87.3C42.2999 87.3 42.3999 87.5 42.3999 87.6C42.2999 87.8 42.1999 87.8 42.0999 87.8Z" fill="#FDEFED" stroke="#4C0003" stroke-width="0.05" stroke-miterlimit="10"/>
<path opacity="0.4" d="M56.1998 100C58.1998 100.4 60.5998 100.2 61.6998 98.2C61.6998 98.2 61.6998 98.1 61.7998 98.1C61.8998 97.9 61.9998 97.8 61.9998 97.6C61.7998 97.7 61.5998 97.9 61.3998 97.9C60.4998 98.2 59.4998 98.1 58.4998 97.9C56.3998 97.4 54.3998 96.2 52.8998 94.7C52.1998 94 51.4998 93.2 51.1998 92.2C50.7998 91.5 50.1998 90.6 49.3998 90.3C47.5998 89.6 45.5998 89.1 43.9998 88C43.4998 87.7 42.9998 87.2 42.9998 86.6C42.9998 86.2 43.1998 86 43.5998 85.9C43.6998 85.9 43.7998 85.9 43.8998 85.9C43.0998 85.5 42.4998 85.2 42.0998 85.3C40.7998 85.6 40.5998 87.2 42.1998 88.1C43.7998 89 48.2998 90.8 48.7998 91.2C49.1998 91.6 49.4998 92.6 49.5998 93.1C49.7998 93.7 50.0998 94.3 50.3998 94.9C51.4998 97.2 53.4998 99.4 56.1998 100Z" fill="#FDEFED" stroke="#4C0003" stroke-width="0.05" stroke-miterlimit="10"/>
<path opacity="0.4" d="M61.8 95.6C61.6 94.1 60.8 92.9 59.7 91.9C58.6 90.9 56.7 90.2 55.1 90.4C54.9 90.4 55 90.7 55.2 90.8C56.5 91.4 57.9 91.6 59.1 92.4C60.3 93.1 61.2 94.4 61.7 95.7C61.7 95.7 61.8 95.7 61.8 95.6Z" fill="#FDEFED" stroke="#4C0003" stroke-width="0.05" stroke-miterlimit="10"/>
<path opacity="0.4" d="M53.7999 90.4C53.8999 90.4 53.9999 90.4 54.0999 90.5C54.1999 90.5 54.1999 90.5 54.1999 90.4C54.1999 90.3 54.0999 90.3 54.0999 90.3C53.9999 90.3 53.8999 90.2 53.6999 90.2C53.5999 90.2 53.6999 90.4 53.7999 90.4Z" fill="#FDEFED" stroke="#4C0003" stroke-width="0.05" stroke-miterlimit="10"/>
<path opacity="0.4" d="M47.2 88.9C46.2 88.3 45.2 87.5 44.2 87C44.1 86.9 44.1 87.1 44.2 87.2C45.1 87.9 46.2 88.5 47.2 89.1C47.3 89.1 47.3 88.9 47.2 88.9Z" fill="#FDEFED" stroke="#4C0003" stroke-width="0.05" stroke-miterlimit="10"/>
</g>
</g>
<defs>
<clipPath id="clip0_146_279403">
<rect width="111" height="95" rx="8" fill="white"/>
</clipPath>
</defs>
</svg>
