<svg width="111" height="95" viewBox="0 0 111 95" fill="none" xmlns="http://www.w3.org/2000/svg">
<rect width="111" height="95" rx="8" fill="#D7E4E7"/>
<g clip-path="url(#clip0_139_415283)">
<g opacity="0.5">
<path d="M14.9999 76.6C20.5999 82.7 29.5999 84 35.5999 89.6C37.2999 91.2 38.6999 93 39.7999 95H111V48.4C107.6 46 104.7 43 102.7 39.2C97.1999 28.7 100.3 14.7 93.7999 4.8C92.4999 3 90.8999 1.4 89.1999 0H-6.10352e-05V35.9C1.39994 37.6 2.69994 39.4 3.69994 41.4C9.19994 52.5 6.69994 67.6 14.9999 76.6Z" fill="#FDEFED"/>
<path d="M20.7999 70.8L2.39993 100.2L3.69993 100L23.2999 70.4L20.7999 70.8Z" fill="#FDEFED"/>
<path d="M2.39992 100.3C2.39992 100.3 2.39992 100.2 2.39992 100.3C2.29992 100.2 2.29992 100.2 2.39992 100.3L20.6999 70.8L23.2999 70.4C23.2999 70.4 23.2999 70.4 23.3999 70.4C23.3999 70.4 23.3999 70.4 23.3999 70.5L3.79992 100L2.39992 100.3ZM20.7999 70.8L2.49992 100.1L3.59992 99.9L23.0999 70.4L20.7999 70.8Z" fill="#4C0003"/>
<path d="M13.0999 66.1L-1.40009 97.9L0.0999146 97.4L16.0999 65.2L13.0999 66.1Z" fill="#FDEFED"/>
<path d="M-1.4001 97.9C-1.5001 97.9 -1.5001 97.9 -1.4001 97.9C-1.5001 97.9 -1.5001 97.9 -1.4001 97.9L12.9999 66.1L15.9999 65.2H16.0999C16.0999 65.2 16.0999 65.2 16.0999 65.3L0.0999023 97.5L-1.4001 97.9ZM13.0999 66.2L-1.3001 97.8L-9.76324e-05 97.4L15.8999 65.3L13.0999 66.2Z" fill="#4C0003"/>
<path d="M16.8999 68.3L0.499939 99L2.09994 98.7L20.1999 67.9L16.8999 68.3Z" fill="#FDEFED"/>
<path d="M0.499927 99C0.499927 99 0.399927 99 0.499927 99C0.399927 99 0.399927 99 0.499927 99L16.8999 68.3L20.1999 67.8C20.1999 67.8 20.1999 67.8 20.2999 67.8C20.2999 67.8 20.2999 67.8 20.2999 67.9L2.19993 98.8L0.499927 99ZM16.8999 68.4L0.599927 98.9L2.09993 98.7L20.0999 67.9L16.8999 68.4Z" fill="#4C0003"/>
<path d="M20.1999 67.9L2.09991 98.7L2.39991 100.2L20.7999 70.8L20.1999 67.9Z" fill="#FDEFED"/>
<path d="M2.39991 100.3C2.39991 100.2 2.39991 100.2 2.39991 100.3L2.09991 98.8L20.1999 67.9C20.1999 67.9 20.1999 67.9 20.2999 67.9C20.2999 67.9 20.2999 67.9 20.3999 68L20.9999 70.9L2.39991 100.3C2.49991 100.3 2.39991 100.3 2.39991 100.3ZM2.19991 98.8L2.39991 100.1L20.5999 70.8L20.1999 68L2.19991 98.8Z" fill="#4C0003"/>
<path d="M11.7999 63.4L-2.1001 96.6L-1.4001 97.9L13.0999 66.1L11.7999 63.4Z" fill="#FDEFED"/>
<path d="M-1.4001 97.9C-1.5001 97.9 -1.5001 97.9 -1.4001 97.9L-2.1001 96.5C-2.1001 96.5 -2.1001 96.5 -2.1001 96.4L11.6999 63.3C11.6999 63.3 11.6999 63.3 11.7999 63.3C11.7999 63.3 11.7999 63.3 11.8999 63.3L13.1999 66C13.1999 66 13.1999 66 13.1999 66.1L-1.4001 97.9ZM-2.0001 96.5L-1.4001 97.7L12.9999 66.1L11.7999 63.6L-2.0001 96.5Z" fill="#4C0003"/>
<path d="M8.6999 64.2L-3.6001 96.9L-2.1001 96.6L11.7999 63.4L8.6999 64.2Z" fill="#FDEFED"/>
<path d="M-3.6001 97C-3.6001 97 -3.6001 96.9 -3.6001 97L8.6999 64.2L11.6999 63.4C11.6999 63.4 11.6999 63.4 11.7999 63.4C11.7999 63.4 11.7999 63.4 11.7999 63.5L-2.0001 96.6L-3.6001 97ZM8.7999 64.3L-3.5001 96.9L-2.1001 96.5L11.6999 63.5L8.7999 64.3Z" fill="#4C0003"/>
<path d="M4.99991 62.6L-5.40009 96.1L-4.30009 95.7L7.39991 61.7L4.99991 62.6Z" fill="#FDEFED"/>
<path d="M-5.50009 96.2C-5.50009 96.2 -5.50009 96.1 -5.50009 96.2L4.89991 62.6L7.29991 61.7C7.29991 61.7 7.29991 61.7 7.39991 61.7C7.39991 61.7 7.39991 61.7 7.39991 61.8L-4.20009 95.8L-5.50009 96.2C-5.40009 96.2 -5.50009 96.2 -5.50009 96.2ZM4.99991 62.7L-5.30009 96L-4.30009 95.6L7.29991 61.8L4.99991 62.7Z" fill="#4C0003"/>
<path d="M4.29992 60.5L-5.80008 95.1L-5.40008 96.1L4.99992 62.6L4.29992 60.5Z" fill="#FDEFED"/>
<path d="M-5.50009 96.2L-5.90009 95.1L4.19991 60.4C4.19991 60.4 4.19991 60.4 4.29992 60.4H4.39991L5.09991 62.6L-5.40009 96.2C-5.40009 96.2 -5.40009 96.2 -5.50009 96.2C-5.40009 96.2 -5.50009 96.2 -5.50009 96.2ZM4.89991 62.6L4.29992 60.7L-5.70009 95.1L-5.40009 96" fill="#4C0003"/>
<path d="M7.39992 61.7L-4.30008 95.7L-3.60008 96.9L8.69992 64.2L7.39992 61.7Z" fill="#FDEFED"/>
<path d="M-3.60008 97L-4.30008 95.7C-4.30008 95.7 -4.30008 95.7 -4.30008 95.6L7.29992 61.6C7.29992 61.6 7.29992 61.6 7.39992 61.6C7.39992 61.6 7.39992 61.6 7.49992 61.6L8.89992 64.1C8.89992 64.1 8.89992 64.1 8.89992 64.2L-3.60008 97C-3.50008 97 -3.50008 97 -3.60008 97ZM-4.20008 95.7L-3.60008 96.8L8.69992 64.2L7.39992 61.8L-4.20008 95.7Z" fill="#4C0003"/>
<path d="M16.0999 65.2L0.0999146 97.4L0.499915 99L16.8999 68.3L16.0999 65.2Z" fill="#FDEFED"/>
<path d="M0.499908 99C0.399908 99 0.399908 99 0.499908 99L-9.15527e-05 97.4L15.9999 65.2C15.9999 65.2 15.9999 65.2 16.0999 65.2C16.0999 65.2 16.0999 65.2 16.1999 65.2L16.9999 68.4L0.499908 99ZM0.0999084 97.4L0.499908 98.8L16.7999 68.3L15.9999 65.3L0.0999084 97.4Z" fill="#4C0003"/>
<path d="M32.6999 79.7L8.29993 104.7L8.39993 106.2L32.7999 82.8L32.6999 79.7Z" fill="#FDEFED"/>
<path d="M8.39993 106.2L8.29993 104.6L32.5999 79.7C32.5999 79.7 32.5999 79.7 32.6999 79.7C32.6999 79.7 32.6999 79.7 32.6999 79.8L32.7999 82.8L8.39993 106.2ZM8.39993 104.7L8.49993 106L32.7999 82.7L32.6999 79.8L8.39993 104.7Z" fill="#4C0003"/>
<path d="M23.2999 70.4L3.69992 100L3.89992 101.5L23.6999 73.5L23.2999 70.4Z" fill="#FDEFED"/>
<path d="M3.79991 101.6L3.59991 100L23.1999 70.4C23.1999 70.4 23.1999 70.4 23.2999 70.4C23.2999 70.4 23.2999 70.4 23.2999 70.5L23.5999 73.6L3.79991 101.6C3.89991 101.6 3.89991 101.6 3.79991 101.6ZM3.79991 100L3.89991 101.3L23.5999 73.4L23.2999 70.5L3.79991 100Z" fill="#4C0003"/>
<path d="M37.3999 86.9L35.0999 85.6L9.49991 107.6L10.6999 108.2L37.3999 86.9Z" fill="#FDEFED"/>
<path d="M9.49991 107.6C9.49991 107.6 9.49991 107.5 9.49991 107.6L34.9999 85.5H35.0999L37.3999 86.8C37.3999 86.8 37.3999 86.8 37.3999 86.9L10.6999 108.2C10.6999 108.2 10.6999 108.2 10.5999 108.2L9.49991 107.6ZM35.0999 85.7L9.69991 107.6L10.6999 108.2L37.2999 87L35.0999 85.7Z" fill="#4C0003"/>
<path d="M35.2999 83.6L9.69991 106.6L9.49991 107.6L35.0999 85.6L35.2999 83.6Z" fill="#FDEFED"/>
<path d="M9.49991 107.6L9.59991 106.5L35.2999 83.5C35.2999 83.5 35.2999 83.5 35.3999 83.5C35.3999 83.5 35.3999 83.5 35.3999 83.6L35.1999 85.6L9.49991 107.6C9.59991 107.6 9.49991 107.6 9.49991 107.6ZM9.69991 106.6L9.59991 107.4L34.9999 85.5L35.1999 83.7L9.69991 106.6Z" fill="#4C0003"/>
<path d="M30.0999 79.3L7.09991 104.5L8.29991 104.7L32.6999 79.7L30.0999 79.3Z" fill="#FDEFED"/>
<path d="M6.99991 104.5C6.99991 104.5 6.99991 104.4 6.99991 104.5L29.9999 79.3C29.9999 79.3 29.9999 79.3 30.0999 79.3L32.6999 79.7C32.6999 79.7 32.6999 79.7 32.7999 79.7C32.7999 79.7 32.7999 79.7 32.7999 79.8L8.39991 104.7C8.39991 104.7 8.39991 104.7 8.29991 104.7L6.99991 104.5ZM30.0999 79.4L7.19991 104.4L8.29991 104.6L32.4999 79.8L30.0999 79.4Z" fill="#4C0003"/>
<path d="M32.7999 82.8L8.3999 106.2L9.6999 106.6L35.2999 83.6L32.7999 82.8Z" fill="#FDEFED"/>
<path d="M8.39991 106.2C8.29991 106.2 8.39991 106.1 8.39991 106.2L32.7999 82.7C32.7999 82.7 32.7999 82.7 32.8999 82.7L35.3999 83.5C35.3999 83.5 35.3999 83.5 35.3999 83.6L9.69991 106.6C9.69991 106.6 9.69991 106.6 9.59991 106.6L8.39991 106.2ZM32.7999 82.8L8.49991 106.1L9.59991 106.4L35.0999 83.5L32.7999 82.8Z" fill="#4C0003"/>
<path d="M26.8999 73.3L5.49991 101.5L5.79991 103L27.4999 76.4L26.8999 73.3Z" fill="#FDEFED"/>
<path d="M5.6999 103.1C5.6999 103 5.6999 103 5.6999 103.1L5.3999 101.5L26.8999 73.3C26.8999 73.3 26.8999 73.3 26.9999 73.3C26.9999 73.3 26.9999 73.3 26.9999 73.4L27.4999 76.5C27.4999 76.5 27.4999 76.5 27.4999 76.6L5.6999 103.1C5.7999 103.1 5.7999 103.1 5.6999 103.1ZM5.5999 101.5L5.7999 102.9L27.3999 76.4L26.8999 73.5L5.5999 101.5Z" fill="#4C0003"/>
<path d="M30.3999 76.9L7.19991 103.2L7.09991 104.5L30.0999 79.3L30.3999 76.9Z" fill="#FDEFED"/>
<path d="M6.99991 104.5L7.19991 103.2L30.3999 76.8C30.3999 76.8 30.3999 76.8 30.4999 76.8C30.4999 76.8 30.4999 76.8 30.4999 76.9L30.0999 79.4L6.99991 104.5C7.09991 104.5 7.09991 104.5 6.99991 104.5ZM7.29991 103.3L7.19991 104.3L30.0999 79.3L30.3999 77.1L7.29991 103.3Z" fill="#4C0003"/>
<path d="M23.6999 73.5L3.89993 101.5H5.49993L26.8999 73.3L23.6999 73.5Z" fill="#FDEFED"/>
<path d="M3.79993 101.6C3.79993 101.5 3.79993 101.5 3.79993 101.6L23.5999 73.4L26.8999 73.2C26.8999 73.2 26.8999 73.2 26.9999 73.2C26.9999 73.2 26.9999 73.2 26.9999 73.3L5.49993 101.5L3.79993 101.6C3.89993 101.6 3.79993 101.6 3.79993 101.6ZM23.6999 73.5L3.99993 101.5L5.49993 101.4L26.8999 73.4L23.6999 73.5Z" fill="#4C0003"/>
<path d="M27.4999 76.4L5.79993 103L7.19993 103.2L30.3999 76.9L27.4999 76.4Z" fill="#FDEFED"/>
<path d="M5.69992 103.1C5.69992 103 5.69992 103 5.69992 103.1C5.69992 103 5.69992 103 5.69992 103.1L27.3999 76.4C27.3999 76.4 27.3999 76.4 27.4999 76.4L30.4999 76.9C30.4999 76.9 30.4999 76.9 30.4999 77L7.29992 103.3C7.29992 103.3 7.29992 103.3 7.19992 103.3L5.69992 103.1ZM27.4999 76.5L5.89992 103L7.19992 103.2L30.2999 76.9L27.4999 76.5Z" fill="#4C0003"/>
<path d="M0.499927 61.5L-5.80007 60.2L-6.20007 61.5L0.199926 62.7L0.499927 61.5Z" fill="#FDEFED"/>
<path d="M-6.20007 61.5L-5.90007 60.2C-5.90007 60.2 -5.90007 60.1 -5.80007 60.2L0.599926 61.5C0.599926 61.5 0.599926 61.5 0.599926 61.6L0.299927 62.9C0.299927 62.9 0.299926 63 0.199926 62.9L-6.20007 61.5ZM-5.80007 60.3L-6.10007 61.4L0.0999265 62.6L0.399927 61.5L-5.80007 60.3Z" fill="#4C0003"/>
<path d="M0.199933 62.7L-6.20007 61.5L-6.60007 62.8L-0.200067 64.1L0.199933 62.7Z" fill="#FDEFED"/>
<path d="M-6.60007 62.9C-6.60007 62.9 -6.60007 62.8 -6.60007 62.9L-6.20007 61.5C-6.20007 61.5 -6.20007 61.4 -6.10007 61.5L0.299933 62.8L-0.100067 64.2C-0.100067 64.2 -0.100067 64.3 -0.200067 64.2L-6.60007 62.9ZM-6.10007 61.5L-6.40007 62.8L-0.200067 64L0.0999327 62.7L-6.10007 61.5Z" fill="#4C0003"/>
<path d="M0.899921 60.2L-5.50008 58.9L-5.80008 60.2L0.499921 61.5L0.899921 60.2Z" fill="#FDEFED"/>
<path d="M-5.90009 60.3C-5.90009 60.3 -5.90009 60.2 -5.90009 60.3C-5.90009 60.2 -5.90009 60.2 -5.90009 60.3L-5.60009 59C-5.60009 59 -5.60009 58.9 -5.50009 59L0.799915 60.3L0.499915 61.6C0.499915 61.6 0.499915 61.7 0.399915 61.6L-5.90009 60.3C-5.80009 60.3 -5.90009 60.3 -5.90009 60.3ZM-5.40009 59L-5.70009 60.2L0.499915 61.4L0.799915 60.3L-5.40009 59Z" fill="#4C0003"/>
<path d="M3.19994 61.3L-3.20006 60.1L-3.50006 61.3L2.79994 62.6L3.19994 61.3Z" fill="#B1354E"/>
<path d="M2.49993 64.1L-3.90007 62.8L-4.20007 64.1L2.09993 65.4L2.49993 64.1Z" fill="#B1354E"/>
<path d="M1.99993 65.5L-4.30007 64.3L-4.60007 65.6L1.69993 66.8L1.99993 65.5Z" fill="#B1354E"/>
<path d="M0.799915 69.8L-5.60009 68.5L-5.90009 69.8L0.399915 71L0.799915 69.8Z" fill="#B1354E"/>
<path d="M0.0999327 72.6L-6.30007 71.3L-6.60007 72.6L-0.300067 73.8L0.0999327 72.6Z" fill="#B1354E"/>
<path d="M2.99993 59.9L-7.20007 95.6L-9.20007 95.1L0.699926 59.4L2.99993 59.9Z" fill="#FDEFED"/>
<path d="M-9.30008 95.1L0.599921 59.3L2.99992 59.8L-7.20008 95.7L-9.30008 95.1ZM0.699921 59.5L-9.20008 95L-7.30008 95.5L2.89992 60L0.699921 59.5Z" fill="#4C0003"/>
<path d="M4.69994 59.6L-5.90006 96.6L-8.00006 96.1L2.29994 59.1L4.69994 59.6Z" fill="#005268"/>
<path d="M-8.00006 96.2C-8.00006 96.1 -8.00006 96.1 -8.00006 96.2C-8.00006 96.1 -8.00006 96.1 -8.00006 96.2L2.29994 59C2.29994 59 2.29994 58.9 2.39994 59L4.79994 59.5C4.79994 59.5 4.79994 59.5 4.79994 59.6L-5.80006 96.6C-5.80006 96.6 -5.80006 96.7 -5.90006 96.6L-8.00006 96.2ZM4.59994 59.6L2.29994 59.1L-7.90006 96.1L-6.00006 96.6" fill="#4C0003"/>
<path d="M15.3999 65.8L5.19992 85.9L14.9999 66L15.3999 65.8Z" fill="#F8CBC7"/>
<path d="M11.2999 64L10.7999 64.1L2.09991 85.9L11.2999 64Z" fill="#F8CBC7"/>
<path d="M6.79991 62.6L6.19991 62.8L-1.40009 86L6.79991 62.6Z" fill="#F8CBC7"/>
<path d="M19.4999 68.5L7.79993 88L18.9999 68.7L19.4999 68.5Z" fill="#F8CBC7"/>
<path d="M22.4999 70.9L9.69992 90.7L21.9999 71.1L22.4999 70.9Z" fill="#F8CBC7"/>
<path d="M26.0999 73.6L11.2999 93.3L25.6999 73.7L26.0999 73.6Z" fill="#F8CBC7"/>
<path d="M29.6999 77.2L12.5999 96.5L29.1999 77.4L29.6999 77.2Z" fill="#F8CBC7"/>
<path d="M31.7999 79.9L13.2999 99.1L31.3999 80.1L31.7999 79.9Z" fill="#F8CBC7"/>
<path d="M34.4999 83.6L13.5999 102.6L33.9999 83.7L34.4999 83.6Z" fill="#F8CBC7"/>
<path d="M36.4999 86.9L13.2999 105.7L35.9999 87L36.4999 86.9Z" fill="#F8CBC7"/>
<path d="M39.6999 88.7L10.1999 110.7L8.99994 109.1L37.8999 86.4L39.6999 88.7Z" fill="#005268"/>
<path d="M10.1999 110.8L8.99994 109.2V109.1L37.9999 86.3L39.7999 88.6L10.1999 110.8ZM39.5999 88.7L37.8999 86.5L8.99994 109.2L10.1999 110.7" fill="#4C0003"/>
<path d="M132 6.1C131.2 6.1 130.3 6.2 129.5 6.4C127.2 6.6 125.1 7.2 123.9 7.7C121.6 8.6 119.1 8.1 118.3 6.1C117.9 5.1 117.2 4.1 116.6 3.3C115.6 1.5 114.2 0.0999999 112.3 -0.8L107.6 -3L107 -1.6C102.1 -1 96.9999 2.9 94.0999 8.9C91.1999 14.9 91.3999 21.3 93.9999 25.5L93.2999 27L97.9999 29.2C99.1999 29.8 100.6 30.1 101.9 30.1C101.9 30.1 102 30.1 102.1 30.1H102.2C103 30.1 105.2 30 106.9 29.6C109 29.1 111 30.6 111.7 33C112.1 34.4 113.3 36.9 114.8 39C115.2 39.6 115.6 40.2 116.1 40.7C115.3 40.9 114.7 41 114.7 41L119.2 43.1C119.4 43.2 119.5 43.3 119.7 43.4C127.1 46.9 137 41.7 141.8 31.7C146.5 22 144.6 11.3 137.7 7.5L132.4 5L132 6.1Z" fill="#005268" stroke="#4C0003" stroke-width="0.01" stroke-miterlimit="10"/>
<path d="M141.8 31.7C137 41.7 127.1 47 119.6 43.5C119.5 43.4 119.3 43.4 119.1 43.3L114.6 41.2C114.6 41.2 114.6 41.2 114.6 41.1C114.6 41.1 114.6 41 114.7 41L116 40.7C115.6 40.2 115.2 39.7 114.8 39.1C113.2 36.8 112.1 34.4 111.7 33C111 30.5 109 29.1 107 29.6C105.3 30 103.1 30.1 102.3 30.1H102.2C102 30.1 102 30.1 102 30.1C100.6 30.1 99.2999 29.8 98.0999 29.2L93.2999 27C93.2999 27 93.1999 26.9 93.2999 26.9L93.9999 25.5C91.2999 21.2 91.3999 14.6 94.0999 8.8C96.8999 3 101.9 -1.1 107 -1.8L107.7 -3.2C107.7 -3.2 107.8 -3.3 107.8 -3.2L112.5 -1C114.3 -0.100001 115.7 1.2 116.8 3.1C117.5 4.1 118.1 5.1 118.5 5.9C119.3 7.8 121.7 8.4 124 7.4C125.3 6.9 127.5 6.4 129.6 6.1C130.4 5.9 131.2 5.8 132 5.8L132.5 4.7C132.5 4.7 132.5 4.7 132.6 4.7L137.9 7.2C144.7 11.4 146.5 22 141.8 31.7ZM119.2 43.1C119.4 43.2 119.6 43.3 119.7 43.4C127 46.9 136.9 41.7 141.7 31.7C146.3 22 144.5 11.4 137.6 7.6L132.5 5.1L132 6.1C132 6.1 132 6.1 131.9 6.1C131.1 6.1 130.3 6.2 129.4 6.4C127.3 6.6 125.1 7.1 123.8 7.7C121.3 8.7 118.9 8 118.1 6.1C117.7 5.3 117.2 4.4 116.5 3.3C115.5 1.5 114 0.0999987 112.3 -0.700001L107.7 -2.9L107 -1.6C107 -1.6 107 -1.6 106.9 -1.6C101.9 -1 96.7999 3.1 94.0999 8.9C91.2999 14.7 91.2999 21.2 93.9999 25.5V25.6L93.3999 26.9L97.9999 29.1C99.1999 29.7 100.5 30 101.9 30C101.9 30 102 30 102.1 30H102.2C103.1 30 105.2 29.9 106.9 29.5C109 29 111 30.4 111.7 33C112.1 34.3 113.2 36.8 114.8 39C115.2 39.6 115.6 40.2 116.1 40.7C116.1 40.7 116.1 40.7 116.1 40.8C116.1 40.8 116.1 40.8 116 40.9L114.8 41.2L119.2 43.1Z" fill="#005268" stroke="#4C0003" stroke-width="0.01" stroke-miterlimit="10"/>
<path d="M125.4 4.40002C123.1 4.60002 121 5.20002 119.8 5.70002C117.5 6.60002 115 6.10002 114.2 4.10002C113.8 3.10002 113.1 2.10002 112.5 1.30002C111.5 -0.499977 110.1 -1.89998 108.2 -2.79998C102.1 -5.59998 93.9999 -1.29998 89.9999 7.00002C85.9999 15.3 87.7999 24.4 93.8999 27.3C95.0999 27.9 96.4999 28.2 97.7999 28.2C97.7999 28.2 97.8999 28.2 97.9999 28.2H98.0999C98.8999 28.2 101.1 28.1 102.8 27.7C104.9 27.2 106.9 28.7 107.6 31.1C108 32.5 109.2 35 110.7 37.1C111.5 38.4 112.5 39.5 113.6 40.3C113.7 40.4 113.8 40.4 113.9 40.5C114.4 40.9 115 41.2 115.5 41.5C122.9 45 132.8 39.8 137.6 29.8C142.4 19.8 140.3 8.80002 132.9 5.30002C130.6 4.10002 128 3.90002 125.4 4.40002Z" fill="#F3A8A1" stroke="#4C0003" stroke-width="0.01" stroke-miterlimit="10"/>
<path d="M137.8 29.8C133 39.8 123.1 45.1 115.6 41.6C115 41.3 114.5 41 113.9 40.6C113.8 40.5 113.7 40.5 113.6 40.4C112.5 39.5 111.5 38.4 110.7 37.1C109.1 34.8 108 32.4 107.6 31C106.9 28.5 104.9 27.1 102.9 27.6C101.2 28 98.9999 28.1 98.1999 28.1H98.0999C97.8999 28.1 97.8999 28.1 97.8999 28.1C96.4999 28.1 95.1999 27.8 93.9999 27.2C87.7999 24.4 85.9999 15.2 89.9999 6.90001C93.9999 -1.39999 102.2 -5.79999 108.3 -2.79999C110.1 -1.89999 111.5 -0.599987 112.6 1.30001C113.3 2.30001 113.9 3.30001 114.3 4.10001C115.1 6.00001 117.5 6.60001 119.8 5.60001C121.1 5.10001 123.3 4.60001 125.4 4.30001C128.1 3.80001 130.7 4.00001 133 5.10001C140.4 8.70001 142.6 19.8 137.8 29.8ZM97.8999 28.1C97.8999 28.1 97.9999 28.1 98.0999 28.1H98.1999C99.0999 28.1 101.2 28 102.9 27.6C105 27.1 107 28.5 107.7 31.1C108.1 32.4 109.2 34.9 110.8 37.1C111.6 38.4 112.6 39.5 113.7 40.3C113.8 40.4 113.9 40.4 114 40.5C114.5 40.9 115.1 41.2 115.6 41.5C122.9 45 132.8 39.8 137.6 29.8C142.4 19.8 140.3 8.90001 132.9 5.40001C130.6 4.30001 128 4.00001 125.4 4.60001C123.3 4.80001 121.1 5.30001 119.8 5.90001C117.3 6.90001 114.9 6.20001 114.1 4.30001C113.7 3.50001 113.2 2.60001 112.5 1.50001C111.5 -0.299987 110 -1.69999 108.3 -2.49999C102.2 -5.59999 93.9999 -1.19999 90.0999 7.00001C86.1999 15.2 87.8999 24.3 93.9999 27.2C95.1999 27.8 96.4999 28.1 97.8999 28.1Z" fill="#005268" stroke="#4C0003" stroke-width="0.01" stroke-miterlimit="10"/>
<path d="M109.3 8.50001C112.7 10.1 114.1 14.2 112.5 17.6C110.9 21 106.8 22.4 103.4 20.8C99.9999 19.2 98.5999 15.1 100.2 11.7C101.8 8.3 105.9 6.80001 109.3 8.50001Z" fill="#005268" stroke="#4C0003" stroke-width="0.01" stroke-miterlimit="10"/>
<path d="M109.7 9.49999C112.7 10.9 114 14.5 112.5 17.5C111.1 20.5 107.5 21.8 104.5 20.3C101.5 18.9 100.2 15.3 101.7 12.3C103.1 9.29999 106.7 8.09999 109.7 9.49999Z" fill="#F8CBC7" stroke="#4C0003" stroke-width="0.01" stroke-miterlimit="10"/>
<path d="M112.6 17.6C111 21 106.9 22.5 103.4 20.8C99.9999 19.2 98.4999 15.1 100.2 11.6C101.8 8.2 105.9 6.7 109.4 8.4C112.9 10.1 114.2 14.1 112.6 17.6ZM100.3 11.7C98.6999 15 100.1 19.1 103.5 20.7C106.8 22.3 110.9 20.9 112.5 17.5C114.1 14.2 112.7 10.1 109.3 8.5C105.9 6.9 101.9 8.3 100.3 11.7Z" fill="#005268" stroke="#4C0003" stroke-width="0.01" stroke-miterlimit="10"/>
<path d="M61.7476 -9.26752L59.3754 -4.30542L89.2382 9.97061L91.6104 5.00851L61.7476 -9.26752Z" fill="#F3A8A1" stroke="#4C0003" stroke-width="0.01" stroke-miterlimit="10"/>
<path d="M91.6999 5.09999L89.2999 10.1C89.2999 10.1 89.1999 10.2 89.1999 10.1L59.3999 -4.20001C59.3999 -4.20001 59.2999 -4.30001 59.3999 -4.30001L61.7999 -9.30001C61.7999 -9.30001 61.8999 -9.40001 61.8999 -9.30001L91.6999 4.99999C91.6999 4.99999 91.6999 4.99999 91.6999 5.09999ZM89.1999 9.89999L91.4999 5.09999L61.7999 -9.10001L59.4999 -4.30001L89.1999 9.89999Z" fill="#005268" stroke="#4C0003" stroke-width="0.01" stroke-miterlimit="10"/>
<path d="M127.8 24.3C127.8 24.4 127.6 24.4 127.5 24.4L60.7999 -7.49999C60.6999 -7.49999 60.6999 -7.69999 60.6999 -7.79999C60.6999 -7.89999 60.8999 -7.89999 60.9999 -7.89999L127.7 24C127.8 24.1 127.8 24.2 127.8 24.3Z" fill="#005268" stroke="#4C0003" stroke-width="0.01" stroke-miterlimit="10"/>
<path d="M128.2 23.3C128.2 23.4 128 23.4 127.9 23.4L61.1999 -8.49999C61.0999 -8.49999 61.0999 -8.69999 61.0999 -8.79999C61.0999 -8.89999 61.2999 -8.89999 61.3999 -8.89999L128.1 23C128.2 23.1 128.3 23.2 128.2 23.3Z" fill="#005268" stroke="#4C0003" stroke-width="0.01" stroke-miterlimit="10"/>
<path d="M127.3 25.2C127.3 25.3 127.1 25.3 127 25.3L60.3999 -6.6C60.2999 -6.6 60.2999 -6.8 60.2999 -6.9C60.2999 -7 60.3999 -7 60.4999 -7L127.2 24.9C127.4 25 127.4 25.1 127.3 25.2Z" fill="#005268" stroke="#4C0003" stroke-width="0.01" stroke-miterlimit="10"/>
<path d="M126.9 26.1C126.9 26.2 126.7 26.2 126.6 26.2L59.8999 -5.70001C59.7999 -5.70001 59.7999 -5.90001 59.7999 -6.00001C59.7999 -6.10001 59.9999 -6.10001 60.0999 -6.10001L126.8 25.8C126.9 25.9 127 26 126.9 26.1Z" fill="#005268" stroke="#4C0003" stroke-width="0.01" stroke-miterlimit="10"/>
<path d="M126.5 27C126.5 27.1 126.3 27.1 126.2 27.1L59.4999 -4.79998C59.3999 -4.79998 59.3999 -4.99998 59.3999 -5.09998C59.3999 -5.19998 59.5999 -5.19998 59.6999 -5.19998L126.4 26.7C126.5 26.8 126.5 26.9 126.5 27Z" fill="#005268" stroke="#4C0003" stroke-width="0.01" stroke-miterlimit="10"/>
<path d="M128.7 22.8L126.3 27.8C126.3 27.9 126.1 27.9 126 27.9L59.2999 -4.1C59.1999 -4.1 59.1999 -4.3 59.1999 -4.4L61.5999 -9.4C61.5999 -9.5 61.7999 -9.5 61.8999 -9.5L128.6 22.4C128.7 22.5 128.7 22.7 128.7 22.8ZM126 27.4L128.2 22.8L61.8999 -9L59.6999 -4.4L126 27.4Z" fill="#005268" stroke="#4C0003" stroke-width="0.01" stroke-miterlimit="10"/>
<path d="M97.8999 27C97.8999 27 86.9999 25.4 89.2999 11.1C89.2999 11.1 87.4999 22.4 97.8999 27Z" fill="#005268" stroke="#4C0003" stroke-width="0.01" stroke-miterlimit="10"/>
<path d="M44.9999 12.5C44.6999 10.6 45.9 8.7 47.9 8.4C49.8 8.1 51.6999 9.3 51.9999 11.3C52.2999 13.2 51.0999 15.1 49.0999 15.4C47.1999 15.7 45.3999 14.5 44.9999 12.5Z" fill="#F8CBC7" stroke="#4C0003" stroke-width="0.1" stroke-miterlimit="10"/>
<path d="M41.4999 9.80003C41.3999 11.8 39.7999 13.3 37.7999 13.2C35.7999 13.1 34.2999 11.5 34.3999 9.50003C34.4999 7.50003 36.0999 6.00003 38.0999 6.10003C39.9999 6.20003 41.5999 7.90003 41.4999 9.80003Z" fill="#F8CBC7" stroke="#4C0003" stroke-width="0.1" stroke-miterlimit="10"/>
<path d="M54.2 6.80002C53.9 4.90002 55.1 3.00002 57.1 2.70002C59 2.40002 60.9 3.60002 61.2 5.60002C61.5 7.50002 60.3 9.40002 58.3 9.70002C56.4 10 54.6 8.70002 54.2 6.80002Z" fill="#F8CBC7" stroke="#4C0003" stroke-width="0.1" stroke-miterlimit="10"/>
<path d="M32.4999 -3.19997C34.4999 -2.79997 35.6999 -0.99997 35.2999 1.00003C34.8999 2.90003 33.0999 4.20003 31.0999 3.80003C29.1999 3.40003 27.8999 1.60003 28.2999 -0.399971C28.6999 -2.29997 30.5999 -3.59997 32.4999 -3.19997Z" fill="#F8CBC7" stroke="#4C0003" stroke-width="0.1" stroke-miterlimit="10"/>
<path d="M43.2999 -16.9C51.3999 -18.3 59.0999 -13 60.4999 -4.89999C61.8999 3.20001 56.5999 10.9 48.4999 12.3C40.3999 13.7 32.6999 8.40001 31.2999 0.300013C29.8999 -7.69999 35.2999 -15.4 43.2999 -16.9Z" fill="#F8CBC7" stroke="#4C0003" stroke-width="0.1" stroke-miterlimit="10"/>
<path d="M43.1999 -17.5C51.5999 -19 59.6999 -13.4 61.1999 -4.99998C62.6999 3.40002 57.0999 11.4 48.6999 12.9C40.2999 14.4 32.2999 8.80002 30.7999 0.400024C29.2999 -7.89998 34.7999 -15.9 43.1999 -17.5ZM48.3999 11.1C55.7999 9.80002 60.6999 2.70002 59.3999 -4.69998C58.0999 -12.1 50.9999 -17 43.5999 -15.7C36.1999 -14.4 31.2999 -7.29998 32.5999 0.100023C33.8999 7.50002 40.9999 12.5 48.3999 11.1Z" fill="#005268" stroke="#4C0003" stroke-width="0.1" stroke-miterlimit="10"/>
<path d="M48.1999 10.1C41.3999 11.4 34.7999 6.80001 33.5999 7.62939e-06C32.3999 -6.79999 36.8999 -13.4 43.7999 -14.6C50.5999 -15.8 57.1999 -11.3 58.3999 -4.39999C59.5999 2.40001 54.9999 8.90001 48.1999 10.1ZM48.3999 11.1C55.7999 9.80001 60.6999 2.70001 59.3999 -4.69999C58.0999 -12.1 50.9999 -17 43.5999 -15.7C36.1999 -14.4 31.2999 -7.29999 32.5999 0.100008C33.8999 7.50001 40.9999 12.5 48.3999 11.1Z" fill="#B1354E" stroke="#4C0003" stroke-width="0.1" stroke-miterlimit="10"/>
<path opacity="0.4" d="M31.7999 3.8C32.4999 5.50001 33.4999 7 34.6999 8.2C34.3999 8.8 34.2999 9.50001 34.4999 10.3C34.7999 12.2 36.6999 13.5 38.5999 13.2C39.3999 13.1 39.9999 12.7 40.4999 12.2C41.9999 12.8 43.5999 13.1 45.1999 13.2C45.7999 14.8 47.3999 15.7 49.0999 15.4L43.1999 -17.4C40.2999 -16.9 37.6999 -15.6 35.6999 -13.7C35.0999 -14 34.3999 -14.1 33.6999 -13.9C31.7999 -13.6 30.4999 -11.7 30.7999 -9.79999C30.8999 -9.09999 31.1999 -8.49999 31.6999 -7.99999C30.9999 -6.49999 30.5999 -4.79999 30.4999 -2.99999C28.9999 -2.39999 27.9999 -0.799995 28.3999 0.900005C28.6999 2.60001 30.0999 3.8 31.7999 3.8Z" fill="#FDEFED" stroke="#4C0003" stroke-width="0.1" stroke-miterlimit="10"/>
<path d="M-19.9462 -22.3632L-23.3574 -18.4388L8.18907 8.98205L11.6003 5.05761L-19.9462 -22.3632Z" fill="#F3A8A1" stroke="#4C0003" stroke-width="0.15" stroke-miterlimit="10"/>
<path d="M11.6219 5.01791L8.21066 8.94235L10.0219 10.5168L13.4331 6.59231L11.6219 5.01791Z" fill="#B1354E" stroke="#4C0003" stroke-width="0.15" stroke-miterlimit="10"/>
<path d="M9.99994 10.5L13.3999 6.60001C13.3999 6.60001 16.4999 9.40001 19.8999 8.90001C20.1999 8.90001 20.2999 9.20001 20.1999 9.40001L13.5999 17C13.3999 17.2 13.1999 17.1 13.1999 16.8C13.1999 13.2 9.99994 10.5 9.99994 10.5Z" fill="#2B6F81" stroke="#4C0003" stroke-width="0.15" stroke-miterlimit="10"/>
<path d="M1.29994 1.79999C1.39994 1.59999 0.999944 1.09999 0.399944 0.499988C-0.200056 -1.24574e-05 -0.800056 -0.300012 -0.900056 -0.100012C-1.00006 0.0999875 -0.700056 0.599988 -0.100056 1.09999C0.499944 1.69999 1.09994 1.89999 1.29994 1.79999Z" fill="#4C0003" stroke="#4C0003" stroke-width="0.15" stroke-miterlimit="10"/>
<path d="M6.09993 5.9C6.19993 5.7 5.89993 5.2 5.29993 4.7C4.59993 4.2 3.99993 3.9 3.89993 4.1C3.69993 4.2 4.09993 4.8 4.69993 5.3C5.29993 5.8 5.89993 6.1 6.09993 5.9Z" fill="#4C0003" stroke="#4C0003" stroke-width="0.15" stroke-miterlimit="10"/>
<path opacity="0.4" d="M-26.1001 -24.3L-25.2001 -24.5C-23.9001 -24.9 -22.4001 -24.5 -21.4001 -23.6L-19.9001 -22.3L11.5999 4.99999L13.3999 6.59999C13.3999 6.59999 16.3999 9.39999 19.8999 8.89999C20.1999 8.89999 20.2999 9.19999 20.1999 9.39999L16.9999 13.1L-26.1001 -24.3Z" fill="#FDEFED" stroke="#4C0003" stroke-width="0.15" stroke-miterlimit="10"/>
<path d="M26 33.6C26 33.5 25.8999 33.5 25.8999 33.4C22.5999 28.4 15.2999 27.9 11 31.6C9.49995 32.8 7.99995 34.4 6.99995 36.1C5.79995 38 4.79995 40.1 3.79995 42.1C3.09995 43.6 2.99995 45.1 1.49995 45.9C-1.00005 47.3 -10.9001 51 -11.5001 53.3C-12.2001 55.6 -9.80005 57.4 -7.00005 55.6C-4.20005 53.8 2.59995 48.3 3.69995 48C4.69995 47.7 6.49995 48.2 7.39995 48.3C8.59995 48.5 9.69995 48.6 10.9 48.6C15.5999 48.6 20.7999 47.4 24.0999 43.8C26.3999 41.1 28.0999 37.1 26 33.6Z" fill="#F3A8A1" stroke="#4C0003" stroke-width="0.05" stroke-miterlimit="10"/>
<path d="M17.2999 31.1C16.9999 30.5 16.7999 29.9 16.4999 29.3C15.0999 29.4 13.6999 29.9 12.4999 30.6C14.0999 30.8 15.6999 31 17.2999 31.1Z" fill="#FDEFED" stroke="#4C0003" stroke-width="0.05" stroke-miterlimit="10"/>
<path d="M14.9 33C15.6 32.4 16.4 31.9 17.1 31.3C15.5 31.1 13.9 30.9 12.3 30.7C12.4 32 12.7 33.3 13 34.5C13.6 34 14.3 33.5 14.9 33Z" fill="#FDEFED" stroke="#4C0003" stroke-width="0.05" stroke-miterlimit="10"/>
<path d="M19.1999 35.5C17.8999 35.3 16.6999 35.1 15.3999 35C14.7999 34.9 14.0999 34.9 13.3999 34.8C13.2999 34.8 13.1999 34.8 13.0999 34.8C13.4999 36.1 13.9999 37.3 14.5999 38.5C14.7999 38.9 14.9999 39.2 15.1999 39.6C16.5999 38.2 17.8999 36.8 19.1999 35.5Z" fill="#FDEFED" stroke="#4C0003" stroke-width="0.05" stroke-miterlimit="10"/>
<path d="M16.7999 39.5C17.5999 39.4 18.4999 39.3 19.2999 39.3C20.0999 39.2 20.8999 39.2 21.6999 39.1C20.9999 37.9 20.2999 36.7 19.5999 35.5H19.4999C18.0999 36.9 16.7999 38.3 15.3999 39.7C15.7999 39.6 16.2999 39.5 16.7999 39.5Z" fill="#FDEFED" stroke="#4C0003" stroke-width="0.05" stroke-miterlimit="10"/>
<path d="M17.7999 43.7C18.9999 42.2 20.1999 40.7 21.4999 39.3C20.6999 39.4 19.8999 39.4 19.0999 39.5C18.1999 39.6 17.2999 39.6 16.4999 39.7C16.1999 39.7 15.7999 39.8 15.4999 39.8C16.0999 41.2 16.8999 42.5 17.7999 43.7Z" fill="#FDEFED" stroke="#4C0003" stroke-width="0.05" stroke-miterlimit="10"/>
<path d="M21.6 42.7C22.2 42.5 22.9 42.4 23.6 42.3C23 41.3 22.3999 40.4 21.7999 39.4C20.4999 40.7 19.4 42.2 18.2 43.6C19.3 43.2 20.4 43 21.6 42.7Z" fill="#FDEFED" stroke="#4C0003" stroke-width="0.05" stroke-miterlimit="10"/>
<path d="M21.0999 46.1C22.0999 45.5 23.0999 44.7 23.8999 43.8C23.9999 43.7 24.0999 43.5 24.2999 43.4C24.0999 43.1 23.8999 42.8 23.6999 42.5C22.7999 43.7 21.9999 44.9 21.0999 46.1Z" fill="#FDEFED" stroke="#4C0003" stroke-width="0.05" stroke-miterlimit="10"/>
<path d="M23.4999 42.4C22.8999 42.5 22.3999 42.6 21.7999 42.8C20.4999 43.1 19.1999 43.4 17.8999 43.8C18.5999 44.8 19.2999 45.7 20.0999 46.6C20.2999 46.5 20.4999 46.4 20.5999 46.3C21.5999 45.1 22.4999 43.7 23.4999 42.4Z" fill="#FDEFED" stroke="#4C0003" stroke-width="0.05" stroke-miterlimit="10"/>
<path d="M15.4999 31.8C14.9999 31.7 14.4999 31.7 14.0999 31.7C13.5999 31.7 12.9999 31.7 12.4999 31.7C12.5999 32.4 12.6999 33 12.8999 33.7C13.6999 33 14.5999 32.4 15.4999 31.8Z" fill="#4C0003" stroke="#4C0003" stroke-width="0.05" stroke-miterlimit="10"/>
<path d="M14.6999 38.5C15.1999 38.1 15.5999 37.7 16.0999 37.3C16.6999 36.8 17.2999 36.4 17.9999 35.9C17.5999 35.9 17.1999 35.8 16.6999 35.8C15.5999 35.8 14.4999 35.8 13.4999 35.8C13.7999 36.7 14.1999 37.6 14.6999 38.5C14.5999 38.5 14.5999 38.5 14.6999 38.5Z" fill="#4C0003"/>
<path d="M14.6999 38.5C15.1999 38.1 15.5999 37.7 16.0999 37.3C16.6999 36.8 17.2999 36.4 17.9999 35.9C17.5999 35.9 17.1999 35.8 16.6999 35.8C15.5999 35.8 14.4999 35.8 13.4999 35.8C13.7999 36.7 14.1999 37.6 14.6999 38.5ZM14.6999 38.5C14.5999 38.5 14.5999 38.5 14.6999 38.5Z" stroke="#4C0003" stroke-width="0.05" stroke-miterlimit="10"/>
<path d="M19.4 40.3C19.2 40.3 19.1 40.3 18.9 40.3C17.8 40.3 16.8 40.4 15.8 40.4C16.3 41.2 16.8 42.1 17.3 42.9C17.9 42 18.7 41.1 19.4 40.3Z" fill="#4C0003" stroke="#4C0003" stroke-width="0.05" stroke-miterlimit="10"/>
<path d="M20.3999 45.3C20.7999 44.7 21.2999 44.2 21.6999 43.6C20.5999 43.9 19.4999 44.3 18.4999 44.6C18.8999 45.1 19.2999 45.7 19.7999 46.2C19.8999 45.9 20.1999 45.6 20.3999 45.3Z" fill="#4C0003" stroke="#4C0003" stroke-width="0.05" stroke-miterlimit="10"/>
<path d="M19.4 35.2C18.7 33.9 18.1 32.6 17.5 31.3C17.5 31.3 17.5 31.3 17.4 31.3C16.7 31.9 16 32.4 15.3 32.9C14.6 33.4 13.9 34 13.3 34.6C13.7 34.7 14.3 34.7 14.5 34.7C15 34.7 15.5 34.8 16 34.8C17.1 35 18.2 35.1 19.4 35.2C19.4 35.3 19.4 35.3 19.4 35.2Z" fill="#FDEFED"/>
<path d="M19.4 35.2C18.7 33.9 18.1 32.6 17.5 31.3C17.5 31.3 17.5 31.3 17.4 31.3C16.7 31.9 16 32.4 15.3 32.9C14.6 33.4 13.9 34 13.3 34.6C13.7 34.7 14.3 34.7 14.5 34.7C15 34.7 15.5 34.8 16 34.8C17.1 35 18.2 35.1 19.4 35.2ZM19.4 35.2C19.4 35.3 19.4 35.3 19.4 35.2Z" stroke="#4C0003" stroke-width="0.05" stroke-miterlimit="10"/>
<path d="M16.4 30C16.6 30 16.8 30.1 16.9 30.1C16.8 29.8 16.6 29.5 16.5 29.2C15.7 29.3 15 29.4 14.3 29.7C15 29.8 15.7 29.9 16.4 30Z" fill="#4C0003" stroke="#4C0003" stroke-width="0.05" stroke-miterlimit="10"/>
<path d="M17.7 38.6H17.7999C18.4999 38.6 19.1999 38.6 19.9 38.6C20.4 38.6 20.7999 38.6 21.2999 38.7C20.7999 37.9 20.4 37.1 19.9 36.3C19.5 36.7 19.1 37 18.7 37.5C18.4 37.9 18.1 38.3 17.7 38.6Z" fill="#4C0003" stroke="#4C0003" stroke-width="0.05" stroke-miterlimit="10"/>
<path d="M23.1999 41.6C22.8999 41.1 22.4999 40.5 22.1999 40C21.5999 40.8 20.9999 41.5 20.3999 42.3C21.2999 42.1 22.1999 41.9 23.1999 41.6Z" fill="#4C0003" stroke="#4C0003" stroke-width="0.05" stroke-miterlimit="10"/>
<path d="M23.3999 44.4C23.5999 44.2 23.7999 44 23.8999 43.8C23.9999 43.7 24.0999 43.5 24.2999 43.4C24.2999 43.4 24.2999 43.4 24.2999 43.3C23.9999 43.7 23.6999 44 23.3999 44.4Z" fill="#4C0003" stroke="#4C0003" stroke-width="0.05" stroke-miterlimit="10"/>
<path d="M18.8999 34.3C18.5999 33.6 18.1999 33 17.8999 32.3C17.1999 32.8 16.4999 33.4 15.8999 33.9C16.8999 34 17.8999 34.1 18.8999 34.3Z" fill="#4C0003" stroke="#4C0003" stroke-width="0.05" stroke-miterlimit="10"/>
<path d="M4.39995 40.8C4.19995 41.2 3.99995 41.7 3.79995 42.1C3.19995 43.5 2.99995 45 1.69995 45.8C1.99995 46.7 2.49995 47.5 3.09995 48.3C3.29995 48.1 3.49995 48 3.59995 48C4.59995 47.7 6.39995 48.2 7.29995 48.3C7.79995 48.4 8.19995 48.4 8.69995 48.5C6.39995 46.5 4.89995 43.8 4.39995 40.8Z" fill="#005268" stroke="#4C0003" stroke-width="0.05" stroke-miterlimit="10"/>
<path d="M4.49995 45.5L5.19994 45.7L4.59995 46.1V46.9L3.99995 46.4L3.29995 46.7L3.49995 46L3.09995 45.4H3.79995L4.19994 44.8L4.49995 45.5Z" fill="#FDEFED" stroke="#4C0003" stroke-width="0.05" stroke-miterlimit="10"/>
<path d="M-11.1001 55.7C-11.7001 55.1 -11.9001 54.2 -11.6001 53.2C-11.1001 51.5 -5.60006 49 -1.70006 47.2C-0.400055 46.6 0.799946 46.1 1.49995 45.7C2.59995 45.1 2.89994 44.2 3.29994 43.1C3.39994 42.7 3.59995 42.4 3.69995 42C4.79995 39.6 5.79995 37.7 6.89995 35.9C7.89995 34.4 9.29995 32.7 10.7999 31.4C14.8999 28 21.1999 28.1 24.7999 31.8C25.1999 32.2 25.5999 32.7 25.8999 33.2C25.8999 33.3 25.9999 33.4 25.9999 33.4C28.6999 37.8 25.0999 42.4 23.9999 43.7C20.1999 48 14.0999 48.6 10.7999 48.6C9.69995 48.6 8.59995 48.5 7.29995 48.3C7.09995 48.3 6.89995 48.2 6.69995 48.2C5.69995 48 4.39995 47.8 3.59995 48C2.99995 48.2 0.599946 50 -1.80005 51.8C-3.80005 53.3 -5.80005 54.8 -7.00005 55.6C-8.90005 56.8 -10.4001 56.4 -11.1001 55.7ZM24.6999 32.1C21.1999 28.5 14.9999 28.3 10.9999 31.7C9.49994 33 8.09995 34.6 7.09995 36.1C5.99995 37.8 4.99995 39.7 3.89995 42.1C3.69995 42.5 3.59995 42.8 3.49995 43.2C3.09995 44.3 2.69995 45.3 1.59995 45.9C0.899945 46.3 -0.200055 46.8 -1.60005 47.4C-5.30005 49.1 -10.9001 51.6 -11.4001 53.2C-11.6001 54.1 -11.5001 54.9 -10.9001 55.5C-10.2001 56.2 -8.80005 56.6 -7.10005 55.4C-5.80005 54.6 -3.80005 53.1 -1.90005 51.6C0.599945 49.8 2.99995 48 3.59995 47.9C4.39995 47.7 5.79995 47.9 6.79995 48.1C6.99995 48.1 7.19995 48.2 7.39995 48.2C8.69995 48.4 9.79994 48.5 10.8999 48.5C14.1999 48.5 20.1999 47.9 23.9999 43.7C25.0999 42.4 28.5999 37.9 25.9999 33.7C25.9999 33.6 25.8999 33.6 25.8999 33.5C25.3999 33 25.0999 32.5 24.6999 32.1Z" stroke="#4C0003" stroke-width="0.05" stroke-miterlimit="10"/>
<path opacity="0.4" d="M23.7999 43.7C26.2999 41 27.9999 37 25.7999 33.5C25.7999 33.4 25.6999 33.4 25.6999 33.3C25.4999 33 25.2999 32.8 25.0999 32.5C25.1999 32.9 25.1999 33.3 25.0999 33.7C24.7999 35.4 23.6999 37 22.5999 38.2C19.9999 41.2 16.3999 43.1 12.5999 44.2C10.9999 44.7 9.09994 45 7.29994 44.7C5.69994 44.7 3.99994 44.8 2.69994 45.8C-0.100056 48 -2.50006 50.7 -5.70006 52.4C-6.60006 52.9 -7.80006 53.3 -8.80006 52.8C-9.40006 52.5 -9.60006 51.9 -9.30006 51.3C-9.20006 51.1 -9.20006 51 -9.10006 50.8C-10.4001 51.6 -11.4001 52.4 -11.6001 53.1C-12.3001 55.4 -9.90006 57.2 -7.10006 55.4C-4.30006 53.6 2.49994 48.1 3.59994 47.8C4.59995 47.5 6.39994 48 7.29994 48.1C8.49994 48.3 9.59994 48.4 10.7999 48.4C15.3999 48.5 20.5999 47.3 23.7999 43.7Z" fill="#FDEFED" stroke="#4C0003" stroke-width="0.05" stroke-miterlimit="10"/>
<path opacity="0.4" d="M21.9999 31C19.4999 30.1 16.7999 30.2 14.2999 31C11.6999 31.8 8.89995 34.3 7.89995 36.8C7.79995 37.1 8.39995 37.2 8.59995 37.1C10.5999 35.6 12.1999 33.6 14.4999 32.4C16.6999 31.2 19.4999 30.8 21.8999 31.2C21.9999 31.2 22.1999 31.1 21.9999 31Z" fill="#FDEFED" stroke="#4C0003" stroke-width="0.05" stroke-miterlimit="10"/>
<path opacity="0.4" d="M6.79995 39C6.89995 38.8 6.99995 38.7 7.19995 38.5C7.29995 38.4 7.19995 38.3 7.09995 38.3C6.99995 38.3 6.89995 38.3 6.79995 38.4C6.59995 38.6 6.49995 38.7 6.39995 38.9C6.19995 39.1 6.69995 39.1 6.79995 39Z" fill="#FDEFED" stroke="#4C0003" stroke-width="0.05" stroke-miterlimit="10"/>
<path d="M69.6999 101.1L71.9999 91.1L73.8999 90.5L70.5999 100.8L69.6999 101.1Z" fill="#568C9B"/>
<path d="M69.6999 101.1L71.9999 91.1L73.8999 90.5L70.5999 100.8L69.6999 101.1Z" stroke="#4C0003" stroke-width="0.05" stroke-miterlimit="10"/>
<path d="M69.6999 101.1L71.9999 91.1L70.5999 89.8L68.9999 100.4L69.6999 101.1Z" fill="#F3A8A1"/>
<path d="M69.6999 101.1L71.9999 91.1L70.5999 89.8L68.9999 100.4L69.6999 101.1Z" stroke="#4C0003" stroke-width="0.05" stroke-miterlimit="10"/>
<path d="M117.2 96.4C115.7 95 115.1 93.5 115.4 92.2C115.6 91.2 116.5 90.3 117.9 89.9C124.9 87.7 125.6 81.3 119.4 75.5L118.7 74.8C112.5 69 101.8 66.1 94.6999 68.2L76.4999 73.8C76.0999 73.9 75.8999 74.2 75.7999 74.6L74.7999 79.1C74.6999 79.5 74.3999 79.7 74.0999 79.9L69.6999 81.3C69.2999 81.4 69.0999 81.7 68.9999 82.1L67.7999 87.2L101.2 118.3L102.4 113.2C102.5 112.8 102.8 112.6 103.1 112.4L107.5 111C107.9 110.9 108.1 110.6 108.2 110.2L109.2 105.7C109.3 105.3 109.6 105.1 109.9 104.9L116.6 102.8C118 102.4 118.9 101.5 119.1 100.5C119.4 99.4 118.8 97.9 117.2 96.4Z" fill="#F3A8A1"/>
<path d="M117.2 96.4C115.7 95 115.1 93.5 115.4 92.2C115.6 91.2 116.5 90.3 117.9 89.9C124.9 87.7 125.6 81.3 119.4 75.5C113.2 69.3 102 66 94.6999 68.2L76.4999 73.8C76.0999 73.9 75.8999 74.2 75.7999 74.6L74.7999 79.1C74.6999 79.5 74.3999 79.7 74.0999 79.9L69.6999 81.3C69.2999 81.4 69.0999 81.7 68.9999 82.1L67.7999 87.2L101.2 118.3L102.4 113.2C102.5 112.8 102.8 112.6 103.1 112.4L107.5 111C107.9 110.9 108.1 110.6 108.2 110.2L109.2 105.7C109.3 105.3 109.6 105.1 109.9 104.9L116.6 102.8C120 101.8 119.9 98.9 117.2 96.4Z" stroke="#4C0003" stroke-width="0.05" stroke-miterlimit="10"/>
<path d="M116.5 97.2C114.8 95.6 114 93.7 114.3 92C114.6 90.6 115.8 89.5 117.5 88.9C120.2 88.1 121.9 86.5 122.4 84.6C123 82.1 121.6 79.1 118.6 76.3L117.9 75.6C114.8 72.7 110.2 70.4 105.5 69.3C101.6 68.4 97.8999 68.4 94.9999 69.3L77.3999 74.7C76.9999 74.8 76.7999 75.1 76.6999 75.5L75.6999 80C75.5999 80.4 75.2999 80.6 74.9999 80.8L70.5999 82.2C70.1999 82.3 69.9999 82.6 69.8999 83L68.6999 88.1L100.3 117.6L101.5 112.5C101.6 112.1 101.9 111.9 102.2 111.7L106.6 110.3C107 110.2 107.2 109.9 107.3 109.5L108.3 105C108.4 104.6 108.7 104.4 109 104.2L116.3 102C117 101.8 117.9 101.3 118.1 100.5C118.3 99.5 117.7 98.3 116.5 97.2Z" fill="#2B6F81"/>
<path d="M116.5 97.2C113.3 94.4 113.4 90.2 117.6 89C125 86.7 123.3 80.2 117.9 75.7C112.7 70.7 102 67.2 94.8999 69.4L77.2999 74.8C76.8999 74.9 76.6999 75.2 76.5999 75.6L75.5999 80.1C75.4999 80.5 75.1999 80.7 74.8999 80.9L70.4999 82.3C70.0999 82.4 69.8999 82.7 69.7999 83.1L68.5999 88.2L100.2 117.7L101.4 112.6C101.5 112.2 101.8 112 102.1 111.8L106.5 110.4C106.9 110.3 107.1 110 107.2 109.6L108.2 105.1C108.3 104.7 108.6 104.5 108.9 104.3L116.2 102.1C118.8 101.3 118.6 99 116.5 97.2Z" stroke="#4C0003" stroke-width="0.05" stroke-miterlimit="10"/>
<path d="M114.4 92C114.2 92.9 113.4 96.2 113.2 97.1C112.8 98.7 113.6 100.6 115.3 102.2L112.7 103L84.8999 77.1L93.7999 74.4C96.6999 73.5 100.4 73.5 104.3 74.4C109.1 75.5 113.6 77.8 116.7 80.7L117.4 81.4C119.3 83.2 120.6 85.1 121.1 86.9C120.2 87.8 119 88.5 117.5 89C115.9 89.5 114.7 90.6 114.4 92Z" fill="#005268"/>
<path d="M114.4 92C114.2 92.9 113.4 96.2 113.2 97.1C112.8 98.7 113.6 100.6 115.3 102.2L112.7 103L84.8999 77.1L93.7999 74.4C100.8 72.2 111.5 75.7 116.8 80.7C118.9 82.5 120.8 84.9 121.2 86.9C120.3 87.8 119.1 88.5 117.6 89C115.9 89.5 114.7 90.6 114.4 92Z" stroke="#4C0003" stroke-width="0.05" stroke-miterlimit="10"/>
<path d="M68.8999 86.6L68.5999 87.9L100.3 117.4L100.6 116L68.8999 86.6Z" fill="#568C9B"/>
<path d="M68.8999 86.6L68.5999 87.9L100.3 117.4L100.6 116L68.8999 86.6Z" stroke="#4C0003" stroke-width="0.05" stroke-miterlimit="10"/>
<path d="M104.3 110.9L102.1 111.6C101.7 111.7 101.5 112 101.4 112.4L100.5 116.2L68.8999 86.6L75.8999 84.5L104.3 110.9Z" fill="#F3A8A1"/>
<path d="M104.3 110.9L102.1 111.6C101.7 111.7 101.5 112 101.4 112.4L100.5 116.2L68.8999 86.6L75.8999 84.5C75.9999 84.4 104.3 110.9 104.3 110.9Z" stroke="#4C0003" stroke-width="0.05" stroke-miterlimit="10"/>
<path d="M112.8 103L109 104.2C108.8 104.3 108.6 104.4 108.5 104.6L77.8999 76.1L82.3999 74.8L112.8 103Z" fill="#F3A8A1"/>
<path d="M112.8 103L109 104.2C108.8 104.3 108.6 104.4 108.5 104.6L77.8999 76.1L82.3999 74.8L112.8 103Z" stroke="#4C0003" stroke-width="0.05" stroke-miterlimit="10"/>
<path d="M108.5 104.6C108.4 104.7 108.4 104.8 108.3 105L107.3 109.5C107.2 109.9 106.9 110.1 106.6 110.3L104.4 111L75.9999 84.4L77.8999 76L108.5 104.6Z" fill="#568C9B"/>
<path d="M108.5 104.6C108.4 104.4 107.3 109.4 107.3 109.5C107.2 109.9 106.9 110.1 106.6 110.3L104.4 111L75.9999 84.4L77.8999 76L108.5 104.6Z" stroke="#4C0003" stroke-width="0.05" stroke-miterlimit="10"/>
<path d="M104.3 110.9L102.4 111.5L102.1 111.6C101.9 111.7 101.8 111.8 101.6 111.9C101.5 112 101.4 112.2 101.4 112.4L100.7 115.3L69.7 86.4L70 85.2L76.2 83.3L105.5 110.6L104.3 110.9Z" fill="#F3A8A1"/>
<path d="M104.3 110.9C104.1 111 102.3 111.5 102.1 111.6C101.8 111.7 101.5 112 101.4 112.4L100.7 115.3L69.7 86.4L70 85.2L76.2 83.3L105.5 110.6C105.5 110.5 104.3 110.9 104.3 110.9Z" stroke="#4C0003" stroke-width="0.05" stroke-miterlimit="10"/>
<path d="M71.1 86.1L70 85.1L69.7 86.4L70.8 87.3L71.1 86.1Z" fill="#E1E1E1"/>
<path d="M71.1 86.1L70 85.1L69.7 86.4L70.8 87.3L71.1 86.1Z" stroke="#4C0003" stroke-width="0.05" stroke-miterlimit="10"/>
<path d="M72.2 87.2L71.2 86.2L70.9 87.4L71.9 88.4L72.2 87.2Z" fill="#E1E1E1"/>
<path d="M72.2 87.2L71.2 86.2L70.9 87.4L71.9 88.4L72.2 87.2Z" stroke="#4C0003" stroke-width="0.05" stroke-miterlimit="10"/>
<path d="M73.4 88.3L72.4 87.3L72.1 88.5L73.1 89.5L73.4 88.3Z" fill="#E1E1E1"/>
<path d="M73.4 88.3L72.4 87.3L72.1 88.5L73.1 89.5L73.4 88.3Z" stroke="#4C0003" stroke-width="0.05" stroke-miterlimit="10"/>
<path d="M74.5999 89.4L73.4999 88.4L73.2999 89.6L74.2999 90.6L74.5999 89.4Z" fill="#E1E1E1"/>
<path d="M74.5999 89.4L73.4999 88.4L73.2999 89.6L74.2999 90.6L74.5999 89.4Z" stroke="#4C0003" stroke-width="0.05" stroke-miterlimit="10"/>
<path d="M75.8 90.5L74.7 89.5L74.4 90.7L75.5 91.7L75.8 90.5Z" fill="#E1E1E1"/>
<path d="M75.8 90.5L74.7 89.5L74.4 90.7L75.5 91.7L75.8 90.5Z" stroke="#4C0003" stroke-width="0.05" stroke-miterlimit="10"/>
<path d="M76.9 91.6L75.9 90.6L75.6 91.8L76.7 92.8L76.9 91.6Z" fill="#E1E1E1"/>
<path d="M76.9 91.6L75.9 90.6L75.6 91.8L76.7 92.8L76.9 91.6Z" stroke="#4C0003" stroke-width="0.05" stroke-miterlimit="10"/>
<path d="M78.0999 92.7L77.0999 91.7L76.7999 92.9L77.7999 93.9L78.0999 92.7Z" fill="#E1E1E1"/>
<path d="M78.0999 92.7L77.0999 91.7L76.7999 92.9L77.7999 93.9L78.0999 92.7Z" stroke="#4C0003" stroke-width="0.05" stroke-miterlimit="10"/>
<path d="M79.2999 93.8L78.2999 92.8L77.9999 94L78.9999 95L79.2999 93.8Z" fill="#E1E1E1"/>
<path d="M79.2999 93.8L78.2999 92.8L77.9999 94L78.9999 95L79.2999 93.8Z" stroke="#4C0003" stroke-width="0.05" stroke-miterlimit="10"/>
<path d="M80.5 94.9L79.4 93.9L79.1 95.1L80.2 96.1L80.5 94.9Z" fill="#E1E1E1"/>
<path d="M80.5 94.9L79.4 93.9L79.1 95.1L80.2 96.1L80.5 94.9Z" stroke="#4C0003" stroke-width="0.05" stroke-miterlimit="10"/>
<path d="M81.5999 96L80.5999 95L80.2999 96.2L81.3999 97.2L81.5999 96Z" stroke="#4C0003" stroke-width="0.05" stroke-miterlimit="10"/>
<path d="M76.1999 83.2L69.9999 85.1L71.0999 86.1L77.2999 84.2L76.1999 83.2Z" fill="#F5F5F5"/>
<path d="M76.1999 83.2L69.9999 85.1L71.0999 86.1L77.2999 84.2L76.1999 83.2Z" stroke="#4C0003" stroke-width="0.05" stroke-miterlimit="10"/>
<path d="M77.4 84.3L71.2 86.2L72.2 87.2L78.5 85.3L77.4 84.3Z" fill="#F5F5F5"/>
<path d="M77.4 84.3L71.2 86.2L72.2 87.2L78.5 85.3L77.4 84.3Z" stroke="#4C0003" stroke-width="0.05" stroke-miterlimit="10"/>
<path d="M78.6 85.4L72.4 87.3L73.4 88.3L79.6 86.4L78.6 85.4Z" fill="#F5F5F5"/>
<path d="M78.6 85.4L72.4 87.3L73.4 88.3L79.6 86.4L78.6 85.4Z" stroke="#4C0003" stroke-width="0.05" stroke-miterlimit="10"/>
<path d="M79.7999 86.5L73.4999 88.4L74.5999 89.4L80.7999 87.5L79.7999 86.5Z" fill="#F5F5F5"/>
<path d="M79.7999 86.5L73.4999 88.4L74.5999 89.4L80.7999 87.5L79.7999 86.5Z" stroke="#4C0003" stroke-width="0.05" stroke-miterlimit="10"/>
<path d="M81 87.6L74.7 89.5L75.8 90.5L82 88.6L81 87.6Z" fill="#F5F5F5"/>
<path d="M81 87.6L74.7 89.5L75.8 90.5L82 88.6L81 87.6Z" stroke="#4C0003" stroke-width="0.05" stroke-miterlimit="10"/>
<path d="M82.1 88.7L75.9 90.6L76.9 91.6L83.2 89.7L82.1 88.7Z" fill="#F5F5F5"/>
<path d="M82.1 88.7L75.9 90.6L76.9 91.6L83.2 89.7L82.1 88.7Z" stroke="#4C0003" stroke-width="0.05" stroke-miterlimit="10"/>
<path d="M83.2999 89.8L77.0999 91.7L78.0999 92.7L84.2999 90.8L83.2999 89.8Z" fill="#F5F5F5"/>
<path d="M83.2999 89.8L77.0999 91.7L78.0999 92.7L84.2999 90.8L83.2999 89.8Z" stroke="#4C0003" stroke-width="0.05" stroke-miterlimit="10"/>
<path d="M84.4999 90.9L78.2999 92.8L79.2999 93.8L85.4999 91.9L84.4999 90.9Z" fill="#F5F5F5"/>
<path d="M84.4999 90.9L78.2999 92.8L79.2999 93.8L85.4999 91.9L84.4999 90.9Z" stroke="#4C0003" stroke-width="0.05" stroke-miterlimit="10"/>
<path d="M85.7 92L79.4 93.9L80.5 94.9L86.7 93L85.7 92Z" fill="#F5F5F5"/>
<path d="M85.7 92L79.4 93.9L80.5 94.9L86.7 93L85.7 92Z" stroke="#4C0003" stroke-width="0.05" stroke-miterlimit="10"/>
<path d="M86.7999 93.1L80.5999 95L81.5999 96L87.8999 94.1L86.7999 93.1Z" fill="#F5F5F5"/>
<path d="M86.7999 93.1L80.5999 95L81.5999 96L87.8999 94.1L86.7999 93.1Z" stroke="#4C0003" stroke-width="0.05" stroke-miterlimit="10"/>
<path d="M87.9999 94.2L81.7999 96.1L82.7999 97.1L88.9999 95.2L87.9999 94.2Z" fill="#F5F5F5"/>
<path d="M87.9999 94.2L81.7999 96.1L82.7999 97.1L88.9999 95.2L87.9999 94.2Z" stroke="#4C0003" stroke-width="0.05" stroke-miterlimit="10"/>
<path d="M74.4 85.3L73.7 84.6L73.6 85L74.3 85.6L74.4 85.3Z" fill="#568C9B"/>
<path d="M74.4 85.3L73.7 84.6L73.6 85L74.3 85.6L74.4 85.3Z" stroke="#4C0003" stroke-width="0.05" stroke-miterlimit="10"/>
<path d="M74.4 85.3L77.8 84.2L77.7 84.6L74.3 85.6L74.4 85.3Z" fill="#2B6F81"/>
<path d="M74.4 85.3L77.8 84.2L77.7 84.6L74.3 85.6L74.4 85.3Z" stroke="#4C0003" stroke-width="0.05" stroke-miterlimit="10"/>
<path d="M77.1 83.6L73.7 84.6L74.4 85.3L77.8 84.2L77.1 83.6Z" fill="#F3A8A1"/>
<path d="M77.1 83.6L73.7 84.6L74.4 85.3L77.8 84.2L77.1 83.6Z" stroke="#4C0003" stroke-width="0.05" stroke-miterlimit="10"/>
<path d="M75.6 86.4L74.9 85.7L74.8 86.1L75.5 86.7L75.6 86.4Z" fill="#568C9B"/>
<path d="M75.6 86.4L74.9 85.7L74.8 86.1L75.5 86.7L75.6 86.4Z" stroke="#4C0003" stroke-width="0.05" stroke-miterlimit="10"/>
<path d="M75.6 86.4L79 85.3L78.9 85.7L75.5 86.7L75.6 86.4Z" fill="#2B6F81"/>
<path d="M75.6 86.4L79 85.3L78.9 85.7L75.5 86.7L75.6 86.4Z" stroke="#4C0003" stroke-width="0.05" stroke-miterlimit="10"/>
<path d="M78.3 84.7L74.9 85.7L75.6 86.4L79 85.3L78.3 84.7Z" fill="#F3A8A1"/>
<path d="M78.3 84.7L74.9 85.7L75.6 86.4L79 85.3L78.3 84.7Z" stroke="#4C0003" stroke-width="0.05" stroke-miterlimit="10"/>
<path d="M77.9 88.5L77.2 87.9L77.1 88.3L77.8 88.9L77.9 88.5Z" fill="#568C9B"/>
<path d="M77.9 88.5L77.2 87.9L77.1 88.3L77.8 88.9L77.9 88.5Z" stroke="#4C0003" stroke-width="0.05" stroke-miterlimit="10"/>
<path d="M77.9 88.5L81.3 87.5L81.2 87.9L77.8 88.9L77.9 88.5Z" fill="#2B6F81"/>
<path d="M77.9 88.5L81.3 87.5L81.2 87.9L77.8 88.9L77.9 88.5Z" stroke="#4C0003" stroke-width="0.05" stroke-miterlimit="10"/>
<path d="M80.6 86.9L77.2 87.9L77.9 88.5L81.3 87.5L80.6 86.9Z" fill="#F3A8A1"/>
<path d="M80.6 86.9L77.2 87.9L77.9 88.5L81.3 87.5L80.6 86.9Z" stroke="#4C0003" stroke-width="0.05" stroke-miterlimit="10"/>
<path d="M79.1 89.6L78.4 89L78.3 89.4L79 90L79.1 89.6Z" fill="#568C9B"/>
<path d="M79.1 89.6L78.4 89L78.3 89.4L79 90L79.1 89.6Z" stroke="#4C0003" stroke-width="0.05" stroke-miterlimit="10"/>
<path d="M79.1 89.6L82.5 88.6L82.4 89L79 90L79.1 89.6Z" fill="#2B6F81"/>
<path d="M79.1 89.6L82.5 88.6L82.4 89L79 90L79.1 89.6Z" stroke="#4C0003" stroke-width="0.05" stroke-miterlimit="10"/>
<path d="M81.8 88L78.4 89L79.1 89.6L82.5 88.6L81.8 88Z" fill="#F3A8A1"/>
<path d="M81.8 88L78.4 89L79.1 89.6L82.5 88.6L81.8 88Z" stroke="#4C0003" stroke-width="0.05" stroke-miterlimit="10"/>
<path d="M80.3 90.7L79.6 90.1L79.5 90.5L80.2 91.1L80.3 90.7Z" fill="#568C9B"/>
<path d="M80.3 90.7L79.6 90.1L79.5 90.5L80.2 91.1L80.3 90.7Z" stroke="#4C0003" stroke-width="0.05" stroke-miterlimit="10"/>
<path d="M80.3 90.7L83.7 89.7L83.6 90.1L80.2 91.1L80.3 90.7Z" fill="#2B6F81"/>
<path d="M80.3 90.7L83.7 89.7L83.6 90.1L80.2 91.1L80.3 90.7Z" stroke="#4C0003" stroke-width="0.05" stroke-miterlimit="10"/>
<path d="M83 89.1L79.6 90.1L80.3 90.7L83.7 89.7L83 89.1Z" fill="#F3A8A1"/>
<path d="M83 89.1L79.6 90.1L80.3 90.7L83.7 89.7L83 89.1Z" stroke="#4C0003" stroke-width="0.05" stroke-miterlimit="10"/>
<path d="M82.6 92.9L81.9 92.3V92.7L82.5 93.3L82.6 92.9Z" fill="#568C9B"/>
<path d="M82.6 92.9L81.9 92.3V92.7L82.5 93.3L82.6 92.9Z" stroke="#4C0003" stroke-width="0.05" stroke-miterlimit="10"/>
<path d="M82.5999 92.9L85.9999 91.9L85.8999 92.2L82.4999 93.3L82.5999 92.9Z" fill="#2B6F81"/>
<path d="M82.5999 92.9L85.9999 91.9L85.8999 92.2L82.4999 93.3L82.5999 92.9Z" stroke="#4C0003" stroke-width="0.05" stroke-miterlimit="10"/>
<path d="M85.3 91.3L81.9 92.3L82.6 92.9L86 91.9L85.3 91.3Z" fill="#F3A8A1"/>
<path d="M85.3 91.3L81.9 92.3L82.6 92.9L86 91.9L85.3 91.3Z" stroke="#4C0003" stroke-width="0.05" stroke-miterlimit="10"/>
<path d="M83.7999 94L83.0999 93.4L82.9999 93.8L83.6999 94.4L83.7999 94Z" fill="#568C9B"/>
<path d="M83.7999 94L83.0999 93.4L82.9999 93.8L83.6999 94.4L83.7999 94Z" stroke="#4C0003" stroke-width="0.05" stroke-miterlimit="10"/>
<path d="M83.8 94L87.2 93L87.1 93.3L83.7 94.4L83.8 94Z" fill="#2B6F81"/>
<path d="M83.8 94L87.2 93L87.1 93.3L83.7 94.4L83.8 94Z" stroke="#4C0003" stroke-width="0.05" stroke-miterlimit="10"/>
<path d="M86.4999 92.4L83.0999 93.4L83.7999 94L87.1999 93L86.4999 92.4Z" fill="#F3A8A1"/>
<path d="M86.4999 92.4L83.0999 93.4L83.7999 94L87.1999 93L86.4999 92.4Z" stroke="#4C0003" stroke-width="0.05" stroke-miterlimit="10"/>
<path d="M88.8999 94.5L85.4999 95.6L86.0999 96.2L89.4999 95.2L88.8999 94.5Z" fill="#F3A8A1"/>
<path d="M88.8999 94.5L85.4999 95.6L86.0999 96.2L89.4999 95.2L88.8999 94.5Z" stroke="#4C0003" stroke-width="0.05" stroke-miterlimit="10"/>
<path d="M121.4 89.3C121 90.2 119.9 91 118.2 91.6L109.6 94.5L109.3 95.7L117.9 92.8C119.6 92.2 120.7 91.4 121.1 90.5C121.2 90.4 121.2 90.2 121.3 90.1L121.6 88.9C121.5 89 121.5 89.2 121.4 89.3Z" fill="#2B6F81"/>
<path d="M121.4 89.3C121 90.2 119.9 91 118.2 91.6L109.6 94.5L109.3 95.7L117.9 92.8C119.8 92.1 120.9 91.4 121.3 90.1L121.6 88.9C121.5 89 121.5 89.2 121.4 89.3Z" stroke="#4C0003" stroke-width="0.05" stroke-miterlimit="10"/>
<path d="M120 86C118.5 85 118 83.8 118.5 82.7C118.9 81.8 120 81 121.7 80.4C130 77.6 131.8 72 125.6 68L124.9 67.5C118.7 63.4 106.9 62.4 98.5999 65.2L76.3999 72.7L109.7 94.5L118.3 91.6C120 91 121.1 90.2 121.5 89.3C121.9 88.2 121.5 87 120 86Z" fill="#F3A8A1"/>
<path d="M120 86C116.8 83.8 118.6 81.4 121.7 80.4C130.6 77.5 131.6 71.3 124.8 67.5C118.6 63.4 106.8 62.4 98.4999 65.2L76.2999 72.7L109.6 94.5L118.2 91.6C121.4 90.6 123.1 88.2 120 86Z" stroke="#4C0003" stroke-width="0.05" stroke-miterlimit="10"/>
<path d="M98.5 65.2L91.7 67.5L97.5 86.6L109.1 94.2L100.1 64.7C99.6 64.9 99 65.1 98.5 65.2ZM109.2 63.7C107.5 63.7 105.8 63.8 104.1 64L113 93.4L117.7 91.8L109.2 63.7Z" fill="#FADDDA"/>
<path d="M98.5 65.2L91.7 67.5L97.5 86.6L109.1 94.2L100.1 64.7C99.6 64.9 99 65.1 98.5 65.2ZM98.5 65.2C98.5 65.2 99 65.1 98.5 65.2Z" stroke="#4C0003" stroke-width="0.05" stroke-miterlimit="10"/>
<path d="M109.2 63.7C107.5 63.7 105.8 63.8 104.1 64L113 93.4L117.7 91.8L109.2 63.7Z" stroke="#4C0003" stroke-width="0.05" stroke-miterlimit="10"/>
<path d="M76.1999 72.7L75.9999 73.9L109.3 95.7L109.6 94.5L76.1999 72.7Z" fill="#568C9B"/>
<path d="M76.1999 72.7L75.9999 73.9L109.3 95.7L109.6 94.5L76.1999 72.7Z" stroke="#4C0003" stroke-width="0.05" stroke-miterlimit="10"/>
<path d="M112 62.7C112 62.7 112 62.6 112 62.7C112.2 61.6 111.7 60.7 111 60.1C110.1 59.3 108.7 59.3 107.6 59.1C106.6 59 105.5 58.7 104.8 57.8C104 56.8 104.2 55.4 104.1 54.1C103.9 51.5 102.9 49.3 101.2 47.6C100.3 46.8 99.2999 46.2 98.2999 45.7C96.9999 45.2 95.4999 45.4 94.1999 45.2C94.1999 45.1 94.1999 45.1 94.0999 45.1C93.9999 44.5 93.2999 44.4 92.8999 44.3C92.3999 44.2 91.1999 44 90.7999 44.6C90.3999 44.9 90.5999 45.3 90.9999 45.6C90.9999 46 90.8999 46.4 90.9999 46.7C91.0999 46.9 91.1999 47 91.3999 47.1C90.9999 49.2 90.7999 51.4 90.3999 53.5C90.0999 55.7 89.6999 58 89.2999 60.2C88.6999 64.3 88.1999 68.5 87.5999 72.6C87.5999 72.6 87.5999 72.6 87.4999 72.6C86.5999 72.8 85.1999 73 84.7999 74.1C84.3999 75.1 85.7999 75.8 86.2999 76C87.5999 76.6 88.9999 76.8 90.2999 76.5C90.9999 76.3 92.2999 76 92.3999 75C93.8999 74 95.2999 72.9 96.7999 71.9C98.3999 70.8 100.1 69.8 101.8 68.8C105.2 66.8 108.7 65 112.1 63C112.1 62.8 112.1 62.7 112 62.7ZM105.9 64C104.1 64.8 102.3 65.8 100.5 66.7C98.5999 67.7 96.7999 68.8 94.9999 69.9C93.3999 70.9 91.5999 71.7 89.9999 72.9C89.6999 72.7 89.3999 72.7 89.0999 72.7C89.0999 72 89.2999 71.3 89.3999 70.5C89.4999 69.4 89.6999 68.3 89.8999 67.1C90.1999 64.7 90.5999 62.4 90.8999 60C91.2999 57.8 91.5999 55.5 91.8999 53.3C91.9999 52.2 92.1999 51 92.3999 49.9C92.3999 49.6 92.4999 49.3 92.4999 49C94.2999 48.2 96.2999 47.8 98.1999 48.3C99.0999 48.5 99.9999 49.1 100.6 49.8C101.4 50.7 101.7 52 101.9 53.2C102.4 55.7 102.9 58.3 104.9 59.7C105.7 60.3 106.7 60.5 107.7 60.5C108.6 60.5 110.1 60.5 110.7 61.5C109.1 62.4 107.5 63.3 105.9 64Z" fill="#4C0003"/>
<path d="M84.9999 73.9C85.3999 73.1 86.8999 72.9 87.4999 72.7H87.5999C87.5999 72.8 87.5999 72.9 87.5999 73C87.1999 72.9 86.5999 73.4 86.5999 73.9C86.6999 74.6 87.3999 75 87.8999 75.1C88.4999 75.2 89.3999 75 89.6999 74.3C89.8999 73.8 89.5999 73.2 89.1999 73.3C89.1999 73.2 89.1999 73.1 89.1999 73C89.1999 73 89.1999 73 89.2999 73C89.4999 73 89.5999 73.1 89.7999 73.1C90.1999 73.2 90.5999 73.4 90.7999 73.8C90.7999 73.9 90.9999 73.8 90.8999 73.7C90.7999 73.5 90.4999 73.3 90.2999 73.1C91.7999 72.1 93.4999 71.3 94.9999 70.3C96.6999 69.2 98.4999 68.1 100.3 67.2C102.1 66.2 103.9 65.2 105.8 64.4C107.6 63.6 109.3 62.6 111.2 61.9C111.3 61.9 111.3 61.7 111.2 61.7H111.1C110.7 60.9 109.7 60.8 109 60.7C107.8 60.6 106.7 60.6 105.6 60C102.9 58.6 102.8 55 102.1 52.2C100.9 47.6 96.1999 47.6 92.7999 49.1C92.7999 48.9 92.7999 48.8 92.7999 48.6C92.7999 48.5 92.7999 48.5 92.7999 48.4C94.3999 47.7 95.9999 47.4 97.6999 47.5C97.7999 47.5 97.8999 47.4 97.7999 47.4C96.1999 47.1 94.3999 47.5 92.8999 48.2C92.8999 48.1 92.8999 48 92.9999 47.9C92.9999 47.8 93.0999 47.5 93.0999 47.4C93.1999 47.3 93.2999 47.3 93.2999 47.1C93.3999 46.9 93.3999 46.6 93.4999 46.4C94.5999 46.1 95.4999 46.1 96.5999 46.2C96.6999 46.2 96.6999 46.1 96.6999 46.1C95.7999 45.7 94.5999 46 93.6999 46.2C93.9999 46.1 94.1999 45.9 94.1999 45.6C95.4999 45.8 96.7999 45.7 97.9999 46.1C99.1999 46.5 100.3 47.3 101.2 48.1C103 49.8 103.8 52.3 104 55C104.1 56 104.1 57 104.6 57.9C105 58.6 105.6 59 106.3 59.3C107.3 59.7 108.4 59.6 109.5 59.9C110.6 60.1 112 61.2 111.9 62.6C111.2 62.8 110.5 63.3 109.8 63.7C108.9 64.2 108 64.7 107 65.1C106.1 65.5 105.3 66.1 104.4 66.6C103.5 67.1 102.6 67.6 101.7 68.1C99.8999 69.1 98.1999 70.3 96.4999 71.4C95.6999 71.9 94.7999 72.5 93.9999 73.1C93.5999 73.4 93.0999 73.7 92.6999 73.9C92.3999 74.1 92.0999 74.4 91.7999 74.6C91.6999 74.6 91.6999 74.7 91.5999 74.7C91.5999 74.7 91.4999 74.7 91.4999 74.8L91.3999 74.9C91.2999 76 89.5999 76.2 88.8999 76.2C88.1999 76.3 87.3999 76.2 86.6999 75.9C86.3999 75.8 85.0999 75.1 84.8999 74.5C84.8999 74.2 84.8999 74 84.9999 73.9Z" fill="#B1354E"/>
<path d="M111.8 62.8C110.1 63.7 108.5 64.7 106.9 65.6C105.2 66.6 103.4 67.5 101.7 68.5C100.1 69.5 98.4999 70.5 96.8999 71.5C95.2999 72.5 93.8999 73.8 92.2999 74.8C92.2999 74.8 92.1999 74.8 92.1999 74.9C92.0999 74.9 92.1999 75 92.1999 75C91.9999 75.9 90.4999 76.2 89.8999 76.3C88.7999 76.5 87.5999 76.2 86.5999 75.8C85.9999 75.6 85.0999 75.2 84.8999 74.4C85.1999 75 86.3999 75.6 86.5999 75.7C87.3999 76.1 88.4999 76.1 89.3999 76C90.1999 75.9 91.3999 75.5 91.5999 74.5L91.6999 74.4C91.7999 74.4 91.7999 74.3 91.8999 74.3C92.2999 74 92.7999 73.7 93.1999 73.4C93.9999 72.9 94.7999 72.3 95.5999 71.7C97.3999 70.5 99.1999 69.3 101 68.3C102.7 67.3 104.5 66.3 106.3 65.3C107.2 64.8 108.1 64.4 109.1 63.9C109.9 63.4 110.8 62.8 111.7 62.4V62.5C111.8 62.7 111.8 62.7 111.8 62.8C111.8 62.7 111.8 62.8 111.8 62.8Z" fill="#F3A8A1"/>
<g opacity="0.53">
<path d="M90.5999 74.5C90.4999 75.2 89.2999 75.6 88.0999 75.4C86.7999 75.2 85.8999 74.4 85.9999 73.7C86.0999 73 87.2999 72.6 88.4999 72.8C89.7999 73 90.6999 73.8 90.5999 74.5Z" fill="#A8581F"/>
</g>
<path d="M91 45.6C90.7 45.4 90.3999 45.1 90.6999 44.8C90.5999 45.3 91.3999 45.5 91.6999 45.5C91.7999 45.5 91.8 45.4 91.8 45.4C91.6 45.4 90.4999 45 91.0999 44.5C91.5999 44.1 92.4 44.3 92.9 44.4C93.2 44.5 93.3999 44.5 93.6999 44.7C93.8999 44.8 94.2 45.1 93.9 45.5C93.7 45.7 93.2999 45.6 93.0999 45.5C92.9999 45.5 92.9 45.7 93 45.7C93.2 45.7 93.7 45.8 94 45.6C93.6 46.1 92.8 46 92.3 46C91.9 46 91.4 45.8 91 45.6C91.1 45.6 91 45.6 91 45.6Z" fill="#B1354E"/>
<path d="M91.0999 46.5C91.0999 46.3 91.0999 46 91.0999 45.8C91.3999 46 91.5999 46.1 91.7999 46.1C92.1999 46.2 92.7999 46.3 93.2999 46.1V46.2C93.1999 46.4 93.1999 46.6 93.0999 46.8C92.6999 47.4 92.0999 47.3 91.5999 47C91.3999 47 91.0999 46.8 91.0999 46.5Z" fill="#B1354E"/>
<path d="M89.3999 60.5C89.7999 58.3 90.1999 56 90.4999 53.8C90.7999 51.6 91.0999 49.4 91.4999 47.2C91.5999 47.2 91.6999 47.3 91.7999 47.3C92.0999 47.4 92.4999 47.5 92.7999 47.3C92.4999 47.9 92.4999 48.8 92.3999 49.5C92.2999 50.6 92.0999 51.7 91.8999 52.9C91.5999 55.3 91.2999 57.7 90.8999 60.1C90.4999 62.5 90.1999 64.8 89.8999 67.2C89.7999 68.3 89.5999 69.4 89.4999 70.6C89.3999 71.3 89.1999 72.1 89.0999 72.8C89.0999 72.8 89.0999 72.8 89.0999 72.9C89.0999 73 89.0999 73.1 89.0999 73.2C89.0999 73.3 89.0999 73.4 89.1999 73.5C89.2999 73.6 89.3999 73.7 89.2999 73.8C89.1999 73.9 89.0999 74 88.8999 74.1C88.6999 74.2 88.3999 74.3 88.1999 74.3C87.8999 74.3 87.6999 74.1 87.4999 73.9C87.1999 73.7 87.2999 73.4 87.5999 73.2C87.5999 73.3 87.5999 73.3 87.5999 73.4C87.6999 73.3 87.7999 73.1 87.7999 72.9C88.3999 68.9 88.7999 64.7 89.3999 60.5Z" fill="#F3A8A1"/>
<path d="M87.0999 73.9C87.2999 74.2 87.7999 74.4 88.1999 74.5C88.5999 74.5 88.9999 74.3 89.2999 74.1C89.3999 74 89.4999 73.9 89.4999 73.7C89.5999 74 89.4999 74.4 89.0999 74.6C88.6999 74.9 88.1999 74.9 87.7999 74.9C87.4999 74.9 87.1999 74.6 86.8999 74.4C86.3999 73.9 86.7999 73.1 87.3999 73.1C87.1999 73.3 86.8999 73.6 87.0999 73.9Z" fill="#B1354E"/>
<path d="M93.6999 48.3L90.4999 73.4L93.6999 48.3Z" fill="#005268"/>
<path d="M93.6999 48.3C93.5999 48.7 93.5999 49.1 93.4999 49.5C93.3999 50.6 93.1999 51.6 93.0999 52.7C92.8999 54.2 92.6999 55.7 92.4999 57.1C92.2999 58.8 92.0999 60.4 91.8999 62.1C91.6999 63.7 91.4999 65.3 91.2999 66.9C91.0999 68.2 90.9999 69.5 90.7999 70.8C90.6999 71.6 90.5999 72.3 90.4999 73.1C90.4999 73.2 90.4999 73.3 90.4999 73.4C90.4999 73.4 90.5999 73.4 90.5999 73.3C90.6999 72.9 90.6999 72.5 90.7999 72.1C90.8999 71 91.0999 70 91.1999 68.9C91.3999 67.4 91.5999 65.9 91.7999 64.5C91.9999 62.8 92.1999 61.2 92.3999 59.5C92.5999 57.9 92.7999 56.3 92.9999 54.7C93.1999 53.4 93.2999 52.1 93.4999 50.8C93.5999 50 93.6999 49.3 93.7999 48.5C93.7999 48.4 93.7999 48.3 93.7999 48.2C93.7999 48.3 93.6999 48.3 93.6999 48.3Z" fill="#005268"/>
<path d="M94.5999 48L91.3999 73.1L94.5999 48Z" fill="#005268"/>
<path d="M94.4999 48C94.3999 48.4 94.3999 48.8 94.2999 49.2C94.1999 50.3 93.9999 51.3 93.8999 52.4C93.6999 53.9 93.4999 55.4 93.2999 56.8C93.0999 58.5 92.8999 60.1 92.6999 61.8C92.4999 63.4 92.2999 65 92.0999 66.6C91.8999 67.9 91.7999 69.2 91.5999 70.5C91.4999 71.3 91.3999 72 91.2999 72.8C91.2999 72.9 91.2999 73 91.2999 73.1C91.2999 73.1 91.3999 73.1 91.3999 73C91.4999 72.6 91.4999 72.2 91.5999 71.8C91.6999 70.7 91.8999 69.7 91.9999 68.6C92.1999 67.1 92.3999 65.6 92.5999 64.2C92.7999 62.5 92.9999 60.9 93.1999 59.2C93.3999 57.6 93.5999 56 93.7999 54.4C93.9999 53.1 94.0999 51.8 94.2999 50.5C94.3999 49.7 94.4999 49 94.5999 48.2C94.5999 48.1 94.5999 48 94.5999 47.9C94.5999 48 94.4999 48 94.4999 48Z" fill="#005268"/>
<path d="M95.4999 47.9L92.3999 72.5L95.4999 47.9Z" fill="#005268"/>
<path d="M95.3999 47.9C95.2999 48.3 95.2999 48.7 95.1999 49.1C95.0999 50.1 94.8999 51.2 94.7999 52.2C94.5999 53.6 94.3999 55.1 94.2999 56.5C94.0999 58.1 93.8999 59.7 93.6999 61.4C93.4999 63 93.2999 64.5 93.0999 66.1C92.8999 67.4 92.7999 68.6 92.5999 69.9C92.4999 70.7 92.3999 71.4 92.2999 72.2C92.2999 72.3 92.2999 72.4 92.2999 72.5C92.2999 72.5 92.3999 72.5 92.3999 72.4C92.4999 72 92.4999 71.6 92.5999 71.2C92.6999 70.2 92.8999 69.1 92.9999 68.1C93.1999 66.7 93.3999 65.2 93.4999 63.8C93.6999 62.2 93.8999 60.6 94.0999 58.9C94.2999 57.3 94.4999 55.8 94.6999 54.2C94.8999 52.9 94.9999 51.7 95.1999 50.4C95.2999 49.6 95.3999 48.9 95.4999 48.1C95.4999 48 95.4999 47.9 95.4999 47.8C95.4999 47.9 95.3999 47.9 95.3999 47.9Z" fill="#005268"/>
<path d="M96.2999 47.7L93.2999 71.9L96.2999 47.7Z" fill="#005268"/>
<path d="M96.2 47.7C96.2 48.1 96.1 48.5 96.1 48.9C96 49.9 95.8 50.9 95.7 52C95.5 53.4 95.4 54.8 95.2 56.3C95 57.9 94.8 59.5 94.6 61.1C94.4 62.6 94.2 64.2 94 65.7C93.8 67 93.7 68.2 93.5 69.5C93.4 70.2 93.3 71 93.2 71.7C93.2 71.8 93.2 71.9 93.2 72C93.2 72 93.3 72 93.3 71.9C93.3 71.5 93.4 71.1 93.4 70.7C93.5 69.7 93.7 68.7 93.8 67.6C94 66.2 94.1 64.8 94.3 63.3C94.5 61.7 94.7 60.1 94.9 58.5C95.1 57 95.3 55.4 95.5 53.9C95.7 52.6 95.8 51.4 96 50.1C96.1 49.4 96.2 48.6 96.3 47.9C96.3 47.8 96.3 47.7 96.3 47.6C96.4 47.7 96.2 47.7 96.2 47.7Z" fill="#005268"/>
<path d="M97.2999 47.8L94.2999 71.3L97.2999 47.8Z" fill="#005268"/>
<path d="M97.2 47.8C97.2 48.2 97.1 48.6 97.1 48.9C97 49.9 96.8 50.9 96.7 51.9C96.5 53.3 96.3 54.7 96.2 56C96 57.5 95.8 59.1 95.6 60.6C95.4 62.1 95.2 63.6 95 65.1C94.8 66.3 94.7 67.5 94.5 68.7C94.4 69.4 94.3 70.1 94.2 70.9C94.2 71 94.2 71.1 94.2 71.2C94.2 71.2 94.3 71.2 94.3 71.1C94.3 70.7 94.4 70.3 94.4 70C94.5 69 94.7 68 94.8 67C95 65.6 95.2 64.2 95.3 62.9C95.5 61.4 95.7 59.8 95.9 58.3C96.1 56.8 96.3 55.3 96.5 53.8C96.7 52.6 96.8 51.4 97 50.2C97.1 49.5 97.2 48.8 97.3 48C97.3 47.9 97.3 47.8 97.3 47.7C97.3 47.8 97.2 47.8 97.2 47.8Z" fill="#005268"/>
<path d="M97.9999 48L95.0999 71L97.9999 48Z" fill="#005268"/>
<path d="M97.9999 48C97.9999 48.4 97.8999 48.7 97.8999 49.1C97.7999 50.1 97.6999 51 97.4999 52C97.2999 53.4 97.1999 54.7 96.9999 56.1C96.7999 57.6 96.5999 59.1 96.3999 60.7C96.1999 62.2 95.9999 63.6 95.7999 65.1C95.6999 66.3 95.4999 67.5 95.3999 68.7C95.2999 69.4 95.1999 70.1 95.0999 70.8C95.0999 70.9 95.0999 71 95.0999 71.1C95.0999 71.1 95.1999 71.1 95.1999 71C95.1999 70.6 95.2999 70.3 95.2999 69.9C95.3999 68.9 95.4999 68 95.6999 67C95.8999 65.6 95.9999 64.3 96.1999 62.9C96.3999 61.4 96.5999 59.9 96.7999 58.3C96.9999 56.8 97.1999 55.4 97.3999 53.9C97.5999 52.7 97.6999 51.5 97.7999 50.3C97.8999 49.6 97.9999 48.9 98.0999 48.2C98.0999 48.1 98.0999 48 98.0999 47.9C98.0999 48 97.9999 48 97.9999 48Z" fill="#005268"/>
<path d="M98.7999 48.2L96.0999 70.4L98.7999 48.2Z" fill="#005268"/>
<path d="M98.7999 48.2C98.7999 48.6 98.6999 48.9 98.6999 49.3C98.5999 50.2 98.4999 51.2 98.3999 52.1C98.1999 53.4 98.0999 54.7 97.8999 56C97.6999 57.5 97.4999 58.9 97.3999 60.4C97.1999 61.8 97.0999 63.2 96.8999 64.6C96.7999 65.7 96.5999 66.9 96.4999 68C96.3999 68.7 96.2999 69.4 96.1999 70C96.1999 70.1 96.1999 70.2 96.1999 70.3C96.1999 70.3 96.2999 70.3 96.2999 70.2C96.2999 69.8 96.3999 69.5 96.3999 69.1C96.4999 68.2 96.5999 67.2 96.6999 66.3C96.8999 65 96.9999 63.7 97.1999 62.4C97.3999 60.9 97.5999 59.5 97.6999 58C97.8999 56.6 97.9999 55.2 98.1999 53.8C98.2999 52.7 98.4999 51.5 98.5999 50.4C98.6999 49.7 98.7999 49 98.8999 48.4C98.8999 48.3 98.8999 48.2 98.8999 48.1C98.8999 48.2 98.7999 48.2 98.7999 48.2Z" fill="#005268"/>
<path d="M99.5999 48.6L97.0999 69.8L99.5999 48.6Z" fill="#005268"/>
<path d="M99.4999 48.6C99.4999 48.9 99.3999 49.3 99.3999 49.6C99.2999 50.5 99.1999 51.4 99.0999 52.3C98.9999 53.5 98.7999 54.8 98.6999 56C98.4999 57.4 98.3999 58.8 98.1999 60.2C97.9999 61.5 97.8999 62.9 97.6999 64.2C97.5999 65.3 97.3999 66.4 97.2999 67.5C97.1999 68.2 97.0999 68.8 97.0999 69.5C97.0999 69.6 97.0999 69.7 97.0999 69.8C97.0999 69.8 97.1999 69.8 97.1999 69.7C97.1999 69.4 97.2999 69 97.2999 68.7C97.3999 67.8 97.4999 66.9 97.5999 66C97.6999 64.8 97.8999 63.5 97.9999 62.3C98.1999 60.9 98.2999 59.5 98.4999 58.1C98.6999 56.8 98.7999 55.4 98.9999 54.1C99.0999 53 99.2999 51.9 99.3999 50.8C99.4999 50.1 99.5999 49.5 99.5999 48.8C99.5999 48.7 99.5999 48.6 99.5999 48.5C99.5999 48.5 99.4999 48.6 99.4999 48.6Z" fill="#005268"/>
<path d="M100.4 49L97.9999 69.1L100.4 49Z" fill="#005268"/>
<path d="M100.3 49C100.3 49.3 100.2 49.6 100.2 50C100.1 50.8 99.9999 51.7 99.8999 52.5C99.7999 53.7 99.5999 54.9 99.4999 56C99.2999 57.3 99.1999 58.6 98.9999 60C98.8999 61.3 98.6999 62.5 98.5999 63.8C98.4999 64.8 98.3999 65.9 98.1999 66.9C98.0999 67.5 98.0999 68.1 97.9999 68.7C97.9999 68.8 97.9999 68.9 97.9999 69C97.9999 69 98.0999 69 98.0999 68.9C98.0999 68.6 98.1999 68.3 98.1999 67.9C98.2999 67.1 98.3999 66.2 98.4999 65.4C98.5999 64.2 98.7999 63 98.8999 61.9C99.0999 60.6 99.1999 59.3 99.3999 57.9C99.4999 56.6 99.6999 55.4 99.7999 54.1C99.8999 53.1 99.9999 52 100.2 51C100.3 50.4 100.3 49.8 100.4 49.2C100.4 49.1 100.4 49 100.4 48.9C100.5 49 100.3 49 100.3 49Z" fill="#005268"/>
<path d="M101.2 49.8L98.8999 68.8L101.2 49.8Z" fill="#005268"/>
<path d="M101.1 49.8C101.1 50.1 101 50.4 101 50.7C100.9 51.5 100.8 52.3 100.7 53.1C100.6 54.2 100.4 55.3 100.3 56.4C100.2 57.7 99.9999 58.9 99.8999 60.2C99.7999 61.4 99.5999 62.6 99.4999 63.8C99.3999 64.8 99.2999 65.8 99.0999 66.8C98.9999 67.4 98.9999 68 98.8999 68.6C98.8999 68.7 98.8999 68.8 98.8999 68.9C98.8999 68.9 98.9999 68.9 98.9999 68.8C98.9999 68.5 99.0999 68.2 99.0999 67.9C99.1999 67.1 99.2999 66.3 99.3999 65.5C99.4999 64.4 99.6999 63.3 99.7999 62.2C99.8999 60.9 100.1 59.7 100.2 58.4C100.3 57.2 100.5 56 100.6 54.8C100.7 53.8 100.8 52.8 101 51.8C101.1 51.2 101.1 50.6 101.2 50C101.2 49.9 101.2 49.8 101.2 49.7C101.2 49.8 101.1 49.8 101.1 49.8Z" fill="#005268"/>
<path d="M101.9 50.8L99.8999 68.2L101.9 50.8Z" fill="#005268"/>
<path d="M101.8 50.8C101.8 51.1 101.7 51.4 101.7 51.6C101.6 52.3 101.5 53.1 101.4 53.8C101.3 54.8 101.2 55.8 101.1 56.9C101 58 100.8 59.2 100.7 60.3C100.6 61.4 100.4 62.5 100.3 63.6C100.2 64.5 100.1 65.4 99.9999 66.3C99.8999 66.8 99.8999 67.4 99.7999 67.9C99.7999 68 99.7999 68.1 99.7999 68.1C99.7999 68.1 99.8999 68.1 99.8999 68C99.8999 67.7 99.9999 67.4 99.9999 67.2C100.1 66.5 100.2 65.7 100.3 65C100.4 64 100.5 63 100.6 61.9C100.7 60.8 100.9 59.6 101 58.5C101.1 57.4 101.3 56.3 101.4 55.2C101.5 54.3 101.6 53.4 101.7 52.5C101.8 52 101.8 51.4 101.9 50.9C101.9 50.8 101.9 50.7 101.9 50.7C101.9 50.8 101.8 50.8 101.8 50.8Z" fill="#005268"/>
<path d="M102.5 52.4L100.8 67.6L102.5 52.4Z" fill="#005268"/>
<path d="M102.5 52.4C102.5 52.6 102.4 52.9 102.4 53.1C102.3 53.7 102.3 54.4 102.2 55C102.1 55.9 102 56.8 101.9 57.7C101.8 58.7 101.7 59.7 101.6 60.7C101.5 61.7 101.4 62.6 101.3 63.6C101.2 64.4 101.1 65.2 101 66C100.9 66.5 100.9 66.9 100.8 67.4C100.8 67.5 100.8 67.5 100.8 67.6C100.8 67.6 100.9 67.6 100.9 67.5C100.9 67.3 101 67 101 66.8C101.1 66.2 101.1 65.5 101.2 64.9C101.3 64 101.4 63.1 101.5 62.2C101.6 61.2 101.7 60.2 101.8 59.2C101.9 58.2 102 57.3 102.1 56.3C102.2 55.5 102.3 54.7 102.4 53.9C102.5 53.4 102.5 53 102.6 52.5C102.6 52.4 102.6 52.4 102.6 52.3C102.6 52.4 102.5 52.4 102.5 52.4Z" fill="#005268"/>
<path d="M103.1 54.8L101.8 67L103.1 54.8Z" fill="#005268"/>
<path d="M103.1 54.9C103.1 55.1 103 55.4 103 55.6C102.9 56.2 102.9 56.9 102.8 57.5C102.7 58.3 102.6 59.2 102.5 60C102.4 60.9 102.3 61.8 102.2 62.7C102.1 63.5 102 64.3 101.9 65.1C101.8 65.6 101.8 66.1 101.7 66.7C101.7 66.8 101.7 66.9 101.7 67C101.7 67 101.8 67 101.8 66.9C101.8 66.7 101.9 66.4 101.9 66.2C102 65.6 102 64.9 102.1 64.3C102.2 63.5 102.3 62.6 102.4 61.8C102.5 60.9 102.6 60 102.7 59.1C102.8 58.3 102.9 57.5 103 56.7C103.1 56.2 103.1 55.7 103.2 55.1C103.2 55 103.2 54.9 103.2 54.8L103.1 54.9Z" fill="#005268"/>
<path d="M103.7 57.3L102.6 66.7L103.7 57.3Z" fill="#005268"/>
<path d="M103.7 57.3C103.7 57.6 103.6 57.9 103.6 58.2C103.5 58.9 103.4 59.7 103.3 60.4C103.2 61.3 103.1 62.2 103 63.1C102.9 63.9 102.8 64.7 102.7 65.5C102.7 65.9 102.6 66.3 102.6 66.7C102.6 66.7 102.7 66.7 102.7 66.6C102.7 66.3 102.8 66 102.8 65.7C102.9 65 103 64.2 103.1 63.5C103.2 62.6 103.3 61.7 103.4 60.8C103.5 60 103.6 59.2 103.7 58.4C103.7 58 103.8 57.6 103.8 57.2C103.8 57.3 103.7 57.3 103.7 57.3Z" fill="#005268"/>
<path d="M104.5 58.6L103.6 66.1L104.5 58.6Z" fill="#005268"/>
<path d="M104.4 58.6C104.4 59 104.3 59.3 104.3 59.7C104.2 60.5 104.1 61.3 104 62.2C103.9 63.1 103.8 63.9 103.7 64.8C103.6 65.3 103.6 65.7 103.5 66.2C103.5 66.2 103.6 66.2 103.6 66.1C103.6 65.7 103.7 65.4 103.7 65C103.8 64.2 103.9 63.4 104 62.5C104.1 61.6 104.2 60.8 104.3 59.9C104.4 59.4 104.4 59 104.5 58.5C104.5 58.6 104.4 58.6 104.4 58.6Z" fill="#005268"/>
<path d="M105.3 59.3L104.6 65.5L105.3 59.3Z" fill="#005268"/>
<path d="M105.2 59.3C105.2 59.7 105.1 60.2 105.1 60.6C105 61.5 104.9 62.3 104.8 63.2C104.7 63.9 104.6 64.6 104.6 65.2C104.6 65.3 104.6 65.4 104.6 65.4C104.6 65.4 104.7 65.4 104.7 65.3C104.7 64.9 104.8 64.4 104.8 64C104.9 63.1 105 62.3 105.1 61.4C105.2 60.7 105.3 60 105.3 59.4C105.3 59.3 105.3 59.2 105.3 59.2C105.3 59.3 105.2 59.3 105.2 59.3Z" fill="#005268"/>
<path d="M106.1 59.7L105.5 65.1L106.1 59.7Z" fill="#005268"/>
<path d="M106 59.7C106 60.2 105.9 60.7 105.9 61.1C105.8 62 105.7 62.8 105.6 63.7C105.6 64.1 105.5 64.6 105.5 65C105.5 65 105.6 65 105.6 64.9C105.6 64.4 105.7 63.9 105.7 63.5C105.8 62.6 105.9 61.8 106 60.9C106 60.5 106.1 60 106.1 59.6C106.1 59.6 106 59.7 106 59.7Z" fill="#005268"/>
<path d="M107.1 59.9L106.6 64.5L107.1 59.9Z" fill="#005268"/>
<path d="M107 59.9C106.9 60.4 106.9 61 106.8 61.5C106.7 62.3 106.6 63.2 106.5 64C106.5 64.2 106.5 64.3 106.4 64.5C106.4 64.5 106.5 64.5 106.5 64.4C106.6 63.9 106.6 63.3 106.7 62.8C106.8 62 106.9 61.1 107 60.3C107 60.1 107 60 107.1 59.8C107.1 59.9 107 59.9 107 59.9Z" fill="#005268"/>
<path d="M108.9 60.2L108.5 63.3L108.9 60.2Z" fill="#005268"/>
<path d="M108.8 60.3C108.7 60.9 108.6 61.6 108.6 62.2C108.6 62.6 108.5 63 108.5 63.4C108.5 63.4 108.6 63.4 108.6 63.3C108.7 62.7 108.8 62 108.8 61.4C108.8 61 108.9 60.6 108.9 60.2C108.9 60.2 108.8 60.2 108.8 60.3Z" fill="#005268"/>
<path d="M108 60L107.5 63.9L108 60Z" fill="#005268"/>
<path d="M107.9 60.1C107.8 60.7 107.8 61.3 107.7 61.9C107.6 62.6 107.5 63.3 107.5 64C107.5 64 107.6 64 107.6 63.9C107.7 63.3 107.7 62.7 107.8 62.1C107.9 61.4 108 60.7 108 60L107.9 60.1Z" fill="#005268"/>
<path d="M108 60L107.5 63.9L108 60Z" fill="#005268"/>
<path d="M107.9 60.1C107.8 60.7 107.8 61.3 107.7 61.9C107.6 62.6 107.5 63.3 107.5 64C107.5 64 107.6 64 107.6 63.9C107.7 63.3 107.7 62.7 107.8 62.1C107.9 61.4 108 60.7 108 60L107.9 60.1Z" fill="#005268"/>
<g opacity="0.53">
<path d="M103 54.8C102.4 49.3 100.1 48.1 97.4999 47.5C95.7999 47.3 94.1999 47.7 92.5999 48.4C92.5999 48.5 92.5999 48.5 92.5999 48.6C92.5999 48.8 92.5999 48.9 92.5999 49.1C95.9999 47.6 100.7 47.6 101.9 52.2C102.6 55 102.7 58.7 105.4 60C106.4 60.5 107.3 60.5 108.3 60.6C107.4 60.5 103.7 60.3 103 54.8Z" fill="#A8581F"/>
</g>
<g opacity="0.34">
<path d="M99 46.7C100.3 47.4 101.9 48.5 103.1 50.8C102.7 49.7 102 48.7 101.2 47.9C100.3 47 99.2 46.2 98 45.9C96.8 45.5 95.4 45.6 94.2 45.4C94.1 45.7 93.9 45.9 93.7 46C94.7 45.7 95.8 45.5 96.7 45.9C97.2 46 98.1 46.2 99 46.7Z" fill="white"/>
</g>
<g opacity="0.12">
<path d="M93.6999 45.2C93.6999 45.5 92.9999 45.6 92.2999 45.5C91.5999 45.4 90.9999 45 91.0999 44.8C91.0999 44.5 91.7999 44.4 92.4999 44.5C93.1999 44.5 93.6999 44.9 93.6999 45.2Z" fill="white"/>
</g>
<g opacity="0.22">
<path d="M89.2 73.5C89.2 73.5 89.1 73.5 89.2 73.5C89.1 73.4 89.1 73.3 89.1 73.2C89.1 73.1 89.1 73 89.1 72.9V72.8C89.2 72.1 89.4 71.3 89.5 70.6C89.6 69.5 89.8 68.4 89.9 67.2C90.2 64.8 90.6 62.5 90.9 60.1C91.3 57.7 91.6 55.3 91.9 52.9C92 51.8 92.3 50.7 92.4 49.5C92.5 48.8 92.5 48 92.8 47.3C92.6 47.4 92.3 47.4 92.1 47.3C92.2 47.6 92.3 48.3 92 49.9C91.5 53 89 70 88.8 71.6C88.7 72.8 89 73.6 88.8 74C88.9 73.9 89.1 73.8 89.2 73.7C89.4 73.7 89.3 73.6 89.2 73.5Z" fill="#A8581F"/>
</g>
<g opacity="0.53">
<path d="M111.1 61.8C109.3 62.5 107.5 63.5 105.7 64.3C103.8 65.1 102 66.1 100.2 67.1C98.4 68.1 96.7 69.2 94.9 70.2C93.4 71.2 91.7 71.9 90.2 73C90.5 73.2 90.7 73.4 90.8 73.6C91 73.8 110.9 62.1 111.1 61.8Z" fill="#A8581F"/>
</g>
<path d="M85.9999 69.3C85.9999 69.2 85.9999 69.1 86.0999 69C86.1999 68.7 86.1999 68.4 85.9999 68.2C85.7999 67.9 85.2999 67.8 84.9999 67.7C84.3999 67.4 83.6999 67.2 82.9999 67.1C82.5999 67 81.6999 66.8 81.2999 67.1C81.0999 67.2 81.0999 67.6 80.9999 67.8C80.7999 68.5 80.6999 69.3 80.3999 70C80.2999 70.4 80.1999 70.8 79.9999 71.2C79.4999 70.6 78.1999 70.8 77.6999 71.3C77.0999 71.8 76.7999 72.7 77.3999 73.3C77.8999 73.8 78.6999 73.8 79.1999 73.4C79.9999 72.9 80.3999 71.8 80.6999 70.9C80.9999 70.1 81.2999 69.3 81.3999 68.5C82.6999 68.7 83.9999 69 85.1999 69.4C84.9999 70 84.8999 70.6 84.6999 71.2C84.5999 71.6 84.4999 72 84.2999 72.4C83.7999 71.8 82.4999 72 81.9999 72.5C81.3999 73 81.0999 73.9 81.6999 74.5C82.1999 75 82.9999 75 83.4999 74.6C84.2999 74.1 84.6999 73 84.9999 72.1C85.1999 71.4 85.4999 70.8 85.6999 70.1C85.8999 69.8 85.8999 69.6 85.9999 69.3Z" fill="#005268"/>
<path d="M79.9999 9.10001C79.5999 8.60001 78.9999 8.40001 78.3999 8.30001C77.8999 8.20001 77.2999 8.40001 76.8999 8.20001C76.2999 8.00001 76.2999 7.50001 76.1999 7.00001C76.0999 6.30001 74.9999 6.30001 74.7999 7.00001C74.4999 8.70001 74.0999 10.3 73.6999 12C73.5999 12.6 73.4999 13.4 73.2999 14.2C72.9999 13.9 72.5999 13.7 72.1999 13.6C71.8999 13.5 71.3999 13.5 71.0999 13.5C70.0999 13.7 69.2999 14.4 68.9999 15.3C68.6999 16.2 68.7999 17.4 69.6999 17.9C72.3999 19.5 73.9999 15.7 74.4999 13.7C74.8999 12.2 75.2999 10.8 75.6999 9.30001C75.7999 9.40001 75.9999 9.50001 76.0999 9.60001C76.5999 9.80001 77.1999 9.80001 77.6999 9.80001C78.1999 9.80001 78.5999 9.80001 78.9999 10.1C79.3999 10.5 79.4999 11.1 79.0999 11.6C78.5999 12.2 79.4999 13.1 79.9999 12.5C80.6999 11.6 80.9999 10.1 79.9999 9.10001Z" fill="#005268"/>
<path d="M17.9999 21.5C17.9999 22.2 17.8999 22.9 17.6999 23.6C17.3999 24.5 16.6999 25.2 15.7999 25.3C15.4999 25.3 15.1999 25.3 14.9999 25.2C13.9999 24.8 13.9999 23.7 14.2999 22.8C14.5999 22.2 14.9999 21.6 15.3999 21C16.3999 19.5 16.4999 18 16.5999 16.4C16.5999 16.2 16.8999 16.1 17.0999 16.3C17.8999 17.9 18.0999 19.8 17.9999 21.5Z" fill="#F0968E"/>
<path d="M20.9 22.3C21 22.7 21.1 23 21.1 23.4C21.1 23.9 20.9 24.4 20.4 24.6C20.3 24.7 20.1 24.7 20 24.7C19.4 24.6 19.3 24.1 19.3 23.6C19.3 23.2 19.5 22.9 19.6 22.6C19.9 21.7 19.7 21 19.5 20.1C19.5 20 19.6 19.9 19.7 20C20.3 20.5 20.7 21.5 20.9 22.3Z" fill="#F0968E"/>
<path d="M24.3999 14C25.0999 14 25.6999 14 26.3999 13.9C27.1999 13.7 27.9999 13.1 28.0999 12.2C28.0999 11.9 28.0999 11.7 27.9999 11.4C27.5999 10.5 26.5999 10.3 25.7999 10.6C25.1999 10.8 24.6999 11.2 24.0999 11.5C22.5999 12.3 21.0999 12.3 19.4999 12.3C19.2999 12.3 19.2999 12.5 19.3999 12.6C20.8999 13.6 22.6999 13.9 24.3999 14Z" fill="#F0968E"/>
<path d="M25.4 16.8C25.7 16.9 26.1 17 26.5 17C27 17 27.5 16.8 27.7 16.4C27.8 16.3 27.8 16.1 27.8 16C27.8 15.4 27.2 15.2 26.8 15.2C26.4 15.2 26.1 15.3 25.8 15.4C24.9 15.6 24.1 15.4 23.3 15.1C23.2 15.1 23.1 15.2 23.2 15.2C23.6 16.1 24.6 16.5 25.4 16.8Z" fill="#F0968E"/>
<path d="M20.9 19.2C22.1 20.8 23.5 21.9 24.6 20.8C24.9 20.5 25 20.1 25 19.8C25 18.7 24.2 18 23.4 17.4C22.8 16.9 22.1 16.5 21.3 16.1C20.5 15.7 19.6 15.1 18.7 14.7C18.5 14.6 18.3 14.8 18.4 15C18.9 16 19.8 17.8 20.9 19.2Z" fill="#F0968E"/>
<path d="M95.2999 17.8C94.8999 17.6 94.3999 17.4 94.0999 17.1C93.5999 16.7 93.2999 16.1 93.4999 15.4C93.5999 15.2 93.6999 15.1 93.7999 14.9C94.2999 14.4 94.9999 14.7 95.3999 15.1C95.6999 15.4 95.8999 15.8 96.1999 16.2C96.8999 17.2 97.6999 17.6 98.6999 18.1C98.7999 18.2 98.7999 18.4 98.5999 18.4C97.4999 18.6 96.2999 18.2 95.2999 17.8Z" fill="#FDEFED"/>
<path d="M93.9999 19.3C93.7999 19.3 93.4999 19.2 93.2999 19.1C92.9999 19 92.7999 18.7 92.7999 18.4C92.7999 18.3 92.7999 18.2 92.8999 18.1C93.0999 17.8 93.4999 17.8 93.7999 18C93.9999 18.1 94.1999 18.3 94.3999 18.4C94.8999 18.8 95.3999 18.9 95.8999 19C95.9999 19 95.9999 19.1 95.8999 19.2C95.2999 19.4 94.5999 19.4 93.9999 19.3Z" fill="#FDEFED"/>
<path d="M98.2999 23.7C98.0999 24.1 97.8999 24.5 97.8999 25C97.7999 25.6 97.9999 26.2 98.4999 26.5C98.5999 26.6 98.7999 26.6 98.9999 26.7C99.6999 26.7 99.9999 26.1 100.1 25.6C100.1 25.2 99.9999 24.7 99.9999 24.3C99.8999 23.1 100.3 22.3 100.7 21.3C100.7 21.2 100.6 21.1 100.5 21.2C99.3999 21.6 98.7999 22.7 98.2999 23.7Z" fill="#FDEFED"/>
<path d="M96.2999 23.6C96.0999 23.8 95.9999 24 95.8999 24.2C95.7999 24.5 95.7999 24.8 95.9999 25.1C96.0999 25.2 96.0999 25.2 96.1999 25.3C96.5999 25.4 96.7999 25.2 96.8999 24.9C96.9999 24.7 96.9999 24.4 96.9999 24.2C97.0999 23.6 97.4999 23.2 97.7999 22.7C97.7999 22.7 97.7999 22.6 97.6999 22.6C97.1999 22.6 96.6999 23.1 96.2999 23.6Z" fill="#FDEFED"/>
<path d="M95.9999 20.1C94.6999 20.4 93.5999 21 93.9999 22C94.0999 22.2 94.2999 22.4 94.4999 22.5C95.1999 22.8 95.8 22.5 96.4 22.1C96.9 21.8 97.2999 21.5 97.6999 21.2C98.1999 20.8 98.7999 20.4 99.1999 20C99.2999 19.9 99.1999 19.7 99.0999 19.7C98.4999 19.7 97.0999 19.8 95.9999 20.1Z" fill="#FDEFED"/>
<path d="M24.5999 60.7C24.1999 60.7 23.7999 60.9 23.4999 61.2C23.2999 61.4 23.0999 61.7 22.7999 61.9C22.3999 62.1 22.1999 61.9 21.8999 61.7C21.4999 61.5 20.9999 62 21.2999 62.4C21.9999 63.3 22.5999 64.2 23.2999 65.1C23.4999 65.4 23.8999 65.8 24.1999 66.2C23.8999 66.2 23.5999 66.3 23.3999 66.5C23.1999 66.6 22.9999 66.8 22.8999 67C22.5999 67.6 22.5999 68.3 22.8999 68.8C23.1999 69.4 23.7999 69.8 24.4999 69.6C26.4999 69 25.2999 66.5 24.5999 65.4C24.0999 64.6 23.4999 63.7 22.9999 62.9C23.0999 62.9 23.1999 62.9 23.2999 62.8C23.5999 62.6 23.8999 62.4 24.0999 62.1C24.2999 61.9 24.4999 61.6 24.7999 61.6C25.1999 61.6 25.4999 61.8 25.5999 62.2C25.6999 62.7 26.4999 62.7 26.3999 62.2C26.0999 61.4 25.4999 60.7 24.5999 60.7Z" fill="#005268"/>
<path d="M61.5999 98.3C61.5999 98.3 61.5999 98.2 61.6999 98.2C63.1999 95.2 61.4999 91.6 58.4999 90.5C57.4999 90.1 56.3999 89.9 55.2999 89.8C53.9999 89.7 52.7999 89.8 51.4999 89.9C50.5999 90 49.7999 90.3 48.9999 89.8C47.6999 88.9 43.1999 85.2 41.8999 85.5C40.5999 85.8 40.3999 87.4 41.9999 88.3C43.5999 89.2 48.0999 91 48.5999 91.4C48.9999 91.8 49.2999 92.8 49.3999 93.3C49.5999 93.9 49.8999 94.5 50.1999 95.1C51.4999 97.4 53.3999 99.6 56.0999 100.2C58.0999 100.5 60.4999 100.2 61.5999 98.3Z" fill="#F3A8A1" stroke="#4C0003" stroke-width="0.05" stroke-miterlimit="10"/>
<path d="M41.2999 87.6C41.4999 87.8 41.6999 88 41.9999 88.2C42.1999 88.3 42.2999 88.4 42.4999 88.5C42.7999 87.6 43.2999 86.7 44.0999 86.3C43.5999 86 43.0999 85.7 42.6999 85.6C41.9999 86.1 41.4999 86.8 41.2999 87.6Z" fill="#005268" stroke="#4C0003" stroke-width="0.05" stroke-miterlimit="10"/>
<path d="M60.4999 93.4C60.6999 93.1 60.8999 92.8 61.1999 92.5C60.7999 91.9 60.1999 91.3 59.4999 90.9C59.7999 91.8 60.0999 92.6 60.4999 93.4Z" fill="#FDEFED" stroke="#4C0003" stroke-width="0.05" stroke-miterlimit="10"/>
<path d="M58.9 92.7C59.4 92.9 59.7999 93.2 60.2999 93.3C59.8999 92.5 59.5999 91.7 59.2999 90.8C58.6999 91.2 58.2 91.7 57.7 92.2C58.1 92.4 58.5 92.6 58.9 92.7Z" fill="#FDEFED" stroke="#4C0003" stroke-width="0.05" stroke-miterlimit="10"/>
<path d="M58.8999 95.5C58.6999 94.8 58.3999 94.2 58.0999 93.5C57.8999 93.2 57.7999 92.8 57.6999 92.5C57.6999 92.5 57.6999 92.4 57.5999 92.3C57.0999 92.8 56.5999 93.4 56.1999 94C56.0999 94.2 55.9999 94.4 55.7999 94.6C56.7999 95 57.8999 95.2 58.8999 95.5Z" fill="#FDEFED" stroke="#4C0003" stroke-width="0.05" stroke-miterlimit="10"/>
<path d="M56.3 95.4C56.6 95.8 56.8 96.2 57.1 96.5C57.3 96.9 57.6 97.2 57.8 97.6C58.2 96.9 58.6 96.3 59 95.6C58 95.3 56.9 95.1 55.9 94.8C56 95 56.1 95.2 56.3 95.4Z" fill="#FDEFED" stroke="#4C0003" stroke-width="0.05" stroke-miterlimit="10"/>
<path d="M54.4999 97C55.4999 97.2 56.5999 97.3 57.5999 97.6C57.3999 97.2 57.0999 96.9 56.8999 96.5C56.5999 96.1 56.3999 95.7 56.0999 95.3C55.9999 95.2 55.8999 95 55.7999 94.8C55.2999 95.6 54.8999 96.3 54.4999 97Z" fill="#FDEFED" stroke="#4C0003" stroke-width="0.05" stroke-miterlimit="10"/>
<path d="M59.5999 92.7C59.4999 92.5 59.3999 92.2 59.2999 92C59.1999 91.7 58.9999 91.5 58.8999 91.2C58.5999 91.4 58.2999 91.7 57.9999 91.9C58.5999 92.2 59.0999 92.4 59.5999 92.7Z" fill="#4C0003" stroke="#4C0003" stroke-width="0.05" stroke-miterlimit="10"/>
<path d="M56.2 94.1C56.5 94.2 56.9 94.3 57.2 94.5C57.6 94.7 58 94.8 58.4 95C58.3 94.8 58.1999 94.6 58.0999 94.4C57.7999 93.9 57.5 93.4 57.2 92.8C56.8 93.2 56.5 93.6 56.2 94.1Z" fill="#4C0003" stroke="#4C0003" stroke-width="0.05" stroke-miterlimit="10"/>
<path d="M58.9999 95.5C59.3999 94.8 59.8999 94.2 60.3999 93.5C59.8999 93.3 59.4999 93.1 58.9999 92.9C58.5999 92.7 58.0999 92.5 57.5999 92.4C57.6999 92.6 57.7999 92.9 57.8999 93C57.9999 93.3 58.0999 93.5 58.1999 93.8C58.4999 94.3 58.7999 94.9 58.9999 95.5Z" fill="#FDEFED" stroke="#4C0003" stroke-width="0.05" stroke-miterlimit="10"/>
<path d="M60.6999 92.7C60.6999 92.8 60.7999 92.9 60.7999 93C60.8999 92.9 60.9999 92.7 61.0999 92.6C60.8999 92.3 60.5999 91.9 60.2999 91.6C60.4999 91.9 60.5999 92.3 60.6999 92.7Z" fill="#4C0003" stroke="#4C0003" stroke-width="0.05" stroke-miterlimit="10"/>
<path d="M59.3999 95C59.5999 94.7 59.8999 94.3 60.0999 94C59.6999 93.8 59.1999 93.6 58.7999 93.5C58.9999 94 59.1999 94.5 59.3999 95Z" fill="#4C0003" stroke="#4C0003" stroke-width="0.05" stroke-miterlimit="10"/>
<path d="M52.2999 89.8C51.9999 89.8 51.7999 89.8 51.4999 89.9C50.5999 90 49.8999 90.3 49.0999 89.9C48.7999 90.3 48.4999 90.8 48.2999 91.2C48.3999 91.3 48.4999 91.3 48.5999 91.4C48.9999 91.8 49.2999 92.8 49.3999 93.3C49.4999 93.5 49.5999 93.8 49.6999 94C50.0999 92.3 50.9999 90.8 52.2999 89.8Z" fill="#005268" stroke="#4C0003" stroke-width="0.05" stroke-miterlimit="10"/>
<path d="M50 91.1L50.0999 91.5L49.7999 91.3L49.4 91.5L49.5 91.1L49.2 90.8L49.5999 90.7L49.7 90.4L49.9 90.7L50.2999 90.8L50 91.1Z" fill="#FDEFED" stroke="#4C0003" stroke-width="0.05" stroke-miterlimit="10"/>
<path d="M40.9 86.3C41 85.8 41.4 85.5 41.9 85.4C42.9 85.2 45.5 87.2 47.5 88.6C48.2 89.1 48.7 89.5 49.1 89.7C49.7 90.1 50.2 90 50.9 89.9C51.1 89.9 51.3 89.8 51.6 89.8C53.1 89.7 54.3 89.7 55.4 89.7C56.4 89.7 57.6 90 58.6 90.4C61.4 91.4 63 94.5 62.2 97.3C62.1 97.6 62 97.9 61.8 98.2C61.8 98.2 61.8 98.3 61.7 98.3C60.3 100.8 57.1 100.3 56.2 100.1C53.1 99.4 51.2 96.6 50.3 95C50 94.5 49.8 93.9 49.5 93.2C49.5 93.1 49.4 93 49.4 92.9C49.2 92.4 49 91.7 48.7 91.3C48.5 91.1 46.9 90.4 45.4 89.7C44.2 89.1 42.9 88.6 42.1 88.2C41 87.7 40.8 86.9 40.9 86.3ZM62 97.2C62.8 94.5 61.2 91.5 58.5 90.5C57.5 90.1 56.3 89.9 55.3 89.8C54.2 89.7 53 89.8 51.5 89.9C51.3 89.9 51.1 90 50.8 90C50.2 90.1 49.6 90.2 49 89.8C48.6 89.6 48.1 89.2 47.4 88.7C45.6 87.3 42.9 85.3 41.9 85.5C41.4 85.6 41.1 85.9 40.9 86.3C40.8 86.8 40.9 87.6 42 88.1C42.7 88.5 44 89.1 45.2 89.6C46.8 90.3 48.3 91 48.5 91.2C48.8 91.5 49.1 92.3 49.3 92.8C49.3 92.9 49.4 93 49.4 93.1C49.6 93.8 49.9 94.3 50.2 94.9C51.1 96.5 53 99.3 56 99.9C56.9 100.1 60.1 100.6 61.4 98.2C61.4 98.2 61.4 98.1 61.5 98.1C61.8 97.8 61.9 97.5 62 97.2Z" stroke="#4C0003" stroke-width="0.05" stroke-miterlimit="10"/>
<path d="M42.9999 86.4C42.8999 86.4 42.7999 86.3 42.8999 86.1C42.8999 86 42.9999 85.9 43.1999 86C43.2999 86 43.3999 86.1 43.2999 86.3C43.1999 86.3 43.0999 86.4 42.9999 86.4Z" fill="#FDEFED" stroke="#4C0003" stroke-width="0.05" stroke-miterlimit="10"/>
<path d="M42.4999 87C42.3999 87 42.2999 86.8 42.2999 86.7C42.2999 86.6 42.4999 86.5 42.5999 86.5C42.6999 86.5 42.7999 86.7 42.7999 86.8C42.6999 87 42.5999 87.1 42.4999 87Z" fill="#FDEFED" stroke="#4C0003" stroke-width="0.05" stroke-miterlimit="10"/>
<path d="M42.1 87.8C42 87.8 41.9 87.6 41.9 87.5C41.9 87.4 42.1 87.3 42.2 87.3C42.3 87.3 42.4 87.5 42.4 87.6C42.3 87.8 42.2 87.8 42.1 87.8Z" fill="#FDEFED" stroke="#4C0003" stroke-width="0.05" stroke-miterlimit="10"/>
<path opacity="0.4" d="M56.2 100C58.2 100.4 60.6 100.2 61.7 98.2C61.7 98.2 61.7 98.1 61.8 98.1C61.9 97.9 62 97.8 62 97.6C61.8 97.7 61.6 97.9 61.4 97.9C60.5 98.2 59.5 98.1 58.5 97.9C56.4 97.4 54.4 96.2 52.9 94.7C52.2 94 51.5 93.2 51.2 92.2C50.8 91.5 50.2 90.6 49.4 90.3C47.6 89.6 45.6 89.1 44 88C43.5 87.7 43 87.2 43 86.6C43 86.2 43.2 86 43.6 85.9C43.7 85.9 43.8 85.9 43.9 85.9C43.1 85.5 42.5 85.2 42.1 85.3C40.8 85.6 40.6 87.2 42.2 88.1C43.8 89 48.3 90.8 48.8 91.2C49.2 91.6 49.5 92.6 49.6 93.1C49.8 93.7 50.1 94.3 50.4 94.9C51.5 97.2 53.5 99.4 56.2 100Z" fill="#FDEFED" stroke="#4C0003" stroke-width="0.05" stroke-miterlimit="10"/>
<path opacity="0.4" d="M61.7999 95.6C61.5999 94.1 60.7999 92.9 59.6999 91.9C58.5999 90.9 56.6999 90.2 55.0999 90.4C54.8999 90.4 54.9999 90.7 55.1999 90.8C56.4999 91.4 57.8999 91.6 59.0999 92.4C60.2999 93.1 61.1999 94.4 61.6999 95.7C61.6999 95.7 61.7999 95.7 61.7999 95.6Z" fill="#FDEFED" stroke="#4C0003" stroke-width="0.05" stroke-miterlimit="10"/>
<path opacity="0.4" d="M53.7999 90.4C53.8999 90.4 53.9999 90.4 54.0999 90.5C54.1999 90.5 54.1999 90.5 54.1999 90.4C54.1999 90.3 54.0999 90.3 54.0999 90.3C53.9999 90.3 53.8999 90.2 53.6999 90.2C53.5999 90.2 53.6999 90.4 53.7999 90.4Z" fill="#FDEFED" stroke="#4C0003" stroke-width="0.05" stroke-miterlimit="10"/>
<path opacity="0.4" d="M47.1999 88.9C46.1999 88.3 45.1999 87.5 44.1999 87C44.0999 86.9 44.0999 87.1 44.1999 87.2C45.0999 87.9 46.1999 88.5 47.1999 89.1C47.2999 89.1 47.2999 88.9 47.1999 88.9Z" fill="#FDEFED" stroke="#4C0003" stroke-width="0.05" stroke-miterlimit="10"/>
</g>
</g>
<defs>
<clipPath id="clip0_139_415283">
<rect width="111" height="95" rx="8" fill="white"/>
</clipPath>
</defs>
</svg>
