<svg width="50" height="50" viewBox="0 0 50 50" fill="none" xmlns="http://www.w3.org/2000/svg">
<path d="M37.5377 10.9965L10.5806 35.3109L13.6077 38.667L40.5648 14.3526L37.5377 10.9965Z" fill="#005268"/>
<g opacity="0.7">
<path d="M17.7005 35.3925C18.1864 35.0037 18.6238 34.5664 19.0612 34.129C19.9359 33.2543 20.8592 32.6712 21.7339 31.7964C22.803 30.7273 24.0179 29.804 25.1842 28.6863C27.2738 26.6453 29.4607 24.5557 31.6961 22.6118C33.7857 20.7652 35.7781 18.9671 37.7705 17.2177C38.791 16.2944 39.8602 15.3711 40.8807 14.4477L40.9779 14.3991C40.9779 14.3991 41.0264 14.3991 41.0264 14.3505L40.9779 14.3019L40.7835 14.1562L40.5405 13.8646L40.2003 13.4758L39.52 12.6983C39.0826 12.2123 38.6453 11.6778 38.2079 11.1918C38.0135 10.9488 37.8191 10.7545 37.6247 10.5115C37.479 10.6087 37.3818 10.7059 37.236 10.8516L36.9444 11.0946C36.6528 11.3862 36.3127 11.6292 36.0211 11.9208C35.3893 12.4553 34.7576 13.0385 34.1258 13.6216C32.8624 14.7879 31.5989 15.9056 30.384 17.0233C28.6345 18.6756 25.0384 21.9315 23.532 23.3408C25.573 21.4455 27.7112 19.5017 29.7036 17.7037C25.33 21.7371 20.8106 25.9163 16.437 29.9012C20.4704 26.2079 24.5525 22.466 28.5373 18.87C30.5298 17.0719 32.5222 15.2739 34.5146 13.573C35.4865 12.6983 36.507 11.8722 37.479 11.046C37.5276 10.9974 37.5276 11.0946 37.5761 11.0946L37.6733 11.1918L37.8191 11.3862L38.1107 11.775L38.7424 12.5039C39.1312 12.9899 39.5686 13.4758 39.9573 13.9618C39.4714 13.4272 38.9854 12.8441 38.4995 12.2609C38.2565 11.9693 38.0135 11.6778 37.7219 11.3862C37.5276 10.9488 37.2846 11.3862 36.993 11.6292C35.8267 12.6497 34.6118 13.7188 33.3969 14.7879C30.9671 16.9747 28.4401 19.2101 25.9132 21.4455C20.9078 25.9649 15.951 30.4843 11.6746 34.372C11.3344 34.6636 10.9943 34.9552 10.6541 35.2953C10.6055 35.3439 10.5569 35.3925 10.5569 35.3925L10.6541 35.4897C10.7027 35.5869 10.7999 35.6355 10.8485 35.7327C10.9943 35.8785 11.14 36.0243 11.2372 36.1701C10.9943 35.9271 10.7513 35.6355 10.5083 35.3925C10.7513 35.1495 11.0429 34.9066 11.2858 34.6636C11.8204 34.1776 12.4035 33.6431 12.9381 33.1571C14.0558 32.1366 15.2221 31.0675 16.437 29.9984C18.8182 27.8602 21.248 25.6248 23.7264 23.3894C26.2047 21.154 28.7317 18.9185 31.1615 16.7803C32.3764 15.7112 33.5913 14.6421 34.8062 13.573C35.3893 13.0385 35.9725 12.5525 36.5556 12.0179C36.7986 11.775 37.0902 11.5806 37.3332 11.3376L37.3818 11.289L37.4304 11.3376L37.5276 11.4834L37.9163 11.9208L39.277 13.4758L39.9087 14.2048L40.0059 14.3019L40.0545 14.3505L40.0059 14.3991L39.763 14.6421C38.6939 15.5654 37.6733 16.4888 36.6042 17.3635C34.5146 19.2101 32.3764 21.0568 30.2382 22.9034C29.0719 23.9239 27.9056 24.9444 26.7393 25.9649C24.3581 28.0546 21.9769 30.1442 19.5957 32.2824C17.5061 34.1776 13.7642 37.4821 13.2783 38.5512C13.9586 37.9681 14.6875 37.2392 15.3193 36.7046C15.1249 36.9476 14.8333 37.2392 14.5903 37.5307C14.8819 37.2878 15.1735 36.9962 15.4165 36.7532C15.2221 36.9476 15.0277 37.1906 14.9791 37.2878C15.3193 36.9962 15.7566 36.5102 15.9996 36.2672C16.1454 36.1215 16.7772 35.3925 16.9715 35.2467C16.4856 35.7813 15.9024 36.413 15.5623 36.899C15.7566 36.7532 15.9024 36.5588 16.0968 36.413C15.9024 36.656 15.5137 37.0448 15.4165 37.1906C15.8538 36.8018 16.2426 36.413 16.68 35.9757C17.0687 35.6355 17.4089 35.3439 17.7491 35.0038C17.3603 35.4411 16.7772 35.9757 16.5342 36.2672C16.7286 36.1215 16.9229 35.9271 17.1173 35.7327C17.1173 35.7813 17.0687 35.7813 17.0687 35.7813C17.1659 35.6841 17.2631 35.5869 17.3603 35.4897H17.4089" fill="#005268"/>
<path d="M16.5342 35.3448C16.9715 34.956 17.6033 34.3729 18.0407 34.0327L16.5342 35.3448Z" fill="#005268"/>
</g>
<path d="M10.5723 35.2795L9.02051 36.6791L12.0476 40.0352L13.5994 38.6356L10.5723 35.2795Z" fill="#005268"/>
<g opacity="0.7">
<path d="M12.8895 39.7181C12.9866 39.6695 13.0352 39.5723 13.0838 39.4751C13.1324 39.3779 13.2296 39.3293 13.3268 39.2807C13.424 39.2321 13.5698 39.1349 13.667 39.0378C13.7642 38.892 13.91 38.7948 14.0072 38.649C13.91 38.5032 13.8614 38.3574 13.7156 38.2116C13.5698 38.1144 13.424 37.9687 13.2782 37.8715C13.181 37.7743 13.0838 37.7257 12.9866 37.6285C12.7923 37.4827 12.6465 37.2883 12.5007 37.0939C12.2091 36.7538 11.9661 36.4136 11.6746 36.0734C11.5288 35.9276 11.4316 35.7332 11.2858 35.5875C11.2372 35.4903 11.14 35.4417 11.0914 35.3445C10.9942 35.2473 10.8484 35.0529 10.7512 34.9557L10.654 34.8585L10.5083 34.9557C10.4111 35.0043 10.3139 35.0529 10.2167 35.1501C10.0709 35.2959 9.92511 35.3931 9.82792 35.4903C9.63354 35.6847 9.43915 35.879 9.24477 36.0734C9.19617 36.122 9.19617 36.1706 9.14758 36.1706C9.09898 36.2192 9.05039 36.2678 8.9532 36.365C8.856 36.4622 8.75881 36.5594 8.66162 36.6566C8.71022 36.7538 8.75881 36.8509 8.9046 36.9481L9.05039 37.0939L9.14758 37.1425C9.19617 37.1911 9.24477 37.2397 9.29337 37.2883C9.39056 37.3855 9.48775 37.4341 9.53634 37.4827C9.43915 37.3855 9.39056 37.3369 9.29337 37.2397L9.19617 37.1425C9.14758 37.0939 9.09898 37.0453 9.05039 36.9967C8.9532 36.8995 8.9046 36.8509 8.856 36.7538L8.75881 36.6566C8.75881 36.608 8.80741 36.608 8.856 36.5594C8.9046 36.5108 9.00179 36.4136 9.05039 36.365L9.19617 36.2678L9.05039 36.4136C8.9532 36.4622 8.9046 36.5594 8.856 36.608L8.80741 36.6566L8.856 36.7052L8.9532 36.8024C9.00179 36.8995 9.09898 36.9481 9.14758 37.0453C9.34196 37.2397 9.48775 37.3855 9.68213 37.5799C10.0223 37.9201 10.3139 38.2116 10.7026 38.6004C10.3625 38.2602 10.0709 37.9687 9.77932 37.6771C9.63354 37.5313 9.48775 37.3855 9.34196 37.1911C9.24477 37.0939 9.14758 36.9967 9.05039 36.8995C9.00179 36.8509 8.9532 36.7538 8.9046 36.7052C8.9046 36.6566 9.00179 36.608 9.05039 36.5594C9.14758 36.4622 9.24477 36.4136 9.34196 36.3164C9.43915 36.2678 9.48775 36.1706 9.58494 36.122C9.73073 35.9762 9.92511 35.879 10.0709 35.7332C10.2167 35.6361 10.4597 35.4417 10.6055 35.3931C10.7512 35.5875 10.7998 35.7332 10.897 35.9276C10.8484 35.8304 10.7512 35.7332 10.7026 35.6847C10.654 35.6361 10.6055 35.4417 10.5083 35.5875C10.3139 35.7332 10.1195 35.879 9.92511 36.0248C9.73073 36.2192 9.48775 36.365 9.29337 36.5108L9.09898 36.5594L9.00179 36.6566C9.00179 36.7052 8.9046 36.7052 8.9532 36.7538C9.05039 36.8509 9.14758 36.9967 9.24477 37.0939C9.97371 37.9201 10.7512 38.649 11.383 39.3293C11.4802 39.4265 11.5774 39.5237 11.6746 39.6209C11.0428 38.9406 10.3139 38.163 9.58494 37.3855C9.39056 37.1911 9.24477 36.9967 9.05039 36.7538C9.05039 36.7052 9.00179 36.7052 9.00179 36.6566L9.09898 36.608L9.24477 36.4622C9.34196 36.365 9.43915 36.3164 9.53634 36.2192C9.73073 36.0734 9.97371 35.9276 10.1681 35.7332C10.2653 35.6847 10.3139 35.6361 10.4111 35.5389H10.5569C10.6055 35.5389 10.6055 35.5875 10.6055 35.6361C10.8484 35.9762 11.0914 36.3164 11.3344 36.6566C11.5774 37.0453 11.8689 37.3855 12.1605 37.7257C12.3063 37.9201 12.4521 38.1144 12.5979 38.3088L12.6465 38.406C12.6465 38.4546 12.6951 38.4546 12.6951 38.4546H12.7437V38.5032C12.7437 38.5032 12.7437 38.5032 12.6951 38.5518V38.6004C12.4035 38.892 11.7718 39.4265 11.9175 39.8639C12.0147 39.7667 12.1119 39.6209 12.2577 39.5723C12.2577 39.6209 12.2091 39.7181 12.2091 39.7667C12.2577 39.7181 12.3063 39.6695 12.3549 39.6209C12.3549 39.6695 12.3063 39.7181 12.3549 39.7667C12.4035 39.7181 12.4521 39.6209 12.4521 39.5723C12.4521 39.5237 12.5007 39.3779 12.5493 39.3293C12.5007 39.4751 12.4521 39.6209 12.4521 39.7667C12.5007 39.7667 12.5007 39.7181 12.5493 39.6695C12.5493 39.7181 12.5007 39.8153 12.5007 39.8639C12.5493 39.8153 12.5979 39.7181 12.6951 39.6695C12.7437 39.6209 12.7923 39.5723 12.8409 39.5237C12.7923 39.6209 12.7437 39.7181 12.7437 39.8153C12.7923 39.8153 12.7923 39.7667 12.8409 39.7181C12.8409 39.7181 12.8409 39.7181 12.8409 39.7667C12.8409 39.7181 12.8895 39.7181 12.8895 39.7181Z" fill="#005268"/>
<path d="M12.2578 39.1837C12.3064 39.1351 12.4522 39.0379 12.5008 38.9893L12.2578 39.1837Z" fill="#005268"/>
</g>
<path d="M9.05064 36.6566L12.0636 40.0097C12.0636 40.0097 9.29362 42.3423 9.43941 45.4039C9.43941 45.6468 9.14783 45.744 9.00205 45.5496L3.17055 39.0864C3.02477 38.9406 3.17055 38.6976 3.36494 38.7462C6.37787 39.2322 9.05064 36.6566 9.05064 36.6566Z" fill="#005268"/>
<g opacity="0.7">
<path d="M9.92537 38.1629C10.0712 38.3087 10.2169 38.4545 10.3627 38.6003C10.6543 38.8918 10.8001 39.232 11.0917 39.475C11.1403 39.5236 11.2375 39.5722 11.286 39.6694C11.3346 39.718 11.3346 39.7665 11.3832 39.7665L11.4318 39.8151L11.529 39.9123L11.5776 39.9609V40.0095C11.5776 40.0095 11.5776 40.0095 11.529 40.0095C11.4804 40.0581 11.4318 40.1067 11.3832 40.1553L11.3346 40.2525L11.2375 40.3983L10.9945 40.6899C10.8487 40.8843 10.7029 41.1272 10.6057 41.3216C10.3627 41.759 10.0712 42.1963 9.87677 42.6337C9.68239 43.0225 9.5366 43.4112 9.39081 43.8C9.34222 43.9944 9.29362 44.1888 9.24503 44.4317L9.19643 44.7719C9.19643 44.8691 9.19643 44.8691 9.19643 44.9663V45.1121C9.19643 45.1607 9.14783 45.2093 9.05064 45.2093C8.95345 45.1607 8.90485 45.0635 8.80766 44.9663C8.51609 44.6261 8.22451 44.286 7.93294 43.9458C7.30119 43.1683 6.47507 42.2935 5.74613 41.516C5.21158 40.9328 4.09387 39.7666 3.60792 39.3292C4.23966 39.9609 4.87141 40.6899 5.45455 41.3216C4.77421 40.5927 4.09387 39.9123 3.41353 39.1834L3.26774 39.0376L3.21915 38.989C3.21915 38.989 3.21915 38.989 3.21915 38.9404C3.21915 38.8918 3.21915 38.8432 3.26774 38.8432C3.46213 38.8432 3.7537 38.8918 3.99668 38.8918C4.48264 38.8918 4.9686 38.7946 5.45455 38.6974C5.01719 38.7946 4.57983 38.8918 4.09387 38.8918C3.70511 38.9404 2.97617 38.746 3.21915 39.0376C3.85089 39.6694 4.43404 40.3497 5.01719 41.03C6.18349 42.3421 7.30119 43.7028 8.27311 45.0635C7.05821 43.557 5.64894 41.8562 4.14247 40.2039C3.94809 40.0095 3.7537 39.8151 3.60792 39.5722L3.31634 39.2806C3.21915 39.1834 3.07336 39.0862 3.12196 38.989C3.12196 38.746 3.51072 38.8918 3.7537 38.8918C4.04528 38.8918 4.28826 38.8918 4.57983 38.8918C5.64894 38.7946 6.62085 38.3573 7.44698 37.9199C7.68996 37.7741 7.98154 37.5797 8.17592 37.4825C7.39839 38.0171 6.52366 38.5031 5.50315 38.746C5.01719 38.8918 4.43404 38.9404 3.89949 38.9404L3.51072 38.8918C3.46213 38.8918 3.36494 38.8918 3.31634 38.8918C3.26774 38.8918 3.21915 38.9404 3.17055 38.989C3.12196 39.0862 3.21915 39.1834 3.31634 39.2806L3.60792 39.5722C5.06579 41.1758 6.47507 42.9253 7.68996 44.4317L8.12732 44.9663L8.32171 45.2093L8.61328 45.5494C8.71047 45.6952 8.85626 45.841 8.95345 45.8896C9.05064 45.9382 9.14783 46.0354 9.34222 45.9868C9.488 45.9868 9.63379 45.841 9.68239 45.7438C9.73098 45.6466 9.77958 45.4523 9.82817 45.3065V45.0149V44.8691V44.7719L9.87677 44.4317C9.92537 44.2374 9.97396 43.9944 10.0712 43.8C10.2169 43.4112 10.4113 42.9739 10.6057 42.5851C10.8487 42.1963 11.1403 41.8076 11.4318 41.4188C11.5776 41.2244 11.7234 41.0786 11.9178 40.9328L12.0636 40.7871L12.3066 40.5441C12.4523 40.3983 12.6953 40.2039 12.8897 40.0581C12.7439 39.8637 12.5981 39.6694 12.4038 39.475L11.9664 38.989L11.4318 38.3573C10.8001 37.6769 9.73098 36.462 9.14783 36.462C9.34222 36.705 9.5852 36.8994 9.77958 37.1424C9.68239 37.0938 9.5366 37.0452 9.43941 36.948C9.5366 37.0452 9.5852 37.1424 9.68239 37.191C9.5852 37.1424 9.5366 37.0938 9.43941 37.0938C9.5366 37.191 9.73098 37.3368 9.82817 37.3854C9.87677 37.434 10.1683 37.5797 10.2169 37.6769C10.0226 37.5797 9.73098 37.3854 9.5366 37.3368C9.5852 37.3854 9.63379 37.434 9.68239 37.5311C9.5852 37.4825 9.43941 37.3368 9.39081 37.3368C9.5366 37.4825 9.68239 37.5797 9.82817 37.7255C9.92537 37.8713 10.0226 37.9685 10.1683 38.0657C10.0226 37.9685 9.82818 37.7741 9.68239 37.7255C9.73098 37.8227 9.77958 37.8713 9.87677 37.9199C9.87677 37.9199 9.87677 37.9199 9.82817 37.9199C9.87677 38.0657 9.87677 38.1143 9.92537 38.1629Z" fill="#005268"/>
<path d="M10.3618 37.434C10.5076 37.5798 10.702 37.7742 10.7992 37.92L10.3618 37.434Z" fill="#005268"/>
</g>
<path d="M45.8863 5.31172L42.8734 8.81062L43.0192 9.92832C43.2135 11.1432 42.7762 12.3095 41.8529 13.1356L40.5408 14.3019L37.5278 10.9488L44.8658 4.33981C45.0602 4.14543 45.3518 4.19402 45.5461 4.3884L45.8863 4.77717C46.0321 4.92296 46.0321 5.16594 45.8863 5.31172Z" fill="#005268"/>
<g opacity="0.7">
<path d="M44.4765 6.42979C44.3307 6.57558 44.2335 6.76996 44.0877 6.91575C43.8448 7.25592 43.5046 7.4503 43.3102 7.79047C43.1644 8.03345 43.0186 8.17924 42.8242 8.37362L42.6299 8.568C42.5813 8.66519 42.4841 8.71379 42.5327 8.81098C42.5327 9.00537 42.5813 9.24834 42.6299 9.34554C42.6785 9.58852 42.7271 9.83149 42.8242 10.0745C42.8728 10.3175 42.9214 10.5118 42.9214 10.7548C42.9214 11.2408 42.7756 11.7267 42.5327 12.1155C42.2897 12.5043 41.9981 12.7958 41.6579 13.0874C41.5122 13.2332 41.3178 13.379 41.172 13.5248L40.929 13.7192C40.8804 13.7678 40.8318 13.8163 40.8318 13.8163L40.686 13.8649L40.6374 13.9135C40.6374 13.9135 40.5888 13.9621 40.5888 13.9135C40.5402 13.8649 40.5402 13.8163 40.4916 13.7678C40.4916 13.7192 40.4916 13.7192 40.443 13.6706L40.3459 13.5248L40.1515 13.2818C39.8599 12.9416 39.5683 12.6015 39.2767 12.2613C38.9366 11.8725 38.5964 11.4352 38.2076 10.9978C38.0619 10.852 38.159 10.9006 38.1104 10.9006C38.3048 10.7062 38.4992 10.5118 38.6936 10.3175C39.2767 9.7829 40.443 8.66519 40.929 8.13064C40.2973 8.76239 39.5683 9.44273 38.888 10.0259C40.2973 8.66519 41.7551 7.30451 43.213 5.89524C41.9009 7.15873 40.5402 8.42222 39.2282 9.63711C38.888 9.92869 38.5478 10.2203 38.2076 10.5118L37.9647 10.7062L37.7703 10.852L37.8189 10.9006L37.8675 10.9978L38.0619 11.2408C38.5964 11.9211 39.131 12.6015 39.6169 13.2818C38.9852 12.5043 38.3048 11.7267 37.6245 10.852C37.5273 10.8034 37.6731 10.7548 37.6731 10.7062L37.8189 10.5604L38.1104 10.2689L38.7422 9.7343C39.1796 9.34554 39.5683 9.00537 40.0057 8.6166C41.7065 7.11013 43.3102 5.55507 44.7195 4.24298C44.8167 4.14579 44.9625 4 45.1082 4C45.254 4 45.3998 4.0486 45.497 4.14579C45.3026 3.9514 45.0111 3.9514 44.8167 4.14579C44.6223 4.34017 44.4279 4.48596 44.2821 4.68034C43.8933 5.06911 43.5046 5.40928 43.1158 5.74945C42.3383 6.47838 41.5122 7.20732 40.686 7.98485C39.8599 8.71379 39.0338 9.44273 38.159 10.1717C37.9161 10.366 37.7217 10.5604 37.4787 10.7062C37.4787 10.7548 37.3815 10.7548 37.4301 10.8034L37.5273 10.9006L37.6731 11.095L37.9161 11.3866C38.2562 11.7753 38.5964 12.2127 38.888 12.6015C39.1796 12.9416 39.4711 13.3304 39.7627 13.6706L40.0057 13.9621C40.1029 14.1079 40.2487 14.2537 40.3945 14.3995L40.4916 14.4967L40.5402 14.5453V14.5939C40.5402 14.5939 40.5402 14.5939 40.5888 14.5939L40.7832 14.3995L41.172 14.0593C41.5608 13.7678 41.9009 13.4762 42.2897 13.136C42.6785 12.7958 42.97 12.3585 43.213 11.8725C43.456 11.338 43.6018 10.7548 43.6018 10.1717C43.6018 10.0259 43.6018 9.88009 43.6018 9.7343L43.5532 9.34554L43.5046 8.95677V8.90817C43.7962 8.568 44.1363 8.22783 44.4279 7.83907C45.0596 7.11013 46.1288 5.89524 46.0316 5.31209C45.8372 5.50647 45.6428 5.79804 45.4484 5.99243C45.497 5.89524 45.5456 5.74945 45.5942 5.65226C45.497 5.74945 45.3998 5.84664 45.3512 5.94383C45.3998 5.84664 45.4484 5.74945 45.4484 5.70085C45.3512 5.79804 45.254 5.99243 45.2054 6.08962C45.1568 6.13821 45.0596 6.47838 44.9625 6.52698C45.0596 6.284 45.2054 6.04102 45.254 5.79804C45.2054 5.84664 45.1568 5.94383 45.1082 5.99243C45.0596 6.04102 45.2054 5.89524 45.2054 5.79804C45.0596 5.94383 45.0111 6.08962 44.8653 6.284C44.7681 6.42979 44.6709 6.52698 44.5737 6.67277C44.6709 6.47839 44.8167 6.284 44.8653 6.13821C44.8167 6.18681 44.7195 6.284 44.6709 6.3326C44.6709 6.3326 44.6709 6.3326 44.6709 6.284C44.5737 6.3326 44.5737 6.38119 44.4765 6.42979C44.5251 6.38119 44.5251 6.38119 44.4765 6.42979Z" fill="#005268"/>
<path d="M45.3031 6.72131C45.1573 6.8671 45.0115 7.11008 44.8657 7.20727L45.3031 6.72131Z" fill="#005268"/>
</g>
<path d="M33.8827 15.2746C34.0285 15.4204 34.5144 15.1774 35.049 14.6915C35.5835 14.2055 35.8751 13.7195 35.7293 13.5738C35.5835 13.428 35.0976 13.6709 34.563 14.1569C34.0771 14.6429 33.7369 15.1288 33.8827 15.2746Z" fill="#005268"/>
<g opacity="0.7">
<path d="M34.3688 15.5658C34.4174 15.5658 34.466 15.5172 34.466 15.4686C34.5146 15.3714 34.6603 15.4686 34.7089 15.3714C34.7575 15.2256 34.9033 15.2742 35.0005 15.177C35.0977 14.9826 35.1949 14.7396 35.3893 14.6424C35.5351 14.5452 35.6809 14.3995 35.8266 14.2537C35.8752 14.1565 35.9724 14.1079 36.021 14.0107C36.0696 13.9621 36.0696 13.9135 36.1182 13.8649C36.1182 13.7677 36.1668 13.7191 36.1182 13.5247C36.0696 13.4275 36.021 13.3303 35.9238 13.2818C35.8266 13.2332 35.778 13.2332 35.6809 13.2332C35.5837 13.2332 35.4865 13.2332 35.3893 13.2818C35.2435 13.3303 35.1463 13.4275 35.0491 13.4761C34.9033 13.5733 34.6603 13.8163 34.5632 13.9621C34.6603 13.8163 34.8547 13.6705 35.0005 13.5733C34.6603 13.8649 34.3688 14.1565 34.1744 14.4966C34.3688 14.2051 34.6117 13.9135 34.9519 13.6705C35.0977 13.5733 35.2921 13.4761 35.4865 13.4761C35.5837 13.4761 35.7295 13.4761 35.7295 13.5733C35.7295 13.6705 35.6809 13.7191 35.5837 13.7677C35.6323 13.7191 35.6809 13.6219 35.6323 13.6219C35.5837 13.5733 35.4379 13.5733 35.3407 13.6219C35.1463 13.6705 34.9033 13.7677 34.7575 13.9135C34.3688 14.2051 34.1258 14.5452 33.9314 14.8854C33.8828 14.934 33.8828 14.9826 33.8828 15.0312C34.0286 14.691 34.3202 14.3023 34.6603 14.0107C34.8547 13.8649 35.0491 13.7677 35.2435 13.6705C35.3407 13.6219 35.4379 13.6219 35.5351 13.6219C35.5837 13.6219 35.6323 13.6219 35.6323 13.6705C35.6323 13.7191 35.6323 13.6219 35.6323 13.6219C35.6323 13.6219 35.6323 13.6219 35.5837 13.6219C35.4865 13.6219 35.4865 13.6705 35.4379 13.7191C35.3893 13.7677 35.2921 13.8163 35.2435 13.8649C35.0977 13.9621 34.9519 14.0593 34.8061 14.1565C34.7089 14.2051 34.6117 14.2537 34.5632 14.3023C34.4174 14.3995 34.223 14.448 34.0772 14.5452C34.0286 14.5938 33.9314 14.5938 33.9314 14.691C33.9314 14.7396 33.9314 14.691 33.9314 14.8368C33.9314 14.934 33.9314 15.0312 33.9314 15.0312C33.9314 15.0798 33.9314 15.1284 33.8828 15.1284C33.8828 15.1284 33.9314 15.0798 33.9314 15.0312C33.9314 15.0312 33.9314 15.0312 33.98 15.0312C33.98 15.0798 33.98 15.1284 33.9314 15.1284H33.98C33.98 15.177 33.98 15.177 33.9314 15.2256C33.98 15.2256 33.98 15.177 34.0286 15.1284C34.0286 15.1284 34.0772 14.9826 34.0772 15.0312C34.0772 15.1284 34.0286 15.2256 34.0286 15.3228H34.0772C34.0772 15.3714 34.0286 15.3714 34.0286 15.4686C34.0772 15.4686 34.1258 15.42 34.1744 15.3714C34.223 15.3714 34.223 15.3714 34.2716 15.3228C34.2716 15.3714 34.223 15.42 34.1744 15.5172C34.223 15.5172 34.223 15.5172 34.223 15.4686C34.223 15.4686 34.223 15.4686 34.223 15.5172C34.3202 15.5658 34.3202 15.5658 34.3688 15.5658C34.3202 15.5658 34.3202 15.5658 34.3688 15.5658Z" fill="#005268"/>
</g>
<path d="M29.8006 18.9669C29.9464 19.1127 30.4323 18.8697 30.9669 18.3837C31.5014 17.8978 31.793 17.4118 31.6472 17.266C31.5014 17.1202 31.0155 17.3632 30.4809 17.8492C29.9464 18.3351 29.6548 18.8211 29.8006 18.9669Z" fill="#005268"/>
<g opacity="0.7">
<path d="M30.2384 19.2592C30.287 19.2592 30.3356 19.2106 30.3356 19.162C30.3842 19.0648 30.53 19.162 30.5786 19.0648C30.6272 18.919 30.773 18.9676 30.8701 18.8704C30.9673 18.676 31.0645 18.433 31.2589 18.3359C31.4047 18.2387 31.5505 18.0929 31.6963 17.9471C31.7449 17.8499 31.8421 17.8013 31.8907 17.7041C31.9393 17.6555 31.9393 17.6069 31.9878 17.5583C31.9878 17.4611 32.0364 17.4125 31.9878 17.2181C31.9393 17.121 31.8907 17.0238 31.7935 16.9752C31.6963 16.9266 31.6477 16.9266 31.5505 16.9266C31.4533 16.9266 31.3561 16.9266 31.2589 16.9752C31.1131 17.0238 31.0159 17.121 30.9187 17.1696C30.773 17.2667 30.53 17.5097 30.4328 17.6555C30.53 17.5097 30.7244 17.3639 30.8701 17.2667C30.53 17.5583 30.2384 17.8499 30.044 18.1901C30.2384 17.8985 30.4814 17.6069 30.8215 17.3639C30.9673 17.2667 31.1617 17.1696 31.3561 17.1696C31.4533 17.1696 31.5991 17.1696 31.5991 17.2667C31.5991 17.3639 31.5505 17.4125 31.4533 17.4611C31.5019 17.4125 31.5505 17.3153 31.5019 17.3153C31.4533 17.2667 31.3075 17.2667 31.2103 17.3153C31.0159 17.3639 30.773 17.4611 30.6272 17.6069C30.2384 17.8985 29.9954 18.2387 29.801 18.5788C29.7524 18.6274 29.7524 18.676 29.7524 18.7246C29.8982 18.3844 30.1898 17.9957 30.53 17.7041C30.7244 17.5583 30.9187 17.4611 31.1131 17.3639C31.2103 17.3153 31.3075 17.3153 31.4047 17.3153C31.4533 17.3153 31.5019 17.3153 31.5019 17.3639C31.5019 17.4125 31.5019 17.3153 31.5019 17.3153C31.5019 17.3153 31.5019 17.3153 31.4533 17.3153C31.3561 17.3153 31.3561 17.3639 31.3075 17.4125C31.2589 17.4611 31.1617 17.5097 31.1131 17.5583C30.9673 17.6555 30.8215 17.7527 30.6758 17.8499C30.5786 17.8985 30.4814 17.9471 30.4328 17.9957C30.287 18.0929 30.0926 18.1415 29.9468 18.2387C29.8982 18.2873 29.801 18.2873 29.801 18.3844C29.801 18.433 29.801 18.3844 29.801 18.5302C29.801 18.6274 29.801 18.7246 29.801 18.7246C29.801 18.7732 29.801 18.8218 29.7524 18.8218C29.7524 18.8218 29.801 18.7732 29.801 18.7246C29.801 18.7246 29.801 18.7246 29.8496 18.7246C29.8496 18.7732 29.8496 18.8218 29.801 18.8218H29.8496C29.8496 18.8704 29.8496 18.8704 29.801 18.919C29.8496 18.919 29.8496 18.8704 29.8982 18.8218C29.8982 18.8218 29.9468 18.676 29.9468 18.7246C29.9468 18.8218 29.8982 18.919 29.8982 19.0162H29.9468C29.9468 19.0648 29.8982 19.0648 29.8982 19.162C29.9468 19.162 29.9954 19.1134 30.044 19.0648C30.0926 19.0648 30.0926 19.0648 30.1412 19.0162C30.1412 19.0648 30.0926 19.1134 30.044 19.2106C30.0926 19.2106 30.0926 19.2106 30.0926 19.162C30.0926 19.162 30.0926 19.162 30.0926 19.2106C30.1898 19.2592 30.2384 19.2592 30.2384 19.2592Z" fill="#005268"/>
</g>
<path d="M25.6705 22.6607C25.8163 22.8064 26.3022 22.5635 26.8368 22.0775C27.3713 21.5915 27.6629 21.1056 27.5171 20.9598C27.3713 20.814 26.8854 21.057 26.3508 21.543C25.8649 22.0289 25.5733 22.5149 25.6705 22.6607Z" fill="#005268"/>
<g opacity="0.7">
<path d="M26.1564 22.9523C26.205 22.9523 26.2536 22.9038 26.2536 22.8552C26.3022 22.758 26.4479 22.8552 26.4965 22.758C26.5451 22.6122 26.6909 22.6608 26.7881 22.5636C26.8853 22.3692 26.9825 22.1262 27.1769 22.029C27.3227 21.9318 27.4685 21.7861 27.6142 21.6403C27.6628 21.5431 27.76 21.4945 27.8086 21.3973C27.8572 21.3487 27.8572 21.3001 27.9058 21.2515C27.9058 21.1543 27.9544 21.1057 27.9058 20.9113C27.8572 20.8141 27.8086 20.7169 27.7114 20.6683C27.6142 20.6198 27.5656 20.6198 27.4685 20.6198C27.3713 20.6198 27.2741 20.6198 27.1769 20.6683C27.0311 20.7169 26.9339 20.8141 26.8367 20.8627C26.6909 20.9599 26.4479 21.2029 26.3508 21.3487C26.4479 21.2029 26.6423 21.0571 26.7881 20.9599C26.4479 21.2515 26.1564 21.5431 25.962 21.8832C26.1564 21.5917 26.3993 21.3001 26.7395 21.0571C26.8853 20.9599 27.0797 20.8627 27.2741 20.8627C27.3713 20.8627 27.5171 20.8627 27.5171 20.9599C27.5171 21.0571 27.4685 21.1057 27.3713 21.1543C27.4199 21.1057 27.4685 21.0085 27.4199 21.0085C27.3713 20.9599 27.2255 20.9599 27.1283 21.0085C26.9339 21.0571 26.6909 21.1543 26.5451 21.3001C26.1564 21.5917 25.9134 21.9318 25.719 22.272C25.6704 22.3206 25.6704 22.3692 25.6704 22.4178C25.8162 22.0776 26.1078 21.6889 26.4479 21.3973C26.6423 21.2515 26.8367 21.1543 27.0311 21.0571C27.1283 21.0085 27.2255 21.0085 27.3227 21.0085C27.3713 21.0085 27.4199 21.0085 27.4199 21.0571C27.4199 21.1057 27.4199 21.0085 27.4199 21.0085C27.4199 21.0085 27.4199 21.0085 27.3713 21.0085C27.2741 21.0085 27.2741 21.0571 27.2255 21.1057C27.1769 21.1543 27.0797 21.2029 27.0311 21.2515C26.8853 21.3487 26.7395 21.4459 26.5937 21.5431C26.4965 21.5917 26.3993 21.6403 26.3508 21.6889C26.205 21.7861 26.0106 21.8346 25.8648 21.9318C25.8162 21.9804 25.719 21.9804 25.719 22.0776C25.719 22.1262 25.719 22.0776 25.719 22.2234C25.719 22.3206 25.719 22.4178 25.719 22.4178C25.719 22.4664 25.719 22.515 25.6704 22.515C25.6704 22.515 25.719 22.4664 25.719 22.4178C25.719 22.4178 25.719 22.4178 25.7676 22.4178C25.7676 22.4664 25.7676 22.515 25.719 22.515H25.7676C25.7676 22.5636 25.7676 22.5636 25.719 22.6122C25.7676 22.6122 25.7676 22.5636 25.8162 22.515C25.8162 22.515 25.8648 22.3692 25.8648 22.4178C25.8648 22.515 25.8162 22.6122 25.8162 22.7094H25.8648C25.8648 22.758 25.8162 22.758 25.8162 22.8552C25.8648 22.8552 25.9134 22.8066 25.962 22.758C26.0106 22.758 26.0106 22.758 26.0592 22.7094C26.0592 22.758 26.0106 22.8066 25.962 22.9038C26.0106 22.9038 26.0106 22.9038 26.0106 22.8552C26.0106 22.8552 26.0106 22.8552 26.0106 22.9038C26.1078 22.9523 26.1078 22.9523 26.1564 22.9523C26.1078 22.9523 26.1564 22.9523 26.1564 22.9523Z" fill="#005268"/>
</g>
<path d="M21.5887 26.3543C21.7345 26.5 22.2205 26.2571 22.755 25.7711C23.2896 25.2852 23.5812 24.7992 23.4354 24.6534C23.2896 24.5076 22.8036 24.7506 22.2691 25.2366C21.7831 25.7225 21.443 26.2085 21.5887 26.3543Z" fill="#005268"/>
<g opacity="0.7">
<path d="M22.025 26.694C22.0736 26.694 22.1222 26.6454 22.1222 26.5968C22.1708 26.4996 22.3166 26.5968 22.3652 26.4996C22.4138 26.3538 22.5596 26.4024 22.6568 26.3052C22.754 26.1108 22.8512 25.8679 23.0455 25.7707C23.1913 25.6735 23.3371 25.5277 23.4829 25.3819C23.5315 25.2847 23.6287 25.2361 23.6773 25.1389C23.7259 25.0903 23.7259 25.0417 23.7745 24.9931C23.7745 24.8959 23.8231 24.8473 23.7745 24.653C23.7259 24.5558 23.6773 24.4586 23.5801 24.41C23.4829 24.3614 23.4343 24.3614 23.3371 24.3614C23.2399 24.3614 23.1427 24.3614 23.0455 24.41C22.8997 24.4586 22.8026 24.5558 22.7054 24.6044C22.5596 24.7016 22.3166 24.9445 22.2194 25.0903C22.3166 24.9445 22.511 24.7988 22.6568 24.7016C22.3166 24.9931 22.025 25.2847 21.8306 25.6249C22.025 25.3333 22.268 25.0417 22.6082 24.7988C22.754 24.7016 22.9483 24.6044 23.1427 24.6044C23.2399 24.6044 23.3857 24.6044 23.3857 24.7016C23.3857 24.7988 23.3371 24.8473 23.2399 24.8959C23.2885 24.8473 23.3371 24.7502 23.2885 24.7502C23.2399 24.7016 23.0941 24.7016 22.9969 24.7502C22.8026 24.7988 22.5596 24.8959 22.4138 25.0417C22.025 25.3333 21.782 25.6735 21.5877 26.0136C21.5391 26.0622 21.5391 26.1108 21.5391 26.1594C21.6848 25.8193 21.9764 25.4305 22.3166 25.1389C22.511 24.9931 22.7054 24.8959 22.8997 24.7988C22.9969 24.7502 23.0941 24.7502 23.1913 24.7502C23.2399 24.7502 23.2885 24.7502 23.2885 24.7988C23.2885 24.8473 23.2885 24.7502 23.2885 24.7502C23.2885 24.7502 23.2885 24.7502 23.2399 24.7502C23.1427 24.7502 23.1427 24.7988 23.0941 24.8473C23.0455 24.8959 22.9483 24.9445 22.8997 24.9931C22.754 25.0903 22.6082 25.1875 22.4624 25.2847C22.3652 25.3333 22.268 25.3819 22.2194 25.4305C22.0736 25.5277 21.8792 25.5763 21.7334 25.6735C21.6849 25.7221 21.5877 25.7707 21.5877 25.8193C21.5877 25.8679 21.5877 25.8193 21.5877 25.965C21.5877 26.0622 21.5877 26.1594 21.5877 26.1594C21.5877 26.208 21.5877 26.2566 21.5391 26.2566C21.5391 26.2566 21.5877 26.208 21.5877 26.1594C21.5877 26.1594 21.5877 26.1594 21.6363 26.1594C21.6363 26.208 21.6363 26.2566 21.5877 26.2566H21.6363C21.6363 26.3052 21.6363 26.3052 21.5877 26.3538C21.6363 26.3538 21.6363 26.3052 21.6849 26.2566C21.6849 26.2566 21.7334 26.1108 21.7334 26.1594C21.7334 26.2566 21.6849 26.3538 21.6849 26.451H21.7334C21.7334 26.4996 21.6849 26.4996 21.6849 26.5968C21.7334 26.5968 21.782 26.5482 21.8306 26.4996C21.8792 26.4996 21.8792 26.4996 21.9278 26.451C21.9278 26.4996 21.8792 26.5482 21.8306 26.6454C21.8792 26.6454 21.8792 26.6454 21.8792 26.5968C21.9764 26.6454 22.025 26.6454 22.025 26.694C22.025 26.6454 22.025 26.694 22.025 26.694Z" fill="#005268"/>
</g>
<path d="M17.4576 30.0957C17.6034 30.2414 18.0893 29.9985 18.6239 29.5125C19.1584 29.0265 19.45 28.5406 19.3042 28.3948C19.1584 28.249 18.6725 28.492 18.1379 28.978C17.652 29.4153 17.3604 29.9499 17.4576 30.0957Z" fill="#005268"/>
<g opacity="0.7">
<path d="M17.943 30.3878C17.9916 30.3878 18.0402 30.3392 18.0402 30.2906C18.0888 30.1934 18.2346 30.2906 18.2832 30.1934C18.3318 30.0476 18.4775 30.0962 18.5747 29.999C18.6719 29.8046 18.7691 29.5616 18.9635 29.4645C19.1093 29.3673 19.2551 29.2215 19.4009 29.0757C19.4495 28.9785 19.5466 28.9299 19.5952 28.8327C19.6438 28.7841 19.6438 28.7355 19.6924 28.6869C19.6924 28.5897 19.741 28.5411 19.6924 28.3468C19.6438 28.2496 19.5952 28.1524 19.4981 28.1038C19.4009 28.0552 19.3523 28.0552 19.2551 28.0552C19.1579 28.0552 19.0607 28.0552 18.9635 28.1038C18.8177 28.1524 18.7205 28.2496 18.6233 28.2982C18.4775 28.3953 18.2346 28.6383 18.1374 28.7841C18.2346 28.6383 18.4289 28.4925 18.5747 28.3953C18.2346 28.6869 17.943 28.9785 17.7486 29.3187C17.943 29.0271 18.186 28.7355 18.5261 28.4925C18.6719 28.3953 18.8663 28.2982 19.0607 28.2982C19.1579 28.2982 19.3037 28.2982 19.3037 28.3953C19.3037 28.4925 19.2551 28.5411 19.1579 28.5897C19.2065 28.5411 19.2551 28.4439 19.2065 28.4439C19.1579 28.3953 19.0121 28.3953 18.9149 28.4439C18.7205 28.4925 18.4775 28.5897 18.3318 28.7355C17.943 29.0271 17.7 29.3673 17.5056 29.7074C17.457 29.756 17.457 29.8046 17.457 29.8532C17.6028 29.513 17.8944 29.1243 18.2346 28.8327C18.4289 28.6869 18.6233 28.5897 18.8177 28.4925C18.9149 28.4439 19.0121 28.4439 19.1093 28.4439C19.1579 28.4439 19.2065 28.4439 19.2065 28.4925C19.2065 28.5411 19.2065 28.4439 19.2065 28.4439C19.2065 28.4439 19.2065 28.4439 19.1579 28.4439C19.0607 28.4439 19.0607 28.4925 19.0121 28.5411C18.9635 28.5897 18.8663 28.6383 18.8177 28.6869C18.6719 28.7841 18.5261 28.8813 18.3803 28.9785C18.2832 29.0271 18.186 29.0757 18.1374 29.1243C17.9916 29.2215 17.7972 29.2701 17.6514 29.3673C17.6028 29.4159 17.5056 29.4645 17.5056 29.513C17.5056 29.5616 17.5056 29.5131 17.5056 29.6588C17.5056 29.756 17.5056 29.8532 17.5056 29.8532C17.5056 29.9018 17.5056 29.9504 17.457 29.9504C17.457 29.9504 17.5056 29.9018 17.5056 29.8532C17.5056 29.8532 17.5056 29.8532 17.5542 29.8532C17.5542 29.9018 17.5542 29.9504 17.5056 29.9504H17.5542C17.5542 29.999 17.5542 29.999 17.5056 30.0476C17.5542 30.0476 17.5542 29.999 17.6028 29.9504C17.6028 29.9504 17.6514 29.8046 17.6514 29.8532C17.6514 29.9504 17.6028 30.0476 17.6028 30.1448H17.6514C17.6514 30.1934 17.6028 30.1934 17.6028 30.2906C17.6514 30.2906 17.7 30.242 17.7486 30.1934C17.7972 30.1934 17.7972 30.1934 17.8458 30.1448C17.8458 30.1934 17.7972 30.242 17.7486 30.3392C17.7972 30.3392 17.7972 30.3392 17.7972 30.2906C17.7972 30.2906 17.7972 30.2906 17.7972 30.3392C17.8944 30.3392 17.8944 30.3392 17.943 30.3878Z" fill="#005268"/>
</g>
<path d="M13.3749 33.7889C13.5207 33.9347 14.0066 33.6917 14.5412 33.2057C15.0757 32.7198 15.3673 32.2338 15.2215 32.088C15.0757 31.9423 14.5898 32.1852 14.0552 32.6712C13.5693 33.1571 13.2291 33.6431 13.3749 33.7889Z" fill="#005268"/>
<g opacity="0.7">
<path d="M13.8131 34.0811C13.8617 34.0811 13.9103 34.0325 13.9103 33.9839C13.9589 33.8867 14.1047 33.9839 14.1533 33.8867C14.2019 33.7409 14.3477 33.7895 14.4449 33.6923C14.542 33.4979 14.6392 33.2549 14.8336 33.1578C14.9794 33.0606 15.1252 32.9148 15.271 32.769C15.3196 32.6718 15.4168 32.6232 15.4654 32.526C15.514 32.4774 15.514 32.4288 15.5626 32.3802C15.5626 32.283 15.6111 32.2344 15.5626 32.04C15.514 31.9429 15.4654 31.8457 15.3682 31.7971C15.271 31.7485 15.2224 31.7485 15.1252 31.7485C15.028 31.7485 14.9308 31.7485 14.8336 31.7971C14.6878 31.8457 14.5906 31.9429 14.4934 31.9915C14.3477 32.0886 14.1047 32.3316 14.0075 32.4774C14.1047 32.3316 14.2991 32.1858 14.4449 32.0886C14.1047 32.3802 13.8131 32.6718 13.6187 33.012C13.8131 32.7204 14.0561 32.4288 14.3963 32.1858C14.542 32.0886 14.7364 31.9915 14.9308 31.9915C15.028 31.9915 15.1738 31.9915 15.1738 32.0886C15.1738 32.1858 15.1252 32.2344 15.028 32.283C15.0766 32.2344 15.1252 32.1372 15.0766 32.1372C15.028 32.0886 14.8822 32.0886 14.785 32.1372C14.5906 32.1858 14.3477 32.283 14.2019 32.4288C13.8131 32.7204 13.5701 33.0606 13.3757 33.4007C13.3271 33.4493 13.3271 33.4979 13.3271 33.5465C13.4729 33.2063 13.7645 32.8176 14.1047 32.526C14.2991 32.3802 14.4934 32.283 14.6878 32.1858C14.785 32.1372 14.8822 32.1372 14.9794 32.1372C15.028 32.1372 15.0766 32.1372 15.0766 32.1858C15.0766 32.2344 15.0766 32.1372 15.0766 32.1372C15.0766 32.1372 15.0766 32.1372 15.028 32.1372C14.9308 32.1372 14.9308 32.1858 14.8822 32.2344C14.8336 32.283 14.7364 32.3316 14.6878 32.3802C14.542 32.4774 14.3963 32.5746 14.2505 32.6718C14.1533 32.7204 14.0561 32.769 14.0075 32.8176C13.8617 32.9148 13.6673 32.9634 13.5215 33.0606C13.4729 33.1092 13.3757 33.1092 13.3757 33.2063C13.3757 33.2549 13.3757 33.2063 13.3757 33.3521C13.3757 33.4493 13.3757 33.5465 13.3757 33.5465C13.3757 33.5951 13.3757 33.6437 13.3271 33.6437C13.3271 33.6437 13.3757 33.5951 13.3757 33.5465C13.3757 33.5465 13.3757 33.5465 13.4243 33.5465C13.4243 33.5951 13.4243 33.6437 13.3757 33.6437H13.4243C13.4243 33.6923 13.4243 33.6923 13.3757 33.7409C13.4243 33.7409 13.4243 33.6923 13.4729 33.6437C13.4729 33.6437 13.5215 33.4979 13.5215 33.5465C13.5215 33.6437 13.4729 33.7409 13.4729 33.8381H13.5215C13.5215 33.8867 13.4729 33.8867 13.4729 33.9839C13.5215 33.9839 13.5701 33.9353 13.6187 33.8867C13.6673 33.8867 13.6673 33.8867 13.7159 33.8381C13.7159 33.8867 13.6673 33.9353 13.6187 34.0325C13.6673 34.0325 13.6673 34.0325 13.6673 33.9839C13.8131 34.0811 13.8131 34.0811 13.8131 34.0811Z" fill="#005268"/>
</g>
<g opacity="0.4">
<path d="M42.922 9.15076L43.0192 9.92829C43.2136 11.1432 42.7762 12.3095 41.8529 13.1356L40.5408 14.3019L13.5702 38.6484L12.0151 40.0577C12.0151 40.0577 9.29375 42.3903 9.39094 45.4032C9.39094 45.6462 9.09937 45.7434 8.95358 45.5976L6.08643 42.3417L42.922 9.15076Z" fill="#005268"/>
<g opacity="0.7">
<path d="M39.8601 14.4959C39.2769 15.0304 38.6937 15.565 38.1106 16.0995C36.9443 17.2172 35.8266 17.9948 34.7089 19.1125C33.2996 20.4731 31.7446 21.688 30.2867 23.0973C27.5653 25.7215 24.7468 28.3942 21.8796 30.9212C18.4293 34.0314 15.1734 36.8985 11.8689 39.8143H12.2576H11.8689C11.0914 40.4946 10.4596 41.2721 9.97365 42.1954C9.73067 42.6328 9.53628 43.1188 9.3419 43.6047C9.29331 43.8477 9.19611 44.0907 9.14752 44.3823L9.09892 44.771C9.09892 44.8682 9.09892 44.9168 9.09892 45.014C9.09892 45.0626 9.09892 45.0626 9.09892 45.1112C9.09892 45.1598 9.05033 45.1598 9.00173 45.1598C8.95314 45.1598 8.95314 45.1112 8.95314 45.1112C8.90454 45.0626 8.95314 45.1112 8.85594 44.9654C8.1756 44.1879 7.49526 43.4103 6.76633 42.6328L6.62054 42.487C6.57194 42.4384 6.57194 42.4384 6.57194 42.4384C6.57194 42.4384 6.57194 42.4384 6.57194 42.3898L6.71773 42.244L7.00931 41.9525C7.39807 41.6123 7.83543 41.2235 8.2242 40.8834C9.82786 39.4255 11.4801 37.919 13.0352 36.5097C15.3192 34.4201 19.9358 30.1923 21.831 28.3942C19.2068 30.824 16.4369 33.3024 13.8613 35.635C19.547 30.4353 25.4271 25.0897 31.0156 19.9872C26.156 24.4094 21.2965 28.8802 16.4855 33.2052C14.0557 35.392 11.6745 37.5303 9.29331 39.6199C8.71016 40.1544 8.12701 40.6404 7.49526 41.1749L6.62054 41.9525L6.23177 42.2926L6.18318 42.3412C6.18318 42.3412 6.18318 42.3898 6.23177 42.3898L6.32896 42.487L6.52335 42.6814C7.00931 43.2646 7.54386 43.8477 8.02982 44.4309L8.80735 45.3056C8.95314 45.4514 9.05033 45.6943 9.29331 45.6458C9.3905 45.6458 9.48769 45.5486 9.48769 45.4514C9.48769 45.3542 9.48769 45.257 9.53628 45.1598V44.771L9.58488 44.4309C9.63348 44.1879 9.68207 43.9935 9.73067 43.7991C9.87646 43.3617 10.0222 42.973 10.2652 42.5842C10.0708 42.973 9.87646 43.3617 9.77926 43.7991C9.73067 43.9935 9.63348 44.2365 9.63348 44.4309L9.58488 44.771V45.1598C9.58488 45.3056 9.58488 45.4514 9.53628 45.5486C9.48769 45.6457 9.3419 45.7429 9.19612 45.6943C9.05033 45.6458 9.00173 45.5486 8.90454 45.4514L8.66156 45.1598C8.36999 44.8196 8.02982 44.4795 7.73824 44.0907C7.44667 43.7505 7.1065 43.3617 6.81492 43.0216L6.32896 42.487L6.03739 42.3412L6.18318 42.1954L6.47475 41.9525C7.93262 40.689 9.3905 39.3769 10.897 38.0162C13.8613 35.3434 16.9228 32.6221 19.9844 29.9007C26.0103 24.458 31.9389 19.0639 37.1873 14.3015C38.0134 13.5725 38.9367 12.6978 39.6657 12.0661C34.0772 17.12 27.8569 22.7571 21.5394 28.4914C18.3321 31.3586 15.1248 34.2257 11.9661 37.0443C10.411 38.4536 8.80735 39.8143 7.30088 41.1749C6.91211 41.5151 6.52335 41.8553 6.08598 42.244C6.03739 42.2926 5.9402 42.3412 5.8916 42.3898L6.03739 42.5842L6.32896 42.9244L6.81492 43.5075C7.15509 43.8963 7.44667 44.2365 7.78684 44.6252L8.27279 45.1598L8.51577 45.4514C8.61296 45.5972 8.75875 45.7429 8.85594 45.7915C9.00173 45.8887 9.19611 45.8887 9.3419 45.7915C9.3905 45.7429 9.43909 45.6457 9.48769 45.5972L9.53628 45.3056C9.53628 45.1598 9.53628 45.014 9.53628 44.8682L9.58488 44.528C9.63348 44.2851 9.68207 44.0907 9.73067 43.8477C9.87646 43.4103 10.0708 42.973 10.3138 42.5356C10.7998 41.7095 11.4315 40.932 12.1119 40.3488L11.7231 40.3002H12.1605C15.8537 37.0929 19.547 33.837 23.2889 30.4839C24.7954 29.1718 26.2532 27.8597 27.7597 26.5476C30.8212 23.8262 33.8828 21.1049 36.8957 18.3835C38.2564 17.1686 40.103 15.4678 41.7553 13.9613C41.9497 13.7669 42.1441 13.6211 42.387 13.3782C42.5814 13.1352 42.7758 12.8922 42.9216 12.6492C43.2132 12.1633 43.3589 11.6287 43.4075 11.1427C43.4561 10.6568 43.4075 10.2194 43.3103 9.92785C43.2132 9.63628 43.116 9.3933 43.0674 9.19891C43.116 9.49049 43.1646 9.78206 43.2132 10.0736C43.2618 10.3652 43.2618 10.7054 43.2132 11.0456C43.116 11.6773 42.873 12.2604 42.5328 12.7464C42.7758 12.3576 42.9216 11.8717 43.0188 11.3857C42.9216 11.8717 42.6786 12.3576 42.387 12.6978C42.5814 12.4062 42.7272 12.0175 42.7272 11.8717C42.63 12.1147 42.4842 12.4548 42.2898 12.6978C42.0955 12.9894 41.9011 13.1838 41.7067 13.3782C41.5123 13.5725 40.6862 14.4473 40.4432 14.6902C40.7348 14.3501 41.1235 14.0099 41.4151 13.6211C41.7553 13.281 42.0955 12.9408 42.2412 12.6006C42.0469 12.8436 41.8525 13.038 41.6095 13.2324C41.7553 13.0866 41.9011 12.8922 42.0469 12.6978C42.1926 12.5034 42.2898 12.309 42.3384 12.2119C42.1441 12.5034 41.9497 12.795 41.7067 13.038C41.4151 13.281 41.1721 13.5239 40.8806 13.8155C40.3946 14.2529 39.9572 14.6416 39.5199 15.079C40.0544 14.5444 40.7834 13.8641 41.0749 13.4753C40.832 13.6697 40.5404 13.9613 40.2974 14.2043C40.346 14.1557 40.346 14.1557 40.346 14.1557C40.2488 14.2529 40.0544 14.3987 39.9572 14.4959H39.9086C39.9086 14.4959 39.9086 14.4959 39.9086 14.5444" fill="#005268"/>
<path d="M41.2204 14.3506C40.6373 14.8852 39.8597 15.6141 39.3252 16.0515L41.2204 14.3506Z" fill="#005268"/>
</g>
</g>
<path d="M45.9037 5.19033C46.0466 5.03014 45.9515 4.71196 45.6912 4.47966C45.4309 4.24736 45.1039 4.18891 44.961 4.3491C44.818 4.5093 44.9132 4.82748 45.1735 5.05978C45.4338 5.29208 45.7607 5.35053 45.9037 5.19033Z" fill="#005268"/>
<g opacity="0.7">
<path d="M45.5458 4.97211C45.4972 4.97211 45.4972 4.97211 45.5458 4.97211C45.4972 5.02071 45.4486 4.87492 45.4 4.92352C45.4 4.97211 45.3514 4.82632 45.3028 4.87492C45.2543 4.92352 45.1571 4.92352 45.1085 4.82632C45.0599 4.68054 45.0599 4.53475 45.1571 4.53475C45.2057 4.53475 45.2057 4.58335 45.2057 4.58335H45.2543C45.3028 4.58335 45.3514 4.58335 45.4 4.58335C45.3028 4.58335 45.2057 4.53475 45.2057 4.48615C45.3028 4.48615 45.5944 4.58335 45.6916 4.72913C45.5944 4.58335 45.4 4.53475 45.3028 4.48615C45.3514 4.48615 45.3028 4.43756 45.2543 4.43756C45.2057 4.38896 45.1085 4.38896 45.0113 4.38896C44.9627 4.38896 44.8655 4.43756 44.8169 4.48615C44.8655 4.43756 44.9141 4.34037 44.9627 4.34037C45.1085 4.29177 45.2057 4.29177 45.3028 4.34037C45.4 4.38896 45.4972 4.43756 45.5944 4.48615C45.7402 4.63194 45.9346 4.77773 45.9832 4.97211C45.9832 5.02071 45.9832 5.0693 45.9832 5.0693C46.0318 4.82632 45.8374 4.63194 45.643 4.48615C45.5458 4.43756 45.4486 4.34037 45.3514 4.29177C45.2542 4.24317 45.0599 4.19458 44.9141 4.29177C44.8655 4.29177 44.8655 4.34037 44.8169 4.34037C44.6711 4.43756 44.5739 4.63194 44.6225 4.82632C44.6225 5.0693 44.7197 5.26369 44.9141 5.45807C44.9627 5.50666 45.0113 5.55526 45.0599 5.60386C45.1085 5.65245 45.1571 5.70105 45.2057 5.74964C45.2543 5.89543 45.4 5.89543 45.4972 5.94403C45.5458 5.94403 45.5944 5.94403 45.643 5.94403C45.6916 5.94403 45.7402 5.89543 45.7888 5.89543C45.9832 5.84684 46.2748 5.65245 45.9832 5.31228C45.9832 5.36088 45.9832 5.40947 45.9346 5.40947C45.9346 5.36088 45.886 5.31228 45.886 5.31228C45.886 5.31228 45.8374 5.31228 45.8374 5.36088C45.8374 5.31228 45.8374 5.31228 45.7888 5.26369C45.7888 5.26369 45.7888 5.31228 45.7888 5.36088V5.45807C45.7888 5.36088 45.7402 5.31228 45.6916 5.21509C45.6916 5.21509 45.6916 5.21509 45.643 5.21509C45.643 5.16649 45.643 5.16649 45.5944 5.1179C45.5944 5.1179 45.5944 5.16649 45.5458 5.16649H45.4972C45.4972 5.1179 45.4972 5.1179 45.4486 5.02071C45.5458 5.02071 45.5458 5.02071 45.5458 4.97211C45.5458 5.02071 45.5458 5.02071 45.5458 4.97211Z" fill="#005268"/>
<path d="M46.0327 5.70074C45.9841 5.74934 45.9355 5.74934 45.9355 5.70074H46.0327Z" fill="#005268"/>
</g>
</svg>
