<svg width="37" height="36" viewBox="0 0 37 36" fill="none" xmlns="http://www.w3.org/2000/svg">
<path d="M29.4446 5.85737L6.41327 26.6313L8.98952 29.4875L32.0209 8.71357L29.4446 5.85737Z" fill="#F3A8A1"/>
<g opacity="0.7">
<path d="M12.5044 26.7105C12.8986 26.3661 13.2886 25.9927 13.6455 25.64C14.4089 24.889 15.1683 24.3911 15.9068 23.6483C16.8363 22.723 17.8653 21.9388 18.8446 20.9886C20.6454 19.2501 22.5043 17.4534 24.4088 15.7854C26.1972 14.1962 27.9025 12.6858 29.5871 11.1879C30.4751 10.3954 31.3589 9.6112 32.251 8.81453L32.3132 8.75644C32.3132 8.75644 32.3423 8.73984 32.3381 8.7274L32.3132 8.6942L32.2054 8.56972L31.9813 8.31661L31.6784 7.97637L31.1141 7.33738C30.7406 6.91 30.3631 6.48262 29.9813 6.05109C29.8112 5.86022 29.6369 5.6652 29.4627 5.47433C29.3506 5.56147 29.2344 5.66105 29.1224 5.76064L28.8652 5.98885C28.6079 6.21706 28.3465 6.44942 28.0809 6.68179C27.554 7.15481 27.0187 7.63198 26.4835 8.1133C25.4129 9.09254 24.3383 10.0759 23.3051 11.0178C21.7989 12.4078 18.7325 15.2003 17.4711 16.4244C19.1973 14.8186 21.0313 13.1506 22.7574 11.6112C19.023 15.0427 15.1434 18.6111 11.4463 22.0094C14.8944 18.8476 18.3549 15.6609 21.7823 12.578C23.4959 11.0386 25.2013 9.52407 26.8942 8.05106C27.7365 7.32493 28.5789 6.5988 29.4129 5.87682C29.4378 5.83118 29.4585 5.90171 29.4834 5.91416L29.5498 5.993L29.6784 6.14652L29.944 6.45772L30.4709 7.08427C30.8195 7.4992 31.168 7.91413 31.5124 8.32906C31.1016 7.85604 30.6784 7.37472 30.251 6.8851C30.0394 6.64029 29.8237 6.39548 29.6079 6.14652C29.4336 5.77723 29.2469 6.13823 28.9772 6.33739C27.9731 7.2212 26.9399 8.12575 25.8942 9.04689C23.803 10.8933 21.6495 12.8103 19.5126 14.7356C15.2347 18.582 11.0107 22.4575 7.35511 25.7769C7.08126 26.0259 6.78666 26.2914 6.5045 26.5487C6.47961 26.5819 6.41322 26.6109 6.42982 26.6358L6.5211 26.7354C6.58334 26.806 6.64558 26.8724 6.70367 26.9387C6.81985 27.0715 6.93603 27.196 7.04391 27.3122C6.8406 27.084 6.63313 26.8599 6.42982 26.6317C6.62068 26.4408 6.88209 26.2168 7.1103 26.0093C7.58332 25.5819 8.0605 25.1462 8.54182 24.7106C9.51276 23.8268 10.5044 22.9264 11.5086 22.0094C13.5376 20.1712 15.6288 18.2791 17.7408 16.3663C19.857 14.4659 21.9939 12.5614 24.0893 10.7149C25.1391 9.79377 26.1764 8.88507 27.193 7.99297C27.7034 7.54899 28.2096 7.10916 28.7075 6.67349C28.9315 6.47847 29.1556 6.28345 29.3755 6.09258C29.3921 6.08013 29.4129 6.05109 29.4295 6.05524L29.4793 6.11333L29.5788 6.22951L29.8983 6.59465L31.0601 7.93488L31.6162 8.57387L31.6784 8.64856C31.6784 8.64856 31.7033 8.67346 31.7033 8.6859L31.6659 8.7191L31.4419 8.90997C30.5456 9.69004 29.6452 10.466 28.7448 11.2502C26.944 12.8145 25.1349 14.3912 23.3258 15.997C22.3341 16.8601 21.3383 17.7314 20.3466 18.5986C18.3135 20.3828 16.2678 22.1836 14.2637 23.9969C12.4837 25.6068 9.29284 28.4532 8.87791 29.3578C9.45882 28.8516 10.0605 28.2499 10.6289 27.7769C10.4422 27.9885 10.2347 28.2333 10.0024 28.474C10.2347 28.2624 10.5044 28.0383 10.7078 27.8225C10.5418 28.001 10.3717 28.1835 10.3302 28.2748C10.6165 28.03 10.9775 27.6275 11.1849 27.4118C11.3053 27.2831 11.8447 26.6815 12.0231 26.5404C11.6248 26.9927 11.1102 27.5445 10.8115 27.9346C10.965 27.7976 11.1144 27.6566 11.2679 27.5279C11.1061 27.7188 10.7576 28.0549 10.6953 28.1752C11.0729 27.8267 11.3882 27.503 11.7866 27.1504C12.1061 26.864 12.3965 26.6068 12.6911 26.3163C12.3509 26.6732 11.8737 27.1338 11.6663 27.4076C11.8447 27.2665 12.0148 27.0964 12.1849 26.9346C12.1683 26.9595 12.16 26.9761 12.16 26.9844C12.2389 26.9138 12.3426 26.8267 12.4214 26.752C12.4297 26.7562 12.4546 26.752 12.4463 26.7686L12.438 26.7479" fill="#601D1F"/>
<path d="M11.4962 26.669C11.8737 26.3247 12.409 25.8433 12.77 25.5446L11.4962 26.669Z" fill="#601D1F"/>
</g>
<path d="M6.41137 26.6367L5.09882 27.8206L7.67506 30.6768L8.98762 29.4929L6.41137 26.6367Z" fill="#B1354E"/>
<g opacity="0.7">
<path d="M8.40495 30.4076C8.47549 30.3578 8.52528 30.2872 8.57092 30.2167C8.62071 30.142 8.69125 30.1088 8.77009 30.0673C8.86967 30.0092 8.9734 29.9387 9.04394 29.8391C9.11863 29.7188 9.23896 29.6275 9.34684 29.5238C9.28045 29.4117 9.20992 29.2872 9.09374 29.1669C8.97755 29.0673 8.85722 28.9636 8.73689 28.864C8.65391 28.7976 8.57092 28.7354 8.49208 28.669C8.33441 28.5362 8.18504 28.391 8.06471 28.2292C7.83234 27.9221 7.59168 27.6441 7.35932 27.362C7.24729 27.225 7.13526 27.0881 7.01078 26.9429C6.95684 26.8765 6.89875 26.8018 6.84066 26.7271C6.76597 26.64 6.64979 26.4865 6.55021 26.3827L6.45477 26.279L6.34689 26.3454C6.2722 26.391 6.19336 26.4284 6.11453 26.5072C5.9942 26.6151 5.87802 26.7147 5.77013 26.8101C5.59586 26.9678 5.42989 27.1338 5.27637 27.2956C5.24732 27.3246 5.21413 27.3578 5.18093 27.3952C5.13529 27.4408 5.0855 27.4906 5.03156 27.5404C4.94442 27.6192 4.87388 27.6981 4.79919 27.7769C4.85728 27.864 4.89878 27.9553 4.99421 28.0466L5.11454 28.1711L5.18093 28.2333C5.22242 28.2707 5.26392 28.308 5.30541 28.3495C5.38425 28.42 5.45894 28.4823 5.51703 28.5238C5.43819 28.4491 5.3718 28.3868 5.30956 28.3246L5.20583 28.2209C5.16433 28.1794 5.12699 28.1379 5.0855 28.0922C5.02326 28.0259 4.95687 27.9595 4.91952 27.8931L4.85314 27.7935C4.85314 27.7644 4.90293 27.7354 4.92367 27.7064C4.97761 27.6483 5.04815 27.5902 5.10624 27.5362L5.22242 27.4325L5.09795 27.557C5.03156 27.6192 4.97347 27.6773 4.91952 27.7396L4.87803 27.7852C4.87803 27.7852 4.89878 27.8184 4.91123 27.835L4.98176 27.9346C5.03156 27.9968 5.11039 28.0715 5.16018 28.1213C5.30541 28.2665 5.45479 28.4117 5.60416 28.5611C5.87802 28.8308 6.15602 29.1047 6.48382 29.4283C6.18921 29.1337 5.93611 28.8765 5.683 28.6275C5.55437 28.4906 5.42574 28.3578 5.29296 28.2209C5.21828 28.1379 5.13944 28.0549 5.0606 27.9678C5.01496 27.9138 4.98176 27.8599 4.94442 27.8059C4.95272 27.7561 5.02741 27.7105 5.0689 27.6649C5.14774 27.5943 5.23072 27.5238 5.31786 27.4491C5.3884 27.391 5.45894 27.3329 5.52947 27.2748C5.67055 27.1586 5.81578 27.0466 5.96515 26.9429C6.10623 26.8433 6.29295 26.7105 6.40913 26.6441C6.52531 26.8101 6.5834 26.9346 6.67468 27.0964C6.62074 27.0217 6.56265 26.947 6.50871 26.8682C6.45892 26.8184 6.40913 26.6649 6.33859 26.7686C6.17677 26.8931 6.01079 27.0217 5.84482 27.1462C5.6664 27.2914 5.48798 27.4367 5.31371 27.5777L5.17263 27.6981L5.09795 27.7644C5.0772 27.7852 5.02741 27.8101 5.0689 27.835C5.14359 27.9346 5.25147 28.0507 5.31786 28.1296C5.93196 28.8225 6.58755 29.474 7.13111 30.0549C7.1975 30.1254 7.28463 30.2208 7.37177 30.3163C6.84481 29.7312 6.19751 29.0922 5.59171 28.4034C5.43819 28.2292 5.29296 28.0632 5.13944 27.8765C5.12699 27.8557 5.08965 27.8308 5.09795 27.8101L5.16848 27.752L5.30126 27.6441C5.3884 27.5736 5.47968 27.503 5.56682 27.4325C5.74524 27.2997 5.92366 27.1628 6.10208 27.03C6.17262 26.9802 6.23901 26.9304 6.30955 26.8806L6.38423 26.835C6.40498 26.835 6.42158 26.8889 6.44232 26.9097C6.65394 27.2126 6.8614 27.5113 7.05642 27.7852C7.28048 28.1005 7.5087 28.4159 7.75766 28.7146C7.88629 28.8931 8.01076 29.0632 8.13524 29.2292L8.18504 29.2955C8.20163 29.3204 8.21823 29.3412 8.21823 29.337L8.23898 29.3536C8.23898 29.3536 8.25142 29.3744 8.25972 29.3868C8.27217 29.3993 8.24728 29.4034 8.23483 29.4117C8.22238 29.42 8.23068 29.4408 8.22653 29.4574C7.96097 29.7063 7.42156 30.1586 7.57924 30.5486C7.68297 30.4781 7.75351 30.3536 7.86139 30.2914C7.84894 30.3453 7.84064 30.4117 7.81575 30.4657C7.85309 30.4325 7.90288 30.4034 7.92363 30.3536C7.90703 30.3951 7.89458 30.4408 7.90703 30.4781C7.95682 30.4449 7.98587 30.3453 8.00661 30.2955C8.01906 30.2665 8.05641 30.1171 8.09375 30.1005C8.06885 30.2167 8.02321 30.3453 8.02321 30.4657C8.04811 30.4449 8.06885 30.42 8.0979 30.4034C8.0896 30.4574 8.04396 30.5196 8.05641 30.5652C8.1145 30.503 8.15184 30.4366 8.21408 30.3785C8.26387 30.3329 8.31366 30.2955 8.35101 30.2333C8.31366 30.3121 8.25142 30.4034 8.25557 30.4864C8.29292 30.4739 8.31366 30.4408 8.33856 30.4076C8.33856 30.4159 8.33856 30.4242 8.34686 30.4283C8.35931 30.4159 8.38005 30.4076 8.3925 30.3951C8.4008 30.4034 8.4091 30.4076 8.41325 30.4159L8.4008 30.3993" fill="#601D1F"/>
<path d="M7.84485 29.9635C7.90294 29.9054 7.99007 29.8266 8.06061 29.7934L7.84485 29.9635Z" fill="#601D1F"/>
</g>
<path d="M5.09801 27.8185L7.67473 30.6732C7.67473 30.6732 5.32622 32.6773 5.42581 35.2582C5.4341 35.4532 5.1893 35.5445 5.05652 35.4034L0.0607427 29.8682C-0.0554381 29.7396 0.0607427 29.5446 0.226715 29.5736C2.82004 29.9885 5.09386 27.8185 5.09386 27.8185H5.09801Z" fill="#2B6F81"/>
<g opacity="0.7">
<path d="M5.86117 29.1006C5.96905 29.2334 6.09768 29.3538 6.22631 29.4616C6.49601 29.6898 6.59144 30.001 6.86115 30.221C6.92339 30.2708 6.97733 30.3247 7.03127 30.3786C7.05617 30.4035 7.08936 30.4409 7.10181 30.4575L7.13915 30.5073L7.20554 30.6027L7.23874 30.6483L7.25533 30.6691C7.25533 30.6691 7.23874 30.6815 7.23044 30.6898C7.18065 30.7272 7.13915 30.7645 7.11011 30.8143L7.06447 30.8807L6.96903 31.0093L6.78231 31.2707C6.66198 31.4492 6.54165 31.6276 6.42962 31.8101C6.20556 32.1753 5.99394 32.5446 5.79478 32.9222C5.62465 33.25 5.48773 33.5861 5.39229 33.9304C5.3508 34.1047 5.29686 34.279 5.28026 34.4533L5.24292 34.7147C5.23047 34.8018 5.23462 34.8143 5.22632 34.8682L5.21387 35.0134C5.20557 35.0591 5.15163 35.0923 5.10184 35.084C5.00226 35.0508 4.96076 34.9512 4.90682 34.8848C4.67031 34.6026 4.42965 34.3122 4.16824 33.9968C3.60809 33.3205 2.9359 32.5819 2.2969 31.9222C1.82803 31.4367 0.902734 30.445 0.471206 30.0591C1.01477 30.6068 1.56662 31.2043 2.06869 31.777C1.49194 31.1753 0.906884 30.5612 0.32183 29.9471L0.213948 29.8309L0.164156 29.777C0.164156 29.777 0.151708 29.7604 0.147559 29.7562C0.135111 29.7272 0.164156 29.6733 0.209799 29.6733C0.38407 29.6774 0.62888 29.7147 0.832196 29.7023C1.25958 29.7023 1.67866 29.6235 2.07699 29.5239C1.70355 29.6152 1.31767 29.6981 0.923481 29.694C0.574939 29.7355 -0.0350107 29.5612 0.168306 29.8019C0.691119 30.362 1.20978 30.9222 1.716 31.4865C2.72013 32.6151 3.66618 33.7562 4.47944 34.918C3.44211 33.6358 2.22637 32.1794 0.969123 30.777C0.811449 30.6027 0.653776 30.4243 0.496102 30.25L0.259591 29.9886C0.189052 29.8973 0.0728715 29.8185 0.0770208 29.7396C0.0853194 29.5197 0.404817 29.6484 0.620581 29.6442C0.852943 29.6567 1.0853 29.6525 1.31352 29.6276C2.22637 29.5322 3.05208 29.1836 3.74916 28.777C3.96078 28.6525 4.19314 28.5073 4.35911 28.387C3.69937 28.8434 2.93175 29.2583 2.06039 29.4865C1.62472 29.5986 1.16829 29.6484 0.703567 29.6359L0.355025 29.6027C0.296934 29.6027 0.234695 29.5861 0.189052 29.5903C0.14341 29.5986 0.0977674 29.6276 0.0770208 29.6733C0.0230797 29.7687 0.114365 29.8517 0.193202 29.9388L0.425563 30.2002C1.67036 31.5902 2.87366 33.0425 3.92758 34.3661L4.28443 34.8143L4.46285 35.0383L4.70351 35.3329C4.79894 35.4532 4.90682 35.5777 5.00641 35.6317C5.09769 35.6898 5.19313 35.7395 5.3259 35.7147C5.45038 35.6939 5.57486 35.6068 5.62465 35.5155C5.66615 35.4118 5.69104 35.2748 5.72839 35.1545L5.74498 34.9097L5.75328 34.7935L5.76573 34.723L5.81552 34.4491C5.85702 34.2665 5.91096 34.0923 5.9649 33.9139C6.08938 33.5653 6.24705 33.2251 6.43377 32.8931C6.64954 32.5487 6.89019 32.2209 7.15575 31.9097C7.28438 31.7604 7.41716 31.6151 7.55408 31.4782L7.68271 31.3496L7.91093 31.1463C8.05615 31.0093 8.23872 30.8766 8.40884 30.7355C8.28851 30.5778 8.14744 30.4118 8.01051 30.25L7.63292 29.8226L7.1599 29.2957C6.62879 28.7148 5.70764 27.6567 5.21387 27.6982C5.37155 27.8973 5.59146 28.0716 5.73254 28.2708C5.6454 28.2251 5.54582 28.1753 5.45453 28.109C5.52507 28.1836 5.59146 28.2791 5.67445 28.3372C5.60806 28.2915 5.53337 28.2459 5.48358 28.25C5.55827 28.3496 5.72009 28.4409 5.80307 28.499C5.85287 28.5322 6.09353 28.6691 6.13087 28.7355C5.9483 28.6359 5.73254 28.499 5.56241 28.4368C5.60391 28.4865 5.6537 28.5363 5.69519 28.5903C5.61636 28.5529 5.49603 28.4451 5.43793 28.4451C5.55412 28.5654 5.67445 28.6567 5.79063 28.7894C5.88606 28.8932 5.9649 28.9928 6.07278 29.0799C5.94 28.9845 5.77403 28.8392 5.6537 28.7977C5.69519 28.8641 5.75328 28.9139 5.81137 28.9637C5.79893 28.9637 5.79063 28.9637 5.78648 28.9637C5.81137 28.9886 5.83627 29.026 5.86117 29.0509C5.85287 29.0592 5.85287 29.0716 5.84042 29.0716L5.85702 29.0592" fill="#601D1F"/>
<path d="M6.22656 28.4533C6.33859 28.5778 6.50042 28.7521 6.5834 28.8807L6.22656 28.4533Z" fill="#601D1F"/>
</g>
<path d="M36.5619 1.03865L33.9852 4.02615L34.1221 4.97635C34.2715 5.99293 33.9022 7.01781 33.1387 7.7066L32.0184 8.71903L29.4417 5.8643L35.6905 0.221233C35.8523 0.0760069 36.1055 0.0884548 36.2507 0.250278L36.5536 0.586373C36.6698 0.715001 36.6698 0.90587 36.5577 1.03865H36.5619Z" fill="#005268"/>
<g opacity="0.7">
<path d="M35.367 1.97641C35.2467 2.10504 35.1429 2.25026 35.0475 2.39134C34.8483 2.69009 34.5496 2.83117 34.3629 3.12992C34.2467 3.31664 34.0973 3.47431 33.9438 3.63198L33.782 3.80626C33.7322 3.8685 33.6492 3.92244 33.6824 4.01372C33.6865 4.16725 33.7322 4.37886 33.7529 4.46185C33.8027 4.66102 33.8525 4.86848 33.9023 5.0718C33.9479 5.26267 33.9687 5.46183 33.9645 5.66515C33.9604 6.06763 33.8525 6.47427 33.6409 6.81866C33.4459 7.14646 33.2011 7.41201 32.9106 7.65267C32.7654 7.77715 32.6202 7.90163 32.4791 8.02611L32.2633 8.21283C32.2301 8.23772 32.1803 8.28337 32.1679 8.29582L32.1098 8.33731C32.1098 8.33731 32.0724 8.36635 32.0559 8.3788C32.0393 8.3871 32.0227 8.42444 32.0061 8.39125C31.977 8.35391 31.9438 8.32071 31.9189 8.28337C31.9023 8.25847 31.9065 8.25847 31.8691 8.21698L31.7778 8.1091L31.5953 7.89333C31.3588 7.61533 31.1181 7.32902 30.8608 7.02198C30.5745 6.67758 30.2633 6.31659 29.9397 5.95975C29.8194 5.83527 29.8816 5.87676 29.8609 5.86432C29.8609 5.86432 29.8609 5.86017 29.8692 5.86432C30.0434 5.69834 30.2136 5.53237 30.3837 5.37055C30.8774 4.89338 31.8899 3.95148 32.2841 3.51165C31.7239 4.06766 31.114 4.62782 30.5372 5.13404C31.7488 3.97638 32.977 2.80212 34.2467 1.59052C33.1139 2.66519 31.9812 3.75231 30.8318 4.7772C30.5455 5.02615 30.2592 5.27511 29.9687 5.53237L29.753 5.71494L29.5953 5.83942L29.5746 5.85602C29.5746 5.85602 29.5829 5.86847 29.587 5.87261L29.6161 5.90996L29.6783 5.9888L29.8484 6.19626C30.3214 6.77717 30.7696 7.36222 31.1845 7.95557C30.6534 7.30413 30.0849 6.60704 29.4791 5.89336C29.4044 5.84772 29.504 5.81038 29.5372 5.77303L29.67 5.661L29.9397 5.43279L30.4791 4.96806C30.8401 4.64857 31.2011 4.33322 31.5579 4.01787C32.9894 2.73988 34.3753 1.4204 35.5911 0.304234C35.6782 0.221248 35.7819 0.117515 35.9189 0.109217C36.0475 0.0926194 36.1761 0.146561 36.2508 0.221248C36.1014 0.0677235 35.8234 0.0677235 35.6741 0.229547C35.5122 0.378922 35.3546 0.524148 35.201 0.665225C34.8649 0.976424 34.5371 1.27932 34.2176 1.57392C33.5496 2.19217 32.8525 2.83117 32.143 3.46601C31.4335 4.09671 30.7115 4.72325 29.9978 5.32491C29.8069 5.48258 29.6202 5.6444 29.4335 5.80208C29.4169 5.82697 29.3588 5.84772 29.3795 5.87261L29.4418 5.9473L29.5746 6.10498L29.7945 6.37468C30.0808 6.72737 30.3588 7.07177 30.6285 7.40371C30.8774 7.71491 31.1223 8.02196 31.3712 8.33316L31.5579 8.56967C31.6617 8.69 31.7654 8.82693 31.8733 8.93481L31.9563 9.02194L31.9978 9.06344L32.0185 9.08418C32.0185 9.08418 32.0351 9.07174 32.0393 9.06759L32.2218 8.92236L32.5704 8.63191C32.8857 8.37465 33.1803 8.14644 33.5123 7.86014C33.8442 7.55724 34.1139 7.1838 34.2965 6.76472C34.5122 6.31659 34.6243 5.81038 34.6243 5.30416C34.6243 5.17553 34.616 5.04275 34.6035 4.91412L34.5662 4.57803L34.5288 4.24608C34.5288 4.24608 34.5164 4.21704 34.5288 4.20459C34.7903 3.90584 35.0475 3.61124 35.3131 3.31249C35.8317 2.70254 36.7819 1.63616 36.6823 1.15069C36.5039 1.33741 36.3504 1.57807 36.1678 1.7482C36.2052 1.65691 36.2425 1.54903 36.2965 1.44945C36.2301 1.52828 36.1429 1.61127 36.0973 1.6984C36.1346 1.62372 36.172 1.54488 36.1637 1.49509C36.0724 1.58637 35.9977 1.75649 35.9521 1.84778C35.923 1.90172 35.8151 2.15898 35.7529 2.20877C35.8317 2.01375 35.9438 1.78139 35.9853 1.59882C35.9396 1.64861 35.8981 1.7067 35.8483 1.7482C35.8774 1.66521 35.9728 1.53243 35.9645 1.47019C35.8566 1.60297 35.7778 1.73575 35.6616 1.86853C35.5662 1.97641 35.479 2.07184 35.4043 2.18802C35.4873 2.0428 35.6118 1.85608 35.6367 1.7316C35.5786 1.78139 35.533 1.84778 35.4873 1.91002C35.4873 1.89757 35.4873 1.88927 35.4832 1.88512C35.4624 1.91417 35.4251 1.94321 35.4043 1.97226C35.3961 1.96811 35.3836 1.96811 35.3795 1.95566L35.396 1.97226" fill="#601D1F"/>
<path d="M36.0558 2.25443C35.9479 2.38305 35.7903 2.56977 35.6699 2.66936L36.0558 2.25443Z" fill="#601D1F"/>
</g>
<path d="M26.3134 9.54058C26.4213 9.66091 26.8652 9.43685 27.3051 9.04266C27.7449 8.64848 28.0105 8.22525 27.9026 8.10492C27.7947 7.98459 27.3507 8.20865 26.9109 8.60283C26.4711 8.99702 26.2055 9.42025 26.3134 9.54058Z" fill="#4C0003"/>
<g opacity="0.7">
<path d="M26.7079 9.79373C26.7535 9.78543 26.7867 9.75223 26.8116 9.71489C26.8614 9.63605 26.99 9.72319 27.0273 9.6319C27.073 9.52402 27.2099 9.55722 27.2597 9.46178C27.351 9.28336 27.4215 9.10079 27.5709 9.00536C27.712 8.90992 27.824 8.79374 27.9319 8.66926C27.9858 8.60287 28.0356 8.53649 28.0896 8.45765C28.1145 8.41615 28.1394 8.37051 28.1643 8.31242C28.1809 8.24603 28.2182 8.18379 28.1809 8.03857C28.156 7.95558 28.0896 7.86845 28.0066 7.82695C27.9277 7.78961 27.8655 7.78131 27.8116 7.77716C27.712 7.77716 27.6414 7.79376 27.5792 7.8145C27.4547 7.86015 27.3634 7.92239 27.2805 7.99293C27.156 8.08836 26.9361 8.28338 26.8863 8.41615C26.9859 8.27923 27.1228 8.1672 27.268 8.08836C26.99 8.32487 26.7493 8.60287 26.5626 8.89333C26.741 8.62777 26.9527 8.37466 27.2224 8.20039C27.3593 8.11326 27.5087 8.04687 27.6746 8.03027C27.7535 8.02612 27.8655 8.03027 27.9029 8.10911C27.9194 8.18379 27.8531 8.22944 27.795 8.26678C27.8406 8.20869 27.878 8.15475 27.8531 8.134C27.8074 8.09666 27.6954 8.10911 27.6083 8.134C27.4257 8.18379 27.2514 8.27923 27.0937 8.39541C26.7825 8.62777 26.5419 8.94727 26.3884 9.23357C26.3635 9.27921 26.3427 9.329 26.3303 9.36635C26.4589 9.07175 26.6913 8.7564 26.9859 8.51574C27.1352 8.39541 27.3012 8.29583 27.4796 8.23359C27.5668 8.20454 27.658 8.18379 27.741 8.18379C27.7784 8.18379 27.8199 8.19209 27.8323 8.20454C27.8323 8.22944 27.8489 8.1672 27.8489 8.17135C27.8531 8.17135 27.8365 8.17964 27.7991 8.18379C27.7327 8.18379 27.7286 8.23773 27.6663 8.27923C27.6165 8.32072 27.5585 8.36636 27.5004 8.40786C27.3842 8.49084 27.2556 8.56968 27.1394 8.65681C27.0564 8.69831 26.99 8.7315 26.9236 8.76885C26.7784 8.83938 26.6332 8.90992 26.5211 8.98046C26.4713 9.01366 26.4008 9.0427 26.3842 9.09249C26.3801 9.11324 26.3842 9.0842 26.4008 9.20453C26.4174 9.27506 26.4132 9.3539 26.4132 9.39124C26.4049 9.44518 26.4049 9.45763 26.3925 9.47838C26.3925 9.48668 26.3884 9.49083 26.3842 9.49498C26.3925 9.49498 26.4091 9.45348 26.4132 9.41614C26.4132 9.41199 26.4298 9.40784 26.4423 9.41614C26.4381 9.44933 26.4298 9.49498 26.4091 9.51987C26.4215 9.51987 26.4464 9.52817 26.4589 9.50328C26.4506 9.52817 26.4381 9.54892 26.434 9.59041C26.463 9.59871 26.4879 9.53647 26.4962 9.51157C26.5045 9.49498 26.5211 9.39954 26.5377 9.40784C26.5294 9.48668 26.5087 9.56137 26.4879 9.65265C26.5045 9.65265 26.517 9.64435 26.5336 9.6485C26.5211 9.68585 26.4879 9.71074 26.4796 9.75638C26.5294 9.73979 26.5585 9.70659 26.5958 9.69414C26.629 9.68585 26.6581 9.67755 26.6788 9.64435C26.6581 9.68999 26.6207 9.73149 26.6083 9.80203C26.6332 9.81032 26.6498 9.79373 26.6664 9.77713C26.6664 9.78543 26.6664 9.78958 26.6664 9.79788C26.6747 9.79373 26.6871 9.79788 26.6954 9.78958C26.6954 9.79788 26.7037 9.80618 26.7079 9.81862L26.6995 9.79788" fill="#601D1F"/>
<path d="M26.4176 9.15052C26.4176 9.15052 26.4591 9.12977 26.4881 9.14222L26.4176 9.15052Z" fill="#601D1F"/>
</g>
<path d="M22.8113 12.6983C22.9192 12.8186 23.3632 12.5946 23.803 12.2004C24.2428 11.8062 24.5084 11.383 24.4005 11.2626C24.2926 11.1423 23.8486 11.3664 23.4088 11.7605C22.969 12.1547 22.7034 12.578 22.8113 12.6983Z" fill="#4C0003"/>
<g opacity="0.7">
<path d="M23.2056 12.9556C23.2512 12.9473 23.2844 12.9141 23.3093 12.8768C23.3591 12.7979 23.4877 12.8851 23.5251 12.7938C23.5707 12.6859 23.7077 12.7191 23.7574 12.6236C23.8487 12.4452 23.9193 12.2627 24.0686 12.1672C24.2097 12.0718 24.3218 11.9556 24.4296 11.8311C24.4836 11.7647 24.5334 11.6984 24.5873 11.6195C24.6122 11.578 24.6371 11.5324 24.662 11.4743C24.6786 11.4079 24.7159 11.3457 24.6786 11.2004C24.6537 11.1174 24.5832 11.0303 24.5043 10.9888C24.4255 10.9515 24.3632 10.9432 24.3093 10.939C24.2097 10.939 24.1392 10.9556 24.0769 10.9764C23.9525 11.022 23.8612 11.0843 23.7782 11.1548C23.6537 11.2502 23.4338 11.4452 23.384 11.578C23.4836 11.4411 23.6205 11.3291 23.7657 11.2502C23.4877 11.4867 23.2471 11.7647 23.0604 12.0552C23.2388 11.7896 23.4504 11.5365 23.7201 11.3623C23.857 11.2751 24.0064 11.2087 24.1724 11.1921C24.2512 11.188 24.3632 11.1921 24.4006 11.271C24.4172 11.3457 24.3508 11.3913 24.2927 11.4286C24.3384 11.3706 24.3757 11.3166 24.3508 11.2959C24.3052 11.2585 24.1931 11.271 24.106 11.2959C23.9234 11.3457 23.7492 11.4411 23.5915 11.5573C23.2803 11.7896 23.0396 12.1091 22.8861 12.3954C22.8612 12.4411 22.8405 12.4909 22.828 12.5282C22.9566 12.2336 23.189 11.9183 23.4836 11.6776C23.633 11.5573 23.7989 11.4577 23.9774 11.3955C24.0645 11.3664 24.1558 11.3457 24.2388 11.3457C24.2761 11.3457 24.3176 11.354 24.3301 11.3664C24.3301 11.3913 24.3467 11.3291 24.3467 11.3332C24.3508 11.3332 24.3342 11.3415 24.2969 11.3457C24.2305 11.3457 24.2263 11.3996 24.1641 11.4411C24.1143 11.4826 24.0562 11.5282 23.9981 11.5697C23.8819 11.6527 23.7533 11.7315 23.6371 11.8187C23.5541 11.8602 23.4877 11.8934 23.4214 11.9307C23.2761 12.0013 23.1309 12.0718 23.0189 12.1423C22.9691 12.1755 22.8985 12.2046 22.8819 12.2544C22.8778 12.2751 22.8819 12.2461 22.8985 12.3705C22.9151 12.4411 22.911 12.5199 22.911 12.5573C22.9027 12.6112 22.9027 12.6236 22.8902 12.6444C22.8902 12.6527 22.8861 12.6568 22.8819 12.6568C22.8902 12.6568 22.9068 12.6153 22.911 12.578C22.911 12.5739 22.9276 12.5697 22.94 12.578C22.9359 12.6112 22.9276 12.6568 22.9068 12.6817C22.9193 12.6817 22.9442 12.69 22.9566 12.6651C22.9483 12.69 22.9359 12.7108 22.9317 12.7523C22.9608 12.7606 22.9857 12.6983 22.994 12.6734C23.0023 12.6568 23.0189 12.5614 23.0355 12.5697C23.0272 12.6485 23.0064 12.7232 22.9857 12.8145C23.0023 12.8145 23.0147 12.8062 23.0313 12.8104C23.0189 12.8477 22.9857 12.8726 22.9774 12.9182C23.0272 12.9017 23.0562 12.8685 23.0936 12.856C23.1268 12.8477 23.1558 12.8394 23.1765 12.8062C23.1558 12.8519 23.1185 12.8934 23.106 12.9639C23.1309 12.9722 23.1475 12.9556 23.1641 12.939C23.1641 12.9473 23.1641 12.9514 23.1641 12.9597C23.1724 12.9556 23.1848 12.9597 23.1931 12.9514C23.1931 12.9597 23.2014 12.968 23.2056 12.9805L23.1973 12.9597" fill="#601D1F"/>
<path d="M22.915 12.3124C22.915 12.3124 22.9565 12.2916 22.9855 12.3041L22.915 12.3124Z" fill="#601D1F"/>
</g>
<path d="M19.3094 15.8559C19.4172 15.9762 19.8612 15.7522 20.301 15.358C20.7409 14.9638 21.0064 14.5406 20.8985 14.4203C20.7907 14.2999 20.3467 14.524 19.9069 14.9182C19.467 15.3124 19.2015 15.7356 19.3094 15.8559Z" fill="#4C0003"/>
<g opacity="0.7">
<path d="M19.7039 16.1132C19.7495 16.1049 19.7827 16.0718 19.8076 16.0344C19.8574 15.9556 19.986 16.0427 20.0234 15.9514C20.069 15.8435 20.2059 15.8767 20.2557 15.7813C20.347 15.6029 20.4176 15.4203 20.5669 15.3249C20.708 15.2294 20.82 15.1133 20.9279 14.9888C20.9819 14.9224 21.0317 14.856 21.0856 14.7772C21.1105 14.7357 21.1354 14.69 21.1603 14.6319C21.1769 14.5656 21.2142 14.5033 21.1769 14.3581C21.152 14.2751 21.0815 14.188 21.0026 14.1465C20.9238 14.1091 20.8615 14.1008 20.8076 14.0967C20.708 14.0967 20.6375 14.1133 20.5752 14.1382C20.4508 14.1838 20.3595 14.2461 20.2765 14.3166C20.152 14.412 19.9321 14.607 19.8823 14.7398C19.9819 14.6029 20.1188 14.4909 20.264 14.412C19.986 14.6485 19.7454 14.9265 19.5587 15.217C19.7371 14.9514 19.9487 14.6983 20.2184 14.5241C20.3553 14.4369 20.5047 14.3705 20.6707 14.3539C20.7495 14.3498 20.8615 14.3539 20.8989 14.4328C20.9155 14.5075 20.8491 14.5531 20.791 14.5904C20.8366 14.5324 20.874 14.4784 20.8491 14.4577C20.8034 14.4203 20.6914 14.4328 20.6043 14.4577C20.4217 14.5075 20.2474 14.6029 20.0898 14.7191C19.7786 14.9514 19.5379 15.2709 19.3844 15.5572C19.3595 15.6029 19.3387 15.6527 19.3263 15.69C19.4549 15.3954 19.6873 15.0801 19.9819 14.8394C20.1313 14.7191 20.2972 14.6195 20.4757 14.5573C20.5628 14.5282 20.6541 14.5075 20.7371 14.5075C20.7744 14.5075 20.8159 14.5158 20.8283 14.5282C20.8283 14.5531 20.8449 14.4909 20.8449 14.495C20.8491 14.4909 20.8325 14.5033 20.7951 14.5075C20.7288 14.5075 20.7246 14.5614 20.6624 14.6029C20.6126 14.6444 20.5545 14.69 20.4964 14.7315C20.3802 14.8145 20.2516 14.8933 20.1354 14.9805C20.0524 15.022 19.986 15.0552 19.9196 15.0925C19.7744 15.1631 19.6292 15.2336 19.5172 15.3041C19.4674 15.3373 19.3968 15.3664 19.3802 15.4162C19.3761 15.4369 19.3802 15.4079 19.3968 15.5323C19.4134 15.6029 19.4093 15.6817 19.4093 15.7191C19.401 15.773 19.401 15.7855 19.3885 15.8062C19.3885 15.8145 19.3844 15.8186 19.3802 15.8186C19.3885 15.8186 19.4051 15.7772 19.4093 15.7398C19.4093 15.7357 19.4259 15.7315 19.4383 15.7398C19.4342 15.773 19.4259 15.8186 19.4051 15.8435C19.4176 15.8435 19.4425 15.8518 19.4549 15.8269C19.4466 15.8518 19.4342 15.8726 19.43 15.9141C19.4591 15.9224 19.484 15.8601 19.4923 15.8352C19.5006 15.8186 19.5172 15.7232 19.5338 15.7315C19.5255 15.8103 19.5047 15.885 19.484 15.9763C19.5006 15.9763 19.513 15.968 19.5296 15.9722C19.5172 16.0095 19.484 16.0344 19.4757 16.0801C19.5255 16.0635 19.5545 16.0303 19.5918 16.0178C19.625 16.0095 19.6541 16.0012 19.6748 15.968C19.6541 16.0137 19.6167 16.0552 19.6043 16.1257C19.6292 16.134 19.6458 16.1174 19.6624 16.1008C19.6624 16.1091 19.6624 16.1132 19.6624 16.1215C19.6707 16.1174 19.6831 16.1215 19.6914 16.1132C19.6914 16.1215 19.6997 16.1298 19.7039 16.1423L19.6956 16.1215" fill="#601D1F"/>
<path d="M19.4133 15.47C19.4133 15.47 19.4548 15.4493 19.4838 15.4617L19.4133 15.47Z" fill="#601D1F"/>
</g>
<path d="M15.8069 19.0177C15.9148 19.138 16.3588 18.914 16.7986 18.5198C17.2384 18.1256 17.504 17.7024 17.3961 17.582C17.2882 17.4617 16.8442 17.6858 16.4044 18.0799C15.9646 18.4741 15.699 18.8974 15.8069 19.0177Z" fill="#4C0003"/>
<g opacity="0.7">
<path d="M16.197 19.2709C16.2426 19.2626 16.2758 19.2294 16.3007 19.1921C16.3505 19.1132 16.4791 19.2004 16.5165 19.1091C16.5621 19.0012 16.6991 19.0344 16.7488 18.939C16.8401 18.7605 16.9107 18.578 17.06 18.4825C17.2011 18.3871 17.3132 18.2709 17.421 18.1464C17.475 18.08 17.5248 18.0137 17.5787 17.9348C17.6036 17.8933 17.6285 17.8477 17.6534 17.7896C17.67 17.7232 17.7073 17.661 17.67 17.5157C17.6451 17.4328 17.5787 17.3456 17.4957 17.3041C17.4169 17.2668 17.3546 17.2585 17.3007 17.2543C17.2011 17.2543 17.1306 17.2709 17.0683 17.2958C16.9439 17.3415 16.8526 17.4037 16.7696 17.4742C16.6451 17.5697 16.4252 17.7647 16.3754 17.8975C16.475 17.7606 16.6119 17.6485 16.7571 17.5697C16.4791 17.8062 16.2385 18.0842 16.0518 18.3746C16.2302 18.1091 16.4418 17.856 16.7115 17.6817C16.8484 17.5946 16.9978 17.5282 17.1638 17.5116C17.2426 17.5074 17.3546 17.5116 17.392 17.5904C17.4086 17.6651 17.3422 17.7108 17.2841 17.7481C17.3297 17.69 17.3671 17.6361 17.3422 17.6153C17.2966 17.578 17.1845 17.5904 17.0974 17.6153C16.9148 17.6651 16.7405 17.7605 16.5829 17.8767C16.2717 18.1091 16.031 18.4286 15.8775 18.7149C15.8526 18.7605 15.8318 18.8103 15.8194 18.8477C15.948 18.5531 16.1804 18.2377 16.475 17.9971C16.6244 17.8767 16.7903 17.7771 16.9688 17.7149C17.0559 17.6859 17.1472 17.6651 17.2302 17.6651C17.2675 17.6651 17.309 17.6734 17.3214 17.6859C17.3214 17.7108 17.338 17.6485 17.338 17.6527C17.3422 17.6527 17.3256 17.661 17.2883 17.6651C17.2219 17.6651 17.2177 17.7191 17.1555 17.7606C17.1057 17.802 17.0476 17.8477 16.9895 17.8892C16.8733 17.9722 16.7447 18.051 16.6285 18.1381C16.5455 18.1796 16.4791 18.2128 16.4127 18.2502C16.2675 18.3207 16.1223 18.3912 16.0103 18.4618C15.9605 18.495 15.8899 18.524 15.8733 18.5738C15.8692 18.5946 15.8733 18.5655 15.8899 18.6858C15.9065 18.7564 15.9024 18.8352 15.9024 18.8726C15.8941 18.9265 15.8941 18.939 15.8816 18.9597C15.8816 18.968 15.8775 18.9722 15.8733 18.9722C15.8816 18.9722 15.8982 18.9307 15.9024 18.8933C15.9024 18.8892 15.919 18.885 15.9314 18.8933C15.9273 18.9265 15.919 18.9722 15.8982 18.997C15.9107 18.997 15.9356 19.0053 15.948 18.9804C15.9397 19.0053 15.9273 19.0261 15.9231 19.0676C15.9522 19.0759 15.9771 19.0136 15.9854 18.9887C15.9937 18.9721 16.0103 18.8767 16.0269 18.885C16.0186 18.9639 15.9978 19.0385 15.9771 19.1298C15.9937 19.1298 16.0061 19.1215 16.0227 19.1257C16.0144 19.163 15.9771 19.1879 15.9688 19.2336C16.0186 19.217 16.0476 19.1838 16.085 19.1713C16.1181 19.163 16.1472 19.1547 16.1679 19.1215C16.1472 19.1672 16.1098 19.2087 16.0974 19.2792C16.1223 19.2875 16.1389 19.2709 16.1555 19.2543C16.1555 19.2626 16.1555 19.2668 16.1555 19.2751C16.1638 19.2709 16.1762 19.2751 16.1845 19.2668C16.1845 19.2751 16.1928 19.2833 16.197 19.2958L16.1887 19.2751" fill="#601D1F"/>
<path d="M15.9105 18.6319C15.9105 18.6319 15.952 18.6111 15.981 18.6236L15.9105 18.6319Z" fill="#601D1F"/>
</g>
<path d="M12.3053 22.1753C12.4132 22.2956 12.8572 22.0716 13.297 21.6774C13.7368 21.2832 14.0024 20.86 13.8945 20.7396C13.7866 20.6193 13.3427 20.8434 12.9028 21.2375C12.463 21.6317 12.1974 22.055 12.3053 22.1753Z" fill="#4C0003"/>
<g opacity="0.7">
<path d="M12.6952 22.4325C12.7409 22.4242 12.7741 22.391 12.7989 22.3537C12.8487 22.2748 12.9774 22.362 13.0147 22.2707C13.0604 22.1628 13.1973 22.196 13.2471 22.1005C13.3384 21.9221 13.4089 21.7396 13.5583 21.6441C13.6993 21.5487 13.8114 21.4325 13.9193 21.308C13.9732 21.2416 14.023 21.1752 14.0769 21.0964C14.1018 21.0549 14.1267 21.0093 14.1516 20.9512C14.1682 20.8848 14.2056 20.8226 14.1682 20.6773C14.1433 20.5943 14.0728 20.5072 13.9939 20.4657C13.9151 20.4284 13.8529 20.4201 13.7989 20.4159C13.6993 20.4159 13.6288 20.4325 13.5666 20.4574C13.4421 20.5031 13.3508 20.5653 13.2678 20.6358C13.1433 20.7313 12.9234 20.9263 12.8736 21.0591C12.9732 20.9221 13.1101 20.8101 13.2554 20.7313C12.9774 20.9678 12.7367 21.2458 12.55 21.5362C12.7284 21.2707 12.94 21.0176 13.2097 20.8433C13.3467 20.7562 13.496 20.6898 13.662 20.6732C13.7408 20.669 13.8529 20.6732 13.8902 20.752C13.9068 20.8267 13.8404 20.8723 13.7823 20.9097C13.828 20.8516 13.8653 20.7977 13.8404 20.7769C13.7948 20.7396 13.6828 20.752 13.5956 20.7769C13.413 20.8267 13.2388 20.9221 13.0811 21.0383C12.7699 21.2707 12.5292 21.5902 12.3757 21.8765C12.3508 21.9221 12.3301 21.9719 12.3176 22.0093C12.4463 21.7147 12.6786 21.3993 12.9732 21.1587C13.1226 21.0383 13.2886 20.9387 13.467 20.8765C13.5541 20.8475 13.6454 20.8267 13.7284 20.8267C13.7657 20.8267 13.8072 20.835 13.8197 20.8475C13.8197 20.8723 13.8363 20.8101 13.8363 20.8143C13.8404 20.8143 13.8238 20.8226 13.7865 20.8267C13.7201 20.8267 13.7159 20.8806 13.6537 20.9221C13.6039 20.9636 13.5458 21.0093 13.4877 21.0508C13.3716 21.1338 13.2429 21.2126 13.1267 21.2997C13.0438 21.3412 12.9774 21.3744 12.911 21.4118C12.7658 21.4823 12.6205 21.5528 12.5085 21.6234C12.4587 21.6566 12.3882 21.6856 12.3716 21.7354C12.3674 21.7562 12.3716 21.7271 12.3882 21.8516C12.4048 21.9221 12.4006 22.001 12.4006 22.0383C12.3923 22.0922 12.3923 22.1047 12.3799 22.1254C12.3799 22.1337 12.3757 22.1379 12.3716 22.142C12.3799 22.142 12.3965 22.1005 12.4006 22.0632C12.4006 22.0591 12.4172 22.0549 12.4297 22.0632C12.4255 22.0964 12.4172 22.142 12.3965 22.1669C12.4089 22.1669 12.4338 22.1752 12.4463 22.1503C12.438 22.1752 12.4255 22.196 12.4214 22.2375C12.4504 22.2458 12.4753 22.1835 12.4836 22.1586C12.4919 22.142 12.5085 22.0466 12.5251 22.0549C12.5168 22.1337 12.496 22.2084 12.4753 22.2997C12.4919 22.2997 12.5043 22.2914 12.5209 22.2956C12.5085 22.3329 12.4753 22.3578 12.467 22.4034C12.5168 22.3868 12.5458 22.3537 12.5832 22.3412C12.6164 22.3329 12.6454 22.3246 12.6662 22.2914C12.6454 22.3371 12.6081 22.3785 12.5956 22.4491C12.6205 22.4574 12.6371 22.4408 12.6537 22.4242C12.6537 22.4325 12.6537 22.4366 12.6537 22.4449C12.662 22.4408 12.6745 22.4449 12.6828 22.4366C12.6828 22.4449 12.6911 22.4532 12.6952 22.4657L12.6869 22.4449" fill="#601D1F"/>
<path d="M12.4046 21.7893C12.4046 21.7893 12.4461 21.7685 12.4751 21.781L12.4046 21.7893Z" fill="#601D1F"/>
</g>
<path d="M8.7991 25.337C8.90698 25.4573 9.35096 25.2332 9.79078 24.839C10.2306 24.4449 10.4962 24.0216 10.3883 23.9013C10.2804 23.781 9.83643 24.005 9.3966 24.3992C8.95677 24.7934 8.69122 25.2166 8.7991 25.337Z" fill="#4C0003"/>
<g opacity="0.7">
<path d="M9.19393 25.5901C9.23958 25.5818 9.27277 25.5486 9.29767 25.5113C9.34746 25.4324 9.47609 25.5196 9.51343 25.4283C9.55907 25.3204 9.696 25.3536 9.74579 25.2582C9.83708 25.0797 9.90761 24.8972 10.057 24.8017C10.1981 24.7063 10.3101 24.5901 10.418 24.4656C10.4719 24.3993 10.5217 24.3329 10.5757 24.254C10.6006 24.2125 10.6254 24.1669 10.6503 24.1088C10.6669 24.0424 10.7043 23.9802 10.6669 23.835C10.642 23.752 10.5757 23.6648 10.4927 23.6233C10.4138 23.586 10.3516 23.5777 10.2977 23.5735C10.1981 23.5735 10.1275 23.5901 10.0653 23.6109C9.94081 23.6565 9.84952 23.7188 9.76654 23.7893C9.64206 23.8847 9.42215 24.0798 9.37235 24.2125C9.47194 24.0756 9.60886 23.9636 9.75409 23.8847C9.47609 24.1213 9.23543 24.3993 9.04871 24.6897C9.22713 24.4242 9.43874 24.171 9.70845 23.9968C9.84538 23.9096 9.99475 23.8433 10.1607 23.8267C10.2396 23.8225 10.3516 23.8267 10.3889 23.9055C10.4055 23.9802 10.3391 24.0258 10.2811 24.0632C10.3267 24.0051 10.364 23.9511 10.3391 23.9304C10.2935 23.893 10.1815 23.9055 10.0943 23.9304C9.91176 23.9802 9.73749 24.0756 9.57982 24.1918C9.26862 24.4242 9.02796 24.7437 8.87444 25.03C8.84954 25.0756 8.82879 25.1254 8.81635 25.1627C8.94497 24.8681 9.17734 24.5528 9.47194 24.3121C9.62131 24.1918 9.78728 24.0922 9.96571 24.03C10.0528 24.0009 10.1441 23.9802 10.2271 23.9802C10.2645 23.9802 10.3059 23.9885 10.3184 24.0009C10.3184 24.0258 10.335 23.9636 10.335 23.9677C10.3391 23.9677 10.3225 23.976 10.2852 23.9802C10.2188 23.9802 10.2147 24.0341 10.1524 24.0756C10.1026 24.1171 10.0445 24.1627 9.98645 24.2042C9.87027 24.2872 9.74164 24.3661 9.62546 24.4532C9.54248 24.4947 9.47609 24.5279 9.4097 24.5652C9.26447 24.6358 9.11924 24.7063 9.00721 24.7768C8.95742 24.81 8.88688 24.8391 8.87029 24.8889C8.86614 24.9096 8.87029 24.8806 8.88688 25.0051C8.90348 25.0756 8.89933 25.1544 8.89933 25.1918C8.89103 25.2457 8.89103 25.2582 8.87858 25.2789C8.87858 25.2872 8.87444 25.2914 8.87029 25.2914C8.87858 25.2914 8.89518 25.2499 8.89933 25.2125C8.89933 25.2084 8.91593 25.2042 8.92838 25.2125C8.92423 25.2457 8.91593 25.2914 8.89518 25.3121C8.90763 25.3121 8.93253 25.3204 8.94497 25.2955C8.93668 25.3204 8.92423 25.3412 8.92008 25.3826C8.94912 25.3909 8.97402 25.3287 8.98232 25.3038C8.99062 25.2872 9.00721 25.1918 9.02381 25.2001C9.01551 25.2789 8.99477 25.3536 8.97402 25.4449C8.99062 25.4449 9.00306 25.4366 9.01966 25.4407C9.00721 25.4781 8.97402 25.503 8.96572 25.5486C9.01551 25.532 9.04456 25.4988 9.0819 25.4864C9.1151 25.4781 9.14414 25.4698 9.16489 25.4366C9.14414 25.4822 9.1068 25.5237 9.09435 25.5943C9.11925 25.6026 9.13584 25.586 9.15244 25.5694C9.15244 25.5777 9.15244 25.5818 9.15244 25.5901C9.16074 25.586 9.17319 25.5901 9.18148 25.5818C9.18148 25.5901 9.18978 25.5984 9.19393 25.6109L9.18563 25.5901" fill="#601D1F"/>
<path d="M8.90308 24.9511C8.90308 24.9511 8.94457 24.9303 8.97361 24.9428L8.90308 24.9511Z" fill="#601D1F"/>
</g>
<g opacity="0.4">
<path d="M34.0271 4.3125L34.1226 4.97224C34.2719 5.98882 33.9026 7.0137 33.1392 7.70249L32.0189 8.71492L8.98601 29.4905L7.67068 30.6772C7.67068 30.6772 5.33876 32.6689 5.42175 35.2415C5.43005 35.4448 5.17694 35.5402 5.04001 35.3909L2.58777 32.6731L34.0271 4.3125Z" fill="#FDEFED"/>
<g opacity="0.7">
<path d="M31.4047 8.87259C30.8985 9.32071 30.3964 9.79374 29.9317 10.2419C28.94 11.2004 27.9898 11.8725 27.0272 12.8144C25.8197 13.9928 24.5127 15.026 23.243 16.2335C20.907 18.4534 18.5004 20.7438 16.0523 22.9014C13.0896 25.5404 10.3138 28.0175 7.52127 30.503L7.83662 30.5196L7.52542 30.4988C6.87397 31.088 6.33871 31.7561 5.90304 32.5154C5.69557 32.8971 5.50885 33.2955 5.38022 33.7228C5.32213 33.9344 5.25989 34.1502 5.2267 34.3701L5.18105 34.7021C5.16861 34.7975 5.17276 34.8431 5.16861 34.9178C5.16446 34.9469 5.16861 34.9718 5.15616 34.9967C5.14371 35.0216 5.11052 35.0299 5.08562 35.0216C5.05658 35.0133 5.04413 34.9842 5.02753 34.9676C5.00263 34.9386 5.02338 34.9552 4.9321 34.8556C4.35949 34.2083 3.76614 33.5444 3.16449 32.8681L3.05246 32.7394C3.02756 32.7104 3.03171 32.7145 3.02756 32.7104V32.7021C3.02756 32.7021 3.00266 32.6814 3.02341 32.6731L3.04001 32.6606L3.15619 32.5569L3.41345 32.3245C3.75784 32.0175 4.10223 31.7063 4.44663 31.3951C5.8242 30.142 7.21007 28.8764 8.54615 27.6607C10.4922 25.8765 14.4382 22.2873 16.0772 20.723C13.849 22.7811 11.4839 24.9263 9.26813 26.9138C14.0855 22.5031 19.0979 17.9139 23.8571 13.5572C19.7203 17.3372 15.5626 21.1463 11.4507 24.8557C9.39261 26.7105 7.347 28.5403 5.32213 30.3287C4.81591 30.7768 4.3097 31.2208 3.80763 31.6648L3.05246 32.3245L2.69976 32.6316L2.65827 32.6689C2.65827 32.6689 2.67902 32.6938 2.68732 32.7104L2.75786 32.7934L2.91138 32.9677C3.34706 33.4697 3.77859 33.9676 4.21011 34.4656L4.85741 35.2166C4.97774 35.3369 5.07317 35.5278 5.26819 35.4863C5.35533 35.4697 5.43001 35.4033 5.45076 35.3245C5.47151 35.2456 5.46736 35.1543 5.47981 35.0672L5.4964 34.756L5.54204 34.4697C5.56279 34.2788 5.62918 34.0963 5.67482 33.9137C5.79515 33.5527 5.93623 33.2042 6.12295 32.8764C5.94038 33.2042 5.8076 33.5569 5.69557 33.9178C5.65408 34.1004 5.59184 34.283 5.57109 34.4739L5.5296 34.756L5.51715 35.0838C5.4964 35.1958 5.513 35.3162 5.45491 35.4033C5.39682 35.4946 5.27649 35.5485 5.16861 35.5278C5.05658 35.507 4.99434 35.4199 4.9072 35.3369L4.68314 35.0838C4.41758 34.7851 4.15617 34.4822 3.88647 34.1793C3.62091 33.8764 3.35121 33.5735 3.0815 33.2664L2.66242 32.7892L2.55039 32.6606L2.67487 32.5486L2.91968 32.3328C4.15617 31.2374 5.42171 30.1171 6.69555 28.9843C9.24323 26.7022 11.8532 24.3661 14.4423 22.0467C19.5833 17.3787 24.6413 12.7937 29.135 8.71491C29.8404 8.07592 30.6329 7.36224 31.2429 6.80623C26.4629 11.134 21.1684 15.9264 15.766 20.8185C13.044 23.2666 10.2972 25.7188 7.60425 28.1047C6.25573 29.2914 4.9238 30.4698 3.61676 31.6191C3.27652 31.9179 2.93628 32.2166 2.60018 32.5154C2.55039 32.561 2.48815 32.6108 2.45081 32.6565L2.58773 32.8141L2.83669 33.0963L3.25992 33.5776C3.54208 33.8971 3.82008 34.2166 4.09393 34.5319L4.50887 35.005L4.72878 35.2539C4.82421 35.366 4.92795 35.4863 5.02753 35.5485C5.13541 35.6315 5.32628 35.6315 5.44661 35.5319C5.50885 35.4863 5.55034 35.4199 5.56279 35.3535L5.60014 35.117C5.60843 34.9925 5.60843 34.8514 5.61673 34.7353L5.66237 34.4365C5.69142 34.2373 5.74951 34.0423 5.80345 33.8473C5.92378 33.4614 6.09805 33.0921 6.29722 32.7353C6.70385 32.0341 7.23911 31.3785 7.84076 30.8515L7.49222 30.8308L7.84491 30.8474C10.9942 28.0922 14.1643 25.3205 17.3468 22.4865C18.6165 21.3703 19.8945 20.2459 21.1684 19.1255C23.7783 16.8227 26.4048 14.4949 28.9857 12.163C30.1309 11.1257 31.7284 9.69 33.1184 8.37882C33.2927 8.2087 33.4545 8.06762 33.6453 7.8643C33.8238 7.66929 33.9731 7.45767 34.0935 7.23776C34.3383 6.80208 34.4628 6.3498 34.5001 5.93902C34.5375 5.52824 34.4877 5.1631 34.4047 4.8851C34.33 4.62369 34.2553 4.41622 34.1889 4.2793C34.2221 4.52826 34.2595 4.77721 34.2926 5.03447C34.3258 5.30418 34.3258 5.57803 34.2926 5.84774C34.2263 6.38715 34.0105 6.90581 33.7076 7.30415C33.9026 6.97635 34.0561 6.56972 34.135 6.14234C34.0437 6.54897 33.8279 6.95975 33.6163 7.2834C33.7947 7.01369 33.9109 6.70665 33.9192 6.58217C33.8238 6.80623 33.691 7.06764 33.5292 7.3C33.3715 7.53236 33.1765 7.73568 33.0437 7.86845C32.886 8.03028 32.1765 8.78545 31.9441 8.97217C32.2097 8.69002 32.5043 8.37467 32.7906 8.06762C33.0769 7.76057 33.3549 7.47012 33.4918 7.19212C33.3383 7.39958 33.1599 7.58215 32.9607 7.74812C33.0727 7.62779 33.2304 7.46597 33.3508 7.29585C33.4752 7.12988 33.5582 6.95975 33.579 6.88507C33.4213 7.15477 33.2387 7.38713 33.023 7.59045C32.7906 7.80621 32.5624 8.01783 32.3093 8.25019C31.8985 8.61948 31.525 8.95142 31.1433 9.32071C31.5914 8.87259 32.2055 8.28338 32.4877 7.94314C32.2595 8.12986 32.0396 8.34148 31.8197 8.55309C31.8445 8.52404 31.8528 8.5033 31.8528 8.495C31.7533 8.58214 31.6205 8.70247 31.5168 8.79375C31.5085 8.7896 31.4794 8.80205 31.4919 8.77715C31.4919 8.78545 31.496 8.7896 31.5002 8.7979" fill="#601D1F"/>
<path d="M32.5667 8.77301C32.0812 9.21284 31.3924 9.83938 30.9318 10.2211L32.5667 8.77301Z" fill="#601D1F"/>
</g>
</g>
<path d="M36.5582 0.932109C36.6772 0.798734 36.6004 0.536016 36.3867 0.345311C36.1729 0.154606 35.9032 0.108131 35.7842 0.241506C35.6652 0.37488 35.742 0.637598 35.9557 0.828303C36.1695 1.01901 36.4392 1.06548 36.5582 0.932109Z" fill="#B1354E"/>
<g opacity="0.7">
<path d="M36.2548 0.76068C36.2548 0.76068 36.2341 0.76068 36.2299 0.781426C36.2216 0.814621 36.1511 0.690141 36.1469 0.727485C36.1345 0.773128 36.0889 0.661096 36.0723 0.685992C36.0391 0.723336 35.9561 0.735784 35.927 0.652798C35.8814 0.524169 35.8731 0.403839 35.9851 0.399689H36.0059C36.0557 0.420436 36.0557 0.449481 36.0557 0.441183C36.0557 0.441183 36.0889 0.441183 36.1096 0.441183C36.1511 0.441183 36.2009 0.449481 36.2382 0.441183C36.1677 0.424585 36.0764 0.403839 36.064 0.374794C36.1635 0.366495 36.3793 0.445332 36.4996 0.573961C36.4001 0.466078 36.2673 0.403839 36.1552 0.349898C36.0889 0.325002 36.0723 0.300106 36.0183 0.266911C35.9685 0.242015 35.8897 0.21297 35.7984 0.233717C35.7362 0.246165 35.6781 0.27521 35.62 0.325002C35.6532 0.271061 35.6947 0.221269 35.7528 0.192224C35.8565 0.138283 35.981 0.163178 36.0598 0.200522C36.1387 0.237866 36.2175 0.287658 36.2922 0.33745C36.4374 0.441183 36.5868 0.573961 36.62 0.748232C36.6241 0.777277 36.6241 0.810472 36.62 0.835367C36.6532 0.6362 36.483 0.470228 36.342 0.345748C36.2631 0.279359 36.1884 0.21712 36.0889 0.163178C35.9893 0.105088 35.8274 0.0677443 35.6947 0.142432C35.6698 0.15488 35.649 0.171477 35.6283 0.183925C35.5287 0.283509 35.4623 0.432884 35.4706 0.619603C35.4706 0.806322 35.5702 1.00134 35.703 1.16731C35.7403 1.20881 35.7777 1.2586 35.8192 1.30424C35.8606 1.34988 35.9063 1.37063 35.9519 1.41212C36.0432 1.50756 36.1469 1.52 36.2465 1.5532C36.2963 1.56565 36.3461 1.5698 36.3918 1.57395C36.4332 1.5615 36.4789 1.5532 36.5245 1.54905C36.6781 1.52415 36.9353 1.35818 36.6864 1.03453C36.6366 1.06773 36.649 1.10922 36.5951 1.10922C36.5826 1.07603 36.5702 1.03453 36.566 1.00964C36.5577 1.01794 36.537 1.01379 36.537 1.03868C36.537 1.01794 36.5287 0.993041 36.5038 0.963996C36.483 0.963996 36.5038 1.01794 36.5038 1.03868C36.5038 1.05113 36.5245 1.13827 36.5038 1.12997C36.4913 1.05943 36.4789 0.997191 36.4415 0.918354C36.4333 0.918354 36.4291 0.926652 36.4208 0.918354C36.4084 0.889309 36.4125 0.872711 36.3876 0.835367C36.3793 0.847815 36.3793 0.868562 36.3627 0.872711C36.3503 0.872711 36.3337 0.872711 36.3337 0.889309C36.3337 0.860263 36.3337 0.835367 36.3088 0.781426C36.2963 0.768978 36.2963 0.781426 36.2922 0.785576L36.2839 0.768978C36.2839 0.768978 36.2756 0.764829 36.2714 0.768978L36.2548 0.744082L36.2673 0.76068" fill="#601D1F"/>
<path d="M36.6737 1.36246C36.653 1.3832 36.6115 1.39565 36.5742 1.3832L36.6737 1.36246Z" fill="#601D1F"/>
</g>
</svg>
