<svg width="358" height="334" viewBox="0 0 358 334" fill="none" xmlns="http://www.w3.org/2000/svg">
<g clip-path="url(#clip0_57_19049)">
<path d="M181.5 62.2L249.9 27.3" stroke="#EEFDFE" stroke-miterlimit="10" stroke-linecap="round" stroke-linejoin="round"/>
<path d="M256.3 46.7L181.5 62.2" stroke="#EEFDFE" stroke-miterlimit="10" stroke-linecap="round" stroke-linejoin="round"/>
<path d="M254.9 67.2L181 64.5" stroke="#EEFDFE" stroke-miterlimit="10" stroke-linecap="round" stroke-linejoin="round"/>
<path d="M218.8 94.3L180.6 65.8" stroke="#EEFDFE" stroke-miterlimit="10" stroke-linecap="round" stroke-linejoin="round"/>
<path d="M188.4 120.5L178.8 66.6" stroke="#EEFDFE" stroke-miterlimit="10" stroke-linecap="round" stroke-linejoin="round"/>
<path d="M163.2 134.9L175.8 64.8" stroke="#EEFDFE" stroke-miterlimit="10" stroke-linecap="round" stroke-linejoin="round"/>
<path d="M132.7 95.2L175.2 64.6" stroke="#EEFDFE" stroke-miterlimit="10" stroke-linecap="round" stroke-linejoin="round"/>
<path d="M147.7 101.1L175.8 64.8" stroke="#EEFDFE" stroke-miterlimit="10" stroke-linecap="round" stroke-linejoin="round"/>
<path d="M103.8 62L176.1 64.5" stroke="#EEFDFE" stroke-miterlimit="10" stroke-linecap="round" stroke-linejoin="round"/>
<path d="M177 62.3L117.7 32.1" stroke="#EEFDFE" stroke-miterlimit="10" stroke-linecap="round" stroke-linejoin="round"/>
<path d="M176.2 63L93.2 32.2" stroke="#EEFDFE" stroke-miterlimit="10" stroke-linecap="round" stroke-linejoin="round"/>
<path d="M178 61.3L177.3 50.3" stroke="#EEFDFE" stroke-miterlimit="10" stroke-linecap="round" stroke-linejoin="round"/>
<path d="M178.8 61.3C176.9 61.9 174.9 64.9 177.4 66.2C179.5 67.2 182.4 64.4 181.1 62.4C180.5 61.4 179.4 61.2 178.3 61.5" stroke="#EEFDFE" stroke-miterlimit="10" stroke-linecap="round" stroke-linejoin="round"/>
<path d="M183.5 61.9C183.1 62.8 183.3 63.7 184 64.5" stroke="#EEFDFE" stroke-miterlimit="10" stroke-linecap="round" stroke-linejoin="round"/>
<path d="M181.3 66.5C180.4 66.5 179.6 66.9 179.3 67.8" stroke="#EEFDFE" stroke-miterlimit="10" stroke-linecap="round" stroke-linejoin="round"/>
<path d="M174.1 62.5C174.6 63.1 174.7 63.8 174.4 64.5" stroke="#EEFDFE" stroke-miterlimit="10" stroke-linecap="round" stroke-linejoin="round"/>
<path d="M173.2 66.2C173.5 66.4 173.9 66.7 174.1 67" stroke="#EEFDFE" stroke-miterlimit="10" stroke-linecap="round" stroke-linejoin="round"/>
<path d="M178.8 68.2C177.8 67.6 176.8 67.1 175.7 67.3" stroke="#EEFDFE" stroke-miterlimit="10" stroke-linecap="round" stroke-linejoin="round"/>
<path d="M183.1 61.1C181.4 60.7 179.6 60.3 178 59.4" stroke="#EEFDFE" stroke-miterlimit="10" stroke-linecap="round" stroke-linejoin="round"/>
<path d="M171.5 64.5C172.2 65 172.5 65.7 172.3 66.5" stroke="#EEFDFE" stroke-miterlimit="10" stroke-linecap="round" stroke-linejoin="round"/>
<path d="M173.4 68.3C173.1 67.8 172.7 67.3 172.1 67.1" stroke="#EEFDFE" stroke-miterlimit="10" stroke-linecap="round" stroke-linejoin="round"/>
<path d="M175 68.8C174.7 68.2 174.1 67.8 173.4 67.6" stroke="#EEFDFE" stroke-miterlimit="10" stroke-linecap="round" stroke-linejoin="round"/>
<path d="M179.3 69.3C178.1 68.6 176.6 68.2 175.3 68.6" stroke="#EEFDFE" stroke-miterlimit="10" stroke-linecap="round" stroke-linejoin="round"/>
<path d="M179.9 72.1C178.4 71.3 176.5 70.6 174.8 70.9" stroke="#EEFDFE" stroke-miterlimit="10" stroke-linecap="round" stroke-linejoin="round"/>
<path d="M179.6 73C178.3 72 176.4 71.4 174.7 71.6" stroke="#EEFDFE" stroke-miterlimit="10" stroke-linecap="round" stroke-linejoin="round"/>
<path d="M184.4 68.9C182.3 69 181.1 70.3 179.8 71.5" stroke="#EEFDFE" stroke-miterlimit="10" stroke-linecap="round" stroke-linejoin="round"/>
<path d="M185.3 69.7C183.2 70.5 181.7 71.3 180.2 73.1" stroke="#EEFDFE" stroke-miterlimit="10" stroke-linecap="round" stroke-linejoin="round"/>
<path d="M187.2 65.1C186.7 66.3 186.2 68.6 186.4 69.9" stroke="#EEFDFE" stroke-miterlimit="10" stroke-linecap="round" stroke-linejoin="round"/>
<path d="M186.1 65C185.5 66.3 184.8 67.7 185 69.2" stroke="#EEFDFE" stroke-miterlimit="10" stroke-linecap="round" stroke-linejoin="round"/>
<path d="M185.6 59.8C183.2 59.6 179.9 58.5 178.2 56.9" stroke="#EEFDFE" stroke-miterlimit="10" stroke-linecap="round" stroke-linejoin="round"/>
<path d="M178.1 57.1C177.3 58.6 176.4 60.1 175.1 61.3" stroke="#EEFDFE" stroke-miterlimit="10" stroke-linecap="round" stroke-linejoin="round"/>
<path d="M177.9 59.5C177.3 60.3 176.7 61 175.9 61.7" stroke="#EEFDFE" stroke-miterlimit="10" stroke-linecap="round" stroke-linejoin="round"/>
<path d="M175.1 61.4C175 61.8 174.6 62.1 174.2 62.2" stroke="#EEFDFE" stroke-miterlimit="10" stroke-linecap="round" stroke-linejoin="round"/>
<path d="M177.4 56.4C176.4 57.8 175 59.5 173.3 60.1" stroke="#EEFDFE" stroke-miterlimit="10" stroke-linecap="round" stroke-linejoin="round"/>
<path d="M172.9 60.3C173 60.7 172.8 61.1 172.6 61.5" stroke="#EEFDFE" stroke-miterlimit="10" stroke-linecap="round" stroke-linejoin="round"/>
<path d="M172.5 61.8C172.8 62.7 172.8 63.7 172.3 64.3" stroke="#EEFDFE" stroke-miterlimit="10" stroke-linecap="round" stroke-linejoin="round"/>
<path d="M188.7 58.2C185.4 58.1 181 56.7 177.9 55.3" stroke="#EEFDFE" stroke-miterlimit="10" stroke-linecap="round" stroke-linejoin="round"/>
<path d="M177.6 55.6C174.9 57.2 171.6 58.7 168.5 58" stroke="#EEFDFE" stroke-miterlimit="10" stroke-linecap="round" stroke-linejoin="round"/>
<path d="M177.6 55.1C173.8 56 169.5 56.1 165.6 55.6C164.8 55.5 164 55.3 163.2 55.1" stroke="#EEFDFE" stroke-miterlimit="10" stroke-linecap="round" stroke-linejoin="round"/>
<path d="M177.4 53.6C172.4 52.7 167.5 51.4 162.6 50.1C158.1 48.9 153.5 47.8 148.9 46.4C146.9 45.8 144.9 45.3 142.9 44.7" stroke="#EEFDFE" stroke-miterlimit="10" stroke-linecap="round" stroke-linejoin="round"/>
<path d="M177.3 54.2C171.6 54.8 164.9 52.4 159.2 51.7C157.8 51.5 156.2 51.4 155 51.1" stroke="#EEFDFE" stroke-miterlimit="10" stroke-linecap="round" stroke-linejoin="round"/>
<path d="M170.2 59.1C170.8 59.5 171.1 60 170.9 60.7" stroke="#EEFDFE" stroke-miterlimit="10" stroke-linecap="round" stroke-linejoin="round"/>
<path d="M170.1 60.6C171.1 62 170.5 63.6 169 64.2" stroke="#EEFDFE" stroke-miterlimit="10" stroke-linecap="round" stroke-linejoin="round"/>
<path d="M166.7 59.5C168 60.7 168.5 62.6 167.7 64.1" stroke="#EEFDFE" stroke-miterlimit="10" stroke-linecap="round" stroke-linejoin="round"/>
<path d="M166.2 56.8C166.6 57.6 166.4 58.4 165.8 59" stroke="#EEFDFE" stroke-miterlimit="10" stroke-linecap="round" stroke-linejoin="round"/>
<path d="M161.7 57.9C163.4 59.4 164.5 61.7 163.7 63.8" stroke="#EEFDFE" stroke-miterlimit="10" stroke-linecap="round" stroke-linejoin="round"/>
<path d="M162.3 55C162.3 56 161.5 56.8 160.6 57" stroke="#EEFDFE" stroke-miterlimit="10" stroke-linecap="round" stroke-linejoin="round"/>
<path d="M156.2 51.9C156.6 53.2 156 54.4 154.7 54.8" stroke="#EEFDFE" stroke-miterlimit="10" stroke-linecap="round" stroke-linejoin="round"/>
<path d="M154.3 54.8C156.4 56.7 157.7 60.7 156.9 63.5" stroke="#EEFDFE" stroke-miterlimit="10" stroke-linecap="round" stroke-linejoin="round"/>
<path d="M167.2 64.5C168.5 65.7 169.8 67.2 168.8 69" stroke="#EEFDFE" stroke-miterlimit="10" stroke-linecap="round" stroke-linejoin="round"/>
<path d="M162.5 64.4C164.3 66 166.5 68.4 166 71" stroke="#EEFDFE" stroke-miterlimit="10" stroke-linecap="round" stroke-linejoin="round"/>
<path d="M157.6 63.9C160.1 66.2 163.3 69.2 163.1 73" stroke="#EEFDFE" stroke-miterlimit="10" stroke-linecap="round" stroke-linejoin="round"/>
<path d="M171.2 70.8C170.7 70 170 69.4 169.2 69.1" stroke="#EEFDFE" stroke-miterlimit="10" stroke-linecap="round" stroke-linejoin="round"/>
<path d="M169.5 72.9C168.9 71.9 167.9 71.3 166.8 70.8" stroke="#EEFDFE" stroke-miterlimit="10" stroke-linecap="round" stroke-linejoin="round"/>
<path d="M168.8 73.4C167.4 72.8 165.9 72.1 164.3 72.7" stroke="#EEFDFE" stroke-miterlimit="10" stroke-linecap="round" stroke-linejoin="round"/>
<path d="M172.4 69.1C173.4 70.1 174.3 71.1 174.5 72.5" stroke="#EEFDFE" stroke-miterlimit="10" stroke-linecap="round" stroke-linejoin="round"/>
<path d="M170 72.6C171.6 73.7 173 75.8 173.7 77.7" stroke="#EEFDFE" stroke-miterlimit="10" stroke-linecap="round" stroke-linejoin="round"/>
<path d="M173.2 79.3C172.7 77.3 170.8 74.8 168.9 74.2" stroke="#EEFDFE" stroke-miterlimit="10" stroke-linecap="round" stroke-linejoin="round"/>
<path d="M194.3 55.5C190 56.1 185.6 55.7 181.2 55.2C180 55.1 178.9 55.1 177.8 54.9" stroke="#EEFDFE" stroke-miterlimit="10" stroke-linecap="round" stroke-linejoin="round"/>
<path d="M203.9 50.7C196.8 52 189.7 53.5 182.4 53.9C180.9 54 179.2 53.9 177.7 53.6" stroke="#EEFDFE" stroke-miterlimit="10" stroke-linecap="round" stroke-linejoin="round"/>
<path d="M236.2 34.5C233.8 35.3 231.4 36 229.1 36.9C214.2 42.6 199.3 47 183.8 50.9C181.8 51.4 179.5 51.9 177.4 51.7" stroke="#EEFDFE" stroke-miterlimit="10" stroke-linecap="round" stroke-linejoin="round"/>
<path d="M177.5 51.2C170.7 52.4 162.2 50.9 155.5 49.5C153.5 49.1 151.5 48.7 149.5 48.2" stroke="#EEFDFE" stroke-miterlimit="10" stroke-linecap="round" stroke-linejoin="round"/>
<path d="M255.2 46.8C246.8 46.1 238.7 44.5 230.9 41.2C229.5 40.6 228.1 39.7 226.6 39.3" stroke="#EEFDFE" stroke-miterlimit="10" stroke-linecap="round" stroke-linejoin="round"/>
<path d="M254.9 47C249.3 49.8 247.4 57.2 249.4 63C249.9 64.5 250.8 65.8 251.9 67" stroke="#EEFDFE" stroke-miterlimit="10" stroke-linecap="round" stroke-linejoin="round"/>
<path d="M254.1 47.4C248 49.2 244.1 56.9 244.4 62.9C244.5 64.3 244.6 65.6 245.2 66.9" stroke="#EEFDFE" stroke-miterlimit="10" stroke-linecap="round" stroke-linejoin="round"/>
<path d="M244.1 66.7C231.8 66.4 220.5 76 217.3 87.5C216.8 89.1 216.4 90.7 216.6 92.3" stroke="#EEFDFE" stroke-miterlimit="10" stroke-linecap="round" stroke-linejoin="round"/>
<path d="M217.7 93.4C212.9 93.7 208.1 95.7 204 98.3C199.2 101.3 193.5 105.3 190.4 110.1C189.1 112.1 188.2 114.3 187.9 116.6" stroke="#EEFDFE" stroke-miterlimit="10" stroke-linecap="round" stroke-linejoin="round"/>
<path d="M187.6 117.3C179.4 113.1 170.7 120.5 166.5 127C165.6 128.5 164.7 130 163.9 131.6" stroke="#EEFDFE" stroke-miterlimit="10" stroke-linecap="round" stroke-linejoin="round"/>
<path d="M148.5 100.4C156.1 105.3 161.3 118.3 163 126.9C163.3 128.7 163.5 130.5 163.5 132.3" stroke="#EEFDFE" stroke-miterlimit="10" stroke-linecap="round" stroke-linejoin="round"/>
<path d="M185.4 105.2C179.1 103 172.9 105.9 169.2 110.9C168.4 111.9 167.7 113 167.1 114.1" stroke="#EEFDFE" stroke-miterlimit="10" stroke-linecap="round" stroke-linejoin="round"/>
<path d="M153.2 93.9C159.2 98 164.3 101.8 166.7 109.1C167.1 110.4 167.5 111.6 167.4 112.9" stroke="#EEFDFE" stroke-miterlimit="10" stroke-linecap="round" stroke-linejoin="round"/>
<path d="M158.1 87.9C162.8 88.6 166.6 93.2 168.5 97.3C168.9 98.2 169.3 99.2 169.5 100.2" stroke="#EEFDFE" stroke-miterlimit="10" stroke-linecap="round" stroke-linejoin="round"/>
<path d="M184.4 99.7C182.2 96.2 176.3 94.5 172.5 95.7C171.7 96 171 96.3 170.3 96.8" stroke="#EEFDFE" stroke-miterlimit="10" stroke-linecap="round" stroke-linejoin="round"/>
<path d="M184.2 98.6C182.1 95.2 178 92.1 174 91.5C173 91.3 172.2 91.2 171.3 91.5" stroke="#EEFDFE" stroke-miterlimit="10" stroke-linecap="round" stroke-linejoin="round"/>
<path d="M184.2 95.7C181.9 92 176.3 88.1 171.8 88" stroke="#EEFDFE" stroke-miterlimit="10" stroke-linecap="round" stroke-linejoin="round"/>
<path d="M183.2 92.1C180.9 89.3 175.5 87.2 171.9 87.8" stroke="#EEFDFE" stroke-miterlimit="10" stroke-linecap="round" stroke-linejoin="round"/>
<path d="M182.7 88.2C180.6 85.6 176.2 83.4 172.8 83.7" stroke="#EEFDFE" stroke-miterlimit="10" stroke-linecap="round" stroke-linejoin="round"/>
<path d="M183 89.6C180.3 87.3 176.2 84.4 172.4 85" stroke="#EEFDFE" stroke-miterlimit="10" stroke-linecap="round" stroke-linejoin="round"/>
<path d="M181.5 81.7C179.2 80.3 176.4 78.9 173.7 78.8" stroke="#EEFDFE" stroke-miterlimit="10" stroke-linecap="round" stroke-linejoin="round"/>
<path d="M181.9 84C179.7 82.2 176.1 79.9 173.1 80.3" stroke="#EEFDFE" stroke-miterlimit="10" stroke-linecap="round" stroke-linejoin="round"/>
<path d="M193.4 75.7C189.3 75.4 183.5 77.4 181.7 81.3" stroke="#EEFDFE" stroke-miterlimit="10" stroke-linecap="round" stroke-linejoin="round"/>
<path d="M193.6 75.9C189.4 77.9 186.2 82.2 183.9 86.2C183.4 87 183.2 88 182.7 88.8" stroke="#EEFDFE" stroke-miterlimit="10" stroke-linecap="round" stroke-linejoin="round"/>
<path d="M198.8 79.4C193.4 79.3 188.5 82.7 185.1 86.6C184.3 87.5 183.6 88.4 182.8 89.3" stroke="#EEFDFE" stroke-miterlimit="10" stroke-linecap="round" stroke-linejoin="round"/>
<path d="M201.7 81.7C195.4 81.1 188.9 85 185.5 90.1C184.8 91.1 184.3 92.2 183.9 93.4" stroke="#EEFDFE" stroke-miterlimit="10" stroke-linecap="round" stroke-linejoin="round"/>
<path d="M203.9 83.3C196.8 84.6 190.5 88.8 186.6 94.9C185.8 96.2 185.2 97.4 184.7 98.8" stroke="#EEFDFE" stroke-miterlimit="10" stroke-linecap="round" stroke-linejoin="round"/>
<path d="M212.6 89.8C201.5 91.3 192.1 94.8 188.3 105.8C187.7 107.5 187.3 109.3 186.9 111" stroke="#EEFDFE" stroke-miterlimit="10" stroke-linecap="round" stroke-linejoin="round"/>
<path d="M230.9 66.4C223.7 69.7 215.9 77.6 213.8 85.4C213.4 86.7 213.2 88.1 213.2 89.4" stroke="#EEFDFE" stroke-miterlimit="10" stroke-linecap="round" stroke-linejoin="round"/>
<path d="M216.5 66.2C210.2 69.8 208.6 79.6 211.1 86C211.6 87.3 212.3 88.4 212.9 89.6" stroke="#EEFDFE" stroke-miterlimit="10" stroke-linecap="round" stroke-linejoin="round"/>
<path d="M210.4 65.8C206.2 70.3 205.9 77.3 207.3 83C207.6 84.1 207.8 85 208.3 86" stroke="#EEFDFE" stroke-miterlimit="10" stroke-linecap="round" stroke-linejoin="round"/>
<path d="M207.2 65.5C203.1 68 202.3 74.2 202.4 78.6C202.4 79.7 202.6 80.9 202.7 82" stroke="#EEFDFE" stroke-miterlimit="10" stroke-linecap="round" stroke-linejoin="round"/>
<path d="M203.8 65.6C200.2 68.2 198.9 73.9 199.7 78.1C199.8 78.9 200.1 79.8 200.5 80.5" stroke="#EEFDFE" stroke-miterlimit="10" stroke-linecap="round" stroke-linejoin="round"/>
<path d="M197.7 65.4C195.7 68.4 196.6 75.8 198.2 78.9" stroke="#EEFDFE" stroke-miterlimit="10" stroke-linecap="round" stroke-linejoin="round"/>
<path d="M195.4 65.1C193.5 67.6 193.4 72.6 194.2 75.6" stroke="#EEFDFE" stroke-miterlimit="10" stroke-linecap="round" stroke-linejoin="round"/>
<path d="M195 65.4C192.5 66.8 190 69.4 188.9 72" stroke="#EEFDFE" stroke-miterlimit="10" stroke-linecap="round" stroke-linejoin="round"/>
<path d="M240.1 50.1C236.4 53 232.9 57.7 233 62.7C233 63.9 233.2 65.1 233.7 66.2" stroke="#EEFDFE" stroke-miterlimit="10" stroke-linecap="round" stroke-linejoin="round"/>
<path d="M222 54C219.7 58 220.7 61.9 221.7 66.2" stroke="#EEFDFE" stroke-miterlimit="10" stroke-linecap="round" stroke-linejoin="round"/>
<path d="M214.5 55.3C212 58.2 211.6 61.8 211.3 65.4" stroke="#EEFDFE" stroke-miterlimit="10" stroke-linecap="round" stroke-linejoin="round"/>
<path d="M208.5 56.7C207.5 58.8 209.1 63.2 210.2 65.2" stroke="#EEFDFE" stroke-miterlimit="10" stroke-linecap="round" stroke-linejoin="round"/>
<path d="M203.2 57.6C203 60.2 203.9 63.7 205.7 65.3" stroke="#EEFDFE" stroke-miterlimit="10" stroke-linecap="round" stroke-linejoin="round"/>
<path d="M195.7 59.6C195.6 61.7 197.2 64 198.8 65.3" stroke="#EEFDFE" stroke-miterlimit="10" stroke-linecap="round" stroke-linejoin="round"/>
<path d="M192.3 60.3C192.4 62.1 193.6 63.9 195 65" stroke="#EEFDFE" stroke-miterlimit="10" stroke-linecap="round" stroke-linejoin="round"/>
<path d="M191 60.6C190.4 61.9 190.4 63.4 191 64.6" stroke="#EEFDFE" stroke-miterlimit="10" stroke-linecap="round" stroke-linejoin="round"/>
<path d="M190 60.9C189.1 62.1 188.1 63.5 187.7 64.7" stroke="#EEFDFE" stroke-miterlimit="10" stroke-linecap="round" stroke-linejoin="round"/>
<path d="M187.6 61.2C186.5 61.9 185.9 63.2 186.3 64.5" stroke="#EEFDFE" stroke-miterlimit="10" stroke-linecap="round" stroke-linejoin="round"/>
<path d="M242.4 49.2C236.2 49.5 229.2 48.6 223.9 45.3C222.6 44.5 221.5 43.7 220.6 42.5" stroke="#EEFDFE" stroke-miterlimit="10" stroke-linecap="round" stroke-linejoin="round"/>
<path d="M218.4 43.2C212.3 45.5 206.1 47.7 199.8 49.2C195 50.3 190.1 50.9 185.2 51.4C182.8 51.6 180.4 51.7 178.1 51.8" stroke="#EEFDFE" stroke-miterlimit="10" stroke-linecap="round" stroke-linejoin="round"/>
<path d="M214.4 45.6C215 49.4 219.3 51.9 222.5 53.5" stroke="#EEFDFE" stroke-miterlimit="10" stroke-linecap="round" stroke-linejoin="round"/>
<path d="M213.8 55.6C211.3 54.1 208.3 52 207.3 49.1" stroke="#EEFDFE" stroke-miterlimit="10" stroke-linecap="round" stroke-linejoin="round"/>
<path d="M204.4 51.1C203.7 52.9 203.5 55.7 205.1 57" stroke="#EEFDFE" stroke-miterlimit="10" stroke-linecap="round" stroke-linejoin="round"/>
<path d="M198.7 53.8C198.1 55.2 199 56.9 200 58" stroke="#EEFDFE" stroke-miterlimit="10" stroke-linecap="round" stroke-linejoin="round"/>
<path d="M193.4 56.1C193.5 57.4 194.4 58.6 195.4 59.3" stroke="#EEFDFE" stroke-miterlimit="10" stroke-linecap="round" stroke-linejoin="round"/>
<path d="M189.1 58.6C189.4 59.2 190.2 60 191 60.3" stroke="#EEFDFE" stroke-miterlimit="10" stroke-linecap="round" stroke-linejoin="round"/>
<path d="M187.8 60.8C187.1 60.5 186.3 60.2 185.7 59.9" stroke="#EEFDFE" stroke-miterlimit="10" stroke-linecap="round" stroke-linejoin="round"/>
<path d="M166.2 77.6C168.8 79.2 170.9 82.1 172.1 84.8" stroke="#EEFDFE" stroke-miterlimit="10" stroke-linecap="round" stroke-linejoin="round"/>
<path d="M166.2 76.8C168.6 77 170.9 78 172.7 79.4" stroke="#EEFDFE" stroke-miterlimit="10" stroke-linecap="round" stroke-linejoin="round"/>
<path d="M164.5 79.6C167.4 82.3 169.4 85.5 171 89.1" stroke="#EEFDFE" stroke-miterlimit="10" stroke-linecap="round" stroke-linejoin="round"/>
<path d="M162.9 82.1C166.8 86.2 168.2 90.6 170.2 95.6" stroke="#EEFDFE" stroke-miterlimit="10" stroke-linecap="round" stroke-linejoin="round"/>
<path d="M166 77.2C165.3 75.8 164.1 74.2 162.9 73.6" stroke="#EEFDFE" stroke-miterlimit="10" stroke-linecap="round" stroke-linejoin="round"/>
<path d="M160.9 74.7C162.3 76.5 163.1 79.1 163.3 81.3" stroke="#EEFDFE" stroke-miterlimit="10" stroke-linecap="round" stroke-linejoin="round"/>
<path d="M157.1 77.7C158.8 79.2 160.7 80.2 162.1 82" stroke="#EEFDFE" stroke-miterlimit="10" stroke-linecap="round" stroke-linejoin="round"/>
<path d="M158.4 76.8C160.3 77.9 162 79.1 163.3 80.9" stroke="#EEFDFE" stroke-miterlimit="10" stroke-linecap="round" stroke-linejoin="round"/>
<path d="M152.7 80.9C155.2 81.7 158.2 83.3 159.5 85.6" stroke="#EEFDFE" stroke-miterlimit="10" stroke-linecap="round" stroke-linejoin="round"/>
<path d="M148.2 83.8C151.1 86.3 153.1 88.5 154.5 92.1" stroke="#EEFDFE" stroke-miterlimit="10" stroke-linecap="round" stroke-linejoin="round"/>
<path d="M148.4 99.9C145.9 96 141.2 94.6 136.8 94.2C135.8 94.1 134.8 94.1 133.9 94.1" stroke="#EEFDFE" stroke-miterlimit="10" stroke-linecap="round" stroke-linejoin="round"/>
<path d="M124.4 35.9C120.9 38.5 114.8 40.3 110.6 38.5" stroke="#EEFDFE" stroke-miterlimit="10" stroke-linecap="round" stroke-linejoin="round"/>
<path d="M106.6 37.2C112.4 41 116.6 51.5 115 58.4C114.6 59.9 113.9 61.1 112.9 62.2" stroke="#EEFDFE" stroke-miterlimit="10" stroke-linecap="round" stroke-linejoin="round"/>
<path d="M112.6 62C123 66.5 133.6 76.4 134.7 88.5C134.9 90.2 134.6 92 134.4 93.8" stroke="#EEFDFE" stroke-miterlimit="10" stroke-linecap="round" stroke-linejoin="round"/>
<path d="M130.2 46.2C131.7 51 128.7 57.1 125.3 60.4C124.5 61.3 123.6 62 122.5 62.6" stroke="#EEFDFE" stroke-miterlimit="10" stroke-linecap="round" stroke-linejoin="round"/>
<path d="M138.6 63.2C144.5 66.6 147.4 74.1 147.8 80.6C147.9 82 147.9 83.3 147.4 84.7" stroke="#EEFDFE" stroke-miterlimit="10" stroke-linecap="round" stroke-linejoin="round"/>
<path d="M146 63.7C150.6 65.6 154.7 71.3 155.3 76.2C155.4 77.1 155.5 77.9 155.3 78.8" stroke="#EEFDFE" stroke-miterlimit="10" stroke-linecap="round" stroke-linejoin="round"/>
<path d="M147.8 63.6C152.4 65.5 156.1 69.1 158.9 73.1C159.4 73.8 159.8 74.6 160.3 75.2" stroke="#EEFDFE" stroke-miterlimit="10" stroke-linecap="round" stroke-linejoin="round"/>
<path d="M154.1 63.9C157.8 66.2 160.4 70.7 160.8 75" stroke="#EEFDFE" stroke-miterlimit="10" stroke-linecap="round" stroke-linejoin="round"/>
<path d="M153.4 54.8C154.4 57.7 152.6 61.1 152.1 63.8" stroke="#EEFDFE" stroke-miterlimit="10" stroke-linecap="round" stroke-linejoin="round"/>
<path d="M151.3 49.6C152.3 50.8 153.2 52.8 153.1 54.4" stroke="#EEFDFE" stroke-miterlimit="10" stroke-linecap="round" stroke-linejoin="round"/>
<path d="M147.9 47.9C147.2 49.5 146 50.7 144.3 51" stroke="#EEFDFE" stroke-miterlimit="10" stroke-linecap="round" stroke-linejoin="round"/>
<path d="M143.9 50.8C146.1 53 147.6 61 144.9 63.2" stroke="#EEFDFE" stroke-miterlimit="10" stroke-linecap="round" stroke-linejoin="round"/>
<path d="M130.4 45.9C132.9 46.3 137.4 45.2 138.7 42.9" stroke="#EEFDFE" stroke-miterlimit="10" stroke-linecap="round" stroke-linejoin="round"/>
<path d="M133.2 40.1C130.2 42.1 126.6 43 123.1 43" stroke="#EEFDFE" stroke-miterlimit="10" stroke-linecap="round" stroke-linejoin="round"/>
<path d="M112.4 39.1C117.7 44.1 120.7 51.8 117.8 58.8C117.3 60 116.6 61.1 115.9 62.2" stroke="#EEFDFE" stroke-miterlimit="10" stroke-linecap="round" stroke-linejoin="round"/>
<path d="M116.3 62.2C127 64.7 137.2 72.6 143 81.8C143.9 83.2 144.6 84.6 144.9 86.2" stroke="#EEFDFE" stroke-miterlimit="10" stroke-linecap="round" stroke-linejoin="round"/>
<path d="M144.9 86C148.3 88.6 150.3 94.1 149.9 98.3" stroke="#EEFDFE" stroke-miterlimit="10" stroke-linecap="round" stroke-linejoin="round"/>
<path d="M178.9 67.3C179.7 71.3 179.2 75.5 179.1 79.5C179 83.6 178.6 87.8 178.6 91.9C178.5 100.6 178.4 109.5 178.8 118.2C179.2 126.8 180.3 135.3 180.7 143.9C180.9 148.1 180.8 152.2 180.5 156.4C180.3 158.5 180.4 160.6 180.2 162.7C180.1 164.7 179.7 166.6 179.6 168.6C179.8 168.6 180.1 168.6 180.3 168.6C180.3 168.4 180.3 168.3 180.3 168.1C180.3 167.7 179.6 167.7 179.6 168.1C179.6 168.3 179.6 168.4 179.6 168.6C179.6 169 180.3 169 180.3 168.6C180.4 166.8 180.7 165.1 180.8 163.4C180.9 161.3 181 159.2 181.1 157.1C181.3 152.7 181.6 148.4 181.4 143.9C181 135.1 179.9 126.4 179.5 117.6C179.1 108.9 179.2 100 179.3 91.3C179.4 87.2 179.8 83 179.8 78.9C179.9 75 180.3 71 179.6 67.1C179.4 66.6 178.8 66.8 178.9 67.3Z" fill="#EEFDFE"/>
<path d="M160.4 194.2C155.8 196.5 149.5 198.9 143.9 192.7C138.4 186.6 141.6 173.4 144.9 167.2C148.1 161 152 153.5 150.3 152.3C148.6 151.1 143.8 157.5 139.2 166.4C134.6 175.3 131.2 190 137.2 197.4C143.2 204.8 154.3 204.1 159.3 199.3C161.1 197.1 160.4 194.2 160.4 194.2Z" fill="#4C0003"/>
<path d="M161.7 190.7C159 191.8 151.9 189.9 150.6 180.2C149.3 170.5 155.8 157.7 159.8 148.2C163.8 138.7 165.9 139.9 165.4 147.2C164.9 154.5 155.9 166.3 156 178.4C155.7 183.4 159.3 189.6 164.1 186.6C164.7 189.7 161.7 190.7 161.7 190.7Z" fill="#4C0003"/>
<path d="M196.4 185.8C200.6 186.6 204.5 185 202.8 178C201.1 171 193.4 157 192.1 151.9C190.8 146.8 190.2 141.4 192.8 141.9C195.4 142.4 195 149.5 201 160.1C207.1 170.7 211.3 177.2 209.1 183.7C206.9 190.2 199.9 192.3 198.4 191C196.8 189.8 196.4 185.8 196.4 185.8Z" fill="#4C0003"/>
<path d="M201.1 195.4C204.2 197.3 211.1 197.6 214.3 190.2C217.5 182.8 214.4 173.5 211.2 167.3C208 161.1 205 153.7 205.8 152.6C206.7 151.5 209.8 156 214.5 164.4C219.3 172.8 223 183.4 220 192.4C217 201.4 207.7 205.6 201.5 200.4C200.5 199 201.1 195.4 201.1 195.4Z" fill="#4C0003"/>
<path d="M180.6 167.3C178.7 167.3 176.2 168.4 173.4 171.1C165.7 178.6 156.6 194.6 158.3 204.4C160.5 217.4 173.2 219.5 180.3 218.8C187.4 219.5 200 217.4 202.3 204.4C203.9 194.9 194.8 178.1 187.5 170.5C184.5 167.4 182.3 167.3 180.6 167.3Z" fill="#EE7675"/>
<path d="M165.5 217C161.9 214.4 154.1 209.4 143.3 216.1C132.5 222.8 133.3 238.9 135.4 245.5C137.5 252.1 142.3 256.2 141.3 249.2C140.3 242.2 137.4 230.1 143.4 222.9C150.6 214.2 160.8 218.7 163.8 221.6C165.6 219.9 165.5 217 165.5 217Z" fill="#4C0003"/>
<path d="M161.2 224.5C158.4 223 153.5 222.1 149.3 229.7C145.1 237.3 147.2 247.9 150.1 251.9C153 255.9 153.6 249.5 152.9 242.5C151.8 231.6 156.9 227.3 161.7 229C162.2 226.8 161.2 224.5 161.2 224.5Z" fill="#4C0003"/>
<path d="M192.7 218.3C196.3 215.7 204.4 208.4 215.1 215.2C225.8 222 226.6 238.8 224.6 245.3C222.5 251.9 215.4 255.7 218.2 249.2C221.3 242.1 223.1 230.6 217.2 223.4C210 214.7 198.8 218.8 195.7 221.6C194 219.9 192.7 218.3 192.7 218.3Z" fill="#4C0003"/>
<path d="M196 225.6C198.8 224.1 204.5 223.3 208.7 230.9C212.9 238.5 212.8 248.2 210 252.1C207.1 256.1 206 251.7 206.8 244.7C207.9 233.8 202.4 228.2 197.6 229.8C197.1 227.7 196 225.6 196 225.6Z" fill="#4C0003"/>
<path d="M181 211.7C168.6 211.3 160 216.2 160.7 226.6C161.4 237 169 242.3 180.8 242C196.2 241.7 199.8 231.6 199 225.6C198.3 220.2 196.2 212.2 181 211.7Z" fill="#F2B0A2"/>
<path d="M173.8 225.4C172.4 223.6 168.2 221.6 165.1 225.6C161.6 230.1 165.8 235 170.3 234C174.4 233 176.1 228.3 173.8 225.4Z" fill="#EEFDFE"/>
<path d="M170.7 225.3C168.7 224.9 165.4 226.5 166.8 230.1C168.2 233.7 172.6 232 173.4 230.4C174.3 228.8 173.7 225.8 170.7 225.3Z" fill="#B21E34"/>
<path d="M186.6 225.7C188 223.9 192.2 221.9 195.3 225.9C198.8 230.4 194.6 235.3 190.1 234.3C186 233.3 184.3 228.7 186.6 225.7Z" fill="#EEFDFE"/>
<path d="M189.7 225.6C191.7 225.2 195 226.8 193.6 230.4C192.2 234 187.8 232.3 187 230.7C186.2 229.1 186.7 226.1 189.7 225.6Z" fill="#B21E34"/>
<path d="M174.1 218.2C175 217.7 175.3 216.5 174.2 216C173.5 215.7 172.5 216 171.7 216.1C170.3 216.3 167.7 216.7 167.4 218.5C167 220.2 169 220.6 170.2 220.2C170.9 220 171.5 219.6 172.1 219.2C172.8 218.8 173.4 218.6 174.1 218.2Z" fill="#B21E34"/>
<path d="M178.4 216.1C178 215.7 176.9 214.6 176.4 215.4C176.1 215.8 176.8 216.8 177 217.1C177.2 217.4 177.4 217.8 177.6 218C178 218.6 178.9 218.7 179.3 217.9C179.8 217 178.9 216.5 178.4 216.1Z" fill="#B1354E"/>
<path d="M190.9 218.3C189.8 217.5 187.1 215.4 185.7 216.6C184.5 217.7 186.6 219.5 187.3 220.2C188.3 221 189.5 221.3 190.7 220.8C191.2 220.6 191.8 220.2 191.8 219.6C192 219 191.3 218.7 190.9 218.3Z" fill="#B21E34"/>
<path d="M170 183.7C171.9 184.9 172.4 187.6 172.6 189.6C172.7 190.7 173 195.4 170.8 193.1C169.9 192.1 169.1 191 168.3 190C167.2 188.5 165.6 186.7 166.4 184.8C167 183.3 168.6 182.8 170 183.7Z" fill="#B21E34"/>
<path d="M177.3 185.4C178 185.8 177.8 182.4 177.7 182.2C177.4 181.4 177.1 180.5 176.5 179.9C175.5 178.8 173.4 178.1 173 180.1C172.6 182.2 175.8 184.5 177.3 185.4Z" fill="#B21E34"/>
<path d="M169.1 201.9C169 201.6 168.9 201.4 168.8 201.2C168.4 200.3 167.7 199.1 166.8 198.5C164.8 197.1 162.5 199.1 162.6 201.2C162.6 202.4 163.7 203.3 164.4 204.2C165.3 205.3 167.9 209.6 169.2 207.2C169.9 205.9 169.6 203.5 169.1 201.9Z" fill="#B21E34"/>
<path d="M192.1 185.9C190.3 187 189.7 189.5 189.6 191.5C189.6 192.4 188.7 196.1 190.5 195.4C191.8 194.9 192.8 193.3 193.9 192.3C195.3 191 196.6 189.1 195.7 187.1C195.1 185.5 193.5 185.1 192.1 185.9Z" fill="#B21E34"/>
<path d="M183.9 185.5C183.2 185.7 182.9 184.7 182.9 184C182.9 182.7 183.2 181.3 183.9 180.2C184.6 179.1 186.6 177.9 187.6 179.3C188.8 181 187.2 181.7 186.1 182.6C185.5 183.1 184.5 185.1 184 185.4C184 185.5 183.9 185.5 183.9 185.5Z" fill="#B21E34"/>
<path d="M192.6 203.6C193 202.6 193.6 201.6 194.3 200.8C196 198.8 198.9 200.3 199.1 202.6C199.5 205.6 195.9 207.4 194 209.1C193.1 209.9 192 210 191.5 208.5C190.9 207 192.1 205 192.6 203.6Z" fill="#B21E34"/>
<path d="M187.7 170.8C187.1 170.2 185.7 168.3 182.9 167.6C181.4 167.2 181.3 167.4 181 167.3C179.1 167 176.3 168.6 175.1 169.6C174.5 170 173.9 170.5 173.3 171.1C172.6 171.8 171.8 172.6 171.1 173.4C173.2 172.5 175.7 172.4 177.2 174.6C179.3 177.7 179.9 179.5 180.8 179.5C181.8 179.5 182.8 171.1 190.7 174.6C189.8 173.2 188.8 171.9 187.7 170.8Z" fill="#F2B0A2"/>
<path d="M135 186.9C134.1 185.4 133.8 183.5 133.2 181.8C133 181.4 132.4 181.6 132.5 182C133.1 183.7 133.4 185.7 134.4 187.3C134.7 187.6 135.3 187.2 135 186.9Z" fill="#EEFDFE"/>
<path d="M135.2 182.7C134.9 181.1 134.1 179.7 133.8 178.1C133.7 177.7 133.1 177.8 133.1 178.3C133.4 179.9 134.2 181.3 134.5 182.9C134.6 183.3 135.3 183.1 135.2 182.7Z" fill="#EEFDFE"/>
<path d="M141.8 173C142.6 171.9 143.6 170.9 144.6 170C144.9 169.7 144.4 169.2 144.1 169.5C143 170.5 142 171.5 141.2 172.7C141 173 141.6 173.4 141.8 173Z" fill="#EEFDFE"/>
<path d="M143.8 168.5C144.5 168 145.1 167.4 145.7 166.8C146 166.5 145.5 166 145.2 166.3C144.6 166.9 144.1 167.4 143.4 167.9C143.1 168.2 143.4 168.8 143.8 168.5Z" fill="#EEFDFE"/>
<path d="M139.8 161.9C138.9 164.4 139.3 167 139 169.6C138.9 170 139.6 170 139.7 169.6C140 167.1 139.7 164.5 140.5 162.1C140.6 161.6 140 161.5 139.8 161.9Z" fill="#EEFDFE"/>
<path d="M141.2 203.5C143.4 203.2 145.4 202.3 147.4 201.4C147.8 201.2 147.5 200.6 147.1 200.8C145.2 201.7 143.3 202.6 141.3 202.8C140.8 202.9 140.8 203.6 141.2 203.5Z" fill="#EEFDFE"/>
<path d="M140.9 201.6C142.1 201.4 143.3 201.1 144.5 200.7C144.9 200.5 144.7 199.9 144.3 200C143.1 200.4 141.9 200.7 140.7 200.9C140.3 201 140.5 201.6 140.9 201.6Z" fill="#EEFDFE"/>
<path d="M149 181.5C150.1 182.8 151.1 184.2 152.7 185C153.1 185.2 153.4 184.6 153 184.4C151.5 183.6 150.5 182.3 149.5 181C149.2 180.7 148.8 181.2 149 181.5Z" fill="#EEFDFE"/>
<path d="M149.6 178.2C150.1 179.3 150.5 180.4 151.3 181.3C151.6 181.6 152.1 181.2 151.8 180.8C151.1 179.9 150.7 178.9 150.2 177.9C150 177.4 149.4 177.8 149.6 178.2Z" fill="#EEFDFE"/>
<path d="M155.7 171.2C156.4 170.2 157.1 169.3 157.9 168.4C158.5 167.7 159.1 167.2 159.5 166.4C159.7 166 159.1 165.7 158.9 166.1C158.4 167 157.6 167.7 157 168.5C156.3 169.3 155.7 170.1 155.1 171C154.8 171.2 155.4 171.5 155.7 171.2Z" fill="#EEFDFE"/>
<path d="M157.1 166.2C157.5 165.4 158.1 164.7 158.6 164C158.9 163.6 158.3 163.3 158 163.7C157.5 164.4 156.9 165.1 156.5 165.9C156.3 166.2 156.9 166.6 157.1 166.2Z" fill="#EEFDFE"/>
<path d="M198 168C199.3 169.5 200.6 171 202.3 172C202.7 172.2 203 171.6 202.6 171.4C200.9 170.4 199.6 169 198.4 167.5C198.2 167.2 197.7 167.7 198 168Z" fill="#EEFDFE"/>
<path d="M200.2 167C201 167.9 201.6 169 202.5 169.8C202.8 170.1 203.3 169.6 203 169.3C202.1 168.5 201.5 167.4 200.7 166.5C200.4 166.1 199.9 166.6 200.2 167Z" fill="#EEFDFE"/>
<path d="M198.9 154.5C198.9 156 199 157.4 198.8 158.9C198.7 159.7 198.6 160.5 198.9 161.3C199.1 161.7 199.7 161.4 199.5 161C199.2 160.2 199.5 159.3 199.5 158.5C199.6 157.2 199.5 155.9 199.5 154.6C199.6 154 198.9 154 198.9 154.5Z" fill="#EEFDFE"/>
<path d="M197.4 152.3C197.6 153.7 197.5 155.1 197.3 156.5C197.2 156.9 197.9 157.1 198 156.7C198.2 155.2 198.3 153.7 198.1 152.1C198 151.6 197.4 151.8 197.4 152.3Z" fill="#EEFDFE"/>
<path d="M209.4 175.7C209.4 176.8 209.6 177.7 209.2 178.8C208.9 179.9 208.2 180.9 207.4 181.7C207.1 182 207.6 182.5 207.9 182.2C208.7 181.4 209.3 180.4 209.7 179.4C210.2 178.2 210.1 177 210 175.7C210.1 175.3 209.4 175.3 209.4 175.7Z" fill="#EEFDFE"/>
<path d="M208.3 185.4C209.1 184.6 209.9 184 210.5 183C210.7 182.6 210.1 182.3 209.9 182.7C209.3 183.6 208.5 184.2 207.8 184.9C207.5 185.3 208 185.7 208.3 185.4Z" fill="#EEFDFE"/>
<path d="M214.5 198.9C216.2 199.6 217.9 199 219.4 198.3C219.8 198.1 219.5 197.5 219.1 197.7C217.7 198.4 216.2 198.8 214.7 198.2C214.3 198.1 214.1 198.7 214.5 198.9Z" fill="#EEFDFE"/>
<path d="M216.6 197.3C217.5 197.3 218.4 197.2 219.2 196.8C219.6 196.6 219.4 196 219 196.1C218.2 196.4 217.4 196.5 216.6 196.5C216.1 196.6 216.1 197.3 216.6 197.3Z" fill="#EEFDFE"/>
<path d="M219.4 172.5C219.9 174.8 219.8 177.8 219.3 180.1C219.2 180.5 219.9 180.7 220 180.3C220.6 177.9 220.7 174.8 220.1 172.4C219.9 171.8 219.3 172 219.4 172.5Z" fill="#EEFDFE"/>
<path d="M217.9 170.5C217.6 172.1 217.8 173.8 217.8 175.4C217.8 175.8 218.5 175.8 218.5 175.4C218.5 173.8 218.3 172.2 218.6 170.6C218.6 170.3 218 170.1 217.9 170.5Z" fill="#EEFDFE"/>
<path d="M208.8 164.5C209.4 164.9 209.9 165.4 210.5 165.8C211.1 166.2 211.8 166.5 212.5 166.9C212.9 167.1 213.2 166.5 212.8 166.3C212.2 166 211.7 165.6 211.1 165.4C210.5 165.1 209.9 164.5 209.3 164.1C209 163.8 208.5 164.3 208.8 164.5Z" fill="#EEFDFE"/>
<path d="M136.5 244.3C135.9 245.9 135.1 247.4 134.3 248.8C134.1 249.2 134.7 249.5 134.9 249.1C135.7 247.6 136.5 246 137.1 244.4C137.3 244.1 136.6 243.9 136.5 244.3Z" fill="#EEFDFE"/>
<path d="M135.6 241.4C134.7 242.9 133.9 244.7 133.5 246.4C133.4 246.8 134.1 247 134.2 246.6C134.6 244.9 135.4 243.2 136.2 241.7C136.4 241.3 135.8 241 135.6 241.4Z" fill="#EEFDFE"/>
<path d="M136.8 220.7C138.6 220.1 140.3 219.2 142 218.5C142.4 218.3 142.2 217.7 141.8 217.8C140.1 218.5 138.4 219.4 136.6 220C136.2 220.2 136.4 220.9 136.8 220.7Z" fill="#EEFDFE"/>
<path d="M136.9 222.4C138 221.8 139.4 221.5 140.6 221.3C141 221.2 140.9 220.5 140.4 220.6C139.1 220.9 137.7 221.2 136.5 221.8C136.1 222 136.5 222.6 136.9 222.4Z" fill="#EEFDFE"/>
<path d="M150.8 216.2C149.5 217.8 148.3 219.5 147.3 221.3C147.1 221.7 147.7 222 147.9 221.6C148.9 219.8 150.1 218.2 151.3 216.6C151.5 216.4 151 215.9 150.8 216.2Z" fill="#EEFDFE"/>
<path d="M147.5 217.8C146.7 218.9 146.3 220.1 146.3 221.4C146.3 221.8 147 221.8 147 221.4C147 220.2 147.4 219.1 148.1 218.1C148.3 217.8 147.7 217.4 147.5 217.8Z" fill="#EEFDFE"/>
<path d="M147.4 232.2C147.8 231.5 148.4 231.1 149.1 230.7C149.8 230.3 150.4 229.8 151.1 229.4C151.5 229.2 151.1 228.6 150.8 228.8C149.5 229.6 147.7 230.4 146.9 231.8C146.5 232.3 147.1 232.6 147.4 232.2Z" fill="#EEFDFE"/>
<path d="M146.4 236.6C147.2 235.7 148.2 235 149.1 234.2C149.4 233.9 148.9 233.4 148.6 233.7C147.7 234.5 146.7 235.2 145.9 236.1C145.6 236.4 146.1 236.9 146.4 236.6Z" fill="#EEFDFE"/>
<path d="M152.9 232.3C153.3 233.8 153.7 235.3 153.8 236.8C153.8 237.2 154.5 237.2 154.5 236.8C154.4 235.2 153.9 233.7 153.6 232.1C153.4 231.7 152.8 231.8 152.9 232.3Z" fill="#EEFDFE"/>
<path d="M204.4 231.3C204.4 232.6 204 233.9 203.7 235.2C203.6 235.6 204.3 235.8 204.4 235.4C204.6 234 205.1 232.7 205.1 231.3C205.1 230.8 204.4 230.8 204.4 231.3Z" fill="#EEFDFE"/>
<path d="M205.2 233.4C205.2 234.7 205 235.9 204.4 237.2C204.2 237.6 204.8 238 205 237.5C205.6 236.2 205.8 234.8 205.9 233.4C205.9 233 205.2 233 205.2 233.4Z" fill="#EEFDFE"/>
<path d="M210.1 238.8C210.6 239.4 211.1 240 211.7 240.6C212.2 241.2 212.9 241.6 213.2 242.4C213.4 242.8 214 242.6 213.9 242.2C213.6 241.5 213.1 241 212.6 240.5C211.9 239.9 211.3 239.1 210.7 238.4C210.3 237.9 209.8 238.4 210.1 238.8Z" fill="#EEFDFE"/>
<path d="M210.2 237.2C210.6 237.5 210.9 237.9 211.2 238.2C211.3 238.4 211.5 238.6 211.6 238.7C211.9 238.9 212.1 239.1 212.3 239.4C212.5 239.8 213.1 239.5 212.9 239.1C212.7 238.6 212.2 238.4 211.8 238C211.4 237.5 211.1 237.1 210.6 236.7C210.4 236.4 209.9 236.9 210.2 237.2Z" fill="#EEFDFE"/>
<path d="M205.1 214C206.1 212.2 208 211.4 209.7 210.7C210.1 210.5 209.9 209.9 209.5 210C207.5 210.8 205.5 211.7 204.4 213.6C204.3 214 204.9 214.4 205.1 214Z" fill="#EEFDFE"/>
<path d="M207.9 213.4C208.5 213.2 209 212.8 209.6 212.6C210.1 212.4 210.6 212.2 211.1 212C211.5 211.8 211.2 211.2 210.8 211.4C210.3 211.6 209.8 211.8 209.3 212C208.7 212.3 208.2 212.6 207.6 212.8C207.1 213 207.5 213.6 207.9 213.4Z" fill="#EEFDFE"/>
<path d="M210 216.5C211.3 216.3 212.4 216.3 213.7 216.5C214.1 216.6 214.3 215.9 213.9 215.8C212.5 215.6 211.2 215.6 209.8 215.8C209.4 215.9 209.5 216.5 210 216.5Z" fill="#EEFDFE"/>
<path d="M219 224.5C219.2 225.4 219.3 226.3 219.2 227.3C219.2 228 219.1 228.9 218.7 229.5C218.4 229.8 218.9 230.3 219.2 230C220.3 228.6 220 226 219.6 224.4C219.6 223.9 218.9 224.1 219 224.5Z" fill="#EEFDFE"/>
<path d="M220.4 228.2C220.2 228.8 220 229.5 219.9 230.1C219.7 230.7 219.7 231.4 219.4 231.9C219.2 232.3 219.8 232.6 220 232.2C220.2 231.7 220.3 231.2 220.4 230.7C220.6 229.9 220.9 229.1 221.1 228.3C221.2 227.9 220.5 227.7 220.4 228.2Z" fill="#EEFDFE"/>
<path d="M176 232.5C175.8 233.6 176.5 235.5 177.9 235.6C179.6 235.8 180.2 234 180.3 232.6C180.1 232.6 179.8 232.6 179.6 232.6C179.7 233.6 180.3 235.3 181.5 235.4C183.1 235.5 183.6 233.7 183.9 232.5C184 232.1 183.4 231.9 183.2 232.3C183 232.8 182.9 233.3 182.7 233.8C181.8 235.8 180.3 233.6 180.3 232.6C180.3 232.2 179.6 232.2 179.6 232.6C179.6 233.2 179.4 233.8 179.1 234.4C178.2 236.1 176.5 233.8 176.7 232.7C176.8 232.3 176.1 232.1 176 232.5Z" fill="#B21E34"/>
<path d="M182.9 170.6C183.4 169.8 183.7 168.9 183.3 168.6C182.9 168.3 181.9 168.7 181.2 169.6C181 169.9 180.9 170.1 180.8 170.4C180.7 170.2 180.6 170.1 180.5 169.9C179.8 169.1 178.9 168.6 178.5 168.9C178.2 169.2 178.3 170.3 179 171.1C178 171.3 177.2 171.8 177.3 172.2C177.4 172.7 178.3 173.1 179.4 173C180.2 172.9 180.9 172.5 181.2 172.1C181.6 172.3 182.1 172.5 182.7 172.5C183.8 172.6 184.8 172.2 184.8 171.8C184.8 171.3 183.9 170.7 182.9 170.6Z" fill="#B21E34"/>
<path d="M183.2 217.3C183.6 216.9 184.6 215.7 183.8 215.2C183.4 214.9 182.5 215.7 182.1 216C181.8 216.2 181.5 216.4 181.2 216.7C180.7 217.2 180.6 218 181.4 218.4C182.4 218.7 182.7 217.8 183.2 217.3Z" fill="#B1354E"/>
<path d="M170.1 229.9C170.763 229.9 171.3 229.363 171.3 228.7C171.3 228.037 170.763 227.5 170.1 227.5C169.437 227.5 168.9 228.037 168.9 228.7C168.9 229.363 169.437 229.9 170.1 229.9Z" fill="#EEFDFE"/>
<path d="M189.9 230.2C190.563 230.2 191.1 229.663 191.1 229C191.1 228.337 190.563 227.8 189.9 227.8C189.237 227.8 188.7 228.337 188.7 229C188.7 229.663 189.237 230.2 189.9 230.2Z" fill="#EEFDFE"/>
<path d="M13.7 151.4H-69.9V183.4H13.7V151.4Z" fill="#F0968E"/>
<path d="M427.9 151.9H344.3V183.9H427.9V151.9Z" fill="#F0968E"/>
<path d="M395 113.7H311.4V145.7H395V113.7Z" fill="#F6BBB5"/>
<path d="M56.8 113.2H-26.8V145.2H56.8V113.2Z" fill="#F6BBB5"/>
<path d="M365.5 75.5H281.9V107.5H365.5V75.5Z" fill="#F0968E"/>
<path d="M74.2 74.9H-9.39999V106.9H74.2V74.9Z" fill="#F0968E"/>
<path d="M337.6 37.3H254V69.3H337.6V37.3Z" fill="#F6BBB5"/>
<path d="M426.6 37.3H343V69.3H426.6V37.3Z" fill="#F0968E"/>
<path d="M15 36.7H-68.6V68.7H15V36.7Z" fill="#F0968E"/>
<path d="M104 36.7H20.4V68.7H104V36.7Z" fill="#F6BBB5"/>
<path d="M46.6 189.6H-37V221.6H46.6V189.6Z" fill="#F6BBB5"/>
<path d="M384.7 190.1H301.1V222.1H384.7V190.1Z" fill="#F6BBB5"/>
<path d="M76.1 227.8H-7.5V259.8H76.1V227.8Z" fill="#F0968E"/>
<path d="M367.4 228.4H283.8V260.4H367.4V228.4Z" fill="#F0968E"/>
<path d="M104 266H20.4V298H104V266Z" fill="#F6BBB5"/>
<path d="M15 266H-68.6V298H15V266Z" fill="#F0968E"/>
<path d="M426.6 266.6H343V298.6H426.6V266.6Z" fill="#F0968E"/>
<path d="M337.6 266.6H254V298.6H337.6V266.6Z" fill="#F6BBB5"/>
<path d="M398.4 0.799988H314.8V32.8H398.4V0.799988Z" fill="#F0968E"/>
<path d="M43.2 0H-40.4V32H43.2V0Z" fill="#F6BBB5"/>
<path d="M132.3 0H48.7V32H132.3V0Z" fill="#F0968E"/>
<path d="M221.3 0H137.7V32H221.3V0Z" fill="#F0968E"/>
<path d="M310.3 0H226.7V32H310.3V0Z" fill="#F6BBB5"/>
<path d="M398.4 302H314.8V334H398.4V302Z" fill="#F0968E"/>
<path d="M43.2 301.1H-40.4V333.1H43.2V301.1Z" fill="#F6BBB5"/>
<path d="M132.3 301.1H48.7V333.1H132.3V301.1Z" fill="#F0968E"/>
<path d="M221.3 301.1H137.7V333.1H221.3V301.1Z" fill="#F0968E"/>
<path d="M310.3 301.1H226.7V333.1H310.3V301.1Z" fill="#F6BBB5"/>
</g>
<defs>
<clipPath id="clip0_57_19049">
<rect width="358" height="334" rx="8" fill="white"/>
</clipPath>
</defs>
</svg>
