<svg width="41" height="38" viewBox="0 0 41 38" fill="none" xmlns="http://www.w3.org/2000/svg">
<path d="M23.9673 4.26632C23.9673 6.4103 22.2297 8.14791 20.0857 8.14791C17.9417 8.14791 16.2041 6.4103 16.2041 4.26632C16.2041 2.12234 17.9417 0.384735 20.0857 0.384735C22.2297 0.384735 23.9673 2.12234 23.9673 4.26632Z" fill="#F8CBC7"/>
<g opacity="0.8">
<path d="M23.472 4.26637C23.5187 4.1169 23.5514 3.86466 23.5281 3.56105C23.4907 3.26211 23.4113 2.90711 23.2572 2.5708C23.0984 2.23449 22.8788 1.91686 22.6406 1.65529C22.3977 1.39371 22.1455 1.19753 21.9446 1.05273C21.627 0.84721 21.3607 0.730435 21.1552 0.641687C20.9731 0.585635 21.4121 0.674383 21.9446 1.05273C22.1875 1.20688 22.4491 1.42174 22.7153 1.71134C22.4397 1.29095 22.0707 0.949971 21.7765 0.730435C21.5429 0.60899 21.2907 0.510899 21.0244 0.440834C19.8567 0.113866 18.5955 0.380112 17.6053 1.08543C17.4231 1.20688 17.1569 1.4451 16.928 1.71134C16.7038 1.98226 16.5029 2.27653 16.3955 2.46804C16.8019 1.65062 17.4885 0.982668 18.3106 0.599648C19.128 0.202614 20.0716 0.118537 20.9497 0.314718C20.903 0.296034 20.8563 0.286692 20.8096 0.272679C19.8847 0.0624848 18.8758 0.211956 18.021 0.665042C17.8809 0.749119 17.7314 0.828526 17.5913 0.926617C17.7267 0.823855 17.8715 0.744448 18.021 0.665042C18.3947 0.454847 18.7824 0.27735 19.2448 0.174588C19.3896 0.155904 19.5437 0.137221 19.6979 0.13255C19.852 0.13255 20.0062 0.13255 20.151 0.137221C20.3892 0.151233 20.5994 0.207285 20.8096 0.27735C20.9497 0.296034 21.0805 0.352086 21.2206 0.389454C21.2627 0.394125 21.3047 0.403466 21.3467 0.417479C21.2767 0.347415 21.0104 0.202614 20.6134 0.104524C20.2164 0.011104 19.6885 -0.0402768 19.1467 0.0391299C18.6095 0.113866 18.077 0.310047 17.68 0.552938C17.283 0.791158 17.0074 1.04339 16.9 1.16484C16.5496 1.5572 16.4048 2.02897 16.1946 2.53343C16.1199 2.70159 16.0405 2.84172 16.0218 2.98185C16.0358 3.00053 16.0358 3.07527 16.0358 3.14533C15.9424 3.49099 15.821 3.85065 15.8817 4.13558C15.8864 4.31775 15.5781 4.91096 15.6622 4.95767C15.9377 5.07445 15.7135 4.99037 15.8163 5.47148C15.821 5.53221 15.9798 5.68168 16.0125 5.79378C16.0966 6.18147 16.2273 6.25621 16.4842 6.61587C16.6991 6.86344 16.8112 7.03159 16.9327 7.17639C17.0494 7.32586 17.1896 7.45198 17.4605 7.5781C17.4978 7.58744 17.6987 7.72757 17.9136 7.81632C18.1191 7.91908 18.334 7.98447 18.334 7.98447C18.9552 8.29276 19.3896 8.24137 19.9081 8.45157C20.221 8.40019 20.5714 8.36749 20.9404 8.33012C21.3 8.2694 21.6737 8.19466 21.9633 8.02184C22.5332 7.68553 22.8181 7.61079 23.3272 7.24646C23.458 7.12968 23.5328 7.02225 23.6215 6.95685C23.7149 6.89613 23.7803 6.63923 23.8784 6.49443L23.9158 6.56449C23.9485 6.51778 24.0232 6.42436 24.0559 6.37298C24.0886 6.3216 24.1026 6.34496 24.112 6.37298C24.14 6.41969 24.1633 6.47107 24.2427 6.387C24.3969 6.1768 24.5183 5.93858 24.6304 5.68168C24.6725 5.41076 24.6958 5.14451 24.6865 4.88294C24.6585 4.86425 24.6304 4.8409 24.6118 4.80353C24.6118 4.7288 24.5884 4.64939 24.5791 4.57465C24.5137 4.52794 24.4389 4.53729 24.3969 4.50459C24.2054 4.49058 24.0326 4.21032 23.8551 4.27571C23.799 4.29907 23.7803 4.65873 23.6542 4.79886C23.6215 4.83156 23.5701 4.73814 23.5094 4.6961C23.4814 4.88761 23.4066 4.88294 23.3553 4.79886C23.3412 4.8409 23.3319 4.88294 23.3319 4.88294C23.3132 4.86893 23.2478 4.82689 23.2478 4.82689C23.089 5.27063 22.7574 5.63964 22.5799 6.02266C22.5332 6.10207 22.4865 6.25621 22.4397 6.3543C22.4164 6.40101 22.3136 6.46173 22.2809 6.48509C22.2716 6.57851 22.3276 6.62522 22.351 6.69528C22.2062 6.7887 21.9726 6.91949 21.7811 7.01758C21.599 7.12968 21.4448 7.21376 21.5055 7.32586C21.2486 7.41928 21.2346 7.55474 20.945 7.63882C20.5667 7.75559 20.0529 7.81164 19.5531 7.73691C19.2775 7.71355 19.0253 7.62948 18.7777 7.53606C18.6843 7.50336 18.6002 7.45198 18.5161 7.41461C17.6146 6.9662 17.0681 6.18614 16.8252 5.38273C16.587 4.56998 16.587 3.69184 16.914 2.76698C17.2456 1.82812 18.0911 1.02938 19.072 0.758461C20.0529 0.464189 21.0945 0.665042 21.8185 1.1228C22.5518 1.58523 22.9956 2.24383 23.1871 2.79501C23.3926 3.34619 23.3926 3.78526 23.402 4.00947L23.5001 4.27571L23.472 4.26637Z" fill="#601D1F"/>
</g>
<path d="M27.2274 7.82089C27.6851 5.72829 29.7544 4.40173 31.847 4.85949C33.9396 5.31724 35.2661 7.38649 34.8084 9.47909C34.3506 11.5717 32.2814 12.8982 30.1888 12.4405C28.0962 11.9827 26.7696 9.91349 27.2274 7.82089Z" fill="#F8CBC7"/>
<g opacity="0.8">
<path d="M27.7088 7.92369C27.6294 8.05915 27.5453 8.29737 27.5033 8.60098C27.4753 8.89992 27.4753 9.26426 27.5593 9.6286C27.6434 9.99293 27.7929 10.3479 27.9657 10.6562C28.1479 10.9598 28.3534 11.2121 28.5169 11.3942C28.7831 11.6651 29.0213 11.8333 29.1988 11.9641C29.3623 12.0575 28.9513 11.8753 28.5169 11.3942C28.3114 11.1934 28.1012 10.9225 27.905 10.5861C28.0825 11.0532 28.3721 11.469 28.615 11.7446C28.8158 11.9127 29.0447 12.0622 29.2876 12.1883C30.3572 12.7582 31.6464 12.7675 32.7675 12.2864C32.973 12.207 33.2813 12.0295 33.5662 11.8193C33.8418 11.5998 34.1034 11.3569 34.2482 11.1934C33.6783 11.908 32.8609 12.4125 31.9781 12.6087C31.0953 12.8189 30.1517 12.7021 29.339 12.3238C29.381 12.3518 29.423 12.3705 29.4651 12.3938C30.3245 12.7955 31.3382 12.8656 32.2723 12.6087C32.4312 12.5573 32.59 12.5106 32.7488 12.4405C32.5946 12.5106 32.4358 12.5573 32.2723 12.6087C31.8613 12.7301 31.4456 12.8235 30.9738 12.8282C30.829 12.8189 30.6749 12.8002 30.5207 12.7722C30.3713 12.7348 30.2171 12.7068 30.077 12.6694C29.8481 12.604 29.6566 12.5059 29.4651 12.3938C29.3343 12.3424 29.2129 12.263 29.0867 12.1976C29.0494 12.1836 29.0073 12.1649 28.97 12.1416C29.026 12.2257 29.2502 12.4218 29.6192 12.604C29.9882 12.7815 30.4927 12.945 31.0345 12.9824C31.5764 13.0244 32.1369 12.945 32.576 12.7955C33.015 12.6507 33.3373 12.4639 33.4681 12.3658C33.8932 12.0575 34.1361 11.6278 34.449 11.184C34.5565 11.0346 34.6639 10.9178 34.7153 10.7823C34.7059 10.759 34.7199 10.6889 34.7386 10.6188C34.9021 10.3012 35.0983 9.97425 35.103 9.68465C35.1357 9.50715 35.5654 8.98867 35.4953 8.92795C35.2524 8.75045 35.4486 8.88591 35.4533 8.39546C35.4626 8.33473 35.3365 8.15724 35.3318 8.04046C35.3318 7.64343 35.2197 7.54067 35.0469 7.13429C34.8881 6.84469 34.818 6.65785 34.7293 6.4897C34.6452 6.31687 34.5378 6.16273 34.2996 5.98523C34.2669 5.96655 34.0987 5.78905 33.9072 5.65826C33.725 5.51346 33.5335 5.40603 33.5335 5.40603C32.9917 4.97163 32.5573 4.92959 32.0949 4.61663C31.7772 4.60262 31.4269 4.55591 31.0626 4.51854C30.6982 4.50453 30.3152 4.49519 29.9976 4.60262C29.367 4.80814 29.0727 4.82215 28.5029 5.06972C28.3487 5.15379 28.2506 5.24254 28.1572 5.28925C28.0545 5.32662 27.933 5.56484 27.8069 5.68629L27.7882 5.60688C27.7462 5.64892 27.6527 5.72365 27.6107 5.76569C27.5687 5.80773 27.5593 5.78438 27.5547 5.75635C27.5406 5.70497 27.522 5.64892 27.4285 5.71431C27.2324 5.88714 27.0595 6.09733 26.9007 6.32154C26.8026 6.57844 26.7186 6.83535 26.6765 7.09225C26.6999 7.11561 26.7232 7.14363 26.7326 7.18567C26.7186 7.26041 26.7232 7.33981 26.7139 7.41455C26.7653 7.47527 26.84 7.47994 26.8774 7.52198C27.0595 7.57803 27.167 7.88632 27.3585 7.85829C27.4192 7.84895 27.5126 7.49863 27.6668 7.3912C27.7041 7.36784 27.7322 7.46593 27.7835 7.52198C27.8536 7.33981 27.9237 7.3585 27.9564 7.45659C27.975 7.41922 27.9984 7.37718 27.9984 7.37718C28.0171 7.39587 28.0685 7.45192 28.0685 7.45192C28.3207 7.05021 28.7224 6.76528 28.9746 6.42897C29.0354 6.36358 29.1148 6.21878 29.1848 6.1347C29.2175 6.09266 29.3296 6.05529 29.3717 6.04128C29.3997 5.95253 29.3577 5.89648 29.3483 5.82175C29.5118 5.76102 29.7687 5.68629 29.9742 5.63023C30.1798 5.5555 30.3432 5.50879 30.3059 5.38734C30.5768 5.34998 30.6188 5.21919 30.9178 5.2005C31.3101 5.16781 31.8286 5.22386 32.2957 5.40136C32.562 5.48076 32.7908 5.62089 33.0104 5.76569C33.0944 5.82175 33.1692 5.88247 33.2392 5.93852C34.024 6.5691 34.3883 7.44725 34.4584 8.28335C34.5191 9.1288 34.3323 9.98826 33.8138 10.8197C33.2906 11.6651 32.2957 12.263 31.2774 12.3191C30.2592 12.3938 29.2829 11.9781 28.671 11.3755C28.0545 10.7636 27.7602 10.0256 27.6901 9.4511C27.606 8.86723 27.6995 8.4375 27.7415 8.21796L27.6995 7.9377L27.7088 7.92369Z" fill="#601D1F"/>
</g>
<path d="M31.0198 34.9921C33.1636 34.9921 34.9014 33.2542 34.9014 31.1105C34.9014 28.9668 33.1636 27.2289 31.0198 27.2289C28.8761 27.2289 27.1382 28.9668 27.1382 31.1105C27.1382 33.2542 28.8761 34.9921 31.0198 34.9921Z" fill="#F8CBC7"/>
<g opacity="0.8">
<path d="M27.6339 31.1806C27.5918 31.3347 27.5638 31.5823 27.5918 31.8859C27.6339 32.1848 27.7226 32.5351 27.8861 32.8715C28.0543 33.2031 28.2785 33.5207 28.5214 33.7776C28.7689 34.0299 29.0258 34.226 29.2314 34.3662C29.5536 34.567 29.8246 34.6745 30.0301 34.7585C30.2123 34.8146 29.7685 34.7305 29.2314 34.3662C28.9838 34.2167 28.7175 34.0065 28.4466 33.7216C28.7269 34.1326 29.1052 34.4689 29.4088 34.6838C29.6471 34.8006 29.8993 34.8893 30.1655 34.9594C31.338 35.263 32.5945 34.9687 33.5707 34.24C33.7529 34.1139 34.0098 33.871 34.2386 33.6001C34.4582 33.3245 34.6497 33.0256 34.7525 32.8341C34.3648 33.6608 33.6921 34.3428 32.8794 34.7398C32.0713 35.1509 31.1278 35.2583 30.2496 35.0808C30.2963 35.0995 30.343 35.1089 30.3898 35.1182C31.3193 35.305 32.3235 35.1369 33.169 34.6651C33.3091 34.581 33.4539 34.4923 33.5894 34.3942C33.4586 34.497 33.3138 34.581 33.169 34.6651C32.8 34.88 32.417 35.0715 31.9592 35.1836C31.8144 35.2069 31.6603 35.2256 31.5061 35.2396C31.352 35.2396 31.1978 35.249 31.053 35.2396C30.8148 35.2303 30.6046 35.1789 30.3898 35.1135C30.2496 35.0948 30.1142 35.0435 29.9787 35.0108C29.9367 35.0061 29.8946 35.0014 29.8526 34.9827C29.9227 35.0528 30.1889 35.1883 30.5906 35.277C30.9876 35.3658 31.5201 35.4031 32.0573 35.3097C32.5945 35.2256 33.1223 35.0154 33.51 34.7632C33.9023 34.5203 34.1733 34.2587 34.276 34.1373C34.617 33.7403 34.7525 33.2638 34.9533 32.7547C35.0234 32.5865 35.1028 32.4464 35.1168 32.3016C35.1028 32.2829 35.0981 32.2082 35.0981 32.1381C35.1822 31.7878 35.299 31.4281 35.2336 31.1432C35.2242 30.961 35.5232 30.3585 35.4344 30.3164C35.1542 30.2043 35.3784 30.2837 35.2663 29.8073C35.2616 29.7466 35.0981 29.6018 35.0654 29.4897C34.972 29.102 34.8412 29.0319 34.5796 28.6769C34.3601 28.434 34.248 28.2705 34.1172 28.1257C33.9958 27.9763 33.8556 27.8548 33.58 27.738C33.5427 27.7287 33.3418 27.5932 33.1223 27.5138C32.9121 27.4157 32.7019 27.355 32.7019 27.355C32.0713 27.0608 31.6416 27.1215 31.1184 26.9253C30.8055 26.986 30.4552 27.0234 30.0908 27.0701C29.7358 27.1402 29.3575 27.2242 29.0725 27.4017C28.5073 27.7521 28.2271 27.8315 27.7273 28.2051C27.5965 28.3219 27.5264 28.434 27.4424 28.4994C27.3489 28.5601 27.2929 28.8217 27.1948 28.9665L27.1574 28.8964C27.1247 28.9478 27.05 29.0412 27.022 29.0926C26.994 29.144 26.9799 29.1207 26.9659 29.0926C26.9379 29.0459 26.9099 28.9945 26.8351 29.0786C26.6857 29.2935 26.5689 29.5364 26.4661 29.7933C26.4334 30.0642 26.4101 30.3351 26.4288 30.5967C26.4568 30.6154 26.4848 30.6341 26.5082 30.6714C26.5082 30.7462 26.5315 30.8256 26.5455 30.9003C26.6109 30.947 26.6857 30.933 26.7277 30.9657C26.9192 30.9797 27.0967 31.2506 27.2742 31.1806C27.3303 31.1572 27.3396 30.7975 27.4657 30.6527C27.4984 30.62 27.5498 30.7088 27.6105 30.7508C27.6385 30.5593 27.7086 30.5593 27.76 30.6434C27.7693 30.6014 27.7833 30.5593 27.7833 30.5593C27.802 30.5733 27.8674 30.6154 27.8674 30.6154C28.0169 30.167 28.3439 29.7933 28.5073 29.4056C28.5541 29.3262 28.5914 29.1674 28.6428 29.0739C28.6662 29.0226 28.7643 28.9618 28.8016 28.9385C28.811 28.8451 28.7502 28.7984 28.7269 28.7283C28.8717 28.6302 29.1006 28.4994 29.2921 28.392C29.4742 28.2752 29.6237 28.1865 29.5583 28.0744C29.8152 27.9716 29.8246 27.8361 30.1095 27.7474C30.4832 27.6213 30.997 27.5559 31.4968 27.6166C31.7724 27.6306 32.0293 27.7147 32.2768 27.8034C32.3703 27.8361 32.459 27.8828 32.5431 27.9155C33.4539 28.3453 34.0144 29.1113 34.2807 29.9101C34.5376 30.7181 34.5563 31.5963 34.248 32.5258C33.9397 33.4693 33.1083 34.2868 32.132 34.581C31.1605 34.894 30.1142 34.7212 29.3762 34.2727C28.6335 33.8243 28.1757 33.1751 27.9702 32.6286C27.7507 32.0821 27.7413 31.643 27.7273 31.4188L27.6245 31.1572L27.6339 31.1806Z" fill="#601D1F"/>
</g>
<path d="M9.05746 34.9921C11.2012 34.9921 12.939 33.2543 12.939 31.1106C12.939 28.9668 11.2012 27.229 9.05746 27.229C6.91372 27.229 5.17587 28.9668 5.17587 31.1106C5.17587 33.2543 6.91372 34.9921 9.05746 34.9921Z" fill="#F8CBC7"/>
<g opacity="0.8">
<path d="M12.444 31.1105C12.4907 30.9611 12.5234 30.7088 12.5 30.4052C12.4627 30.1063 12.3833 29.7513 12.2291 29.415C12.0703 29.0787 11.8508 28.761 11.6126 28.4995C11.3697 28.2379 11.1174 28.0417 10.9166 27.8969C10.5989 27.6914 10.3327 27.5746 10.1272 27.4859C9.94501 27.4298 10.3841 27.5186 10.9166 27.8969C11.1595 28.0511 11.421 28.2659 11.6873 28.5555C11.4117 28.1351 11.0427 27.7941 10.7484 27.5746C10.5149 27.4532 10.2626 27.3551 9.99639 27.285C8.82865 26.958 7.56748 27.2243 6.57723 27.9296C6.39507 28.0511 6.12882 28.2893 5.89994 28.5555C5.67573 28.8264 5.47488 29.1207 5.36745 29.3122C5.77382 28.4948 6.46046 27.8268 7.28255 27.4438C8.09997 27.0468 9.04351 26.9627 9.92166 27.1589C9.87495 27.1402 9.82824 27.1309 9.78153 27.1169C8.85667 26.9067 7.84774 27.0561 6.99295 27.5092C6.85282 27.5933 6.70335 27.6727 6.56322 27.7708C6.69868 27.668 6.84348 27.5886 6.99295 27.5092C7.36663 27.299 7.75432 27.1215 8.21675 27.0188C8.36155 27.0001 8.51569 26.9814 8.66983 26.9767C8.82398 26.9767 8.97812 26.9767 9.12292 26.9814C9.36114 26.9954 9.57133 27.0515 9.78153 27.1215C9.92166 27.1402 10.0524 27.1963 10.1926 27.2336C10.2346 27.2383 10.2767 27.2476 10.3187 27.2617C10.2486 27.1916 9.98238 27.0468 9.58535 26.9487C9.18831 26.8553 8.66049 26.8039 8.11866 26.8833C7.58149 26.958 7.049 27.1542 6.65197 27.3971C6.25494 27.6353 5.97935 27.8876 5.87192 28.009C5.52159 28.4014 5.37679 28.8731 5.1666 29.3776C5.09186 29.5458 5.01245 29.6859 4.99377 29.826C5.00778 29.8447 5.00778 29.9194 5.00778 29.9895C4.91436 30.3352 4.79292 30.6948 4.85364 30.9798C4.85831 31.1619 4.55003 31.7551 4.6341 31.8018C4.90969 31.9186 4.68549 31.8345 4.78825 32.3157C4.79292 32.3764 4.95173 32.5259 4.98443 32.638C5.06851 33.0256 5.19929 33.1004 5.4562 33.46C5.67106 33.7076 5.78317 33.8758 5.90461 34.0206C6.02139 34.17 6.16152 34.2962 6.43243 34.4223C6.4698 34.4316 6.67065 34.5717 6.88552 34.6605C7.09104 34.7633 7.30591 34.8286 7.30591 34.8286C7.92715 35.1369 8.36155 35.0856 8.88003 35.2957C9.19298 35.2444 9.54331 35.2117 9.91231 35.1743C10.272 35.1136 10.6457 35.0388 10.9353 34.866C11.5051 34.5297 11.7901 34.455 12.2992 34.0906C12.43 33.9739 12.5047 33.8664 12.5935 33.801C12.6869 33.7403 12.7523 33.4834 12.8504 33.3386L12.8877 33.4087C12.9204 33.362 12.9952 33.2685 13.0279 33.2172C13.0606 33.1658 13.0746 33.1891 13.0839 33.2172C13.1119 33.2639 13.1353 33.3152 13.2147 33.2312C13.3688 33.021 13.4903 32.7828 13.6024 32.5259C13.6444 32.2549 13.6678 31.9887 13.6584 31.7271C13.6304 31.7084 13.6024 31.6851 13.5837 31.6477C13.5837 31.573 13.5604 31.4936 13.551 31.4188C13.4856 31.3721 13.4109 31.3815 13.3688 31.3488C13.1773 31.3348 13.0045 31.0545 12.827 31.1199C12.771 31.1432 12.7523 31.5029 12.6262 31.643C12.5935 31.6757 12.5421 31.5823 12.4814 31.5403C12.4533 31.7318 12.3786 31.7271 12.3272 31.643C12.3132 31.6851 12.3039 31.7271 12.3039 31.7271C12.2852 31.7131 12.2198 31.6711 12.2198 31.6711C12.061 32.1148 11.7293 32.4838 11.5518 32.8668C11.5051 32.9462 11.4584 33.1004 11.4117 33.1985C11.3883 33.2452 11.2856 33.3059 11.2529 33.3293C11.2435 33.4227 11.2996 33.4694 11.323 33.5395C11.1782 33.6329 10.9446 33.7637 10.7531 33.8618C10.5709 33.9739 10.4168 34.0579 10.4775 34.17C10.2206 34.2635 10.2066 34.3989 9.91699 34.483C9.53864 34.5998 9.02483 34.6558 8.52503 34.5811C8.24945 34.5577 7.99721 34.4737 7.74965 34.3802C7.65623 34.3475 7.57215 34.2962 7.48807 34.2588C6.58658 33.8104 6.04007 33.0303 5.79718 32.2269C5.55896 31.4142 5.55896 30.536 5.88593 29.6112C6.21757 28.6723 7.06302 27.8736 8.04392 27.6026C9.02483 27.3084 10.0665 27.5092 10.7905 27.967C11.5238 28.4294 11.9675 29.088 12.1591 29.6392C12.3646 30.1904 12.3646 30.6294 12.3739 30.8536L12.472 31.1199L12.444 31.1105Z" fill="#601D1F"/>
</g>
<path d="M12.939 8.64764C12.939 10.7916 11.2014 12.5292 9.05746 12.5292C6.91348 12.5292 5.17587 10.7916 5.17587 8.64764C5.17587 6.50366 6.91348 4.76605 9.05746 4.76605C11.2014 4.76605 12.939 6.50366 12.939 8.64764Z" fill="#F8CBC7"/>
<g opacity="0.8">
<path d="M12.444 8.64769C12.4907 8.49822 12.5234 8.24598 12.5 7.94237C12.4627 7.64343 12.3833 7.28843 12.2291 6.94745C12.0703 6.61114 11.8508 6.29351 11.6126 6.03194C11.3697 5.77036 11.1174 5.57418 10.9166 5.42938C10.5989 5.22386 10.3327 5.10708 10.1272 5.01833C9.94501 4.96228 10.3841 5.05103 10.9166 5.42938C11.1595 5.58352 11.421 5.79839 11.6873 6.08799C11.4117 5.6676 11.0427 5.32662 10.7484 5.10708C10.5149 4.98564 10.2626 4.88755 9.99639 4.81748C8.82865 4.49051 7.56748 4.75676 6.57723 5.46208C6.39507 5.58352 6.12882 5.82174 5.89994 6.08799C5.67573 6.35891 5.47488 6.65318 5.36745 6.84469C5.77382 6.02727 6.46046 5.35932 7.28255 4.9763C8.09997 4.57926 9.04351 4.49518 9.92166 4.69137C9.87495 4.67268 9.82824 4.66334 9.78153 4.64933C8.85667 4.43913 7.84774 4.5886 6.99295 5.04169C6.85282 5.12577 6.70335 5.20517 6.56322 5.30326C6.69868 5.2005 6.84348 5.1211 6.99295 5.04169C7.36663 4.8315 7.75432 4.654 8.21675 4.55124C8.36155 4.53255 8.51569 4.51387 8.66983 4.5092C8.82398 4.5092 8.97812 4.5092 9.12292 4.51387C9.36114 4.52788 9.57133 4.58393 9.78153 4.654C9.92166 4.67268 10.0524 4.72873 10.1926 4.7661C10.2346 4.77077 10.2767 4.78011 10.3187 4.79413C10.2486 4.72406 9.98238 4.57926 9.58535 4.48117C9.18831 4.38775 8.66049 4.33637 8.11866 4.41578C7.58149 4.49051 7.049 4.68669 6.65197 4.92959C6.25494 5.16781 5.97935 5.42004 5.87192 5.54148C5.52159 5.93385 5.37679 6.40562 5.1666 6.91008C5.09186 7.07824 5.01245 7.21837 4.99377 7.3585C5.00778 7.37718 5.00778 7.45192 5.00778 7.52198C4.91436 7.86763 4.79292 8.2273 4.85364 8.51223C4.85831 8.6944 4.55003 9.28761 4.6341 9.33432C4.90969 9.4511 4.68549 9.36702 4.78825 9.84813C4.79292 9.90885 4.95173 10.0583 4.98443 10.1704C5.06851 10.5581 5.19929 10.6329 5.4562 10.9925C5.67106 11.2401 5.78317 11.4082 5.90461 11.553C6.02139 11.7025 6.16152 11.8286 6.43243 11.9547C6.4698 11.9641 6.67065 12.1042 6.88552 12.193C7.09104 12.2957 7.30591 12.3611 7.30591 12.3611C7.92715 12.6694 8.36155 12.618 8.88003 12.8282C9.19298 12.7768 9.54331 12.7441 9.91231 12.7068C10.272 12.646 10.6457 12.5713 10.9353 12.3985C11.5051 12.0622 11.7901 11.9828 12.2992 11.6231C12.43 11.5063 12.5047 11.3989 12.5935 11.3335C12.6869 11.2728 12.7523 11.0159 12.8504 10.8711L12.8877 10.9411C12.9204 10.8944 12.9952 10.801 13.0279 10.7496C13.0606 10.6982 13.0746 10.7216 13.0839 10.7496C13.1119 10.7963 13.1353 10.8477 13.2147 10.7636C13.3688 10.5534 13.4903 10.3152 13.6024 10.0583C13.6444 9.78741 13.6678 9.52116 13.6584 9.25959C13.6304 9.2409 13.6024 9.21755 13.5837 9.18018C13.5837 9.10544 13.5604 9.02604 13.551 8.9513C13.4856 8.90459 13.4109 8.91393 13.3688 8.88124C13.1773 8.86722 13.0045 8.58697 12.827 8.65236C12.771 8.67571 12.7523 9.03538 12.6262 9.17551C12.5935 9.20821 12.5421 9.11479 12.4814 9.07275C12.4533 9.26426 12.3786 9.25959 12.3272 9.17551C12.3132 9.21755 12.3039 9.25959 12.3039 9.25959C12.2852 9.24557 12.2198 9.20353 12.2198 9.20353C12.061 9.64728 11.7293 10.0163 11.5518 10.3993C11.5051 10.4787 11.4584 10.6329 11.4117 10.7309C11.3883 10.7777 11.2856 10.8384 11.2529 10.8617C11.2435 10.9552 11.2996 11.0019 11.323 11.0719C11.1782 11.1653 10.9446 11.2961 10.7531 11.3942C10.5709 11.5063 10.4168 11.5904 10.4775 11.7025C10.2206 11.7959 10.2066 11.9314 9.91699 12.0155C9.53864 12.1322 9.02483 12.1883 8.52503 12.1136C8.24945 12.0902 7.99721 12.0061 7.74965 11.9127C7.65623 11.8753 7.57215 11.8286 7.48807 11.7913C6.58658 11.3428 6.04007 10.5628 5.79718 9.75938C5.55896 8.94663 5.55896 8.06849 5.88593 7.14363C6.21757 6.20476 7.06302 5.40603 8.04392 5.13511C9.02483 4.84084 10.0665 5.04169 10.7905 5.49945C11.5238 5.96187 11.9675 6.62048 12.1591 7.17166C12.3646 7.72283 12.3646 8.16191 12.3739 8.38611L12.472 8.65236L12.444 8.64769Z" fill="#601D1F"/>
</g>
<path d="M34.3315 23.5762C32.3323 22.8008 31.3421 20.554 32.1175 18.5548C32.8929 16.5557 35.1396 15.5654 37.1388 16.3408C39.138 17.1162 40.1282 19.3629 39.3528 21.3621C38.5774 23.3613 36.3307 24.3515 34.3315 23.5762Z" fill="#F8CBC7"/>
<g opacity="0.8">
<path d="M34.5097 23.1138C34.6359 23.2119 34.8554 23.3333 35.145 23.4221C35.4393 23.4968 35.7989 23.5482 36.1679 23.5248C36.5416 23.4968 36.9153 23.4081 37.2469 23.2819C37.5739 23.1512 37.8542 22.9877 38.0597 22.8522C38.368 22.6327 38.5735 22.4225 38.7276 22.2637C38.8491 22.1142 38.6062 22.4925 38.0597 22.8522C37.8308 23.025 37.5319 23.1885 37.1675 23.3333C37.658 23.2306 38.1111 23.0064 38.424 22.8102C38.6249 22.6373 38.8024 22.4365 38.9659 22.2123C39.6899 21.2407 39.9 19.9702 39.6011 18.7885C39.5544 18.5736 39.4236 18.2419 39.2601 17.929C39.0873 17.6207 38.8864 17.3311 38.7463 17.163C39.3629 17.8356 39.7366 18.7184 39.7926 19.6246C39.8673 20.5307 39.6011 21.4416 39.106 22.1889C39.1387 22.1516 39.1667 22.1095 39.1947 22.0722C39.7225 21.2828 39.9514 20.2925 39.8393 19.3303C39.8113 19.1668 39.7879 19.0033 39.7506 18.8352C39.7973 18.9986 39.8206 19.1621 39.8393 19.3303C39.8954 19.7553 39.9281 20.1804 39.858 20.6475C39.8253 20.7876 39.7833 20.9418 39.7366 21.0866C39.6758 21.2314 39.6245 21.3762 39.5684 21.507C39.4703 21.7218 39.3395 21.8993 39.1994 22.0722C39.1293 22.1936 39.0312 22.301 38.9472 22.4131C38.9285 22.4505 38.9051 22.4879 38.8724 22.5206H38.8771C38.9612 22.4785 39.1947 22.2824 39.4283 21.946C39.6618 21.6097 39.9 21.1333 40.0168 20.6055C40.1429 20.0776 40.1476 19.5078 40.0682 19.0547C39.9935 18.5969 39.8533 18.2513 39.7833 18.1065C39.5451 17.6394 39.1574 17.3358 38.765 16.9528C38.6342 16.822 38.5361 16.6959 38.41 16.6305C38.3866 16.6351 38.3166 16.6118 38.2512 16.5837C37.9616 16.3736 37.6673 16.1307 37.3824 16.0793C37.2096 16.0186 36.7705 15.5141 36.6958 15.5795C36.4856 15.7944 36.6444 15.6169 36.1633 15.5375C36.1025 15.5188 35.9064 15.6122 35.7943 15.6028C35.4019 15.5421 35.2851 15.6355 34.8554 15.743C34.5424 15.8551 34.3509 15.8971 34.1688 15.9578C33.9866 16.0139 33.8184 16.098 33.6036 16.3035C33.5802 16.3362 33.3794 16.4716 33.2205 16.6398C33.0477 16.7939 32.9123 16.9714 32.9123 16.9714C32.3985 17.4385 32.291 17.8636 31.908 18.27C31.8426 18.5829 31.7445 18.9192 31.6511 19.2742C31.581 19.6292 31.5156 20.0076 31.5717 20.3392C31.6791 20.9932 31.6464 21.2874 31.8006 21.89C31.8613 22.0581 31.936 22.1656 31.964 22.2683C31.9874 22.3758 32.2023 22.5299 32.3004 22.6747L32.221 22.6841C32.2536 22.7354 32.3144 22.8382 32.3517 22.8849C32.3891 22.9316 32.3611 22.9363 32.3331 22.941C32.277 22.9503 32.221 22.955 32.2723 23.0577C32.4125 23.2773 32.59 23.4781 32.7908 23.6743C33.029 23.8098 33.2673 23.9312 33.5195 24.0153C33.5475 23.9966 33.5755 23.9779 33.6176 23.9732C33.6876 23.9966 33.767 24.0059 33.8418 24.0246C33.9118 23.9826 33.9259 23.9079 33.9726 23.8798C34.0566 23.707 34.3789 23.6463 34.3789 23.4548C34.3789 23.394 34.0473 23.2492 33.9632 23.0811C33.9445 23.039 34.0473 23.025 34.108 22.983C33.9399 22.8849 33.9679 22.8195 34.066 22.8055C34.0286 22.7775 33.9959 22.7541 33.9959 22.7541C34.0193 22.7401 34.08 22.6981 34.08 22.6981C33.725 22.3898 33.5008 21.946 33.2065 21.6424C33.1505 21.5724 33.0197 21.4743 32.9496 21.3902C32.9123 21.3482 32.8936 21.2314 32.8842 21.194C32.8002 21.152 32.7394 21.1893 32.6647 21.1847C32.632 21.0165 32.5946 20.7503 32.5713 20.5354C32.5292 20.3205 32.5106 20.1524 32.3798 20.1664C32.3798 19.8908 32.263 19.8301 32.291 19.5311C32.319 19.1388 32.4545 18.6343 32.7021 18.1999C32.8235 17.9523 32.9917 17.7468 33.1738 17.5506C33.2392 17.4759 33.314 17.4152 33.3794 17.3498C34.1267 16.6725 35.0469 16.4436 35.8877 16.5043C36.7331 16.5744 37.5505 16.892 38.2932 17.532C39.0499 18.1812 39.489 19.2556 39.3862 20.2692C39.3068 21.2874 38.7463 22.1889 38.0503 22.6981C37.3497 23.2165 36.579 23.3894 35.9951 23.3707C35.4066 23.366 34.9955 23.2025 34.7853 23.1325H34.5004L34.5097 23.1138Z" fill="#601D1F"/>
</g>
<path d="M8.31899 19.9562C8.31899 22.1002 6.58138 23.8378 4.4374 23.8378C2.29342 23.8378 0.555817 22.1002 0.555817 19.9562C0.555817 17.8122 2.29342 16.0746 4.4374 16.0746C6.58138 16.0746 8.31899 17.8122 8.31899 19.9562Z" fill="#F8CBC7"/>
<g opacity="0.8">
<path d="M7.82436 19.9562C7.87107 19.8067 7.90376 19.5545 7.88041 19.2509C7.84304 18.952 7.76364 18.597 7.60949 18.2607C7.45068 17.9243 7.23114 17.6067 6.99292 17.3451C6.75003 17.0836 6.4978 16.8827 6.29695 16.7426C5.97932 16.5371 5.71307 16.4203 5.50755 16.3315C5.32538 16.2755 5.76445 16.3642 6.29695 16.7426C6.53984 16.8967 6.80141 17.1116 7.06766 17.4012C6.79207 16.9808 6.42306 16.6398 6.12879 16.4203C5.89524 16.2988 5.64301 16.2007 5.37676 16.1307C4.20902 15.8037 2.94785 16.07 1.9576 16.7753C1.77544 16.8967 1.50919 17.1349 1.28031 17.4012C1.0561 17.6721 0.855253 17.9664 0.74782 18.1579C1.1542 17.3405 1.84083 16.6725 2.66292 16.2895C3.48034 15.8925 4.42388 15.8084 5.30203 16.0046C5.25532 15.9859 5.20861 15.9765 5.1619 15.9625C4.23704 15.7523 3.22811 15.9018 2.37332 16.3549C2.23319 16.439 2.08372 16.5184 1.94359 16.6165C2.07905 16.5137 2.22385 16.4343 2.37332 16.3549C2.747 16.1447 3.13469 15.9672 3.59712 15.8644C3.74192 15.8458 3.89606 15.8271 4.0502 15.8224C4.20435 15.8224 4.35849 15.8224 4.50329 15.8271C4.74151 15.8411 4.9517 15.8971 5.1619 15.9672C5.30203 15.9859 5.43282 16.0419 5.57294 16.0793C5.61498 16.084 5.65702 16.0933 5.69906 16.1073C5.629 16.0373 5.36275 15.8925 4.96572 15.7944C4.56868 15.701 4.04086 15.6496 3.49903 15.729C2.96187 15.8037 2.42937 15.9999 2.03234 16.2428C1.63531 16.481 1.35972 16.7332 1.25229 16.8547C0.901962 17.247 0.757162 17.7188 0.546968 18.2233C0.472232 18.3914 0.392825 18.5316 0.374141 18.6717C0.388154 18.6904 0.388154 18.7651 0.388154 18.8352C0.294735 19.1808 0.173289 19.5405 0.234012 19.8254C0.238683 20.0076 -0.069602 20.6008 0.0144757 20.6475C0.290064 20.7643 0.0658565 20.6802 0.168618 21.1613C0.173289 21.2221 0.332102 21.3715 0.364799 21.4836C0.448877 21.8713 0.579665 21.9461 0.836569 22.3057C1.05143 22.5533 1.16354 22.7214 1.28498 22.8662C1.40176 23.0157 1.54189 23.1418 1.8128 23.2679C1.85017 23.2773 2.05102 23.4174 2.26589 23.5062C2.47141 23.6089 2.68628 23.6743 2.68628 23.6743C3.30752 23.9826 3.74192 23.9312 4.2604 24.1414C4.57335 24.09 4.92368 24.0573 5.29269 24.02C5.65235 23.9593 6.02603 23.8845 6.31563 23.7117C6.88549 23.3754 7.17042 23.296 7.67956 22.9363C7.81034 22.8195 7.88508 22.7121 7.97383 22.6467C8.06725 22.586 8.13264 22.3291 8.23073 22.1843L8.2681 22.2543C8.3008 22.2076 8.37553 22.1142 8.40823 22.0628C8.44093 22.0115 8.45494 22.0348 8.46428 22.0628C8.49231 22.1095 8.51566 22.1609 8.59507 22.0768C8.74921 21.8667 8.87066 21.6284 8.98276 21.3715C9.0248 21.1006 9.04816 20.8344 9.03881 20.5728C9.01079 20.5541 8.98276 20.5308 8.96408 20.4934C8.96408 20.4186 8.94072 20.3392 8.93138 20.2645C8.86599 20.2178 8.79125 20.2271 8.74921 20.1944C8.5577 20.1804 8.38488 19.9002 8.20738 19.9656C8.15133 19.9889 8.13264 20.3486 8.00653 20.4887C7.97383 20.5214 7.92245 20.428 7.86173 20.386C7.8337 20.5775 7.75896 20.5728 7.70758 20.4887C7.69357 20.5307 7.68423 20.5728 7.68423 20.5728C7.66554 20.5588 7.60015 20.5167 7.60015 20.5167C7.44134 20.9605 7.1097 21.3295 6.9322 21.7125C6.88549 21.7919 6.83878 21.9461 6.79207 22.0441C6.76872 22.0909 6.66595 22.1516 6.63326 22.1749C6.62392 22.2684 6.67997 22.3151 6.70332 22.3851C6.55852 22.4785 6.32497 22.6093 6.13346 22.7074C5.95129 22.8195 5.79715 22.9036 5.85787 23.0157C5.60097 23.1091 5.58696 23.2446 5.29736 23.3287C4.91901 23.4454 4.4052 23.5015 3.9054 23.4268C3.62982 23.4034 3.37758 23.3193 3.13002 23.2259C3.0366 23.1932 2.95252 23.1418 2.86845 23.1045C1.96695 22.656 1.42044 21.876 1.17755 21.0726C0.93933 20.2598 0.93933 19.3817 1.2663 18.4568C1.59794 17.518 2.44339 16.7192 3.42429 16.4483C4.4052 16.154 5.44683 16.3549 6.17083 16.8126C6.90417 17.2751 7.34792 17.9337 7.53943 18.4849C7.74495 19.036 7.74495 19.4751 7.75429 19.6993L7.85238 19.9656L7.82436 19.9562Z" fill="#601D1F"/>
</g>
<path d="M20.0854 36.1692C11.1452 36.1692 3.87247 28.8965 3.87247 19.9562C3.87247 11.016 11.1452 3.74792 20.0854 3.74792C29.0257 3.74792 36.2984 11.0206 36.2984 19.9609C36.2984 28.9012 29.0257 36.1739 20.0854 36.1739V36.1692Z" fill="#F8CBC7"/>
<path d="M20.0855 36.8138C10.7903 36.8138 3.22794 29.2515 3.22794 19.9562C3.22794 10.661 10.7903 3.09866 20.0855 3.09866C29.3808 3.09866 36.9431 10.661 36.9431 19.9562C36.9431 29.2515 29.3808 36.8138 20.0855 36.8138ZM20.0855 5.09784C11.8926 5.09784 5.23179 11.7633 5.23179 19.9516C5.23179 28.1398 11.8973 34.8053 20.0855 34.8053C28.2737 34.8053 34.9392 28.1398 34.9392 19.9516C34.9392 11.7633 28.2737 5.09784 20.0855 5.09784Z" fill="#005268" stroke="#4C0003" stroke-width="0.5" stroke-miterlimit="10"/>
<path d="M20.0852 6.20956C27.6662 6.20956 33.8366 12.3753 33.8366 19.9609C33.8366 27.5466 27.6709 33.7076 20.0852 33.7076C12.4995 33.7076 6.3385 27.5419 6.3385 19.9609C6.3385 12.3799 12.5042 6.20956 20.0852 6.20956ZM20.0852 5.10254C11.8923 5.10254 5.23148 11.768 5.23148 19.9563C5.23148 28.1445 11.897 34.81 20.0852 34.81C28.2734 34.81 34.9389 28.1445 34.9389 19.9563C34.9389 11.768 28.2734 5.10254 20.0852 5.10254Z" fill="#B1354E"/>
<g opacity="0.8">
<path d="M20.0856 5.10254C20.4219 5.11655 20.8517 5.13524 21.3515 5.15859C21.8559 5.17727 22.4305 5.29405 23.0704 5.36878C24.3222 5.63036 25.7796 6.03206 27.1668 6.72804C28.5494 7.43336 29.8386 8.40025 30.8663 9.43254C31.1091 9.70346 31.3427 9.9697 31.5716 10.2266C31.8005 10.4835 31.9733 10.7684 32.1695 11.0207C32.5618 11.5205 32.8327 12.0296 33.0803 12.4593C33.2858 12.7816 33.426 13.1133 33.5708 13.4169C33.7062 13.7252 33.8604 14.0008 33.9538 14.281C34.1359 14.8415 34.3321 15.3086 34.4255 15.7337C34.4676 15.9112 34.4722 15.9439 34.4489 15.8505C34.4209 15.757 34.3835 15.5375 34.2667 15.2292C34.1546 14.9209 34.0285 14.5099 33.8417 14.0335C33.7342 13.7999 33.6221 13.5523 33.5007 13.2861C33.3839 13.0199 33.2531 12.7349 33.0803 12.4593C32.9308 12.2118 32.7767 11.9502 32.6179 11.6746C32.4544 11.4037 32.2442 11.1468 32.0433 10.8665C31.9406 10.7264 31.8378 10.5863 31.7304 10.4415C31.6183 10.3013 31.4922 10.1659 31.3707 10.0258C31.1185 9.75017 30.8756 9.44188 30.5767 9.17564C31.9779 10.6283 32.9262 12.3332 33.4353 13.5897C33.5381 13.8186 33.6548 14.0381 33.7529 14.2717C33.837 14.5099 33.9211 14.7434 34.0098 14.9817C34.0892 15.2199 34.1967 15.4534 34.2527 15.701C34.3134 15.9486 34.3742 16.1961 34.4396 16.4437C34.958 18.639 34.9954 20.9138 34.5049 23.0671C34.0192 25.2205 33.0429 27.2523 31.6603 28.9853C31.4314 29.3169 31.0531 29.6812 30.6654 30.111C30.4786 30.3352 30.2403 30.5267 30.0115 30.7369C29.7732 30.9377 29.5537 31.1666 29.2968 31.3581C28.7783 31.7271 28.2879 32.1335 27.7787 32.3998C27.5312 32.5446 27.2976 32.68 27.0874 32.8061C26.8632 32.9136 26.6577 33.0023 26.4802 33.0864C27.9375 32.3811 29.2781 31.4329 30.4412 30.2978C31.5856 29.1441 32.5385 27.8082 33.2578 26.3508C33.9631 24.8935 34.4769 23.324 34.6497 21.7032C34.8319 20.0871 34.7665 18.4429 34.4396 16.8454C34.4863 17.0182 34.4956 17.1957 34.519 17.3639C35.1262 20.741 34.4255 24.2909 32.7113 27.2196C32.5618 27.4672 32.4077 27.7101 32.2535 27.9623C32.1041 28.2146 31.9032 28.4341 31.7257 28.677C31.8985 28.4388 32.0947 28.2192 32.2489 27.967L32.7113 27.2196C33.454 25.9071 33.9958 24.5245 34.3415 22.9177C34.4209 22.4179 34.5236 21.8854 34.5984 21.3435C34.6264 20.8017 34.6965 20.2552 34.6824 19.7461C34.6638 19.3304 34.6591 18.9333 34.6497 18.5363C34.6171 18.1439 34.5657 17.7562 34.5236 17.3639L34.4676 16.9855L34.3742 16.6118L34.192 15.8692C34.15 15.7244 34.1126 15.5702 34.0472 15.4207C34.0472 15.4254 34.0472 15.4348 34.0472 15.4394C34.0939 15.5889 34.1406 15.9345 34.2387 16.397C34.2807 16.6305 34.3601 16.8921 34.3882 17.1957C34.4209 17.4947 34.4582 17.8216 34.5003 18.1719C34.6171 19.5732 34.5657 21.3669 34.1266 23.1092C33.7015 24.8515 32.9262 26.519 32.0714 27.7381C31.2306 28.9713 30.3992 29.812 30.0348 30.181C28.8671 31.3535 27.676 32.3624 25.9804 33.1565C25.7048 33.3059 25.4246 33.3807 25.1723 33.4741C24.9154 33.5628 24.6819 33.6469 24.4623 33.745C24.4296 33.7917 24.1961 33.8618 23.9672 33.9365C23.6636 34.0112 23.36 34.0907 23.061 34.1654C22.7574 34.2168 22.4538 34.2495 22.1642 34.2915C21.585 34.3943 21.0292 34.3896 20.5481 34.4503C20.2117 34.5064 19.5718 34.3756 19.0113 34.2682C18.8712 34.2401 18.7357 34.2121 18.6096 34.1887C18.4835 34.1514 18.3714 34.1187 18.2733 34.0907C18.0771 34.0346 17.937 34.0019 17.8996 34.0159C17.624 34.1 17.582 34.1093 17.4232 34.0673C17.2597 34.0393 16.9794 33.9085 16.2274 33.703C16.1386 33.6703 15.9331 33.6609 15.7136 33.6049C15.4941 33.5488 15.2512 33.4834 15.0737 33.4134C14.4711 33.1845 14.1068 32.979 13.7004 32.8108C13.2847 32.652 12.883 32.4231 12.2384 32.0494C11.3042 31.4656 10.7904 31.0265 10.3326 30.5734C10.0991 30.3539 9.86085 30.1483 9.6273 29.8821C9.38908 29.6159 9.08079 29.3589 8.75382 28.9899C8.71646 28.9432 8.56699 28.7564 8.36146 28.5088C8.2587 28.3827 8.1466 28.2379 8.02515 28.0884C7.91772 27.925 7.81029 27.7568 7.69818 27.5886C7.48332 27.2477 7.2451 26.93 7.12365 26.6638C6.98819 26.4022 6.89477 26.2294 6.89477 26.2294C6.61451 25.6922 6.44169 25.1691 6.25952 24.6926C6.054 24.2209 5.97459 23.7491 5.8438 23.31C5.70367 22.871 5.67565 22.4272 5.61025 21.9881C5.5869 21.7686 5.54486 21.5444 5.54953 21.3202C5.54953 21.0913 5.55887 20.8624 5.56821 20.6242C5.4094 19.5405 5.54953 18.2607 5.79242 16.9949L6.054 16.0607C6.10071 15.9065 6.13807 15.7524 6.18478 15.5982C6.24084 15.4488 6.30156 15.2993 6.35761 15.1545C6.46971 14.8602 6.58182 14.5659 6.68925 14.2857C6.82004 14.0101 6.95083 13.7439 7.07694 13.4823C8.12324 11.4084 8.93132 10.7591 10.3793 9.39984C10.5848 9.19899 10.767 9.02616 10.9258 8.87202C11.094 8.73189 11.2481 8.61512 11.3836 8.51703C11.519 8.41894 11.7339 8.22743 11.9675 8.00789C12.215 7.80704 12.5 7.60151 12.7382 7.43803L12.6448 7.55948C12.8082 7.45671 13.1165 7.22316 13.2893 7.13442C13.4575 7.041 13.4201 7.07369 13.3874 7.11106C13.3174 7.18113 13.2473 7.25586 13.5416 7.09705C13.8919 6.90554 14.2329 6.67199 14.6066 6.49449C14.9849 6.31699 15.3679 6.1395 15.751 5.962C16.148 5.82187 16.545 5.67707 16.9421 5.55095C17.3438 5.42484 17.7548 5.36878 18.1612 5.28471C18.2312 5.27069 18.2966 5.25668 18.376 5.24267C18.6189 5.18662 18.8665 5.19129 19.1094 5.16793C19.1888 5.16326 19.2542 5.15859 19.3056 5.15392C19.5578 5.13991 19.8474 5.12589 20.0903 5.11188C19.9829 5.11655 19.6419 5.13524 19.2122 5.15392C18.9879 5.16793 18.7451 5.16793 18.5208 5.19129C18.306 5.21931 18.1005 5.24734 17.9323 5.27069C17.7828 5.28938 18.1285 5.238 18.2733 5.21931C17.4419 5.33142 17.3905 5.32675 17.7315 5.28004C17.5353 5.30339 17.3391 5.32675 17.3391 5.32675C17.3858 5.3174 17.5353 5.29872 17.5353 5.29872C16.9981 5.33142 16.4703 5.48089 15.9144 5.56497C15.6342 5.60233 15.3679 5.68641 15.0923 5.75648L14.2609 5.96667C13.7191 6.14417 13.1679 6.32167 12.6401 6.5412C12.1356 6.78876 11.6031 6.99896 11.1594 7.30724C10.7717 7.55948 10.1271 7.99388 9.76276 8.36288C9.57592 8.54038 9.09481 8.85801 8.95001 9.00748C8.74448 9.31109 8.8379 9.32978 8.78185 9.48859C8.50159 9.77352 8.13725 10.1379 7.81496 10.5769C7.6468 10.7918 7.4693 11.0113 7.30115 11.2309C7.13766 11.4551 6.99754 11.6933 6.85741 11.9175C6.72195 12.1417 6.59583 12.3566 6.47906 12.5481C6.37629 12.7489 6.30156 12.9358 6.23617 13.0899C6.11005 13.3982 6.05867 13.5897 6.12873 13.5944C6.05867 13.7392 5.99795 13.8653 5.94189 13.9867C5.89518 14.1082 5.85782 14.225 5.82512 14.3324C5.75973 14.5426 5.70367 14.7294 5.64762 14.9163C5.59624 15.1031 5.53552 15.29 5.47947 15.5142C5.43276 15.7384 5.3767 15.9953 5.2973 16.3176C4.88625 18.0085 4.72277 20.2505 5.0871 22.3992C5.26927 23.5763 5.61492 24.674 6.03064 25.7483C6.18946 26.15 6.39498 26.5143 6.55846 26.8787C7.54404 28.7984 8.84724 30.3866 10.3279 31.6431C11.8086 32.8996 13.4715 33.8337 15.2371 34.441C17.0028 35.0435 18.8805 35.3145 20.8003 35.221C22.7154 35.1276 24.6865 34.6558 26.569 33.7123C30.3665 31.8346 33.3933 28.294 34.5376 24.2723C35.1309 22.2731 35.2943 20.1945 35.0842 18.228C34.874 16.2568 34.2807 14.3978 33.4306 12.7816C33.2017 12.3893 32.9729 12.0016 32.7487 11.6186C32.5104 11.2449 32.2395 10.9039 31.992 10.5489C31.4688 9.87161 30.9223 9.23169 30.3011 8.72722C30.0021 8.46098 29.7125 8.1994 29.3902 7.98921C29.0773 7.76967 28.7783 7.54546 28.47 7.35395C27.8348 6.99896 27.2416 6.64863 26.6343 6.41508C24.2428 5.40148 22.2997 5.26602 21.2907 5.17727L20.0996 5.12589L20.0856 5.10254Z" fill="#601D1F"/>
</g>
<g opacity="0.8">
<path d="M20.0852 6.20953C19.7723 6.22822 19.3752 6.25157 18.9128 6.27493C18.4457 6.30295 17.9179 6.42907 17.334 6.52249C16.1896 6.81209 14.8864 7.27452 13.6673 7.97984C12.4529 8.68983 11.3318 9.596 10.4116 10.5209C10.1874 10.7591 9.97256 10.9926 9.7577 11.2168C9.53816 11.4364 9.37935 11.6886 9.19718 11.9081C8.82817 12.3472 8.57127 12.7956 8.32371 13.174C8.12753 13.4589 7.99207 13.7532 7.85661 14.0288C7.72582 14.3043 7.57635 14.5519 7.48293 14.7995C7.29609 15.2993 7.09991 15.7197 6.99248 16.1027C6.91307 16.425 6.92708 16.2008 7.14195 15.6449C7.25405 15.3693 7.38484 14.9957 7.57168 14.5706C7.67911 14.3651 7.79121 14.1409 7.91266 13.9026C8.02943 13.6644 8.16022 13.4169 8.32838 13.174C8.84686 12.2585 9.62691 11.2869 10.6499 10.2593C9.28593 11.455 8.2443 12.9031 7.65109 14.0241C7.55299 14.2343 7.44089 14.4398 7.34747 14.6547L7.09991 15.3133C7.0205 15.5375 6.92241 15.7524 6.86169 15.9812C6.80097 16.2101 6.74024 16.439 6.67952 16.6725C6.16571 18.7138 6.10966 20.8437 6.54406 22.8756C6.97846 24.9028 7.86595 26.8272 9.13179 28.4995C9.34198 28.8218 9.6923 29.1721 10.052 29.5831C10.2248 29.798 10.449 29.9802 10.6639 30.1857C10.8834 30.3819 11.0936 30.6014 11.3318 30.7836C11.8176 31.1432 12.28 31.5356 12.7518 31.8018C12.9807 31.9466 13.2002 32.0821 13.4011 32.2082C13.6113 32.3157 13.8028 32.4137 13.9663 32.5025C12.579 31.8159 11.3038 30.905 10.2061 29.812C9.12245 28.705 8.22095 27.4251 7.54832 26.0332C6.88504 24.6412 6.4086 23.1418 6.25913 21.6051C6.09565 20.0683 6.17038 18.5129 6.48801 17.0042C6.43196 17.163 6.41795 17.3311 6.38058 17.49C5.74065 20.6802 6.33854 24.0901 7.93134 26.9394C8.07614 27.1776 8.21627 27.4158 8.36107 27.6587C8.5012 27.9016 8.68804 28.1211 8.85153 28.3593C8.68804 28.1258 8.50588 27.9109 8.36107 27.668L7.92667 26.9394C7.21668 25.6735 6.65617 24.361 6.31518 22.8102C6.24045 22.3244 6.16104 21.8059 6.11433 21.2875C6.10499 20.7643 6.06295 20.2412 6.08164 19.7554C6.10499 19.3583 6.13769 18.9753 6.17038 18.6017C6.22644 18.228 6.31051 17.8636 6.37591 17.4946L6.43663 17.135L6.53005 16.7846L6.71689 16.084C6.74959 15.9439 6.77761 15.7991 6.83833 15.6543C6.83833 15.6589 6.83366 15.6683 6.82899 15.6729C6.74492 15.8037 6.65617 16.1167 6.51604 16.5511C6.45531 16.7706 6.35255 17.0182 6.30117 17.3031C6.24512 17.588 6.1844 17.901 6.12367 18.2326C5.91815 19.5779 5.86677 21.3295 6.22176 23.0671C6.55808 24.8047 7.27274 26.4956 8.09016 27.7428C8.89357 28.9993 9.71566 29.8587 10.094 30.2184C11.3038 31.3674 12.6537 32.1195 14.3166 32.8622C14.8678 33.1191 15.3582 33.2966 15.8019 33.4367C15.8487 33.4367 16.0822 33.4741 16.3158 33.5208C16.61 33.6002 16.8996 33.6749 17.1939 33.7543C17.4882 33.815 17.7778 33.8617 18.0627 33.9131C18.6232 34.0346 19.1651 34.0392 19.6322 34.0346C19.9358 34.0579 20.5523 34.1046 21.1456 34.1514C21.2857 34.1654 21.4258 34.1747 21.5519 34.184C21.6827 34.184 21.7995 34.1794 21.9023 34.1794C22.1078 34.1747 22.2526 34.1607 22.2853 34.1373C22.5235 33.9739 22.5515 33.9552 22.7197 33.9458C22.8878 33.9458 23.1868 33.9178 23.9481 33.7356C24.0369 33.7076 24.2331 33.6516 24.4386 33.5488C24.6441 33.4507 24.8683 33.3433 25.0458 33.2825C25.6624 33.1097 26.0267 32.8995 26.4097 32.6987C26.8068 32.5118 27.1758 32.2362 27.7924 31.8439C28.6658 31.204 29.189 30.8069 29.6514 30.3819C29.885 30.1717 30.1232 29.9755 30.3427 29.7046C30.5623 29.4337 30.8378 29.1534 31.0947 28.747C31.1274 28.6956 31.2582 28.5088 31.4357 28.2519C31.5245 28.1211 31.6272 27.9763 31.73 27.8268C31.8234 27.6634 31.9168 27.4952 32.0103 27.3224C32.1924 26.9814 32.3979 26.6638 32.5007 26.3975C32.6128 26.1406 32.6875 25.9678 32.6875 25.9678C32.9631 25.4587 33.1266 24.9542 33.2901 24.4918C33.4723 24.0387 33.5377 23.5809 33.6544 23.1605C33.7806 22.7401 33.8133 22.3198 33.8973 21.8994C33.9908 21.4836 34.0328 21.0539 34.0982 20.6055C34.0982 19.5545 33.9861 18.3447 33.7899 17.1209L33.575 16.2148C33.5377 16.0653 33.505 15.9112 33.4676 15.7664C33.4162 15.6216 33.3695 15.4768 33.3181 15.332C33.2154 15.0424 33.1173 14.7621 33.0145 14.4818C32.8837 14.2156 32.7623 13.9587 32.6362 13.7065C32.4073 13.1973 32.127 12.805 31.9168 12.4266C31.716 12.0436 31.4684 11.74 31.2629 11.4177C31.1555 11.2589 31.0527 11.1001 30.9453 10.9412C30.8285 10.7918 30.7071 10.6376 30.5856 10.4788C30.4595 10.32 30.3334 10.1565 30.1886 9.98836C30.0438 9.8202 29.8663 9.67073 29.6888 9.49791C29.4739 9.31107 29.2871 9.15225 29.1189 9.01212C28.9414 8.88601 28.7873 8.77857 28.6565 8.67581C28.5257 8.57305 28.2828 8.42825 28.0166 8.26944C27.7363 8.12464 27.428 7.98451 27.1805 7.84905L27.3253 7.87707C27.1571 7.793 26.8348 7.60149 26.6573 7.53609C26.4845 7.46603 26.5312 7.4707 26.5826 7.47537C26.6807 7.48938 26.7834 7.49872 26.4798 7.36794C26.1108 7.22781 25.7511 7.06432 25.3634 6.95689C24.9758 6.85413 24.5881 6.75137 24.1957 6.64393C23.7987 6.58321 23.4063 6.51782 23.0186 6.44775C22.6309 6.38236 22.2386 6.36835 21.8602 6.31697C21.7948 6.3123 21.7294 6.30295 21.6547 6.29361C21.4305 6.25624 21.1969 6.27026 20.9727 6.25624C20.9027 6.25624 20.8373 6.25624 20.7906 6.25157C20.557 6.24223 20.2908 6.22822 20.0666 6.21888C20.1693 6.22355 20.4823 6.24223 20.8793 6.26091C21.0848 6.27493 21.309 6.2796 21.5192 6.30295C21.7154 6.33565 21.9023 6.36835 22.0611 6.39637C22.1965 6.41973 21.8789 6.36835 21.7481 6.34966C22.5095 6.48512 22.5515 6.50381 22.2386 6.44775C22.4161 6.48045 22.5936 6.51782 22.5936 6.51782C22.5468 6.51315 22.4161 6.48979 22.4161 6.48979C22.9018 6.56453 23.3689 6.76538 23.8501 6.92419C24.3265 7.09235 24.7749 7.3586 25.228 7.5828C25.6577 7.85839 26.0828 8.12464 26.4798 8.40957C26.6713 8.55904 26.8628 8.70851 27.0497 8.85798C27.2412 8.99811 27.428 9.13357 27.5962 9.29238C27.8858 9.55863 28.4089 9.94165 28.7172 10.2499C28.876 10.3994 29.189 10.7591 29.2917 10.8992C29.53 11.086 29.5627 10.9973 29.6981 11.0487C29.9083 11.3149 30.2166 11.6232 30.4642 12.0156C30.5949 12.2071 30.7351 12.3986 30.8659 12.5901C30.9967 12.7863 31.1041 12.9918 31.2209 13.1786C31.3376 13.3655 31.4451 13.5476 31.5478 13.7065C31.6366 13.8699 31.716 14.0194 31.786 14.1455C31.9262 14.3884 32.0336 14.5239 32.0803 14.4772C32.141 14.5986 32.1924 14.7107 32.2438 14.8135C32.2858 14.9162 32.3232 15.0143 32.3606 15.1031C32.4353 15.2806 32.5054 15.4301 32.5754 15.5842C32.6455 15.7383 32.7249 15.8878 32.795 16.0746C32.8557 16.2662 32.9211 16.4857 32.9958 16.7613C33.3929 18.228 33.561 20.1945 33.2574 22.0862C33.1266 23.1278 32.8137 24.0901 32.4493 25.0383C32.3139 25.3933 32.1317 25.7156 31.9869 26.0332C31.1321 27.7288 29.9644 29.1207 28.6518 30.209C27.3346 31.2974 25.8632 32.0914 24.3172 32.6006C22.7664 33.1097 21.1315 33.3339 19.4547 33.2685C17.7778 33.2031 16.0542 32.8341 14.3586 32.0868C10.9254 30.5921 8.11351 27.4345 7.09057 23.8191C6.55808 22.0255 6.43196 20.1524 6.6515 18.3915C6.87103 16.6305 7.44089 14.9816 8.23496 13.571C8.44982 13.23 8.66469 12.889 8.87021 12.5574C9.09442 12.2351 9.34198 11.9362 9.57086 11.6372C9.79507 11.3289 10.0847 11.0907 10.3276 10.8151C10.5658 10.5349 10.832 10.2966 11.0889 10.0584C11.3412 9.81553 11.5934 9.57264 11.8643 9.37646C12.1306 9.17094 12.3828 8.9514 12.6444 8.76456C13.1815 8.40957 13.6813 8.0499 14.2045 7.793C15.2134 7.2138 16.185 6.87748 17.0024 6.64393C17.2032 6.57854 17.3994 6.52716 17.5909 6.49913C17.7778 6.46644 17.9553 6.43374 18.1188 6.40104C18.4457 6.34032 18.7307 6.28894 18.9689 6.28427L20.0712 6.21888L20.0852 6.20953Z" fill="#601D1F"/>
</g>
<path opacity="0.4" d="M36.5087 16.154C36.0603 14.2296 35.2849 12.4266 34.2433 10.8151C34.659 10.1985 34.9019 9.45117 34.9019 8.64777C34.9019 6.50379 33.1643 4.76618 31.0203 4.76618C30.1749 4.76618 29.3902 5.04177 28.7549 5.49952C27.2695 4.60737 25.6347 3.93942 23.8971 3.53304C23.5561 1.73938 21.982 0.380127 20.0856 0.380127V36.8138C23.3039 36.8138 26.312 35.9076 28.8717 34.3382C29.4883 34.7492 30.2263 34.9874 31.0203 34.9874C33.1643 34.9874 34.9019 33.2498 34.9019 31.1058C34.9019 30.3351 34.6777 29.6251 34.29 29.0179C35.3083 27.4251 36.0697 25.6501 36.5087 23.7537C38.2837 23.3941 39.6196 21.8293 39.6196 19.9515C39.6196 18.0738 38.2837 16.5044 36.5087 16.1494V16.154Z" fill="#FDEFED"/>
</svg>
