<svg width="130" height="260" viewBox="0 0 130 260" fill="none" xmlns="http://www.w3.org/2000/svg">
<path d="M65.0264 1.11039C66.1649 6.62808 65.4643 12.4961 65.2891 18.1014C65.2015 23.8818 64.5884 29.5747 64.5009 35.3551C64.3257 47.5291 64.2381 59.7906 64.8512 71.877C65.3767 83.7882 66.8656 95.6118 67.4787 107.523C67.7414 113.391 67.5662 119.084 67.2159 124.952C67.0408 127.842 67.0408 130.82 66.778 133.71C66.6028 136.425 66.0773 139.14 65.9898 141.855C66.3401 141.855 66.6028 141.855 66.9532 141.855C66.9532 141.68 66.9532 141.417 66.9532 141.242C66.9532 140.629 65.9898 140.629 65.9898 141.242C65.9898 141.417 65.9898 141.68 65.9898 141.855C65.9898 142.468 66.9532 142.468 66.9532 141.855C67.0407 139.403 67.5662 137.038 67.6538 134.586C67.7414 131.696 67.9166 128.718 68.0917 125.828C68.4421 119.697 68.7048 113.741 68.4421 107.523C67.9166 95.3491 66.3401 83.1751 65.727 70.9136C65.2015 58.8272 65.2891 46.5657 65.4643 34.3917C65.5518 28.6113 66.0773 22.9184 66.2525 17.138C66.3401 11.7079 66.9532 6.10259 65.9022 0.760057C65.9022 0.234562 64.9388 0.497311 65.0264 1.11039Z" fill="#EEFDFE"/>
<path d="M39.3646 177.414C32.9711 180.567 24.2129 183.895 16.5056 175.399C8.79838 166.816 13.3527 148.599 17.8194 139.929C22.2861 131.258 27.7162 120.923 25.2639 119.259C22.8992 117.595 16.2429 126.441 9.84936 138.878C3.45584 151.314 -1.18602 171.633 7.04673 181.968C15.2795 192.303 30.7816 191.252 37.7006 184.596C40.4156 181.443 39.3646 177.414 39.3646 177.414Z" fill="#4C0003"/>
<path d="M41.2039 172.597C37.4379 174.173 27.6286 171.546 25.7894 158.058C23.9502 144.57 32.9712 126.791 38.5764 113.566C44.0941 100.341 46.9843 102.005 46.3713 112.252C45.7582 122.5 33.1463 138.702 33.4091 155.518C32.9711 162.525 37.9634 171.02 44.7072 166.904C45.4079 171.195 41.2039 172.597 41.2039 172.597Z" fill="#4C0003"/>
<path d="M89.3742 165.765C95.1546 166.816 100.672 164.714 98.3076 154.905C95.9429 145.184 85.1702 125.653 83.4186 118.734C81.5794 111.727 80.7911 104.195 84.382 104.896C87.9729 105.596 87.3598 115.493 95.7677 130.119C104.176 144.833 110.044 153.942 107.066 162.963C104.088 171.984 94.2788 174.874 92.1768 173.035C89.9873 171.283 89.3742 165.765 89.3742 165.765Z" fill="#4C0003"/>
<path d="M95.8553 179.165C100.147 181.793 109.693 182.143 114.16 171.984C118.627 161.737 114.248 148.774 109.869 140.104C105.489 131.433 101.198 121.186 102.424 119.697C103.65 118.121 107.942 124.426 114.598 136.075C121.254 147.723 126.422 162.437 122.218 174.962C118.014 187.486 105.139 193.266 96.4684 185.997C95.0671 184.07 95.8553 179.165 95.8553 179.165Z" fill="#4C0003"/>
<path d="M67.391 140.104C64.7635 140.104 61.2603 141.68 57.4066 145.359C46.634 155.781 34.1097 178.027 36.3868 191.515C39.4522 209.557 57.0563 212.534 66.8655 211.483C76.6748 212.447 94.2788 209.557 97.3442 191.515C99.6214 178.29 86.9219 155.08 76.7623 144.395C72.9087 140.191 69.7557 140.104 67.391 140.104Z" fill="#EE7675"/>
<path d="M46.4588 209.119C41.5542 205.528 30.6064 198.521 15.6298 207.893C0.653213 217.264 1.79178 239.51 4.682 248.706C7.57222 257.815 14.3161 263.595 12.8272 253.873C11.3383 244.152 7.39705 227.423 15.7174 217.351C25.7018 205.177 39.8901 211.571 44.0941 215.512C46.5464 213.147 46.4588 209.119 46.4588 209.119Z" fill="#4C0003"/>
<path d="M40.5908 219.541C36.7372 217.527 29.9058 216.213 24.1253 226.723C18.3449 237.233 21.2351 251.947 25.1763 257.552C29.1175 263.157 29.9933 254.311 29.0299 244.59C27.4534 229.438 34.5476 223.57 41.2915 225.847C41.9045 222.782 40.5908 219.541 40.5908 219.541Z" fill="#4C0003"/>
<path d="M84.2944 210.958C89.199 207.367 100.497 197.207 115.386 206.666C130.275 216.125 131.414 239.422 128.524 248.531C125.633 257.639 115.737 262.982 119.678 253.961C123.969 244.064 126.509 228.212 118.276 218.052C108.292 205.878 92.6148 211.571 88.4108 215.6C86.0461 213.147 84.2944 210.958 84.2944 210.958Z" fill="#4C0003"/>
<path d="M88.9363 221.03C92.7899 219.015 100.847 217.789 106.54 228.387C112.233 238.984 112.233 252.384 108.292 257.902C104.351 263.42 102.774 257.377 103.825 247.655C105.402 232.503 97.6945 224.708 91.0383 226.986C90.4252 224.008 88.9363 221.03 88.9363 221.03Z" fill="#4C0003"/>
<path d="M68.0917 201.849C50.9255 201.324 38.9267 208.068 39.8901 222.519C40.8535 236.882 51.451 244.327 67.8289 243.977C89.199 243.539 94.2788 229.525 93.1402 221.117C92.0892 213.585 89.1114 202.462 68.0917 201.849Z" fill="#F2B0A2"/>
<path d="M58.0197 220.767C56.0929 218.315 50.2248 215.512 46.0209 221.03C41.2038 227.248 46.9843 234.167 53.2026 232.678C58.8955 231.277 61.2602 224.884 58.0197 220.767Z" fill="#EEFDFE"/>
<path d="M53.7281 220.592C50.9255 220.066 46.2836 222.256 48.298 227.248C50.3124 232.24 56.3556 229.963 57.4942 227.686C58.6327 225.497 57.8445 221.38 53.7281 220.592Z" fill="#B21E34"/>
<path d="M75.8866 221.205C77.8134 218.753 83.6814 215.95 87.8854 221.468C92.7024 227.686 86.922 234.605 80.7036 233.116C74.9232 231.715 72.646 225.321 75.8866 221.205Z" fill="#EEFDFE"/>
<path d="M80.0905 221.03C82.8931 220.504 87.535 222.694 85.5206 227.686C83.5062 232.678 77.463 230.401 76.3244 228.124C75.1858 225.934 75.9741 221.818 80.0905 221.03Z" fill="#B21E34"/>
<path d="M58.3701 210.783C59.5962 209.995 60.1218 208.418 58.5453 207.805C57.5819 207.367 56.093 207.805 55.1295 207.98C53.1152 208.243 49.5243 208.768 49.0864 211.221C48.5609 213.585 51.2759 214.111 52.94 213.585C53.9034 213.323 54.7792 212.797 55.5675 212.272C56.5309 211.659 57.4943 211.308 58.3701 210.783Z" fill="#B21E34"/>
<path d="M64.5008 207.805C63.9753 207.279 62.4864 205.703 61.6981 206.842C61.2602 207.455 62.2236 208.768 62.574 209.206C62.8367 209.644 63.0995 210.082 63.4498 210.52C64.0629 211.308 65.289 211.396 65.8145 210.345C66.4276 209.119 65.1138 208.506 64.5008 207.805Z" fill="#B1354E"/>
<path d="M81.7546 210.958C80.2657 209.907 76.412 206.929 74.5728 208.681C72.9087 210.257 75.799 212.797 76.85 213.673C78.1637 214.812 79.9153 215.162 81.5794 214.549C82.2801 214.198 83.0683 213.761 83.0683 212.885C83.2435 211.921 82.3677 211.396 81.7546 210.958Z" fill="#B21E34"/>
<path d="M52.7648 162.875C55.3922 164.539 56.0929 168.218 56.2681 171.108C56.3556 172.684 56.7936 179.253 53.7282 176.013C52.502 174.611 51.2759 173.122 50.2249 171.633C48.736 169.531 46.4588 167.079 47.5974 164.364C48.5608 162.35 50.8379 161.649 52.7648 162.875Z" fill="#B21E34"/>
<path d="M62.9243 165.24C63.8877 165.765 63.625 161.123 63.5374 160.773C63.187 159.722 62.6615 158.408 61.9609 157.533C60.5596 155.956 57.6693 154.993 57.0563 157.795C56.3556 160.861 60.7347 164.014 62.9243 165.24Z" fill="#B21E34"/>
<path d="M51.5386 188.099C51.451 187.749 51.2758 187.398 51.1883 187.135C50.5752 185.822 49.6118 184.245 48.3856 183.369C45.6706 181.443 42.43 184.158 42.5176 187.135C42.5176 188.8 44.0065 190.113 45.0575 191.252C46.3712 192.741 49.8745 198.784 51.7138 195.456C52.6772 193.704 52.2393 190.288 51.5386 188.099Z" fill="#B21E34"/>
<path d="M83.4186 165.941C80.8788 167.517 80.0029 170.933 79.9153 173.648C79.9153 174.962 78.6016 180.041 81.2291 178.99C83.0683 178.29 84.4696 176.013 85.871 174.699C87.7978 172.86 89.637 170.232 88.4108 167.429C87.6226 165.415 85.3455 164.802 83.4186 165.941Z" fill="#B21E34"/>
<path d="M72.0329 165.327C71.0694 165.678 70.6315 164.276 70.6315 163.313C70.6315 161.561 70.9819 159.547 72.0329 158.058C72.9963 156.569 75.7989 154.905 77.1126 156.832C78.6891 159.109 76.4996 160.248 75.0982 161.386C74.31 161.999 72.9087 164.89 72.208 165.24C72.208 165.327 72.1204 165.327 72.0329 165.327Z" fill="#B21E34"/>
<path d="M84.2069 190.551C84.82 189.062 85.6082 187.749 86.484 186.61C88.7612 183.807 92.79 185.822 93.2279 189.062C93.7534 193.179 88.7612 195.806 86.0461 198.171C84.82 199.309 83.3311 199.397 82.5428 197.383C81.7546 195.193 83.4186 192.478 84.2069 190.551Z" fill="#B21E34"/>
<path d="M77.3754 144.921C76.4996 144.045 74.5727 141.417 70.8067 140.454C68.7047 139.841 68.6171 140.104 68.0916 140.104C65.4642 139.753 61.6105 141.943 59.9465 143.257C59.1582 143.87 58.37 144.57 57.4942 145.359C56.5308 146.322 55.4798 147.373 54.4288 148.599C57.319 147.285 60.8223 147.198 62.9243 150.263C65.8145 154.555 66.6027 157.095 68.0041 157.095C69.3178 157.095 70.7191 145.446 81.7545 150.263C80.2656 148.249 78.7767 146.497 77.3754 144.921Z" fill="#F2B0A2"/>
<path d="M4.1565 167.254C2.84277 165.152 2.49244 162.437 1.61661 160.16C1.44145 159.547 0.478041 159.81 0.653206 160.423C1.52903 162.875 1.96694 165.503 3.28068 167.78C3.63101 168.305 4.50683 167.78 4.1565 167.254Z" fill="#EEFDFE"/>
<path d="M4.41928 161.474C3.98137 159.284 2.84279 157.27 2.49246 155.08C2.40488 154.467 1.44148 154.73 1.52906 155.343C1.87939 157.533 3.01796 159.547 3.45587 161.737C3.54345 162.35 4.50687 162.087 4.41928 161.474Z" fill="#EEFDFE"/>
<path d="M13.6155 147.986C14.754 146.41 16.0678 145.008 17.5567 143.782C17.9946 143.344 17.2939 142.731 16.856 143.082C15.3671 144.395 13.9658 145.884 12.7396 147.548C12.4769 148.074 13.2651 148.512 13.6155 147.986Z" fill="#EEFDFE"/>
<path d="M16.3304 141.768C17.2939 141.067 18.1697 140.279 18.9579 139.491C19.3958 139.053 18.6952 138.352 18.2573 138.79C17.469 139.578 16.6808 140.366 15.805 140.98C15.367 141.33 15.8049 142.118 16.3304 141.768Z" fill="#EEFDFE"/>
<path d="M10.8128 132.572C9.58662 136.075 10.1121 139.666 9.6742 143.257C9.58662 143.87 10.55 143.87 10.6376 143.257C11.0755 139.753 10.55 136.163 11.7762 132.834C11.9513 132.221 10.9879 131.959 10.8128 132.572Z" fill="#EEFDFE"/>
<path d="M12.7396 190.464C15.805 190.026 18.52 188.8 21.3227 187.486C21.8482 187.223 21.4103 186.435 20.7972 186.698C18.1697 187.924 15.5422 189.15 12.7396 189.5C12.1265 189.588 12.1265 190.551 12.7396 190.464Z" fill="#EEFDFE"/>
<path d="M12.3892 187.661C14.0533 187.311 15.7174 186.96 17.3814 186.347C17.9945 186.084 17.7318 185.209 17.1187 185.384C15.5422 185.997 13.8782 186.347 12.1265 186.698C11.5134 186.873 11.7762 187.836 12.3892 187.661Z" fill="#EEFDFE"/>
<path d="M23.5998 159.81C25.0887 161.649 26.5776 163.488 28.6796 164.714C29.2051 164.977 29.7306 164.189 29.2051 163.926C27.1907 162.788 25.7893 160.948 24.3004 159.197C23.9501 158.671 23.2495 159.372 23.5998 159.81Z" fill="#EEFDFE"/>
<path d="M24.3881 155.255C25.0887 156.744 25.7018 158.233 26.7528 159.547C27.1031 159.985 27.8038 159.372 27.4535 158.846C26.49 157.62 25.877 156.131 25.2639 154.73C24.9136 154.204 24.1253 154.642 24.3881 155.255Z" fill="#EEFDFE"/>
<path d="M32.8835 145.446C33.8469 144.133 34.8979 142.819 35.9489 141.505C36.7372 140.629 37.613 139.753 38.1385 138.702C38.4012 138.177 37.613 137.651 37.3502 138.177C36.7371 139.491 35.5986 140.454 34.7228 141.505C33.7593 142.644 32.9711 143.782 32.0953 144.921C31.6574 145.446 32.5332 145.972 32.8835 145.446Z" fill="#EEFDFE"/>
<path d="M34.8103 138.527C35.4234 137.476 36.2116 136.513 36.9123 135.462C37.2626 134.936 36.3868 134.498 36.1241 134.936C35.4234 135.987 34.6352 136.951 34.0221 138.002C33.6718 138.615 34.46 139.14 34.8103 138.527Z" fill="#EEFDFE"/>
<path d="M91.6513 141.067C93.403 143.169 95.3298 145.183 97.6945 146.585C98.22 146.935 98.7455 146.059 98.22 145.797C95.9429 144.395 94.1036 142.468 92.352 140.454C91.9141 139.929 91.2134 140.629 91.6513 141.067Z" fill="#EEFDFE"/>
<path d="M94.6292 139.666C95.7678 140.892 96.556 142.381 97.8697 143.519C98.3076 143.957 99.0083 143.257 98.5704 142.819C97.3442 141.68 96.556 140.191 95.3298 138.965C94.8919 138.527 94.1913 139.14 94.6292 139.666Z" fill="#EEFDFE"/>
<path d="M92.9651 122.324C92.9651 124.339 93.1403 126.353 92.8775 128.368C92.7024 129.506 92.6148 130.645 93.0527 131.696C93.3154 132.221 94.1037 131.783 93.8409 131.17C93.403 130.032 93.8409 128.806 93.9285 127.755C94.0161 125.915 93.9285 124.164 93.9285 122.324C93.8409 121.624 92.8775 121.624 92.9651 122.324Z" fill="#EEFDFE"/>
<path d="M90.8631 119.172C91.1258 121.098 91.0382 123.113 90.6879 125.04C90.6003 125.653 91.4761 125.915 91.6513 125.302C92.0016 123.2 92.0892 121.098 91.8265 118.909C91.6513 118.296 90.7755 118.558 90.8631 119.172Z" fill="#EEFDFE"/>
<path d="M107.504 151.752C107.591 153.241 107.767 154.555 107.241 156.044C106.803 157.533 105.84 159.022 104.701 160.072C104.263 160.51 104.964 161.211 105.402 160.773C106.54 159.635 107.329 158.321 107.942 156.832C108.642 155.08 108.467 153.591 108.38 151.752C108.467 151.139 107.504 151.139 107.504 151.752Z" fill="#EEFDFE"/>
<path d="M105.927 165.24C106.978 164.189 108.204 163.225 109.08 161.912C109.431 161.386 108.555 160.948 108.292 161.386C107.504 162.612 106.365 163.488 105.314 164.539C104.789 165.065 105.489 165.678 105.927 165.24Z" fill="#EEFDFE"/>
<path d="M114.598 183.983C116.875 184.946 119.24 184.158 121.342 183.107C121.867 182.844 121.429 181.968 120.816 182.318C118.89 183.282 116.875 183.895 114.773 183.107C114.248 182.844 114.072 183.807 114.598 183.983Z" fill="#EEFDFE"/>
<path d="M117.488 181.793C118.714 181.793 119.941 181.618 121.167 181.092C121.692 180.83 121.517 179.954 120.904 180.129C119.853 180.567 118.714 180.742 117.488 180.742C116.875 180.83 116.875 181.793 117.488 181.793Z" fill="#EEFDFE"/>
<path d="M121.342 147.285C122.13 150.438 121.867 154.642 121.167 157.795C120.991 158.408 121.955 158.671 122.13 158.058C122.918 154.642 123.093 150.438 122.305 147.023C122.13 146.41 121.167 146.672 121.342 147.285Z" fill="#EEFDFE"/>
<path d="M119.24 144.57C118.802 146.848 119.065 149.125 119.065 151.402C119.065 152.015 120.028 152.015 120.028 151.402C120.028 149.212 119.765 146.935 120.203 144.833C120.291 144.22 119.327 143.957 119.24 144.57Z" fill="#EEFDFE"/>
<path d="M106.716 136.25C107.504 136.863 108.292 137.476 109.08 138.002C109.868 138.615 110.919 138.965 111.795 139.491C112.321 139.841 112.846 138.965 112.321 138.702C111.533 138.264 110.744 137.739 109.956 137.389C109.08 137.038 108.204 136.162 107.504 135.549C106.891 135.199 106.19 135.9 106.716 136.25Z" fill="#EEFDFE"/>
<path d="M6.17088 247.042C5.38264 249.231 4.24407 251.246 3.19308 253.348C2.93033 253.873 3.71858 254.399 3.98132 253.873C5.11989 251.771 6.25847 249.582 7.04671 247.305C7.30946 246.779 6.43363 246.516 6.17088 247.042Z" fill="#EEFDFE"/>
<path d="M4.94473 242.925C3.71858 245.027 2.49242 247.567 1.96693 249.932C1.79176 250.545 2.75517 250.808 2.93033 250.195C3.45583 247.83 4.5944 245.465 5.73297 243.451C6.0833 242.925 5.20748 242.4 4.94473 242.925Z" fill="#EEFDFE"/>
<path d="M6.60879 214.286C9.0611 213.41 11.4258 212.184 13.7905 211.221C14.316 210.958 14.1409 210.082 13.5278 210.257C11.0755 211.221 8.79835 212.447 6.34604 213.323C5.73297 213.585 5.99572 214.549 6.60879 214.286Z" fill="#EEFDFE"/>
<path d="M6.69639 216.651C8.18529 215.863 10.1997 215.425 11.8638 215.074C12.4768 214.899 12.2141 214.023 11.601 214.111C9.84935 214.461 7.83496 214.899 6.17089 215.775C5.73298 216.125 6.17089 217.001 6.69639 216.651Z" fill="#EEFDFE"/>
<path d="M26.0521 208.068C24.3005 210.345 22.6364 212.71 21.1475 215.249C20.7972 215.775 21.673 216.3 21.9357 215.775C23.3371 213.323 24.9135 211.045 26.6652 208.856C27.1031 208.243 26.4024 207.542 26.0521 208.068Z" fill="#EEFDFE"/>
<path d="M21.4978 210.257C20.4469 211.746 19.8338 213.498 19.8338 215.337C19.8338 215.95 20.7972 215.95 20.7972 215.337C20.7972 213.673 21.3227 212.096 22.3737 210.783C22.6364 210.257 21.8482 209.732 21.4978 210.257Z" fill="#EEFDFE"/>
<path d="M21.3227 230.314C21.9357 229.438 22.724 228.825 23.5998 228.212C24.5632 227.599 25.439 226.985 26.4024 226.46C26.9279 226.11 26.49 225.321 25.877 225.672C24.0377 226.81 21.5854 227.949 20.4468 229.876C20.1841 230.314 20.9723 230.839 21.3227 230.314Z" fill="#EEFDFE"/>
<path d="M20.009 236.357C21.0599 235.043 22.4613 234.167 23.6874 233.029C24.1253 232.591 23.4247 231.89 22.9867 232.328C21.7606 233.467 20.3593 234.342 19.3083 235.656C18.8704 236.094 19.571 236.795 20.009 236.357Z" fill="#EEFDFE"/>
<path d="M28.9423 230.314C29.4678 232.416 29.9933 234.43 30.1685 236.62C30.2561 237.233 31.2195 237.233 31.1319 236.62C30.9567 234.43 30.3437 232.24 29.8182 230.051C29.7306 229.438 28.8548 229.701 28.9423 230.314Z" fill="#EEFDFE"/>
<path d="M100.497 228.912C100.497 230.752 99.8841 232.591 99.5338 234.43C99.4462 235.043 100.322 235.306 100.497 234.693C100.848 232.766 101.461 230.927 101.461 228.912C101.461 228.299 100.497 228.299 100.497 228.912Z" fill="#EEFDFE"/>
<path d="M101.548 231.978C101.548 233.817 101.198 235.481 100.497 237.145C100.234 237.671 101.11 238.196 101.285 237.671C102.074 235.831 102.424 233.992 102.512 231.978C102.512 231.365 101.548 231.365 101.548 231.978Z" fill="#EEFDFE"/>
<path d="M108.467 239.335C109.168 240.123 109.956 240.999 110.657 241.787C111.357 242.575 112.321 243.276 112.671 244.239C112.934 244.765 113.81 244.59 113.635 243.976C113.197 243.013 112.584 242.312 111.795 241.524C110.832 240.648 110.044 239.597 109.168 238.634C108.73 238.196 108.029 238.897 108.467 239.335Z" fill="#EEFDFE"/>
<path d="M108.642 237.145C109.168 237.583 109.606 238.021 110.044 238.546C110.219 238.809 110.394 239.072 110.657 239.247C111.007 239.51 111.445 239.773 111.62 240.21C111.883 240.824 112.671 240.298 112.408 239.685C112.146 238.984 111.445 238.722 110.919 238.108C110.394 237.495 109.868 236.882 109.255 236.357C108.818 236.094 108.117 236.707 108.642 237.145Z" fill="#EEFDFE"/>
<path d="M101.548 204.915C102.862 202.462 105.489 201.324 108.029 200.36C108.555 200.098 108.38 199.222 107.766 199.397C105.051 200.448 102.161 201.762 100.76 204.389C100.41 205.002 101.198 205.528 101.548 204.915Z" fill="#EEFDFE"/>
<path d="M105.314 204.126C106.103 203.776 106.891 203.338 107.679 202.988C108.38 202.725 109.08 202.462 109.781 202.2C110.306 201.937 109.869 201.149 109.255 201.411C108.555 201.762 107.854 201.937 107.154 202.2C106.365 202.55 105.577 202.988 104.789 203.338C104.263 203.601 104.789 204.389 105.314 204.126Z" fill="#EEFDFE"/>
<path d="M108.292 208.418C110.131 208.155 111.708 208.068 113.459 208.418C114.072 208.506 114.335 207.63 113.722 207.455C111.708 207.104 109.956 207.104 108.029 207.455C107.416 207.542 107.679 208.506 108.292 208.418Z" fill="#EEFDFE"/>
<path d="M120.816 219.629C121.079 220.942 121.254 222.168 121.167 223.482C121.167 224.446 121.079 225.759 120.466 226.548C120.116 226.985 120.729 227.686 121.167 227.248C122.743 225.234 122.218 221.643 121.78 219.366C121.604 218.753 120.729 219.015 120.816 219.629Z" fill="#EEFDFE"/>
<path d="M122.743 224.621C122.48 225.497 122.218 226.372 121.955 227.248C121.692 228.036 121.692 229.087 121.342 229.788C121.079 230.314 121.867 230.839 122.13 230.314C122.48 229.701 122.48 229 122.656 228.299C122.918 227.161 123.269 226.022 123.619 224.971C123.882 224.27 122.918 224.008 122.743 224.621Z" fill="#EEFDFE"/>
<path d="M61.1727 230.752C60.8224 232.328 61.8734 234.868 63.8002 235.043C66.0773 235.218 66.9531 232.854 67.0407 230.927C66.6904 230.927 66.4276 230.927 66.0773 230.927C66.1649 232.328 67.0407 234.78 68.7048 234.78C70.8944 234.868 71.595 232.416 72.0329 230.752C72.2081 230.138 71.2447 229.876 71.0695 230.489C70.8943 231.189 70.6316 231.89 70.3689 232.591C69.0551 235.393 67.1283 232.328 66.9531 230.927C66.8656 230.314 65.9897 230.314 65.9897 230.927C65.9897 231.803 65.727 232.591 65.2891 233.379C63.9753 235.656 61.6982 232.503 61.9609 231.014C62.2237 230.401 61.2603 230.138 61.1727 230.752Z" fill="#B21E34"/>
<path d="M70.6315 144.658C71.4198 143.519 71.6825 142.293 71.2446 141.943C70.7191 141.505 69.3178 142.031 68.3544 143.257C68.0916 143.607 67.9165 143.957 67.7413 144.395C67.6537 144.133 67.4786 143.957 67.3034 143.782C66.34 142.644 65.1138 141.943 64.5883 142.468C64.1504 142.906 64.3256 144.395 65.289 145.534C65.289 145.534 65.289 145.534 65.3766 145.621C63.9753 145.884 62.8367 146.585 63.0119 147.11C63.0994 147.723 64.4132 148.424 65.9897 148.161C67.1282 147.986 68.0916 147.373 68.442 146.848C68.9675 147.11 69.6681 147.373 70.544 147.461C72.1204 147.548 73.4342 147.11 73.4342 146.497C73.259 145.709 72.1204 144.746 70.6315 144.658Z" fill="#B21E34"/>
<path d="M71.0695 209.469C71.595 208.944 72.9963 207.279 71.8578 206.579C71.2447 206.228 70.0185 207.279 69.5806 207.63C69.1427 207.98 68.7048 208.243 68.3545 208.593C67.6538 209.206 67.5662 210.432 68.7048 210.958C69.9309 211.483 70.4564 210.17 71.0695 209.469Z" fill="#B1354E"/>
<path d="M52.94 226.985C53.8106 226.985 54.5164 226.28 54.5164 225.409C54.5164 224.538 53.8106 223.833 52.94 223.833C52.0693 223.833 51.3635 224.538 51.3635 225.409C51.3635 226.28 52.0693 226.985 52.94 226.985Z" fill="#EEFDFE"/>
<path d="M80.4408 227.423C81.3115 227.423 82.0173 226.718 82.0173 225.847C82.0173 224.976 81.3115 224.27 80.4408 224.27C79.5701 224.27 78.8643 224.976 78.8643 225.847C78.8643 226.718 79.5701 227.423 80.4408 227.423Z" fill="#EEFDFE"/>
</svg>
