<svg width="50" height="50" viewBox="0 0 50 50" fill="none" xmlns="http://www.w3.org/2000/svg">
<g clip-path="url(#clip0_296_551618)">
<path d="M45.6998 7.33C45.6998 5.93 44.7998 4.73 42.6998 3.93L42.1998 3.73C39.5998 2.73 35.8998 2.83 32.2998 3.63C31.7998 3.73 31.3998 3.83 30.8998 4.03C30.8331 4.03 30.7665 4.06334 30.6998 4.13C30.2998 4.23 29.8998 4.43 29.4998 4.53C29.4331 4.53 29.3665 4.56334 29.2998 4.63C28.4998 4.93 27.7998 5.23 27.0998 5.63C26.7998 5.83 26.4998 5.93 26.1998 6.13L13.8998 13.53V14.23L14.0998 14.33C13.8998 14.43 13.8998 14.63 13.8998 14.73V17.53C13.8998 17.73 13.7998 17.93 13.5998 18.03L11.0998 19.43C10.8998 19.53 10.7998 19.73 10.7998 19.93V23.13L12.8998 24.33L13.3998 30.93V31.13L13.8998 31.43L14.3998 31.13V30.93L14.7998 25.43L19.9998 28.43L33.9998 36.53L34.4998 43.13V43.33L34.9998 43.63L35.4998 43.33V43.13L35.9998 36.53L34.9998 37.13L42.6998 32.73C43.0998 32.53 43.2998 32.13 43.2998 31.63V24.23C43.2998 23.73 42.9998 23.13 42.4998 22.63C42.5998 22.73 42.6998 22.83 42.7998 22.93L43.0998 22.73C43.4998 22.53 43.6998 22.13 43.6998 21.63V14.23C43.6998 13.43 43.4998 12.63 42.9998 11.83C44.7998 10.53 45.6998 9.13 45.6998 7.83V7.23V7.33ZM45.4998 8.23C45.4998 8.33 45.3998 8.43001 45.3998 8.53C45.4998 8.33001 45.4998 8.23 45.4998 8.23ZM45.2998 8.73C45.2998 8.83 45.1998 8.93 45.1998 8.93C45.1998 8.93 45.2998 8.83 45.2998 8.73ZM44.8998 9.33C44.7998 9.43 44.7998 9.53 44.6998 9.53C44.7998 9.53 44.8998 9.43 44.8998 9.33ZM43.0998 16.43C43.0998 16.33 43.1998 16.33 43.1998 16.23C43.1331 16.2967 43.0998 16.3633 43.0998 16.43ZM35.2998 33.53L37.7998 32.13L35.2998 33.53ZM41.6998 22.13C41.8998 22.23 42.0998 22.43 42.2998 22.53C42.0998 22.43 41.8998 22.23 41.6998 22.13ZM43.2998 16.03C43.3998 15.93 43.3998 15.83 43.3998 15.73C43.3998 15.83 43.3998 15.93 43.2998 16.03ZM43.5998 15.53C43.5998 15.43 43.6998 15.33 43.6998 15.23C43.5998 15.33 43.5998 15.43 43.5998 15.53ZM42.8998 11.33C42.9998 11.23 43.0998 11.23 43.0998 11.13C43.0998 11.23 42.9998 11.23 42.8998 11.33ZM43.5998 10.73C43.6998 10.63 43.7998 10.63 43.7998 10.53C43.7998 10.63 43.6998 10.73 43.5998 10.73ZM44.2998 10.23C44.3998 10.13 44.3998 10.03 44.4998 10.03C44.3998 10.03 44.2998 10.13 44.2998 10.23Z" fill="#D7E4E7"/>
<path d="M10.2 30.03H10L4.3 33.33C4.2 33.33 4.2 33.43 4.1 33.53C4.1 33.63 4 33.63 4 33.73V34.93V35.93L4.2 36.03L4.5 38.93V39.13L5 39.43L5.5 39.13V38.93L5.7 36.93L16.5 43.23L16.8 46.13V46.33L17.3 46.63L17.8 46.33V46.13L18.1 43.23L21.2 41.43L21.4 43.43V43.63L21.9 43.93L22.4 43.63V43.43L22.7 40.53L22.9 40.43V39.43L23.1 39.33C23.2 39.33 23.2 39.23 23.3 39.13C23.3 39.03 23.4 38.93 23.4 38.93V37.93C23.4 37.8634 23.3667 37.7967 23.3 37.73L10.2 30.03Z" fill="#D7E4E7"/>
</g>
<defs>
<clipPath id="clip0_296_551618">
<rect width="41.7" height="43.62" fill="white" transform="translate(4 3)"/>
</clipPath>
</defs>
</svg>
