<svg width="18" height="18" viewBox="0 0 18 18" fill="none" xmlns="http://www.w3.org/2000/svg">
<mask id="mask0_322_36564" style="mask-type:alpha" maskUnits="userSpaceOnUse" x="0" y="1" width="18" height="16">
<path d="M1.875 4.5C3.249 2.88975 7.15538 7.0575 9 9.375C10.845 7.0575 14.7514 2.88975 16.125 4.5C16.3796 4.74375 16.6661 5.57887 15.75 6.75C15.4958 7.116 15.0698 8.13975 15.375 9.75C15.375 10.1771 14.9569 10.857 13.125 10.125C14.0156 10.7351 15.6938 12.411 14.625 13.875C13.6073 15.156 11.2369 16.6714 9.75 13.125L9 11.625L8.25 13.125C6.7635 16.6714 4.39275 15.156 3.375 13.875C2.30625 12.411 3.98475 10.7351 4.875 10.125C3.04313 10.857 2.625 10.1771 2.625 9.75C2.93025 8.13975 2.50463 7.116 2.25 6.75C1.33425 5.57887 1.62075 4.74375 1.875 4.5Z" fill="white" stroke="white" stroke-width="1.5" stroke-linecap="round" stroke-linejoin="round"/>
<path d="M9.012 8.625C8.82525 6.699 10.8424 2.625 12.375 2.625" stroke="white" stroke-width="1.5" stroke-linecap="round" stroke-linejoin="round"/>
<path d="M8.988 8.625C9.17475 6.699 7.15762 2.625 5.625 2.625" stroke="white" stroke-width="1.5" stroke-linecap="round" stroke-linejoin="round"/>
</mask>
<g mask="url(#mask0_322_36564)">
<path d="M0 0H18V18H0V0Z" fill="white"/>
</g>
</svg>
