<svg width="18" height="18" viewBox="0 0 18 18" fill="none" xmlns="http://www.w3.org/2000/svg">
<g clip-path="url(#clip0_450_553265)">
<path d="M9.31906 7.35188C9.50342 7.01373 9.6578 6.68991 9.84821 6.3876C10.8947 4.7255 12.4101 3.70058 14.3251 3.251C14.9282 3.1094 15.5239 3.17692 16.0352 3.57601C16.4309 3.88489 16.651 4.30759 16.7878 4.77509C17.0524 5.67843 17.0515 6.59671 16.8853 7.512C16.7905 8.03447 16.6576 8.55275 16.5017 9.06088C16.3497 9.55587 16.1239 10.0231 15.787 10.4302C15.3665 10.9381 14.8259 11.2093 14.1638 11.2356C13.9174 11.2455 13.6698 11.2302 13.4227 11.2266C13.3692 11.2257 13.3156 11.2266 13.252 11.2532C13.3262 11.298 13.4037 11.3384 13.4742 11.3885C13.8338 11.6445 14.2183 11.8737 14.5443 12.1661C15.3169 12.8586 15.428 13.9259 14.8555 14.8361C14.5065 15.3908 14.0285 15.789 13.3752 15.9426C12.6662 16.109 12.0366 15.9106 11.5126 15.4374C10.8381 14.8283 10.2197 14.1649 9.78585 13.3592C9.62057 13.0524 9.48798 12.7286 9.33964 12.4129C9.31088 12.3516 9.27789 12.2922 9.24701 12.2318C9.23036 12.2318 9.21371 12.2312 9.19706 12.2312C9.18132 12.3119 9.15619 12.392 9.15135 12.4732C9.12955 12.8257 9.11593 13.1788 9.09293 13.5313C9.08778 13.6107 9.0563 13.6887 9.03692 13.7673C9.01664 13.7691 8.99636 13.7706 8.97638 13.7724C8.95367 13.7037 8.91583 13.6358 8.91069 13.5656C8.88587 13.2134 8.87073 12.8604 8.84924 12.5076C8.84379 12.417 8.82623 12.3271 8.81442 12.2369C8.79626 12.233 8.7781 12.2291 8.75963 12.2253C8.72663 12.2859 8.68668 12.3442 8.66125 12.4078C8.42512 12.9981 8.15056 13.5707 7.74945 14.0693C7.45612 14.4337 7.13735 14.78 6.81102 15.1163C6.61062 15.323 6.39447 15.5271 6.15078 15.6788C5.27592 16.2231 4.22942 16.0681 3.48926 15.2779C2.86899 14.6157 2.61047 13.8449 2.91167 12.9536C3.04487 12.5589 3.30491 12.2471 3.64002 12.0027C3.96817 11.7634 4.31055 11.5433 4.64687 11.3148C4.67865 11.2932 4.71135 11.2729 4.77159 11.2338C4.63203 11.2338 4.52487 11.2365 4.41801 11.2332C4.1162 11.2239 3.81015 11.2401 3.51348 11.1959C2.82146 11.0928 2.33257 10.6836 1.98172 10.1079C1.44862 9.23444 1.21553 8.26359 1.07204 7.26914C0.960336 6.49454 0.970628 5.72025 1.15892 4.95492C1.2452 4.60422 1.37385 4.26935 1.58697 3.97331C2.11037 3.24562 2.84901 3.08909 3.67998 3.24951C4.80913 3.46757 5.78601 4.00946 6.67691 4.70817C7.5103 5.36178 8.11514 6.19313 8.56014 7.14218C8.5895 7.20491 8.62068 7.26675 8.68304 7.32559C8.67759 7.25271 8.67184 7.17952 8.667 7.10663C8.6007 6.09485 8.33582 5.13684 7.8657 4.2347C7.59416 3.71372 7.26116 3.23278 6.81465 2.84653C6.22889 2.34049 5.56774 2.057 4.76886 2.29717C4.69712 2.31868 4.61115 2.34138 4.58087 2.23832C4.55212 2.13975 4.62235 2.10957 4.70287 2.08807C5.41759 1.89599 6.07298 2.01906 6.66117 2.46087C7.83149 3.34002 8.41332 4.57076 8.71604 5.94041C8.85711 6.57849 8.88465 7.24106 8.96366 7.89257C8.96911 7.93858 8.97335 7.98488 8.97819 8.03118C8.99121 8.03208 9.00453 8.03267 9.01755 8.03357C9.023 7.98428 9.03087 7.93529 9.0339 7.886C9.09232 6.90977 9.19525 5.9422 9.54126 5.01467C9.76739 4.40826 10.048 3.82933 10.4555 3.32389C10.8327 2.85579 11.2492 2.42055 11.8244 2.17649C12.3021 1.97395 12.7904 1.94976 13.2895 2.08657C13.3676 2.10808 13.4433 2.13317 13.4188 2.23295C13.3934 2.3369 13.3077 2.32047 13.2344 2.29867C12.5146 2.08269 11.8934 2.28761 11.3303 2.73331C10.7188 3.21754 10.3044 3.84755 9.98141 4.54089C9.56971 5.42422 9.3566 6.35534 9.31966 7.35158L9.31906 7.35188Z" fill="white"/>
</g>
<defs>
<clipPath id="clip0_450_553265">
<rect width="16" height="14" fill="white" transform="translate(1 2)"/>
</clipPath>
</defs>
</svg>
