<svg width="314" height="192" viewBox="0 0 314 192" fill="none" xmlns="http://www.w3.org/2000/svg">
<path d="M183.723 166.213C206.423 157.113 211.223 124.113 211.923 106.513L186.323 102.913C186.023 102.713 162.123 121.913 157.223 130.113C145.423 146.513 155.923 177.113 183.723 166.213Z" fill="#D7E4E7"/>
<path d="M194.323 101.713C136.523 142.613 210.623 170.413 210.923 104.113L194.323 101.713Z" fill="#B1354E"/>
<path d="M200.423 80.2132C116.323 4.71323 74.2226 137.413 209.423 109.113L200.423 80.2132Z" fill="#D7E4E7"/>
<path d="M203.423 87.0133C149.123 38.2133 121.823 124.013 209.223 105.713L203.423 87.0133Z" fill="#B1354E"/>
<path d="M290.923 148.213C266.523 149.613 248.123 121.813 239.923 106.213L261.523 92.0132C261.723 91.7132 291.523 98.8132 299.423 104.213C317.223 114.113 320.723 146.113 290.923 148.213Z" fill="#D7E4E7"/>
<path d="M253.823 94.3132C323.523 106.613 268.423 163.313 239.823 103.513L253.823 94.3132Z" fill="#B1354E"/>
<path d="M239.123 77.5132C282.923 -26.6868 377.723 75.4132 243.323 107.513L239.123 77.5132Z" fill="#D7E4E7"/>
<path d="M239.323 85.0132C267.623 17.7132 328.923 83.6132 242.023 104.413L239.323 85.0132Z" fill="#B1354E"/>
<path d="M209.723 180.813C210.923 180.813 211.923 181.213 212.823 181.913C214.823 170.713 217.023 159.913 221.023 161.713C222.223 162.213 222.823 163.713 222.223 164.913C222.223 165.013 217.423 176.013 217.123 187.213C217.123 191.513 212.123 192.813 208.123 189.613C204.523 186.413 205.423 180.813 209.723 180.813Z" fill="#4C0003"/>
<path d="M268.223 116.013C267.323 116.813 266.923 117.813 266.623 118.913C257.623 112.013 248.623 105.513 246.923 109.513C246.423 110.713 246.923 112.113 248.123 112.713C248.223 112.713 259.123 117.613 266.923 125.813C269.823 129.013 274.423 126.613 275.223 121.513C275.823 116.613 271.423 113.013 268.223 116.013Z" fill="#4C0003"/>
<path d="M266.323 170.613C265.123 170.813 264.223 171.313 263.323 172.113C259.823 161.313 256.223 150.813 252.523 153.113C251.423 153.813 251.023 155.313 251.723 156.413C251.823 156.513 257.923 166.813 259.723 177.913C260.323 182.213 265.423 182.813 269.023 179.113C272.223 175.513 270.623 170.013 266.323 170.613Z" fill="#4C0003"/>
<path d="M189.923 116.013C191.023 116.213 192.023 116.913 192.823 117.713C197.023 107.113 201.223 96.9132 204.823 99.5132C205.923 100.313 206.223 101.813 205.423 102.913C205.323 103.013 198.523 112.813 196.123 123.813C195.323 128.013 190.123 128.413 186.823 124.413C183.723 120.613 185.623 115.213 189.923 116.013Z" fill="#4C0003"/>
<path d="M203.123 148.213C209.923 170.513 229.223 181.513 250.223 164.413C258.723 157.713 261.523 147.213 261.823 136.413C262.023 126.913 260.123 116.813 256.923 107.813C244.123 67.3132 215.923 83.2132 201.223 94.8132C196.623 104.713 196.923 132.713 203.123 148.213Z" fill="#EE7675"/>
<path d="M224.023 172.213C234.823 175.513 253.223 166.513 258.323 153.813C262.623 144.113 262.523 132.013 260.523 121.313C254.123 89.6132 238.323 69.3132 207.823 90.2132C230.223 104.013 250.923 153.113 224.023 172.213Z" fill="#F2B0A2"/>
<path d="M199.223 132.613C208.923 135.513 230.523 138.413 260.523 121.213C259.723 116.613 258.423 112.113 256.923 107.813C227.323 123.613 206.423 119.613 197.923 116.713C197.823 121.413 198.223 126.713 199.223 132.613Z" fill="#EE7675"/>
<path d="M203.123 148.213C205.623 155.513 208.923 161.113 212.623 165.213C223.523 165.913 239.023 164.013 258.323 153.813C260.623 148.713 261.623 142.713 261.823 136.413C234.123 152.213 213.623 150.813 203.123 148.213Z" fill="#EE7675"/>
<path d="M237.823 34.4132C236.923 34.3132 236.423 33.1132 236.923 32.4132C243.023 22.8132 246.023 8.81323 235.323 4.61323C227.023 1.71323 222.923 15.0132 231.523 15.3132C232.923 15.2132 233.223 14.5132 233.323 14.2132C234.423 11.4132 230.823 12.6132 231.123 10.4132C231.623 8.51324 234.123 9.21324 235.623 11.3132C238.623 18.7132 227.723 20.0132 224.923 14.4132C222.423 7.81324 226.623 -0.0867651 236.023 2.11324C248.823 6.71323 246.223 23.0132 239.123 34.0132C238.923 34.3132 238.423 34.5132 237.823 34.4132Z" fill="#4C0003"/>
<path d="M212.523 29.9132C211.823 29.8132 211.323 29.0132 211.423 28.3132C213.423 19.6132 211.923 10.8132 207.623 6.01323C204.123 1.31323 195.423 2.11323 194.123 6.91323C192.823 10.9132 195.223 16.2132 200.223 14.1132C201.523 13.5132 201.523 12.7132 201.523 12.5132C201.623 11.2132 200.623 10.5132 199.723 10.8132C198.023 11.1132 197.523 8.51323 199.223 8.21323C200.923 7.71323 204.423 9.01323 204.223 12.4132C204.423 17.3132 196.423 18.4132 193.823 15.6132C184.823 5.11322 200.223 -6.38677 209.623 4.21323C214.423 9.61323 216.123 19.2132 214.023 28.8132C213.823 29.6132 213.223 30.0132 212.523 29.9132Z" fill="#4C0003"/>
<path d="M224.823 25.6132C277.623 35.4132 256.223 112.713 198.823 95.1132C165.423 85.4132 171.823 58.5132 179.623 53.0132C187.123 47.7132 189.423 19.3132 224.823 25.6132Z" fill="#F18080"/>
<path d="M198.923 95.1132C179.023 89.3132 173.223 77.4132 173.523 67.5132C175.323 75.8132 181.823 84.3132 197.023 88.8132C239.723 100.413 256.323 64.8132 248.123 37.5132C266.023 64.6132 245.423 108.613 198.923 95.1132Z" fill="#F2B0A2"/>
<path d="M238.123 56.9132C235.723 69.3132 220.823 66.7132 222.823 54.2132C225.223 41.7132 240.123 44.4132 238.123 56.9132Z" fill="#D7E4E7"/>
<path d="M234.323 56.2133C233.023 63.1133 225.523 61.7133 226.623 54.8133C227.923 48.0133 235.423 49.3133 234.323 56.2133Z" fill="#B21E34"/>
<path d="M233.223 53.2133C232.923 55.3133 229.623 54.7133 230.023 52.6133C230.323 50.6133 233.623 51.1133 233.223 53.2133Z" fill="#D7E4E7"/>
<path d="M203.723 47.8133C201.323 60.2133 186.423 57.6133 188.423 45.1133C190.823 32.7133 205.723 35.3133 203.723 47.8133Z" fill="#D7E4E7"/>
<path d="M199.923 47.1133C198.623 54.0133 191.123 52.6133 192.223 45.7133C193.523 38.9133 201.023 40.2133 199.923 47.1133Z" fill="#B21E34"/>
<path d="M198.723 44.1133C198.423 46.2133 195.123 45.6133 195.523 43.5133C195.923 41.5133 199.123 42.1133 198.723 44.1133Z" fill="#D7E4E7"/>
<path d="M230.623 74.0132C229.823 78.7132 217.123 76.5132 218.023 71.8132C218.723 67.0132 231.523 69.3132 230.623 74.0132Z" fill="#B1354E"/>
<path d="M194.923 65.9132C194.123 70.6132 181.423 68.4133 182.323 63.7133C183.023 58.9133 195.723 61.2132 194.923 65.9132Z" fill="#B1354E"/>
<path d="M197.323 60.4132C204.668 60.4132 210.623 54.4586 210.623 47.1132C210.623 39.7678 204.668 33.8132 197.323 33.8132C189.977 33.8132 184.023 39.7678 184.023 47.1132C184.023 54.4586 189.977 60.4132 197.323 60.4132Z" stroke="#D7E4E7" stroke-width="0.5" stroke-miterlimit="10"/>
<path d="M230.523 68.8132C237.868 68.8132 243.823 62.8586 243.823 55.5133C243.823 48.1679 237.868 42.2133 230.523 42.2133C223.177 42.2133 217.223 48.1679 217.223 55.5133C217.223 62.8586 223.177 68.8132 230.523 68.8132Z" stroke="#D7E4E7" stroke-width="0.5" stroke-miterlimit="10"/>
<path d="M209.623 52.0132C213.623 52.3132 215.823 53.6132 217.223 55.5132" stroke="#D7E4E7" stroke-width="0.5" stroke-miterlimit="10"/>
<path d="M197.623 73.5132C197.823 74.6132 197.923 75.6132 198.223 76.7132C199.323 80.4132 202.923 77.7132 203.423 75.5132C203.623 74.5132 205.123 74.7132 205.023 75.7132C204.823 77.2132 204.723 79.3132 206.423 80.0132C208.523 80.9132 210.423 77.6132 210.323 76.0132C210.223 75.0132 211.823 74.8132 211.923 75.8132C212.023 78.3132 209.823 81.8132 207.123 81.7132C205.023 81.6132 204.023 80.3132 203.623 78.6132C202.623 79.7132 201.323 80.4132 199.723 80.3132C196.923 80.0132 196.423 75.9132 196.123 73.8132C195.923 72.7132 197.423 72.5132 197.623 73.5132Z" fill="#B21E34"/>
<path d="M178.023 190.213C178.023 189.713 177.923 189.313 177.923 188.813C177.523 164.113 177.223 139.413 176.923 114.613C176.823 110.513 179.523 107.013 183.423 106.113C188.423 104.913 193.423 108.613 193.723 113.813C193.823 115.313 193.723 116.813 193.723 118.313C193.723 119.213 193.123 119.813 192.323 119.813C191.523 119.813 190.923 119.213 190.923 118.313C190.923 116.813 190.923 115.313 190.923 113.813C190.723 110.313 187.323 107.913 184.023 108.813C181.523 109.513 179.723 111.813 179.823 114.413C179.923 121.013 180.023 127.713 180.123 134.313C180.423 152.413 180.623 170.513 180.823 188.613C180.823 189.113 180.723 189.613 180.723 190.113C180.623 190.213 180.523 190.313 180.323 190.513C179.823 190.513 179.223 190.613 178.723 190.613C178.423 190.513 178.223 190.413 178.023 190.213Z" fill="#2B6F81"/>
<path d="M89.4941 181.812H5.62961C2.56644 181.812 0 179.329 0 176.183V98.9411C0 95.878 2.48365 93.3115 5.62961 93.3115H89.4941C92.5573 93.3115 95.1237 95.7952 95.1237 98.9411V176.183C95.1237 179.329 92.5573 181.812 89.4941 181.812Z" fill="#EE7675"/>
<path d="M42.3048 90H12.0043V93.3943H42.3048V90Z" fill="#D7E4E7"/>
<path d="M83.0366 90H52.7361V93.3943H83.0366V90Z" fill="#D7E4E7"/>
<path d="M77.4898 174.692H17.6339C14.5707 174.692 12.0043 172.209 12.0043 169.063V121.874C12.0043 118.81 14.4879 116.244 17.6339 116.244H77.4898C80.553 116.244 83.1194 118.728 83.1194 121.874V169.063C83.1194 172.209 80.553 174.692 77.4898 174.692Z" fill="#B1354E"/>
<path d="M18.7929 111.111C21.4449 111.111 23.5947 108.961 23.5947 106.309C23.5947 103.657 21.4449 101.508 18.7929 101.508C16.141 101.508 13.9912 103.657 13.9912 106.309C13.9912 108.961 16.141 111.111 18.7929 111.111Z" fill="#D7E4E7"/>
<path d="M31.9563 111.111C34.6082 111.111 36.758 108.961 36.758 106.309C36.758 103.657 34.6082 101.508 31.9563 101.508C29.3043 101.508 27.1545 103.657 27.1545 106.309C27.1545 108.961 29.3043 111.111 31.9563 111.111Z" fill="#D7E4E7"/>
<path d="M65.1544 111.111C67.8063 111.111 69.9561 108.961 69.9561 106.309C69.9561 103.657 67.8063 101.508 65.1544 101.508C62.5025 101.508 60.3527 103.657 60.3527 106.309C60.3527 108.961 62.5025 111.111 65.1544 111.111Z" fill="#D7E4E7"/>
<path d="M78.3178 111.111C80.9697 111.111 83.1195 108.961 83.1195 106.309C83.1195 103.657 80.9697 101.508 78.3178 101.508C75.6659 101.508 73.5161 103.657 73.5161 106.309C73.5161 108.961 75.6659 111.111 78.3178 111.111Z" fill="#D7E4E7"/>
<path d="M62.2568 125.185H31.9563V128.579H62.2568V125.185Z" fill="#EE7675"/>
<path d="M24.8365 181.812H12.0043V186.2H24.8365V181.812Z" fill="#D7E4E7"/>
<path d="M83.1194 181.812H70.2872V186.2H83.1194V181.812Z" fill="#D7E4E7"/>
</svg>
