<svg width="385" height="360" viewBox="0 0 385 360" fill="none" xmlns="http://www.w3.org/2000/svg">
<path d="M192.118 285.827C245.69 285.827 289.118 279.29 289.118 271.227C289.118 263.164 245.69 256.627 192.118 256.627C138.546 256.627 95.1179 263.164 95.1179 271.227C95.1179 279.29 138.546 285.827 192.118 285.827Z" fill="#2B6F81"/>
<path d="M181.618 158.427C209.118 139.427 346.118 65.1268 264.718 188.527C255.418 197.327 218.318 195.527 218.318 195.527C218.318 195.527 248.918 212.027 252.218 227.227C255.518 242.427 234.318 264.227 227.918 264.927C214.118 266.327 197.318 242.227 185.918 221.727C174.518 201.027 181.618 158.427 181.618 158.427Z" fill="#B1354E"/>
<path d="M181.418 165.627C200.018 152.827 292.818 102.527 237.718 185.927C231.418 191.827 206.318 190.627 206.318 190.627C206.318 190.627 227.018 201.827 229.318 212.027C231.518 222.327 217.218 237.127 212.918 237.527C203.518 238.427 192.218 222.127 184.518 208.227C176.618 194.427 181.418 165.627 181.418 165.627Z" fill="#D7E4E7"/>
<path d="M190.018 165.827C172.618 137.327 77.4179 13.9269 101.918 159.627C106.818 171.427 141.518 184.827 141.518 184.827C141.518 184.827 106.718 187.527 97.6179 200.027C88.4179 212.527 99.0179 241.127 104.518 244.327C116.618 251.227 141.618 236.027 160.418 221.827C179.218 207.627 190.018 165.827 190.018 165.827Z" fill="#B1354E"/>
<path d="M190.018 174.427C178.918 156.227 118.218 77.6268 133.818 170.527C136.918 178.027 159.118 186.627 159.118 186.627C159.118 186.627 137.018 188.327 131.118 196.327C125.318 204.327 132.018 222.527 135.518 224.527C143.218 228.927 159.218 219.227 171.118 210.227C183.118 201.027 190.018 174.427 190.018 174.427Z" fill="#D7E4E7"/>
<path d="M204.618 269.727C203.318 269.727 202.218 270.327 201.218 271.027C198.718 258.827 195.818 246.927 191.518 249.127C190.218 249.727 189.618 251.327 190.218 252.627C190.518 252.427 195.918 266.627 196.818 278.127C197.018 282.127 202.818 282.627 206.418 279.427C210.518 275.727 209.418 269.527 204.618 269.727Z" fill="#4C0003"/>
<path d="M144.618 201.027C145.618 201.827 146.118 203.027 146.418 204.227C156.018 196.427 165.818 188.927 167.818 193.327C168.418 194.627 167.918 196.227 166.618 196.827C166.518 196.927 154.718 202.627 146.418 211.727C143.318 215.327 138.218 212.827 137.218 207.327C136.318 201.927 141.018 197.827 144.618 201.027Z" fill="#4C0003"/>
<path d="M130.018 252.827C131.218 253.127 132.318 253.827 133.118 254.827C138.118 243.427 143.318 232.427 147.118 235.327C148.318 236.227 148.518 237.827 147.618 239.027C147.518 239.127 139.618 249.627 136.418 261.527C135.318 266.127 129.618 266.227 126.218 261.827C123.018 257.527 125.318 251.627 130.018 252.827Z" fill="#4C0003"/>
<path d="M181.918 267.627C208.118 245.827 213.718 204.627 208.718 174.527L189.918 165.827C123.318 212.027 130.918 309.027 181.918 267.627Z" fill="#EE7675"/>
<path d="M146.718 221.827C153.318 232.127 168.718 247.127 200.918 242.227C205.718 232.027 208.318 221.227 209.518 210.927C183.418 214.327 168.718 204.627 160.818 195.427C155.518 202.827 150.518 211.727 146.718 221.827Z" fill="#F2B0A2"/>
<path d="M181.918 267.627C184.218 265.627 186.318 263.527 188.218 261.327C162.918 263.627 148.918 253.227 141.618 243.927C139.618 272.227 156.518 290.127 181.918 267.627Z" fill="#F2B0A2"/>
<path d="M152.618 275.527C161.218 282.227 178.718 273.027 188.218 261.327C209.418 238.927 213.118 201.727 208.718 174.527L189.918 165.827C189.918 165.827 185.418 168.827 179.018 174.627C187.018 199.227 188.918 232.127 173.618 255.927C169.118 264.027 159.418 274.227 152.618 275.527Z" fill="#EE7675"/>
<path d="M182.618 109.627C183.618 109.627 184.418 108.527 184.018 107.527C170.018 71.2269 206.018 70.6269 198.418 88.2269C197.718 89.7269 191.918 90.6269 191.618 88.0269C191.218 86.6269 192.218 85.7269 193.218 85.7269C195.118 85.7269 195.218 82.7269 193.218 82.7269C191.318 82.4269 187.718 84.6269 188.618 88.4269C189.418 93.9269 198.518 93.4269 200.818 89.8269C204.818 83.0269 201.718 73.4269 190.918 74.0269C175.918 76.5269 175.518 95.1269 181.218 108.727C181.418 109.327 182.018 109.627 182.618 109.627Z" fill="#4C0003"/>
<path d="M211.618 109.627C212.418 109.627 213.118 108.927 213.118 108.027C213.018 69.1269 246.918 81.4269 233.518 95.1269C232.318 96.2269 226.518 95.0269 227.218 92.5269C227.318 91.0269 228.618 90.5269 229.518 91.0269C231.318 91.7269 232.418 88.9268 230.618 88.2268C228.918 87.3268 224.718 88.0269 224.218 91.9269C223.018 97.3269 231.618 100.127 235.118 97.5269C247.218 87.7269 232.318 71.9268 219.818 81.7268C213.418 86.7268 209.618 97.1269 210.118 108.127C210.118 109.027 210.818 109.627 211.618 109.627Z" fill="#4C0003"/>
<path d="M198.718 102.427C138.318 102.827 146.818 192.727 213.818 184.527C252.718 180.327 250.918 149.227 243.418 141.627C236.118 134.327 239.218 102.427 198.718 102.427Z" fill="#F2B0A2"/>
<path d="M213.818 184.527C237.018 182.027 245.718 169.927 247.418 159.027C243.818 167.827 234.918 175.927 217.218 177.927C167.618 182.327 153.518 143.027 167.918 114.427C142.718 140.927 159.618 190.327 213.818 184.527Z" fill="#F18080"/>
<path d="M183.018 139.927C183.318 156.427 203.018 156.427 203.318 139.927C203.018 123.427 183.318 123.427 183.018 139.927Z" fill="#D7E4E7"/>
<path d="M188.118 139.927C188.218 149.027 198.218 149.027 198.318 139.927C198.118 130.827 188.218 130.827 188.118 139.927Z" fill="#B21E34"/>
<path d="M190.218 136.327C190.218 139.027 194.518 139.027 194.418 136.327C194.418 133.627 190.118 133.627 190.218 136.327Z" fill="#D7E4E7"/>
<path d="M213.418 137.527C213.718 154.027 233.418 154.027 233.718 137.527C233.418 121.027 213.618 121.027 213.418 137.527Z" fill="#D7E4E7"/>
<path d="M218.418 137.527C218.518 146.627 228.518 146.627 228.618 137.527C228.518 128.427 218.518 128.427 218.418 137.527Z" fill="#B21E34"/>
<path d="M220.518 133.927C220.518 136.627 224.818 136.627 224.718 133.927C224.818 131.227 220.518 131.227 220.518 133.927Z" fill="#D7E4E7"/>
<path d="M185.018 159.027C185.018 164.027 198.418 164.027 198.418 159.027C198.518 154.027 185.018 154.027 185.018 159.027Z" fill="#B1354E"/>
<path d="M223.118 157.227C223.118 162.227 236.518 162.227 236.518 157.227C236.618 152.227 223.118 152.227 223.118 157.227Z" fill="#B1354E"/>
<path d="M216.318 157.727C216.018 158.627 215.818 159.627 215.318 160.527C213.818 163.727 210.918 160.827 210.718 158.827C210.618 157.927 209.318 157.927 209.318 158.827C209.318 160.127 209.118 162.127 207.518 162.527C205.518 163.027 204.118 159.927 204.418 158.527C204.618 157.627 203.218 157.227 203.018 158.127C202.618 160.327 204.118 163.827 206.718 164.027C208.618 164.227 209.718 163.127 210.218 161.727C210.918 162.827 212.118 163.627 213.618 163.727C216.218 163.827 217.118 160.127 217.618 158.227C217.918 157.227 216.518 156.827 216.318 157.727Z" fill="#B21E34"/>
<path d="M204.518 100.427C204.418 100.427 204.418 100.427 204.318 100.427C206.318 97.6269 207.018 94.6268 205.818 93.7268C204.518 92.8268 201.218 93.9269 198.918 96.9269C198.318 97.7269 197.818 98.6269 197.518 99.5269C197.218 99.0269 196.818 98.5269 196.418 98.0269C194.018 95.2269 191.018 93.7268 189.818 94.7268C188.618 95.7268 189.118 99.3269 191.518 102.127L191.618 102.227C188.218 102.827 185.618 104.427 185.818 105.927C186.018 107.527 189.218 109.027 192.918 108.527C195.718 108.127 197.918 106.727 198.818 105.327C200.018 106.027 201.818 106.527 203.918 106.727C207.618 107.027 210.718 105.927 210.918 104.427C211.118 102.927 208.218 100.727 204.518 100.427Z" fill="#D7E4E7"/>
<path d="M234.918 212.927C252.922 212.927 267.518 205.405 267.518 196.127C267.518 186.848 252.922 179.327 234.918 179.327C216.913 179.327 202.318 186.848 202.318 196.127C202.318 205.405 216.913 212.927 234.918 212.927Z" fill="#F5F7F7"/>
<path d="M267.518 196.127C267.318 203.127 260.318 207.427 254.418 209.927C241.918 214.727 227.618 214.427 215.218 209.827C197.618 203.027 197.518 189.227 215.118 182.327C227.618 177.727 242.018 177.627 254.418 182.427C260.318 184.827 267.318 189.027 267.518 196.127ZM267.418 196.127C267.118 189.127 260.118 185.127 254.218 182.927C241.818 178.727 227.818 178.627 215.418 183.027C198.218 189.427 198.118 202.827 215.318 209.327C227.718 213.727 241.818 213.327 254.218 209.227C260.118 207.127 267.218 203.127 267.418 196.127Z" fill="#B1354E"/>
<path d="M234.918 206.327C245.908 206.327 254.818 201.76 254.818 196.127C254.818 190.494 245.908 185.927 234.918 185.927C223.927 185.927 215.018 190.494 215.018 196.127C215.018 201.76 223.927 206.327 234.918 206.327Z" fill="#F5F7F7"/>
<path d="M254.818 196.127C254.618 200.427 250.418 203.027 246.918 204.627C241.218 207.027 234.818 207.227 228.818 206.127C210.218 202.627 210.118 189.227 228.818 185.827C234.818 184.927 241.218 185.227 246.918 187.627C250.418 189.127 254.618 191.827 254.818 196.127ZM254.718 196.127C254.518 191.927 250.218 189.527 246.618 188.227C239.118 185.727 230.618 185.727 223.118 188.327C212.818 192.027 212.618 200.227 223.018 204.127C230.618 207.427 253.618 206.727 254.718 196.127Z" fill="#B1354E"/>
<path d="M246.818 194.527C244.518 200.627 241.218 204.127 234.818 204.127C228.418 204.127 224.718 200.227 222.818 194.527C221.118 189.227 228.418 183.827 234.818 183.827C241.218 183.827 248.818 189.227 246.818 194.527Z" fill="#4C0003"/>
<path d="M222.818 194.527L226.918 206.027C231.918 207.427 236.918 207.327 241.818 206.027L246.818 194.527L245.518 195.827L244.118 194.427L242.918 195.627L241.518 194.227L240.018 195.727L238.218 193.927L236.318 195.827L234.318 193.827L232.418 195.727L230.718 194.027L229.018 195.727L227.218 193.927L225.318 195.827L222.818 194.527Z" fill="#F6BBB5"/>
<path d="M229.718 211.127C229.318 212.327 229.318 213.627 229.618 214.727C217.318 212.527 205.318 210.527 205.618 215.427C205.718 216.927 206.918 218.027 208.418 217.927C208.518 217.927 221.618 217.227 233.318 221.327C237.718 223.027 241.018 218.327 239.318 213.027C237.518 208.027 231.318 206.627 229.718 211.127Z" fill="#4C0003"/>
<path d="M229.818 188.227L233.718 190.627" stroke="#F6BBB5" stroke-width="0.75" stroke-miterlimit="10" stroke-linecap="round" stroke-linejoin="round"/>
<path d="M238.418 191.027L236.218 191.527" stroke="#F0968E" stroke-width="0.5" stroke-miterlimit="10" stroke-linecap="round" stroke-linejoin="round"/>
<path d="M239.918 191.927L242.118 193.327" stroke="#F6BBB5" stroke-width="0.75" stroke-miterlimit="10" stroke-linecap="round" stroke-linejoin="round"/>
<path d="M245.018 192.127L243.718 192.427" stroke="#F0968E" stroke-width="0.5" stroke-miterlimit="10" stroke-linecap="round" stroke-linejoin="round"/>
<path d="M229.718 194.127L227.718 192.327" stroke="#F6BBB5" stroke-width="0.75" stroke-miterlimit="10" stroke-linecap="round" stroke-linejoin="round"/>
<path d="M224.718 192.927H226.018" stroke="#F0968E" stroke-width="0.5" stroke-miterlimit="10" stroke-linecap="round" stroke-linejoin="round"/>
<path d="M237.318 186.727L235.418 185.027" stroke="#F6BBB5" stroke-width="0.75" stroke-miterlimit="10" stroke-linecap="round" stroke-linejoin="round"/>
<path d="M232.318 185.627L233.718 185.527" stroke="#F0968E" stroke-width="0.5" stroke-miterlimit="10" stroke-linecap="round" stroke-linejoin="round"/>
</svg>
