<svg width="18" height="18" viewBox="0 0 18 18" fill="none" xmlns="http://www.w3.org/2000/svg">
<path d="M2.81813 4.22438C2.81813 2.51438 4.2075 1.125 5.9175 1.125C7.32938 1.125 8.52413 2.07788 8.89313 3.3795C8.97101 3.37378 9.04919 3.3734 9.12712 3.37838C9.31122 2.73021 9.70145 2.15966 10.2388 1.75308C10.7761 1.34649 11.4312 1.12601 12.105 1.125C13.815 1.125 15.2044 2.51438 15.2044 4.22438C15.2044 4.24688 15.2044 4.26937 15.1988 4.28625V7.03688C15.1988 7.10998 15.1697 7.18008 15.118 7.23177C15.0663 7.28346 14.9962 7.3125 14.9231 7.3125C14.85 7.3125 14.7799 7.28346 14.7282 7.23177C14.6765 7.18008 14.6475 7.10998 14.6475 7.03688V4.25813C14.6475 2.84063 13.5056 1.67625 12.0881 1.6875C11.5442 1.69337 11.0166 1.8735 10.5826 2.20143C10.1487 2.52936 9.83137 2.98781 9.67725 3.50944C10.0825 3.68198 10.4045 4.00562 10.575 4.41169C10.9685 4.67514 11.2895 5.03314 11.5087 5.45288L11.5881 5.42812C11.7681 5.37187 11.8918 5.20312 11.8918 5.01187V3.89812C11.8918 3.43125 12.1449 3.00375 12.5556 2.77875L12.8762 2.60438C13.0843 2.49188 13.3374 2.57062 13.4499 2.77312C13.5624 2.98125 13.4837 3.23438 13.2812 3.34687L12.9606 3.52125C12.8199 3.6 12.7356 3.74625 12.7356 3.90375V5.02313C12.7356 5.58563 12.3756 6.075 11.8412 6.24375L11.7568 6.27019C11.748 6.35477 11.7193 6.43607 11.6731 6.50744C11.6268 6.57881 11.5644 6.63822 11.4907 6.68081C11.6799 6.80287 11.8354 6.97054 11.9429 7.1684C12.0503 7.36627 12.1062 7.58798 12.1056 7.81313V8.46L12.2181 8.3475C12.3191 8.24726 12.4398 8.16904 12.5725 8.11778C12.7053 8.06652 12.8472 8.04333 12.9894 8.04967C13.1316 8.05601 13.2709 8.09175 13.3986 8.15463C13.5262 8.21751 13.6395 8.30616 13.7312 8.415L14.8506 9.7425C14.9068 9.80438 14.9912 9.84375 15.0756 9.84375H15.3962C15.6268 9.84375 15.8181 10.035 15.8181 10.2656C15.8181 10.4963 15.6268 10.6875 15.3962 10.6875H15.0756C14.7381 10.6875 14.4231 10.5413 14.1981 10.2881L13.0787 8.96063C13.0635 8.94047 13.044 8.92395 13.0216 8.91228C12.9992 8.9006 12.9745 8.89406 12.9493 8.89313C12.9212 8.8875 12.8649 8.89313 12.8143 8.94375L12.1056 9.6525V11.25H13.1968C13.4724 11.25 13.7199 11.3737 13.8887 11.5988C14.0518 11.8125 14.1024 12.0881 14.0293 12.3525L13.2249 15.1594C13.2249 15.165 13.2249 15.1706 13.2306 15.1819C13.2418 15.1931 13.2474 15.1931 13.2531 15.1931H13.6524C13.8831 15.1931 14.0743 15.3844 14.0743 15.615C14.0743 15.8456 13.8831 16.0369 13.6524 16.0369H13.2531C12.9774 16.0369 12.7243 15.9075 12.5556 15.6881C12.3924 15.4631 12.3418 15.1875 12.4149 14.9231L13.2193 12.1163C13.2193 12.1106 13.2193 12.105 13.2137 12.0994C13.2081 12.0938 13.2024 12.0938 13.1968 12.0938H12.1056V13.365C12.1059 13.915 11.9823 14.4581 11.7439 14.9538C11.5055 15.4494 11.1585 15.885 10.7286 16.2281L9.99731 16.8131C9.71835 17.0359 9.37199 17.1572 9.015 17.1573C8.65802 17.1575 8.31159 17.0363 8.0325 16.8137L7.29563 16.2287L7.2945 16.2281C6.86504 15.8834 6.51841 15.4467 6.28019 14.9502C6.04197 14.4537 5.91822 13.9101 5.91806 13.3594V12.0938H4.82625C4.82063 12.0938 4.815 12.0938 4.80938 12.0994C4.80375 12.105 4.80375 12.1106 4.80375 12.1163L5.60813 14.9231C5.68125 15.1875 5.63063 15.4631 5.4675 15.6881C5.29875 15.9075 5.04562 16.0369 4.77 16.0369H4.37063C4.14 16.0369 3.94875 15.8456 3.94875 15.615C3.94875 15.3844 4.14 15.1931 4.37063 15.1931H4.77C4.77562 15.1931 4.78125 15.1931 4.7925 15.1819C4.79813 15.1706 4.79812 15.165 4.79812 15.1594L3.99375 12.3525C3.92062 12.0881 3.97125 11.8125 4.13437 11.5931C4.2975 11.3738 4.55063 11.25 4.82625 11.25H5.9175V9.6075L5.25375 8.94375C5.20312 8.89313 5.14688 8.8875 5.11875 8.89313C5.09063 8.89313 5.03437 8.90438 4.98937 8.96063L3.87 10.2881C3.645 10.5413 3.33 10.6875 2.9925 10.6875H2.67188C2.55999 10.6875 2.45268 10.6431 2.37356 10.5639C2.29445 10.4848 2.25 10.3775 2.25 10.2656C2.25 10.1537 2.29445 10.0464 2.37356 9.96731C2.45268 9.8882 2.55999 9.84375 2.67188 9.84375H2.9925C3.07688 9.84375 3.16125 9.80438 3.2175 9.7425L4.33687 8.415C4.42857 8.30616 4.54182 8.21751 4.66949 8.15463C4.79716 8.09175 4.93647 8.05601 5.07865 8.04967C5.22082 8.04333 5.36276 8.06652 5.49552 8.11778C5.62828 8.16904 5.74898 8.24726 5.85 8.3475L5.9175 8.415V7.8075C5.9173 7.58279 5.97368 7.36165 6.08141 7.16445C6.18915 6.96726 6.3448 6.80035 6.534 6.67912C6.46033 6.63651 6.3979 6.57691 6.35192 6.50529C6.30593 6.43367 6.27772 6.3521 6.26962 6.26737L6.17625 6.23812C5.64187 6.06938 5.28188 5.58 5.28188 5.0175V3.90375C5.28188 3.74625 5.1975 3.6 5.05687 3.52125L4.73062 3.34687C4.52812 3.23438 4.44937 2.98125 4.56187 2.77312C4.67437 2.57062 4.9275 2.49188 5.13563 2.60438L5.45625 2.77875C5.86687 3.00375 6.12 3.43125 6.12 3.89812V5.01187C6.12 5.20312 6.24375 5.37187 6.42375 5.42812L6.52275 5.45906C6.74326 5.03735 7.06533 4.6772 7.45988 4.41112C7.62868 4.00884 7.94625 3.68724 8.34637 3.51337C8.1929 2.99084 7.8757 2.53139 7.44148 2.20268C7.00725 1.87397 6.47895 1.69338 5.93438 1.6875C4.51688 1.67625 3.375 2.84063 3.375 4.25813V7.03688C3.375 7.10998 3.34596 7.18008 3.29427 7.23177C3.24258 7.28346 3.17248 7.3125 3.09938 7.3125C3.02627 7.3125 2.95617 7.28346 2.90448 7.23177C2.85279 7.18008 2.82375 7.10998 2.82375 7.03688V4.28625C2.81813 4.26937 2.81813 4.24688 2.81813 4.22438Z" fill="white"/>
</svg>
