<svg width="390" height="844" viewBox="0 0 390 844" fill="none" xmlns="http://www.w3.org/2000/svg">
<g clip-path="url(#clip0_19_47232)">
<path d="M61.7607 32.1315L61.7607 -29.8685L-0.239258 -29.8685L-0.239258 32.1315L61.7607 32.1315Z" fill="#F6BBB5"/>
<path d="M46.2998 1L30.7998 16.6L46.2998 32.1L61.7998 16.6L46.2998 1ZM45.8998 16.2C45.7998 16.4 45.5998 16.5 45.3998 16.7C45.0998 17.1 45.1998 17.6 45.1998 18C45.2998 19.1 45.2998 21.9 45.2998 23C45.2998 23.3 45.2998 23.6 44.9998 23.7C44.7998 23.8 44.5998 23.7 44.4998 23.5C44.3998 23.3 44.3998 23.1 44.3998 22.9C44.2998 21.5 44.1998 18.1 44.2998 16.5C43.9998 16.5 43.6998 16.3 43.5998 16.1C43.3998 15.8 43.3998 15.5 43.2998 15.2C43.1998 14.2 43.1998 13.1 43.3998 12.1C43.3998 12 43.4998 11.8 43.5998 11.8C43.6998 11.8 43.6998 11.8 43.7998 11.8C43.8998 11.8 43.8998 11.9 43.8998 12C43.8998 12.5 43.8998 13.1 43.8998 13.6C43.8998 13.8 43.9998 14.1 44.1998 14C44.2998 14 44.2998 13.9 44.2998 13.8C44.2998 13.3 44.2998 12.8 44.3998 12.3C44.3998 12.1 44.3998 11.9 44.5998 11.8C44.6998 11.7 44.7998 11.7 44.8998 11.8C44.9998 11.9 44.9998 11.9 44.9998 12C44.9998 12.5 44.9998 12.9 44.9998 13.4C44.9998 13.6 44.9998 13.8 45.0998 14C45.1998 14.1 45.2998 14.1 45.3998 14C45.4998 13.9 45.3998 13.7 45.3998 13.5C45.3998 13 45.3998 12.5 45.4998 12C45.4998 11.9 45.5998 11.9 45.5998 11.9C45.7998 11.8 45.8998 12.1 45.9998 12.3C45.9998 13.2 46.0998 14.1 46.0998 15C46.0998 15.4 46.0998 15.9 45.8998 16.2ZM49.1998 16.7C48.9998 16.8 48.6998 16.7 48.4998 16.9C48.3998 17 48.3998 17.1 48.3998 17.3C48.2998 18.6 48.3998 21.5 48.5998 22.8C48.6998 23.1 48.6998 23.4 48.5998 23.6C48.4998 23.9 47.9998 24 47.6998 23.6C47.4998 20.7 47.4998 16.6 47.3998 13.8C47.3998 13.2 47.2998 12.5 47.3998 11.9C47.3998 11.8 47.3998 11.7 47.4998 11.7C47.5998 11.7 47.6998 11.7 47.7998 11.8C48.2998 12.2 48.5998 12.9 48.7998 13.5C48.9998 14.3 49.1998 15.1 49.3998 15.9C49.3998 16.2 49.4998 16.6 49.1998 16.7Z" fill="#337085"/>
<path d="M15.2998 1L-0.200195 16.6L15.2998 32.1L30.7998 16.6L15.2998 1ZM14.8998 16.2C14.7998 16.4 14.5998 16.5 14.3998 16.7C14.0998 17.1 14.1998 17.6 14.1998 18C14.2998 19.1 14.2998 21.9 14.2998 23C14.2998 23.3 14.2998 23.6 13.9998 23.7C13.7998 23.8 13.5998 23.7 13.4998 23.5C13.3998 23.3 13.3998 23.1 13.3998 22.9C13.2998 21.5 13.1998 18.1 13.2998 16.5C12.9998 16.5 12.6998 16.3 12.5998 16.1C12.3998 15.8 12.3998 15.5 12.2998 15.2C12.1998 14.2 12.1998 13.1 12.3998 12.1C12.3998 12 12.4998 11.8 12.5998 11.8C12.6998 11.8 12.6998 11.8 12.7998 11.8C12.8998 11.8 12.8998 11.9 12.8998 12C12.8998 12.5 12.8998 13.1 12.8998 13.6C12.8998 13.8 12.9998 14.1 13.1998 14C13.2998 14 13.2998 13.9 13.2998 13.8C13.2998 13.3 13.2998 12.8 13.3998 12.3C13.3998 12.1 13.3998 11.9 13.5998 11.8C13.6998 11.7 13.7998 11.7 13.8998 11.8C13.9998 11.9 13.9998 11.9 13.9998 12C13.9998 12.5 13.9998 12.9 13.9998 13.4C13.9998 13.6 13.9998 13.8 14.0998 14C14.1998 14.1 14.2998 14.1 14.3998 14C14.4998 13.9 14.3998 13.7 14.3998 13.5C14.3998 13 14.3998 12.5 14.4998 12C14.4998 11.9 14.5998 11.9 14.5998 11.9C14.7998 11.8 14.8998 12.1 14.9998 12.3C14.9998 13.2 15.0998 14.1 15.0998 15C15.0998 15.4 15.0998 15.9 14.8998 16.2ZM18.0998 16.7C17.8998 16.8 17.5998 16.7 17.3998 16.9C17.2998 17 17.2998 17.1 17.2998 17.3C17.1998 18.6 17.2998 21.5 17.4998 22.8C17.5998 23.1 17.5998 23.4 17.4998 23.6C17.3998 23.9 16.8998 24 16.5998 23.6C16.3998 20.7 16.3998 16.6 16.2998 13.8C16.2998 13.2 16.1998 12.5 16.2998 11.9C16.2998 11.8 16.2998 11.7 16.3998 11.7C16.4998 11.7 16.5998 11.7 16.6998 11.8C17.1998 12.2 17.4998 12.9 17.6998 13.5C17.8998 14.3 18.0998 15.1 18.2998 15.9C18.3998 16.2 18.3998 16.6 18.0998 16.7Z" fill="#337085"/>
<path d="M15.2998 -30L-0.200195 -14.5L15.2998 1L30.7998 -14.5L15.2998 -30ZM14.8998 -14.8C14.7998 -14.6 14.5998 -14.5 14.3998 -14.3C14.0998 -13.9 14.1998 -13.4 14.1998 -13C14.2998 -11.9 14.2998 -9.1 14.2998 -8C14.2998 -7.7 14.2998 -7.4 13.9998 -7.3C13.7998 -7.2 13.5998 -7.3 13.4998 -7.5C13.3998 -7.7 13.3998 -7.9 13.3998 -8.1C13.2998 -9.5 13.1998 -12.9 13.2998 -14.5C12.9998 -14.5 12.6998 -14.7 12.5998 -14.9C12.3998 -15.2 12.3998 -15.5 12.2998 -15.8C12.1998 -16.8 12.1998 -17.9 12.3998 -18.9C12.3998 -19 12.4998 -19.2 12.5998 -19.2C12.6998 -19.2 12.6998 -19.2 12.7998 -19.2C12.8998 -19.2 12.8998 -19.1 12.8998 -19C12.8998 -18.5 12.8998 -17.9 12.8998 -17.4C12.8998 -17.2 12.9998 -16.9 13.1998 -17C13.2998 -17 13.2998 -17.1 13.2998 -17.2C13.2998 -17.7 13.2998 -18.2 13.3998 -18.7C13.3998 -18.9 13.3998 -19.1 13.5998 -19.2C13.6998 -19.3 13.7998 -19.3 13.8998 -19.2C13.9998 -19.1 13.9998 -19.1 13.9998 -19C13.9998 -18.5 13.9998 -18.1 13.9998 -17.6C13.9998 -17.4 13.9998 -17.2 14.0998 -17C14.1998 -16.9 14.2998 -16.9 14.3998 -17C14.4998 -17.1 14.3998 -17.3 14.3998 -17.5C14.3998 -18 14.3998 -18.5 14.4998 -19C14.4998 -19.1 14.5998 -19.1 14.5998 -19.1C14.7998 -19.2 14.8998 -18.9 14.9998 -18.7C14.9998 -17.8 15.0998 -16.9 15.0998 -16C15.0998 -15.6 15.0998 -15.2 14.8998 -14.8ZM18.0998 -14.3C17.8998 -14.2 17.5998 -14.3 17.3998 -14.1C17.2998 -14 17.2998 -13.9 17.2998 -13.7C17.1998 -12.4 17.2998 -9.5 17.4998 -8.2C17.5998 -7.9 17.5998 -7.6 17.4998 -7.4C17.3998 -7.1 16.8998 -7 16.5998 -7.4C16.3998 -10.3 16.3998 -14.4 16.2998 -17.2C16.2998 -17.8 16.1998 -18.5 16.2998 -19.1C16.2998 -19.2 16.2998 -19.3 16.3998 -19.3C16.4998 -19.3 16.5998 -19.3 16.6998 -19.2C17.1998 -18.8 17.4998 -18.1 17.6998 -17.5C17.8998 -16.7 18.0998 -15.9 18.2998 -15.1C18.3998 -14.8 18.3998 -14.5 18.0998 -14.3Z" fill="#337085"/>
<path d="M46.2998 -30L30.7998 -14.5L46.2998 1L61.7998 -14.5L46.2998 -30ZM45.8998 -14.8C45.7998 -14.6 45.5998 -14.5 45.3998 -14.3C45.0998 -13.9 45.1998 -13.4 45.1998 -13C45.2998 -11.9 45.2998 -9.1 45.2998 -8C45.2998 -7.7 45.2998 -7.4 44.9998 -7.3C44.7998 -7.2 44.5998 -7.3 44.4998 -7.5C44.3998 -7.7 44.3998 -7.9 44.3998 -8.1C44.2998 -9.5 44.1998 -12.9 44.2998 -14.5C43.9998 -14.5 43.6998 -14.7 43.5998 -14.9C43.3998 -15.2 43.3998 -15.5 43.2998 -15.8C43.1998 -16.8 43.1998 -17.9 43.3998 -18.9C43.3998 -19 43.4998 -19.2 43.5998 -19.2C43.6998 -19.2 43.6998 -19.2 43.7998 -19.2C43.8998 -19.2 43.8998 -19.1 43.8998 -19C43.8998 -18.5 43.8998 -17.9 43.8998 -17.4C43.8998 -17.2 43.9998 -16.9 44.1998 -17C44.2998 -17 44.2998 -17.1 44.2998 -17.2C44.2998 -17.7 44.2998 -18.2 44.3998 -18.7C44.3998 -18.9 44.3998 -19.1 44.5998 -19.2C44.6998 -19.3 44.7998 -19.3 44.8998 -19.2C44.9998 -19.1 44.9998 -19.1 44.9998 -19C44.9998 -18.5 44.9998 -18.1 44.9998 -17.6C44.9998 -17.4 44.9998 -17.2 45.0998 -17C45.1998 -16.9 45.2998 -16.9 45.3998 -17C45.4998 -17.1 45.3998 -17.3 45.3998 -17.5C45.3998 -18 45.3998 -18.5 45.4998 -19C45.4998 -19.1 45.5998 -19.1 45.5998 -19.1C45.7998 -19.2 45.8998 -18.9 45.9998 -18.7C45.9998 -17.8 46.0998 -16.9 46.0998 -16C46.0998 -15.6 46.0998 -15.2 45.8998 -14.8ZM49.1998 -14.3C48.9998 -14.2 48.6998 -14.3 48.4998 -14.1C48.3998 -14 48.3998 -13.9 48.3998 -13.7C48.2998 -12.4 48.3998 -9.5 48.5998 -8.2C48.6998 -7.9 48.6998 -7.6 48.5998 -7.4C48.4998 -7.1 47.9998 -7 47.6998 -7.4C47.4998 -10.3 47.4998 -14.4 47.3998 -17.2C47.3998 -17.8 47.2998 -18.5 47.3998 -19.1C47.3998 -19.2 47.3998 -19.3 47.4998 -19.3C47.5998 -19.3 47.6998 -19.3 47.7998 -19.2C48.2998 -18.8 48.5998 -18.1 48.7998 -17.5C48.9998 -16.7 49.1998 -15.9 49.3998 -15.1C49.3998 -14.8 49.4998 -14.5 49.1998 -14.3Z" fill="#337085"/>
<path d="M225.977 32.1158V-29.8842L163.977 -29.8842V32.1158L225.977 32.1158Z" fill="#F6BBB5"/>
<path d="M210.5 1L195 16.6L210.5 32.1L226 16.6L210.5 1ZM210.1 16.2C210 16.4 209.8 16.5 209.6 16.7C209.3 17.1 209.4 17.6 209.4 18C209.5 19.1 209.5 21.9 209.5 23C209.5 23.3 209.5 23.6 209.2 23.7C209 23.8 208.8 23.7 208.7 23.5C208.6 23.3 208.6 23.1 208.6 22.9C208.5 21.5 208.4 18.1 208.5 16.5C208.2 16.5 207.9 16.3 207.8 16.1C207.6 15.8 207.6 15.5 207.5 15.2C207.4 14.2 207.4 13.1 207.6 12.1C207.6 12 207.7 11.8 207.8 11.8C207.9 11.8 207.9 11.8 208 11.8C208.1 11.8 208.1 11.9 208.1 12C208.1 12.5 208.1 13.1 208.1 13.6C208.1 13.8 208.2 14.1 208.4 14C208.5 14 208.5 13.9 208.5 13.8C208.5 13.3 208.5 12.8 208.6 12.3C208.6 12.1 208.6 11.9 208.8 11.8C208.9 11.7 209 11.7 209.1 11.8C209.2 11.9 209.2 11.9 209.2 12C209.2 12.5 209.2 12.9 209.2 13.4C209.2 13.6 209.2 13.8 209.3 14C209.4 14.1 209.5 14.1 209.6 14C209.7 13.9 209.6 13.7 209.6 13.5C209.6 13 209.6 12.5 209.7 12C209.7 11.9 209.8 11.9 209.8 11.9C210 11.8 210.1 12.1 210.2 12.3C210.2 13.2 210.3 14.1 210.3 15C210.3 15.4 210.3 15.9 210.1 16.2ZM213.4 16.7C213.2 16.8 212.9 16.7 212.7 16.9C212.6 17 212.6 17.1 212.6 17.3C212.5 18.6 212.6 21.5 212.8 22.8C212.9 23.1 212.9 23.4 212.8 23.6C212.7 23.9 212.2 24 211.9 23.6C211.7 20.7 211.7 16.6 211.6 13.8C211.6 13.2 211.5 12.5 211.6 11.9C211.6 11.8 211.6 11.7 211.7 11.7C211.8 11.7 211.9 11.7 212 11.8C212.5 12.2 212.8 12.9 213 13.5C213.2 14.3 213.4 15.1 213.6 15.9C213.6 16.2 213.7 16.6 213.4 16.7Z" fill="#337085"/>
<path d="M179.5 1L164 16.6L179.5 32.1L195 16.6L179.5 1ZM179.1 16.2C179 16.4 178.8 16.5 178.6 16.7C178.3 17.1 178.4 17.6 178.4 18C178.5 19.1 178.5 21.9 178.5 23C178.5 23.3 178.5 23.6 178.2 23.7C178 23.8 177.8 23.7 177.7 23.5C177.6 23.3 177.6 23.1 177.6 22.9C177.5 21.5 177.4 18.1 177.5 16.5C177.2 16.5 176.9 16.3 176.8 16.1C176.6 15.8 176.6 15.5 176.5 15.2C176.4 14.2 176.4 13.1 176.6 12.1C176.6 12 176.7 11.8 176.8 11.8C176.9 11.8 176.9 11.8 177 11.8C177.1 11.8 177.1 11.9 177.1 12C177.1 12.5 177.1 13.1 177.1 13.6C177.1 13.8 177.2 14.1 177.4 14C177.5 14 177.5 13.9 177.5 13.8C177.5 13.3 177.5 12.8 177.6 12.3C177.6 12.1 177.6 11.9 177.8 11.8C177.9 11.7 178 11.7 178.1 11.8C178.2 11.9 178.2 11.9 178.2 12C178.2 12.5 178.2 12.9 178.2 13.4C178.2 13.6 178.2 13.8 178.3 14C178.4 14.1 178.5 14.1 178.6 14C178.7 13.9 178.6 13.7 178.6 13.5C178.6 13 178.6 12.5 178.7 12C178.7 11.9 178.8 11.9 178.8 11.9C179 11.8 179.1 12.1 179.2 12.3C179.2 13.2 179.3 14.1 179.3 15C179.3 15.4 179.3 15.9 179.1 16.2ZM182.4 16.7C182.2 16.8 181.9 16.7 181.7 16.9C181.6 17 181.6 17.1 181.6 17.3C181.5 18.6 181.6 21.5 181.8 22.8C181.9 23.1 181.9 23.4 181.8 23.6C181.7 23.9 181.2 24 180.9 23.6C180.7 20.7 180.7 16.6 180.6 13.8C180.6 13.2 180.5 12.5 180.6 11.9C180.6 11.8 180.6 11.7 180.7 11.7C180.8 11.7 180.9 11.7 181 11.8C181.5 12.2 181.8 12.9 182 13.5C182.2 14.3 182.4 15.1 182.6 15.9C182.6 16.2 182.6 16.6 182.4 16.7Z" fill="#337085"/>
<path d="M179.5 -30L164 -14.5L179.5 1L195 -14.5L179.5 -30ZM179.1 -14.8C179 -14.6 178.8 -14.5 178.6 -14.3C178.3 -13.9 178.4 -13.4 178.4 -13C178.5 -11.9 178.5 -9.1 178.5 -8C178.5 -7.7 178.5 -7.4 178.2 -7.3C178 -7.2 177.8 -7.3 177.7 -7.5C177.6 -7.7 177.6 -7.9 177.6 -8.1C177.5 -9.5 177.4 -12.9 177.5 -14.5C177.2 -14.5 176.9 -14.7 176.8 -14.9C176.6 -15.2 176.6 -15.5 176.5 -15.8C176.4 -16.8 176.4 -17.9 176.6 -18.9C176.6 -19 176.7 -19.2 176.8 -19.2C176.9 -19.2 176.9 -19.2 177 -19.2C177.1 -19.2 177.1 -19.1 177.1 -19C177.1 -18.5 177.1 -17.9 177.1 -17.4C177.1 -17.2 177.2 -16.9 177.4 -17C177.5 -17 177.5 -17.1 177.5 -17.2C177.5 -17.7 177.5 -18.2 177.6 -18.7C177.6 -18.9 177.6 -19.1 177.8 -19.2C177.9 -19.3 178 -19.3 178.1 -19.2C178.2 -19.1 178.2 -19.1 178.2 -19C178.2 -18.5 178.2 -18.1 178.2 -17.6C178.2 -17.4 178.2 -17.2 178.3 -17C178.4 -16.9 178.5 -16.9 178.6 -17C178.7 -17.1 178.6 -17.3 178.6 -17.5C178.6 -18 178.6 -18.5 178.7 -19C178.7 -19.1 178.8 -19.1 178.8 -19.1C179 -19.2 179.1 -18.9 179.2 -18.7C179.2 -17.8 179.3 -16.9 179.3 -16C179.3 -15.6 179.3 -15.2 179.1 -14.8ZM182.4 -14.3C182.2 -14.2 181.9 -14.3 181.7 -14.1C181.6 -14 181.6 -13.9 181.6 -13.7C181.5 -12.4 181.6 -9.5 181.8 -8.2C181.9 -7.9 181.9 -7.6 181.8 -7.4C181.7 -7.1 181.2 -7 180.9 -7.4C180.7 -10.3 180.7 -14.4 180.6 -17.2C180.6 -17.8 180.5 -18.5 180.6 -19.1C180.6 -19.2 180.6 -19.3 180.7 -19.3C180.8 -19.3 180.9 -19.3 181 -19.2C181.5 -18.8 181.8 -18.1 182 -17.5C182.2 -16.7 182.4 -15.9 182.6 -15.1C182.6 -14.8 182.6 -14.5 182.4 -14.3Z" fill="#337085"/>
<path d="M210.5 -30L195 -14.5L210.5 1L226 -14.5L210.5 -30ZM210.1 -14.8C210 -14.6 209.8 -14.5 209.6 -14.3C209.3 -13.9 209.4 -13.4 209.4 -13C209.5 -11.9 209.5 -9.1 209.5 -8C209.5 -7.7 209.5 -7.4 209.2 -7.3C209 -7.2 208.8 -7.3 208.7 -7.5C208.6 -7.7 208.6 -7.9 208.6 -8.1C208.5 -9.5 208.4 -12.9 208.5 -14.5C208.2 -14.5 207.9 -14.7 207.8 -14.9C207.6 -15.2 207.6 -15.5 207.5 -15.8C207.4 -16.8 207.4 -17.9 207.6 -18.9C207.6 -19 207.7 -19.2 207.8 -19.2C207.9 -19.2 207.9 -19.2 208 -19.2C208.1 -19.2 208.1 -19.1 208.1 -19C208.1 -18.5 208.1 -17.9 208.1 -17.4C208.1 -17.2 208.2 -16.9 208.4 -17C208.5 -17 208.5 -17.1 208.5 -17.2C208.5 -17.7 208.5 -18.2 208.6 -18.7C208.6 -18.9 208.6 -19.1 208.8 -19.2C208.9 -19.3 209 -19.3 209.1 -19.2C209.2 -19.1 209.2 -19.1 209.2 -19C209.2 -18.5 209.2 -18.1 209.2 -17.6C209.2 -17.4 209.2 -17.2 209.3 -17C209.4 -16.9 209.5 -16.9 209.6 -17C209.7 -17.1 209.6 -17.3 209.6 -17.5C209.6 -18 209.6 -18.5 209.7 -19C209.7 -19.1 209.8 -19.1 209.8 -19.1C210 -19.2 210.1 -18.9 210.2 -18.7C210.2 -17.8 210.3 -16.9 210.3 -16C210.3 -15.6 210.3 -15.2 210.1 -14.8ZM213.4 -14.3C213.2 -14.2 212.9 -14.3 212.7 -14.1C212.6 -14 212.6 -13.9 212.6 -13.7C212.5 -12.4 212.6 -9.5 212.8 -8.2C212.9 -7.9 212.9 -7.6 212.8 -7.4C212.7 -7.1 212.2 -7 211.9 -7.4C211.7 -10.3 211.7 -14.4 211.6 -17.2C211.6 -17.8 211.5 -18.5 211.6 -19.1C211.6 -19.2 211.6 -19.3 211.7 -19.3C211.8 -19.3 211.9 -19.3 212 -19.2C212.5 -18.8 212.8 -18.1 213 -17.5C213.2 -16.7 213.4 -15.9 213.6 -15.1C213.6 -14.8 213.7 -14.5 213.4 -14.3Z" fill="#337085"/>
<path d="M308.084 31.1079V-30.8921L246.084 -30.8921V31.1079L308.084 31.1079Z" fill="#F0968E"/>
<path d="M292.6 0L277.1 15.5L292.6 31L308.1 15.5L292.6 0ZM292.2 15.2C292.1 15.4 291.9 15.5 291.7 15.7C291.4 16.1 291.5 16.6 291.5 17C291.6 18.1 291.6 20.9 291.6 22C291.6 22.3 291.6 22.6 291.3 22.7C291.1 22.8 290.9 22.7 290.8 22.5C290.7 22.3 290.7 22.1 290.7 21.9C290.6 20.5 290.5 17.1 290.6 15.5C290.3 15.5 290 15.3 289.9 15.1C289.7 14.8 289.7 14.5 289.6 14.2C289.5 13.2 289.5 12.1 289.7 11.1C289.7 11 289.8 10.8 289.9 10.8C290 10.8 290 10.8 290.1 10.8C290.2 10.8 290.2 10.9 290.2 11C290.2 11.5 290.2 12.1 290.2 12.6C290.2 12.8 290.3 13.1 290.5 13C290.6 13 290.6 12.9 290.6 12.8C290.6 12.3 290.6 11.8 290.7 11.3C290.7 11.1 290.7 10.9 290.9 10.8C291 10.7 291.1 10.7 291.2 10.8C291.3 10.9 291.3 10.9 291.3 11C291.3 11.5 291.3 11.9 291.3 12.4C291.3 12.6 291.3 12.8 291.4 13C291.5 13.1 291.6 13.1 291.7 13C291.8 12.9 291.7 12.7 291.7 12.5C291.7 12 291.7 11.5 291.8 11C291.8 10.9 291.9 10.9 291.9 10.9C292.1 10.8 292.2 11.1 292.3 11.3C292.3 12.2 292.4 13.1 292.4 14C292.4 14.4 292.5 14.9 292.2 15.2ZM295.5 15.7C295.3 15.8 295 15.7 294.8 15.9C294.7 16 294.7 16.1 294.7 16.3C294.6 17.6 294.7 20.5 294.9 21.8C295 22.1 295 22.4 294.9 22.6C294.8 22.9 294.3 23 294 22.6C293.8 19.7 293.8 15.6 293.7 12.8C293.7 12.2 293.6 11.5 293.7 10.9C293.7 10.8 293.7 10.7 293.8 10.7C293.9 10.7 294 10.7 294.1 10.8C294.6 11.2 294.9 11.9 295.1 12.5C295.3 13.3 295.5 14.1 295.7 14.9C295.8 15.2 295.8 15.6 295.5 15.7Z" fill="#337085"/>
<path d="M261.6 0L246.1 15.5L261.6 31L277.1 15.5L261.6 0ZM261.2 15.2C261.1 15.4 260.9 15.5 260.7 15.7C260.4 16.1 260.5 16.6 260.5 17C260.6 18.1 260.6 20.9 260.6 22C260.6 22.3 260.6 22.6 260.3 22.7C260.1 22.8 259.9 22.7 259.8 22.5C259.7 22.3 259.7 22.1 259.7 21.9C259.6 20.5 259.5 17.1 259.6 15.5C259.3 15.5 259 15.3 258.9 15.1C258.7 14.8 258.7 14.5 258.6 14.2C258.5 13.2 258.5 12.1 258.7 11.1C258.7 11 258.8 10.8 258.9 10.8C259 10.8 259 10.8 259.1 10.8C259.2 10.8 259.2 10.9 259.2 11C259.2 11.5 259.2 12.1 259.2 12.6C259.2 12.8 259.3 13.1 259.5 13C259.6 13 259.6 12.9 259.6 12.8C259.6 12.3 259.6 11.8 259.7 11.3C259.7 11.1 259.7 10.9 259.9 10.8C260 10.7 260.1 10.7 260.2 10.8C260.3 10.9 260.3 10.9 260.3 11C260.3 11.5 260.3 11.9 260.3 12.4C260.3 12.6 260.3 12.8 260.4 13C260.5 13.1 260.6 13.1 260.7 13C260.8 12.9 260.7 12.7 260.7 12.5C260.7 12 260.7 11.5 260.8 11C260.8 10.9 260.9 10.9 260.9 10.9C261.1 10.8 261.2 11.1 261.3 11.3C261.3 12.2 261.4 13.1 261.4 14C261.4 14.4 261.4 14.9 261.2 15.2ZM264.5 15.7C264.3 15.8 264 15.7 263.8 15.9C263.7 16 263.7 16.1 263.7 16.3C263.6 17.6 263.7 20.5 263.9 21.8C264 22.1 264 22.4 263.9 22.6C263.8 22.9 263.3 23 263 22.6C262.8 19.7 262.8 15.6 262.7 12.8C262.7 12.2 262.6 11.5 262.7 10.9C262.7 10.8 262.7 10.7 262.8 10.7C262.9 10.7 263 10.7 263.1 10.8C263.6 11.2 263.9 11.9 264.1 12.5C264.3 13.3 264.5 14.1 264.7 14.9C264.7 15.2 264.8 15.6 264.5 15.7Z" fill="#337085"/>
<path d="M390.192 31.1001V-30.8999L328.192 -30.8999V31.1001L390.192 31.1001Z" fill="#F6BBB5"/>
<path d="M374.7 0L359.2 15.5L374.7 31L390.2 15.5L374.7 0ZM374.3 15.2C374.2 15.4 374 15.5 373.8 15.7C373.5 16.1 373.6 16.6 373.6 17C373.7 18.1 373.7 20.9 373.7 22C373.7 22.3 373.7 22.6 373.4 22.7C373.2 22.8 373 22.7 372.9 22.5C372.8 22.3 372.8 22.1 372.8 21.9C372.7 20.5 372.6 17.1 372.7 15.5C372.4 15.5 372.1 15.3 372 15.1C371.8 14.8 371.8 14.5 371.7 14.2C371.6 13.2 371.6 12.1 371.8 11.1C371.8 11 371.9 10.8 372 10.8C372.1 10.8 372.1 10.8 372.2 10.8C372.3 10.8 372.3 10.9 372.3 11C372.3 11.5 372.3 12.1 372.3 12.6C372.3 12.8 372.4 13.1 372.6 13C372.7 13 372.7 12.9 372.7 12.8C372.7 12.3 372.7 11.8 372.8 11.3C372.8 11.1 372.8 10.9 373 10.8C373.1 10.7 373.2 10.7 373.3 10.8C373.4 10.9 373.4 10.9 373.4 11C373.4 11.5 373.4 11.9 373.4 12.4C373.4 12.6 373.4 12.8 373.5 13C373.6 13.1 373.7 13.1 373.8 13C373.9 12.9 373.8 12.7 373.8 12.5C373.8 12 373.8 11.5 373.9 11C373.9 10.9 374 10.9 374 10.9C374.2 10.8 374.3 11.1 374.4 11.3C374.4 12.2 374.5 13.1 374.5 14C374.5 14.4 374.6 14.9 374.3 15.2ZM377.6 15.7C377.4 15.8 377.1 15.7 376.9 15.9C376.8 16 376.8 16.1 376.8 16.3C376.7 17.6 376.8 20.5 377 21.8C377.1 22.1 377.1 22.4 377 22.6C376.9 22.9 376.4 23 376.1 22.6C375.9 19.7 375.9 15.6 375.8 12.8C375.8 12.2 375.7 11.5 375.8 10.9C375.8 10.8 375.8 10.7 375.9 10.7C376 10.7 376.1 10.7 376.2 10.8C376.7 11.2 377 11.9 377.2 12.5C377.4 13.3 377.6 14.1 377.8 14.9C377.9 15.2 377.9 15.6 377.6 15.7Z" fill="#337085"/>
<path d="M343.7 0L328.2 15.5L343.7 31L359.2 15.5L343.7 0ZM343.3 15.2C343.2 15.4 343 15.5 342.8 15.7C342.5 16.1 342.6 16.6 342.6 17C342.7 18.1 342.7 20.9 342.7 22C342.7 22.3 342.7 22.6 342.4 22.7C342.2 22.8 342 22.7 341.9 22.5C341.8 22.3 341.8 22.1 341.8 21.9C341.7 20.5 341.6 17.1 341.7 15.5C341.4 15.5 341.1 15.3 341 15.1C340.8 14.8 340.8 14.5 340.7 14.2C340.6 13.2 340.6 12.1 340.8 11.1C340.8 11 340.9 10.8 341 10.8C341.1 10.8 341.1 10.8 341.2 10.8C341.3 10.8 341.3 10.9 341.3 11C341.3 11.5 341.3 12.1 341.3 12.6C341.3 12.8 341.4 13.1 341.6 13C341.7 13 341.7 12.9 341.7 12.8C341.7 12.3 341.7 11.8 341.8 11.3C341.8 11.1 341.8 10.9 342 10.8C342.1 10.7 342.2 10.7 342.3 10.8C342.4 10.9 342.4 10.9 342.4 11C342.4 11.5 342.4 11.9 342.4 12.4C342.4 12.6 342.4 12.8 342.5 13C342.6 13.1 342.7 13.1 342.8 13C342.9 12.9 342.8 12.7 342.8 12.5C342.8 12 342.8 11.5 342.9 11C342.9 10.9 343 10.9 343 10.9C343.2 10.8 343.3 11.1 343.4 11.3C343.4 12.2 343.5 13.1 343.5 14C343.5 14.4 343.5 14.9 343.3 15.2ZM346.6 15.7C346.4 15.8 346.1 15.7 345.9 15.9C345.8 16 345.8 16.1 345.8 16.3C345.7 17.6 345.8 20.5 346 21.8C346.1 22.1 346.1 22.4 346 22.6C345.9 22.9 345.4 23 345.1 22.6C344.9 19.7 344.9 15.6 344.8 12.8C344.8 12.2 344.7 11.5 344.8 10.9C344.8 10.8 344.8 10.7 344.9 10.7C345 10.7 345.1 10.7 345.2 10.8C345.7 11.2 346 11.9 346.2 12.5C346.4 13.3 346.6 14.1 346.8 14.9C346.8 15.2 346.9 15.6 346.6 15.7Z" fill="#337085"/>
<path d="M143.869 32.1236V-29.8763L81.8687 -29.8763L81.8687 32.1236L143.869 32.1236Z" fill="#F0968E"/>
<path d="M128.4 1L112.9 16.5L128.4 32L143.9 16.5L128.4 1ZM128 16.2C127.9 16.4 127.7 16.5 127.5 16.7C127.2 17.1 127.3 17.6 127.3 18C127.4 19.1 127.4 21.9 127.4 23C127.4 23.3 127.4 23.6 127.1 23.7C126.9 23.8 126.7 23.7 126.6 23.5C126.5 23.3 126.5 23.1 126.5 22.9C126.4 21.5 126.3 18.1 126.4 16.5C126.1 16.5 125.8 16.3 125.7 16.1C125.5 15.8 125.5 15.5 125.4 15.2C125.3 14.2 125.3 13.1 125.5 12.1C125.5 12 125.6 11.8 125.7 11.8C125.8 11.8 125.8 11.8 125.9 11.8C126 11.8 126 11.9 126 12C126 12.5 126 13.1 126 13.6C126 13.8 126.1 14.1 126.3 14C126.4 14 126.4 13.9 126.4 13.8C126.4 13.3 126.4 12.8 126.5 12.3C126.5 12.1 126.5 11.9 126.7 11.8C126.8 11.7 126.9 11.7 127 11.8C127.1 11.9 127.1 11.9 127.1 12C127.1 12.5 127.1 12.9 127.1 13.4C127.1 13.6 127.1 13.8 127.2 14C127.3 14.1 127.4 14.1 127.5 14C127.6 13.9 127.5 13.7 127.5 13.5C127.5 13 127.5 12.5 127.6 12C127.6 11.9 127.7 11.9 127.7 11.9C127.9 11.8 128 12.1 128.1 12.3C128.1 13.2 128.2 14.1 128.2 15C128.2 15.4 128.2 15.9 128 16.2ZM131.3 16.7C131.1 16.8 130.8 16.7 130.6 16.9C130.5 17 130.5 17.1 130.5 17.3C130.4 18.6 130.5 21.5 130.7 22.8C130.8 23.1 130.8 23.4 130.7 23.6C130.6 23.9 130.1 24 129.8 23.6C129.6 20.7 129.6 16.6 129.5 13.8C129.5 13.2 129.4 12.5 129.5 11.9C129.5 11.8 129.5 11.7 129.6 11.7C129.7 11.7 129.8 11.7 129.9 11.8C130.4 12.2 130.7 12.9 130.9 13.5C131.1 14.3 131.3 15.1 131.5 15.9C131.5 16.2 131.6 16.6 131.3 16.7Z" fill="#337085"/>
<path d="M97.3999 1L81.8999 16.6L97.3999 32.1L112.9 16.6L97.3999 1ZM96.9999 16.2C96.8999 16.4 96.6999 16.5 96.4999 16.7C96.1999 17.1 96.2999 17.6 96.2999 18C96.3999 19.1 96.3999 21.9 96.3999 23C96.3999 23.3 96.3999 23.6 96.0999 23.7C95.8999 23.8 95.6999 23.7 95.5999 23.5C95.4999 23.3 95.4999 23.1 95.4999 22.9C95.3999 21.5 95.2999 18.1 95.3999 16.5C95.0999 16.5 94.7999 16.3 94.6999 16.1C94.4999 15.8 94.4999 15.5 94.3999 15.2C94.2999 14.2 94.2999 13.1 94.4999 12.1C94.4999 12 94.5999 11.8 94.6999 11.8C94.7999 11.8 94.7999 11.8 94.8999 11.8C94.9999 11.8 94.9999 11.9 94.9999 12C94.9999 12.5 94.9999 13.1 94.9999 13.6C94.9999 13.8 95.0999 14.1 95.2999 14C95.3999 14 95.3999 13.9 95.3999 13.8C95.3999 13.3 95.3999 12.8 95.4999 12.3C95.4999 12.1 95.4999 11.9 95.6999 11.8C95.7999 11.7 95.8999 11.7 95.9999 11.8C95.9999 11.9 95.9999 12 95.9999 12.1C95.9999 12.6 95.9999 13 95.9999 13.5C95.9999 13.7 95.9999 13.9 96.0999 14.1C96.1999 14.2 96.2999 14.2 96.3999 14.1C96.4999 14 96.3999 13.8 96.3999 13.6C96.3999 13.1 96.3999 12.6 96.4999 12.1C96.4999 12 96.5999 12 96.5999 12C96.7999 11.9 96.8999 12.2 96.9999 12.4C96.9999 13.3 97.0999 14.2 97.0999 15.1C97.1999 15.4 97.1999 15.9 96.9999 16.2ZM100.3 16.7C100.1 16.8 99.7999 16.7 99.5999 16.9C99.4999 17 99.4999 17.1 99.4999 17.3C99.3999 18.6 99.4999 21.5 99.6999 22.8C99.7999 23.1 99.7999 23.4 99.6999 23.6C99.5999 23.9 99.0999 24 98.7999 23.6C98.5999 20.7 98.5999 16.6 98.4999 13.8C98.4999 13.2 98.3999 12.5 98.4999 11.9C98.4999 11.8 98.4999 11.7 98.5999 11.7C98.6999 11.7 98.7999 11.7 98.8999 11.8C99.3999 12.2 99.6999 12.9 99.8999 13.5C100.1 14.3 100.3 15.1 100.5 15.9C100.5 16.2 100.5 16.6 100.3 16.7Z" fill="#337085"/>
<path d="M97.3999 -30L81.8999 -14.5L97.3999 1L112.9 -14.5L97.3999 -30ZM96.9999 -14.8C96.8999 -14.6 96.6999 -14.5 96.4999 -14.3C96.1999 -13.9 96.2999 -13.4 96.2999 -13C96.3999 -11.9 96.3999 -9.1 96.3999 -8C96.3999 -7.7 96.3999 -7.4 96.0999 -7.3C95.8999 -7.2 95.6999 -7.3 95.5999 -7.5C95.4999 -7.7 95.4999 -7.9 95.4999 -8.1C95.3999 -9.5 95.2999 -12.9 95.3999 -14.5C95.0999 -14.5 94.7999 -14.7 94.6999 -14.9C94.4999 -15.2 94.4999 -15.5 94.3999 -15.8C94.2999 -16.8 94.2999 -17.9 94.4999 -18.9C94.4999 -19 94.5999 -19.2 94.6999 -19.2C94.7999 -19.2 94.7999 -19.2 94.8999 -19.2C94.9999 -19.2 94.9999 -19.1 94.9999 -19C94.9999 -18.5 94.9999 -17.9 94.9999 -17.4C94.9999 -17.2 95.0999 -16.9 95.2999 -17C95.3999 -17 95.3999 -17.1 95.3999 -17.2C95.3999 -17.7 95.3999 -18.2 95.4999 -18.7C95.4999 -18.9 95.4999 -19.1 95.6999 -19.2C95.7999 -19.3 95.8999 -19.3 95.9999 -19.2C95.9999 -19.2 95.9999 -19.1 95.9999 -19C95.9999 -18.5 95.9999 -18.1 95.9999 -17.6C95.9999 -17.4 95.9999 -17.2 96.0999 -17C96.1999 -16.9 96.2999 -16.9 96.3999 -17C96.4999 -17.1 96.3999 -17.3 96.3999 -17.5C96.3999 -18 96.3999 -18.5 96.4999 -19C96.4999 -19.1 96.5999 -19.1 96.5999 -19.1C96.7999 -19.2 96.8999 -18.9 96.9999 -18.7C96.9999 -17.8 97.0999 -16.9 97.0999 -16C97.1999 -15.6 97.1999 -15.2 96.9999 -14.8ZM100.3 -14.3C100.1 -14.2 99.7999 -14.3 99.5999 -14.1C99.4999 -14 99.4999 -13.9 99.4999 -13.7C99.3999 -12.4 99.4999 -9.5 99.6999 -8.2C99.7999 -7.9 99.7999 -7.6 99.6999 -7.4C99.5999 -7.1 99.0999 -7 98.7999 -7.4C98.5999 -10.3 98.5999 -14.4 98.4999 -17.2C98.4999 -17.8 98.3999 -18.5 98.4999 -19.1C98.4999 -19.2 98.4999 -19.3 98.5999 -19.3C98.6999 -19.3 98.7999 -19.3 98.8999 -19.2C99.3999 -18.8 99.6999 -18.1 99.8999 -17.5C100.1 -16.7 100.3 -15.9 100.5 -15.1C100.5 -14.8 100.5 -14.5 100.3 -14.3Z" fill="#337085"/>
<path d="M128.4 -30L112.9 -14.5L128.4 1L143.9 -14.5L128.4 -30ZM128 -14.8C127.9 -14.6 127.7 -14.5 127.5 -14.3C127.2 -13.9 127.3 -13.4 127.3 -13C127.4 -11.9 127.4 -9.1 127.4 -8C127.4 -7.7 127.4 -7.4 127.1 -7.3C126.9 -7.2 126.7 -7.3 126.6 -7.5C126.5 -7.7 126.5 -7.9 126.5 -8.1C126.4 -9.5 126.3 -12.9 126.4 -14.5C126.1 -14.5 125.8 -14.7 125.7 -14.9C125.5 -15.2 125.5 -15.5 125.4 -15.8C125.3 -16.8 125.3 -17.9 125.5 -18.9C125.5 -19 125.6 -19.2 125.7 -19.2C125.8 -19.2 125.8 -19.2 125.9 -19.2C126 -19.2 126 -19.1 126 -19C126 -18.5 126 -17.9 126 -17.4C126 -17.2 126.1 -16.9 126.3 -17C126.4 -17 126.4 -17.1 126.4 -17.2C126.4 -17.7 126.4 -18.2 126.5 -18.7C126.5 -18.9 126.5 -19.1 126.7 -19.2C126.8 -19.3 126.9 -19.3 127 -19.2C127.1 -19.1 127.1 -19.1 127.1 -19C127.1 -18.5 127.1 -18.1 127.1 -17.6C127.1 -17.4 127.1 -17.2 127.2 -17C127.3 -16.9 127.4 -16.9 127.5 -17C127.6 -17.1 127.5 -17.3 127.5 -17.5C127.5 -18 127.5 -18.5 127.6 -19C127.6 -19.1 127.7 -19.1 127.7 -19.1C127.9 -19.2 128 -18.9 128.1 -18.7C128.1 -17.8 128.2 -16.9 128.2 -16C128.2 -15.6 128.2 -15.2 128 -14.8ZM131.3 -14.3C131.1 -14.2 130.8 -14.3 130.6 -14.1C130.5 -14 130.5 -13.9 130.5 -13.7C130.4 -12.4 130.5 -9.5 130.7 -8.2C130.8 -7.9 130.8 -7.6 130.7 -7.4C130.6 -7.1 130.1 -7 129.8 -7.4C129.6 -10.3 129.6 -14.4 129.5 -17.2C129.5 -17.8 129.4 -18.5 129.5 -19.1C129.5 -19.2 129.5 -19.3 129.6 -19.3C129.7 -19.3 129.8 -19.3 129.9 -19.2C130.4 -18.8 130.7 -18.1 130.9 -17.5C131.1 -16.7 131.3 -15.9 131.5 -15.1C131.5 -14.8 131.6 -14.5 131.3 -14.3Z" fill="#337085"/>
<path d="M421.065 194.229V132.229H359.065V194.229H421.065Z" fill="#F6BBB5"/>
<path d="M374.5 163.2L359 178.7L374.5 194.2L390 178.7L374.5 163.2ZM374.1 178.4C374 178.6 373.8 178.7 373.6 178.9C373.3 179.3 373.4 179.8 373.4 180.2C373.5 181.3 373.5 184.1 373.5 185.2C373.5 185.5 373.5 185.8 373.2 185.9C373 186 372.8 185.9 372.7 185.7C372.6 185.5 372.6 185.3 372.6 185.1C372.5 183.7 372.4 180.3 372.5 178.7C372.2 178.7 371.9 178.5 371.8 178.3C371.6 178 371.6 177.7 371.5 177.4C371.4 176.4 371.4 175.3 371.6 174.3C371.6 174.2 371.7 174 371.8 174C371.9 174 371.9 174 372 174C372.1 174 372.1 174.1 372.1 174.2C372.1 174.7 372.1 175.3 372.1 175.8C372.1 176 372.2 176.3 372.4 176.2C372.5 176.2 372.5 176.1 372.5 176C372.5 175.5 372.5 175 372.6 174.5C372.6 174.3 372.6 174.1 372.8 174C372.9 173.9 373 173.9 373.1 174C373.2 174.1 373.2 174.1 373.2 174.2C373.2 174.7 373.2 175.1 373.2 175.6C373.2 175.8 373.2 176 373.3 176.2C373.4 176.3 373.5 176.3 373.6 176.2C373.7 176.1 373.6 175.9 373.6 175.7C373.6 175.2 373.6 174.7 373.7 174.2C373.7 174.1 373.8 174.1 373.8 174.1C374 174 374.1 174.3 374.2 174.5C374.2 175.4 374.3 176.3 374.3 177.2C374.3 177.6 374.3 178 374.1 178.4ZM377.4 178.8C377.2 178.9 376.9 178.8 376.7 179C376.6 179.1 376.6 179.2 376.6 179.4C376.5 180.7 376.6 183.6 376.8 184.9C376.9 185.2 376.9 185.5 376.8 185.7C376.7 186 376.2 186.1 375.9 185.7C375.7 182.8 375.7 178.7 375.6 175.9C375.6 175.3 375.5 174.6 375.6 174C375.6 173.9 375.6 173.8 375.7 173.8C375.8 173.8 375.9 173.8 376 173.9C376.5 174.3 376.8 175 377 175.6C377.2 176.4 377.4 177.2 377.6 178C377.7 178.3 377.7 178.7 377.4 178.8Z" fill="#337085"/>
<path d="M374.5 132.2L359 147.7L374.5 163.2L390 147.7L374.5 132.2ZM374.1 147.3C374 147.5 373.8 147.6 373.6 147.8C373.3 148.2 373.4 148.7 373.4 149.1C373.5 150.2 373.5 153 373.5 154.1C373.5 154.4 373.5 154.7 373.2 154.8C373 154.9 372.8 154.8 372.7 154.6C372.6 154.4 372.6 154.2 372.6 154C372.5 152.6 372.4 149.2 372.5 147.6C372.2 147.6 371.9 147.4 371.8 147.2C371.6 146.9 371.6 146.6 371.5 146.3C371.4 145.3 371.4 144.2 371.6 143.2C371.6 143.1 371.7 142.9 371.8 142.9C371.9 142.9 371.9 142.9 372 142.9C372.1 142.9 372.1 143 372.1 143.1C372.1 143.6 372.1 144.2 372.1 144.7C372.1 144.9 372.2 145.2 372.4 145.1C372.5 145.1 372.5 145 372.5 144.9C372.5 144.4 372.5 143.9 372.6 143.4C372.6 143.2 372.6 143 372.8 142.9C372.9 142.8 373 142.8 373.1 142.9C373.2 143 373.2 143 373.2 143.1C373.2 143.6 373.2 144 373.2 144.5C373.2 144.7 373.2 144.9 373.3 145.1C373.4 145.2 373.5 145.2 373.6 145.1C373.7 145 373.6 144.8 373.6 144.6C373.6 144.1 373.6 143.6 373.7 143.1C373.7 143 373.8 143 373.8 143C374 142.9 374.1 143.2 374.2 143.4C374.2 144.3 374.3 145.2 374.3 146.1C374.3 146.5 374.3 147 374.1 147.3ZM377.4 147.8C377.2 147.9 376.9 147.8 376.7 148C376.6 148.1 376.6 148.2 376.6 148.4C376.5 149.7 376.6 152.6 376.8 153.9C376.9 154.2 376.9 154.5 376.8 154.7C376.7 155 376.2 155.1 375.9 154.7C375.7 151.8 375.7 147.7 375.6 144.9C375.6 144.3 375.5 143.6 375.6 143C375.6 142.9 375.6 142.8 375.7 142.8C375.8 142.8 375.9 142.8 376 142.9C376.5 143.3 376.8 144 377 144.6C377.2 145.4 377.4 146.2 377.6 147C377.7 147.3 377.7 147.7 377.4 147.8Z" fill="#337085"/>
<path d="M420.982 275.447V213.447H358.982V275.447H420.982Z" fill="#F0968E"/>
<path d="M374.5 244.4L359 259.9L374.5 275.4L390 259.9L374.5 244.4ZM374.1 259.6C374 259.8 373.8 259.9 373.6 260.1C373.3 260.5 373.4 261 373.4 261.4C373.5 262.5 373.5 265.3 373.5 266.4C373.5 266.7 373.5 267 373.2 267.1C373 267.2 372.8 267.1 372.7 266.9C372.6 266.7 372.6 266.5 372.6 266.3C372.5 264.9 372.4 261.5 372.5 259.9C372.2 259.9 371.9 259.7 371.8 259.5C371.6 259.2 371.6 258.9 371.5 258.6C371.4 257.6 371.4 256.5 371.6 255.5C371.6 255.4 371.7 255.2 371.8 255.2C371.9 255.2 371.9 255.2 372 255.2C372.1 255.2 372.1 255.3 372.1 255.4C372.1 255.9 372.1 256.5 372.1 257C372.1 257.2 372.2 257.5 372.4 257.4C372.5 257.4 372.5 257.3 372.5 257.2C372.5 256.7 372.5 256.2 372.6 255.7C372.6 255.5 372.6 255.3 372.8 255.2C372.9 255.1 373 255.1 373.1 255.2C373.2 255.3 373.2 255.3 373.2 255.4C373.2 255.9 373.2 256.3 373.2 256.8C373.2 257 373.2 257.2 373.3 257.4C373.4 257.5 373.5 257.5 373.6 257.4C373.7 257.3 373.6 257.1 373.6 256.9C373.6 256.4 373.6 255.9 373.7 255.4C373.7 255.3 373.8 255.3 373.8 255.3C374 255.2 374.1 255.5 374.2 255.7C374.2 256.6 374.3 257.5 374.3 258.4C374.3 258.8 374.3 259.2 374.1 259.6ZM377.4 260.1C377.2 260.2 376.9 260.1 376.7 260.3C376.6 260.4 376.6 260.5 376.6 260.7C376.5 262 376.6 264.9 376.8 266.2C376.9 266.5 376.9 266.8 376.8 267C376.7 267.3 376.2 267.4 375.9 267C375.7 264.1 375.7 260 375.6 257.2C375.6 256.6 375.5 255.9 375.6 255.3C375.6 255.2 375.6 255.1 375.7 255.1C375.8 255.1 375.9 255.1 376 255.2C376.5 255.6 376.8 256.3 377 256.9C377.2 257.7 377.4 258.5 377.6 259.3C377.7 259.6 377.7 259.9 377.4 260.1Z" fill="#337085"/>
<path d="M374.5 213.4L359 228.9L374.5 244.4L390 228.9L374.5 213.4ZM374.1 228.6C374 228.8 373.8 228.9 373.6 229.1C373.3 229.5 373.4 230 373.4 230.4C373.5 231.5 373.5 234.3 373.5 235.4C373.5 235.7 373.5 236 373.2 236.1C373 236.2 372.8 236.1 372.7 235.9C372.6 235.7 372.6 235.5 372.6 235.3C372.5 233.9 372.4 230.5 372.5 228.9C372.2 228.9 371.9 228.7 371.8 228.5C371.6 228.2 371.6 227.9 371.5 227.6C371.4 226.6 371.4 225.5 371.6 224.5C371.6 224.4 371.7 224.2 371.8 224.2C371.9 224.2 371.9 224.2 372 224.2C372.1 224.2 372.1 224.3 372.1 224.4C372.1 224.9 372.1 225.5 372.1 226C372.1 226.2 372.2 226.5 372.4 226.4C372.5 226.4 372.5 226.3 372.5 226.2C372.5 225.7 372.5 225.2 372.6 224.7C372.6 224.5 372.6 224.3 372.8 224.2C372.9 224.1 373 224.1 373.1 224.2C373.2 224.3 373.2 224.3 373.2 224.4C373.2 224.9 373.2 225.3 373.2 225.8C373.2 226 373.2 226.2 373.3 226.4C373.4 226.5 373.5 226.5 373.6 226.4C373.7 226.3 373.6 226.1 373.6 225.9C373.6 225.4 373.6 224.9 373.7 224.4C373.7 224.3 373.8 224.3 373.8 224.3C374 224.2 374.1 224.5 374.2 224.7C374.2 225.6 374.3 226.5 374.3 227.4C374.3 227.8 374.3 228.2 374.1 228.6ZM377.4 229C377.2 229.1 376.9 229 376.7 229.2C376.6 229.3 376.6 229.4 376.6 229.6C376.5 230.9 376.6 233.8 376.8 235.1C376.9 235.4 376.9 235.7 376.8 235.9C376.7 236.2 376.2 236.3 375.9 235.9C375.7 233 375.7 228.9 375.6 226.1C375.6 225.5 375.5 224.8 375.6 224.2C375.6 224.1 375.6 224 375.7 224C375.8 224 375.9 224 376 224.1C376.5 224.5 376.8 225.2 377 225.8C377.2 226.6 377.4 227.4 377.6 228.2C377.7 228.5 377.7 228.9 377.4 229Z" fill="#337085"/>
<path d="M420.96 356.703V294.703H358.96V356.703H420.96Z" fill="#F6BBB5"/>
<path d="M374.5 325.6L359 341.1L374.5 356.6L390 341.1L374.5 325.6ZM374.1 340.8C374 341 373.8 341.1 373.6 341.3C373.3 341.7 373.4 342.2 373.4 342.6C373.5 343.7 373.5 346.5 373.5 347.6C373.5 347.9 373.5 348.2 373.2 348.3C373 348.4 372.8 348.3 372.7 348.1C372.6 347.9 372.6 347.7 372.6 347.5C372.5 346.1 372.4 342.7 372.5 341.1C372.2 341.1 371.9 340.9 371.8 340.7C371.6 340.4 371.6 340.1 371.5 339.8C371.4 338.8 371.4 337.7 371.6 336.7C371.6 336.6 371.7 336.4 371.8 336.4C371.9 336.4 371.9 336.4 372 336.4C372.1 336.4 372.1 336.5 372.1 336.6C372.1 337.1 372.1 337.7 372.1 338.2C372.1 338.4 372.2 338.7 372.4 338.6C372.5 338.6 372.5 338.5 372.5 338.4C372.5 337.9 372.5 337.4 372.6 336.9C372.6 336.7 372.6 336.5 372.8 336.4C372.9 336.3 373 336.3 373.1 336.4C373.2 336.5 373.2 336.5 373.2 336.6C373.2 337.1 373.2 337.5 373.2 338C373.2 338.2 373.2 338.4 373.3 338.6C373.4 338.7 373.5 338.7 373.6 338.6C373.7 338.5 373.6 338.3 373.6 338.1C373.6 337.6 373.6 337.1 373.7 336.6C373.7 336.5 373.8 336.5 373.8 336.5C374 336.4 374.1 336.7 374.2 336.9C374.2 337.8 374.3 338.7 374.3 339.6C374.3 340 374.3 340.5 374.1 340.8ZM377.4 341.3C377.2 341.4 376.9 341.3 376.7 341.5C376.6 341.6 376.6 341.7 376.6 341.9C376.5 343.2 376.6 346.1 376.8 347.4C376.9 347.7 376.9 348 376.8 348.2C376.7 348.5 376.2 348.6 375.9 348.2C375.7 345.3 375.7 341.2 375.6 338.4C375.6 337.8 375.5 337.1 375.6 336.5C375.6 336.4 375.6 336.3 375.7 336.3C375.8 336.3 375.9 336.3 376 336.4C376.5 336.8 376.8 337.5 377 338.1C377.2 338.9 377.4 339.7 377.6 340.5C377.6 340.8 377.6 341.1 377.4 341.3Z" fill="#337085"/>
<path d="M374.5 294.6L359 310.1L374.5 325.6L390 310.1L374.5 294.6ZM374.1 309.8C374 310 373.8 310.1 373.6 310.3C373.3 310.7 373.4 311.2 373.4 311.6C373.5 312.7 373.5 315.5 373.5 316.6C373.5 316.9 373.5 317.2 373.2 317.3C373 317.4 372.8 317.3 372.7 317.1C372.6 316.9 372.6 316.7 372.6 316.5C372.5 315.1 372.4 311.7 372.5 310.1C372.2 310.1 371.9 309.9 371.8 309.7C371.6 309.4 371.6 309.1 371.5 308.8C371.4 307.8 371.4 306.7 371.6 305.7C371.6 305.6 371.7 305.4 371.8 305.4C371.9 305.4 371.9 305.4 372 305.4C372.1 305.4 372.1 305.5 372.1 305.6C372.1 306.1 372.1 306.7 372.1 307.2C372.1 307.4 372.2 307.7 372.4 307.6C372.5 307.6 372.5 307.5 372.5 307.4C372.5 306.9 372.5 306.4 372.6 305.9C372.6 305.7 372.6 305.5 372.8 305.4C372.9 305.3 373 305.3 373.1 305.4C373.2 305.5 373.2 305.5 373.2 305.6C373.2 306.1 373.2 306.5 373.2 307C373.2 307.2 373.2 307.4 373.3 307.6C373.4 307.7 373.5 307.7 373.6 307.6C373.7 307.5 373.6 307.3 373.6 307.1C373.6 306.6 373.6 306.1 373.7 305.6C373.7 305.5 373.8 305.5 373.8 305.5C374 305.4 374.1 305.7 374.2 305.9C374.2 306.8 374.3 307.7 374.3 308.6C374.3 309 374.3 309.4 374.1 309.8ZM377.4 310.2C377.2 310.3 376.9 310.2 376.7 310.4C376.6 310.5 376.6 310.6 376.6 310.8C376.5 312.1 376.6 315 376.8 316.3C376.9 316.6 376.9 316.9 376.8 317.1C376.7 317.4 376.2 317.5 375.9 317.1C375.7 314.2 375.7 310.1 375.6 307.3C375.6 306.7 375.5 306 375.6 305.4C375.6 305.3 375.6 305.2 375.7 305.2C375.8 305.2 375.9 305.2 376 305.3C376.5 305.7 376.8 306.4 377 307C377.2 307.8 377.4 308.6 377.6 309.4C377.6 309.7 377.6 310.1 377.4 310.2Z" fill="#337085"/>
<path d="M421.026 112.991V50.9908L359.026 50.9908V112.991L421.026 112.991Z" fill="#F0968E"/>
<path d="M374.5 81.9L359 97.5L374.5 113L390 97.5L374.5 81.9ZM374.1 97.1C374 97.3 373.8 97.4 373.6 97.6C373.3 98 373.4 98.5 373.4 98.9C373.5 100 373.5 102.8 373.5 103.9C373.5 104.2 373.5 104.5 373.2 104.6C373 104.7 372.8 104.6 372.7 104.4C372.6 104.2 372.6 104 372.6 103.8C372.5 102.4 372.4 99 372.5 97.4C372.2 97.4 371.9 97.2 371.8 97C371.6 96.7 371.6 96.4 371.5 96.1C371.4 95.1 371.4 94 371.6 93C371.6 92.9 371.7 92.7 371.8 92.7C371.9 92.7 371.9 92.7 372 92.7C372.1 92.7 372.1 92.8 372.1 92.9C372.1 93.4 372.1 94 372.1 94.5C372.1 94.7 372.2 95 372.4 94.9C372.5 94.9 372.5 94.8 372.5 94.7C372.5 94.2 372.5 93.7 372.6 93.2C372.6 93 372.6 92.8 372.8 92.7C372.9 92.6 373 92.6 373.1 92.7C373.2 92.8 373.2 92.8 373.2 92.9C373.2 93.4 373.2 93.8 373.2 94.3C373.2 94.5 373.2 94.7 373.3 94.9C373.4 95 373.5 95 373.6 94.9C373.7 94.8 373.6 94.6 373.6 94.4C373.6 93.9 373.6 93.4 373.7 92.9C373.7 92.8 373.8 92.8 373.8 92.8C374 92.7 374.1 93 374.2 93.2C374.2 94.1 374.3 95 374.3 95.9C374.3 96.3 374.3 96.8 374.1 97.1ZM377.4 97.6C377.2 97.7 376.9 97.6 376.7 97.8C376.6 97.9 376.6 98 376.6 98.2C376.5 99.5 376.6 102.4 376.8 103.7C376.9 104 376.9 104.3 376.8 104.5C376.7 104.8 376.2 104.9 375.9 104.5C375.7 101.6 375.7 97.5 375.6 94.7C375.6 94.1 375.5 93.4 375.6 92.8C375.6 92.7 375.6 92.6 375.7 92.6C375.8 92.6 375.9 92.6 376 92.7C376.5 93.1 376.8 93.8 377 94.4C377.2 95.2 377.4 96 377.6 96.8C377.7 97.1 377.7 97.5 377.4 97.6Z" fill="#337085"/>
<path d="M374.5 50.9L359 66.4L374.5 81.9L390 66.4L374.5 50.9ZM374.1 66.1C374 66.3 373.8 66.4 373.6 66.6C373.3 67 373.4 67.5 373.4 67.9C373.5 69 373.5 71.8 373.5 72.9C373.5 73.2 373.5 73.5 373.2 73.6C373 73.7 372.8 73.6 372.7 73.4C372.6 73.2 372.6 73 372.6 72.8C372.5 71.4 372.4 68 372.5 66.4C372.2 66.4 371.9 66.2 371.8 66C371.6 65.7 371.6 65.4 371.5 65.1C371.4 64.1 371.4 63 371.6 62C371.6 61.9 371.7 61.7 371.8 61.7C371.9 61.7 371.9 61.7 372 61.7C372.1 61.7 372.1 61.8 372.1 61.9C372.1 62.4 372.1 63 372.1 63.5C372.1 63.7 372.2 64 372.4 63.9C372.5 63.9 372.5 63.8 372.5 63.7C372.5 63.2 372.5 62.7 372.6 62.2C372.6 62 372.6 61.8 372.8 61.7C372.9 61.6 373 61.6 373.1 61.7C373.2 61.8 373.2 61.8 373.2 61.9C373.2 62.4 373.2 62.8 373.2 63.3C373.2 63.5 373.2 63.7 373.3 63.9C373.4 64 373.5 64 373.6 63.9C373.7 63.8 373.6 63.6 373.6 63.4C373.6 62.9 373.6 62.4 373.7 61.9C373.7 61.8 373.8 61.8 373.8 61.8C374 61.7 374.1 62 374.2 62.2C374.2 63.1 374.3 64 374.3 64.9C374.3 65.3 374.3 65.8 374.1 66.1ZM377.4 66.6C377.2 66.7 376.9 66.6 376.7 66.8C376.6 66.9 376.6 67 376.6 67.2C376.5 68.5 376.6 71.4 376.8 72.7C376.9 73 376.9 73.3 376.8 73.5C376.7 73.8 376.2 73.9 375.9 73.5C375.7 70.6 375.7 66.5 375.6 63.7C375.6 63.1 375.5 62.4 375.6 61.8C375.6 61.7 375.6 61.6 375.7 61.6C375.8 61.6 375.9 61.6 376 61.7C376.5 62.1 376.8 62.8 377 63.4C377.2 64.2 377.4 65 377.6 65.8C377.7 66.1 377.7 66.4 377.4 66.6Z" fill="#337085"/>
<path d="M421.012 600.355V538.355H359.012V600.355H421.012Z" fill="#F0968E"/>
<path d="M374.5 569.3L359 584.8L374.5 600.3L390 584.8L374.5 569.3ZM374.1 584.5C374 584.7 373.8 584.8 373.6 585C373.3 585.4 373.4 585.9 373.4 586.3C373.5 587.4 373.5 590.2 373.5 591.3C373.5 591.6 373.5 591.9 373.2 592C373 592.1 372.8 592 372.7 591.8C372.6 591.6 372.6 591.4 372.6 591.2C372.5 589.8 372.4 586.4 372.5 584.8C372.2 584.8 371.9 584.6 371.8 584.4C371.6 584.1 371.6 583.8 371.5 583.5C371.4 582.5 371.4 581.4 371.6 580.4C371.6 580.3 371.7 580.1 371.8 580.1C371.9 580.1 371.9 580.1 372 580.1C372.1 580.1 372.1 580.2 372.1 580.3C372.1 580.8 372.1 581.4 372.1 581.9C372.1 582.1 372.2 582.4 372.4 582.3C372.5 582.3 372.5 582.2 372.5 582.1C372.5 581.6 372.5 581.1 372.6 580.6C372.6 580.4 372.6 580.2 372.8 580.1C372.9 580 373 580 373.1 580.1C373.2 580.2 373.2 580.2 373.2 580.3C373.2 580.8 373.2 581.2 373.2 581.7C373.2 581.9 373.2 582.1 373.3 582.3C373.4 582.4 373.5 582.4 373.6 582.3C373.7 582.2 373.6 582 373.6 581.8C373.6 581.3 373.6 580.8 373.7 580.3C373.7 580.2 373.8 580.2 373.8 580.2C374 580.1 374.1 580.4 374.2 580.6C374.2 581.5 374.3 582.4 374.3 583.3C374.3 583.7 374.3 584.1 374.1 584.5ZM377.4 584.9C377.2 585 376.9 584.9 376.7 585.1C376.6 585.2 376.6 585.3 376.6 585.5C376.5 586.8 376.6 589.7 376.8 591C376.9 591.3 376.9 591.6 376.8 591.8C376.7 592.1 376.2 592.2 375.9 591.8C375.7 588.9 375.7 584.8 375.6 582C375.6 581.4 375.5 580.7 375.6 580.1C375.6 580 375.6 579.9 375.7 579.9C375.8 579.9 375.9 579.9 376 580C376.5 580.4 376.8 581.1 377 581.7C377.2 582.5 377.4 583.3 377.6 584.1C377.6 584.4 377.6 584.8 377.4 584.9Z" fill="#337085"/>
<path d="M374.5 538.2L359 553.8L374.5 569.3L390 553.8L374.5 538.2ZM374.1 553.4C374 553.6 373.8 553.7 373.6 553.9C373.3 554.3 373.4 554.8 373.4 555.2C373.5 556.3 373.5 559.1 373.5 560.2C373.5 560.5 373.5 560.8 373.2 560.9C373 561 372.8 560.9 372.7 560.7C372.6 560.5 372.6 560.3 372.6 560.1C372.5 558.7 372.4 555.3 372.5 553.7C372.2 553.7 371.9 553.5 371.8 553.3C371.6 553 371.6 552.7 371.5 552.4C371.4 551.4 371.4 550.3 371.6 549.3C371.6 549.2 371.7 549 371.8 549C371.9 549 371.9 549 372 549C372.1 549 372.1 549.1 372.1 549.2C372.1 549.7 372.1 550.3 372.1 550.8C372.1 551 372.2 551.3 372.4 551.2C372.5 551.2 372.5 551.1 372.5 551C372.5 550.5 372.5 550 372.6 549.5C372.6 549.3 372.6 549.1 372.8 549C372.9 548.9 373 548.9 373.1 549C373.2 549.1 373.2 549.1 373.2 549.2C373.2 549.7 373.2 550.1 373.2 550.6C373.2 550.8 373.2 551 373.3 551.2C373.4 551.3 373.5 551.3 373.6 551.2C373.7 551.1 373.6 550.9 373.6 550.7C373.6 550.2 373.6 549.7 373.7 549.2C373.7 549.1 373.8 549.1 373.8 549.1C374 549 374.1 549.3 374.2 549.5C374.2 550.4 374.3 551.3 374.3 552.2C374.3 552.6 374.3 553.1 374.1 553.4ZM377.4 553.9C377.2 554 376.9 553.9 376.7 554.1C376.6 554.2 376.6 554.3 376.6 554.5C376.5 555.8 376.6 558.7 376.8 560C376.9 560.3 376.9 560.6 376.8 560.8C376.7 561.1 376.2 561.2 375.9 560.8C375.7 557.9 375.7 553.8 375.6 551C375.6 550.4 375.5 549.7 375.6 549.1C375.6 549 375.6 548.9 375.7 548.9C375.8 548.9 375.9 548.9 376 549C376.5 549.4 376.8 550.1 377 550.7C377.2 551.5 377.4 552.3 377.6 553.1C377.6 553.4 377.6 553.8 377.4 553.9Z" fill="#337085"/>
<path d="M421.029 681.572V619.572H359.029V681.572H421.029Z" fill="#F6BBB5"/>
<path d="M374.5 650.5L359 666L374.5 681.5L390 666L374.5 650.5ZM374.1 665.7C374 665.9 373.8 666 373.6 666.2C373.3 666.6 373.4 667.1 373.4 667.5C373.5 668.6 373.5 671.4 373.5 672.5C373.5 672.8 373.5 673.1 373.2 673.2C373 673.3 372.8 673.2 372.7 673C372.6 672.8 372.6 672.6 372.6 672.4C372.5 671 372.4 667.6 372.5 666C372.2 666 371.9 665.8 371.8 665.6C371.6 665.3 371.6 665 371.5 664.7C371.4 663.7 371.4 662.6 371.6 661.6C371.6 661.5 371.7 661.3 371.8 661.3C371.9 661.3 371.9 661.3 372 661.3C372.1 661.3 372.1 661.4 372.1 661.5C372.1 662 372.1 662.6 372.1 663.1C372.1 663.3 372.2 663.6 372.4 663.5C372.5 663.5 372.5 663.4 372.5 663.3C372.5 662.8 372.5 662.3 372.6 661.8C372.6 661.6 372.6 661.4 372.8 661.3C372.9 661.2 373 661.2 373.1 661.3C373.2 661.4 373.2 661.4 373.2 661.5C373.2 662 373.2 662.4 373.2 662.9C373.2 663.1 373.2 663.3 373.3 663.5C373.4 663.6 373.5 663.6 373.6 663.5C373.7 663.4 373.6 663.2 373.6 663C373.6 662.5 373.6 662 373.7 661.5C373.7 661.4 373.8 661.4 373.8 661.4C374 661.3 374.1 661.6 374.2 661.8C374.2 662.7 374.3 663.6 374.3 664.5C374.3 664.9 374.3 665.3 374.1 665.7ZM377.4 666.2C377.2 666.3 376.9 666.2 376.7 666.4C376.6 666.5 376.6 666.6 376.6 666.8C376.5 668.1 376.6 671 376.8 672.3C376.9 672.6 376.9 672.9 376.8 673.1C376.7 673.4 376.2 673.5 375.9 673.1C375.7 670.2 375.7 666.1 375.6 663.3C375.6 662.7 375.5 662 375.6 661.4C375.6 661.3 375.6 661.2 375.7 661.2C375.8 661.2 375.9 661.2 376 661.3C376.5 661.7 376.8 662.4 377 663C377.2 663.8 377.4 664.6 377.6 665.4C377.6 665.6 377.6 666 377.4 666.2Z" fill="#337085"/>
<path d="M374.5 619.5L359 635L374.5 650.5L390 635L374.5 619.5ZM374.1 634.6C374 634.8 373.8 634.9 373.6 635.1C373.3 635.5 373.4 636 373.4 636.4C373.5 637.5 373.5 640.3 373.5 641.4C373.5 641.7 373.5 642 373.2 642.1C373 642.2 372.8 642.1 372.7 641.9C372.6 641.7 372.6 641.5 372.6 641.3C372.5 639.9 372.4 636.5 372.5 634.9C372.2 634.9 371.9 634.7 371.8 634.5C371.6 634.2 371.6 633.9 371.5 633.6C371.4 632.6 371.4 631.5 371.6 630.5C371.6 630.4 371.7 630.2 371.8 630.2C371.9 630.2 371.9 630.2 372 630.2C372.1 630.2 372.1 630.3 372.1 630.4C372.1 630.9 372.1 631.5 372.1 632C372.1 632.2 372.2 632.5 372.4 632.4C372.5 632.4 372.5 632.3 372.5 632.2C372.5 631.7 372.5 631.2 372.6 630.7C372.6 630.5 372.6 630.3 372.8 630.2C372.9 630.1 373 630.1 373.1 630.2C373.2 630.3 373.2 630.3 373.2 630.4C373.2 630.9 373.2 631.3 373.2 631.8C373.2 632 373.2 632.2 373.3 632.4C373.4 632.5 373.5 632.5 373.6 632.4C373.7 632.3 373.6 632.1 373.6 631.9C373.6 631.4 373.6 630.9 373.7 630.4C373.7 630.3 373.8 630.3 373.8 630.3C374 630.2 374.1 630.5 374.2 630.7C374.2 631.6 374.3 632.5 374.3 633.4C374.3 633.8 374.3 634.3 374.1 634.6ZM377.4 635.1C377.2 635.2 376.9 635.1 376.7 635.3C376.6 635.4 376.6 635.5 376.6 635.7C376.5 637 376.6 639.9 376.8 641.2C376.9 641.5 376.9 641.8 376.8 642C376.7 642.3 376.2 642.4 375.9 642C375.7 639.1 375.7 635 375.6 632.2C375.6 631.6 375.5 630.9 375.6 630.3C375.6 630.2 375.6 630.1 375.7 630.1C375.8 630.1 375.9 630.1 376 630.2C376.5 630.6 376.8 631.3 377 631.9C377.2 632.7 377.4 633.5 377.6 634.3C377.6 634.6 377.6 635 377.4 635.1Z" fill="#337085"/>
<path d="M420.947 762.79V700.79H358.947V762.79H420.947Z" fill="#F0968E"/>
<path d="M374.5 731.7L359 747.2L374.5 762.7L390 747.2L374.5 731.7ZM374.1 746.9C374 747.1 373.8 747.2 373.6 747.4C373.3 747.8 373.4 748.3 373.4 748.7C373.5 749.8 373.5 752.6 373.5 753.7C373.5 754 373.5 754.3 373.2 754.4C373 754.5 372.8 754.4 372.7 754.2C372.6 754 372.6 753.8 372.6 753.6C372.5 752.2 372.4 748.8 372.5 747.2C372.2 747.2 371.9 747 371.8 746.8C371.6 746.5 371.6 746.2 371.5 745.9C371.4 744.9 371.4 743.8 371.6 742.8C371.6 742.7 371.7 742.5 371.8 742.5C371.9 742.5 371.9 742.5 372 742.5C372.1 742.5 372.1 742.6 372.1 742.7C372.1 743.2 372.1 743.8 372.1 744.3C372.1 744.5 372.2 744.8 372.4 744.7C372.5 744.7 372.5 744.6 372.5 744.5C372.5 744 372.5 743.5 372.6 743C372.6 742.8 372.6 742.6 372.8 742.5C372.9 742.4 373 742.4 373.1 742.5C373.2 742.6 373.2 742.6 373.2 742.7C373.2 743.2 373.2 743.6 373.2 744.1C373.2 744.3 373.2 744.5 373.3 744.7C373.4 744.8 373.5 744.8 373.6 744.7C373.7 744.6 373.6 744.4 373.6 744.2C373.6 743.7 373.6 743.2 373.7 742.7C373.7 742.6 373.8 742.6 373.8 742.6C374 742.5 374.1 742.8 374.2 743C374.2 743.9 374.3 744.8 374.3 745.7C374.3 746.1 374.3 746.5 374.1 746.9ZM377.4 747.4C377.2 747.5 376.9 747.4 376.7 747.6C376.6 747.7 376.6 747.8 376.6 748C376.5 749.3 376.6 752.2 376.8 753.5C376.9 753.8 376.9 754.1 376.8 754.3C376.7 754.6 376.2 754.7 375.9 754.3C375.7 751.4 375.7 747.3 375.6 744.5C375.6 743.9 375.5 743.2 375.6 742.6C375.6 742.5 375.6 742.4 375.7 742.4C375.8 742.4 375.9 742.4 376 742.5C376.5 742.9 376.8 743.6 377 744.2C377.2 745 377.4 745.8 377.6 746.6C377.6 746.9 377.6 747.2 377.4 747.4Z" fill="#337085"/>
<path d="M374.5 700.7L359 716.2L374.5 731.7L390 716.2L374.5 700.7ZM374.1 715.9C374 716.1 373.8 716.2 373.6 716.4C373.3 716.8 373.4 717.3 373.4 717.7C373.5 718.8 373.5 721.6 373.5 722.7C373.5 723 373.5 723.3 373.2 723.4C373 723.5 372.8 723.4 372.7 723.2C372.6 723 372.6 722.8 372.6 722.6C372.5 721.2 372.4 717.8 372.5 716.2C372.2 716.2 371.9 716 371.8 715.8C371.6 715.5 371.6 715.2 371.5 714.9C371.4 713.9 371.4 712.8 371.6 711.8C371.6 711.7 371.7 711.5 371.8 711.5C371.9 711.5 371.9 711.5 372 711.5C372.1 711.5 372.1 711.6 372.1 711.7C372.1 712.2 372.1 712.8 372.1 713.3C372.1 713.5 372.2 713.8 372.4 713.7C372.5 713.7 372.5 713.6 372.5 713.5C372.5 713 372.5 712.5 372.6 712C372.6 711.8 372.6 711.6 372.8 711.5C372.9 711.4 373 711.4 373.1 711.5C373.2 711.6 373.2 711.6 373.2 711.7C373.2 712.2 373.2 712.6 373.2 713.1C373.2 713.3 373.2 713.5 373.3 713.7C373.4 713.8 373.5 713.8 373.6 713.7C373.7 713.6 373.6 713.4 373.6 713.2C373.6 712.7 373.6 712.2 373.7 711.7C373.7 711.6 373.8 711.6 373.8 711.6C374 711.5 374.1 711.8 374.2 712C374.2 712.9 374.3 713.8 374.3 714.7C374.3 715.1 374.3 715.5 374.1 715.9ZM377.4 716.3C377.2 716.4 376.9 716.3 376.7 716.5C376.6 716.6 376.6 716.7 376.6 716.9C376.5 718.2 376.6 721.1 376.8 722.4C376.9 722.7 376.9 723 376.8 723.2C376.7 723.5 376.2 723.6 375.9 723.2C375.7 720.3 375.7 716.2 375.6 713.4C375.6 712.8 375.5 712.1 375.6 711.5C375.6 711.4 375.6 711.3 375.7 711.3C375.8 711.3 375.9 711.3 376 711.4C376.5 711.8 376.8 712.5 377 713.1C377.2 713.9 377.4 714.7 377.6 715.5C377.6 715.8 377.6 716.2 377.4 716.3Z" fill="#337085"/>
<path d="M420.925 843.946V781.946H358.925V843.946H420.925Z" fill="#F6BBB5"/>
<path d="M374.4 812.9L358.9 828.4L374.4 843.9L389.9 828.4L374.4 812.9ZM374 828.1C373.9 828.3 373.7 828.4 373.5 828.6C373.2 829 373.3 829.5 373.3 829.9C373.4 831 373.4 833.8 373.4 834.9C373.4 835.2 373.4 835.5 373.1 835.6C372.9 835.7 372.7 835.6 372.6 835.4C372.5 835.2 372.5 835 372.5 834.8C372.4 833.4 372.3 830 372.4 828.4C372.1 828.4 371.8 828.2 371.7 828C371.5 827.7 371.5 827.4 371.4 827.1C371.3 826.1 371.3 825 371.5 824C371.5 823.9 371.6 823.7 371.7 823.7C371.8 823.7 371.8 823.7 371.9 823.7C372 823.7 372 823.8 372 823.9C372 824.4 372 825 372 825.5C372 825.7 372.1 826 372.3 825.9C372.4 825.9 372.4 825.8 372.4 825.7C372.4 825.2 372.4 824.7 372.5 824.2C372.5 824 372.5 823.8 372.7 823.7C372.8 823.6 372.9 823.6 373 823.7C373.1 823.8 373.1 823.8 373.1 823.9C373.1 824.4 373.1 824.8 373.1 825.3C373.1 825.5 373.1 825.7 373.2 825.9C373.3 826 373.4 826 373.5 825.9C373.6 825.8 373.5 825.6 373.5 825.4C373.5 824.9 373.5 824.4 373.6 823.9C373.6 823.8 373.7 823.8 373.7 823.8C373.9 823.7 374 824 374.1 824.2C374.1 825.1 374.2 826 374.2 826.9C374.3 827.3 374.3 827.8 374 828.1ZM377.3 828.6C377.1 828.7 376.8 828.6 376.6 828.8C376.5 828.9 376.5 829 376.5 829.2C376.4 830.5 376.5 833.4 376.7 834.7C376.8 835 376.8 835.3 376.7 835.5C376.6 835.8 376.1 835.9 375.8 835.5C375.6 832.6 375.6 828.5 375.5 825.7C375.5 825.1 375.4 824.4 375.5 823.8C375.5 823.7 375.5 823.6 375.6 823.6C375.7 823.6 375.8 823.6 375.9 823.7C376.4 824.1 376.7 824.8 376.9 825.4C377.1 826.2 377.3 827 377.5 827.8C377.6 828.1 377.6 828.4 377.3 828.6Z" fill="#337085"/>
<path d="M374.4 781.9L358.9 797.4L374.4 812.9L389.9 797.4L374.4 781.9ZM374 797.1C373.9 797.3 373.7 797.4 373.5 797.6C373.2 798 373.3 798.5 373.3 798.9C373.4 800 373.4 802.8 373.4 803.9C373.4 804.2 373.4 804.5 373.1 804.6C372.9 804.7 372.7 804.6 372.6 804.4C372.5 804.2 372.5 804 372.5 803.8C372.4 802.4 372.3 799 372.4 797.4C372.1 797.4 371.8 797.2 371.7 797C371.5 796.7 371.5 796.4 371.4 796.1C371.3 795.1 371.3 794 371.5 793C371.5 792.9 371.6 792.7 371.7 792.7C371.8 792.7 371.8 792.7 371.9 792.7C372 792.7 372 792.8 372 792.9C372 793.4 372 794 372 794.5C372 794.7 372.1 795 372.3 794.9C372.4 794.9 372.4 794.8 372.4 794.7C372.4 794.2 372.4 793.7 372.5 793.2C372.5 793 372.5 792.8 372.7 792.7C372.8 792.6 372.9 792.6 373 792.7C373.1 792.8 373.1 792.8 373.1 792.9C373.1 793.4 373.1 793.8 373.1 794.3C373.1 794.5 373.1 794.7 373.2 794.9C373.3 795 373.4 795 373.5 794.9C373.6 794.8 373.5 794.6 373.5 794.4C373.5 793.9 373.5 793.4 373.6 792.9C373.6 792.8 373.7 792.8 373.7 792.8C373.9 792.7 374 793 374.1 793.2C374.1 794.1 374.2 795 374.2 795.9C374.3 796.3 374.3 796.7 374 797.1ZM377.3 797.6C377.1 797.7 376.8 797.6 376.6 797.8C376.5 797.9 376.5 798 376.5 798.2C376.4 799.5 376.5 802.4 376.7 803.7C376.8 804 376.8 804.3 376.7 804.5C376.6 804.8 376.1 804.9 375.8 804.5C375.6 801.6 375.6 797.5 375.5 794.7C375.5 794.1 375.4 793.4 375.5 792.8C375.5 792.7 375.5 792.6 375.6 792.6C375.7 792.6 375.8 792.6 375.9 792.7C376.4 793.1 376.7 793.8 376.9 794.4C377.1 795.2 377.3 796 377.5 796.8C377.6 797 377.6 797.4 377.3 797.6Z" fill="#337085"/>
<path d="M420.958 437.84V375.84H358.958V437.84H420.958Z" fill="#F0968E"/>
<path d="M374.5 406.8L359 422.3L374.5 437.8L390 422.3L374.5 406.8ZM374.1 422C374 422.2 373.8 422.3 373.6 422.5C373.3 422.9 373.4 423.4 373.4 423.8C373.5 424.9 373.5 427.7 373.5 428.8C373.5 429.1 373.5 429.4 373.2 429.5C373 429.6 372.8 429.5 372.7 429.3C372.6 429.1 372.6 428.9 372.6 428.7C372.5 427.3 372.4 423.9 372.5 422.3C372.2 422.3 371.9 422.1 371.8 421.9C371.6 421.6 371.6 421.3 371.5 421C371.4 420 371.4 418.9 371.6 417.9C371.6 417.8 371.7 417.6 371.8 417.6C371.9 417.6 371.9 417.6 372 417.6C372.1 417.6 372.1 417.7 372.1 417.8C372.1 418.3 372.1 418.9 372.1 419.4C372.1 419.6 372.2 419.9 372.4 419.8C372.5 419.8 372.5 419.7 372.5 419.6C372.5 419.1 372.5 418.6 372.6 418.1C372.6 417.9 372.6 417.7 372.8 417.6C372.9 417.5 373 417.5 373.1 417.6C373.2 417.7 373.2 417.7 373.2 417.8C373.2 418.3 373.2 418.7 373.2 419.2C373.2 419.4 373.2 419.6 373.3 419.8C373.4 419.9 373.5 419.9 373.6 419.8C373.7 419.7 373.6 419.5 373.6 419.3C373.6 418.8 373.6 418.3 373.7 417.8C373.7 417.7 373.8 417.7 373.8 417.7C374 417.6 374.1 417.9 374.2 418.1C374.2 419 374.3 419.9 374.3 420.8C374.3 421.2 374.3 421.7 374.1 422ZM377.3 422.5C377.1 422.6 376.8 422.5 376.6 422.7C376.5 422.8 376.5 422.9 376.5 423.1C376.4 424.4 376.5 427.3 376.7 428.6C376.8 428.9 376.8 429.2 376.7 429.4C376.6 429.7 376.1 429.8 375.8 429.4C375.6 426.5 375.6 422.4 375.5 419.6C375.5 419 375.4 418.3 375.5 417.7C375.5 417.6 375.5 417.5 375.6 417.5C375.7 417.5 375.8 417.5 375.9 417.6C376.4 418 376.7 418.7 376.9 419.3C377.1 420.1 377.3 420.9 377.5 421.7C377.6 422 377.6 422.4 377.3 422.5Z" fill="#337085"/>
<path d="M374.5 375.8L359 391.3L374.5 406.8L390 391.3L374.5 375.8ZM374.1 391C374 391.2 373.8 391.3 373.6 391.5C373.3 391.9 373.4 392.4 373.4 392.8C373.5 393.9 373.5 396.7 373.5 397.8C373.5 398.1 373.5 398.4 373.2 398.5C373 398.6 372.8 398.5 372.7 398.3C372.6 398.1 372.6 397.9 372.6 397.7C372.5 396.3 372.4 392.9 372.5 391.3C372.2 391.3 371.9 391.1 371.8 390.9C371.6 390.6 371.6 390.3 371.5 390C371.4 389 371.4 387.9 371.6 386.9C371.6 386.8 371.7 386.6 371.8 386.6C371.9 386.6 371.9 386.6 372 386.6C372.1 386.6 372.1 386.7 372.1 386.8C372.1 387.3 372.1 387.9 372.1 388.4C372.1 388.6 372.2 388.9 372.4 388.8C372.5 388.8 372.5 388.7 372.5 388.6C372.5 388.1 372.5 387.6 372.6 387.1C372.6 386.9 372.6 386.7 372.8 386.6C372.9 386.5 373 386.5 373.1 386.6C373.2 386.7 373.2 386.7 373.2 386.8C373.2 387.3 373.2 387.7 373.2 388.2C373.2 388.4 373.2 388.6 373.3 388.8C373.4 388.9 373.5 388.9 373.6 388.8C373.7 388.7 373.6 388.5 373.6 388.3C373.6 387.8 373.6 387.3 373.7 386.8C373.7 386.7 373.8 386.7 373.8 386.7C374 386.6 374.1 386.9 374.2 387.1C374.2 388 374.3 388.9 374.3 389.8C374.3 390.2 374.3 390.6 374.1 391ZM377.3 391.5C377.1 391.6 376.8 391.5 376.6 391.7C376.5 391.8 376.5 391.9 376.5 392.1C376.4 393.4 376.5 396.3 376.7 397.6C376.8 397.9 376.8 398.2 376.7 398.4C376.6 398.7 376.1 398.8 375.8 398.4C375.6 395.5 375.6 391.4 375.5 388.6C375.5 388 375.4 387.3 375.5 386.7C375.5 386.6 375.5 386.5 375.6 386.5C375.7 386.5 375.8 386.5 375.9 386.6C376.4 387 376.7 387.7 376.9 388.3C377.1 389.1 377.3 389.9 377.5 390.7C377.6 391 377.6 391.3 377.3 391.5Z" fill="#337085"/>
<path d="M420.995 519.138V457.138H358.995V519.138H420.995Z" fill="#F6BBB5"/>
<path d="M374.5 488.1L359 503.6L374.5 519.1L390 503.6L374.5 488.1ZM374.1 503.2C374 503.4 373.8 503.5 373.6 503.7C373.3 504.1 373.4 504.6 373.4 505C373.5 506.1 373.5 508.9 373.5 510C373.5 510.3 373.5 510.6 373.2 510.7C373 510.8 372.8 510.7 372.7 510.5C372.6 510.3 372.6 510.1 372.6 509.9C372.5 508.5 372.4 505.1 372.5 503.5C372.2 503.5 371.9 503.3 371.8 503.1C371.6 502.8 371.6 502.5 371.5 502.2C371.4 501.2 371.4 500.1 371.6 499.1C371.6 499 371.7 498.8 371.8 498.8C371.9 498.8 371.9 498.8 372 498.8C372.1 498.8 372.1 498.9 372.1 499C372.1 499.5 372.1 500.1 372.1 500.6C372.1 500.8 372.2 501.1 372.4 501C372.5 501 372.5 500.9 372.5 500.8C372.5 500.3 372.5 499.8 372.6 499.3C372.6 499.1 372.6 498.9 372.8 498.8C372.9 498.7 373 498.7 373.1 498.8C373.2 498.9 373.2 498.9 373.2 499C373.2 499.5 373.2 499.9 373.2 500.4C373.2 500.6 373.2 500.8 373.3 501C373.4 501.1 373.5 501.1 373.6 501C373.7 500.9 373.6 500.7 373.6 500.5C373.6 500 373.6 499.5 373.7 499C373.7 498.9 373.8 498.9 373.8 498.9C374 498.8 374.1 499.1 374.2 499.3C374.2 500.2 374.3 501.1 374.3 502C374.3 502.4 374.3 502.9 374.1 503.2ZM377.4 503.7C377.2 503.8 376.9 503.7 376.7 503.9C376.6 504 376.6 504.1 376.6 504.3C376.5 505.6 376.6 508.5 376.8 509.8C376.9 510.1 376.9 510.4 376.8 510.6C376.7 510.9 376.2 511 375.9 510.6C375.7 507.7 375.7 503.6 375.6 500.8C375.6 500.2 375.5 499.5 375.6 498.9C375.6 498.8 375.6 498.7 375.7 498.7C375.8 498.7 375.9 498.7 376 498.8C376.5 499.2 376.8 499.9 377 500.5C377.2 501.3 377.4 502.1 377.6 502.9C377.6 503.2 377.6 503.6 377.4 503.7Z" fill="#337085"/>
<path d="M374.5 457L359 472.5L374.5 488L390 472.5L374.5 457ZM374.1 472.2C374 472.4 373.8 472.5 373.6 472.7C373.3 473.1 373.4 473.6 373.4 474C373.5 475.1 373.5 477.9 373.5 479C373.5 479.3 373.5 479.6 373.2 479.7C373 479.8 372.8 479.7 372.7 479.5C372.6 479.3 372.6 479.1 372.6 478.9C372.5 477.5 372.4 474.1 372.5 472.5C372.2 472.5 371.9 472.3 371.8 472.1C371.6 471.8 371.6 471.5 371.5 471.2C371.4 470.2 371.4 469.1 371.6 468.1C371.6 468 371.7 467.8 371.8 467.8C371.9 467.8 371.9 467.8 372 467.8C372.1 467.8 372.1 467.9 372.1 468C372.1 468.5 372.1 469.1 372.1 469.6C372.1 469.8 372.2 470.1 372.4 470C372.5 470 372.5 469.9 372.5 469.8C372.5 469.3 372.5 468.8 372.6 468.3C372.6 468.1 372.6 467.9 372.8 467.8C372.9 467.7 373 467.7 373.1 467.8C373.2 467.9 373.2 467.9 373.2 468C373.2 468.5 373.2 468.9 373.2 469.4C373.2 469.6 373.2 469.8 373.3 470C373.4 470.1 373.5 470.1 373.6 470C373.7 469.9 373.6 469.7 373.6 469.5C373.6 469 373.6 468.5 373.7 468C373.7 467.9 373.8 467.9 373.8 467.9C374 467.8 374.1 468.1 374.2 468.3C374.2 469.2 374.3 470.1 374.3 471C374.3 471.4 374.3 471.9 374.1 472.2ZM377.4 472.7C377.2 472.8 376.9 472.7 376.7 472.9C376.6 473 376.6 473.1 376.6 473.3C376.5 474.6 376.6 477.5 376.8 478.8C376.9 479.1 376.9 479.4 376.8 479.6C376.7 479.9 376.2 480 375.9 479.6C375.7 476.7 375.7 472.6 375.6 469.8C375.6 469.2 375.5 468.5 375.6 467.9C375.6 467.8 375.6 467.7 375.7 467.7C375.8 467.7 375.9 467.7 376 467.8C376.5 468.2 376.8 468.9 377 469.5C377.2 470.3 377.4 471.1 377.6 471.9C377.6 472.2 377.6 472.5 377.4 472.7Z" fill="#337085"/>
<path d="M31.0244 194.185L31.0244 132.185H-30.9756L-30.9756 194.185H31.0244Z" fill="#F6BBB5"/>
<path d="M15.6 163.1L0 178.7L15.5 194.2L31 178.7L15.6 163.1ZM15.1 178.3C15 178.5 14.8 178.6 14.6 178.8C14.3 179.2 14.4 179.7 14.4 180.1C14.5 181.2 14.5 184 14.5 185.1C14.5 185.4 14.5 185.7 14.2 185.8C14 185.9 13.8 185.8 13.7 185.6C13.6 185.4 13.6 185.2 13.6 185C13.5 183.6 13.4 180.2 13.5 178.6C13.2 178.6 12.9 178.4 12.8 178.2C12.6 177.9 12.6 177.6 12.5 177.3C12.4 176.3 12.4 175.2 12.6 174.2C12.6 174.1 12.7 173.9 12.8 173.9C12.9 173.9 12.9 173.9 13 173.9C13.1 173.9 13.1 174 13.1 174.1C13.1 174.6 13.1 175.2 13.1 175.7C13.1 175.9 13.2 176.2 13.4 176.1C13.5 176.1 13.5 176 13.5 175.9C13.5 175.4 13.5 174.9 13.6 174.4C13.6 174.2 13.6 174 13.8 173.9C13.9 173.8 14 173.8 14.1 173.9C14.2 174 14.2 174 14.2 174.1C14.2 174.6 14.2 175 14.2 175.5C14.2 175.7 14.2 175.9 14.3 176.1C14.4 176.2 14.5 176.2 14.6 176.1C14.7 176 14.6 175.8 14.6 175.6C14.6 175.1 14.6 174.6 14.7 174.1C14.7 174 14.8 174 14.8 174C15 173.9 15.1 174.2 15.2 174.4C15.2 175.3 15.3 176.2 15.3 177.1C15.4 177.5 15.4 178 15.1 178.3ZM18.4 178.8C18.2 178.9 17.9 178.8 17.7 179C17.6 179.1 17.6 179.2 17.6 179.4C17.5 180.7 17.6 183.6 17.8 184.9C17.9 185.2 17.9 185.5 17.8 185.7C17.7 186 17.2 186.1 16.9 185.7C16.7 182.8 16.7 178.7 16.6 175.9C16.6 175.3 16.5 174.6 16.6 174C16.6 173.9 16.6 173.8 16.7 173.8C16.8 173.8 16.9 173.8 17 173.9C17.5 174.3 17.8 175 18 175.6C18.2 176.4 18.4 177.2 18.6 178C18.7 178.3 18.7 178.7 18.4 178.8Z" fill="#337085"/>
<path d="M15.6 132.1L0 147.6L15.5 163.1L31 147.6L15.6 132.1ZM15.1 147.3C15 147.5 14.8 147.6 14.6 147.8C14.3 148.2 14.4 148.7 14.4 149.1C14.5 150.2 14.5 153 14.5 154.1C14.5 154.4 14.5 154.7 14.2 154.8C14 154.9 13.8 154.8 13.7 154.6C13.6 154.4 13.6 154.2 13.6 154C13.5 152.6 13.4 149.2 13.5 147.6C13.2 147.6 12.9 147.4 12.8 147.2C12.6 146.9 12.6 146.6 12.5 146.3C12.4 145.3 12.4 144.2 12.6 143.2C12.6 143.1 12.7 142.9 12.8 142.9C12.9 142.9 12.9 142.9 13 142.9C13.1 142.9 13.1 143 13.1 143.1C13.1 143.6 13.1 144.2 13.1 144.7C13.1 144.9 13.2 145.2 13.4 145.1C13.5 145.1 13.5 145 13.5 144.9C13.5 144.4 13.5 143.9 13.6 143.4C13.6 143.2 13.6 143 13.8 142.9C13.9 142.8 14 142.8 14.1 142.9C14.2 143 14.2 143 14.2 143.1C14.2 143.6 14.2 144 14.2 144.5C14.2 144.7 14.2 144.9 14.3 145.1C14.4 145.2 14.5 145.2 14.6 145.1C14.7 145 14.6 144.8 14.6 144.6C14.6 144.1 14.6 143.6 14.7 143.1C14.7 143 14.8 143 14.8 143C15 142.9 15.1 143.2 15.2 143.4C15.2 144.3 15.3 145.2 15.3 146.1C15.4 146.5 15.4 147 15.1 147.3ZM18.4 147.8C18.2 147.9 17.9 147.8 17.7 148C17.6 148.1 17.6 148.2 17.6 148.4C17.5 149.7 17.6 152.6 17.8 153.9C17.9 154.2 17.9 154.5 17.8 154.7C17.7 155 17.2 155.1 16.9 154.7C16.7 151.8 16.7 147.7 16.6 144.9C16.6 144.3 16.5 143.6 16.6 143C16.6 142.9 16.6 142.8 16.7 142.8C16.8 142.8 16.9 142.8 17 142.9C17.5 143.3 17.8 144 18 144.6C18.2 145.4 18.4 146.2 18.6 147C18.7 147.3 18.7 147.6 18.4 147.8Z" fill="#337085"/>
<path d="M31.0415 275.402L31.0415 213.402H-30.9585L-30.9585 275.402H31.0415Z" fill="#F0968E"/>
<path d="M15.6 244.4L0 259.9L15.5 275.4L31 259.9L15.6 244.4ZM15.1 259.5C15 259.7 14.8 259.8 14.6 260C14.3 260.4 14.4 260.9 14.4 261.3C14.5 262.4 14.5 265.2 14.5 266.3C14.5 266.6 14.5 266.9 14.2 267C14 267.1 13.8 267 13.7 266.8C13.6 266.6 13.6 266.4 13.6 266.2C13.5 264.8 13.4 261.4 13.5 259.8C13.2 259.8 12.9 259.6 12.8 259.4C12.6 259.1 12.6 258.8 12.5 258.5C12.4 257.5 12.4 256.4 12.6 255.4C12.6 255.3 12.7 255.1 12.8 255.1C12.9 255.1 12.9 255.1 13 255.1C13.1 255.1 13.1 255.2 13.1 255.3C13.1 255.8 13.1 256.4 13.1 256.9C13.1 257.1 13.2 257.4 13.4 257.3C13.5 257.3 13.5 257.2 13.5 257.1C13.5 256.6 13.5 256.1 13.6 255.6C13.6 255.4 13.6 255.2 13.8 255.1C13.9 255 14 255 14.1 255.1C14.2 255.2 14.2 255.2 14.2 255.3C14.2 255.8 14.2 256.2 14.2 256.7C14.2 256.9 14.2 257.1 14.3 257.3C14.4 257.4 14.5 257.4 14.6 257.3C14.7 257.2 14.6 257 14.6 256.8C14.6 256.3 14.6 255.8 14.7 255.3C14.7 255.2 14.8 255.2 14.8 255.2C15 255.1 15.1 255.4 15.2 255.6C15.2 256.5 15.3 257.4 15.3 258.3C15.4 258.7 15.4 259.2 15.1 259.5ZM18.4 260C18.2 260.1 17.9 260 17.7 260.2C17.6 260.3 17.6 260.4 17.6 260.6C17.5 261.9 17.6 264.8 17.8 266.1C17.9 266.4 17.9 266.7 17.8 266.9C17.7 267.2 17.2 267.3 16.9 266.9C16.7 264 16.7 259.9 16.6 257.1C16.6 256.5 16.5 255.8 16.6 255.2C16.6 255.1 16.6 255 16.7 255C16.8 255 16.9 255 17 255.1C17.5 255.5 17.8 256.2 18 256.8C18.2 257.6 18.4 258.4 18.6 259.2C18.7 259.5 18.7 259.9 18.4 260Z" fill="#337085"/>
<path d="M15.6 213.3L0 228.8L15.5 244.3L31 228.8L15.6 213.3ZM15.1 228.5C15 228.7 14.8 228.8 14.6 229C14.3 229.4 14.4 229.9 14.4 230.3C14.5 231.4 14.5 234.2 14.5 235.3C14.5 235.6 14.5 235.9 14.2 236C14 236.1 13.8 236 13.7 235.8C13.6 235.6 13.6 235.4 13.6 235.2C13.5 233.8 13.4 230.4 13.5 228.8C13.2 228.8 12.9 228.6 12.8 228.4C12.6 228.1 12.6 227.8 12.5 227.5C12.4 226.5 12.4 225.4 12.6 224.4C12.6 224.3 12.7 224.1 12.8 224.1C12.9 224.1 12.9 224.1 13 224.1C13.1 224.1 13.1 224.2 13.1 224.3C13.1 224.8 13.1 225.4 13.1 225.9C13.1 226.1 13.2 226.4 13.4 226.3C13.5 226.3 13.5 226.2 13.5 226.1C13.5 225.6 13.5 225.1 13.6 224.6C13.6 224.4 13.6 224.2 13.8 224.1C13.9 224 14 224 14.1 224.1C14.2 224.2 14.2 224.2 14.2 224.3C14.2 224.8 14.2 225.2 14.2 225.7C14.2 225.9 14.2 226.1 14.3 226.3C14.4 226.4 14.5 226.4 14.6 226.3C14.7 226.2 14.6 226 14.6 225.8C14.6 225.3 14.6 224.8 14.7 224.3C14.7 224.2 14.8 224.2 14.8 224.2C15 224.1 15.1 224.4 15.2 224.6C15.2 225.5 15.3 226.4 15.3 227.3C15.4 227.7 15.4 228.2 15.1 228.5ZM18.4 229C18.2 229.1 17.9 229 17.7 229.2C17.6 229.3 17.6 229.4 17.6 229.6C17.5 230.9 17.6 233.8 17.8 235.1C17.9 235.4 17.9 235.7 17.8 235.9C17.7 236.2 17.2 236.3 16.9 235.9C16.7 233 16.7 228.9 16.6 226.1C16.6 225.5 16.5 224.8 16.6 224.2C16.6 224.1 16.6 224 16.7 224C16.8 224 16.9 224 17 224.1C17.5 224.5 17.8 225.2 18 225.8C18.2 226.6 18.4 227.4 18.6 228.2C18.7 228.5 18.7 228.8 18.4 229Z" fill="#337085"/>
<path d="M31.0195 356.659L31.0195 294.659H-30.9805L-30.9805 356.659H31.0195Z" fill="#F6BBB5"/>
<path d="M15.5 325.6L0 341.1L15.5 356.6L31 341.1L15.5 325.6ZM15.1 340.8C15 341 14.8 341.1 14.6 341.3C14.3 341.7 14.4 342.2 14.4 342.6C14.5 343.7 14.5 346.5 14.5 347.6C14.5 347.9 14.5 348.2 14.2 348.3C14 348.4 13.8 348.3 13.7 348.1C13.6 347.9 13.6 347.7 13.6 347.5C13.5 346.1 13.4 342.7 13.5 341.1C13.2 341.1 12.9 340.9 12.8 340.7C12.6 340.4 12.6 340.1 12.5 339.8C12.4 338.8 12.4 337.7 12.6 336.7C12.6 336.6 12.7 336.4 12.8 336.4C12.9 336.4 12.9 336.4 13 336.4C13.1 336.4 13.1 336.5 13.1 336.6C13.1 337.1 13.1 337.7 13.1 338.2C13.1 338.4 13.2 338.7 13.4 338.6C13.5 338.6 13.5 338.5 13.5 338.4C13.5 337.9 13.5 337.4 13.6 336.9C13.6 336.7 13.6 336.5 13.8 336.4C13.9 336.3 14 336.3 14.1 336.4C14.2 336.5 14.2 336.5 14.2 336.6C14.2 337.1 14.2 337.5 14.2 338C14.2 338.2 14.2 338.4 14.3 338.6C14.4 338.7 14.5 338.7 14.6 338.6C14.7 338.5 14.6 338.3 14.6 338.1C14.6 337.6 14.6 337.1 14.7 336.6C14.7 336.5 14.8 336.5 14.8 336.5C15 336.4 15.1 336.7 15.2 336.9C15.2 337.8 15.3 338.7 15.3 339.6C15.3 340 15.3 340.4 15.1 340.8ZM18.4 341.2C18.2 341.3 17.9 341.2 17.7 341.4C17.6 341.5 17.6 341.6 17.6 341.8C17.5 343.1 17.6 346 17.8 347.3C17.9 347.6 17.9 347.9 17.8 348.1C17.7 348.4 17.2 348.5 16.9 348.1C16.7 345.2 16.7 341.1 16.6 338.3C16.6 337.7 16.5 337 16.6 336.4C16.6 336.3 16.6 336.2 16.7 336.2C16.8 336.2 16.9 336.2 17 336.3C17.5 336.7 17.8 337.4 18 338C18.2 338.8 18.4 339.6 18.6 340.4C18.6 340.7 18.7 341.1 18.4 341.2Z" fill="#337085"/>
<path d="M15.5 294.5L0 310.1L15.5 325.6L31 310.1L15.5 294.5ZM15.1 309.7C15 309.9 14.8 310 14.6 310.2C14.3 310.6 14.4 311.1 14.4 311.5C14.5 312.6 14.5 315.4 14.5 316.5C14.5 316.8 14.5 317.1 14.2 317.2C14 317.3 13.8 317.2 13.7 317C13.6 316.8 13.6 316.6 13.6 316.4C13.5 315 13.4 311.6 13.5 310C13.2 310 12.9 309.8 12.8 309.6C12.6 309.3 12.6 309 12.5 308.7C12.4 307.7 12.4 306.6 12.6 305.6C12.6 305.5 12.7 305.3 12.8 305.3C12.9 305.3 12.9 305.3 13 305.3C13.1 305.3 13.1 305.4 13.1 305.5C13.1 306 13.1 306.6 13.1 307.1C13.1 307.3 13.2 307.6 13.4 307.5C13.5 307.5 13.5 307.4 13.5 307.3C13.5 306.8 13.5 306.3 13.6 305.8C13.6 305.6 13.6 305.4 13.8 305.3C13.9 305.2 14 305.2 14.1 305.3C14.2 305.4 14.2 305.4 14.2 305.5C14.2 306 14.2 306.4 14.2 306.9C14.2 307.1 14.2 307.3 14.3 307.5C14.4 307.6 14.5 307.6 14.6 307.5C14.7 307.4 14.6 307.2 14.6 307C14.6 306.5 14.6 306 14.7 305.5C14.7 305.4 14.8 305.4 14.8 305.4C15 305.3 15.1 305.6 15.2 305.8C15.2 306.7 15.3 307.6 15.3 308.5C15.3 308.9 15.3 309.4 15.1 309.7ZM18.4 310.2C18.2 310.3 17.9 310.2 17.7 310.4C17.6 310.5 17.6 310.6 17.6 310.8C17.5 312.1 17.6 315 17.8 316.3C17.9 316.6 17.9 316.9 17.8 317.1C17.7 317.4 17.2 317.5 16.9 317.1C16.7 314.2 16.7 310.1 16.6 307.3C16.6 306.7 16.5 306 16.6 305.4C16.6 305.3 16.6 305.2 16.7 305.2C16.8 305.2 16.9 305.2 17 305.3C17.5 305.7 17.8 306.4 18 307C18.2 307.8 18.4 308.6 18.6 309.4C18.6 309.7 18.7 310.1 18.4 310.2Z" fill="#337085"/>
<path d="M30.9854 112.946L30.9854 50.9464L-31.0146 50.9464L-31.0146 112.946L30.9854 112.946Z" fill="#F0968E"/>
<path d="M15.5995 81.9L-0.000488281 97.4L15.4995 112.9L30.9995 97.4L15.5995 81.9ZM15.0995 97.1C14.9995 97.3 14.7995 97.4 14.5995 97.6C14.2995 98 14.3995 98.5 14.3995 98.9C14.4995 100 14.4995 102.8 14.4995 103.9C14.4995 104.2 14.4995 104.5 14.1995 104.6C13.9995 104.7 13.7995 104.6 13.6995 104.4C13.5995 104.2 13.5995 104 13.5995 103.8C13.4995 102.4 13.3995 99 13.4995 97.4C13.1995 97.4 12.8995 97.2 12.7995 97C12.5995 96.7 12.5995 96.4 12.4995 96.1C12.3995 95.1 12.3995 94 12.5995 93C12.5995 92.9 12.6995 92.7 12.7995 92.7C12.8995 92.7 12.8995 92.7 12.9995 92.7C13.0995 92.7 13.0995 92.8 13.0995 92.9C13.0995 93.4 13.0995 94 13.0995 94.5C13.0995 94.7 13.1995 95 13.3995 94.9C13.4995 94.9 13.4995 94.8 13.4995 94.7C13.4995 94.2 13.4995 93.7 13.5995 93.2C13.5995 93 13.5995 92.8 13.7995 92.7C13.8995 92.6 13.9995 92.6 14.0995 92.7C14.1995 92.8 14.1995 92.8 14.1995 92.9C14.1995 93.4 14.1995 93.8 14.1995 94.3C14.1995 94.5 14.1995 94.7 14.2995 94.9C14.3995 95 14.4995 95 14.5995 94.9C14.6995 94.8 14.5995 94.6 14.5995 94.4C14.5995 93.9 14.5995 93.4 14.6995 92.9C14.6995 92.8 14.7995 92.8 14.7995 92.8C14.9995 92.7 15.0995 93 15.1995 93.2C15.1995 94.1 15.2995 95 15.2995 95.9C15.3995 96.3 15.3995 96.7 15.0995 97.1ZM18.3995 97.6C18.1995 97.7 17.8995 97.6 17.6995 97.8C17.5995 97.9 17.5995 98 17.5995 98.2C17.4995 99.5 17.5995 102.4 17.7995 103.7C17.8995 104 17.8995 104.3 17.7995 104.5C17.6995 104.8 17.1995 104.9 16.8995 104.5C16.6995 101.6 16.6995 97.5 16.5995 94.7C16.5995 94.1 16.4995 93.4 16.5995 92.8C16.5995 92.7 16.5995 92.6 16.6995 92.6C16.7995 92.6 16.8995 92.6 16.9995 92.7C17.4995 93.1 17.7995 93.8 17.9995 94.4C18.1995 95.2 18.3995 96 18.5995 96.8C18.6995 97.1 18.6995 97.4 18.3995 97.6Z" fill="#337085"/>
<path d="M15.5995 50.9L-0.000488281 66.4L15.4995 81.9L30.9995 66.4L15.5995 50.9ZM15.0995 66.1C14.9995 66.3 14.7995 66.4 14.5995 66.6C14.2995 67 14.3995 67.5 14.3995 67.9C14.4995 69 14.4995 71.8 14.4995 72.9C14.4995 73.2 14.4995 73.5 14.1995 73.6C13.9995 73.7 13.7995 73.6 13.6995 73.4C13.5995 73.2 13.5995 73 13.5995 72.8C13.4995 71.4 13.3995 68 13.4995 66.4C13.1995 66.4 12.8995 66.2 12.7995 66C12.5995 65.7 12.5995 65.4 12.4995 65.1C12.3995 64.1 12.3995 63 12.5995 62C12.5995 61.9 12.6995 61.7 12.7995 61.7C12.8995 61.7 12.8995 61.7 12.9995 61.7C13.0995 61.7 13.0995 61.8 13.0995 61.9C13.0995 62.4 13.0995 63 13.0995 63.5C13.0995 63.7 13.1995 64 13.3995 63.9C13.4995 63.9 13.4995 63.8 13.4995 63.7C13.4995 63.2 13.4995 62.7 13.5995 62.2C13.5995 62 13.5995 61.8 13.7995 61.7C13.8995 61.6 13.9995 61.6 14.0995 61.7C14.1995 61.8 14.1995 61.8 14.1995 61.9C14.1995 62.4 14.1995 62.8 14.1995 63.3C14.1995 63.5 14.1995 63.7 14.2995 63.9C14.3995 64 14.4995 64 14.5995 63.9C14.6995 63.8 14.5995 63.6 14.5995 63.4C14.5995 62.9 14.5995 62.4 14.6995 61.9C14.6995 61.8 14.7995 61.8 14.7995 61.8C14.9995 61.7 15.0995 62 15.1995 62.2C15.1995 63.1 15.2995 64 15.2995 64.9C15.3995 65.3 15.3995 65.7 15.0995 66.1ZM18.3995 66.5C18.1995 66.6 17.8995 66.5 17.6995 66.7C17.5995 66.8 17.5995 66.9 17.5995 67.1C17.4995 68.4 17.5995 71.3 17.7995 72.6C17.8995 72.9 17.8995 73.2 17.7995 73.4C17.6995 73.7 17.1995 73.8 16.8995 73.4C16.6995 70.5 16.6995 66.4 16.5995 63.6C16.5995 63 16.4995 62.3 16.5995 61.7C16.5995 61.6 16.5995 61.5 16.6995 61.5C16.7995 61.5 16.8995 61.5 16.9995 61.6C17.4995 62 17.7995 62.7 17.9995 63.3C18.1995 64.1 18.3995 64.9 18.5995 65.7C18.6995 66 18.6995 66.4 18.3995 66.5Z" fill="#337085"/>
<path d="M30.9712 600.311L30.9712 538.311H-31.0288L-31.0288 600.311H30.9712Z" fill="#F0968E"/>
<path d="M15.5 569.2L0 584.7L15.5 600.2L31 584.7L15.5 569.2ZM15.1 584.4C15 584.6 14.8 584.7 14.6 584.9C14.3 585.3 14.4 585.8 14.4 586.2C14.5 587.3 14.5 590.1 14.5 591.2C14.5 591.5 14.5 591.8 14.2 591.9C14 592 13.8 591.9 13.7 591.7C13.6 591.5 13.6 591.3 13.6 591.1C13.5 589.7 13.4 586.3 13.5 584.7C13.2 584.7 12.9 584.5 12.8 584.3C12.6 584 12.6 583.7 12.5 583.4C12.4 582.4 12.4 581.3 12.6 580.3C12.6 580.2 12.7 580 12.8 580C12.9 580 12.9 580 13 580C13.1 580 13.1 580.1 13.1 580.2C13.1 580.7 13.1 581.3 13.1 581.8C13.1 582 13.2 582.3 13.4 582.2C13.5 582.2 13.5 582.1 13.5 582C13.5 581.5 13.5 581 13.6 580.5C13.6 580.3 13.6 580.1 13.8 580C13.9 579.9 14 579.9 14.1 580C14.2 580.1 14.2 580.1 14.2 580.2C14.2 580.7 14.2 581.1 14.2 581.6C14.2 581.8 14.2 582 14.3 582.2C14.4 582.3 14.5 582.3 14.6 582.2C14.7 582.1 14.6 581.9 14.6 581.7C14.6 581.2 14.6 580.7 14.7 580.2C14.7 580.1 14.8 580.1 14.8 580.1C15 580 15.1 580.3 15.2 580.5C15.2 581.4 15.3 582.3 15.3 583.2C15.3 583.6 15.3 584.1 15.1 584.4ZM18.4 584.9C18.2 585 17.9 584.9 17.7 585.1C17.6 585.2 17.6 585.3 17.6 585.5C17.5 586.8 17.6 589.7 17.8 591C17.9 591.3 17.9 591.6 17.8 591.8C17.7 592.1 17.2 592.2 16.9 591.8C16.7 588.9 16.7 584.8 16.6 582C16.6 581.4 16.5 580.7 16.6 580.1C16.6 580 16.6 579.9 16.7 579.9C16.8 579.9 16.9 579.9 17 580C17.5 580.4 17.8 581.1 18 581.7C18.2 582.5 18.4 583.3 18.6 584.1C18.6 584.4 18.7 584.7 18.4 584.9Z" fill="#337085"/>
<path d="M15.5 538.2L0 553.7L15.5 569.2L31 553.7L15.5 538.2ZM15.1 553.4C15 553.6 14.8 553.7 14.6 553.9C14.3 554.3 14.4 554.8 14.4 555.2C14.5 556.3 14.5 559.1 14.5 560.2C14.5 560.5 14.5 560.8 14.2 560.9C14 561 13.8 560.9 13.7 560.7C13.6 560.5 13.6 560.3 13.6 560.1C13.5 558.7 13.4 555.3 13.5 553.7C13.2 553.7 12.9 553.5 12.8 553.3C12.6 553 12.6 552.7 12.5 552.4C12.4 551.4 12.4 550.3 12.6 549.3C12.6 549.2 12.7 549 12.8 549C12.9 549 12.9 549 13 549C13.1 549 13.1 549.1 13.1 549.2C13.1 549.7 13.1 550.3 13.1 550.8C13.1 551 13.2 551.3 13.4 551.2C13.5 551.2 13.5 551.1 13.5 551C13.5 550.5 13.5 550 13.6 549.5C13.6 549.3 13.6 549.1 13.8 549C13.9 548.9 14 548.9 14.1 549C14.2 549.1 14.2 549.1 14.2 549.2C14.2 549.7 14.2 550.1 14.2 550.6C14.2 550.8 14.2 551 14.3 551.2C14.4 551.3 14.5 551.3 14.6 551.2C14.7 551.1 14.6 550.9 14.6 550.7C14.6 550.2 14.6 549.7 14.7 549.2C14.7 549.1 14.8 549.1 14.8 549.1C15 549 15.1 549.3 15.2 549.5C15.2 550.4 15.3 551.3 15.3 552.2C15.3 552.6 15.3 553 15.1 553.4ZM18.4 553.9C18.2 554 17.9 553.9 17.7 554.1C17.6 554.2 17.6 554.3 17.6 554.5C17.5 555.8 17.6 558.7 17.8 560C17.9 560.3 17.9 560.6 17.8 560.8C17.7 561.1 17.2 561.2 16.9 560.8C16.7 557.9 16.7 553.8 16.6 551C16.6 550.4 16.5 549.7 16.6 549.1C16.6 549 16.6 548.9 16.7 548.9C16.8 548.9 16.9 548.9 17 549C17.5 549.4 17.8 550.1 18 550.7C18.2 551.5 18.4 552.3 18.6 553.1C18.6 553.3 18.7 553.7 18.4 553.9Z" fill="#337085"/>
<path d="M30.9888 681.528L30.9888 619.528H-31.0112L-31.0112 681.528H30.9888Z" fill="#F6BBB5"/>
<path d="M15.5 650.4L0 666L15.5 681.5L31 666L15.5 650.4ZM15.1 665.6C15 665.8 14.8 665.9 14.6 666.1C14.3 666.5 14.4 667 14.4 667.4C14.5 668.5 14.5 671.3 14.5 672.4C14.5 672.7 14.5 673 14.2 673.1C14 673.2 13.8 673.1 13.7 672.9C13.6 672.7 13.6 672.5 13.6 672.3C13.5 670.9 13.4 667.5 13.5 665.9C13.2 665.9 12.9 665.7 12.8 665.5C12.6 665.2 12.6 664.9 12.5 664.6C12.4 663.6 12.4 662.5 12.6 661.5C12.6 661.4 12.7 661.2 12.8 661.2C12.9 661.2 12.9 661.2 13 661.2C13.1 661.2 13.1 661.3 13.1 661.4C13.1 661.9 13.1 662.5 13.1 663C13.1 663.2 13.2 663.5 13.4 663.4C13.5 663.4 13.5 663.3 13.5 663.2C13.5 662.7 13.5 662.2 13.6 661.7C13.6 661.5 13.6 661.3 13.8 661.2C13.9 661.1 14 661.1 14.1 661.2C14.2 661.3 14.2 661.3 14.2 661.4C14.2 661.9 14.2 662.3 14.2 662.8C14.2 663 14.2 663.2 14.3 663.4C14.4 663.5 14.5 663.5 14.6 663.4C14.7 663.3 14.6 663.1 14.6 662.9C14.6 662.4 14.6 661.9 14.7 661.4C14.7 661.3 14.8 661.3 14.8 661.3C15 661.2 15.1 661.5 15.2 661.7C15.2 662.6 15.3 663.5 15.3 664.4C15.3 664.8 15.3 665.3 15.1 665.6ZM18.4 666.1C18.2 666.2 17.9 666.1 17.7 666.3C17.6 666.4 17.6 666.5 17.6 666.7C17.5 668 17.6 670.9 17.8 672.2C17.9 672.5 17.9 672.8 17.8 673C17.7 673.3 17.2 673.4 16.9 673C16.7 670.1 16.7 666 16.6 663.2C16.6 662.6 16.5 661.9 16.6 661.3C16.6 661.2 16.6 661.1 16.7 661.1C16.8 661.1 16.9 661.1 17 661.2C17.5 661.6 17.8 662.3 18 662.9C18.2 663.7 18.4 664.5 18.6 665.3C18.6 665.6 18.7 666 18.4 666.1Z" fill="#337085"/>
<path d="M15.5 619.4L0 634.9L15.5 650.4L31 634.9L15.5 619.4ZM15.1 634.6C15 634.8 14.8 634.9 14.6 635.1C14.3 635.5 14.4 636 14.4 636.4C14.5 637.5 14.5 640.3 14.5 641.4C14.5 641.7 14.5 642 14.2 642.1C14 642.2 13.8 642.1 13.7 641.9C13.6 641.7 13.6 641.5 13.6 641.3C13.5 639.9 13.4 636.5 13.5 634.9C13.2 634.9 12.9 634.7 12.8 634.5C12.6 634.2 12.6 633.9 12.5 633.6C12.4 632.6 12.4 631.5 12.6 630.5C12.6 630.4 12.7 630.2 12.8 630.2C12.9 630.2 12.9 630.2 13 630.2C13.1 630.2 13.1 630.3 13.1 630.4C13.1 630.9 13.1 631.5 13.1 632C13.1 632.2 13.2 632.5 13.4 632.4C13.5 632.4 13.5 632.3 13.5 632.2C13.5 631.7 13.5 631.2 13.6 630.7C13.6 630.5 13.6 630.3 13.8 630.2C13.9 630.1 14 630.1 14.1 630.2C14.2 630.3 14.2 630.3 14.2 630.4C14.2 630.9 14.2 631.3 14.2 631.8C14.2 632 14.2 632.2 14.3 632.4C14.4 632.5 14.5 632.5 14.6 632.4C14.7 632.3 14.6 632.1 14.6 631.9C14.6 631.4 14.6 630.9 14.7 630.4C14.7 630.3 14.8 630.3 14.8 630.3C15 630.2 15.1 630.5 15.2 630.7C15.2 631.6 15.3 632.5 15.3 633.4C15.3 633.8 15.3 634.3 15.1 634.6ZM18.4 635.1C18.2 635.2 17.9 635.1 17.7 635.3C17.6 635.4 17.6 635.5 17.6 635.7C17.5 637 17.6 639.9 17.8 641.2C17.9 641.5 17.9 641.8 17.8 642C17.7 642.3 17.2 642.4 16.9 642C16.7 639.1 16.7 635 16.6 632.2C16.6 631.6 16.5 630.9 16.6 630.3C16.6 630.2 16.6 630.1 16.7 630.1C16.8 630.1 16.9 630.1 17 630.2C17.5 630.6 17.8 631.3 18 631.9C18.2 632.7 18.4 633.5 18.6 634.3C18.6 634.6 18.7 634.9 18.4 635.1Z" fill="#337085"/>
<path d="M31.0059 762.745L31.0059 700.745H-30.9941L-30.9941 762.745H31.0059Z" fill="#F0968E"/>
<path d="M15.5 731.7L0 747.2L15.5 762.7L31 747.2L15.5 731.7ZM15.1 746.9C15 747.1 14.8 747.2 14.6 747.4C14.3 747.8 14.4 748.3 14.4 748.7C14.5 749.8 14.5 752.6 14.5 753.7C14.5 754 14.5 754.3 14.2 754.4C14 754.5 13.8 754.4 13.7 754.2C13.6 754 13.6 753.8 13.6 753.6C13.5 752.2 13.4 748.8 13.5 747.2C13.2 747.2 12.9 747 12.8 746.8C12.6 746.5 12.6 746.2 12.5 745.9C12.4 744.9 12.4 743.8 12.6 742.8C12.6 742.7 12.7 742.5 12.8 742.5C12.9 742.5 12.9 742.5 13 742.5C13.1 742.5 13.1 742.6 13.1 742.7C13.1 743.2 13.1 743.8 13.1 744.3C13.1 744.5 13.2 744.8 13.4 744.7C13.5 744.7 13.5 744.6 13.5 744.5C13.5 744 13.5 743.5 13.6 743C13.6 742.8 13.6 742.6 13.8 742.5C13.9 742.4 14 742.4 14.1 742.5C14.2 742.6 14.2 742.6 14.2 742.7C14.2 743.2 14.2 743.6 14.2 744.1C14.2 744.3 14.2 744.5 14.3 744.7C14.4 744.8 14.5 744.8 14.6 744.7C14.7 744.6 14.6 744.4 14.6 744.2C14.6 743.7 14.6 743.2 14.7 742.7C14.7 742.6 14.8 742.6 14.8 742.6C15 742.5 15.1 742.8 15.2 743C15.2 743.9 15.3 744.8 15.3 745.7C15.3 746.1 15.3 746.5 15.1 746.9ZM18.4 747.3C18.2 747.4 17.9 747.3 17.7 747.5C17.6 747.6 17.6 747.7 17.6 747.9C17.5 749.2 17.6 752.1 17.8 753.4C17.9 753.7 17.9 754 17.8 754.2C17.7 754.5 17.2 754.6 16.9 754.2C16.7 751.3 16.7 747.2 16.6 744.4C16.6 743.8 16.5 743.1 16.6 742.5C16.6 742.4 16.6 742.3 16.7 742.3C16.8 742.3 16.9 742.3 17 742.4C17.5 742.8 17.8 743.5 18 744.1C18.2 744.9 18.4 745.7 18.6 746.5C18.6 746.8 18.7 747.2 18.4 747.3Z" fill="#337085"/>
<path d="M15.5 700.6L0 716.1L15.5 731.6L31 716.1L15.5 700.6ZM15.1 715.8C15 716 14.8 716.1 14.6 716.3C14.3 716.7 14.4 717.2 14.4 717.6C14.5 718.7 14.5 721.5 14.5 722.6C14.5 722.9 14.5 723.2 14.2 723.3C14 723.4 13.8 723.3 13.7 723.1C13.6 722.9 13.6 722.7 13.6 722.5C13.5 721.1 13.4 717.7 13.5 716.1C13.2 716.1 12.9 715.9 12.8 715.7C12.6 715.4 12.6 715.1 12.5 714.8C12.4 713.8 12.4 712.7 12.6 711.7C12.6 711.6 12.7 711.4 12.8 711.4C12.9 711.4 12.9 711.4 13 711.4C13.1 711.4 13.1 711.5 13.1 711.6C13.1 712.1 13.1 712.7 13.1 713.2C13.1 713.4 13.2 713.7 13.4 713.6C13.5 713.6 13.5 713.5 13.5 713.4C13.5 712.9 13.5 712.4 13.6 711.9C13.6 711.7 13.6 711.5 13.8 711.4C13.9 711.3 14 711.3 14.1 711.4C14.2 711.5 14.2 711.5 14.2 711.6C14.2 712.1 14.2 712.5 14.2 713C14.2 713.2 14.2 713.4 14.3 713.6C14.4 713.7 14.5 713.7 14.6 713.6C14.7 713.5 14.6 713.3 14.6 713.1C14.6 712.6 14.6 712.1 14.7 711.6C14.7 711.5 14.8 711.5 14.8 711.5C15 711.4 15.1 711.7 15.2 711.9C15.2 712.8 15.3 713.7 15.3 714.6C15.3 715 15.3 715.5 15.1 715.8ZM18.4 716.3C18.2 716.4 17.9 716.3 17.7 716.5C17.6 716.6 17.6 716.7 17.6 716.9C17.5 718.2 17.6 721.1 17.8 722.4C17.9 722.7 17.9 723 17.8 723.2C17.7 723.5 17.2 723.6 16.9 723.2C16.7 720.3 16.7 716.2 16.6 713.4C16.6 712.8 16.5 712.1 16.6 711.5C16.6 711.4 16.6 711.3 16.7 711.3C16.8 711.3 16.9 711.3 17 711.4C17.5 711.8 17.8 712.5 18 713.1C18.2 713.9 18.4 714.7 18.6 715.5C18.6 715.8 18.7 716.1 18.4 716.3Z" fill="#337085"/>
<path d="M30.9839 843.902L30.9839 781.902H-31.0161L-31.0161 843.902H30.9839Z" fill="#F6BBB5"/>
<path d="M15.5 812.9L0 828.4L15.5 843.9L31 828.4L15.5 812.9ZM15.1 828.1C15 828.3 14.8 828.4 14.6 828.6C14.3 829 14.4 829.5 14.4 829.9C14.5 831 14.5 833.8 14.5 834.9C14.5 835.2 14.5 835.5 14.2 835.6C14 835.7 13.8 835.6 13.7 835.4C13.6 835.2 13.6 835 13.6 834.8C13.5 833.4 13.4 830 13.5 828.4C13.2 828.4 12.9 828.2 12.8 828C12.6 827.7 12.6 827.4 12.5 827.1C12.4 826.1 12.4 825 12.6 824C12.6 823.9 12.7 823.7 12.8 823.7C12.9 823.7 12.9 823.7 13 823.7C13.1 823.7 13.1 823.8 13.1 823.9C13.1 824.4 13.1 825 13.1 825.5C13.1 825.7 13.2 826 13.4 825.9C13.5 825.9 13.5 825.8 13.5 825.7C13.5 825.2 13.5 824.7 13.6 824.2C13.6 824 13.6 823.8 13.8 823.7C13.9 823.6 14 823.6 14.1 823.7C14.2 823.8 14.2 823.8 14.2 823.9C14.2 824.4 14.2 824.8 14.2 825.3C14.2 825.5 14.2 825.7 14.3 825.9C14.4 826 14.5 826 14.6 825.9C14.7 825.8 14.6 825.6 14.6 825.4C14.6 824.9 14.6 824.4 14.7 823.9C14.7 823.8 14.8 823.8 14.8 823.8C15 823.7 15.1 824 15.2 824.2C15.2 825.1 15.3 826 15.3 826.9C15.3 827.3 15.3 827.7 15.1 828.1ZM18.4 828.5C18.2 828.6 17.9 828.5 17.7 828.7C17.6 828.8 17.6 828.9 17.6 829.1C17.5 830.4 17.6 833.3 17.8 834.6C17.9 834.9 17.9 835.2 17.8 835.4C17.7 835.7 17.2 835.8 16.9 835.4C16.7 832.5 16.7 828.4 16.6 825.6C16.6 825 16.5 824.3 16.6 823.7C16.6 823.6 16.6 823.5 16.7 823.5C16.8 823.5 16.9 823.5 17 823.6C17.5 824 17.8 824.7 18 825.3C18.2 826.1 18.4 826.9 18.6 827.7C18.6 828 18.6 828.4 18.4 828.5Z" fill="#337085"/>
<path d="M15.5 781.8L0 797.4L15.5 812.9L31 797.4L15.5 781.8ZM15.1 797C15 797.2 14.8 797.3 14.6 797.5C14.3 797.9 14.4 798.4 14.4 798.8C14.5 799.9 14.5 802.7 14.5 803.8C14.5 804.1 14.5 804.4 14.2 804.5C14 804.6 13.8 804.5 13.7 804.3C13.6 804.1 13.6 803.9 13.6 803.7C13.5 802.3 13.4 798.9 13.5 797.3C13.2 797.3 12.9 797.1 12.8 796.9C12.6 796.6 12.6 796.3 12.5 796C12.4 795 12.4 793.9 12.6 792.9C12.6 792.8 12.7 792.6 12.8 792.6C12.9 792.6 12.9 792.6 13 792.6C13.1 792.6 13.1 792.7 13.1 792.8C13.1 793.3 13.1 793.9 13.1 794.4C13.1 794.6 13.2 794.9 13.4 794.8C13.5 794.8 13.5 794.7 13.5 794.6C13.5 794.1 13.5 793.6 13.6 793.1C13.6 792.9 13.6 792.7 13.8 792.6C13.9 792.5 14 792.5 14.1 792.6C14.2 792.7 14.2 792.7 14.2 792.8C14.2 793.3 14.2 793.7 14.2 794.2C14.2 794.4 14.2 794.6 14.3 794.8C14.4 794.9 14.5 794.9 14.6 794.8C14.7 794.7 14.6 794.5 14.6 794.3C14.6 793.8 14.6 793.3 14.7 792.8C14.7 792.7 14.8 792.7 14.8 792.7C15 792.6 15.1 792.9 15.2 793.1C15.2 794 15.3 794.9 15.3 795.8C15.3 796.2 15.3 796.7 15.1 797ZM18.4 797.5C18.2 797.6 17.9 797.5 17.7 797.7C17.6 797.8 17.6 797.9 17.6 798.1C17.5 799.4 17.6 802.3 17.8 803.6C17.9 803.9 17.9 804.2 17.8 804.4C17.7 804.7 17.2 804.8 16.9 804.4C16.7 801.5 16.7 797.4 16.6 794.6C16.6 794 16.5 793.3 16.6 792.7C16.6 792.6 16.6 792.5 16.7 792.5C16.8 792.5 16.9 792.5 17 792.6C17.5 793 17.8 793.7 18 794.3C18.2 795.1 18.4 795.9 18.6 796.7C18.6 797 18.6 797.4 18.4 797.5Z" fill="#337085"/>
<path d="M31.0171 437.796L31.0171 375.796H-30.9829L-30.9829 437.796H31.0171Z" fill="#F0968E"/>
<path d="M15.5 406.8L0 422.3L15.5 437.8L31 422.3L15.5 406.8ZM15.1 422C15 422.2 14.8 422.3 14.6 422.5C14.3 422.9 14.4 423.4 14.4 423.8C14.5 424.9 14.5 427.7 14.5 428.8C14.5 429.1 14.5 429.4 14.2 429.5C14 429.6 13.8 429.5 13.7 429.3C13.6 429.1 13.6 428.9 13.6 428.7C13.5 427.3 13.4 423.9 13.5 422.3C13.2 422.3 12.9 422.1 12.8 421.9C12.6 421.6 12.6 421.3 12.5 421C12.4 420 12.4 418.9 12.6 417.9C12.6 417.8 12.7 417.6 12.8 417.6C12.9 417.6 12.9 417.6 13 417.6C13.1 417.6 13.1 417.7 13.1 417.8C13.1 418.3 13.1 418.9 13.1 419.4C13.1 419.6 13.2 419.9 13.4 419.8C13.5 419.8 13.5 419.7 13.5 419.6C13.5 419.1 13.5 418.6 13.6 418.1C13.6 417.9 13.6 417.7 13.8 417.6C13.9 417.5 14 417.5 14.1 417.6C14.2 417.7 14.2 417.7 14.2 417.8C14.2 418.3 14.2 418.7 14.2 419.2C14.2 419.4 14.2 419.6 14.3 419.8C14.4 419.9 14.5 419.9 14.6 419.8C14.7 419.7 14.6 419.5 14.6 419.3C14.6 418.8 14.6 418.3 14.7 417.8C14.7 417.7 14.8 417.7 14.8 417.7C15 417.6 15.1 417.9 15.2 418.1C15.2 419 15.3 419.9 15.3 420.8C15.3 421.2 15.3 421.6 15.1 422ZM18.4 422.5C18.2 422.6 17.9 422.5 17.7 422.7C17.6 422.8 17.6 422.9 17.6 423.1C17.5 424.4 17.6 427.3 17.8 428.6C17.9 428.9 17.9 429.2 17.8 429.4C17.7 429.7 17.2 429.8 16.9 429.4C16.7 426.5 16.7 422.4 16.6 419.6C16.6 419 16.5 418.3 16.6 417.7C16.6 417.6 16.6 417.5 16.7 417.5C16.8 417.5 16.9 417.5 17 417.6C17.5 418 17.8 418.7 18 419.3C18.2 420.1 18.4 420.9 18.6 421.7C18.6 421.9 18.7 422.3 18.4 422.5Z" fill="#337085"/>
<path d="M15.5 375.8L0 391.3L15.5 406.8L31 391.3L15.5 375.8ZM15.1 390.9C15 391.1 14.8 391.2 14.6 391.4C14.3 391.8 14.4 392.3 14.4 392.7C14.5 393.8 14.5 396.6 14.5 397.7C14.5 398 14.5 398.3 14.2 398.4C14 398.5 13.8 398.4 13.7 398.2C13.6 398 13.6 397.8 13.6 397.6C13.5 396.2 13.4 392.8 13.5 391.2C13.2 391.2 12.9 391 12.8 390.8C12.6 390.5 12.6 390.2 12.5 389.9C12.4 388.9 12.4 387.8 12.6 386.8C12.6 386.7 12.7 386.5 12.8 386.5C12.9 386.5 12.9 386.5 13 386.5C13.1 386.5 13.1 386.6 13.1 386.7C13.1 387.2 13.1 387.8 13.1 388.3C13.1 388.5 13.2 388.8 13.4 388.7C13.5 388.7 13.5 388.6 13.5 388.5C13.5 388 13.5 387.5 13.6 387C13.6 386.8 13.6 386.6 13.8 386.5C13.9 386.4 14 386.4 14.1 386.5C14.2 386.6 14.2 386.6 14.2 386.7C14.2 387.2 14.2 387.6 14.2 388.1C14.2 388.3 14.2 388.5 14.3 388.7C14.4 388.8 14.5 388.8 14.6 388.7C14.7 388.6 14.6 388.4 14.6 388.2C14.6 387.7 14.6 387.2 14.7 386.7C14.7 386.6 14.8 386.6 14.8 386.6C15 386.5 15.1 386.8 15.2 387C15.2 387.9 15.3 388.8 15.3 389.7C15.3 390.1 15.3 390.6 15.1 390.9ZM18.4 391.4C18.2 391.5 17.9 391.4 17.7 391.6C17.6 391.7 17.6 391.8 17.6 392C17.5 393.3 17.6 396.2 17.8 397.5C17.9 397.8 17.9 398.1 17.8 398.3C17.7 398.6 17.2 398.7 16.9 398.3C16.7 395.4 16.7 391.3 16.6 388.5C16.6 387.9 16.5 387.2 16.6 386.6C16.6 386.5 16.6 386.4 16.7 386.4C16.8 386.4 16.9 386.4 17 386.5C17.5 386.9 17.8 387.6 18 388.2C18.2 389 18.4 389.8 18.6 390.6C18.6 390.9 18.7 391.3 18.4 391.4Z" fill="#337085"/>
<path d="M30.9541 519.093L30.9541 457.093H-31.0459L-31.0459 519.093H30.9541Z" fill="#F6BBB5"/>
<path d="M15.5 488L0 503.5L15.5 519L31 503.5L15.5 488ZM15.1 503.2C15 503.4 14.8 503.5 14.6 503.7C14.3 504.1 14.4 504.6 14.4 505C14.5 506.1 14.5 508.9 14.5 510C14.5 510.3 14.5 510.6 14.2 510.7C14 510.8 13.8 510.7 13.7 510.5C13.6 510.3 13.6 510.1 13.6 509.9C13.5 508.5 13.4 505.1 13.5 503.5C13.2 503.5 12.9 503.3 12.8 503.1C12.6 502.8 12.6 502.5 12.5 502.2C12.4 501.2 12.4 500.1 12.6 499.1C12.6 499 12.7 498.8 12.8 498.8C12.9 498.8 12.9 498.8 13 498.8C13.1 498.8 13.1 498.9 13.1 499C13.1 499.5 13.1 500.1 13.1 500.6C13.1 500.8 13.2 501.1 13.4 501C13.5 501 13.5 500.9 13.5 500.8C13.5 500.3 13.5 499.8 13.6 499.3C13.6 499.1 13.6 498.9 13.8 498.8C13.9 498.7 14 498.7 14.1 498.8C14.2 498.9 14.2 498.9 14.2 499C14.2 499.5 14.2 499.9 14.2 500.4C14.2 500.6 14.2 500.8 14.3 501C14.4 501.1 14.5 501.1 14.6 501C14.7 500.9 14.6 500.7 14.6 500.5C14.6 500 14.6 499.5 14.7 499C14.7 498.9 14.8 498.9 14.8 498.9C15 498.8 15.1 499.1 15.2 499.3C15.2 500.2 15.3 501.1 15.3 502C15.3 502.4 15.3 502.9 15.1 503.2ZM18.4 503.7C18.2 503.8 17.9 503.7 17.7 503.9C17.6 504 17.6 504.1 17.6 504.3C17.5 505.6 17.6 508.5 17.8 509.8C17.9 510.1 17.9 510.4 17.8 510.6C17.7 510.9 17.2 511 16.9 510.6C16.7 507.7 16.7 503.6 16.6 500.8C16.6 500.2 16.5 499.5 16.6 498.9C16.6 498.8 16.6 498.7 16.7 498.7C16.8 498.7 16.9 498.7 17 498.8C17.5 499.2 17.8 499.9 18 500.5C18.2 501.3 18.4 502.1 18.6 502.9C18.6 503.2 18.7 503.5 18.4 503.7Z" fill="#337085"/>
<path d="M15.5 457L0 472.5L15.5 488L31 472.5L15.5 457ZM15.1 472.2C15 472.4 14.8 472.5 14.6 472.7C14.3 473.1 14.4 473.6 14.4 474C14.5 475.1 14.5 477.9 14.5 479C14.5 479.3 14.5 479.6 14.2 479.7C14 479.8 13.8 479.7 13.7 479.5C13.6 479.3 13.6 479.1 13.6 478.9C13.5 477.5 13.4 474.1 13.5 472.5C13.2 472.5 12.9 472.3 12.8 472.1C12.6 471.8 12.6 471.5 12.5 471.2C12.4 470.2 12.4 469.1 12.6 468.1C12.6 468 12.7 467.8 12.8 467.8C12.9 467.8 12.9 467.8 13 467.8C13.1 467.8 13.1 467.9 13.1 468C13.1 468.5 13.1 469.1 13.1 469.6C13.1 469.8 13.2 470.1 13.4 470C13.5 470 13.5 469.9 13.5 469.8C13.5 469.3 13.5 468.8 13.6 468.3C13.6 468.1 13.6 467.9 13.8 467.8C13.9 467.7 14 467.7 14.1 467.8C14.2 467.9 14.2 467.9 14.2 468C14.2 468.5 14.2 468.9 14.2 469.4C14.2 469.6 14.2 469.8 14.3 470C14.4 470.1 14.5 470.1 14.6 470C14.7 469.9 14.6 469.7 14.6 469.5C14.6 469 14.6 468.5 14.7 468C14.7 467.9 14.8 467.9 14.8 467.9C15 467.8 15.1 468.1 15.2 468.3C15.2 469.2 15.3 470.1 15.3 471C15.3 471.4 15.3 471.8 15.1 472.2ZM18.4 472.6C18.2 472.7 17.9 472.6 17.7 472.8C17.6 472.9 17.6 473 17.6 473.2C17.5 474.5 17.6 477.4 17.8 478.7C17.9 479 17.9 479.3 17.8 479.5C17.7 479.8 17.2 479.9 16.9 479.5C16.7 476.6 16.7 472.5 16.6 469.7C16.6 469.1 16.5 468.4 16.6 467.8C16.6 467.7 16.6 467.6 16.7 467.6C16.8 467.6 16.9 467.6 17 467.7C17.5 468.1 17.8 468.8 18 469.4C18.2 470.2 18.4 471 18.6 471.8C18.6 472.1 18.7 472.5 18.4 472.6Z" fill="#337085"/>
<path d="M0 0H390V87.9C390 87.9 383.1 77 374.6 75.9C366.1 74.8 353.3 91 353.3 91C353.3 91 344.5 102.6 328.5 91C312.5 79.4 303.8 77 299.8 80.7C295.8 84.4 284 105.3 272.7 107.5C261.4 109.7 256.7 107.9 242.9 100.9C229.1 93.8 227.7 86.1 221.7 94.7C218.8 99 210.3 119.9 200.7 122.5C190.4 125.2 190.1 117 183.6 104.9C177.1 92.8 174.6 82.6 164.1 86C154.6 89.1 139.9 101.8 113.9 90.2C107.6 87.4 100.4 87.6 94.3 90.9C91.4 92.5 87.9 94.6 83.9 97.4C69.2 107.6 48 128.5 25.7 92.9C25.7 92.9 16.9 78.8 12.1 78.5C7.4 78 0 82.5 0 82.5V0Z" fill="#4C0003"/>
<path d="M131.3 42.8C131.8 42.2 132.3 41.1 133 40.9C133.7 40.7 135.1 41.4 135.3 42C136.4 45.1 137.2 48.2 137.9 51.4C138 52 137.2 53.4 136.5 53.6C135.9 53.8 134.4 53.1 134.2 52.5C133.1 49.4 132.3 46.3 131.3 42.8Z" fill="#F0968E"/>
<path d="M284 13.4C283.5 13.9 282.7 15.2 282.1 15.1C281.3 15 280 14 279.8 13.1C279.2 10.3 278.8 7.39995 278.7 4.59995C278.7 3.79995 279.7 2.99995 280.3 2.19995C281.1 2.89995 282.5 3.39995 282.7 4.19995C283.2 6.99995 283.5 9.89995 284 13.4Z" fill="#F0968E"/>
<path d="M196 54.4C194.4 54.4 192.8 54.7 191.3 54.3C190.4 54.1 189.7 53 188.9 52.2C189.7 51.5 190.5 50.3 191.4 50.3C194.3 50.2 197.2 50.3 200 50.6C200.8 50.7 201.5 52 202.3 52.7C201.4 53.3 200.7 54.2 199.7 54.5C198.6 54.8 197.3 54.6 196.1 54.6C196 54.5 196 54.5 196 54.4Z" fill="#F0968E"/>
<path d="M194.6 14.4C191.1 13.5 188.1 12.8 185.1 11.9C184.4 11.7 183.5 10.2 183.7 9.79996C184 8.99996 185.3 7.99996 185.9 8.09996C189 8.59996 192.1 9.39996 195.1 10.4C195.8 10.6 196.5 12 196.5 12.9C196.4 13.4 195.2 14 194.6 14.4Z" fill="#F0968E"/>
<path d="M218.1 53.3C219.2 49.9 220.1 46.9 221.3 43.9C221.6 43.2 223 43 223.9 42.6C224.3 43.5 225.2 44.5 225 45.3C224.3 48.3 223.3 51.2 222.1 54C221.8 54.7 220.4 55.2 219.5 55.1C219 55.1 218.5 53.8 218.1 53.3Z" fill="#F0968E"/>
<path d="M53.7 26.8C53.2 26.4 52.4 25.7 51.5 25C52.3 24.2 52.9 22.9 53.9 22.7C56.4 22 59.1 21.4 61.7 21.2C62.6 21.1 63.6 22.2 64.6 22.8C63.9 23.6 63.4 24.9 62.5 25.2C59.9 25.8 57.1 26.2 53.7 26.8Z" fill="#F6BBB5"/>
<path d="M326.3 24C325.9 23.7 325.1 23.4 325 22.9C324.8 22.2 324.8 20.9 325.2 20.5C327.6 18.3 330.1 16.2 332.7 14.2C333.2 13.8 334.6 14 335 14.4C335.5 14.8 335.8 16.4 335.5 16.7C332.8 19.2 330 21.5 327.2 23.8C327.1 24 326.8 23.9 326.3 24Z" fill="#F0968E"/>
<path d="M103.4 14.9C101.5 18.3 99.7001 21.6 97.7001 24.7C97.5001 25 96.1001 25 95.6001 24.7C95.1001 24.4 94.5001 23.2 94.7001 22.8C96.2001 19.6 97.8001 16.4 99.6001 13.4C99.8001 13 101.1 12.9 101.7 13.1C102.3 13.2 102.7 14.1 103.4 14.9Z" fill="#F0968E"/>
<path d="M249.5 83.6001C249 83.1001 248 82.4001 247.9 81.6001C247.8 80.9001 248.7 79.6001 249.3 79.5001C252.4 78.7001 255.5 78.2001 258.6 77.8001C259.3 77.7001 260.5 78.8001 260.8 79.6001C261 80.1001 260 81.6001 259.4 81.7001C256.3 82.5001 253.2 82.9001 249.5 83.6001Z" fill="#F0968E"/>
<path d="M201.9 85C201.5 84 200.4 82.7 200.7 82.3C202.7 79.3 204.9 76.4 207.2 73.6C207.5 73.2 208.9 73.5 209.5 73.9C209.9 74.2 210.3 75.5 210 75.9C207.9 78.8 205.7 81.5 203.5 84.3C203.3 84.6 202.8 84.7 201.9 85Z" fill="#F0968E"/>
<path d="M275.2 56.7C275.5 57 276.3 57.5 276.7 58.2C278.1 60.5 279.6 62.7 280.8 65.1C281.2 66 280.5 67.3 280.3 68.4C279.3 68 277.9 67.9 277.4 67.2C275.8 65 274.4 62.5 273.1 60.1C272.1 58.2 272.9 56.6 275.2 56.7Z" fill="#F0968E"/>
<path d="M89.4002 41.6C88.5002 42.7 88.2002 43.6 87.6002 43.7C86.9002 43.9 85.7002 43.8 85.2002 43.3C83.0002 41 81.0002 38.6 79.0002 36.1C78.6002 35.6 78.6002 34.5 79.0002 34C79.3002 33.5 80.7002 32.8 80.8002 33C83.8002 35.7 86.5002 38.6 89.4002 41.6Z" fill="#F0968E"/>
<path d="M60.7002 82.2C61.4002 80.9 61.5002 80.3 61.9002 79.9C64.3002 77.8 66.7002 75.7 69.2002 73.9C69.7002 73.5 71.3002 73.7 71.7002 74.2C72.1002 74.7 72.2002 76.3 71.7002 76.8C69.3002 79.1 66.7002 81.3 64.0002 83.2C63.5002 83.6 62.0002 82.7 60.7002 82.2Z" fill="#F0968E"/>
<path d="M364.4 54.5C364 54.1 362.7 53.5 362.7 52.8C362.7 52.1 363.7 50.9 364.5 50.7C367.2 50 369.9 49.5 372.6 49.3C373.4 49.2 374.3 50.1 375.2 50.6C374.5 51.4 373.9 52.7 373.1 52.9C370.5 53.6 367.7 53.9 364.4 54.5Z" fill="#F0968E"/>
<path d="M203.7 38.3C200.4 37.1 197.5 36.1 194.7 34.8C194.1 34.5 193.6 33.3 193.6 32.5C193.6 32.1 195.1 31.3 195.6 31.5C198.6 32.4 201.6 33.5 204.5 34.7C205.1 34.9 205.6 36.2 205.5 36.8C205.3 37.5 204.3 37.9 203.7 38.3Z" fill="#F6BBB5"/>
<path d="M109.2 57C105.9 56.5 103.3 56.3 100.8 55.7C99.9998 55.5 99.4998 54.4 98.7998 53.7C99.5998 53.2 100.5 52.2 101.3 52.2C103.8 52.3 106.3 52.6 108.6 53.2C109.7 53.5 110.5 54.6 111.4 55.4C110.7 56 109.7 56.6 109.2 57Z" fill="#F6BBB5"/>
<path d="M169.8 55.3C170.5 55.7 171.1 55.9 171.5 56.3C173.5 58.3 175.5 60.2001 177.2 62.4001C177.7 63.0001 177.4 64.3 177.5 65.2C176.5 65.1 175.2 65.4001 174.7 64.8001C172.6 62.9001 170.6 60.7 168.7 58.6C168.3 58.1 168.2 57.1 168.3 56.5C168.4 56 169.3 55.7 169.8 55.3Z" fill="#F6BBB5"/>
<path d="M360.8 36.4C359.6 36.9 358.4 37.8 357.6 37.5C354.8 36.4 352 35 349.3 33.5C348.7 33.2 348.3 31.9 348.5 31.4C348.7 30.8 350 30.1 350.5 30.3C353.6 31.6 356.6 33.1 359.6 34.6C359.9 34.7 360.1 35.3 360.8 36.4Z" fill="#F6BBB5"/>
<path d="M121.2 27C120 30.3 119.1 33.3 117.9 36.3C117.7 36.8 116.3 37.4 115.8 37.2C115.2 37 114.5 35.8 114.6 35.2C115.4 32.1 116.4 29.1 117.6 26.2C117.8 25.7 119.1 25.1 119.8 25.3C120.4 25.4 120.8 26.4 121.2 27Z" fill="#F6BBB5"/>
<path d="M25.3998 14.7001C21.9998 14.0001 19.0998 13.6001 16.3998 12.8001C15.6998 12.6001 15.2998 11.3001 14.7998 10.5001C15.5998 10.1001 16.3998 9.20006 17.0998 9.30006C19.8998 9.70006 22.7998 10.2001 25.4998 11.0001C26.1998 11.2001 27.1998 12.4001 27.0998 13.0001C26.8998 13.7001 25.7998 14.2001 25.3998 14.7001Z" fill="#F0968E"/>
<path d="M316.7 9.20005C315.4 10.6001 315 11.3001 314.4 11.7001C312 13.1001 309.7 14.6001 307.2 15.8001C306.5 16.1001 305.3 15.6001 304.3 15.5001C304.6 14.6001 304.6 13.3001 305.2 12.8001C307.5 11.2001 310 9.70005 312.6 8.50005C313.5 8.10005 314.8 8.80005 316.7 9.20005Z" fill="#F6BBB5"/>
<path d="M129.5 4.90002C131.4 4.90002 132.8 4.70002 134.1 5.00002C134.8 5.10002 135.7 6.00002 135.7 6.60002C135.7 7.20002 134.8 8.30002 134.2 8.40002C131.2 8.70002 128.1 8.90002 125 8.90002C124.3 8.90002 123.6 7.80002 123 7.20002C123.6 6.50002 124.1 5.50002 124.9 5.30002C126.6 4.90002 128.3 4.90002 129.5 4.90002Z" fill="#F6BBB5"/>
<path d="M140.3 77.8C139.7 77.3 138.8 76.9 138.6 76.3C138.4 75.7 138.7 74.5 139.2 74.3C142.2 72.9 145.3 71.6 148.5 70.5C149 70.3 150.1 70.9 150.4 71.4C150.7 71.9 150.4 73.2 150 73.4C146.9 74.9 143.7 76.2 140.3 77.8Z" fill="#F6BBB5"/>
<path d="M361.4 67.1C364.7 68.8 367.9 70.3 371 72.1C371.4 72.3 371.5 73.7 371.3 74.2C371 74.7 369.9 75.1 369.4 74.9C366.4 73.7 363.5 72.3 360.6 70.8C360.1 70.5 359.7 69.4 359.8 68.8C359.9 68.2 360.7 67.7 361.4 67.1Z" fill="#F6BBB5"/>
<path d="M248.6 64.1C245.3 63.6 242.7 63.4 240.3 62.8C239.4 62.6 238.8 61.4001 238.1 60.7001C239 60.2001 240 59.3 240.9 59.3C243.3 59.4 245.8 59.7 248.2 60.3C249.2 60.5 250 61.6 250.9 62.3C250 63 249.1 63.7 248.6 64.1Z" fill="#F6BBB5"/>
<path d="M26 58.5C25.5 58.1 24.4 57.6 24.3 56.9C24.2 56.2 25 54.9 25.6 54.7C28.5 53.8 31.5 53.1 34.5 52.6C35.1 52.5 36.5 53.3 36.5 53.7C36.5 54.5 35.9 55.7 35.3 55.9C32.4 57 29.4 57.7 26 58.5Z" fill="#F6BBB5"/>
<path d="M358.1 3.40002C361.4 4.50002 364.4 5.30002 367.2 6.40002C367.8 6.60002 368.1 7.90002 368.5 8.70002C367.7 9.10002 366.8 9.90002 366.1 9.70002C363.1 9.00002 360.2 8.00002 357.4 6.90002C356.8 6.70002 356.1 5.40002 356.3 4.90002C356.5 4.30002 357.5 3.80002 358.1 3.40002Z" fill="#F0968E"/>
<path d="M96.1998 63.4C94.9998 66.7 94.0998 69.8 92.7998 72.9C92.5998 73.4 91.1998 74 90.6998 73.7C90.0998 73.5 89.3998 72.2 89.5998 71.6C90.3998 68.6 91.4998 65.6 92.5998 62.6C92.7998 62.1 93.9998 61.6 94.6998 61.7C95.2998 61.8 95.6998 62.8 96.1998 63.4Z" fill="#F0968E"/>
<path d="M341.5 57.4C340.4 60.7 339.6 63.5 338.4 66.3C338.1 67 336.9 67.2 336.1 67.7C335.7 66.9 334.8 66 335 65.3C335.7 62.4 336.7 59.6 337.8 56.8C338.1 56.1 339.4 55.4 340 55.6C340.7 55.6 341.1 56.8 341.5 57.4Z" fill="#F0968E"/>
<path d="M281.1 33C279.6 33 278.1 33.2 276.7 32.9C276 32.8 275.5 31.9 274.8 31.4C275.4 30.7 276 29.5 276.6 29.5C279.7 29.3 282.9 29.3 286 29.5C286.6 29.5 287.1 30.6 287.7 31.2C287.1 31.8 286.5 32.8 285.8 32.9C284.3 33.2 282.7 33 281.1 33Z" fill="#F6BBB5"/>
<path d="M375.7 28.5C375.7 29.2 375.9 29.9 375.7 30.3C375.4 31 374.8 32 374.2 32.1C373.6 32.2 372.4 31.4 372.3 30.8C371.7 27.7 371.3 24.5 371 21.4C371 20.8 372.1 19.6 372.5 19.6C373.3 19.7 374.4 20.5 374.5 21.2C375.1 23.6 375.3 26.1 375.7 28.5Z" fill="#F0968E"/>
<path d="M229.8 18.8C229.4 18.4 228.7 17.7 227.9 17.1C228.6 16.4 229.1 15.3 229.9 15.1C232.6 14.4 235.3 13.9 238.1 13.7C238.9 13.6 239.7 14.6 240.6 15.2C240 15.9 239.6 17.1 238.9 17.2C236.1 17.8 233.3 18.2 229.8 18.8Z" fill="#F6BBB5"/>
<path d="M57.8999 63.2C58.4999 62.6 58.8999 61.7 59.5999 61.5C60.0999 61.3 61.2999 61.9 61.4999 62.4C62.6999 65.4 63.7999 68.5 64.7999 71.6C64.8999 72.1 64.1999 73.3 63.7999 73.4C63.0999 73.5 61.7999 73.2 61.5999 72.6C60.1999 69.6 59.0999 66.5 57.8999 63.2Z" fill="#F6BBB5"/>
<path d="M254.7 32.5C255.1 32.8 255.8 33.1 256 33.7C256.2 34.2 256.1 35.2 255.7 35.6C253.3 37.8 250.8 39.9 248.2 41.8C247.8 42.1 246.5 41.9 246.1 41.5C245.7 41.1 245.6 39.7 246 39.4C248.6 37.1 251.2 34.9 253.9 32.7C253.9 32.5 254.2 32.6 254.7 32.5Z" fill="#F0968E"/>
<path d="M162 33.5C161.3 34.4 160.9 35.2 160.4 35.3C159.8 35.4 158.6 35.2 158.3 34.7C156.5 32.1 154.9 29.4 153.4 26.6C153.1 26.1 153.4 25 153.8 24.5C154.1 24.1 155.4 24 155.6 24.2C157.8 27.3 159.9 30.4 162 33.5Z" fill="#F0968E"/>
<path d="M317.4 41.9C319 41.9 320.6 41.7 322.1 42C322.7 42.1 323.7 43 323.7 43.6C323.7 44.2 322.8 45.3 322.2 45.4C319 45.6 315.7 45.5 312.4 45.4C311.9 45.4 311 44.3 311.1 43.8C311.2 43.1 312 42.1 312.6 42C314.2 41.7 315.9 41.9 317.4 41.9Z" fill="#F0968E"/>
<path d="M300.1 54.2999C296.8 53.1999 294 52.3 291.3 51.1999C290.6 50.9 290.3 49.6999 289.9 48.9999C290.7 48.5999 291.6 47.7 292.3 47.9C295.2 48.7 298.1 49.6999 301 50.7999C301.6 50.9999 302.2 52.2999 302 52.7999C301.6 53.4999 300.6 53.8999 300.1 54.2999Z" fill="#F6BBB5"/>
<path d="M58.3002 45.5C59.8002 45.5 61.3002 45.3 62.7002 45.6C63.3002 45.7 64.2002 46.7 64.2002 47.3C64.2002 47.9 63.3002 49 62.7002 49C59.6002 49.2 56.6002 49.2 53.5002 49C52.9002 49 52.3002 47.8 51.7002 47.1C52.3002 46.6 52.8002 45.6 53.5002 45.5C55.1002 45.3 56.7002 45.4 58.3002 45.5C58.3002 45.4 58.3002 45.5 58.3002 45.5Z" fill="#F0968E"/>
<path d="M21.9002 40.2C21.6002 40 20.8002 39.8 20.7002 39.4001C20.5002 38.7001 20.5002 37.7 20.9002 37.3C23.0002 35 25.3002 32.8 27.6002 30.6C28.0002 30.2 29.2002 30.2 29.7002 30.6C30.2002 30.9 30.5002 32.3 30.2002 32.6C27.8002 35.2 25.2002 37.6 22.7002 40.1C22.6002 40.1 22.3002 40.1 21.9002 40.2Z" fill="#F0968E"/>
</g>
<defs>
<clipPath id="clip0_19_47232">
<rect width="390" height="844" fill="white"/>
</clipPath>
</defs>
</svg>
