<svg width="385" height="360" viewBox="0 0 385 360" fill="none" xmlns="http://www.w3.org/2000/svg">
<g clip-path="url(#clip0_23_642)">
<path d="M195.4 80.9L358.1 4" stroke="#D7E4E7" stroke-miterlimit="10" stroke-linecap="round" stroke-linejoin="round"/>
<path d="M384.5 47.6L195.4 80.9" stroke="#D7E4E7" stroke-miterlimit="10" stroke-linecap="round" stroke-linejoin="round"/>
<path d="M379.4 99L194 86.5" stroke="#D7E4E7" stroke-miterlimit="10" stroke-linecap="round" stroke-linejoin="round"/>
<path d="M286.7 164.5L192.7 89.7" stroke="#D7E4E7" stroke-miterlimit="10" stroke-linecap="round" stroke-linejoin="round"/>
<path d="M208.1 228.2L188.2 91.7" stroke="#D7E4E7" stroke-miterlimit="10" stroke-linecap="round" stroke-linejoin="round"/>
<path d="M143.6 262.4L180.9 87" stroke="#D7E4E7" stroke-miterlimit="10" stroke-linecap="round" stroke-linejoin="round"/>
<path d="M70.1 160L179.2 86.4" stroke="#D7E4E7" stroke-miterlimit="10" stroke-linecap="round" stroke-linejoin="round"/>
<path d="M107.4 176.1L180.9 87" stroke="#D7E4E7" stroke-miterlimit="10" stroke-linecap="round" stroke-linejoin="round"/>
<path d="M0 74.3L181.7 86.3" stroke="#D7E4E7" stroke-miterlimit="10" stroke-linecap="round" stroke-linejoin="round"/>
<path d="M184 80.7L37.3 0" stroke="#D7E4E7" stroke-miterlimit="10" stroke-linecap="round" stroke-linejoin="round"/>
<path d="M182 82.4L0.900002 8.2" stroke="#D7E4E7" stroke-miterlimit="10" stroke-linecap="round" stroke-linejoin="round"/>
<path d="M186.7 78.3L185.8 50.6" stroke="#D7E4E7" stroke-miterlimit="10" stroke-linecap="round" stroke-linejoin="round"/>
<path d="M188.5 78.3C183.6 79.7 178.3 87.1 184.6 90.6C189.7 93.4 197.2 86.4 194.3 81.2C192.9 78.7 190.1 78 187.4 78.6" stroke="#D7E4E7" stroke-miterlimit="10" stroke-linecap="round" stroke-linejoin="round"/>
<path d="M200.5 80.2C199.5 82.4 199.9 84.7 201.5 86.7" stroke="#D7E4E7" stroke-miterlimit="10" stroke-linecap="round" stroke-linejoin="round"/>
<path d="M194.6 91.7C192.3 91.7 190.4 92.7 189.5 94.7" stroke="#D7E4E7" stroke-miterlimit="10" stroke-linecap="round" stroke-linejoin="round"/>
<path d="M176.6 81.1C177.7 82.6 177.9 84.5 177.1 86.2" stroke="#D7E4E7" stroke-miterlimit="10" stroke-linecap="round" stroke-linejoin="round"/>
<path d="M174.1 90.3C174.9 90.9 175.7 91.6 176.3 92.4" stroke="#D7E4E7" stroke-miterlimit="10" stroke-linecap="round" stroke-linejoin="round"/>
<path d="M188.1 95.6C185.7 93.9 183.1 92.7 180.3 93" stroke="#D7E4E7" stroke-miterlimit="10" stroke-linecap="round" stroke-linejoin="round"/>
<path d="M199.5 78.1C195.2 77 190.7 75.8 186.9 73.4" stroke="#D7E4E7" stroke-miterlimit="10" stroke-linecap="round" stroke-linejoin="round"/>
<path d="M170.1 85.7C171.8 86.9 172.5 88.7 171.9 90.7" stroke="#D7E4E7" stroke-miterlimit="10" stroke-linecap="round" stroke-linejoin="round"/>
<path d="M174.4 95.6C173.8 94.2 172.7 93.1 171.3 92.5" stroke="#D7E4E7" stroke-miterlimit="10" stroke-linecap="round" stroke-linejoin="round"/>
<path d="M178.6 97C177.8 95.4 176.4 94.3 174.7 93.8" stroke="#D7E4E7" stroke-miterlimit="10" stroke-linecap="round" stroke-linejoin="round"/>
<path d="M189.3 98.6C186.3 96.7 182.7 95.7 179.3 96.4" stroke="#D7E4E7" stroke-miterlimit="10" stroke-linecap="round" stroke-linejoin="round"/>
<path d="M190.6 105.5C187 103.4 182.2 101.5 177.9 102" stroke="#D7E4E7" stroke-miterlimit="10" stroke-linecap="round" stroke-linejoin="round"/>
<path d="M189.7 107.8C186.4 105.1 181.9 103.5 177.6 103.8" stroke="#D7E4E7" stroke-miterlimit="10" stroke-linecap="round" stroke-linejoin="round"/>
<path d="M202.2 97.8C197 97.8 193.8 101 190.5 104.1" stroke="#D7E4E7" stroke-miterlimit="10" stroke-linecap="round" stroke-linejoin="round"/>
<path d="M204.2 100.1C198.8 101.9 195.1 103.9 191.2 108.3" stroke="#D7E4E7" stroke-miterlimit="10" stroke-linecap="round" stroke-linejoin="round"/>
<path d="M209.4 88.5C208 91.6 206.7 97.3 207.1 100.5" stroke="#D7E4E7" stroke-miterlimit="10" stroke-linecap="round" stroke-linejoin="round"/>
<path d="M206.7 88.3C205 91.4 203.1 95 203.7 98.7" stroke="#D7E4E7" stroke-miterlimit="10" stroke-linecap="round" stroke-linejoin="round"/>
<path d="M205.7 75.2C199.7 74.6 191.5 71.4 187.2 67.3" stroke="#D7E4E7" stroke-miterlimit="10" stroke-linecap="round" stroke-linejoin="round"/>
<path d="M187.2 67.6C185 71.4 182.8 75 179.4 77.9" stroke="#D7E4E7" stroke-miterlimit="10" stroke-linecap="round" stroke-linejoin="round"/>
<path d="M186.5 73.8C185 75.8 183.3 77.5 181.3 79.1" stroke="#D7E4E7" stroke-miterlimit="10" stroke-linecap="round" stroke-linejoin="round"/>
<path d="M179.4 78.3C179 79.2 178.1 80 177.1 80.3" stroke="#D7E4E7" stroke-miterlimit="10" stroke-linecap="round" stroke-linejoin="round"/>
<path d="M185.6 65.8C182.9 69.3 179.4 73.5 174.9 74.9" stroke="#D7E4E7" stroke-miterlimit="10" stroke-linecap="round" stroke-linejoin="round"/>
<path d="M173.9 75.4C174 76.4 173.7 77.5 173.1 78.3" stroke="#D7E4E7" stroke-miterlimit="10" stroke-linecap="round" stroke-linejoin="round"/>
<path d="M172.7 79.1C173.5 81.4 173.2 83.8 171.9 85.3" stroke="#D7E4E7" stroke-miterlimit="10" stroke-linecap="round" stroke-linejoin="round"/>
<path d="M213.8 71.4C205.4 70.9 194.6 67.1 186.8 63.3" stroke="#D7E4E7" stroke-miterlimit="10" stroke-linecap="round" stroke-linejoin="round"/>
<path d="M186.1 63.9C179.3 67.8 170.8 71.2 163.1 69.2" stroke="#D7E4E7" stroke-miterlimit="10" stroke-linecap="round" stroke-linejoin="round"/>
<path d="M186 62.5C176.3 64.4 165.5 64.4 155.8 62.9C153.8 62.6 151.7 62 149.7 61.5" stroke="#D7E4E7" stroke-miterlimit="10" stroke-linecap="round" stroke-linejoin="round"/>
<path d="M185.8 59C173.2 56.4 161 52.8 148.8 49.1C137.5 45.6 126 42.5 114.7 38.7C109.7 37 104.8 35.5 99.8 34" stroke="#D7E4E7" stroke-miterlimit="10" stroke-linecap="round" stroke-linejoin="round"/>
<path d="M185.5 60.3C171.2 61.3 154.5 54.8 140.3 52.5C136.9 52 132.9 51.4 129.8 50.7" stroke="#D7E4E7" stroke-miterlimit="10" stroke-linecap="round" stroke-linejoin="round"/>
<path d="M167.2 72.1C168.6 73.1 169.3 74.5 168.9 76.1" stroke="#D7E4E7" stroke-miterlimit="10" stroke-linecap="round" stroke-linejoin="round"/>
<path d="M166.8 75.8C169.3 79.3 167.6 83.4 163.7 84.8" stroke="#D7E4E7" stroke-miterlimit="10" stroke-linecap="round" stroke-linejoin="round"/>
<path d="M158.4 72.9C161.5 75.9 162.8 80.8 160.6 84.6" stroke="#D7E4E7" stroke-miterlimit="10" stroke-linecap="round" stroke-linejoin="round"/>
<path d="M157.4 66C158.3 68.1 157.9 70 156.3 71.4" stroke="#D7E4E7" stroke-miterlimit="10" stroke-linecap="round" stroke-linejoin="round"/>
<path d="M146 68.5C150.1 72.4 152.7 78.2 150.6 83.6" stroke="#D7E4E7" stroke-miterlimit="10" stroke-linecap="round" stroke-linejoin="round"/>
<path d="M147.6 61.1C147.4 63.6 145.4 65.5 143.2 66.1" stroke="#D7E4E7" stroke-miterlimit="10" stroke-linecap="round" stroke-linejoin="round"/>
<path d="M132.5 52.8C133.5 56.1 131.8 59.1 128.6 60" stroke="#D7E4E7" stroke-miterlimit="10" stroke-linecap="round" stroke-linejoin="round"/>
<path d="M127.5 60.1C132.6 65 135.6 75.3 133.4 82.1" stroke="#D7E4E7" stroke-miterlimit="10" stroke-linecap="round" stroke-linejoin="round"/>
<path d="M159.2 85.5C162.5 88.6 165.5 92.4 163 96.9" stroke="#D7E4E7" stroke-miterlimit="10" stroke-linecap="round" stroke-linejoin="round"/>
<path d="M147.5 84.8C151.9 88.9 157.3 95.2 155.9 101.7" stroke="#D7E4E7" stroke-miterlimit="10" stroke-linecap="round" stroke-linejoin="round"/>
<path d="M135.1 83.2C141.3 89.2 149.1 97 148.3 106.5" stroke="#D7E4E7" stroke-miterlimit="10" stroke-linecap="round" stroke-linejoin="round"/>
<path d="M168.8 101.7C167.7 99.6 166 98.1 163.8 97.3" stroke="#D7E4E7" stroke-miterlimit="10" stroke-linecap="round" stroke-linejoin="round"/>
<path d="M164.4 106.7C162.9 104.2 160.4 102.5 157.7 101.2" stroke="#D7E4E7" stroke-miterlimit="10" stroke-linecap="round" stroke-linejoin="round"/>
<path d="M162.5 107.9C159 106.2 155.4 104.5 151.3 105.7" stroke="#D7E4E7" stroke-miterlimit="10" stroke-linecap="round" stroke-linejoin="round"/>
<path d="M172 97.4C174.4 100 176.6 102.7 177.1 106.1" stroke="#D7E4E7" stroke-miterlimit="10" stroke-linecap="round" stroke-linejoin="round"/>
<path d="M165.8 106.2C169.7 109.2 173.1 114.6 174.6 119.4" stroke="#D7E4E7" stroke-miterlimit="10" stroke-linecap="round" stroke-linejoin="round"/>
<path d="M173.1 123.2C172 118.2 167.5 111.7 162.6 110.1" stroke="#D7E4E7" stroke-miterlimit="10" stroke-linecap="round" stroke-linejoin="round"/>
<path d="M228 65C217.1 66.2 206 64.8 195.1 63.3C192.2 62.9 189.4 62.8 186.6 62.3" stroke="#D7E4E7" stroke-miterlimit="10" stroke-linecap="round" stroke-linejoin="round"/>
<path d="M252.5 53.6C234.5 56.2 216.5 59.5 198.2 60C194.3 60.1 190.2 59.7 186.4 58.8" stroke="#D7E4E7" stroke-miterlimit="10" stroke-linecap="round" stroke-linejoin="round"/>
<path d="M335.1 15.4C329.1 17.2 323 18.8 317.1 20.8C279.2 34.2 241.3 43.9 202 52.6C197 53.7 191 54.8 185.9 54.1" stroke="#D7E4E7" stroke-miterlimit="10" stroke-linecap="round" stroke-linejoin="round"/>
<path d="M186.2 52.7C168.9 55.3 147.8 50.7 130.9 46.8C125.8 45.6 120.8 44.4 115.8 43.1" stroke="#D7E4E7" stroke-miterlimit="10" stroke-linecap="round" stroke-linejoin="round"/>
<path d="M381.8 47.7C360.7 45.2 340.5 40.7 321.2 31.7C317.7 30 314.3 27.7 310.6 26.5" stroke="#D7E4E7" stroke-miterlimit="10" stroke-linecap="round" stroke-linejoin="round"/>
<path d="M381.1 48.3C366.8 55 361.4 73.5 366.1 88.2C367.3 92 369.5 95.3 372 98.4" stroke="#D7E4E7" stroke-miterlimit="10" stroke-linecap="round" stroke-linejoin="round"/>
<path d="M378.9 49.1C363.5 53.1 353.1 72.3 353.4 87.3C353.5 90.8 353.8 94.1 355.1 97.4" stroke="#D7E4E7" stroke-miterlimit="10" stroke-linecap="round" stroke-linejoin="round"/>
<path d="M352.4 96.9C321.4 95.1 292.4 118.5 283.5 147.1C282.2 151.1 281.1 155 281.3 159.2" stroke="#D7E4E7" stroke-miterlimit="10" stroke-linecap="round" stroke-linejoin="round"/>
<path d="M284 162.3C271.9 162.8 259.6 167.4 249.3 173.6C237.1 180.9 222.4 190.4 214.1 202.3C210.7 207.2 208.3 212.6 207.4 218.4" stroke="#D7E4E7" stroke-miterlimit="10" stroke-linecap="round" stroke-linejoin="round"/>
<path d="M206.3 220.1C186 209 163.5 226.8 152.4 243C149.9 246.6 147.7 250.4 145.6 254.3" stroke="#D7E4E7" stroke-miterlimit="10" stroke-linecap="round" stroke-linejoin="round"/>
<path d="M109.5 174.4C128.3 187.4 140.3 220.5 143.9 242.3C144.6 246.8 145 251.4 144.7 256" stroke="#D7E4E7" stroke-miterlimit="10" stroke-linecap="round" stroke-linejoin="round"/>
<path d="M201.9 189.4C186.3 183.4 170.5 190.3 160.6 202.6C158.6 205.1 156.7 207.7 155 210.4" stroke="#D7E4E7" stroke-miterlimit="10" stroke-linecap="round" stroke-linejoin="round"/>
<path d="M121.8 158.4C136.6 169.3 149.1 179.2 154.5 197.7C155.4 200.9 156.2 204 155.9 207.4" stroke="#D7E4E7" stroke-miterlimit="10" stroke-linecap="round" stroke-linejoin="round"/>
<path d="M134.6 143.7C146.4 145.8 155.5 157.6 159.9 168.1C160.9 170.5 161.7 173 162.1 175.6" stroke="#D7E4E7" stroke-miterlimit="10" stroke-linecap="round" stroke-linejoin="round"/>
<path d="M199.9 175.4C194.7 166.4 180 161.7 170.3 164.5C168.2 165.1 166.4 165.8 164.7 167.2" stroke="#D7E4E7" stroke-miterlimit="10" stroke-linecap="round" stroke-linejoin="round"/>
<path d="M199.2 172.6C194.3 163.8 184 155.8 174.1 153.8C171.7 153.3 169.6 153 167.2 153.5" stroke="#D7E4E7" stroke-miterlimit="10" stroke-linecap="round" stroke-linejoin="round"/>
<path d="M199.5 165.4C194 156 180.3 145.6 168.9 145" stroke="#D7E4E7" stroke-miterlimit="10" stroke-linecap="round" stroke-linejoin="round"/>
<path d="M197.3 156.3C191.7 149.1 178.4 143.3 169.3 144.6" stroke="#D7E4E7" stroke-miterlimit="10" stroke-linecap="round" stroke-linejoin="round"/>
<path d="M196.3 146.5C191.2 139.9 180.3 134 171.8 134.3" stroke="#D7E4E7" stroke-miterlimit="10" stroke-linecap="round" stroke-linejoin="round"/>
<path d="M196.9 150C190.4 144 180.1 136.3 170.5 137.7" stroke="#D7E4E7" stroke-miterlimit="10" stroke-linecap="round" stroke-linejoin="round"/>
<path d="M193.8 129.9C188.1 126.2 181.3 122.4 174.4 122.1" stroke="#D7E4E7" stroke-miterlimit="10" stroke-linecap="round" stroke-linejoin="round"/>
<path d="M194.6 135.8C189.3 131 180.4 125 172.8 125.7" stroke="#D7E4E7" stroke-miterlimit="10" stroke-linecap="round" stroke-linejoin="round"/>
<path d="M224.4 115.8C214.2 114.7 199.5 119.4 194.5 129" stroke="#D7E4E7" stroke-miterlimit="10" stroke-linecap="round" stroke-linejoin="round"/>
<path d="M224.7 116.2C213.9 120.9 205.5 131.5 199.6 141.4C198.4 143.5 197.6 145.8 196.4 147.9" stroke="#D7E4E7" stroke-miterlimit="10" stroke-linecap="round" stroke-linejoin="round"/>
<path d="M237.4 125.5C223.9 124.9 211.2 133 202.5 142.5C200.5 144.7 198.5 146.9 196.5 149.2" stroke="#D7E4E7" stroke-miterlimit="10" stroke-linecap="round" stroke-linejoin="round"/>
<path d="M244.7 131.6C228.9 129.7 212.2 138.8 203.2 151.6C201.4 154.1 200 156.9 198.8 159.7" stroke="#D7E4E7" stroke-miterlimit="10" stroke-linecap="round" stroke-linejoin="round"/>
<path d="M249.9 135.9C231.9 138.7 215.8 148.6 205.4 163.7C203.3 166.8 201.6 170 200.3 173.5" stroke="#D7E4E7" stroke-miterlimit="10" stroke-linecap="round" stroke-linejoin="round"/>
<path d="M271.5 152.8C243.6 155.7 219.7 163.7 209.1 191.2C207.5 195.5 206.3 199.9 205.1 204.3" stroke="#D7E4E7" stroke-miterlimit="10" stroke-linecap="round" stroke-linejoin="round"/>
<path d="M319.1 95.1C300.8 102.9 280.4 122.2 274.7 141.7C273.7 144.9 273.1 148.4 272.8 151.7" stroke="#D7E4E7" stroke-miterlimit="10" stroke-linecap="round" stroke-linejoin="round"/>
<path d="M283.1 93.5C267.1 102.1 262.2 126.7 268 143C269.1 146.2 270.8 149.2 272.2 152.3" stroke="#D7E4E7" stroke-miterlimit="10" stroke-linecap="round" stroke-linejoin="round"/>
<path d="M267.6 92.2C256.6 103.2 255.3 120.8 258.5 135.4C259.1 138.1 259.7 140.6 260.8 143.1" stroke="#D7E4E7" stroke-miterlimit="10" stroke-linecap="round" stroke-linejoin="round"/>
<path d="M259.6 91.1C249.1 97 246.6 112.6 246.4 123.6C246.4 126.4 246.7 129.3 247 132.1" stroke="#D7E4E7" stroke-miterlimit="10" stroke-linecap="round" stroke-linejoin="round"/>
<path d="M251.2 91.2C241.9 97.4 238.2 111.7 239.9 122.3C240.2 124.4 240.8 126.5 241.6 128.5" stroke="#D7E4E7" stroke-miterlimit="10" stroke-linecap="round" stroke-linejoin="round"/>
<path d="M235.9 90.1C230.6 97.4 232.4 116.1 236.2 124.1" stroke="#D7E4E7" stroke-miterlimit="10" stroke-linecap="round" stroke-linejoin="round"/>
<path d="M230 89.4C225.1 95.6 224.5 108.1 226.1 115.7" stroke="#D7E4E7" stroke-miterlimit="10" stroke-linecap="round" stroke-linejoin="round"/>
<path d="M229 89.9C222.6 93.3 216 99.5 213.2 106.1" stroke="#D7E4E7" stroke-miterlimit="10" stroke-linecap="round" stroke-linejoin="round"/>
<path d="M343.6 55C334 62.1 325 73.6 324.7 86.1C324.6 89.2 325 92.1 326.3 95" stroke="#D7E4E7" stroke-miterlimit="10" stroke-linecap="round" stroke-linejoin="round"/>
<path d="M297.8 63.2C291.7 73.2 293.8 83 296.2 93.8" stroke="#D7E4E7" stroke-miterlimit="10" stroke-linecap="round" stroke-linejoin="round"/>
<path d="M278.9 65.9C272.5 73 271 82 270 91.2" stroke="#D7E4E7" stroke-miterlimit="10" stroke-linecap="round" stroke-linejoin="round"/>
<path d="M263.7 69.1C260.9 74.4 264.7 85.5 267.3 90.6" stroke="#D7E4E7" stroke-miterlimit="10" stroke-linecap="round" stroke-linejoin="round"/>
<path d="M250.3 71.1C249.7 77.6 251.7 86.6 255.9 90.8" stroke="#D7E4E7" stroke-miterlimit="10" stroke-linecap="round" stroke-linejoin="round"/>
<path d="M231.3 75.4C230.8 80.8 234.7 86.5 238.6 89.9" stroke="#D7E4E7" stroke-miterlimit="10" stroke-linecap="round" stroke-linejoin="round"/>
<path d="M222.6 76.8C222.8 81.4 225.7 86 228.9 88.9" stroke="#D7E4E7" stroke-miterlimit="10" stroke-linecap="round" stroke-linejoin="round"/>
<path d="M219.4 77.4C217.9 80.7 217.6 84.3 219.2 87.5" stroke="#D7E4E7" stroke-miterlimit="10" stroke-linecap="round" stroke-linejoin="round"/>
<path d="M216.9 78.2C214.6 81.2 212 84.7 210.9 87.6" stroke="#D7E4E7" stroke-miterlimit="10" stroke-linecap="round" stroke-linejoin="round"/>
<path d="M210.8 78.8C207.9 80.6 206.3 83.7 207.4 87" stroke="#D7E4E7" stroke-miterlimit="10" stroke-linecap="round" stroke-linejoin="round"/>
<path d="M349.4 52.8C333.9 53.1 316.3 50.3 303.2 41.6C300.1 39.5 297.2 37.5 295.1 34.3" stroke="#D7E4E7" stroke-miterlimit="10" stroke-linecap="round" stroke-linejoin="round"/>
<path d="M289.7 35.7C274.1 40.9 258.5 46.1 242.4 49.3C230.3 51.7 217.8 52.9 205.5 53.8C199.5 54.2 193.5 54.2 187.5 54.2" stroke="#D7E4E7" stroke-miterlimit="10" stroke-linecap="round" stroke-linejoin="round"/>
<path d="M279.4 41.6C280.6 51.3 291.2 57.8 299.1 62.1" stroke="#D7E4E7" stroke-miterlimit="10" stroke-linecap="round" stroke-linejoin="round"/>
<path d="M277.1 66.8C271 62.8 263.6 57.2 261.3 49.8" stroke="#D7E4E7" stroke-miterlimit="10" stroke-linecap="round" stroke-linejoin="round"/>
<path d="M253.8 54.7C251.8 59.2 251.3 66.2 255.2 69.6" stroke="#D7E4E7" stroke-miterlimit="10" stroke-linecap="round" stroke-linejoin="round"/>
<path d="M239.2 61C237.6 64.6 239.6 68.9 242.1 71.7" stroke="#D7E4E7" stroke-miterlimit="10" stroke-linecap="round" stroke-linejoin="round"/>
<path d="M225.6 66.4C225.7 69.7 228 72.9 230.4 74.7" stroke="#D7E4E7" stroke-miterlimit="10" stroke-linecap="round" stroke-linejoin="round"/>
<path d="M214.7 72.4C215.4 74 217.4 75.9 219.3 76.8" stroke="#D7E4E7" stroke-miterlimit="10" stroke-linecap="round" stroke-linejoin="round"/>
<path d="M211.2 77.7C209.4 77 207.5 76.1 206.1 75.2" stroke="#D7E4E7" stroke-miterlimit="10" stroke-linecap="round" stroke-linejoin="round"/>
<path d="M155.6 118.5C162.1 122.8 167 130.1 169.9 137.1" stroke="#D7E4E7" stroke-miterlimit="10" stroke-linecap="round" stroke-linejoin="round"/>
<path d="M155.8 116.5C161.7 117.2 167.4 119.9 172 123.5" stroke="#D7E4E7" stroke-miterlimit="10" stroke-linecap="round" stroke-linejoin="round"/>
<path d="M151.2 123.5C158.2 130.6 163 138.7 166.9 147.9" stroke="#D7E4E7" stroke-miterlimit="10" stroke-linecap="round" stroke-linejoin="round"/>
<path d="M147 129.5C156.5 140.2 159.7 151.2 164.4 164.1" stroke="#D7E4E7" stroke-miterlimit="10" stroke-linecap="round" stroke-linejoin="round"/>
<path d="M155.1 117.4C153.4 113.8 150.5 109.7 147.5 108" stroke="#D7E4E7" stroke-miterlimit="10" stroke-linecap="round" stroke-linejoin="round"/>
<path d="M142.6 110.8C145.9 115.5 147.9 122 148 127.7" stroke="#D7E4E7" stroke-miterlimit="10" stroke-linecap="round" stroke-linejoin="round"/>
<path d="M132.8 118.1C136.9 122 141.7 124.6 145 129.4" stroke="#D7E4E7" stroke-miterlimit="10" stroke-linecap="round" stroke-linejoin="round"/>
<path d="M136.1 115.9C140.8 118.8 145 122 148.1 126.6" stroke="#D7E4E7" stroke-miterlimit="10" stroke-linecap="round" stroke-linejoin="round"/>
<path d="M121.4 125.6C127.7 127.7 135.1 132 138.2 137.9" stroke="#D7E4E7" stroke-miterlimit="10" stroke-linecap="round" stroke-linejoin="round"/>
<path d="M109.9 132.5C117.1 138.9 121.9 144.7 125.2 153.9" stroke="#D7E4E7" stroke-miterlimit="10" stroke-linecap="round" stroke-linejoin="round"/>
<path d="M109.2 173.3C103.3 163.3 91.4 159.3 80.4 158C78 157.7 75.5 157.6 73.1 157.5" stroke="#D7E4E7" stroke-miterlimit="10" stroke-linecap="round" stroke-linejoin="round"/>
<path d="M53.8 10.2C44.8 16.4 29.4 20.6 18.9 15.7" stroke="#D7E4E7" stroke-miterlimit="10" stroke-linecap="round" stroke-linejoin="round"/>
<path d="M9 12C23.4 22.1 33 48.7 28.5 66.1C27.5 69.8 25.5 72.8 22.9 75.5" stroke="#D7E4E7" stroke-miterlimit="10" stroke-linecap="round" stroke-linejoin="round"/>
<path d="M22.2 75.1C48 87.3 74 112.9 75.8 143.5C76.1 147.9 75.3 152.4 74.7 156.8" stroke="#D7E4E7" stroke-miterlimit="10" stroke-linecap="round" stroke-linejoin="round"/>
<path d="M67.6 36.6C71.1 48.7 62.9 63.9 54.2 71.9C52 74 49.7 75.9 47 77.3" stroke="#D7E4E7" stroke-miterlimit="10" stroke-linecap="round" stroke-linejoin="round"/>
<path d="M87.3 80C101.8 89 108.7 108.1 109.1 124.6C109.2 128.1 109.2 131.4 107.8 134.8" stroke="#D7E4E7" stroke-miterlimit="10" stroke-linecap="round" stroke-linejoin="round"/>
<path d="M105.9 81.9C117.4 87 127.2 101.6 128.4 114.2C128.6 116.5 128.7 118.5 128.2 120.7" stroke="#D7E4E7" stroke-miterlimit="10" stroke-linecap="round" stroke-linejoin="round"/>
<path d="M110.6 81.8C122 86.9 131 96.4 137.8 106.6C139 108.4 139.9 110.4 141.2 112.1" stroke="#D7E4E7" stroke-miterlimit="10" stroke-linecap="round" stroke-linejoin="round"/>
<path d="M126.3 82.9C135.5 89 141.5 100.6 142.4 111.4" stroke="#D7E4E7" stroke-miterlimit="10" stroke-linecap="round" stroke-linejoin="round"/>
<path d="M125.2 60C127.6 67.3 122.8 75.9 121.3 82.6" stroke="#D7E4E7" stroke-miterlimit="10" stroke-linecap="round" stroke-linejoin="round"/>
<path d="M120.5 46.8C122.9 50 125.1 55 124.6 59" stroke="#D7E4E7" stroke-miterlimit="10" stroke-linecap="round" stroke-linejoin="round"/>
<path d="M112 42.2C110.2 46.3 106.9 49.2 102.6 49.8" stroke="#D7E4E7" stroke-miterlimit="10" stroke-linecap="round" stroke-linejoin="round"/>
<path d="M101.6 49.2C106.9 54.8 110.2 75.1 103.2 80.5" stroke="#D7E4E7" stroke-miterlimit="10" stroke-linecap="round" stroke-linejoin="round"/>
<path d="M68.1 35.8C74.4 37.1 85.7 34.7 89.2 28.9" stroke="#D7E4E7" stroke-miterlimit="10" stroke-linecap="round" stroke-linejoin="round"/>
<path d="M75.6 21.4C68 26.2 58.8 28.3 50 27.9" stroke="#D7E4E7" stroke-miterlimit="10" stroke-linecap="round" stroke-linejoin="round"/>
<path d="M23.3 17.3C36.2 30.3 43.1 50 35.4 67.5C34.1 70.5 32.3 73.3 30.3 76" stroke="#D7E4E7" stroke-miterlimit="10" stroke-linecap="round" stroke-linejoin="round"/>
<path d="M31.3 75.8C57.9 82.8 83 103.7 96.8 127.3C98.9 130.9 100.7 134.5 101.3 138.6" stroke="#D7E4E7" stroke-miterlimit="10" stroke-linecap="round" stroke-linejoin="round"/>
<path d="M101.5 138C109.9 144.8 114.5 158.8 113.1 169.4" stroke="#D7E4E7" stroke-miterlimit="10" stroke-linecap="round" stroke-linejoin="round"/>
<path d="M208.1 228.2C208.8 245.4 208.8 281.9 209.8 299.1" stroke="#D7E4E7" stroke-miterlimit="10"/>
<path d="M190.2 299.3C185.3 292.7 178.3 283.3 175.9 281.4C173.4 279.5 172 278 167.4 283.5C162.8 288.9 149.2 304.2 143.4 312.4C137.6 320.7 134 325.4 130.1 323.4C126.2 321.3 136.9 309.5 140.7 304.3C144.4 299.1 161.5 279.6 166 275C170.5 270.4 175.4 269.8 181.6 277.7C187.8 285.6 196.7 298.4 196.7 298.4L190.2 299.3Z" fill="#4F0008"/>
<path d="M201.7 297.8C200.5 290.2 196.8 273.7 192 273C187.2 272.4 183.5 274.5 174.1 289.4C164.7 304.2 166.6 310.1 168.2 310.7C169.7 311.3 174.5 308.4 176.2 302.2C177.9 296 185.8 284.1 187.4 281.4C189 278.7 191.7 277.4 193.7 287.3C195.1 293.8 195.9 299.7 195.9 299.7C195.9 299.7 202.2 304.6 201.7 297.8Z" fill="#4F0008"/>
<path d="M171.4 304.7C167.3 299.1 154 283.7 149.4 280.9C144.9 278.2 141 276.8 128.7 289.6C116.4 302.4 107 310.8 107.4 314C107.8 317.2 114.4 315.4 122.2 306.5C130 297.6 136.4 290.1 137.2 289.1C139 286.8 143.7 283 148.2 287.8C151.3 291.1 165.4 305.5 168 307.8C170.7 308.4 171.4 304.7 171.4 304.7Z" fill="#4C0003"/>
<path d="M162.7 311.6C155.3 307.7 139.3 292.5 124 300.8C108.6 309.1 93.1 324 86.4 332.8C79.7 341.6 88.6 341.8 97 334.7C108.4 325 121 309.3 127.3 306C133.6 302.8 137.8 302.4 160.6 317.1C162.7 316.2 162.7 311.6 162.7 311.6Z" fill="#4C0003"/>
<path d="M219 300.4C221.1 297.3 228.4 281.9 231.4 278.9C233.3 277 235.9 273.6 248.4 283.2C262.3 293.8 274.5 302.8 275.8 304C279.9 308 279.2 314.7 272.2 310.9C265.1 307.1 249.3 291.6 244.3 288.3C239.3 285 237.2 283 234.5 286.6C231.7 290.2 223.8 305 223.8 305L219 300.4Z" fill="#4F0008"/>
<path d="M226.9 307.5C230 301.5 237.6 290.3 241.4 286C245.2 281.7 250.9 280.1 260.5 286.2C270.1 292.3 286.7 303.4 291.8 306.9C296.9 310.4 304 316.9 301.4 320.2C298.8 323.5 292.1 317.6 284 312.5C275.9 307.4 260 296 256 293.2C252 290.4 247.6 285.8 243.1 293.5C238.6 301.2 232.1 310.9 230.5 312.6C228.9 314.3 226.9 307.5 226.9 307.5Z" fill="#4F0008"/>
<path d="M234.9 325.1C232.3 344.4 204.4 355.4 183.9 345.8C176.3 343.6 158.4 317.9 158.4 317.9C158.4 314.2 162.7 309.3 167.9 306.2C169.3 305.4 170.9 304.5 172.6 303.8C174.4 303 176.4 302.2 178.6 301.5C183.6 299.8 189.5 298.5 196 297.5C206.4 295.9 216.5 297.9 223.8 302.4C231.5 307.2 236.2 315.1 234.9 325.1Z" fill="#EE7675"/>
<path d="M223.7 302.3C214.1 302.7 211.2 310 210.1 313C208.9 316.2 209.2 316.4 207 315.5C200.7 312.5 189.6 311.8 183.9 315.2C178.2 318.7 179.3 315.9 181.4 310.6C183.1 306.5 181.1 303 178.6 301.4C183.6 299.7 189.5 298.4 196 297.4C206.4 295.8 216.4 297.7 223.7 302.3Z" fill="#F2B0A2"/>
<path d="M168.8 316C151.2 315.5 138.3 322.9 139.3 335.9C140.3 348.9 151.7 354.3 168.5 354C190.4 353.6 196.1 342.1 195 334.5C194 327.8 190.4 316.6 168.8 316Z" fill="#F2B0A2"/>
<path d="M158.4 333.5C156.6 331.2 151 328.6 147 333.7C142.4 339.5 147.9 346.1 153.8 344.7C159.2 343.4 161.4 337.4 158.4 333.5Z" fill="#FAFFFA"/>
<path d="M155.9 333.4C153.3 332.9 148.9 335 150.8 339.7C152.7 344.4 158.4 342.2 159.5 340.1C160.5 338.1 159.8 334.2 155.9 333.4Z" fill="#B21E34"/>
<path d="M176.1 333.7C177.9 331.4 183.5 328.8 187.5 333.9C192.1 339.7 186.6 346.3 180.7 344.9C175.2 343.6 173 337.5 176.1 333.7Z" fill="#FAFFFA"/>
<path d="M183.8 333.9C186.4 333.4 190.8 335.5 188.9 340.2C187 344.9 181.3 342.7 180.2 340.6C179.2 338.6 179.9 334.7 183.8 333.9Z" fill="#B21E34"/>
<path d="M171.6 342.4C171.4 343.1 171.2 343.7 170.9 344.4C169.9 346.7 167.8 344.6 167.6 343.2C167.5 342.5 166.6 342.5 166.6 343.2C166.6 344.2 166.5 345.5 165.3 345.8C163.9 346.2 162.9 343.9 163.1 342.9C163.2 342.2 162.2 342 162.1 342.6C161.8 344.2 162.9 346.6 164.7 346.8C166.1 346.9 166.8 346.2 167.2 345.1C167.7 345.9 168.5 346.5 169.6 346.5C171.4 346.5 172.1 343.9 172.5 342.6C172.7 342 171.7 341.8 171.6 342.4Z" fill="#B21E34"/>
<path d="M160.6 326.1C162.5 326.1 164.5 324.2 163.5 322.3C162.7 320.7 160.5 319.8 158.8 319.9C157.6 320 156.3 320.5 155.9 321.6C155.5 322.6 156.1 323.6 156.7 324.4C157.8 325.6 159 326.1 160.6 326.1Z" fill="#B1354E"/>
<path d="M176.9 322.2C176.4 324.2 173.9 326.4 172.1 326.2C170.7 326.1 168.8 324.7 169 323.2C169.2 321.5 170.4 320.3 172 319.8C173 319.5 174.8 319.1 175.7 319.7C176.8 320.3 177.1 321.2 176.9 322.2Z" fill="#B1354E"/>
<path d="M179.1 325.2C178.3 327.6 186 329.4 188.6 328.4C191.2 327.5 181.6 317.1 179.1 325.2Z" fill="#B21E34"/>
<path d="M154.8 324.9C155.6 327.3 147.9 329.1 145.3 328.1C142.6 327.2 152.2 316.8 154.8 324.9Z" fill="#B21E34"/>
<path d="M173.3 309.1C173.2 313.7 169.2 312.6 168.8 310C168.4 307.9 168.3 307.1 167.9 306.1C169.3 305.3 170.9 304.4 172.6 303.7C172.9 305 173.4 306.7 173.3 309.1Z" fill="#B21E34"/>
<path d="M278.4 323C280.6 322.3 282.7 322.5 285 322.5C285.7 322.5 285.7 321.5 285 321.5C282.7 321.5 280.4 321.3 278.1 322C277.5 322.2 277.8 323.2 278.4 323Z" fill="#FAFFFA"/>
<path d="M226.1 325.6C224 329.1 222.8 331.3 225.9 332.3C229 333.3 234.5 327.5 239.2 320.3C243.8 313.1 248.7 305.8 253.5 309.8C258.3 313.8 274.5 328.6 282.3 336.1C290 343.7 296.8 343.8 298.3 340.7C299.8 337.6 294.2 332.6 287.8 327.6C281.4 322.6 262.8 308 256.8 304C250.8 300 245.6 298.3 239.4 307.6C233.1 317 227.6 323 226.1 325.6Z" fill="#4C0003"/>
<path d="M210.5 328.2C215.6 322.8 230.4 311.4 235 310.9C239.6 310.4 245.3 317.6 258 332.3C270.7 347 277.6 355.5 273.5 358.9C269.4 362.3 257.7 346 247.6 331.4C238.8 318.8 236.5 318.5 232.9 320.4C224.1 325 217.7 332.4 213.9 333.9C210.1 335.4 205.9 333.1 210.5 328.2Z" fill="#4F0008"/>
<path d="M176 281.9C178.7 284.6 181.4 287.9 183.2 291.3C183.5 291.9 184.4 291.4 184.1 290.8C182.2 287.4 179.5 284 176.7 281.2C176.3 280.7 175.6 281.4 176 281.9Z" fill="#FAFFFA"/>
<path d="M180.4 276.9C182.7 279.4 184.8 282.4 186.4 285.4C186.7 286 187.6 285.5 187.3 284.9C185.7 281.7 183.5 278.8 181.2 276.1C180.7 275.7 180 276.4 180.4 276.9Z" fill="#FAFFFA"/>
<path d="M246.4 290.5C252.6 286.8 259 294 263.6 297.5C266.4 299.6 269.3 301.4 272 303.6C274.5 305.7 277.2 307.7 279.6 309.9C280.1 310.3 280.8 309.6 280.3 309.2C277.6 306.8 274.7 304.6 272 302.3C268.8 299.6 265.2 297.5 262 295C257.4 291.4 252 286.1 245.9 289.7C245.3 289.9 245.8 290.8 246.4 290.5Z" fill="#FAFFFA"/>
<path d="M241.2 286.8C241.7 285.7 242.9 285 243.8 284.2C245.4 282.9 247.4 283.2 249.3 283.2C250 283.2 250 282.2 249.3 282.2C247.5 282.2 245.5 282 243.9 282.8C242.7 283.5 240.9 284.9 240.3 286.2C240.1 286.9 241 287.4 241.2 286.8Z" fill="#FAFFFA"/>
<path d="M226.1 325.6C228.3 323.8 230.8 322.5 233.3 321.1C235.4 320 237.8 319.8 239.3 321.9C239.8 322.6 240.2 323.3 240.8 323.9C241.2 324.4 242 323.7 241.5 323.2C239.9 321.3 239 318.7 236 319.3C232.2 320 228.3 322.4 225.4 324.9C224.9 325.3 225.6 326.1 226.1 325.6Z" fill="#FAFFFA"/>
<path d="M234.1 312.2C238.6 311.2 241.5 313.6 244.4 316.7C244.9 317.2 245.6 316.5 245.1 316C243.4 314.2 242.1 312.9 239.9 311.8C237.8 310.7 236 310.8 233.8 311.2C233.2 311.4 233.5 312.3 234.1 312.2Z" fill="#FAFFFA"/>
<path d="M129.1 297.9C123.9 299 120.2 302.7 115.9 305.4C111.6 308 108 311.5 104.1 314.6C103.6 315 104.3 315.7 104.8 315.3C108.7 312.3 112.3 308.9 116.4 306.3C120.6 303.6 124.3 300 129.4 299C130.1 298.8 129.8 297.8 129.1 297.9Z" fill="#FAFFFA"/>
<path d="M95.4 319.7C98.2 319.1 101 318.5 103.8 318C104.5 317.9 104.2 316.9 103.5 317C100.7 317.6 97.9 318.1 95.1 318.7C94.4 318.8 94.7 319.8 95.4 319.7Z" fill="#FAFFFA"/>
<path d="M92.1 324C94.5 322.9 97.3 322.8 99.7 321.8C100.3 321.6 100 320.6 99.4 320.8C96.8 321.8 94 321.9 91.5 323.1C90.9 323.3 91.5 324.2 92.1 324Z" fill="#FAFFFA"/>
<path d="M120.6 308.9C119.8 311.6 119.2 314.5 118.2 317.2C118 317.8 119 318.1 119.2 317.5C120.2 314.8 120.8 312 121.6 309.2C121.8 308.5 120.8 308.3 120.6 308.9Z" fill="#FAFFFA"/>
<path d="M117.7 311.7C116.7 313.9 116.6 316.4 116.3 318.7C116.2 319.4 117.2 319.6 117.3 319C117.6 316.8 117.7 314.3 118.6 312.2C118.9 311.6 118 311.1 117.7 311.7Z" fill="#FAFFFA"/>
<path d="M136.5 297C137.6 298.1 138.9 299.2 139.7 300.7C140 301.3 140.9 300.8 140.6 300.2C139.8 298.7 138.5 297.5 137.2 296.3C136.8 295.8 136.1 296.5 136.5 297Z" fill="#FAFFFA"/>
<path d="M133.3 298C134.1 298.8 135 299.7 136 300.3C136.6 300.7 137.1 299.8 136.5 299.4C135.6 298.8 134.8 298 134 297.2C133.5 296.8 132.8 297.6 133.3 298Z" fill="#FAFFFA"/>
<path d="M146.3 278.2C147.7 279.9 149.2 281.7 149.2 284C149.2 284.7 150.3 284.7 150.2 284C150.1 281.4 148.5 279.4 146.9 277.4C146.7 277 145.9 277.7 146.3 278.2Z" fill="#FAFFFA"/>
<path d="M150.7 280.6C151.1 282.3 151.8 283.8 152.5 285.4C152.8 286 153.7 285.5 153.4 284.9C152.7 283.4 152.1 281.9 151.7 280.4C151.5 279.7 150.5 280 150.7 280.6Z" fill="#FAFFFA"/>
<path d="M131.1 287.3C128.7 288.7 126.3 290.1 123.9 291.4C123.3 291.7 123.8 292.6 124.4 292.3C126.8 290.9 129.2 289.5 131.6 288.2C132.2 287.8 131.7 286.9 131.1 287.3Z" fill="#FAFFFA"/>
<path d="M130.7 286.6C132 286.2 133.2 285.9 134.5 285.6C135.1 285.4 134.9 284.4 134.2 284.6C132.9 284.9 131.7 285.3 130.4 285.6C129.8 285.8 130 286.8 130.7 286.6Z" fill="#FAFFFA"/>
<path d="M255.9 334C257.2 334 258.3 334.4 259.6 334.7C260.5 334.9 261.5 334.9 262.4 335.2C263 335.5 263.3 334.5 262.7 334.2C261.7 333.8 260.6 333.8 259.5 333.6C258.3 333.3 257.2 333 256 333C255.2 333 255.2 334 255.9 334Z" fill="#FAFFFA"/>
<path d="M252.8 330.7C254.8 330.7 256.9 330.9 258.9 331.4C259.5 331.6 259.8 330.6 259.2 330.4C257.1 329.9 255 329.7 252.9 329.7C252.1 329.7 252.1 330.7 252.8 330.7Z" fill="#FAFFFA"/>
<path d="M271.7 324.5C272.6 326.7 272.5 329.2 273.6 331.3C273.9 331.9 274.8 331.4 274.5 330.8C273.4 328.8 273.5 326.3 272.7 324.2C272.5 323.6 271.5 323.9 271.7 324.5Z" fill="#FAFFFA"/>
<path d="M274.8 328C274.8 329.7 275.4 331.4 276.2 332.9C276.5 333.5 277.4 333 277.1 332.4C276.4 331.1 275.8 329.5 275.8 328C275.8 327.3 274.8 327.3 274.8 328Z" fill="#FAFFFA"/>
<path d="M246.6 328.5C246.6 330.7 246.8 332.9 247.5 335C247.7 335.6 248.7 335.4 248.5 334.7C247.9 332.7 247.7 330.6 247.7 328.5C247.6 327.8 246.6 327.8 246.6 328.5Z" fill="#FAFFFA"/>
<path d="M163.4 276C164.7 275.1 167 274.8 168.6 274.8C169.3 274.8 169.3 273.7 168.6 273.8C166.8 273.8 164.4 274.1 162.9 275.2C162.3 275.5 162.8 276.4 163.4 276Z" fill="#FAFFFA"/>
<path d="M162 278.4C163 278.1 164.1 277.9 165.1 277.5C165.7 277.2 165.4 276.3 164.8 276.5C163.8 276.9 162.7 277.1 161.7 277.4C161 277.5 161.3 278.5 162 278.4Z" fill="#FAFFFA"/>
<path d="M262.7 289.1C264.4 288.4 266.3 288.8 268.1 288.3C268.7 288.1 268.5 287.1 267.8 287.3C266 287.7 264.1 287.4 262.4 288.1C261.8 288.3 262.1 289.3 262.7 289.1Z" fill="#FAFFFA"/>
<path d="M266.7 291.2C268 291 269.3 290.7 270.7 290.7C271.4 290.7 271.4 289.7 270.7 289.7C269.3 289.7 267.8 290 266.4 290.2C265.7 290.3 266 291.3 266.7 291.2Z" fill="#FAFFFA"/>
<path d="M285.9 304.4C287.5 304.4 289.2 304.4 290.8 304.9C291.4 305.1 291.7 304.1 291.1 303.9C289.4 303.4 287.7 303.4 285.9 303.4C285.2 303.3 285.2 304.4 285.9 304.4Z" fill="#FAFFFA"/>
<path d="M288.9 307.4C290.2 308.1 291.6 308.7 292.9 309.5C293.5 309.8 294 308.9 293.4 308.6C292.1 307.8 290.7 307.2 289.4 306.5C288.8 306.2 288.3 307.1 288.9 307.4Z" fill="#FAFFFA"/>
<path d="M235.3 278.8C236.1 278 236.9 277.3 237.9 276.7C238.7 276.1 239.6 275.8 240.5 275.3C241.1 275 240.6 274.1 240 274.4C239 274.9 238 275.3 237.1 276C236.2 276.6 235.4 277.3 234.6 278.1C234.1 278.5 234.8 279.2 235.3 278.8Z" fill="#FAFFFA"/>
<path d="M238.1 279C239.4 278.6 240.5 277.9 241.7 277.5C242.3 277.3 242.1 276.3 241.4 276.5C240.2 276.9 239 277.6 237.8 278C237.2 278.2 237.5 279.2 238.1 279Z" fill="#FAFFFA"/>
<path d="M186.2 271.4C187.2 271.6 187.9 272.2 188.7 272.8C189.6 273.5 190.5 274.1 191.2 275.2C191.5 275.8 192.4 275.2 192.1 274.7C191.5 273.7 190.7 273 189.7 272.3C188.7 271.6 187.8 270.7 186.5 270.4C185.8 270.3 185.6 271.3 186.2 271.4Z" fill="#FAFFFA"/>
<path d="M192.4 273.2C193 274.7 193.8 276.3 193.8 278C193.8 278.7 194.9 278.7 194.8 278C194.7 276.2 194 274.6 193.4 273C193.2 272.4 192.2 272.6 192.4 273.2Z" fill="#FAFFFA"/>
<path d="M171.4 292.1C172 291.7 172.7 291.3 173.4 290.9C174.1 290.5 175 289.9 175.8 289.7C176.4 289.5 176.2 288.5 175.5 288.7C173.9 289.2 172.3 290.3 170.9 291.2C170.3 291.6 170.8 292.5 171.4 292.1Z" fill="#FAFFFA"/>
<path d="M204.4 303.1H204.3C205.7 301.1 206.2 299 205.4 298.4C204.5 297.7 202.1 298.6 200.5 300.7C200 301.3 199.7 301.9 199.5 302.6C199.3 302.2 199 301.9 198.7 301.5C197 299.5 194.9 298.4 194 299.2C193.1 300 193.5 302.5 195.2 304.5C195.2 304.5 195.2 304.5 195.3 304.6C192.9 305 191 306.2 191.2 307.2C191.4 308.3 193.6 309.4 196.3 309C198.3 308.7 199.9 307.7 200.5 306.8C201.4 307.3 202.6 307.7 204.1 307.8C206.8 308 209 307.2 209.1 306.1C209.1 304.9 207 303.3 204.4 303.1Z" fill="#B21E34"/>
<path d="M157.8 339.8C158.684 339.8 159.4 339.084 159.4 338.2C159.4 337.316 158.684 336.6 157.8 336.6C156.916 336.6 156.2 337.316 156.2 338.2C156.2 339.084 156.916 339.8 157.8 339.8Z" fill="#FAFFFA"/>
<path d="M187.3 340.4C188.184 340.4 188.9 339.684 188.9 338.8C188.9 337.916 188.184 337.2 187.3 337.2C186.416 337.2 185.7 337.916 185.7 338.8C185.7 339.684 186.416 340.4 187.3 340.4Z" fill="#FAFFFA"/>
<path d="M225.7 309.7C226.5 310.8 225 313.3 222.3 315.3C219.6 317.3 216.7 317.9 215.9 316.7C215.1 315.6 216.3 312.5 219 310.6C221.7 308.7 224.9 308.6 225.7 309.7Z" fill="#B21E34"/>
<path d="M202.5 325.8C201.7 327 198.8 326.4 196 324.6C193.2 322.8 191.6 320.3 192.3 319.2C193 318.1 196.3 318.1 199.1 319.9C201.9 321.7 203.3 324.7 202.5 325.8Z" fill="#B21E34"/>
</g>
<defs>
<clipPath id="clip0_23_642">
<rect width="384.5" height="359.4" fill="white"/>
</clipPath>
</defs>
</svg>
